<svg width="96" height="56" viewBox="0 0 96 56" fill="none" xmlns="http://www.w3.org/2000/svg">
<rect x="1" y="1" width="94" height="54" rx="15" fill="#FFB050" stroke="#4B371F" stroke-width="2"/>
<rect x="6" y="6" width="84" height="44" rx="11" fill="#FFCF23" stroke="#AF7026" stroke-width="2"/>
<path fill-rule="evenodd" clip-rule="evenodd" d="M57.2758 19.9763H58.2082C60.8502 19.9763 63 22.1022 63 24.7146V34.2617C63 36.8742 60.8502 39 58.2082 39H38.7918C36.1498 39 34 36.8742 34 34.2617V24.7146C34 22.1022 36.1498 19.9763 38.7918 19.9763H39.7242C39.9833 19.9763 40.2196 19.8387 40.3459 19.6178L41.6766 17.2742C42.1234 16.4866 42.9652 16 43.8782 16H53.1186C54.0316 16 54.8734 16.4898 55.3202 17.2742L56.6541 19.6178C56.7804 19.8387 57.02 19.9763 57.2758 19.9763ZM41.9388 28.8479C41.9388 32.424 44.8819 35 48.4984 35C52.1149 35 55.0579 32.424 55.0579 28.8479C55.0579 25.2717 52.1149 22.3615 48.4984 22.3615C44.8819 22.3615 41.9388 25.2717 41.9388 28.8479ZM44 28.5C44 26.0167 46.0198 24 48.5 24C50.9802 24 53 26.0167 53 28.5C53 30.9833 50.9833 33 48.5 33C46.0167 33 44 30.9833 44 28.5Z" fill="#654D1C"/>
<path d="M10 21.2555C10 16.0055 11.7123 11.3389 20.8447 11.3389M28.2648 11.3389H37.5" stroke="white" stroke-width="3" stroke-linecap="round" stroke-linejoin="round"/>
</svg>
