<svg width="19" height="23" viewBox="0 0 19 23" fill="none" xmlns="http://www.w3.org/2000/svg">
  <path d="M1.48167 6.05274L2.35126 6.54651L1.48167 6.05274C1.2546 6.45264 1.16547 6.86372 1.1269 7.28596C1.09133 7.67551 1.09469 8.1404 1.0985 8.66645L1.09881 8.71026L1.1377 14.1264L1.13801 14.1702C1.14176 14.6963 1.14507 15.1612 1.18624 15.5502C1.23086 15.9718 1.32589 16.3816 1.55867 16.7782L2.40884 16.2792L1.55867 16.7782C1.79145 17.1748 2.1029 17.4575 2.44929 17.702C2.76885 17.9276 3.17313 18.1571 3.63058 18.4168L3.66872 18.4385L6.79207 20.212L6.83014 20.2336C7.28759 20.4934 7.69187 20.723 8.04934 20.8818C8.43681 21.054 8.83919 21.1766 9.29904 21.1733C9.75889 21.17 10.1595 21.0416 10.5444 20.8639C10.8996 20.7 11.3005 20.4646 11.7541 20.1983L11.7919 20.1761L14.8895 18.3579L14.9273 18.3357C15.381 18.0695 15.7819 17.8342 16.0982 17.604C16.4411 17.3546 16.7484 17.0674 16.9755 16.6675L16.1059 16.1737L16.9755 16.6675C17.2026 16.2676 17.2917 15.8565 17.3303 15.4343C17.3658 15.0447 17.3625 14.5798 17.3587 14.0538L17.3584 14.01L17.3195 8.59381L17.3192 8.54999C17.3154 8.02395 17.3121 7.55906 17.2709 7.17006C17.2263 6.74841 17.1313 6.33865 16.8985 5.94206L16.1287 6.39389L16.8985 5.94206C16.6657 5.54547 16.3543 5.26274 16.0079 5.01822C15.6883 4.79263 15.284 4.5631 14.8266 4.30338L14.7885 4.28174L11.6651 2.50825L11.627 2.48661C11.1696 2.22683 10.7653 1.99726 10.4078 1.83841C10.0204 1.66623 9.61798 1.54364 9.15813 1.54695C8.69828 1.55025 8.29771 1.6786 7.91275 1.85632C7.5576 2.02029 7.15668 2.25564 6.70301 2.52196C6.69046 2.52933 6.67786 2.53673 6.66523 2.54414L3.56766 4.3623C3.55502 4.36972 3.54242 4.37711 3.52986 4.38448C3.07617 4.65075 2.67523 4.88606 2.35893 5.11621C2.01608 5.36568 1.70873 5.65285 1.48167 6.05274Z" fill="url(#paint0_linear_662_5188)" stroke="#4B371F" stroke-width="2"/>
  <path d="M7.19682 6.95277C8.16881 6.38224 8.65481 6.09698 9.19069 6.09313C9.72658 6.08928 10.2166 6.36754 11.1967 6.92405L11.5444 7.1215C12.5245 7.67801 13.0146 7.95626 13.2858 8.41843C13.5571 8.88059 13.5612 9.44411 13.5693 10.5712L13.5801 12.0862C13.5882 13.2133 13.5923 13.7768 13.3277 14.2428C13.0631 14.7088 12.5771 14.9941 11.6051 15.5646L11.2602 15.767C10.2882 16.3376 9.8022 16.6228 9.26632 16.6267C8.73043 16.6305 8.24039 16.3523 7.2603 15.7957L6.91257 15.5983C5.93249 15.0418 5.44244 14.7635 5.17117 14.3014C4.89989 13.8392 4.89585 13.2757 4.88776 12.1487L4.87688 10.6336C4.86879 9.50652 4.86474 8.943 5.12935 8.47699C5.39396 8.01097 5.87996 7.72571 6.85196 7.15519L7.19682 6.95277Z" fill="#FF5F5F"/>
  <path d="M8.40015 6.41553C8.68129 6.26394 8.82186 6.18814 8.9268 6.08208C9.0454 5.9622 9.13176 5.81428 9.17785 5.65207C9.21863 5.50854 9.21553 5.34887 9.20934 5.02953C9.19387 4.23198 9.18613 3.83321 9.02907 3.5928C8.85252 3.32255 8.55638 3.15415 8.23385 3.1406C7.94694 3.12855 7.60028 3.3258 6.90696 3.72029L4.18497 5.2691C3.54913 5.6309 3.2312 5.8118 3.09601 6.0396C2.91951 6.33703 2.90922 6.70454 3.0688 7.01137C3.19103 7.24638 3.49834 7.44479 4.11294 7.84159C4.35613 7.9986 4.47773 8.07711 4.60716 8.11767C4.77627 8.17066 4.95642 8.17776 5.12917 8.13824C5.2614 8.10799 5.38879 8.0393 5.64358 7.90191L8.40015 6.41553Z" fill="white"/>
  <path d="M9.94687 6.31914C9.68254 6.16978 9.55038 6.0951 9.45062 5.99275C9.34076 5.88003 9.25906 5.74296 9.21217 5.59271C9.16959 5.45628 9.16677 5.3045 9.16112 5.00094C9.14588 4.18154 9.13826 3.77185 9.29179 3.52227C9.45975 3.24924 9.74841 3.07327 10.0681 3.04908C10.3602 3.02696 10.7209 3.22144 11.4423 3.6104L14.2883 5.14505C15.0173 5.5381 15.3817 5.73462 15.5238 6.00297C15.6594 6.25935 15.6771 6.562 15.5722 6.83242C15.4624 7.11548 15.1232 7.35308 14.445 7.82829C14.1558 8.03093 14.0112 8.13225 13.8534 8.17852C13.7012 8.22316 13.5405 8.23094 13.3847 8.20123C13.2232 8.17044 13.0695 8.08357 12.762 7.90984L9.94687 6.31914Z" fill="#FF4A4A"/>
  <path d="M10.1829 16.54C9.90171 16.6916 9.76115 16.7674 9.65621 16.8735C9.53761 16.9934 9.45125 17.1413 9.40516 17.3035C9.36438 17.447 9.36748 17.6067 9.37367 17.926C9.38914 18.7236 9.39687 19.1224 9.55393 19.3628C9.73048 19.633 10.0266 19.8014 10.3492 19.815C10.6361 19.827 10.9827 19.6298 11.676 19.2353L14.398 17.6865C15.0339 17.3247 15.3518 17.1438 15.487 16.916C15.6635 16.6185 15.6738 16.251 15.5142 15.9442C15.392 15.7092 15.0847 15.5108 14.4701 15.114C14.2269 14.957 14.1053 14.8785 13.9758 14.8379C13.8067 14.7849 13.6266 14.7778 13.4538 14.8173C13.3216 14.8476 13.1942 14.9163 12.9394 15.0537L10.1829 16.54Z" fill="#B60000"/>
  <path d="M9.26845 16.9357L13.5966 14.3953L13.5673 10.3154L6.18301 15.1838L9.26845 16.9357Z" fill="#F23D3D"/>
  <path d="M13.6176 9.05308L5.5472 14.5317L5.03145 14.1305L13.2394 8.26206L13.6176 9.05308Z" fill="#F23D3D"/>
  <path d="M13.5965 14.3951L9.26835 16.9356M13.5965 14.3951L13.5608 9.42283M13.5965 14.3951L15.6889 15.9195M9.26835 16.9356L6.91238 15.5978C5.93229 15.0413 5.44225 14.7631 5.17098 14.3009C4.8997 13.8387 4.89566 13.2752 4.88756 12.1482L4.88601 11.9322M9.26835 16.9356L9.2726 19.329M4.86011 8.32373L4.87306 10.128" stroke="#9A0101" stroke-width="2" stroke-linecap="round"/>
  <defs>
    <linearGradient id="paint0_linear_662_5188" x1="4.94067" y1="4.45615" x2="13.0552" y2="18.7167" gradientUnits="userSpaceOnUse">
      <stop stop-color="#FF4D4D"/>
      <stop offset="1" stop-color="#CF0D0D"/>
    </linearGradient>
  </defs>
</svg>
