<svg width="26" height="26" viewBox="0 0 26 26" fill="none" xmlns="http://www.w3.org/2000/svg">
  <path d="M11.3692 1.59876C12.2869 0.739867 13.7134 0.739867 14.6311 1.59876L16.2038 3.07074C16.6261 3.46603 17.1777 3.69447 17.7558 3.7136L19.9087 3.78483C21.165 3.8264 22.1737 4.8351 22.2152 6.09132L22.2864 8.24425C22.3056 8.82239 22.534 9.37392 22.9293 9.79626L24.4013 11.369C25.2602 12.2866 25.2602 13.7132 24.4013 14.6308L22.9293 16.2036C22.534 16.6259 22.3056 17.1774 22.2864 17.7556L22.2152 19.9085C22.1737 21.1647 21.165 22.1734 19.9087 22.215L17.7558 22.2862C17.1777 22.3053 16.6261 22.5338 16.2038 22.9291L14.6311 24.4011C13.7134 25.2599 12.2869 25.2599 11.3692 24.4011L9.7965 22.9291C9.37416 22.5338 8.82264 22.3053 8.24449 22.2862L6.09156 22.215C4.83535 22.1734 3.82664 21.1647 3.78508 19.9085L3.71385 17.7556C3.69472 17.1774 3.46627 16.6259 3.07099 16.2036L1.599 14.6308C0.740111 13.7132 0.740111 12.2866 1.599 11.369L3.07098 9.79626C3.46627 9.37392 3.69472 8.82239 3.71385 8.24425L3.78508 6.09132C3.82664 4.8351 4.83535 3.8264 6.09156 3.78483L8.24449 3.7136C8.82264 3.69447 9.37416 3.46603 9.7965 3.07074L11.3692 1.59876Z" fill="#862FC8"/>
  <path fill-rule="evenodd" clip-rule="evenodd" d="M15.2833 0.901835L16.856 2.37382C17.1094 2.61099 17.4403 2.74806 17.7872 2.75954L19.9402 2.83077C21.6989 2.88895 23.111 4.30114 23.1692 6.05984L23.2405 8.21277C23.2519 8.55966 23.389 8.89058 23.6262 9.14398L25.0982 10.7167C26.3006 12.0014 26.3006 13.9986 25.0982 15.2833L23.6262 16.856C23.389 17.1094 23.2519 17.4403 23.2405 17.7872L23.1692 19.9402C23.111 21.6989 21.6989 23.111 19.9402 23.1692L17.7872 23.2405C17.4403 23.2519 17.1094 23.389 16.856 23.6262L15.2833 25.0982C13.9986 26.3006 12.0014 26.3006 10.7167 25.0982L9.14398 23.6262C8.89058 23.389 8.55966 23.2519 8.21277 23.2405L6.05984 23.1692C4.30114 23.111 2.88895 21.6989 2.83077 19.9402L2.75954 17.7872C2.74806 17.4403 2.61099 17.1094 2.37382 16.856L0.901835 15.2833C-0.300612 13.9986 -0.300612 12.0014 0.901835 10.7167L2.37382 9.14398C2.61099 8.89058 2.74806 8.55966 2.75954 8.21277L2.83077 6.05984C2.88895 4.30114 4.30114 2.88895 6.05984 2.83077L8.21277 2.75954C8.55966 2.74806 8.89058 2.61099 9.14398 2.37382L10.7167 0.901835C12.0014 -0.300612 13.9986 -0.300612 15.2833 0.901835ZM14.6309 1.59885C13.7133 0.739962 12.2867 0.739962 11.3691 1.59885L9.79635 3.07084C9.37401 3.46612 8.82249 3.69457 8.24434 3.7137L6.09141 3.78493C4.8352 3.82649 3.82649 4.8352 3.78493 6.09141L3.7137 8.24434C3.69457 8.82249 3.46612 9.37401 3.07084 9.79635L1.59885 11.3691C0.739962 12.2867 0.739962 13.7133 1.59885 14.6309L3.07084 16.2037C3.46612 16.626 3.69457 17.1775 3.7137 17.7557L3.78493 19.9086C3.82649 21.1648 4.8352 22.1735 6.09141 22.2151L8.24434 22.2863C8.82249 22.3054 9.37401 22.5339 9.79635 22.9292L11.3691 24.4011C12.2867 25.26 13.7133 25.26 14.6309 24.4011L16.2037 22.9292C16.626 22.5339 17.1775 22.3054 17.7557 22.2863L19.9086 22.2151C21.1648 22.1735 22.1735 21.1648 22.2151 19.9086L22.2863 17.7557C22.3054 17.1775 22.5339 16.626 22.9292 16.2037L24.4011 14.6309C25.26 13.7133 25.26 12.2867 24.4011 11.3691L22.9292 9.79635C22.5339 9.37401 22.3054 8.82249 22.2863 8.24434L22.2151 6.09141C22.1735 4.8352 21.1648 3.82649 19.9086 3.78493L17.7557 3.7137C17.1775 3.69457 16.626 3.46612 16.2037 3.07084L14.6309 1.59885Z" fill="#4B371F"/>
  <path d="M10.5723 2.03431C11.49 1.17541 12.9165 1.17541 13.8341 2.0343L15.0389 3.1619C15.4612 3.55718 16.0128 3.78563 16.5909 3.80476L18.2401 3.85932C19.4963 3.90089 20.5051 4.90959 20.5466 6.16581L20.6012 7.81503C20.6203 8.39318 20.8488 8.9447 21.244 9.36704L22.3716 10.5718C23.2305 11.4895 23.2305 12.916 22.3716 13.8337L21.244 15.0384C20.8488 15.4608 20.6203 16.0123 20.6012 16.5904L20.5466 18.2396C20.5051 19.4959 19.4963 20.5046 18.2401 20.5461L16.5909 20.6007C16.0128 20.6198 15.4612 20.8483 15.0389 21.2436L13.8341 22.3711C12.9165 23.23 11.49 23.23 10.5723 22.3711L9.36752 21.2436C8.94519 20.8483 8.39366 20.6198 7.81552 20.6007L6.1663 20.5461C4.91008 20.5046 3.90138 19.4959 3.85981 18.2396L3.80525 16.5904C3.78612 16.0123 3.55767 15.4608 3.16238 15.0384L2.03479 13.8337C1.1759 12.916 1.1759 11.4895 2.03479 10.5718L3.16238 9.36704C3.55767 8.9447 3.78612 8.39318 3.80525 7.81503L3.85981 6.16581C3.90138 4.90959 4.91008 3.90089 6.1663 3.85932L7.81552 3.80476C8.39366 3.78563 8.94519 3.55718 9.36752 3.1619L10.5723 2.03431Z" fill="#B949FF"/>
  <path fill-rule="evenodd" clip-rule="evenodd" d="M20.3183 8.27279C20.5116 8.09357 20.8136 8.105 20.9928 8.29833L22.7438 10.1871C23.7621 11.2855 23.7621 12.9829 22.7438 14.0813L21.5988 15.3165C21.2861 15.6537 21.1057 16.0924 21.0907 16.552L21.0355 18.2353C20.9861 19.7428 19.776 20.9536 18.2686 21.004L16.643 21.0583C16.1776 21.0738 15.7339 21.2589 15.3954 21.5788L14.2132 22.6958C13.1093 23.7389 11.3831 23.7389 10.2791 22.6958L9.097 21.5788C8.75851 21.2589 8.3148 21.0738 7.84937 21.0583L6.04963 20.9982C4.63054 20.9508 3.46041 19.8708 3.29961 18.46L3.13666 17.0304C3.1068 16.7685 3.29494 16.5319 3.55687 16.5021C3.81881 16.4722 4.05535 16.6604 4.0852 16.9223L4.24815 18.3519C4.35535 19.2924 5.13544 20.0124 6.0815 20.044L7.88124 20.1041C8.57939 20.1274 9.24495 20.4051 9.75268 20.8849L10.9348 22.0019C11.6708 22.6973 12.8216 22.6973 13.5576 22.0019L14.7397 20.8849C15.2474 20.4051 15.913 20.1274 16.6111 20.1041L18.2367 20.0498C19.2417 20.0163 20.0484 19.209 20.0813 18.2041L20.1365 16.5207C20.1591 15.8313 20.4297 15.1733 20.8987 14.6674L22.0437 13.4323C22.7225 12.7 22.7225 11.5684 22.0437 10.8361L20.2927 8.94737C20.1135 8.75404 20.1249 8.45202 20.3183 8.27279Z" fill="#4B371F"/>
  <path fill-rule="evenodd" clip-rule="evenodd" d="M14.0258 2.2638C13.1081 1.40491 11.6816 1.40491 10.7639 2.2638L9.68012 3.27815C9.25778 3.67344 8.70626 3.90189 8.12811 3.92102L6.64451 3.9701C5.38829 4.01167 4.37959 5.02037 4.33802 6.27659L4.28894 7.76019C4.26981 8.33834 4.04136 8.88986 3.64608 9.3122L2.63172 10.396C1.77283 11.3136 1.77283 12.7402 2.63172 13.6578L3.64607 14.7416C4.04136 15.1639 4.26981 15.7155 4.28894 16.2936L4.30797 16.8688C7.34542 11.6556 12.9955 8.15187 19.464 8.15187C19.8298 8.15187 20.193 8.16307 20.5532 8.18516C20.5232 8.0462 20.5055 7.90402 20.5007 7.76019L20.4516 6.27659C20.4101 5.02037 19.4014 4.01167 18.1451 3.9701L16.6615 3.92102C16.0834 3.90189 15.5319 3.67344 15.1095 3.27815L14.0258 2.2638Z" fill="url(#paint0_linear_662_9605)"/>
  <path d="M9.37131 5.62675C10.2622 6.6079 8.76849 6.94951 7.68921 7.92946C6.60994 8.90942 6.35378 10.1566 5.46291 9.17547C4.57204 8.19431 4.72478 6.60452 5.80405 5.62456C6.88333 4.64461 8.48045 4.64559 9.37131 5.62675Z" fill="white" fill-opacity="0.69"/>
  <defs>
    <linearGradient id="paint0_linear_662_9605" x1="11.2471" y1="1.61963" x2="11.2471" y2="16.2277" gradientUnits="userSpaceOnUse">
      <stop stop-color="white" stop-opacity="0.51"/>
      <stop offset="1" stop-color="white" stop-opacity="0"/>
    </linearGradient>
  </defs>
</svg>
