<svg width="42" height="16" viewBox="0 0 42 16" fill="none" xmlns="http://www.w3.org/2000/svg">
  <mask id="path-1-outside-1_671_4596" maskUnits="userSpaceOnUse" x="0" y="-0.79541" width="42" height="17" fill="black">
    <rect fill="white" y="-0.79541" width="42" height="17"/>
    <path d="M5.61019 6.16459H10.6022V8.88459H5.61019V6.16459ZM5.86619 10.3566H11.4662V13.2046H2.15419V2.00459H11.2582V4.85259H5.86619V10.3566ZM18.1038 13.2046V11.6526L17.8478 11.2366V8.29259C17.8478 7.86592 17.7145 7.54059 17.4478 7.31659C17.1918 7.09259 16.7705 6.98059 16.1838 6.98059C15.7891 6.98059 15.3891 7.04459 14.9838 7.17259C14.5785 7.28992 14.2318 7.45526 13.9438 7.66859L12.7918 5.28459C13.3038 4.96459 13.9171 4.71926 14.6318 4.54859C15.3465 4.37792 16.0451 4.29259 16.7278 4.29259C18.2318 4.29259 19.3945 4.62859 20.2158 5.30059C21.0478 5.97259 21.4638 7.03926 21.4638 8.50059V13.2046H18.1038ZM15.6238 13.3646C14.9091 13.3646 14.3118 13.2419 13.8318 12.9966C13.3518 12.7513 12.9891 12.4259 12.7438 12.0206C12.4985 11.6046 12.3758 11.1459 12.3758 10.6446C12.3758 10.0793 12.5198 9.59926 12.8078 9.20459C13.0958 8.80992 13.5331 8.51126 14.1198 8.30859C14.7171 8.10592 15.4691 8.00459 16.3758 8.00459H18.1998V9.74859H16.9518C16.5678 9.74859 16.2851 9.81259 16.1038 9.94059C15.9331 10.0579 15.8478 10.2393 15.8478 10.4846C15.8478 10.6873 15.9225 10.8579 16.0718 10.9966C16.2318 11.1246 16.4451 11.1886 16.7118 11.1886C16.9571 11.1886 17.1811 11.1246 17.3838 10.9966C17.5971 10.8579 17.7518 10.6446 17.8478 10.3566L18.3118 11.4286C18.1731 12.0793 17.8798 12.5646 17.4318 12.8846C16.9838 13.2046 16.3811 13.3646 15.6238 13.3646ZM23.0266 13.2046V4.45259H26.4666V7.09259L25.9066 6.34059C26.1732 5.65792 26.5999 5.14592 27.1866 4.80459C27.7732 4.46326 28.4772 4.29259 29.2986 4.29259V7.49259C29.1386 7.47126 28.9946 7.45526 28.8666 7.44459C28.7492 7.43392 28.6266 7.42859 28.4986 7.42859C27.9546 7.42859 27.5066 7.57259 27.1546 7.86059C26.8132 8.13792 26.6426 8.62326 26.6426 9.31659V13.2046H23.0266ZM36.4034 4.29259C37.0754 4.29259 37.6834 4.43126 38.2274 4.70859C38.7714 4.97526 39.1981 5.39659 39.5074 5.97259C39.8274 6.54859 39.9874 7.29526 39.9874 8.21259V13.2046H36.3714V8.83659C36.3714 8.29259 36.2754 7.90859 36.0834 7.68459C35.8914 7.44992 35.6301 7.33259 35.2994 7.33259C35.0541 7.33259 34.8248 7.39126 34.6114 7.50859C34.4088 7.61526 34.2434 7.79659 34.1154 8.05259C33.9981 8.30859 33.9394 8.65526 33.9394 9.09259V13.2046H30.3234V4.45259H33.7634V7.01259L33.0754 6.27659C33.4168 5.61526 33.8754 5.11926 34.4514 4.78859C35.0381 4.45792 35.6888 4.29259 36.4034 4.29259Z"/>
  </mask>
  <path d="M5.61019 6.16459H10.6022V8.88459H5.61019V6.16459ZM5.86619 10.3566H11.4662V13.2046H2.15419V2.00459H11.2582V4.85259H5.86619V10.3566ZM18.1038 13.2046V11.6526L17.8478 11.2366V8.29259C17.8478 7.86592 17.7145 7.54059 17.4478 7.31659C17.1918 7.09259 16.7705 6.98059 16.1838 6.98059C15.7891 6.98059 15.3891 7.04459 14.9838 7.17259C14.5785 7.28992 14.2318 7.45526 13.9438 7.66859L12.7918 5.28459C13.3038 4.96459 13.9171 4.71926 14.6318 4.54859C15.3465 4.37792 16.0451 4.29259 16.7278 4.29259C18.2318 4.29259 19.3945 4.62859 20.2158 5.30059C21.0478 5.97259 21.4638 7.03926 21.4638 8.50059V13.2046H18.1038ZM15.6238 13.3646C14.9091 13.3646 14.3118 13.2419 13.8318 12.9966C13.3518 12.7513 12.9891 12.4259 12.7438 12.0206C12.4985 11.6046 12.3758 11.1459 12.3758 10.6446C12.3758 10.0793 12.5198 9.59926 12.8078 9.20459C13.0958 8.80992 13.5331 8.51126 14.1198 8.30859C14.7171 8.10592 15.4691 8.00459 16.3758 8.00459H18.1998V9.74859H16.9518C16.5678 9.74859 16.2851 9.81259 16.1038 9.94059C15.9331 10.0579 15.8478 10.2393 15.8478 10.4846C15.8478 10.6873 15.9225 10.8579 16.0718 10.9966C16.2318 11.1246 16.4451 11.1886 16.7118 11.1886C16.9571 11.1886 17.1811 11.1246 17.3838 10.9966C17.5971 10.8579 17.7518 10.6446 17.8478 10.3566L18.3118 11.4286C18.1731 12.0793 17.8798 12.5646 17.4318 12.8846C16.9838 13.2046 16.3811 13.3646 15.6238 13.3646ZM23.0266 13.2046V4.45259H26.4666V7.09259L25.9066 6.34059C26.1732 5.65792 26.5999 5.14592 27.1866 4.80459C27.7732 4.46326 28.4772 4.29259 29.2986 4.29259V7.49259C29.1386 7.47126 28.9946 7.45526 28.8666 7.44459C28.7492 7.43392 28.6266 7.42859 28.4986 7.42859C27.9546 7.42859 27.5066 7.57259 27.1546 7.86059C26.8132 8.13792 26.6426 8.62326 26.6426 9.31659V13.2046H23.0266ZM36.4034 4.29259C37.0754 4.29259 37.6834 4.43126 38.2274 4.70859C38.7714 4.97526 39.1981 5.39659 39.5074 5.97259C39.8274 6.54859 39.9874 7.29526 39.9874 8.21259V13.2046H36.3714V8.83659C36.3714 8.29259 36.2754 7.90859 36.0834 7.68459C35.8914 7.44992 35.6301 7.33259 35.2994 7.33259C35.0541 7.33259 34.8248 7.39126 34.6114 7.50859C34.4088 7.61526 34.2434 7.79659 34.1154 8.05259C33.9981 8.30859 33.9394 8.65526 33.9394 9.09259V13.2046H30.3234V4.45259H33.7634V7.01259L33.0754 6.27659C33.4168 5.61526 33.8754 5.11926 34.4514 4.78859C35.0381 4.45792 35.6888 4.29259 36.4034 4.29259Z" fill="white"/>
  <path d="M5.61019 6.16459V4.16459C4.50562 4.16459 3.61019 5.06002 3.61019 6.16459H5.61019ZM10.6022 6.16459H12.6022C12.6022 5.06002 11.7068 4.16459 10.6022 4.16459V6.16459ZM10.6022 8.88459V10.8846C11.7068 10.8846 12.6022 9.98916 12.6022 8.88459H10.6022ZM5.61019 8.88459H3.61019C3.61019 9.98916 4.50562 10.8846 5.61019 10.8846V8.88459ZM5.86619 10.3566H3.86619C3.86619 11.4612 4.76162 12.3566 5.86619 12.3566V10.3566ZM11.4662 10.3566H13.4662C13.4662 9.25202 12.5708 8.35659 11.4662 8.35659V10.3566ZM11.4662 13.2046V15.2046C12.5708 15.2046 13.4662 14.3092 13.4662 13.2046H11.4662ZM2.15419 13.2046H0.154188C0.154188 14.3092 1.04962 15.2046 2.15419 15.2046V13.2046ZM2.15419 2.00459V0.00458908C1.04962 0.00458908 0.154188 0.90002 0.154188 2.00459H2.15419ZM11.2582 2.00459H13.2582C13.2582 0.90002 12.3628 0.00458908 11.2582 0.00458908V2.00459ZM11.2582 4.85259V6.85259C12.3628 6.85259 13.2582 5.95716 13.2582 4.85259H11.2582ZM5.86619 4.85259V2.85259C4.76162 2.85259 3.86619 3.74802 3.86619 4.85259H5.86619ZM5.61019 8.16459H10.6022V4.16459H5.61019V8.16459ZM8.60219 6.16459V8.88459H12.6022V6.16459H8.60219ZM10.6022 6.88459H5.61019V10.8846H10.6022V6.88459ZM7.61019 8.88459V6.16459H3.61019V8.88459H7.61019ZM5.86619 12.3566H11.4662V8.35659H5.86619V12.3566ZM9.46619 10.3566V13.2046H13.4662V10.3566H9.46619ZM11.4662 11.2046H2.15419V15.2046H11.4662V11.2046ZM4.15419 13.2046V2.00459H0.154188V13.2046H4.15419ZM2.15419 4.00459H11.2582V0.00458908H2.15419V4.00459ZM9.25819 2.00459V4.85259H13.2582V2.00459H9.25819ZM11.2582 2.85259H5.86619V6.85259H11.2582V2.85259ZM3.86619 4.85259V10.3566H7.86619V4.85259H3.86619ZM18.1038 13.2046H16.1038C16.1038 14.3092 16.9992 15.2046 18.1038 15.2046V13.2046ZM18.1038 11.6526H20.1038C20.1038 11.2825 20.0011 10.9196 19.8071 10.6044L18.1038 11.6526ZM17.8478 11.2366H15.8478C15.8478 11.6067 15.9505 11.9696 16.1445 12.2848L17.8478 11.2366ZM17.4478 7.31659L16.1308 8.82174C16.1409 8.8306 16.1511 8.83935 16.1614 8.848L17.4478 7.31659ZM14.9838 7.17259L15.5399 9.09372C15.5554 9.08925 15.5708 9.08459 15.5861 9.07975L14.9838 7.17259ZM13.9438 7.66859L12.143 8.53876C12.4022 9.07512 12.887 9.46803 13.4654 9.61052C14.0438 9.75302 14.6556 9.63028 15.1343 9.2757L13.9438 7.66859ZM12.7918 5.28459L11.7318 3.58859C10.8662 4.1296 10.5469 5.23567 10.991 6.15476L12.7918 5.28459ZM14.6318 4.54859L15.0964 6.49389L15.0964 6.49389L14.6318 4.54859ZM20.2158 5.30059L18.9493 6.84853L18.9591 6.85647L20.2158 5.30059ZM21.4638 13.2046V15.2046C22.5684 15.2046 23.4638 14.3092 23.4638 13.2046H21.4638ZM13.8318 12.9966L12.9216 14.7775L13.8318 12.9966ZM12.7438 12.0206L11.0211 13.0366C11.025 13.0431 11.0289 13.0497 11.0328 13.0562L12.7438 12.0206ZM12.8078 9.20459L14.4234 10.3835V10.3835L12.8078 9.20459ZM14.1198 8.30859L13.4772 6.4146L13.4668 6.41821L14.1198 8.30859ZM18.1998 8.00459H20.1998C20.1998 6.90002 19.3044 6.00459 18.1998 6.00459V8.00459ZM18.1998 9.74859V11.7486C19.3044 11.7486 20.1998 10.8532 20.1998 9.74859H18.1998ZM16.1038 9.94059L17.2369 11.5887C17.2437 11.584 17.2504 11.5793 17.2572 11.5745L16.1038 9.94059ZM16.0718 10.9966L14.7109 12.4622C14.7469 12.4956 14.7841 12.5277 14.8224 12.5583L16.0718 10.9966ZM17.3838 10.9966L18.4518 12.6876C18.4592 12.6829 18.4665 12.6782 18.4738 12.6735L17.3838 10.9966ZM17.8478 10.3566L19.6833 9.56214C19.3539 8.80131 18.5894 8.32253 17.7611 8.35847C16.9328 8.39441 16.2126 8.93763 15.9504 9.72413L17.8478 10.3566ZM18.3118 11.4286L20.2679 11.8455C20.3545 11.439 20.3124 11.0156 20.1473 10.6341L18.3118 11.4286ZM17.4318 12.8846L16.2693 11.2571L17.4318 12.8846ZM20.1038 13.2046V11.6526H16.1038V13.2046H20.1038ZM19.8071 10.6044L19.5511 10.1884L16.1445 12.2848L16.4005 12.7008L19.8071 10.6044ZM19.8478 11.2366V8.29259H15.8478V11.2366H19.8478ZM19.8478 8.29259C19.8478 7.42066 19.554 6.4738 18.7342 5.78518L16.1614 8.848C16.0444 8.74973 15.9521 8.6209 15.8972 8.48704C15.8466 8.36354 15.8478 8.28526 15.8478 8.29259H19.8478ZM18.7648 5.81144C17.9593 5.10664 16.9341 4.98059 16.1838 4.98059V8.98059C16.2678 8.98059 16.3296 8.98465 16.3719 8.98936C16.4146 8.9941 16.4308 8.99875 16.426 8.99747C16.4206 8.99603 16.2899 8.96091 16.1308 8.82174L18.7648 5.81144ZM16.1838 4.98059C15.5697 4.98059 14.9667 5.08063 14.3815 5.26542L15.5861 9.07975C15.8116 9.00855 16.0086 8.98059 16.1838 8.98059V4.98059ZM14.4277 5.25146C13.8336 5.42344 13.263 5.68394 12.7534 6.06148L15.1343 9.2757C15.2006 9.22658 15.3234 9.15641 15.5399 9.09372L14.4277 5.25146ZM15.7446 6.79842L14.5926 4.41442L10.991 6.15476L12.143 8.53876L15.7446 6.79842ZM13.8518 6.98059C14.1453 6.79718 14.5483 6.62478 15.0964 6.49389L14.1673 2.60329C13.286 2.81373 12.4624 3.132 11.7318 3.58859L13.8518 6.98059ZM15.0964 6.49389C15.6704 6.35682 16.213 6.29259 16.7278 6.29259V2.29259C15.8773 2.29259 15.0226 2.39903 14.1673 2.60329L15.0964 6.49389ZM16.7278 6.29259C17.9593 6.29259 18.6085 6.56962 18.9493 6.8485L21.4823 3.75268C20.1805 2.68756 18.5043 2.29259 16.7278 2.29259V6.29259ZM18.9591 6.85647C19.1645 7.02238 19.4638 7.40868 19.4638 8.50059H23.4638C23.4638 6.66983 22.9311 4.9228 21.4725 3.74471L18.9591 6.85647ZM19.4638 8.50059V13.2046H23.4638V8.50059H19.4638ZM21.4638 11.2046H18.1038V15.2046H21.4638V11.2046ZM15.6238 11.3646C15.1267 11.3646 14.8637 11.2779 14.742 11.2157L12.9216 14.7775C13.7599 15.2059 14.6916 15.3646 15.6238 15.3646V11.3646ZM14.742 11.2157C14.5464 11.1157 14.4822 11.0303 14.4548 10.985L11.0328 13.0562C11.4961 13.8216 12.1573 14.3868 12.9216 14.7775L14.742 11.2157ZM14.4665 11.0046C14.4098 10.9084 14.3758 10.8028 14.3758 10.6446H10.3758C10.3758 11.4891 10.5871 12.3007 11.0211 13.0366L14.4665 11.0046ZM14.3758 10.6446C14.3758 10.434 14.423 10.384 14.4234 10.3835L11.1922 8.02565C10.6166 8.81448 10.3758 9.72449 10.3758 10.6446H14.3758ZM14.4234 10.3835C14.4237 10.3831 14.4264 10.3794 14.4338 10.3723C14.4413 10.3652 14.4556 10.3527 14.4797 10.3362C14.5288 10.3027 14.6197 10.2519 14.7729 10.199L13.4668 6.41821C12.5986 6.71812 11.7788 7.2219 11.1922 8.02565L14.4234 10.3835ZM14.7624 10.2025C15.0838 10.0935 15.6005 10.0046 16.3758 10.0046V6.00459C15.3378 6.00459 14.3505 6.11835 13.4772 6.41463L14.7624 10.2025ZM16.3758 10.0046H18.1998V6.00459H16.3758V10.0046ZM16.1998 8.00459V9.74859H20.1998V8.00459H16.1998ZM18.1998 7.74859H16.9518V11.7486H18.1998V7.74859ZM16.9518 7.74859C16.423 7.74859 15.6367 7.82223 14.9504 8.30665L17.2572 11.5745C17.0791 11.7002 16.9334 11.7382 16.8935 11.7472C16.8518 11.7566 16.8636 11.7486 16.9518 11.7486V7.74859ZM14.9708 8.29251C14.1518 8.85554 13.8478 9.72009 13.8478 10.4846H17.8478C17.8478 10.5917 17.829 10.7876 17.7215 11.0162C17.608 11.2573 17.4335 11.4535 17.2369 11.5887L14.9708 8.29251ZM13.8478 10.4846C13.8478 11.2469 14.1566 11.9475 14.7109 12.4622L17.4327 9.531C17.54 9.63064 17.6536 9.77423 17.7361 9.96295C17.8188 10.1519 17.8478 10.3345 17.8478 10.4846H13.8478ZM14.8224 12.5583C15.4317 13.0458 16.1292 13.1886 16.7118 13.1886V9.18859C16.7611 9.18859 17.0319 9.20343 17.3212 9.43485L14.8224 12.5583ZM16.7118 13.1886C17.3258 13.1886 17.9217 13.0224 18.4518 12.6876L16.3158 9.30561C16.3707 9.27094 16.4381 9.23933 16.5144 9.21754C16.5903 9.19584 16.6585 9.18859 16.7118 9.18859V13.1886ZM18.4738 12.6735C19.1364 12.2428 19.5347 11.6204 19.7452 10.989L15.9504 9.72413C15.9574 9.70334 15.9815 9.64016 16.0406 9.55865C16.1021 9.47381 16.1874 9.38889 16.2938 9.3197L18.4738 12.6735ZM16.0124 11.151L16.4764 12.223L20.1473 10.6341L19.6833 9.56214L16.0124 11.151ZM16.3557 11.0117C16.325 11.1559 16.2895 11.224 16.2762 11.2461C16.2695 11.2571 16.2662 11.2603 16.2673 11.2591C16.2686 11.2577 16.2699 11.2567 16.2693 11.2571L18.5943 14.5121C19.5299 13.8438 20.048 12.8773 20.2679 11.8455L16.3557 11.0117ZM16.2693 11.2571C16.2667 11.259 16.1172 11.3646 15.6238 11.3646V15.3646C16.6451 15.3646 17.7009 15.1502 18.5943 14.5121L16.2693 11.2571ZM23.0266 13.2046H21.0266C21.0266 14.3092 21.922 15.2046 23.0266 15.2046V13.2046ZM23.0266 4.45259V2.45259C21.922 2.45259 21.0266 3.34802 21.0266 4.45259H23.0266ZM26.4666 4.45259H28.4666C28.4666 3.34802 27.5711 2.45259 26.4666 2.45259V4.45259ZM26.4666 7.09259L24.8625 8.28712C25.3774 8.97858 26.2774 9.26226 27.0958 8.99103C27.9141 8.7198 28.4666 7.95471 28.4666 7.09259H26.4666ZM25.9066 6.34059L24.0436 5.61289C23.7927 6.25539 23.8905 6.98188 24.3025 7.53512L25.9066 6.34059ZM27.1866 4.80459L26.1808 3.07589V3.07589L27.1866 4.80459ZM29.2986 4.29259H31.2986C31.2986 3.18802 30.4031 2.29259 29.2986 2.29259V4.29259ZM29.2986 7.49259L29.0342 9.47505C29.6057 9.55124 30.1822 9.37713 30.616 8.99736C31.0498 8.61759 31.2986 8.06911 31.2986 7.49259H29.2986ZM28.8666 7.44459L28.6855 9.43638C28.6905 9.43683 28.6955 9.43726 28.7005 9.43768L28.8666 7.44459ZM27.1546 7.86059L28.4158 9.41283L28.421 9.4085L27.1546 7.86059ZM26.6426 13.2046V15.2046C27.7471 15.2046 28.6426 14.3092 28.6426 13.2046H26.6426ZM25.0266 13.2046V4.45259H21.0266V13.2046H25.0266ZM23.0266 6.45259H26.4666V2.45259H23.0266V6.45259ZM24.4666 4.45259V7.09259H28.4666V4.45259H24.4666ZM28.0706 5.89806L27.5106 5.14606L24.3025 7.53512L24.8625 8.28712L28.0706 5.89806ZM27.7695 7.06829C27.8857 6.77065 28.0283 6.62872 28.1924 6.53329L26.1808 3.07589C25.1715 3.66313 24.4607 4.5452 24.0436 5.61289L27.7695 7.06829ZM28.1924 6.53329C28.4153 6.40356 28.7564 6.29259 29.2986 6.29259V2.29259C28.198 2.29259 27.1311 2.52295 26.1808 3.07589L28.1924 6.53329ZM27.2986 4.29259V7.49259H31.2986V4.29259H27.2986ZM29.5629 5.51013C29.3781 5.48549 29.2005 5.46549 29.0327 5.4515L28.7005 9.43768C28.7886 9.44502 28.899 9.45702 29.0342 9.47505L29.5629 5.51013ZM29.0476 5.4528C28.8652 5.43622 28.6819 5.42859 28.4986 5.42859V9.42859C28.5712 9.42859 28.6332 9.43163 28.6855 9.43638L29.0476 5.4528ZM28.4986 5.42859C27.5871 5.42859 26.6641 5.67774 25.8881 6.31268L28.421 9.4085C28.4107 9.41699 28.3988 9.42495 28.3869 9.4314C28.375 9.43778 28.3674 9.44037 28.3666 9.44065C28.3647 9.44125 28.4026 9.42859 28.4986 9.42859V5.42859ZM25.8934 6.30836C24.869 7.14069 24.6426 8.36864 24.6426 9.31659H28.6426C28.6426 9.22399 28.6483 9.16069 28.6539 9.12219C28.6595 9.08363 28.6637 9.07774 28.6573 9.09606C28.6505 9.11531 28.6317 9.16178 28.5911 9.22234C28.5494 9.2845 28.4912 9.35149 28.4157 9.41282L25.8934 6.30836ZM24.6426 9.31659V13.2046H28.6426V9.31659H24.6426ZM26.6426 11.2046H23.0266V15.2046H26.6426V11.2046ZM38.2274 4.70859L37.3191 6.4904C37.3284 6.49515 37.3377 6.49983 37.3471 6.50443L38.2274 4.70859ZM39.5074 5.97259L37.7454 6.91884C37.7499 6.92722 37.7545 6.93556 37.7591 6.94388L39.5074 5.97259ZM39.9874 13.2046V15.2046C41.092 15.2046 41.9874 14.3092 41.9874 13.2046H39.9874ZM36.3714 13.2046H34.3714C34.3714 14.3092 35.2669 15.2046 36.3714 15.2046V13.2046ZM36.0834 7.68459L34.5355 8.95107C34.5452 8.96288 34.555 8.97458 34.5649 8.98617L36.0834 7.68459ZM34.6114 7.50859L35.5429 9.27843C35.5538 9.27272 35.5645 9.26692 35.5753 9.26102L34.6114 7.50859ZM34.1154 8.05259L32.3266 7.15816C32.3165 7.17837 32.3067 7.19874 32.2973 7.21928L34.1154 8.05259ZM33.9394 13.2046V15.2046C35.044 15.2046 35.9394 14.3092 35.9394 13.2046H33.9394ZM30.3234 13.2046H28.3234C28.3234 14.3092 29.2189 15.2046 30.3234 15.2046V13.2046ZM30.3234 4.45259V2.45259C29.2189 2.45259 28.3234 3.34802 28.3234 4.45259H30.3234ZM33.7634 4.45259H35.7634C35.7634 3.34802 34.868 2.45259 33.7634 2.45259V4.45259ZM33.7634 7.01259L32.3024 8.37836C32.8632 8.97827 33.7337 9.17442 34.4976 8.87298C35.2614 8.57154 35.7634 7.83379 35.7634 7.01259H33.7634ZM33.0754 6.27659L31.2982 5.3593C30.9104 6.11065 31.037 7.02468 31.6144 7.64236L33.0754 6.27659ZM34.4514 4.78859L33.4694 3.04629C33.4648 3.04887 33.4603 3.05147 33.4557 3.05408L34.4514 4.78859ZM36.4034 6.29259C36.7919 6.29259 37.0838 6.37046 37.3191 6.4904L39.1358 2.92678C38.2831 2.49205 37.3589 2.29259 36.4034 2.29259V6.29259ZM37.3471 6.50443C37.4854 6.57223 37.6174 6.68046 37.7454 6.91884L41.2694 5.02634C40.7788 4.11272 40.0574 3.37828 39.1077 2.91275L37.3471 6.50443ZM37.7591 6.94388C37.8619 7.12893 37.9874 7.50865 37.9874 8.21259H41.9874C41.9874 7.08187 41.7929 5.96825 41.2558 5.0013L37.7591 6.94388ZM37.9874 8.21259V13.2046H41.9874V8.21259H37.9874ZM39.9874 11.2046H36.3714V15.2046H39.9874V11.2046ZM38.3714 13.2046V8.83659H34.3714V13.2046H38.3714ZM38.3714 8.83659C38.3714 8.17131 38.2767 7.17021 37.602 6.38301L34.5649 8.98617C34.402 8.79604 34.3619 8.63671 34.3592 8.62566C34.3566 8.61536 34.3601 8.6264 34.3641 8.66439C34.3679 8.70191 34.3714 8.75835 34.3714 8.83659H38.3714ZM37.6314 6.41811C37.022 5.67331 36.1681 5.33259 35.2994 5.33259V9.33259C35.2257 9.33259 35.088 9.31865 34.9243 9.24513C34.7555 9.16938 34.6241 9.05934 34.5355 8.95107L37.6314 6.41811ZM35.2994 5.33259C34.7198 5.33259 34.1586 5.47512 33.6476 5.75616L35.5753 9.26102C35.5385 9.28123 35.4923 9.30059 35.4391 9.31419C35.386 9.32778 35.3379 9.33259 35.2994 9.33259V5.33259ZM33.6799 5.73875C33.0234 6.08433 32.5945 6.62225 32.3266 7.15816L35.9043 8.94702C35.8923 8.97093 35.7942 9.14619 35.5429 9.27843L33.6799 5.73875ZM32.2973 7.21928C32.0122 7.84123 31.9394 8.51048 31.9394 9.09259H35.9394C35.9394 8.95999 35.9486 8.8786 35.9554 8.83831C35.9624 8.79675 35.9632 8.82116 35.9336 8.8859L32.2973 7.21928ZM31.9394 9.09259V13.2046H35.9394V9.09259H31.9394ZM33.9394 11.2046H30.3234V15.2046H33.9394V11.2046ZM32.3234 13.2046V4.45259H28.3234V13.2046H32.3234ZM30.3234 6.45259H33.7634V2.45259H30.3234V6.45259ZM31.7634 4.45259V7.01259H35.7634V4.45259H31.7634ZM35.2245 5.64682L34.5365 4.91082L31.6144 7.64236L32.3024 8.37836L35.2245 5.64682ZM34.8527 7.19387C35.0395 6.8319 35.2441 6.63968 35.4472 6.5231L33.4557 3.05408C32.5068 3.59884 31.794 4.39862 31.2982 5.3593L34.8527 7.19387ZM35.4335 6.53089C35.702 6.37956 36.011 6.29259 36.4034 6.29259V2.29259C35.3665 2.29259 34.3742 2.53629 33.4694 3.04629L35.4335 6.53089Z" fill="#4B371F" mask="url(#path-1-outside-1_671_4596)"/>
</svg>
