<svg width="39" height="40" viewBox="0 0 39 40" fill="none" xmlns="http://www.w3.org/2000/svg">
  <mask id="path-1-outside-1_671_4587" maskUnits="userSpaceOnUse" x="3.35449" y="3.55908" width="34" height="34" fill="black">
    <rect fill="white" x="3.35449" y="3.55908" width="34" height="34"/>
    <path fill-rule="evenodd" clip-rule="evenodd" d="M7.67934 27.9607L7.67954 27.9609L12.0714 32.3527C13.7239 34.0053 16.0197 34.7551 18.5363 34.6712C20.3642 34.6104 22.3086 34.1098 24.2077 33.1959C25.9989 32.3339 27.7499 31.1044 29.3248 29.5294C30.8998 27.9544 32.1294 26.2035 32.9913 24.4123C33.9052 22.5132 34.4058 20.5688 34.4667 18.7409C34.5505 16.2242 33.8007 13.9285 32.1481 12.2759L27.7563 7.88416L27.7561 7.88393C23.7713 3.89915 16.0467 5.16318 10.5026 10.7072C4.95859 16.2513 3.69456 23.9759 7.67934 27.9607Z"/>
  </mask>
  <path fill-rule="evenodd" clip-rule="evenodd" d="M7.67934 27.9607L7.67954 27.9609L12.0714 32.3527C13.7239 34.0053 16.0197 34.7551 18.5363 34.6712C20.3642 34.6104 22.3086 34.1098 24.2077 33.1959C25.9989 32.3339 27.7499 31.1044 29.3248 29.5294C30.8998 27.9544 32.1294 26.2035 32.9913 24.4123C33.9052 22.5132 34.4058 20.5688 34.4667 18.7409C34.5505 16.2242 33.8007 13.9285 32.1481 12.2759L27.7563 7.88416L27.7561 7.88393C23.7713 3.89915 16.0467 5.16318 10.5026 10.7072C4.95859 16.2513 3.69456 23.9759 7.67934 27.9607Z" fill="#4B371F"/>
  <path d="M7.67954 27.9609L6.25051 29.3601L6.25788 29.3677L6.26532 29.3751L7.67954 27.9609ZM7.67934 27.9607L9.10837 26.5614L9.101 26.5539L9.09356 26.5465L7.67934 27.9607ZM12.0714 32.3527L10.6571 33.7669H10.6571L12.0714 32.3527ZM18.5363 34.6712L18.4698 32.6724H18.4698L18.5363 34.6712ZM24.2077 33.1959L23.3405 31.3937L24.2077 33.1959ZM29.3248 29.5294L30.739 30.9436H30.739L29.3248 29.5294ZM32.9913 24.4123L31.1891 23.5451H31.1891L32.9913 24.4123ZM34.4667 18.7409L36.4656 18.8075L34.4667 18.7409ZM32.1481 12.2759L33.5623 10.8617V10.8617L32.1481 12.2759ZM27.7563 7.88416L29.1705 6.46994L29.169 6.46842L27.7563 7.88416ZM27.7561 7.88393L26.3419 9.29815L26.3434 9.29967L27.7561 7.88393ZM10.5026 10.7072L9.08843 9.29302L10.5026 10.7072ZM9.10856 26.5616L9.10837 26.5614L6.25032 29.3599L6.25051 29.3601L9.10856 26.5616ZM13.4856 30.9385L9.09375 26.5467L6.26532 29.3751L10.6571 33.7669L13.4856 30.9385ZM18.4698 32.6724C16.3874 32.7417 14.6699 32.1228 13.4856 30.9385L10.6571 33.7669C12.778 35.8877 15.6519 36.7684 18.6029 36.6701L18.4698 32.6724ZM23.3405 31.3937C21.6588 32.2029 19.9857 32.6219 18.4698 32.6724L18.6029 36.6701C20.7426 36.5989 22.9583 36.0166 25.0749 34.9981L23.3405 31.3937ZM27.9106 28.1152C26.4903 29.5355 24.9231 30.6321 23.3405 31.3937L25.0749 34.9981C27.0747 34.0358 29.0094 32.6732 30.739 30.9436L27.9106 28.1152ZM31.1891 23.5451C30.4275 25.1277 29.3309 26.6949 27.9106 28.1152L30.739 30.9436C32.4687 29.214 33.8312 27.2793 34.7935 25.2795L31.1891 23.5451ZM32.4678 18.6744C32.4173 20.1903 31.9983 21.8634 31.1891 23.5451L34.7935 25.2795C35.812 23.1629 36.3943 20.9472 36.4656 18.8075L32.4678 18.6744ZM30.7339 13.6902C31.9182 14.8744 32.5371 16.592 32.4678 18.6744L36.4656 18.8075C36.5638 15.8565 35.6831 12.9825 33.5623 10.8617L30.7339 13.6902ZM26.3421 9.29837L30.7339 13.6902L33.5623 10.8617L29.1705 6.46994L26.3421 9.29837ZM26.3434 9.29967L26.3436 9.29989L29.169 6.46842L29.1688 6.4682L26.3434 9.29967ZM11.9169 12.1214C14.4262 9.61214 17.3725 8.13203 20.0371 7.69602C22.7054 7.25938 24.9208 7.87708 26.3419 9.29815L29.1703 6.46972C26.6066 3.906 22.9673 3.16333 19.3911 3.74852C15.8111 4.33434 12.1232 6.25828 9.08843 9.29302L11.9169 12.1214ZM9.09356 26.5465C7.67249 25.1254 7.05479 22.91 7.49143 20.2417C7.92744 17.5771 9.40755 14.6307 11.9169 12.1214L9.08843 9.29302C6.05369 12.3278 4.12975 16.0157 3.54393 19.5957C2.95874 23.1719 3.70141 26.8112 6.26513 29.3749L9.09356 26.5465Z" fill="#4B371F" mask="url(#path-1-outside-1_671_4587)"/>
  <path d="M27.2918 7.51663L31.6836 11.9084C33.3361 13.561 34.0859 15.8567 34.0021 18.3734C33.9412 20.2012 33.4406 22.1456 32.5267 24.0448C31.6648 25.836 30.4352 27.5869 28.8603 29.1619C27.2853 30.7369 25.5344 31.9664 23.7432 32.8284C21.844 33.7422 19.8996 34.2428 18.0718 34.3037C15.5551 34.3875 13.2594 33.6377 11.6068 31.9852L7.21499 27.5934L12.8616 21.9468L17.2534 17.555L21.6452 13.1632L27.2918 7.51663Z" fill="#F0C558"/>
  <path d="M28.8603 29.1619L17.2534 17.555M28.8603 29.1619C30.4352 27.5869 31.6648 25.836 32.5267 24.0448M28.8603 29.1619C27.2853 30.7369 25.5344 31.9664 23.7432 32.8284M17.2534 17.555C18.7702 16.0382 20.2774 14.531 21.6452 13.1632L32.5267 24.0448M17.2534 17.555C15.7572 19.0512 14.2517 20.5566 12.8616 21.9468L23.7432 32.8284M32.5267 24.0448C33.4406 22.1456 33.9412 20.2012 34.0021 18.3734C34.0859 15.8567 33.3361 13.561 31.6836 11.9084C30.2577 10.4826 27.2918 7.51663 27.2918 7.51663L7.21499 27.5934C7.21499 27.5934 10.181 30.5593 11.6068 31.9852C13.2594 33.6377 15.5551 34.3875 18.0718 34.3037C19.8996 34.2428 21.844 33.7422 23.7432 32.8284" stroke="#4B371F" stroke-width="1.2" stroke-linecap="round" stroke-linejoin="round"/>
  <ellipse cx="17.2534" cy="17.5547" rx="10.2037" ry="14.1964" transform="rotate(45 17.2534 17.5547)" fill="#FFF549" stroke="#4B371F" stroke-width="1.2" stroke-linecap="round" stroke-linejoin="round"/>
  <ellipse cx="17.2532" cy="17.5546" rx="5.9259" ry="8.87276" transform="rotate(45 17.2532 17.5546)" fill="#FFF5A9" stroke="#4B371F" stroke-width="1.2" stroke-linecap="round" stroke-linejoin="round"/>
</svg>
