<svg width="52" height="17" viewBox="0 0 52 17" fill="none" xmlns="http://www.w3.org/2000/svg">
  <mask id="path-1-outside-1_671_4579" maskUnits="userSpaceOnUse" x="0" y="-0.00488281" width="52" height="17" fill="black">
    <rect fill="white" y="-0.00488281" width="52" height="17"/>
    <path d="M5.84606 7.56312H10.7741V10.4111H5.84606V7.56312ZM6.10206 13.9951H2.32606V2.79512H11.4301V5.64312H6.10206V13.9951ZM12.3547 13.9951V5.24312H15.7947V7.88312L15.2347 7.13112C15.5014 6.44845 15.928 5.93645 16.5147 5.59512C17.1014 5.25378 17.8054 5.08312 18.6267 5.08312V8.28312C18.4667 8.26178 18.3227 8.24578 18.1947 8.23512C18.0774 8.22445 17.9547 8.21912 17.8267 8.21912C17.2827 8.21912 16.8347 8.36312 16.4827 8.65112C16.1414 8.92845 15.9707 9.41378 15.9707 10.1071V13.9951H12.3547ZM24.4054 14.1551C23.3388 14.1551 22.4054 13.9578 21.6054 13.5631C20.8161 13.1685 20.2028 12.6298 19.7654 11.9471C19.3281 11.2538 19.1094 10.4751 19.1094 9.61112C19.1094 8.72578 19.3228 7.94178 19.7494 7.25912C20.1868 6.57645 20.7788 6.04312 21.5254 5.65912C22.2828 5.27512 23.1308 5.08312 24.0694 5.08312C24.9334 5.08312 25.7281 5.25378 26.4534 5.59512C27.1894 5.93645 27.7761 6.44312 28.2134 7.11512C28.6614 7.78712 28.8854 8.61912 28.8854 9.61112C28.8854 9.73912 28.8801 9.88312 28.8694 10.0431C28.8588 10.1925 28.8481 10.3311 28.8374 10.4591H22.1014V8.71512H26.9174L25.5574 9.17912C25.5574 8.83778 25.4934 8.54978 25.3654 8.31512C25.2481 8.06978 25.0828 7.88312 24.8694 7.75512C24.6561 7.61645 24.4001 7.54712 24.1014 7.54712C23.8028 7.54712 23.5414 7.61645 23.3174 7.75512C23.1041 7.88312 22.9388 8.06978 22.8214 8.31512C22.7041 8.54978 22.6454 8.83778 22.6454 9.17912V9.72312C22.6454 10.0965 22.7201 10.4165 22.8694 10.6831C23.0188 10.9498 23.2321 11.1525 23.5094 11.2911C23.7868 11.4191 24.1228 11.4831 24.5174 11.4831C24.9228 11.4831 25.2534 11.4298 25.5094 11.3231C25.7761 11.2165 26.0534 11.0565 26.3414 10.8431L28.2294 12.7471C27.8028 13.2058 27.2748 13.5578 26.6454 13.8031C26.0268 14.0378 25.2801 14.1551 24.4054 14.1551ZM36.1066 5.08312C36.7786 5.08312 37.3866 5.22178 37.9306 5.49912C38.4746 5.76578 38.9012 6.18712 39.2106 6.76312C39.5306 7.33912 39.6906 8.08578 39.6906 9.00312V13.9951H36.0746V9.62712C36.0746 9.08312 35.9786 8.69912 35.7866 8.47512C35.5946 8.24045 35.3332 8.12312 35.0026 8.12312C34.7572 8.12312 34.5279 8.18178 34.3146 8.29912C34.1119 8.40578 33.9466 8.58712 33.8186 8.84312C33.7012 9.09912 33.6426 9.44578 33.6426 9.88312V13.9951H30.0266V5.24312H33.4666V7.80312L32.7786 7.06712C33.1199 6.40578 33.5786 5.90978 34.1546 5.57912C34.7412 5.24845 35.3919 5.08312 36.1066 5.08312ZM40.9409 13.9951V11.9151L45.5969 6.73112L46.1889 7.88312H41.0689V5.24312H49.1169V7.32312L44.4609 12.5071L43.8689 11.3551H49.2929V13.9951H40.9409Z"/>
  </mask>
  <path d="M5.84606 7.56312H10.7741V10.4111H5.84606V7.56312ZM6.10206 13.9951H2.32606V2.79512H11.4301V5.64312H6.10206V13.9951ZM12.3547 13.9951V5.24312H15.7947V7.88312L15.2347 7.13112C15.5014 6.44845 15.928 5.93645 16.5147 5.59512C17.1014 5.25378 17.8054 5.08312 18.6267 5.08312V8.28312C18.4667 8.26178 18.3227 8.24578 18.1947 8.23512C18.0774 8.22445 17.9547 8.21912 17.8267 8.21912C17.2827 8.21912 16.8347 8.36312 16.4827 8.65112C16.1414 8.92845 15.9707 9.41378 15.9707 10.1071V13.9951H12.3547ZM24.4054 14.1551C23.3388 14.1551 22.4054 13.9578 21.6054 13.5631C20.8161 13.1685 20.2028 12.6298 19.7654 11.9471C19.3281 11.2538 19.1094 10.4751 19.1094 9.61112C19.1094 8.72578 19.3228 7.94178 19.7494 7.25912C20.1868 6.57645 20.7788 6.04312 21.5254 5.65912C22.2828 5.27512 23.1308 5.08312 24.0694 5.08312C24.9334 5.08312 25.7281 5.25378 26.4534 5.59512C27.1894 5.93645 27.7761 6.44312 28.2134 7.11512C28.6614 7.78712 28.8854 8.61912 28.8854 9.61112C28.8854 9.73912 28.8801 9.88312 28.8694 10.0431C28.8588 10.1925 28.8481 10.3311 28.8374 10.4591H22.1014V8.71512H26.9174L25.5574 9.17912C25.5574 8.83778 25.4934 8.54978 25.3654 8.31512C25.2481 8.06978 25.0828 7.88312 24.8694 7.75512C24.6561 7.61645 24.4001 7.54712 24.1014 7.54712C23.8028 7.54712 23.5414 7.61645 23.3174 7.75512C23.1041 7.88312 22.9388 8.06978 22.8214 8.31512C22.7041 8.54978 22.6454 8.83778 22.6454 9.17912V9.72312C22.6454 10.0965 22.7201 10.4165 22.8694 10.6831C23.0188 10.9498 23.2321 11.1525 23.5094 11.2911C23.7868 11.4191 24.1228 11.4831 24.5174 11.4831C24.9228 11.4831 25.2534 11.4298 25.5094 11.3231C25.7761 11.2165 26.0534 11.0565 26.3414 10.8431L28.2294 12.7471C27.8028 13.2058 27.2748 13.5578 26.6454 13.8031C26.0268 14.0378 25.2801 14.1551 24.4054 14.1551ZM36.1066 5.08312C36.7786 5.08312 37.3866 5.22178 37.9306 5.49912C38.4746 5.76578 38.9012 6.18712 39.2106 6.76312C39.5306 7.33912 39.6906 8.08578 39.6906 9.00312V13.9951H36.0746V9.62712C36.0746 9.08312 35.9786 8.69912 35.7866 8.47512C35.5946 8.24045 35.3332 8.12312 35.0026 8.12312C34.7572 8.12312 34.5279 8.18178 34.3146 8.29912C34.1119 8.40578 33.9466 8.58712 33.8186 8.84312C33.7012 9.09912 33.6426 9.44578 33.6426 9.88312V13.9951H30.0266V5.24312H33.4666V7.80312L32.7786 7.06712C33.1199 6.40578 33.5786 5.90978 34.1546 5.57912C34.7412 5.24845 35.3919 5.08312 36.1066 5.08312ZM40.9409 13.9951V11.9151L45.5969 6.73112L46.1889 7.88312H41.0689V5.24312H49.1169V7.32312L44.4609 12.5071L43.8689 11.3551H49.2929V13.9951H40.9409Z" fill="white"/>
  <path d="M5.84606 7.56312V5.56312C4.74149 5.56312 3.84606 6.45855 3.84606 7.56312H5.84606ZM10.7741 7.56312H12.7741C12.7741 6.45855 11.8786 5.56312 10.7741 5.56312V7.56312ZM10.7741 10.4111V12.4111C11.8786 12.4111 12.7741 11.5157 12.7741 10.4111H10.7741ZM5.84606 10.4111H3.84606C3.84606 11.5157 4.74149 12.4111 5.84606 12.4111V10.4111ZM6.10206 13.9951V15.9951C7.20663 15.9951 8.10206 15.0997 8.10206 13.9951H6.10206ZM2.32606 13.9951H0.326063C0.326063 15.0997 1.22149 15.9951 2.32606 15.9951V13.9951ZM2.32606 2.79512V0.795116C1.22149 0.795116 0.326063 1.69055 0.326063 2.79512H2.32606ZM11.4301 2.79512H13.4301C13.4301 1.69055 12.5346 0.795116 11.4301 0.795116V2.79512ZM11.4301 5.64312V7.64312C12.5346 7.64312 13.4301 6.74769 13.4301 5.64312H11.4301ZM6.10206 5.64312V3.64312C4.99749 3.64312 4.10206 4.53855 4.10206 5.64312H6.10206ZM5.84606 9.56312H10.7741V5.56312H5.84606V9.56312ZM8.77406 7.56312V10.4111H12.7741V7.56312H8.77406ZM10.7741 8.41112H5.84606V12.4111H10.7741V8.41112ZM7.84606 10.4111V7.56312H3.84606V10.4111H7.84606ZM6.10206 11.9951H2.32606V15.9951H6.10206V11.9951ZM4.32606 13.9951V2.79512H0.326063V13.9951H4.32606ZM2.32606 4.79512H11.4301V0.795116H2.32606V4.79512ZM9.43006 2.79512V5.64312H13.4301V2.79512H9.43006ZM11.4301 3.64312H6.10206V7.64312H11.4301V3.64312ZM4.10206 5.64312V13.9951H8.10206V5.64312H4.10206ZM12.3547 13.9951H10.3547C10.3547 15.0997 11.2501 15.9951 12.3547 15.9951V13.9951ZM12.3547 5.24312V3.24312C11.2501 3.24312 10.3547 4.13855 10.3547 5.24312H12.3547ZM15.7947 5.24312H17.7947C17.7947 4.13855 16.8993 3.24312 15.7947 3.24312V5.24312ZM15.7947 7.88312L14.1906 9.07765C14.7055 9.7691 15.6056 10.0528 16.4239 9.78156C17.2422 9.51033 17.7947 8.74523 17.7947 7.88312H15.7947ZM15.2347 7.13112L13.3718 6.40342C13.1208 7.04592 13.2186 7.77241 13.6306 8.32565L15.2347 7.13112ZM16.5147 5.59512L15.5089 3.86642L15.5089 3.86642L16.5147 5.59512ZM18.6267 5.08312H20.6267C20.6267 3.97855 19.7313 3.08312 18.6267 3.08312V5.08312ZM18.6267 8.28312L18.3624 10.2656C18.9338 10.3418 19.5104 10.1677 19.9441 9.78788C20.3779 9.40812 20.6267 8.85964 20.6267 8.28312H18.6267ZM18.1947 8.23512L18.0136 10.2269C18.0186 10.2274 18.0236 10.2278 18.0286 10.2282L18.1947 8.23512ZM16.4827 8.65112L17.7439 10.2034L17.7492 10.199L16.4827 8.65112ZM15.9707 13.9951V15.9951C17.0753 15.9951 17.9707 15.0997 17.9707 13.9951H15.9707ZM14.3547 13.9951V5.24312H10.3547V13.9951H14.3547ZM12.3547 7.24312H15.7947V3.24312H12.3547V7.24312ZM13.7947 5.24312V7.88312H17.7947V5.24312H13.7947ZM17.3988 6.68858L16.8388 5.93658L13.6306 8.32565L14.1906 9.07765L17.3988 6.68858ZM17.0976 7.85882C17.2139 7.56117 17.3565 7.41924 17.5205 7.32381L15.5089 3.86642C14.4996 4.45366 13.7888 5.33573 13.3718 6.40342L17.0976 7.85882ZM17.5205 7.32381C17.7434 7.19409 18.0845 7.08312 18.6267 7.08312V3.08312C17.5262 3.08312 16.4593 3.31348 15.5089 3.86642L17.5205 7.32381ZM16.6267 5.08312V8.28312H20.6267V5.08312H16.6267ZM18.891 6.30066C18.7062 6.27602 18.5287 6.25601 18.3608 6.24203L18.0286 10.2282C18.1167 10.2356 18.2272 10.2475 18.3624 10.2656L18.891 6.30066ZM18.3758 6.24333C18.1933 6.22675 18.01 6.21912 17.8267 6.21912V10.2191C17.8994 10.2191 17.9614 10.2222 18.0136 10.2269L18.3758 6.24333ZM17.8267 6.21912C16.9152 6.21912 15.9922 6.46827 15.2162 7.1032L17.7492 10.199C17.7388 10.2075 17.7269 10.2155 17.715 10.2219C17.7032 10.2283 17.6956 10.2309 17.6947 10.2312C17.6928 10.2318 17.7307 10.2191 17.8267 10.2191V6.21912ZM15.2215 7.09889C14.1971 7.93122 13.9707 9.15917 13.9707 10.1071H17.9707C17.9707 10.0145 17.9765 9.95122 17.982 9.91272C17.9876 9.87416 17.9919 9.86827 17.9854 9.88659C17.9787 9.90584 17.9599 9.9523 17.9192 10.0129C17.8775 10.075 17.8193 10.142 17.7439 10.2033L15.2215 7.09889ZM13.9707 10.1071V13.9951H17.9707V10.1071H13.9707ZM15.9707 11.9951H12.3547V15.9951H15.9707V11.9951ZM21.6054 13.5631L20.711 15.352L20.7206 15.3567L21.6054 13.5631ZM19.7654 11.9471L18.0738 13.0141L18.0814 13.026L19.7654 11.9471ZM19.7494 7.25912L18.0654 6.18026C18.0614 6.18653 18.0574 6.19281 18.0534 6.19912L19.7494 7.25912ZM21.5254 5.65912L20.621 3.87529L20.6107 3.88054L21.5254 5.65912ZM26.4534 5.59512L25.6018 7.40478L25.612 7.40949L26.4534 5.59512ZM28.2134 7.11512L26.5372 8.20603C26.5412 8.21221 26.5452 8.21838 26.5493 8.22452L28.2134 7.11512ZM28.8694 10.0431L30.8644 10.1856L30.865 10.1762L28.8694 10.0431ZM28.8374 10.4591V12.4591C29.8776 12.4591 30.7441 11.6618 30.8305 10.6252L28.8374 10.4591ZM22.1014 10.4591H20.1014C20.1014 11.5637 20.9969 12.4591 22.1014 12.4591V10.4591ZM22.1014 8.71512V6.71512C20.9969 6.71512 20.1014 7.61055 20.1014 8.71512H22.1014ZM26.9174 8.71512L27.5632 10.608C28.4891 10.2921 29.0506 9.35286 28.8905 8.3878C28.7304 7.42275 27.8957 6.71512 26.9174 6.71512V8.71512ZM25.5574 9.17912H23.5574C23.5574 9.82449 23.8689 10.4302 24.3937 10.8057C24.9186 11.1812 25.5924 11.2804 26.2032 11.072L25.5574 9.17912ZM25.3654 8.31512L23.5612 9.17803C23.5765 9.21005 23.5926 9.24166 23.6096 9.27282L25.3654 8.31512ZM24.8694 7.75512L23.7795 9.432C23.7996 9.44507 23.8199 9.45777 23.8404 9.4701L24.8694 7.75512ZM23.3174 7.75512L24.3464 9.4701C24.3544 9.46534 24.3623 9.46052 24.3701 9.45565L23.3174 7.75512ZM22.8214 8.31512L24.6103 9.20954C24.6155 9.19908 24.6207 9.18858 24.6257 9.17803L22.8214 8.31512ZM22.8694 10.6831L24.6145 9.70591V9.70591L22.8694 10.6831ZM23.5094 11.2911L22.615 13.08C22.6336 13.0893 22.6524 13.0983 22.6713 13.107L23.5094 11.2911ZM25.5094 11.3231L24.7667 9.46616C24.7578 9.4697 24.749 9.4733 24.7402 9.47696L25.5094 11.3231ZM26.3414 10.8431L27.7616 9.43488C27.0617 8.72907 25.9497 8.64436 25.151 9.236L26.3414 10.8431ZM28.2294 12.7471L29.6938 14.1093C30.4248 13.3236 30.4053 12.1009 29.6496 11.3389L28.2294 12.7471ZM26.6454 13.8031L27.3547 15.6731C27.3605 15.6709 27.3662 15.6688 27.3719 15.6665L26.6454 13.8031ZM24.4054 12.1551C23.5862 12.1551 22.9663 12.0043 22.4903 11.7695L20.7206 15.3567C21.8446 15.9112 23.0914 16.1551 24.4054 16.1551V12.1551ZM22.4999 11.7743C22.0034 11.526 21.6754 11.2208 21.4495 10.8683L18.0814 13.026C18.7302 14.0387 19.6288 14.8109 20.711 15.352L22.4999 11.7743ZM21.457 10.8801C21.2323 10.5238 21.1094 10.1188 21.1094 9.61112H17.1094C17.1094 10.8314 17.4239 11.9838 18.0738 13.0141L21.457 10.8801ZM21.1094 9.61112C21.1094 9.06193 21.237 8.65263 21.4454 8.31911L18.0534 6.19912C17.4086 7.23094 17.1094 8.38963 17.1094 9.61112H21.1094ZM21.4335 8.33797C21.6736 7.96317 21.9955 7.66638 22.4401 7.43769L20.6107 3.88054C19.5621 4.41985 18.6999 5.18973 18.0654 6.18026L21.4335 8.33797ZM22.4299 7.44292C22.8784 7.21552 23.4114 7.08312 24.0694 7.08312V3.08312C22.8501 3.08312 21.6872 3.33471 20.621 3.87532L22.4299 7.44292ZM24.0694 7.08312C24.6623 7.08312 25.1632 7.19834 25.6018 7.40475L27.305 3.78548C26.293 3.30923 25.2046 3.08312 24.0694 3.08312V7.08312ZM25.612 7.40949C26.0116 7.59482 26.3072 7.85271 26.5372 8.20603L29.8897 6.02421C29.245 5.03352 28.3673 4.27808 27.2949 3.78074L25.612 7.40949ZM26.5493 8.22452C26.7329 8.49979 26.8854 8.92317 26.8854 9.61112H30.8854C30.8854 8.31507 30.59 7.07444 29.8775 6.00572L26.5493 8.22452ZM26.8854 9.61112C26.8854 9.68533 26.8823 9.78386 26.8739 9.91008L30.865 10.1762C30.8779 9.98237 30.8854 9.79291 30.8854 9.61112H26.8854ZM26.8745 9.90063C26.8643 10.0433 26.8543 10.174 26.8443 10.293L30.8305 10.6252C30.8419 10.4882 30.8532 10.3416 30.8644 10.1856L26.8745 9.90063ZM28.8374 8.45912H22.1014V12.4591H28.8374V8.45912ZM24.1014 10.4591V8.71512H20.1014V10.4591H24.1014ZM22.1014 10.7151H26.9174V6.71512H22.1014V10.7151ZM26.2716 6.82225L24.9116 7.28625L26.2032 11.072L27.5632 10.608L26.2716 6.82225ZM27.5574 9.17912C27.5574 8.59364 27.4478 7.9562 27.1212 7.35741L23.6096 9.27282C23.539 9.14337 23.5574 9.08192 23.5574 9.17912H27.5574ZM27.1697 7.45221C26.8995 6.8873 26.4794 6.38871 25.8984 6.04013L23.8404 9.4701C23.7717 9.42886 23.7086 9.37626 23.6563 9.31719C23.6049 9.25919 23.5756 9.2082 23.5612 9.17803L27.1697 7.45221ZM25.9594 6.07823C25.3686 5.69421 24.7185 5.54712 24.1014 5.54712V9.54712C24.096 9.54712 24.0569 9.54645 23.9946 9.52957C23.9301 9.5121 23.8548 9.48097 23.7795 9.432L25.9594 6.07823ZM24.1014 5.54712C23.4818 5.54712 22.8457 5.69497 22.2647 6.05459L24.3701 9.45565C24.3102 9.49273 24.249 9.51773 24.1943 9.53224C24.1412 9.54633 24.1074 9.54712 24.1014 9.54712V5.54712ZM22.2884 6.04013C21.7075 6.38871 21.2873 6.8873 21.0172 7.45221L24.6257 9.17803C24.6113 9.2082 24.582 9.25919 24.5306 9.31719C24.4783 9.37626 24.4152 9.42886 24.3464 9.4701L22.2884 6.04013ZM21.0326 7.42069C20.741 8.00376 20.6454 8.61739 20.6454 9.17912H24.6454C24.6454 9.12161 24.6505 9.09992 24.6492 9.10633C24.6477 9.11387 24.6388 9.1525 24.6103 9.20954L21.0326 7.42069ZM20.6454 9.17912V9.72312H24.6454V9.17912H20.6454ZM20.6454 9.72312C20.6454 10.3634 20.7746 11.0357 21.1244 11.6603L24.6145 9.70591C24.6259 9.72634 24.6341 9.74471 24.6399 9.75971C24.6456 9.77461 24.6482 9.78471 24.6491 9.78866C24.6509 9.79621 24.6454 9.77712 24.6454 9.72312H20.6454ZM21.1244 11.6603C21.4726 12.282 21.9848 12.7649 22.615 13.08L24.4039 9.50226C24.4326 9.51661 24.4747 9.54308 24.5189 9.58512C24.5634 9.62733 24.5949 9.67092 24.6145 9.70591L21.1244 11.6603ZM22.6713 13.107C23.2764 13.3863 23.9146 13.4831 24.5174 13.4831V9.48312C24.3309 9.48312 24.2972 9.45195 24.3476 9.4752L22.6713 13.107ZM24.5174 13.4831C25.0754 13.4831 25.6937 13.413 26.2787 13.1693L24.7402 9.47696C24.7831 9.45908 24.7923 9.46196 24.751 9.46863C24.7101 9.47523 24.6348 9.48312 24.5174 9.48312V13.4831ZM26.2522 13.1801C26.7118 12.9962 27.1385 12.7416 27.5319 12.4502L25.151 9.236C24.9684 9.37126 24.8404 9.43667 24.7667 9.46616L26.2522 13.1801ZM24.9213 12.2514L26.8093 14.1554L29.6496 11.3389L27.7616 9.43488L24.9213 12.2514ZM26.7651 11.3849C26.5593 11.6061 26.2901 11.795 25.919 11.9397L27.3719 15.6665C28.2594 15.3205 29.0463 14.8054 29.6938 14.1093L26.7651 11.3849ZM25.9361 11.9331C25.604 12.0591 25.1114 12.1551 24.4054 12.1551V16.1551C25.4488 16.1551 26.4495 16.0165 27.3547 15.6731L25.9361 11.9331ZM37.9306 5.49912L37.0222 7.28093C37.0315 7.28568 37.0409 7.29036 37.0503 7.29496L37.9306 5.49912ZM39.2106 6.76312L37.4486 7.70937C37.4531 7.71775 37.4576 7.72609 37.4622 7.7344L39.2106 6.76312ZM39.6906 13.9951V15.9951C40.7951 15.9951 41.6906 15.0997 41.6906 13.9951H39.6906ZM36.0746 13.9951H34.0746C34.0746 15.0997 34.97 15.9951 36.0746 15.9951V13.9951ZM35.7866 8.47512L34.2386 9.74159C34.2483 9.75341 34.2581 9.76511 34.268 9.7767L35.7866 8.47512ZM34.3146 8.29912L35.2461 10.069C35.2569 10.0633 35.2677 10.0574 35.2784 10.0515L34.3146 8.29912ZM33.8186 8.84312L32.0297 7.94869C32.0196 7.96889 32.0098 7.98927 32.0004 8.00981L33.8186 8.84312ZM33.6426 13.9951V15.9951C34.7471 15.9951 35.6426 15.0997 35.6426 13.9951H33.6426ZM30.0266 13.9951H28.0266C28.0266 15.0997 28.922 15.9951 30.0266 15.9951V13.9951ZM30.0266 5.24312V3.24312C28.922 3.24312 28.0266 4.13855 28.0266 5.24312H30.0266ZM33.4666 5.24312H35.4666C35.4666 4.13855 34.5711 3.24312 33.4666 3.24312V5.24312ZM33.4666 7.80312L32.0055 9.16888C32.5663 9.7688 33.4368 9.96494 34.2007 9.66351C34.9646 9.36207 35.4666 8.62432 35.4666 7.80312H33.4666ZM32.7786 7.06712L31.0013 6.14983C30.6135 6.90118 30.7401 7.81521 31.3175 8.43288L32.7786 7.06712ZM34.1546 5.57912L33.1725 3.83681C33.168 3.83939 33.1634 3.84199 33.1588 3.84461L34.1546 5.57912ZM36.1066 7.08312C36.4951 7.08312 36.7869 7.16099 37.0222 7.28093L38.8389 3.7173C37.9862 3.28258 37.0621 3.08312 36.1066 3.08312V7.08312ZM37.0503 7.29496C37.1886 7.36276 37.3206 7.47099 37.4486 7.70937L40.9726 5.81686C40.4819 4.90324 39.7606 4.16881 38.8109 3.70328L37.0503 7.29496ZM37.4622 7.7344C37.5651 7.91946 37.6906 8.29917 37.6906 9.00312H41.6906C41.6906 7.87239 41.4961 6.75878 40.9589 5.79183L37.4622 7.7344ZM37.6906 9.00312V13.9951H41.6906V9.00312H37.6906ZM39.6906 11.9951H36.0746V15.9951H39.6906V11.9951ZM38.0746 13.9951V9.62712H34.0746V13.9951H38.0746ZM38.0746 9.62712C38.0746 8.96184 37.9798 7.96073 37.3051 7.17353L34.268 9.7767C34.1051 9.58657 34.065 9.42724 34.0623 9.41619C34.0597 9.40589 34.0633 9.41693 34.0672 9.45492C34.0711 9.49244 34.0746 9.54888 34.0746 9.62712H38.0746ZM37.3345 7.20864C36.7251 6.46384 35.8712 6.12312 35.0026 6.12312V10.1231C34.9288 10.1231 34.7911 10.1092 34.6274 10.0357C34.4587 9.95991 34.3272 9.84987 34.2386 9.74159L37.3345 7.20864ZM35.0026 6.12312C34.4229 6.12312 33.8617 6.26565 33.3507 6.54669L35.2784 10.0515C35.2417 10.0718 35.1954 10.0911 35.1422 10.1047C35.0891 10.1183 35.041 10.1231 35.0026 10.1231V6.12312ZM33.3831 6.52928C32.7265 6.87485 32.2977 7.41278 32.0297 7.94869L35.6074 9.73755C35.5955 9.76145 35.4973 9.93671 35.2461 10.069L33.3831 6.52928ZM32.0004 8.00981C31.7154 8.63175 31.6426 9.30101 31.6426 9.88312H35.6426C35.6426 9.75052 35.6517 9.66913 35.6585 9.62883C35.6656 9.58727 35.6664 9.61169 35.6367 9.67642L32.0004 8.00981ZM31.6426 9.88312V13.9951H35.6426V9.88312H31.6426ZM33.6426 11.9951H30.0266V15.9951H33.6426V11.9951ZM32.0266 13.9951V5.24312H28.0266V13.9951H32.0266ZM30.0266 7.24312H33.4666V3.24312H30.0266V7.24312ZM31.4666 5.24312V7.80312H35.4666V5.24312H31.4666ZM34.9276 6.43735L34.2396 5.70135L31.3175 8.43288L32.0055 9.16888L34.9276 6.43735ZM34.5558 7.9844C34.7426 7.62242 34.9472 7.4302 35.1503 7.31362L33.1588 3.84461C32.2099 4.38936 31.4972 5.18914 31.0013 6.14983L34.5558 7.9844ZM35.1366 7.32142C35.4051 7.17009 35.7141 7.08312 36.1066 7.08312V3.08312C35.0696 3.08312 34.0774 3.32681 33.1725 3.83681L35.1366 7.32142ZM40.9409 13.9951H38.9409C38.9409 15.0997 39.8364 15.9951 40.9409 15.9951V13.9951ZM40.9409 11.9151L39.453 10.5787C39.1233 10.9458 38.9409 11.4217 38.9409 11.9151H40.9409ZM45.5969 6.73112L47.3758 5.81698C47.0751 5.23181 46.5058 4.83196 45.8533 4.74762C45.2008 4.66328 44.5486 4.90523 44.109 5.39471L45.5969 6.73112ZM46.1889 7.88312V9.88312C46.886 9.88312 47.5328 9.52016 47.896 8.92516C48.2592 8.33017 48.2864 7.58899 47.9678 6.96898L46.1889 7.88312ZM41.0689 7.88312H39.0689C39.0689 8.98769 39.9644 9.88312 41.0689 9.88312V7.88312ZM41.0689 5.24312V3.24312C39.9644 3.24312 39.0689 4.13855 39.0689 5.24312H41.0689ZM49.1169 5.24312H51.1169C51.1169 4.13855 50.2215 3.24312 49.1169 3.24312V5.24312ZM49.1169 7.32312L50.6049 8.65952C50.9346 8.29246 51.1169 7.81649 51.1169 7.32312H49.1169ZM44.4609 12.5071L42.6821 13.4213C42.9828 14.0064 43.5521 14.4063 44.2046 14.4906C44.857 14.575 45.5093 14.333 45.9489 13.8435L44.4609 12.5071ZM43.8689 11.3551V9.35512C43.1718 9.35512 42.5251 9.71808 42.1619 10.3131C41.7987 10.9081 41.7715 11.6492 42.0901 12.2693L43.8689 11.3551ZM49.2929 11.3551H51.2929C51.2929 10.2505 50.3975 9.35512 49.2929 9.35512V11.3551ZM49.2929 13.9951V15.9951C50.3975 15.9951 51.2929 15.0997 51.2929 13.9951H49.2929ZM42.9409 13.9951V11.9151H38.9409V13.9951H42.9409ZM42.4289 13.2515L47.0849 8.06752L44.109 5.39471L39.453 10.5787L42.4289 13.2515ZM43.8181 7.64525L44.4101 8.79725L47.9678 6.96898L47.3758 5.81698L43.8181 7.64525ZM46.1889 5.88312H41.0689V9.88312H46.1889V5.88312ZM43.0689 7.88312V5.24312H39.0689V7.88312H43.0689ZM41.0689 7.24312H49.1169V3.24312H41.0689V7.24312ZM47.1169 5.24312V7.32312H51.1169V5.24312H47.1169ZM47.629 5.98671L42.973 11.1707L45.9489 13.8435L50.6049 8.65952L47.629 5.98671ZM46.2398 11.593L45.6478 10.441L42.0901 12.2693L42.6821 13.4213L46.2398 11.593ZM43.8689 13.3551H49.2929V9.35512H43.8689V13.3551ZM47.2929 11.3551V13.9951H51.2929V11.3551H47.2929ZM49.2929 11.9951H40.9409V15.9951H49.2929V11.9951Z" fill="#4B371F" mask="url(#path-1-outside-1_671_4579)"/>
</svg>
