<svg width="35" height="30" viewBox="0 0 35 30" fill="none" xmlns="http://www.w3.org/2000/svg">
  <mask id="path-1-outside-1_0_1" maskUnits="userSpaceOnUse" x="-1" y="-1" width="36" height="29" fill="black">
    <rect fill="white" x="-1" y="-1" width="36" height="29"/>
    <path fill-rule="evenodd" clip-rule="evenodd" d="M10.6307 23.1554L4.69908 17.452C1.69896 14.6036 0.547411 9.10363 4.69912 4.95193C8.54729 1.10376 14.1989 1.60364 17.6991 4.45193C21.1989 1.10364 26.851 1.10376 30.6991 4.95194C33.3509 7.60383 33.6991 13.6036 30.6991 16.952L24.6328 23.0182C20.7816 26.8694 14.5566 26.9304 10.6307 23.1554Z"/>
  </mask>
  <path fill-rule="evenodd" clip-rule="evenodd" d="M10.6307 23.1554L4.69908 17.452C1.69896 14.6036 0.547411 9.10363 4.69912 4.95193C8.54729 1.10376 14.1989 1.60364 17.6991 4.45193C21.1989 1.10364 26.851 1.10376 30.6991 4.95194C33.3509 7.60383 33.6991 13.6036 30.6991 16.952L24.6328 23.0182C20.7816 26.8694 14.5566 26.9304 10.6307 23.1554Z" fill="#4B371F"/>
  <path d="M4.69908 17.452L6.08532 16.0103L6.07614 16.0016L4.69908 17.452ZM10.6307 23.1554L9.24446 24.5971L10.6307 23.1554ZM4.69912 4.95193L3.28491 3.53771L3.28491 3.53771L4.69912 4.95193ZM17.6991 4.45193L16.4367 6.00319L17.806 7.11749L19.0816 5.8971L17.6991 4.45193ZM30.6991 4.95194L29.2848 6.36613V6.36613L30.6991 4.95194ZM30.6991 16.952L32.1133 18.3662L32.152 18.3274L32.1886 18.2866L30.6991 16.952ZM3.31286 18.8936L9.24446 24.5971L12.0169 21.7138L6.0853 16.0103L3.31286 18.8936ZM3.28491 3.53771C-1.79632 8.61893 -0.349345 15.4167 3.32202 18.9024L6.07614 16.0016C3.74726 13.7905 2.89114 9.58833 6.11333 6.36614L3.28491 3.53771ZM18.9614 2.90067C14.8124 -0.475672 7.98439 -1.16177 3.28491 3.53771L6.11333 6.36614C9.11019 3.36929 13.5855 3.68296 16.4367 6.00319L18.9614 2.90067ZM32.1133 3.53775C27.5382 -1.03747 20.6441 -1.13342 16.3165 3.00676L19.0816 5.8971C21.7538 3.3407 26.1638 3.245 29.2848 6.36613L32.1133 3.53775ZM32.1886 18.2866C34.1033 16.1495 34.8689 13.2791 34.8181 10.6521C34.7678 8.05083 33.9072 5.33172 32.1133 3.53775L29.2848 6.36613C30.1427 7.22405 30.7821 8.83077 30.8189 10.7295C30.8551 12.6024 30.2948 14.406 29.2095 15.6174L32.1886 18.2866ZM26.0471 24.4324L32.1133 18.3662L29.2848 15.5378L23.2186 21.604L26.0471 24.4324ZM9.24446 24.5971C13.9556 29.1271 21.4256 29.0539 26.0471 24.4324L23.2186 21.604C20.1377 24.6849 15.1577 24.7338 12.0169 21.7138L9.24446 24.5971Z" fill="#4B371F" mask="url(#path-1-outside-1_0_1)"/>
  <path d="M4.69908 17.452L10.6307 23.1554C14.5566 26.9304 20.7816 26.8694 24.6328 23.0182L30.6991 16.952C33.6991 13.6036 33.3509 7.60383 30.6991 4.95194C26.851 1.10376 21.1989 1.10364 17.6991 4.45193C14.1989 1.60364 8.54729 1.10376 4.69912 4.95193C0.547412 9.10364 1.69896 14.6036 4.69908 17.452Z" fill="#FFB5DD"/>
  <path d="M17.6991 4.45193C14.1989 1.60364 8.54729 1.10376 4.69912 4.95193C0.547412 9.10364 1.69896 14.6036 4.69908 17.452L10.6307 23.1554C14.5566 26.9304 20.7816 26.8694 24.6328 23.0182L30.6991 16.952C33.6991 13.6036 33.3509 7.60383 30.6991 4.95194C26.851 1.10376 21.1989 1.10364 17.6991 4.45193ZM17.6991 4.45193L13.699 8.60359" stroke="#4B371F" stroke-width="1.2" stroke-linecap="round" stroke-linejoin="round"/>
  <ellipse cx="18.9117" cy="16.5027" rx="5.67118" ry="6.5073" transform="rotate(41.6329 18.9117 16.5027)" fill="#4B371F"/>
  <ellipse cx="20.5541" cy="6.63093" rx="1.56088" ry="2.14603" transform="rotate(18.2691 20.5541 6.63093)" fill="#4B371F"/>
  <ellipse cx="28.1381" cy="15.0899" rx="1.56088" ry="2.00655" transform="rotate(80.0493 28.1381 15.0899)" fill="#4B371F"/>
  <ellipse cx="24.9508" cy="7.23824" rx="1.78986" ry="2.69908" transform="rotate(34.4206 24.9508 7.23824)" fill="#4B371F"/>
  <ellipse cx="27.886" cy="10.9586" rx="1.74716" ry="2.63469" transform="rotate(54.1824 27.886 10.9586)" fill="#4B371F"/>
</svg>
