<svg width="54" height="17" viewBox="0 0 54 17" fill="none" xmlns="http://www.w3.org/2000/svg">
  <mask id="path-1-outside-1_706_2774" maskUnits="userSpaceOnUse" x="0" y="0" width="54" height="17" fill="black">
    <rect fill="white" width="54" height="17"/>
    <path d="M8.83719 14.256C7.93052 14.256 7.09319 14.1173 6.32519 13.84C5.56785 13.552 4.90652 13.1467 4.34119 12.624C3.78652 12.1013 3.35452 11.4827 3.04519 10.768C2.73585 10.0533 2.58119 9.264 2.58119 8.4C2.58119 7.536 2.73585 6.74667 3.04519 6.032C3.35452 5.31733 3.79185 4.69867 4.35719 4.176C4.92252 3.65333 5.58919 3.25333 6.35719 2.976C7.13585 2.688 7.98919 2.544 8.91719 2.544C10.0265 2.544 11.0132 2.73067 11.8772 3.104C12.7519 3.47733 13.4719 4.01067 14.0372 4.704L11.6212 6.832C11.2692 6.42667 10.8852 6.12267 10.4692 5.92C10.0639 5.70667 9.61052 5.6 9.10919 5.6C8.69319 5.6 8.31452 5.664 7.97319 5.792C7.64252 5.92 7.35985 6.10667 7.12519 6.352C6.89052 6.59733 6.70919 6.89067 6.58119 7.232C6.45319 7.57333 6.38919 7.96267 6.38919 8.4C6.38919 8.816 6.45319 9.2 6.58119 9.552C6.70919 9.89333 6.89052 10.1867 7.12519 10.432C7.35985 10.6773 7.63719 10.8693 7.95719 11.008C8.28785 11.136 8.65585 11.2 9.06119 11.2C9.48785 11.2 9.90385 11.1307 10.3092 10.992C10.7145 10.8427 11.1465 10.592 11.6052 10.24L13.7172 12.832C13.0345 13.2907 12.2559 13.6427 11.3812 13.888C10.5065 14.1333 9.65852 14.256 8.83719 14.256ZM10.4372 12.352V8.096H13.7172V12.832L10.4372 12.352ZM20.5101 14V12.448L20.2541 12.032V9.088C20.2541 8.66133 20.1207 8.336 19.8541 8.112C19.5981 7.888 19.1767 7.776 18.5901 7.776C18.1954 7.776 17.7954 7.84 17.3901 7.968C16.9847 8.08533 16.6381 8.25067 16.3501 8.464L15.1981 6.08C15.7101 5.76 16.3234 5.51467 17.0381 5.344C17.7527 5.17333 18.4514 5.088 19.1341 5.088C20.6381 5.088 21.8007 5.424 22.6221 6.096C23.4541 6.768 23.8701 7.83467 23.8701 9.296V14H20.5101ZM18.0301 14.16C17.3154 14.16 16.7181 14.0373 16.2381 13.792C15.7581 13.5467 15.3954 13.2213 15.1501 12.816C14.9047 12.4 14.7821 11.9413 14.7821 11.44C14.7821 10.8747 14.9261 10.3947 15.2141 10C15.5021 9.60533 15.9394 9.30667 16.5261 9.104C17.1234 8.90133 17.8754 8.8 18.7821 8.8H20.6061V10.544H19.3581C18.9741 10.544 18.6914 10.608 18.5101 10.736C18.3394 10.8533 18.2541 11.0347 18.2541 11.28C18.2541 11.4827 18.3287 11.6533 18.4781 11.792C18.6381 11.92 18.8514 11.984 19.1181 11.984C19.3634 11.984 19.5874 11.92 19.7901 11.792C20.0034 11.6533 20.1581 11.44 20.2541 11.152L20.7181 12.224C20.5794 12.8747 20.2861 13.36 19.8381 13.68C19.3901 14 18.7874 14.16 18.0301 14.16ZM37.0168 5.088C37.6781 5.088 38.2701 5.22667 38.7928 5.504C39.3261 5.77067 39.7421 6.192 40.0408 6.768C40.3501 7.344 40.5048 8.09067 40.5048 9.008V14H36.8888V9.632C36.8888 9.088 36.7981 8.704 36.6168 8.48C36.4355 8.24533 36.2008 8.128 35.9128 8.128C35.6995 8.128 35.5075 8.18133 35.3368 8.288C35.1661 8.39467 35.0275 8.56533 34.9208 8.8C34.8248 9.024 34.7768 9.33333 34.7768 9.728V14H31.1608V9.632C31.1608 9.088 31.0755 8.704 30.9048 8.48C30.7341 8.24533 30.4941 8.128 30.1848 8.128C29.9715 8.128 29.7795 8.18133 29.6088 8.288C29.4381 8.39467 29.2995 8.56533 29.1928 8.8C29.0968 9.024 29.0488 9.33333 29.0488 9.728V14H25.4328V5.248H28.8728V7.76L28.1688 7.056C28.4995 6.39467 28.9421 5.904 29.4968 5.584C30.0515 5.25333 30.6701 5.088 31.3528 5.088C32.1208 5.088 32.7981 5.29067 33.3848 5.696C33.9821 6.09067 34.3821 6.72 34.5848 7.584L33.4808 7.408C33.8008 6.68267 34.2648 6.11733 34.8728 5.712C35.4915 5.296 36.2061 5.088 37.0168 5.088ZM47.0617 14.16C45.995 14.16 45.0617 13.9627 44.2617 13.568C43.4724 13.1733 42.859 12.6347 42.4217 11.952C41.9844 11.2587 41.7657 10.48 41.7657 9.616C41.7657 8.73067 41.979 7.94667 42.4057 7.264C42.843 6.58133 43.435 6.048 44.1817 5.664C44.939 5.28 45.787 5.088 46.7257 5.088C47.5897 5.088 48.3844 5.25867 49.1097 5.6C49.8457 5.94133 50.4324 6.448 50.8697 7.12C51.3177 7.792 51.5417 8.624 51.5417 9.616C51.5417 9.744 51.5364 9.888 51.5257 10.048C51.515 10.1973 51.5044 10.336 51.4937 10.464H44.7577V8.72H49.5737L48.2137 9.184C48.2137 8.84267 48.1497 8.55467 48.0217 8.32C47.9044 8.07467 47.739 7.888 47.5257 7.76C47.3124 7.62133 47.0564 7.552 46.7577 7.552C46.459 7.552 46.1977 7.62133 45.9737 7.76C45.7604 7.888 45.595 8.07467 45.4777 8.32C45.3604 8.55467 45.3017 8.84267 45.3017 9.184V9.728C45.3017 10.1013 45.3764 10.4213 45.5257 10.688C45.675 10.9547 45.8884 11.1573 46.1657 11.296C46.443 11.424 46.779 11.488 47.1737 11.488C47.579 11.488 47.9097 11.4347 48.1657 11.328C48.4324 11.2213 48.7097 11.0613 48.9977 10.848L50.8857 12.752C50.459 13.2107 49.931 13.5627 49.3017 13.808C48.683 14.0427 47.9364 14.16 47.0617 14.16Z"/>
  </mask>
  <path d="M8.83719 14.256C7.93052 14.256 7.09319 14.1173 6.32519 13.84C5.56785 13.552 4.90652 13.1467 4.34119 12.624C3.78652 12.1013 3.35452 11.4827 3.04519 10.768C2.73585 10.0533 2.58119 9.264 2.58119 8.4C2.58119 7.536 2.73585 6.74667 3.04519 6.032C3.35452 5.31733 3.79185 4.69867 4.35719 4.176C4.92252 3.65333 5.58919 3.25333 6.35719 2.976C7.13585 2.688 7.98919 2.544 8.91719 2.544C10.0265 2.544 11.0132 2.73067 11.8772 3.104C12.7519 3.47733 13.4719 4.01067 14.0372 4.704L11.6212 6.832C11.2692 6.42667 10.8852 6.12267 10.4692 5.92C10.0639 5.70667 9.61052 5.6 9.10919 5.6C8.69319 5.6 8.31452 5.664 7.97319 5.792C7.64252 5.92 7.35985 6.10667 7.12519 6.352C6.89052 6.59733 6.70919 6.89067 6.58119 7.232C6.45319 7.57333 6.38919 7.96267 6.38919 8.4C6.38919 8.816 6.45319 9.2 6.58119 9.552C6.70919 9.89333 6.89052 10.1867 7.12519 10.432C7.35985 10.6773 7.63719 10.8693 7.95719 11.008C8.28785 11.136 8.65585 11.2 9.06119 11.2C9.48785 11.2 9.90385 11.1307 10.3092 10.992C10.7145 10.8427 11.1465 10.592 11.6052 10.24L13.7172 12.832C13.0345 13.2907 12.2559 13.6427 11.3812 13.888C10.5065 14.1333 9.65852 14.256 8.83719 14.256ZM10.4372 12.352V8.096H13.7172V12.832L10.4372 12.352ZM20.5101 14V12.448L20.2541 12.032V9.088C20.2541 8.66133 20.1207 8.336 19.8541 8.112C19.5981 7.888 19.1767 7.776 18.5901 7.776C18.1954 7.776 17.7954 7.84 17.3901 7.968C16.9847 8.08533 16.6381 8.25067 16.3501 8.464L15.1981 6.08C15.7101 5.76 16.3234 5.51467 17.0381 5.344C17.7527 5.17333 18.4514 5.088 19.1341 5.088C20.6381 5.088 21.8007 5.424 22.6221 6.096C23.4541 6.768 23.8701 7.83467 23.8701 9.296V14H20.5101ZM18.0301 14.16C17.3154 14.16 16.7181 14.0373 16.2381 13.792C15.7581 13.5467 15.3954 13.2213 15.1501 12.816C14.9047 12.4 14.7821 11.9413 14.7821 11.44C14.7821 10.8747 14.9261 10.3947 15.2141 10C15.5021 9.60533 15.9394 9.30667 16.5261 9.104C17.1234 8.90133 17.8754 8.8 18.7821 8.8H20.6061V10.544H19.3581C18.9741 10.544 18.6914 10.608 18.5101 10.736C18.3394 10.8533 18.2541 11.0347 18.2541 11.28C18.2541 11.4827 18.3287 11.6533 18.4781 11.792C18.6381 11.92 18.8514 11.984 19.1181 11.984C19.3634 11.984 19.5874 11.92 19.7901 11.792C20.0034 11.6533 20.1581 11.44 20.2541 11.152L20.7181 12.224C20.5794 12.8747 20.2861 13.36 19.8381 13.68C19.3901 14 18.7874 14.16 18.0301 14.16ZM37.0168 5.088C37.6781 5.088 38.2701 5.22667 38.7928 5.504C39.3261 5.77067 39.7421 6.192 40.0408 6.768C40.3501 7.344 40.5048 8.09067 40.5048 9.008V14H36.8888V9.632C36.8888 9.088 36.7981 8.704 36.6168 8.48C36.4355 8.24533 36.2008 8.128 35.9128 8.128C35.6995 8.128 35.5075 8.18133 35.3368 8.288C35.1661 8.39467 35.0275 8.56533 34.9208 8.8C34.8248 9.024 34.7768 9.33333 34.7768 9.728V14H31.1608V9.632C31.1608 9.088 31.0755 8.704 30.9048 8.48C30.7341 8.24533 30.4941 8.128 30.1848 8.128C29.9715 8.128 29.7795 8.18133 29.6088 8.288C29.4381 8.39467 29.2995 8.56533 29.1928 8.8C29.0968 9.024 29.0488 9.33333 29.0488 9.728V14H25.4328V5.248H28.8728V7.76L28.1688 7.056C28.4995 6.39467 28.9421 5.904 29.4968 5.584C30.0515 5.25333 30.6701 5.088 31.3528 5.088C32.1208 5.088 32.7981 5.29067 33.3848 5.696C33.9821 6.09067 34.3821 6.72 34.5848 7.584L33.4808 7.408C33.8008 6.68267 34.2648 6.11733 34.8728 5.712C35.4915 5.296 36.2061 5.088 37.0168 5.088ZM47.0617 14.16C45.995 14.16 45.0617 13.9627 44.2617 13.568C43.4724 13.1733 42.859 12.6347 42.4217 11.952C41.9844 11.2587 41.7657 10.48 41.7657 9.616C41.7657 8.73067 41.979 7.94667 42.4057 7.264C42.843 6.58133 43.435 6.048 44.1817 5.664C44.939 5.28 45.787 5.088 46.7257 5.088C47.5897 5.088 48.3844 5.25867 49.1097 5.6C49.8457 5.94133 50.4324 6.448 50.8697 7.12C51.3177 7.792 51.5417 8.624 51.5417 9.616C51.5417 9.744 51.5364 9.888 51.5257 10.048C51.515 10.1973 51.5044 10.336 51.4937 10.464H44.7577V8.72H49.5737L48.2137 9.184C48.2137 8.84267 48.1497 8.55467 48.0217 8.32C47.9044 8.07467 47.739 7.888 47.5257 7.76C47.3124 7.62133 47.0564 7.552 46.7577 7.552C46.459 7.552 46.1977 7.62133 45.9737 7.76C45.7604 7.888 45.595 8.07467 45.4777 8.32C45.3604 8.55467 45.3017 8.84267 45.3017 9.184V9.728C45.3017 10.1013 45.3764 10.4213 45.5257 10.688C45.675 10.9547 45.8884 11.1573 46.1657 11.296C46.443 11.424 46.779 11.488 47.1737 11.488C47.579 11.488 47.9097 11.4347 48.1657 11.328C48.4324 11.2213 48.7097 11.0613 48.9977 10.848L50.8857 12.752C50.459 13.2107 49.931 13.5627 49.3017 13.808C48.683 14.0427 47.9364 14.16 47.0617 14.16Z" fill="white"/>
  <path d="M6.32519 13.84L5.61429 15.7094C5.62479 15.7134 5.63533 15.7173 5.6459 15.7211L6.32519 13.84ZM4.34119 12.624L2.96959 14.0796C2.9742 14.0839 2.97883 14.0882 2.98348 14.0925L4.34119 12.624ZM3.04519 10.768L1.20974 11.5624H1.20974L3.04519 10.768ZM3.04519 6.032L1.20974 5.23755L1.20974 5.23755L3.04519 6.032ZM4.35719 4.176L2.99948 2.70746H2.99948L4.35719 4.176ZM6.35719 2.976L7.03648 4.85711C7.04132 4.85536 7.04615 4.85359 7.05098 4.85181L6.35719 2.976ZM11.8772 3.104L11.0839 4.93995L11.0921 4.94345L11.8772 3.104ZM14.0372 4.704L15.3591 6.20483C16.1658 5.49432 16.2665 4.27324 15.5872 3.44012L14.0372 4.704ZM11.6212 6.832L10.1111 8.14337C10.4605 8.5457 10.956 8.79197 11.4877 8.82754C12.0194 8.86311 12.5432 8.68504 12.9431 8.33284L11.6212 6.832ZM10.4692 5.92L9.53769 7.68984C9.55607 7.69951 9.57459 7.70889 9.59325 7.71798L10.4692 5.92ZM7.97319 5.792L7.27094 3.91934C7.26435 3.92181 7.25777 3.92432 7.2512 3.92686L7.97319 5.792ZM7.12519 6.352L8.57047 7.73445L8.57047 7.73444L7.12519 6.352ZM6.58119 7.232L8.45385 7.93425L8.45385 7.93425L6.58119 7.232ZM6.58119 9.552L4.7016 10.2355C4.70388 10.2418 4.70619 10.248 4.70853 10.2542L6.58119 9.552ZM7.12519 10.432L8.57047 9.04955L8.57047 9.04955L7.12519 10.432ZM7.95719 11.008L7.16197 12.8431C7.18618 12.8536 7.2106 12.8636 7.2352 12.8731L7.95719 11.008ZM10.3092 10.992L10.9566 12.8843C10.9713 12.8793 10.986 12.8741 11.0006 12.8687L10.3092 10.992ZM11.6052 10.24L13.1557 8.97665C12.4723 8.13794 11.2458 7.99471 10.3876 8.65338L11.6052 10.24ZM13.7172 12.832L14.8326 14.4921C15.2994 14.1784 15.6126 13.6827 15.6954 13.1264C15.7782 12.5701 15.6229 12.0047 15.2677 11.5687L13.7172 12.832ZM11.3812 13.888L11.9213 15.8137L11.9213 15.8137L11.3812 13.888ZM10.4372 12.352H8.43719C8.43719 13.3447 9.16534 14.1872 10.1476 14.3309L10.4372 12.352ZM10.4372 8.096V6.096C9.33262 6.096 8.43719 6.99143 8.43719 8.096H10.4372ZM13.7172 8.096H15.7172C15.7172 6.99143 14.8218 6.096 13.7172 6.096V8.096ZM13.7172 12.832L13.4276 14.8109C14.0024 14.895 14.5855 14.725 15.025 14.3451C15.4646 13.9652 15.7172 13.413 15.7172 12.832H13.7172ZM8.83719 12.256C8.1367 12.256 7.53194 12.1494 7.00448 11.9589L5.6459 15.7211C6.65443 16.0853 7.72434 16.256 8.83719 16.256V12.256ZM7.03608 11.9706C6.50531 11.7688 6.06653 11.4953 5.6989 11.1555L2.98348 14.0925C3.74651 14.798 4.6304 15.3352 5.61429 15.7094L7.03608 11.9706ZM5.71279 11.1684C5.36047 10.8364 5.08433 10.4442 4.88063 9.97355L1.20974 11.5624C1.62471 12.5212 2.21257 13.3662 2.96959 14.0796L5.71279 11.1684ZM4.88063 9.97355C4.69118 9.53585 4.58119 9.02076 4.58119 8.4H0.581187C0.581187 9.50724 0.780531 10.5708 1.20974 11.5624L4.88063 9.97355ZM4.58119 8.4C4.58119 7.77924 4.69118 7.26415 4.88063 6.82645L1.20974 5.23755C0.780531 6.22918 0.581187 7.29276 0.581187 8.4H4.58119ZM4.88063 6.82645C5.08068 6.36427 5.35639 5.97599 5.7149 5.64454L2.99948 2.70746C2.22732 3.42134 1.62836 4.2704 1.20974 5.23755L4.88063 6.82645ZM5.7149 5.64454C6.07222 5.31419 6.50446 5.04922 7.03648 4.85711L5.6779 1.09489C4.67391 1.45744 3.77282 1.99248 2.99948 2.70746L5.7149 5.64454ZM7.05098 4.85181C7.58297 4.65504 8.19826 4.544 8.91719 4.544V0.544C7.78011 0.544 6.68874 0.720955 5.6634 1.10019L7.05098 4.85181ZM8.91719 4.544C9.80172 4.544 10.511 4.6924 11.0839 4.93994L12.6705 1.26806C11.5154 0.768937 10.2513 0.544 8.91719 0.544V4.544ZM11.0921 4.94345C11.6882 5.19792 12.1393 5.54128 12.4872 5.96788L15.5872 3.44012C14.8044 2.48005 13.8155 1.75675 12.6623 1.26455L11.0921 4.94345ZM12.7153 3.20316L10.2993 5.33116L12.9431 8.33284L15.3591 6.20483L12.7153 3.20316ZM13.1313 5.52063C12.6308 4.94429 12.0387 4.45992 11.3451 4.12202L9.59325 7.71798C9.73167 7.78542 9.90763 7.90904 10.1111 8.14337L13.1313 5.52063ZM11.4007 4.15016C10.6816 3.77172 9.90378 3.6 9.10919 3.6V7.6C9.31726 7.6 9.44607 7.64161 9.53769 7.68984L11.4007 4.15016ZM9.10919 3.6C8.48683 3.6 7.86616 3.69613 7.27094 3.91934L8.67544 7.66466C8.76288 7.63187 8.89955 7.6 9.10919 7.6V3.6ZM7.2512 3.92686C6.65942 4.15594 6.12639 4.50277 5.6799 4.96956L8.57047 7.73444C8.59332 7.71056 8.62563 7.68406 8.69517 7.65714L7.2512 3.92686ZM5.6799 4.96955C5.24476 5.42448 4.92442 5.95404 4.70853 6.52975L8.45385 7.93425C8.49395 7.8273 8.53628 7.77019 8.57047 7.73445L5.6799 4.96955ZM4.70853 6.52975C4.48137 7.13551 4.38919 7.76947 4.38919 8.4H8.38919C8.38919 8.15586 8.425 8.01116 8.45385 7.93425L4.70853 6.52975ZM4.38919 8.4C4.38919 9.02344 4.48562 9.64153 4.7016 10.2355L8.46077 8.86851C8.42076 8.75847 8.38919 8.60856 8.38919 8.4H4.38919ZM4.70853 10.2542C4.92442 10.83 5.24476 11.3595 5.6799 11.8144L8.57047 9.04955C8.53628 9.01381 8.49395 8.9567 8.45385 8.84975L4.70853 10.2542ZM5.6799 11.8144C6.10399 12.2578 6.6041 12.6014 7.16197 12.8431L8.7524 9.17289C8.67028 9.1373 8.61572 9.09686 8.57047 9.04955L5.6799 11.8144ZM7.2352 12.8731C7.82665 13.1021 8.4439 13.2 9.06119 13.2V9.2C8.86781 9.2 8.74906 9.16992 8.67918 9.14286L7.2352 12.8731ZM9.06119 13.2C9.70901 13.2 10.3437 13.094 10.9566 12.8843L9.66181 9.09967C9.46401 9.16734 9.2667 9.2 9.06119 9.2V13.2ZM11.0006 12.8687C11.6466 12.6307 12.2548 12.2625 12.8228 11.8266L10.3876 8.65338C10.0382 8.92146 9.78247 9.05464 9.61778 9.11531L11.0006 12.8687ZM10.0547 11.5033L12.1667 14.0953L15.2677 11.5687L13.1557 8.97665L10.0547 11.5033ZM12.6018 11.1719C12.113 11.5003 11.5323 11.7684 10.8411 11.9623L11.9213 15.8137C12.9794 15.5169 13.9561 15.081 14.8326 14.4921L12.6018 11.1719ZM10.8411 11.9623C10.1238 12.1635 9.45775 12.256 8.83719 12.256V16.256C9.85929 16.256 10.8892 16.1032 11.9213 15.8137L10.8411 11.9623ZM12.4372 12.352V8.096H8.43719V12.352H12.4372ZM10.4372 10.096H13.7172V6.096H10.4372V10.096ZM11.7172 8.096V12.832H15.7172V8.096H11.7172ZM14.0068 10.8531L10.7268 10.3731L10.1476 14.3309L13.4276 14.8109L14.0068 10.8531ZM20.5101 14H18.5101C18.5101 15.1046 19.4055 16 20.5101 16V14ZM20.5101 12.448H22.5101C22.5101 12.0779 22.4074 11.715 22.2134 11.3998L20.5101 12.448ZM20.2541 12.032H18.2541C18.2541 12.4021 18.3568 12.765 18.5507 13.0802L20.2541 12.032ZM19.8541 8.112L18.5371 9.61715C18.5472 9.62601 18.5574 9.63476 18.5677 9.64341L19.8541 8.112ZM17.3901 7.968L17.9462 9.88913C17.9616 9.88466 17.977 9.88 17.9923 9.87516L17.3901 7.968ZM16.3501 8.464L14.5493 9.33417C14.8085 9.87053 15.2932 10.2634 15.8716 10.4059C16.45 10.5484 17.0618 10.4257 17.5405 10.0711L16.3501 8.464ZM15.1981 6.08L14.1381 4.384C13.2724 4.92501 12.9532 6.03108 13.3973 6.95017L15.1981 6.08ZM17.0381 5.344L17.5026 7.2893L17.5026 7.2893L17.0381 5.344ZM22.6221 6.096L21.3556 7.64394L21.3654 7.65188L22.6221 6.096ZM23.8701 14V16C24.9746 16 25.8701 15.1046 25.8701 14H23.8701ZM16.2381 13.792L15.3278 15.5729L16.2381 13.792ZM15.1501 12.816L13.4273 13.832C13.4312 13.8385 13.4351 13.8451 13.4391 13.8516L15.1501 12.816ZM15.2141 10L16.8296 11.1789V11.1789L15.2141 10ZM16.5261 9.104L15.8835 7.21001L15.873 7.21362L16.5261 9.104ZM20.6061 8.8H22.6061C22.6061 7.69543 21.7106 6.8 20.6061 6.8V8.8ZM20.6061 10.544V12.544C21.7106 12.544 22.6061 11.6486 22.6061 10.544H20.6061ZM18.5101 10.736L19.6431 12.3841C19.6499 12.3794 19.6567 12.3747 19.6634 12.3699L18.5101 10.736ZM18.4781 11.792L17.1172 13.2576C17.1531 13.291 17.1903 13.3231 17.2287 13.3537L18.4781 11.792ZM19.7901 11.792L20.858 13.483C20.8654 13.4783 20.8727 13.4736 20.88 13.4689L19.7901 11.792ZM20.2541 11.152L22.0895 10.3576C21.7602 9.59672 20.9956 9.11794 20.1674 9.15388C19.3391 9.18982 18.6189 9.73304 18.3567 10.5195L20.2541 11.152ZM20.7181 12.224L22.6741 12.6409C22.7608 12.2344 22.7186 11.811 22.5535 11.4296L20.7181 12.224ZM19.8381 13.68L18.6756 12.0525L19.8381 13.68ZM22.5101 14V12.448H18.5101V14H22.5101ZM22.2134 11.3998L21.9574 10.9838L18.5507 13.0802L18.8067 13.4962L22.2134 11.3998ZM22.2541 12.032V9.088H18.2541V12.032H22.2541ZM22.2541 9.088C22.2541 8.21607 21.9602 7.26921 21.1404 6.58059L18.5677 9.64341C18.4507 9.54514 18.3583 9.41631 18.3035 9.28245C18.2528 9.15895 18.2541 9.08067 18.2541 9.088H22.2541ZM21.1711 6.60685C20.3656 5.90205 19.3403 5.776 18.5901 5.776V9.776C18.6741 9.776 18.7358 9.78006 18.7782 9.78477C18.8209 9.78951 18.8371 9.79416 18.8323 9.79288C18.8269 9.79144 18.6961 9.75632 18.5371 9.61715L21.1711 6.60685ZM18.5901 5.776C17.9759 5.776 17.373 5.87604 16.7878 6.06083L17.9923 9.87516C18.2178 9.80396 18.4149 9.776 18.5901 9.776V5.776ZM16.8339 6.04687C16.2398 6.21885 15.6693 6.47935 15.1596 6.85689L17.5405 10.0711C17.6068 10.022 17.7296 9.95182 17.9462 9.88913L16.8339 6.04687ZM18.1508 7.59383L16.9988 5.20983L13.3973 6.95017L14.5493 9.33417L18.1508 7.59383ZM16.2581 7.776C16.5515 7.59259 16.9545 7.42019 17.5026 7.2893L16.5735 3.3987C15.6923 3.60914 14.8686 3.92741 14.1381 4.384L16.2581 7.776ZM17.5026 7.2893C18.0766 7.15223 18.6193 7.088 19.1341 7.088V3.088C18.2835 3.088 17.4288 3.19444 16.5735 3.3987L17.5026 7.2893ZM19.1341 7.088C20.3655 7.088 21.0147 7.36503 21.3556 7.64391L23.8885 4.54809C22.5867 3.48297 20.9106 3.088 19.1341 3.088V7.088ZM21.3654 7.65188C21.5708 7.81779 21.8701 8.20409 21.8701 9.296H25.8701C25.8701 7.46524 25.3373 5.71821 23.8787 4.54012L21.3654 7.65188ZM21.8701 9.296V14H25.8701V9.296H21.8701ZM23.8701 12H20.5101V16H23.8701V12ZM18.0301 12.16C17.533 12.16 17.2699 12.0733 17.1483 12.0111L15.3278 15.5729C16.1662 16.0014 17.0978 16.16 18.0301 16.16V12.16ZM17.1483 12.0111C16.9526 11.9111 16.8885 11.8257 16.8611 11.7804L13.4391 13.8516C13.9023 14.617 14.5635 15.1822 15.3278 15.5729L17.1483 12.0111ZM16.8728 11.8C16.8161 11.7039 16.7821 11.5982 16.7821 11.44H12.7821C12.7821 12.2845 12.9934 13.0961 13.4273 13.832L16.8728 11.8ZM16.7821 11.44C16.7821 11.2294 16.8293 11.1794 16.8296 11.1789L13.5985 8.82106C13.0229 9.60989 12.7821 10.5199 12.7821 11.44H16.7821ZM16.8296 11.1789C16.83 11.1785 16.8327 11.1748 16.84 11.1677C16.8475 11.1606 16.8618 11.1481 16.886 11.1316C16.935 11.0981 17.0259 11.0473 17.1791 10.9944L15.873 7.21362C15.0049 7.51353 14.185 8.01731 13.5985 8.82106L16.8296 11.1789ZM17.1687 10.998C17.4901 10.8889 18.0068 10.8 18.7821 10.8V6.8C17.744 6.8 16.7567 6.91376 15.8835 7.21004L17.1687 10.998ZM18.7821 10.8H20.6061V6.8H18.7821V10.8ZM18.6061 8.8V10.544H22.6061V8.8H18.6061ZM20.6061 8.544H19.3581V12.544H20.6061V8.544ZM19.3581 8.544C18.8292 8.544 18.043 8.61764 17.3567 9.10206L19.6634 12.3699C19.4853 12.4957 19.3397 12.5336 19.2997 12.5426C19.2581 12.5521 19.2698 12.544 19.3581 12.544V8.544ZM17.377 9.08792C16.558 9.65095 16.2541 10.5155 16.2541 11.28H20.2541C20.2541 11.3871 20.2353 11.583 20.1277 11.8116C20.0142 12.0527 19.8397 12.2489 19.6431 12.3841L17.377 9.08792ZM16.2541 11.28C16.2541 12.0423 16.5629 12.7429 17.1172 13.2576L19.839 10.3264C19.9463 10.4261 20.0598 10.5696 20.1424 10.7584C20.2251 10.9473 20.2541 11.1299 20.2541 11.28H16.2541ZM17.2287 13.3537C17.838 13.8412 18.5354 13.984 19.1181 13.984V9.984C19.1673 9.984 19.4382 9.99884 19.7275 10.2303L17.2287 13.3537ZM19.1181 13.984C19.7321 13.984 20.3279 13.8178 20.858 13.483L18.7221 10.101C18.777 10.0663 18.8443 10.0347 18.9206 10.013C18.9966 9.99125 19.0648 9.984 19.1181 9.984V13.984ZM20.88 13.4689C21.5426 13.0382 21.941 12.4158 22.1514 11.7845L18.3567 10.5195C18.3636 10.4988 18.3877 10.4356 18.4468 10.3541C18.5084 10.2692 18.5937 10.1843 18.7001 10.1151L20.88 13.4689ZM18.4186 11.9464L18.8826 13.0184L22.5535 11.4296L22.0895 10.3576L18.4186 11.9464ZM18.762 11.8071C18.7313 11.9513 18.6957 12.0194 18.6824 12.0415C18.6757 12.0525 18.6725 12.0557 18.6736 12.0545C18.6748 12.0531 18.6761 12.0521 18.6756 12.0525L21.0005 15.3075C21.9361 14.6392 22.4542 13.6728 22.6741 12.6409L18.762 11.8071ZM18.6756 12.0525C18.673 12.0544 18.5234 12.16 18.0301 12.16V16.16C19.0513 16.16 20.1071 15.9456 21.0005 15.3075L18.6756 12.0525ZM38.7928 5.504L37.8554 7.2707C37.8696 7.27826 37.884 7.28564 37.8984 7.29285L38.7928 5.504ZM40.0408 6.768L38.2653 7.68863C38.2697 7.69721 38.2743 7.70575 38.2788 7.71425L40.0408 6.768ZM40.5048 14V16C41.6094 16 42.5048 15.1046 42.5048 14H40.5048ZM36.8888 14H34.8888C34.8888 15.1046 35.7842 16 36.8888 16V14ZM36.6168 8.48L35.0342 9.70289C35.0435 9.71483 35.0528 9.72667 35.0623 9.7384L36.6168 8.48ZM35.3368 8.288L34.2768 6.592L34.2768 6.592L35.3368 8.288ZM34.9208 8.8L33.1001 7.97239C33.0941 7.98558 33.0882 7.99884 33.0825 8.01216L34.9208 8.8ZM34.7768 14V16C35.8814 16 36.7768 15.1046 36.7768 14H34.7768ZM31.1608 14H29.1608C29.1608 15.1046 30.0562 16 31.1608 16V14ZM30.9048 8.48L29.2873 9.65634C29.2961 9.66836 29.3049 9.68027 29.3139 9.69209L30.9048 8.48ZM29.6088 8.288L28.5488 6.592L28.5488 6.592L29.6088 8.288ZM29.1928 8.8L27.3721 7.97239C27.3661 7.98559 27.3602 7.99884 27.3545 8.01216L29.1928 8.8ZM29.0488 14V16C30.1534 16 31.0488 15.1046 31.0488 14H29.0488ZM25.4328 14H23.4328C23.4328 15.1046 24.3282 16 25.4328 16V14ZM25.4328 5.248V3.248C24.3282 3.248 23.4328 4.14343 23.4328 5.248H25.4328ZM28.8728 5.248H30.8728C30.8728 4.14343 29.9774 3.248 28.8728 3.248V5.248ZM28.8728 7.76L27.4586 9.17421C28.0306 9.74621 28.8908 9.91732 29.6382 9.60776C30.3855 9.2982 30.8728 8.56892 30.8728 7.76H28.8728ZM28.1688 7.056L26.38 6.16157C25.995 6.93155 26.1459 7.86149 26.7546 8.47021L28.1688 7.056ZM29.4968 5.584L30.4963 7.31637C30.5045 7.3116 30.5127 7.30678 30.5209 7.30189L29.4968 5.584ZM33.3848 5.696L32.2479 7.34146C32.2593 7.34932 32.2708 7.35705 32.2823 7.36467L33.3848 5.696ZM34.5848 7.584L34.2699 9.55906C34.9281 9.66398 35.5953 9.43416 36.0492 8.94617C36.5032 8.45817 36.6842 7.77612 36.532 7.12726L34.5848 7.584ZM33.4808 7.408L31.651 6.60072C31.4006 7.16818 31.4277 7.81968 31.7243 8.3644C32.0209 8.90913 32.5534 9.28541 33.1659 9.38306L33.4808 7.408ZM34.8728 5.712L35.9822 7.37611L35.9888 7.37168L34.8728 5.712ZM37.0168 7.088C37.3904 7.088 37.6541 7.16388 37.8554 7.2707L39.7302 3.7373C38.8862 3.28945 37.9659 3.088 37.0168 3.088V7.088ZM37.8984 7.29285C38.02 7.35365 38.1431 7.453 38.2653 7.68863L41.8163 5.84737C41.3412 4.931 40.6323 4.18769 39.6872 3.71514L37.8984 7.29285ZM38.2788 7.71425C38.3817 7.90577 38.5048 8.29527 38.5048 9.008H42.5048C42.5048 7.88606 42.3186 6.78223 41.8028 5.82175L38.2788 7.71425ZM38.5048 9.008V14H42.5048V9.008H38.5048ZM40.5048 12H36.8888V16H40.5048V12ZM38.8888 14V9.632H34.8888V14H38.8888ZM38.8888 9.632C38.8888 8.98282 38.8039 8.00308 38.1713 7.2216L35.0623 9.7384C34.9831 9.64056 34.9363 9.5531 34.9102 9.49473C34.8844 9.43701 34.8755 9.40042 34.8743 9.39559C34.8731 9.39033 34.8772 9.4062 34.8813 9.44848C34.8854 9.49026 34.8888 9.55054 34.8888 9.632H38.8888ZM38.1994 7.25711C37.6525 6.54935 36.8414 6.128 35.9128 6.128V10.128C35.7771 10.128 35.5971 10.0982 35.4104 10.0049C35.2255 9.91243 35.1034 9.79238 35.0342 9.70289L38.1994 7.25711ZM35.9128 6.128C35.3481 6.128 34.7847 6.27457 34.2768 6.592L36.3968 9.984C36.3209 10.0314 36.2351 10.0698 36.1441 10.095C36.054 10.1201 35.9743 10.128 35.9128 10.128V6.128ZM34.2768 6.592C33.6905 6.95844 33.3241 7.4796 33.1001 7.97239L36.7415 9.62761C36.7309 9.65107 36.6418 9.83089 36.3968 9.98399L34.2768 6.592ZM33.0825 8.01216C32.834 8.59209 32.7768 9.21006 32.7768 9.728H36.7768C36.7768 9.60818 36.7843 9.53772 36.7892 9.50667C36.7914 9.49233 36.7921 9.49276 36.7887 9.50533C36.7853 9.5178 36.7767 9.54677 36.7591 9.58784L33.0825 8.01216ZM32.7768 9.728V14H36.7768V9.728H32.7768ZM34.7768 12H31.1608V16H34.7768V12ZM33.1608 14V9.632H29.1608V14H33.1608ZM33.1608 9.632C33.1608 8.99785 33.0849 8.04121 32.4957 7.26791L29.3139 9.69209C29.2388 9.59341 29.1961 9.5077 29.1735 9.45411C29.162 9.42681 29.1548 9.40554 29.1505 9.39183C29.1463 9.3781 29.1446 9.37042 29.1444 9.36986C29.1444 9.36978 29.1489 9.39056 29.1532 9.43714C29.1574 9.48319 29.1608 9.54731 29.1608 9.632H33.1608ZM32.5223 7.30366C31.9471 6.51273 31.0845 6.128 30.1848 6.128V10.128C30.0831 10.128 29.912 10.1074 29.7184 10.0128C29.5203 9.91591 29.3771 9.77975 29.2873 9.65634L32.5223 7.30366ZM30.1848 6.128C29.6201 6.128 29.0567 6.27457 28.5488 6.592L30.6688 9.984C30.5929 10.0314 30.5071 10.0698 30.4161 10.095C30.326 10.1201 30.2463 10.128 30.1848 10.128V6.128ZM28.5488 6.592C27.9625 6.95844 27.5961 7.4796 27.3721 7.97239L31.0135 9.62761C31.0029 9.65107 30.9138 9.83089 30.6688 9.984L28.5488 6.592ZM27.3545 8.01216C27.106 8.59209 27.0488 9.21006 27.0488 9.728H31.0488C31.0488 9.60818 31.0563 9.53772 31.0612 9.50667C31.0634 9.49233 31.0641 9.49276 31.0607 9.50533C31.0573 9.5178 31.0487 9.54677 31.0311 9.58784L27.3545 8.01216ZM27.0488 9.728V14H31.0488V9.728H27.0488ZM29.0488 12H25.4328V16H29.0488V12ZM27.4328 14V5.248H23.4328V14H27.4328ZM25.4328 7.248H28.8728V3.248H25.4328V7.248ZM26.8728 5.248V7.76H30.8728V5.248H26.8728ZM30.287 6.34579L29.583 5.64179L26.7546 8.47021L27.4586 9.17421L30.287 6.34579ZM29.9577 7.95043C30.1408 7.5841 30.3313 7.41153 30.4963 7.31637L28.4974 3.85163C27.553 4.39647 26.8581 5.20523 26.38 6.16157L29.9577 7.95043ZM30.5209 7.30189C30.748 7.16655 31.0092 7.088 31.3528 7.088V3.088C30.331 3.088 29.355 3.34012 28.4727 3.86611L30.5209 7.30189ZM31.3528 7.088C31.7476 7.088 32.0215 7.18503 32.2479 7.34146L34.5217 4.05054C33.5748 3.39631 32.4941 3.088 31.3528 3.088V7.088ZM32.2823 7.36467C32.3575 7.41436 32.5222 7.54871 32.6377 8.04074L36.532 7.12726C36.242 5.89129 35.6068 4.76698 34.4873 4.02733L32.2823 7.36467ZM34.8997 5.60894L33.7957 5.43294L33.1659 9.38306L34.2699 9.55906L34.8997 5.60894ZM35.3106 8.21528C35.4905 7.80752 35.7179 7.55231 35.9822 7.3761L33.7634 4.0479C32.8117 4.68236 32.1111 5.55781 31.651 6.60072L35.3106 8.21528ZM35.9888 7.37168C36.2487 7.19696 36.5674 7.088 37.0168 7.088V3.088C35.8449 3.088 34.7343 3.39504 33.7568 4.05232L35.9888 7.37168ZM44.2617 13.568L43.3672 15.3569L43.3768 15.3616L44.2617 13.568ZM42.4217 11.952L40.73 13.019L40.7376 13.0309L42.4217 11.952ZM42.4057 7.264L40.7216 6.18515C40.7176 6.19141 40.7136 6.19769 40.7097 6.204L42.4057 7.264ZM44.1817 5.664L43.2772 3.88017L43.267 3.88542L44.1817 5.664ZM49.1097 5.6L48.2581 7.40967L48.2682 7.41438L49.1097 5.6ZM50.8697 7.12L49.1934 8.21091C49.1974 8.2171 49.2015 8.22326 49.2056 8.2294L50.8697 7.12ZM51.5257 10.048L53.5206 10.1905L53.5213 10.181L51.5257 10.048ZM51.4937 10.464V12.464C52.5339 12.464 53.4004 11.6667 53.4868 10.6301L51.4937 10.464ZM44.7577 10.464H42.7577C42.7577 11.5686 43.6531 12.464 44.7577 12.464V10.464ZM44.7577 8.72V6.72C43.6531 6.72 42.7577 7.61543 42.7577 8.72H44.7577ZM49.5737 8.72L50.2195 10.6129C51.1453 10.297 51.7068 9.35774 51.5467 8.39269C51.3866 7.42763 50.5519 6.72 49.5737 6.72V8.72ZM48.2137 9.184H46.2137C46.2137 9.82937 46.5251 10.4351 47.05 10.8106C47.5749 11.1861 48.2487 11.2853 48.8595 11.0769L48.2137 9.184ZM48.0217 8.32L46.2174 9.18291C46.2327 9.21493 46.2489 9.24654 46.2659 9.2777L48.0217 8.32ZM47.5257 7.76L46.4357 9.43689C46.4558 9.44995 46.4761 9.46265 46.4967 9.47499L47.5257 7.76ZM45.9737 7.76L47.0027 9.47499C47.0106 9.47022 47.0185 9.4654 47.0264 9.46053L45.9737 7.76ZM45.4777 8.32L47.2665 9.21443C47.2718 9.20397 47.2769 9.19346 47.282 9.18291L45.4777 8.32ZM45.5257 10.688L47.2707 9.71079V9.71079L45.5257 10.688ZM46.1657 11.296L45.2713 13.0849C45.2899 13.0942 45.3087 13.1032 45.3276 13.1119L46.1657 11.296ZM48.1657 11.328L47.4229 9.47105C47.4141 9.47458 47.4052 9.47818 47.3965 9.48185L48.1657 11.328ZM48.9977 10.848L50.4179 9.43977C49.718 8.73395 48.606 8.64924 47.8072 9.24089L48.9977 10.848ZM50.8857 12.752L52.3501 14.1142C53.081 13.3284 53.0615 12.1058 52.3059 11.3438L50.8857 12.752ZM49.3017 13.808L50.011 15.678C50.0167 15.6758 50.0224 15.6736 50.0281 15.6714L49.3017 13.808ZM47.0617 12.16C46.2424 12.16 45.6226 12.0092 45.1465 11.7744L43.3768 15.3616C44.5008 15.9161 45.7476 16.16 47.0617 16.16V12.16ZM45.1561 11.7791C44.6597 11.5309 44.3316 11.2257 44.1058 10.8731L40.7376 13.0309C41.3864 14.0436 42.285 14.8157 43.3673 15.3569L45.1561 11.7791ZM44.1133 10.885C43.8885 10.5287 43.7657 10.1237 43.7657 9.616H39.7657C39.7657 10.8363 40.0802 11.9887 40.7301 13.019L44.1133 10.885ZM43.7657 9.616C43.7657 9.06682 43.8932 8.65751 44.1017 8.324L40.7097 6.204C40.0648 7.23582 39.7657 8.39452 39.7657 9.616H43.7657ZM44.0898 8.34285C44.3299 7.96805 44.6517 7.67126 45.0964 7.44257L43.267 3.88542C42.2183 4.42474 41.3562 5.19461 40.7216 6.18515L44.0898 8.34285ZM45.0862 7.4478C45.5346 7.2204 46.0677 7.088 46.7257 7.088V3.088C45.5064 3.088 44.3434 3.3396 43.2772 3.8802L45.0862 7.4478ZM46.7257 7.088C47.3186 7.088 47.8195 7.20322 48.2581 7.40964L49.9613 3.79036C48.9492 3.31411 47.8608 3.088 46.7257 3.088V7.088ZM48.2682 7.41438C48.6678 7.5997 48.9635 7.85759 49.1934 8.21091L52.546 6.02909C51.9012 5.03841 51.0235 4.28297 49.9511 3.78562L48.2682 7.41438ZM49.2056 8.2294C49.3891 8.50467 49.5417 8.92805 49.5417 9.616H53.5417C53.5417 8.31995 53.2463 7.07932 52.5338 6.0106L49.2056 8.2294ZM49.5417 9.616C49.5417 9.69021 49.5385 9.78874 49.5301 9.91496L53.5213 10.181C53.5342 9.98726 53.5417 9.79779 53.5417 9.616H49.5417ZM49.5308 9.90551C49.5206 10.0482 49.5105 10.1789 49.5006 10.2979L53.4868 10.6301C53.4982 10.4931 53.5095 10.3464 53.5206 10.1905L49.5308 9.90551ZM51.4937 8.464H44.7577V12.464H51.4937V8.464ZM46.7577 10.464V8.72H42.7577V10.464H46.7577ZM44.7577 10.72H49.5737V6.72H44.7577V10.72ZM48.9279 6.82713L47.5679 7.29113L48.8595 11.0769L50.2195 10.6129L48.9279 6.82713ZM50.2137 9.184C50.2137 8.59853 50.1041 7.96108 49.7775 7.3623L46.2659 9.2777C46.1953 9.14825 46.2137 9.08681 46.2137 9.184H50.2137ZM49.826 7.45709C49.5558 6.89219 49.1356 6.39359 48.5547 6.04501L46.4967 9.47499C46.428 9.43375 46.3648 9.38115 46.3125 9.32207C46.2611 9.26407 46.2318 9.21308 46.2174 9.18291L49.826 7.45709ZM48.6157 6.08311C48.0249 5.69909 47.3747 5.552 46.7577 5.552V9.552C46.7523 9.552 46.7132 9.55133 46.6509 9.53445C46.5863 9.51698 46.511 9.48585 46.4357 9.43689L48.6157 6.08311ZM46.7577 5.552C46.1381 5.552 45.5019 5.69985 44.921 6.05947L47.0264 9.46053C46.9665 9.49761 46.9053 9.52261 46.8506 9.53712C46.7975 9.55121 46.7636 9.552 46.7577 9.552V5.552ZM44.9447 6.04501C44.3637 6.39359 43.9436 6.89219 43.6734 7.45709L47.282 9.18291C47.2675 9.21308 47.2382 9.26407 47.1869 9.32207C47.1345 9.38115 47.0714 9.43375 47.0027 9.47499L44.9447 6.04501ZM43.6888 7.42557C43.3973 8.00864 43.3017 8.62227 43.3017 9.184H47.3017C47.3017 9.12649 47.3067 9.1048 47.3054 9.11121C47.3039 9.11875 47.2951 9.15738 47.2665 9.21443L43.6888 7.42557ZM43.3017 9.184V9.728H47.3017V9.184H43.3017ZM43.3017 9.728C43.3017 10.3683 43.4309 11.0406 43.7807 11.6652L47.2707 9.71079C47.2821 9.73123 47.2904 9.74959 47.2961 9.7646C47.3018 9.7795 47.3045 9.7896 47.3054 9.79354C47.3071 9.8011 47.3017 9.782 47.3017 9.728H43.3017ZM43.7807 11.6652C44.1288 12.2869 44.641 12.7697 45.2713 13.0849L47.0601 9.50714C47.0888 9.52149 47.1309 9.54797 47.1752 9.59C47.2196 9.63221 47.2511 9.6758 47.2707 9.71079L43.7807 11.6652ZM45.3276 13.1119C45.9326 13.3912 46.5709 13.488 47.1737 13.488V9.488C46.9872 9.488 46.9534 9.45683 47.0038 9.48008L45.3276 13.1119ZM47.1737 13.488C47.7316 13.488 48.3499 13.4179 48.9349 13.1742L47.3965 9.48185C47.4394 9.46396 47.4486 9.46684 47.4072 9.47352C47.3664 9.48011 47.291 9.488 47.1737 9.488V13.488ZM48.9085 13.185C49.3681 13.0011 49.7947 12.7465 50.1881 12.4551L47.8072 9.24089C47.6246 9.37614 47.4966 9.44156 47.4229 9.47105L48.9085 13.185ZM47.5775 12.2562L49.4655 14.1602L52.3059 11.3438L50.4179 9.43977L47.5775 12.2562ZM49.4213 11.3898C49.2155 11.611 48.9464 11.7999 48.5753 11.9446L50.0281 15.6714C50.9156 15.3254 51.7025 14.8103 52.3501 14.1142L49.4213 11.3898ZM48.5924 11.938C48.2602 12.064 47.7676 12.16 47.0617 12.16V16.16C48.1051 16.16 49.1058 16.0213 50.011 15.678L48.5924 11.938Z" fill="#4B371F" mask="url(#path-1-outside-1_706_2774)"/>
</svg>
