<svg width="40" height="31" viewBox="0 0 40 31" fill="none" xmlns="http://www.w3.org/2000/svg">
  <path d="M38.4141 13.4831L38.4142 13.4836C39.2537 17.3059 39.1661 21.0196 38.3102 23.952C37.4666 26.8424 35.79 29.2109 33.2722 29.8435L33.2675 29.8447C31.3854 30.3079 29.5145 29.7043 27.8821 28.4901C26.3852 27.3766 25.0254 25.7099 23.9048 23.691H16.197C15.0929 25.7021 13.733 27.3672 12.2324 28.482C10.597 29.697 8.7158 30.3077 6.83327 29.8453C4.27155 29.2284 2.56197 26.8635 1.70195 23.9647C0.830355 21.0269 0.743083 17.3054 1.5943 13.482C2.38765 9.87965 3.88252 6.74832 5.7328 4.52381C7.55432 2.33387 9.85012 0.882733 12.2481 1.00733H12.4008H12.4013C14.2506 1.00811 16.0345 1.69168 17.4104 2.92689C17.4313 2.94568 17.4514 2.96534 17.4707 2.98583C17.7964 3.33206 18.1893 3.60833 18.6255 3.79774L18.3008 4.54551L18.6255 3.79774C19.0616 3.9871 19.5317 4.08567 20.0072 4.08741L38.4141 13.4831ZM38.4141 13.4831C37.6208 9.8803 36.1258 6.74855 34.2753 4.52381C32.4538 2.33387 30.158 0.882733 27.76 1.00733M38.4141 13.4831L27.7872 2.00733M22.6316 2.91589C22.661 2.88292 22.6925 2.85193 22.726 2.82313C24.09 1.64929 25.8307 1.00486 27.6305 1.00733M22.6316 2.91589L27.7872 2.00733M22.6316 2.91589C22.3021 3.28569 21.8978 3.58138 21.4454 3.78335M22.6316 2.91589L21.4454 3.78335M27.6305 1.00733C27.6307 1.00733 27.631 1.00733 27.6312 1.00733L27.6298 2.00733V1.00733H27.6305ZM27.6305 1.00733H27.76M27.76 1.00733C27.7499 1.00785 27.7399 1.0084 27.7299 1.00898L27.7872 2.00733M27.76 1.00733H27.7872V2.00733M21.4454 3.78335C20.9931 3.98527 20.503 4.08892 20.0076 4.08741L21.4454 3.78335Z" fill="url(#paint0_linear_706_2770)" stroke="#4B371F" stroke-width="2" stroke-linejoin="round"/>
  <path d="M37.4375 13.6981C35.9078 6.75109 31.7013 1.78251 27.7872 2.00733H27.6298C26.0696 2.00503 24.5606 2.56361 23.3783 3.58109C22.9546 4.05663 22.4347 4.43682 21.8531 4.69649C21.2714 4.95617 20.6411 5.08941 20.0041 5.0874C19.3926 5.08524 18.788 4.95852 18.2272 4.71499C17.6664 4.47147 17.1612 4.11625 16.7423 3.67102C15.5499 2.6005 14.0037 2.00801 12.4008 2.00733H12.2209C8.30681 1.78251 4.1003 6.75109 2.57066 13.6981C0.92855 21.0723 2.95307 27.8844 7.0696 28.8737C10.0839 29.6156 13.3906 27.0076 15.5951 22.691H24.503C26.7525 27.0301 30.0142 29.6156 33.0285 28.8737C37.055 27.862 39.0571 21.0723 37.4375 13.6981Z" fill="url(#paint1_linear_706_2770)" stroke="#4B371F" stroke-width="2" stroke-linejoin="round"/>
  <path d="M14.0051 13.2581H13.0051V14.2581V16.3157H12.6456V14.2581V13.2581H11.6456H9.72632V12.8H11.6456H12.6456V11.8V9.74243H13.0051V11.8V12.8H14.0051H15.9125L15.9162 13.2581H14.0051ZM25.2761 13.5582L25.2633 13.5585L25.2505 13.5592C25.1426 13.5648 25.0356 13.538 24.9432 13.4822C24.8508 13.4264 24.7774 13.3443 24.7323 13.2465C24.6872 13.1488 24.6725 13.0398 24.69 12.9336C24.7075 12.8274 24.7564 12.7289 24.8306 12.6507C24.9048 12.5724 25.0008 12.5182 25.1063 12.495C25.2118 12.4718 25.3218 12.4807 25.4221 12.5206C25.5224 12.5605 25.6084 12.6295 25.669 12.7186C25.7295 12.8077 25.7619 12.9128 25.7621 13.0204L25.7621 13.0333L25.7624 13.0461C25.7642 13.1115 25.7531 13.1767 25.7296 13.2378C25.7062 13.299 25.6709 13.355 25.6258 13.4025C25.5806 13.4501 25.5265 13.4884 25.4665 13.5151C25.4065 13.5418 25.3418 13.5565 25.2761 13.5582ZM29.9413 13.5578H29.9153L29.8894 13.5592C29.7815 13.5648 29.6745 13.538 29.5821 13.4822C29.4897 13.4264 29.4163 13.3443 29.3712 13.2465C29.3261 13.1488 29.3114 13.0398 29.3289 12.9336C29.3464 12.8274 29.3954 12.7289 29.4695 12.6507C29.5437 12.5724 29.6397 12.5182 29.7452 12.495C29.8507 12.4718 29.9607 12.4807 30.061 12.5206C30.1613 12.5605 30.2473 12.6295 30.3079 12.7186C30.3684 12.8077 30.4008 12.9128 30.401 13.0204L30.401 13.0342L30.4014 13.0479C30.4051 13.1768 30.3587 13.3021 30.2719 13.3977C30.1904 13.4872 30.0793 13.544 29.9593 13.5578H29.9413Z" fill="#4B371F" stroke="#4B371F" stroke-width="2"/>
  <defs>
    <linearGradient id="paint0_linear_706_2770" x1="20" y1="2" x2="20" y2="29" gradientUnits="userSpaceOnUse">
      <stop stop-color="#FFA4A4"/>
      <stop offset="1" stop-color="#F24747"/>
    </linearGradient>
    <linearGradient id="paint1_linear_706_2770" x1="20" y1="2" x2="20" y2="29" gradientUnits="userSpaceOnUse">
      <stop stop-color="#FFA4A4"/>
      <stop offset="1" stop-color="#F24747"/>
    </linearGradient>
  </defs>
</svg>
