<svg width="55" height="17" viewBox="0 0 55 17" fill="none" xmlns="http://www.w3.org/2000/svg">
  <mask id="path-1-outside-1_671_4563" maskUnits="userSpaceOnUse" x="0" y="0" width="55" height="17" fill="black">
    <rect fill="white" width="55" height="17"/>
    <path d="M10.1994 2.8H13.9754V14H10.1994V2.8ZM6.71144 14H2.93544V2.8H6.71144V14ZM10.4554 9.872H6.45544V6.768H10.4554V9.872ZM20.3068 14.16C19.3148 14.16 18.4348 13.968 17.6668 13.584C16.9095 13.1893 16.3121 12.6507 15.8748 11.968C15.4375 11.2853 15.2188 10.5013 15.2188 9.616C15.2188 8.73067 15.4375 7.94667 15.8748 7.264C16.3121 6.58133 16.9095 6.048 17.6668 5.664C18.4348 5.28 19.3148 5.088 20.3068 5.088C21.2988 5.088 22.1788 5.28 22.9468 5.664C23.7148 6.048 24.3121 6.58133 24.7388 7.264C25.1761 7.94667 25.3948 8.73067 25.3948 9.616C25.3948 10.5013 25.1761 11.2853 24.7388 11.968C24.3121 12.6507 23.7148 13.1893 22.9468 13.584C22.1788 13.968 21.2988 14.16 20.3068 14.16ZM20.3068 11.344C20.5735 11.344 20.8135 11.28 21.0268 11.152C21.2401 11.024 21.4108 10.832 21.5388 10.576C21.6668 10.3093 21.7308 9.98933 21.7308 9.616C21.7308 9.232 21.6668 8.91733 21.5388 8.672C21.4108 8.416 21.2401 8.224 21.0268 8.096C20.8135 7.968 20.5735 7.904 20.3068 7.904C20.0401 7.904 19.8001 7.968 19.5868 8.096C19.3735 8.224 19.2028 8.416 19.0748 8.672C18.9468 8.91733 18.8828 9.232 18.8828 9.616C18.8828 9.98933 18.9468 10.3093 19.0748 10.576C19.2028 10.832 19.3735 11.024 19.5868 11.152C19.8001 11.28 20.0401 11.344 20.3068 11.344ZM38.1106 5.088C38.7719 5.088 39.3639 5.22667 39.8866 5.504C40.4199 5.77067 40.8359 6.192 41.1346 6.768C41.4439 7.344 41.5986 8.09067 41.5986 9.008V14H37.9826V9.632C37.9826 9.088 37.8919 8.704 37.7106 8.48C37.5292 8.24533 37.2946 8.128 37.0066 8.128C36.7932 8.128 36.6012 8.18133 36.4306 8.288C36.2599 8.39467 36.1212 8.56533 36.0146 8.8C35.9186 9.024 35.8706 9.33333 35.8706 9.728V14H32.2546V9.632C32.2546 9.088 32.1692 8.704 31.9986 8.48C31.8279 8.24533 31.5879 8.128 31.2786 8.128C31.0652 8.128 30.8732 8.18133 30.7026 8.288C30.5319 8.39467 30.3932 8.56533 30.2866 8.8C30.1906 9.024 30.1426 9.33333 30.1426 9.728V14H26.5266V5.248H29.9666V7.76L29.2626 7.056C29.5932 6.39467 30.0359 5.904 30.5906 5.584C31.1452 5.25333 31.7639 5.088 32.4466 5.088C33.2146 5.088 33.8919 5.29067 34.4786 5.696C35.0759 6.09067 35.4759 6.72 35.6786 7.584L34.5746 7.408C34.8946 6.68267 35.3586 6.11733 35.9666 5.712C36.5852 5.296 37.2999 5.088 38.1106 5.088ZM48.1554 14.16C47.0888 14.16 46.1554 13.9627 45.3554 13.568C44.5661 13.1733 43.9528 12.6347 43.5154 11.952C43.0781 11.2587 42.8594 10.48 42.8594 9.616C42.8594 8.73067 43.0728 7.94667 43.4994 7.264C43.9368 6.58133 44.5288 6.048 45.2754 5.664C46.0328 5.28 46.8808 5.088 47.8194 5.088C48.6834 5.088 49.4781 5.25867 50.2034 5.6C50.9394 5.94133 51.5261 6.448 51.9634 7.12C52.4114 7.792 52.6354 8.624 52.6354 9.616C52.6354 9.744 52.6301 9.888 52.6194 10.048C52.6088 10.1973 52.5981 10.336 52.5874 10.464H45.8514V8.72H50.6674L49.3074 9.184C49.3074 8.84267 49.2434 8.55467 49.1154 8.32C48.9981 8.07467 48.8328 7.888 48.6194 7.76C48.4061 7.62133 48.1501 7.552 47.8514 7.552C47.5528 7.552 47.2914 7.62133 47.0674 7.76C46.8541 7.888 46.6888 8.07467 46.5714 8.32C46.4541 8.55467 46.3954 8.84267 46.3954 9.184V9.728C46.3954 10.1013 46.4701 10.4213 46.6194 10.688C46.7688 10.9547 46.9821 11.1573 47.2594 11.296C47.5368 11.424 47.8728 11.488 48.2674 11.488C48.6728 11.488 49.0034 11.4347 49.2594 11.328C49.5261 11.2213 49.8034 11.0613 50.0914 10.848L51.9794 12.752C51.5528 13.2107 51.0248 13.5627 50.3954 13.808C49.7768 14.0427 49.0301 14.16 48.1554 14.16Z"/>
  </mask>
  <path d="M10.1994 2.8H13.9754V14H10.1994V2.8ZM6.71144 14H2.93544V2.8H6.71144V14ZM10.4554 9.872H6.45544V6.768H10.4554V9.872ZM20.3068 14.16C19.3148 14.16 18.4348 13.968 17.6668 13.584C16.9095 13.1893 16.3121 12.6507 15.8748 11.968C15.4375 11.2853 15.2188 10.5013 15.2188 9.616C15.2188 8.73067 15.4375 7.94667 15.8748 7.264C16.3121 6.58133 16.9095 6.048 17.6668 5.664C18.4348 5.28 19.3148 5.088 20.3068 5.088C21.2988 5.088 22.1788 5.28 22.9468 5.664C23.7148 6.048 24.3121 6.58133 24.7388 7.264C25.1761 7.94667 25.3948 8.73067 25.3948 9.616C25.3948 10.5013 25.1761 11.2853 24.7388 11.968C24.3121 12.6507 23.7148 13.1893 22.9468 13.584C22.1788 13.968 21.2988 14.16 20.3068 14.16ZM20.3068 11.344C20.5735 11.344 20.8135 11.28 21.0268 11.152C21.2401 11.024 21.4108 10.832 21.5388 10.576C21.6668 10.3093 21.7308 9.98933 21.7308 9.616C21.7308 9.232 21.6668 8.91733 21.5388 8.672C21.4108 8.416 21.2401 8.224 21.0268 8.096C20.8135 7.968 20.5735 7.904 20.3068 7.904C20.0401 7.904 19.8001 7.968 19.5868 8.096C19.3735 8.224 19.2028 8.416 19.0748 8.672C18.9468 8.91733 18.8828 9.232 18.8828 9.616C18.8828 9.98933 18.9468 10.3093 19.0748 10.576C19.2028 10.832 19.3735 11.024 19.5868 11.152C19.8001 11.28 20.0401 11.344 20.3068 11.344ZM38.1106 5.088C38.7719 5.088 39.3639 5.22667 39.8866 5.504C40.4199 5.77067 40.8359 6.192 41.1346 6.768C41.4439 7.344 41.5986 8.09067 41.5986 9.008V14H37.9826V9.632C37.9826 9.088 37.8919 8.704 37.7106 8.48C37.5292 8.24533 37.2946 8.128 37.0066 8.128C36.7932 8.128 36.6012 8.18133 36.4306 8.288C36.2599 8.39467 36.1212 8.56533 36.0146 8.8C35.9186 9.024 35.8706 9.33333 35.8706 9.728V14H32.2546V9.632C32.2546 9.088 32.1692 8.704 31.9986 8.48C31.8279 8.24533 31.5879 8.128 31.2786 8.128C31.0652 8.128 30.8732 8.18133 30.7026 8.288C30.5319 8.39467 30.3932 8.56533 30.2866 8.8C30.1906 9.024 30.1426 9.33333 30.1426 9.728V14H26.5266V5.248H29.9666V7.76L29.2626 7.056C29.5932 6.39467 30.0359 5.904 30.5906 5.584C31.1452 5.25333 31.7639 5.088 32.4466 5.088C33.2146 5.088 33.8919 5.29067 34.4786 5.696C35.0759 6.09067 35.4759 6.72 35.6786 7.584L34.5746 7.408C34.8946 6.68267 35.3586 6.11733 35.9666 5.712C36.5852 5.296 37.2999 5.088 38.1106 5.088ZM48.1554 14.16C47.0888 14.16 46.1554 13.9627 45.3554 13.568C44.5661 13.1733 43.9528 12.6347 43.5154 11.952C43.0781 11.2587 42.8594 10.48 42.8594 9.616C42.8594 8.73067 43.0728 7.94667 43.4994 7.264C43.9368 6.58133 44.5288 6.048 45.2754 5.664C46.0328 5.28 46.8808 5.088 47.8194 5.088C48.6834 5.088 49.4781 5.25867 50.2034 5.6C50.9394 5.94133 51.5261 6.448 51.9634 7.12C52.4114 7.792 52.6354 8.624 52.6354 9.616C52.6354 9.744 52.6301 9.888 52.6194 10.048C52.6088 10.1973 52.5981 10.336 52.5874 10.464H45.8514V8.72H50.6674L49.3074 9.184C49.3074 8.84267 49.2434 8.55467 49.1154 8.32C48.9981 8.07467 48.8328 7.888 48.6194 7.76C48.4061 7.62133 48.1501 7.552 47.8514 7.552C47.5528 7.552 47.2914 7.62133 47.0674 7.76C46.8541 7.888 46.6888 8.07467 46.5714 8.32C46.4541 8.55467 46.3954 8.84267 46.3954 9.184V9.728C46.3954 10.1013 46.4701 10.4213 46.6194 10.688C46.7688 10.9547 46.9821 11.1573 47.2594 11.296C47.5368 11.424 47.8728 11.488 48.2674 11.488C48.6728 11.488 49.0034 11.4347 49.2594 11.328C49.5261 11.2213 49.8034 11.0613 50.0914 10.848L51.9794 12.752C51.5528 13.2107 51.0248 13.5627 50.3954 13.808C49.7768 14.0427 49.0301 14.16 48.1554 14.16Z" fill="white"/>
  <path d="M10.1994 2.8V0.799999C9.09487 0.799999 8.19944 1.69543 8.19944 2.8H10.1994ZM13.9754 2.8H15.9754C15.9754 1.69543 15.08 0.799999 13.9754 0.799999V2.8ZM13.9754 14V16C15.08 16 15.9754 15.1046 15.9754 14H13.9754ZM10.1994 14H8.19944C8.19944 15.1046 9.09487 16 10.1994 16V14ZM6.71144 14V16C7.81601 16 8.71144 15.1046 8.71144 14H6.71144ZM2.93544 14H0.935438C0.935438 15.1046 1.83087 16 2.93544 16V14ZM2.93544 2.8V0.799999C1.83087 0.799999 0.935438 1.69543 0.935438 2.8H2.93544ZM6.71144 2.8H8.71144C8.71144 1.69543 7.81601 0.799999 6.71144 0.799999V2.8ZM10.4554 9.872V11.872C11.56 11.872 12.4554 10.9766 12.4554 9.872H10.4554ZM6.45544 9.872H4.45544C4.45544 10.9766 5.35087 11.872 6.45544 11.872V9.872ZM6.45544 6.768V4.768C5.35087 4.768 4.45544 5.66343 4.45544 6.768H6.45544ZM10.4554 6.768H12.4554C12.4554 5.66343 11.56 4.768 10.4554 4.768V6.768ZM10.1994 4.8H13.9754V0.799999H10.1994V4.8ZM11.9754 2.8V14H15.9754V2.8H11.9754ZM13.9754 12H10.1994V16H13.9754V12ZM12.1994 14V2.8H8.19944V14H12.1994ZM6.71144 12H2.93544V16H6.71144V12ZM4.93544 14V2.8H0.935438V14H4.93544ZM2.93544 4.8H6.71144V0.799999H2.93544V4.8ZM4.71144 2.8V14H8.71144V2.8H4.71144ZM10.4554 7.872H6.45544V11.872H10.4554V7.872ZM8.45544 9.872V6.768H4.45544V9.872H8.45544ZM6.45544 8.768H10.4554V4.768H6.45544V8.768ZM8.45544 6.768V9.872H12.4554V6.768H8.45544ZM17.6668 13.584L16.7425 15.3576C16.7524 15.3628 16.7624 15.3679 16.7724 15.3729L17.6668 13.584ZM15.8748 11.968L14.1907 13.0469H14.1907L15.8748 11.968ZM15.8748 7.264L14.1907 6.18515H14.1907L15.8748 7.264ZM17.6668 5.664L16.7724 3.87512L16.7624 3.8802L17.6668 5.664ZM22.9468 5.664L22.0524 7.45285V7.45285L22.9468 5.664ZM24.7388 7.264L23.0428 8.324C23.0468 8.33031 23.0507 8.33659 23.0547 8.34285L24.7388 7.264ZM24.7388 11.968L23.0547 10.8891C23.0507 10.8954 23.0468 10.9017 23.0428 10.908L24.7388 11.968ZM22.9468 13.584L23.8412 15.3729C23.8478 15.3696 23.8544 15.3662 23.861 15.3629L22.9468 13.584ZM21.0268 11.152L19.9978 9.43701L21.0268 11.152ZM21.5388 10.576L23.3277 11.4704C23.3325 11.4608 23.3372 11.4512 23.3419 11.4415L21.5388 10.576ZM21.5388 8.672L19.75 9.56643C19.7551 9.57671 19.7603 9.58694 19.7656 9.59713L21.5388 8.672ZM21.0268 8.096L19.9978 9.81099H19.9978L21.0268 8.096ZM19.5868 8.096L18.5578 6.38101V6.38101L19.5868 8.096ZM19.0748 8.672L20.848 9.59713C20.8533 9.58694 20.8585 9.57671 20.8637 9.56643L19.0748 8.672ZM19.0748 10.576L17.2718 11.4415C17.2764 11.4512 17.2811 11.4608 17.286 11.4704L19.0748 10.576ZM19.5868 11.152L18.5578 12.867L18.5578 12.867L19.5868 11.152ZM20.3068 12.16C19.577 12.16 19.0114 12.0202 18.5612 11.7951L16.7724 15.3729C17.8583 15.9158 19.0526 16.16 20.3068 16.16V12.16ZM18.5911 11.8104C18.1261 11.5681 17.7977 11.262 17.5589 10.8891L14.1907 13.0469C14.8265 14.0393 15.6928 14.8106 16.7425 15.3576L18.5911 11.8104ZM17.5589 10.8891C17.3467 10.558 17.2188 10.1555 17.2188 9.616H13.2188C13.2188 10.8472 13.5282 12.0127 14.1907 13.0469L17.5589 10.8891ZM17.2188 9.616C17.2188 9.07652 17.3467 8.67403 17.5589 8.34285L14.1907 6.18515C13.5282 7.2193 13.2188 8.38481 13.2188 9.616H17.2188ZM17.5589 8.34285C17.7946 7.97496 18.1163 7.67849 18.5713 7.4478L16.7624 3.8802C15.7027 4.41751 14.8297 5.18771 14.1907 6.18515L17.5589 8.34285ZM18.5612 7.45285C19.0114 7.2278 19.577 7.088 20.3068 7.088V3.088C19.0526 3.088 17.8583 3.3322 16.7724 3.87515L18.5612 7.45285ZM20.3068 7.088C21.0366 7.088 21.6023 7.2278 22.0524 7.45285L23.8412 3.87515C22.7554 3.3322 21.561 3.088 20.3068 3.088V7.088ZM22.0524 7.45285C22.5141 7.68369 22.8243 7.97436 23.0428 8.324L26.4348 6.204C25.8 5.18831 24.9156 4.41231 23.8412 3.87515L22.0524 7.45285ZM23.0547 8.34285C23.2669 8.67403 23.3948 9.07652 23.3948 9.616H27.3948C27.3948 8.38481 27.0854 7.2193 26.4229 6.18515L23.0547 8.34285ZM23.3948 9.616C23.3948 10.1555 23.2669 10.558 23.0547 10.8891L26.4229 13.0469C27.0854 12.0127 27.3948 10.8472 27.3948 9.616H23.3948ZM23.0428 10.908C22.8211 11.2627 22.5042 11.5628 22.0327 11.8051L23.861 15.3629C24.9254 14.8158 25.8032 14.0386 26.4348 13.028L23.0428 10.908ZM22.0524 11.7951C21.6023 12.0202 21.0366 12.16 20.3068 12.16V16.16C21.561 16.16 22.7554 15.9158 23.8412 15.3729L22.0524 11.7951ZM20.3068 13.344C20.9089 13.344 21.5092 13.1949 22.0558 12.867L19.9978 9.43701C20.0511 9.40504 20.1107 9.37975 20.1715 9.36353C20.2315 9.34754 20.2789 9.344 20.3068 9.344V13.344ZM22.0558 12.867C22.6421 12.5152 23.0557 12.0143 23.3277 11.4704L19.75 9.68157C19.7557 9.67017 19.7763 9.63248 19.82 9.58327C19.865 9.53262 19.9249 9.48077 19.9978 9.43701L22.0558 12.867ZM23.3419 11.4415C23.6289 10.8435 23.7308 10.2127 23.7308 9.616H19.7308C19.7308 9.76601 19.7047 9.77519 19.7358 9.71054L23.3419 11.4415ZM23.7308 9.616C23.7308 9.02794 23.6354 8.36679 23.312 7.74687L19.7656 9.59713C19.7305 9.52982 19.7224 9.488 19.7229 9.49062C19.7232 9.49167 19.7252 9.50212 19.7272 9.52344C19.7291 9.54475 19.7308 9.57527 19.7308 9.616H23.7308ZM23.3277 7.77757C23.0557 7.23373 22.6421 6.7328 22.0558 6.38101L19.9978 9.81099C19.9249 9.76723 19.865 9.71538 19.82 9.66473C19.7763 9.61552 19.7557 9.57782 19.75 9.56643L23.3277 7.77757ZM22.0558 6.38101C21.5092 6.05308 20.9089 5.904 20.3068 5.904V9.904C20.2789 9.904 20.2315 9.90046 20.1715 9.88447C20.1107 9.86825 20.0511 9.84296 19.9978 9.81099L22.0558 6.38101ZM20.3068 5.904C19.7047 5.904 19.1044 6.05308 18.5578 6.38101L20.6158 9.81099C20.5625 9.84296 20.503 9.86825 20.4421 9.88447C20.3822 9.90046 20.3347 9.904 20.3068 9.904V5.904ZM18.5578 6.38101C17.9715 6.7328 17.5579 7.23373 17.286 7.77757L20.8637 9.56643C20.858 9.57782 20.8374 9.61552 20.7936 9.66473C20.7486 9.71538 20.6887 9.76723 20.6158 9.81099L18.5578 6.38101ZM17.3016 7.74687C16.9782 8.36679 16.8828 9.02794 16.8828 9.616H20.8828C20.8828 9.57527 20.8845 9.54475 20.8865 9.52344C20.8884 9.50212 20.8905 9.49167 20.8907 9.49062C20.8912 9.488 20.8831 9.52982 20.848 9.59713L17.3016 7.74687ZM16.8828 9.616C16.8828 10.2127 16.9847 10.8435 17.2718 11.4415L20.8779 9.71054C20.9089 9.77519 20.8828 9.76601 20.8828 9.616H16.8828ZM17.286 11.4704C17.5579 12.0143 17.9715 12.5152 18.5578 12.867L20.6158 9.43701C20.6887 9.48077 20.7486 9.53262 20.7936 9.58327C20.8374 9.63248 20.858 9.67017 20.8637 9.68157L17.286 11.4704ZM18.5578 12.867C19.1044 13.1949 19.7047 13.344 20.3068 13.344V9.344C20.3347 9.344 20.3822 9.34754 20.4421 9.36353C20.503 9.37975 20.5625 9.40504 20.6158 9.43701L18.5578 12.867ZM39.8866 5.504L38.9491 7.2707C38.9634 7.27826 38.9777 7.28564 38.9921 7.29285L39.8866 5.504ZM41.1346 6.768L39.3591 7.68863C39.3635 7.69721 39.368 7.70575 39.3726 7.71425L41.1346 6.768ZM41.5986 14V16C42.7031 16 43.5986 15.1046 43.5986 14H41.5986ZM37.9826 14H35.9826C35.9826 15.1046 36.878 16 37.9826 16V14ZM37.7106 8.48L36.128 9.70289C36.1372 9.71483 36.1466 9.72667 36.1561 9.7384L37.7106 8.48ZM36.4306 8.288L35.3706 6.592L35.3706 6.592L36.4306 8.288ZM36.0146 8.8L34.1938 7.97239C34.1878 7.98558 34.182 7.99884 34.1763 8.01216L36.0146 8.8ZM35.8706 14V16C36.9751 16 37.8706 15.1046 37.8706 14H35.8706ZM32.2546 14H30.2546C30.2546 15.1046 31.15 16 32.2546 16V14ZM31.9986 8.48L30.3811 9.65634C30.3898 9.66836 30.3987 9.68027 30.4077 9.69209L31.9986 8.48ZM30.7026 8.288L29.6426 6.592L29.6426 6.592L30.7026 8.288ZM30.2866 8.8L28.4658 7.97239C28.4598 7.98559 28.454 7.99884 28.4483 8.01216L30.2866 8.8ZM30.1426 14V16C31.2471 16 32.1426 15.1046 32.1426 14H30.1426ZM26.5266 14H24.5266C24.5266 15.1046 25.422 16 26.5266 16V14ZM26.5266 5.248V3.248C25.422 3.248 24.5266 4.14343 24.5266 5.248H26.5266ZM29.9666 5.248H31.9666C31.9666 4.14343 31.0711 3.248 29.9666 3.248V5.248ZM29.9666 7.76L28.5523 9.17421C29.1243 9.74621 29.9846 9.91732 30.7319 9.60776C31.4793 9.2982 31.9666 8.56892 31.9666 7.76H29.9666ZM29.2626 7.056L27.4737 6.16157C27.0887 6.93155 27.2396 7.86149 27.8483 8.47021L29.2626 7.056ZM30.5906 5.584L31.59 7.31637C31.5983 7.3116 31.6065 7.30678 31.6147 7.30189L30.5906 5.584ZM34.4786 5.696L33.3417 7.34146C33.3531 7.34932 33.3645 7.35705 33.376 7.36467L34.4786 5.696ZM35.6786 7.584L35.3637 9.55906C36.0219 9.66398 36.689 9.43416 37.143 8.94617C37.5969 8.45817 37.7779 7.77612 37.6257 7.12726L35.6786 7.584ZM34.5746 7.408L32.7447 6.60072C32.4944 7.16818 32.5215 7.81968 32.8181 8.3644C33.1147 8.90913 33.6472 9.28541 34.2597 9.38306L34.5746 7.408ZM35.9666 5.712L37.076 7.37611L37.0826 7.37168L35.9666 5.712ZM38.1106 7.088C38.4841 7.088 38.7478 7.16388 38.9491 7.2707L40.824 3.7373C39.98 3.28945 39.0597 3.088 38.1106 3.088V7.088ZM38.9921 7.29285C39.1137 7.35365 39.2369 7.453 39.3591 7.68863L42.9101 5.84737C42.4349 4.931 41.7261 4.18769 40.781 3.71514L38.9921 7.29285ZM39.3726 7.71425C39.4754 7.90577 39.5986 8.29527 39.5986 9.008H43.5986C43.5986 7.88606 43.4124 6.78223 42.8966 5.82175L39.3726 7.71425ZM39.5986 9.008V14H43.5986V9.008H39.5986ZM41.5986 12H37.9826V16H41.5986V12ZM39.9826 14V9.632H35.9826V14H39.9826ZM39.9826 9.632C39.9826 8.98282 39.8977 8.00308 39.2651 7.2216L36.1561 9.7384C36.0769 9.64056 36.03 9.5531 36.0039 9.49473C35.9781 9.43701 35.9692 9.40042 35.9681 9.39559C35.9668 9.39033 35.9709 9.4062 35.975 9.44848C35.9791 9.49026 35.9826 9.55054 35.9826 9.632H39.9826ZM39.2931 7.25711C38.7462 6.54935 37.9352 6.128 37.0066 6.128V10.128C36.8709 10.128 36.6908 10.0982 36.5041 10.0049C36.3193 9.91243 36.1971 9.79238 36.128 9.70289L39.2931 7.25711ZM37.0066 6.128C36.4419 6.128 35.8785 6.27457 35.3706 6.592L37.4906 9.984C37.4146 10.0314 37.3288 10.0698 37.2379 10.095C37.1477 10.1201 37.0681 10.128 37.0066 10.128V6.128ZM35.3706 6.592C34.7843 6.95844 34.4178 7.4796 34.1938 7.97239L37.8353 9.62761C37.8246 9.65107 37.7355 9.83089 37.4906 9.98399L35.3706 6.592ZM34.1763 8.01216C33.9277 8.59209 33.8706 9.21006 33.8706 9.728H37.8706C37.8706 9.60818 37.8781 9.53772 37.8829 9.50667C37.8851 9.49233 37.8858 9.49276 37.8824 9.50533C37.8791 9.5178 37.8705 9.54677 37.8529 9.58784L34.1763 8.01216ZM33.8706 9.728V14H37.8706V9.728H33.8706ZM35.8706 12H32.2546V16H35.8706V12ZM34.2546 14V9.632H30.2546V14H34.2546ZM34.2546 9.632C34.2546 8.99785 34.1786 8.04121 33.5894 7.26791L30.4077 9.69209C30.3325 9.59341 30.2899 9.5077 30.2673 9.45411C30.2558 9.42681 30.2485 9.40554 30.2443 9.39183C30.24 9.3781 30.2383 9.37042 30.2382 9.36986C30.2382 9.36978 30.2427 9.39056 30.247 9.43714C30.2512 9.48319 30.2546 9.54731 30.2546 9.632H34.2546ZM33.616 7.30366C33.0408 6.51273 32.1783 6.128 31.2786 6.128V10.128C31.1768 10.128 31.0058 10.1074 30.8121 10.0128C30.614 9.91591 30.4708 9.77975 30.3811 9.65634L33.616 7.30366ZM31.2786 6.128C30.7139 6.128 30.1505 6.27457 29.6426 6.592L31.7626 9.984C31.6866 10.0314 31.6008 10.0698 31.5098 10.095C31.4197 10.1201 31.3401 10.128 31.2786 10.128V6.128ZM29.6426 6.592C29.0563 6.95844 28.6898 7.4796 28.4658 7.97239L32.1073 9.62761C32.0966 9.65107 32.0075 9.83089 31.7626 9.984L29.6426 6.592ZM28.4483 8.01216C28.1997 8.59209 28.1426 9.21006 28.1426 9.728H32.1426C32.1426 9.60818 32.1501 9.53772 32.1549 9.50667C32.1571 9.49233 32.1578 9.49276 32.1544 9.50533C32.1511 9.5178 32.1425 9.54677 32.1249 9.58784L28.4483 8.01216ZM28.1426 9.728V14H32.1426V9.728H28.1426ZM30.1426 12H26.5266V16H30.1426V12ZM28.5266 14V5.248H24.5266V14H28.5266ZM26.5266 7.248H29.9666V3.248H26.5266V7.248ZM27.9666 5.248V7.76H31.9666V5.248H27.9666ZM31.3808 6.34579L30.6768 5.64179L27.8483 8.47021L28.5523 9.17421L31.3808 6.34579ZM31.0514 7.95043C31.2346 7.5841 31.4251 7.41153 31.59 7.31637L29.5911 3.85163C28.6467 4.39647 27.9519 5.20523 27.4737 6.16157L31.0514 7.95043ZM31.6147 7.30189C31.8417 7.16655 32.103 7.088 32.4466 7.088V3.088C31.4248 3.088 30.4487 3.34012 29.5664 3.86611L31.6147 7.30189ZM32.4466 7.088C32.8413 7.088 33.1153 7.18503 33.3417 7.34146L35.6154 4.05054C34.6685 3.39631 33.5878 3.088 32.4466 3.088V7.088ZM33.376 7.36467C33.4513 7.41436 33.616 7.54871 33.7314 8.04074L37.6257 7.12726C37.3358 5.89129 36.7005 4.76698 35.5811 4.02733L33.376 7.36467ZM35.9934 5.60894L34.8894 5.43294L34.2597 9.38306L35.3637 9.55906L35.9934 5.60894ZM36.4044 8.21528C36.5843 7.80752 36.8117 7.55231 37.076 7.3761L34.8572 4.0479C33.9055 4.68236 33.2048 5.55781 32.7447 6.60072L36.4044 8.21528ZM37.0826 7.37168C37.3424 7.19696 37.6611 7.088 38.1106 7.088V3.088C36.9387 3.088 35.8281 3.39504 34.8506 4.05232L37.0826 7.37168ZM45.3554 13.568L44.461 15.3569L44.4706 15.3616L45.3554 13.568ZM43.5154 11.952L41.8238 13.019L41.8314 13.0309L43.5154 11.952ZM43.4994 7.264L41.8154 6.18515C41.8114 6.19141 41.8074 6.19769 41.8034 6.204L43.4994 7.264ZM45.2754 5.664L44.371 3.88017L44.3607 3.88542L45.2754 5.664ZM50.2034 5.6L49.3518 7.40967L49.362 7.41438L50.2034 5.6ZM51.9634 7.12L50.2872 8.21091C50.2912 8.2171 50.2952 8.22326 50.2993 8.2294L51.9634 7.12ZM52.6194 10.048L54.6144 10.1905L54.615 10.181L52.6194 10.048ZM52.5874 10.464V12.464C53.6276 12.464 54.4941 11.6667 54.5805 10.6301L52.5874 10.464ZM45.8514 10.464H43.8514C43.8514 11.5686 44.7469 12.464 45.8514 12.464V10.464ZM45.8514 8.72V6.72C44.7469 6.72 43.8514 7.61543 43.8514 8.72H45.8514ZM50.6674 8.72L51.3132 10.6129C52.2391 10.297 52.8006 9.35774 52.6405 8.39269C52.4804 7.42763 51.6457 6.72 50.6674 6.72V8.72ZM49.3074 9.184H47.3074C47.3074 9.82937 47.6189 10.4351 48.1437 10.8106C48.6686 11.1861 49.3424 11.2853 49.9532 11.0769L49.3074 9.184ZM49.1154 8.32L47.3112 9.18291C47.3265 9.21493 47.3426 9.24654 47.3596 9.2777L49.1154 8.32ZM48.6194 7.76L47.5295 9.43689C47.5496 9.44995 47.5699 9.46265 47.5904 9.47499L48.6194 7.76ZM47.0674 7.76L48.0964 9.47499C48.1044 9.47022 48.1123 9.4654 48.1201 9.46053L47.0674 7.76ZM46.5714 8.32L48.3603 9.21443C48.3655 9.20397 48.3707 9.19346 48.3757 9.18291L46.5714 8.32ZM46.6194 10.688L48.3644 9.71079V9.71079L46.6194 10.688ZM47.2594 11.296L46.365 13.0849C46.3836 13.0942 46.4024 13.1032 46.4213 13.1119L47.2594 11.296ZM49.2594 11.328L48.5167 9.47105C48.5078 9.47458 48.499 9.47818 48.4902 9.48185L49.2594 11.328ZM50.0914 10.848L51.5116 9.43977C50.8117 8.73395 49.6997 8.64924 48.901 9.24089L50.0914 10.848ZM51.9794 12.752L53.4438 14.1142C54.1748 13.3284 54.1553 12.1058 53.3996 11.3438L51.9794 12.752ZM50.3954 13.808L51.1047 15.678C51.1105 15.6758 51.1162 15.6736 51.1219 15.6714L50.3954 13.808ZM48.1554 12.16C47.3362 12.16 46.7163 12.0092 46.2403 11.7744L44.4706 15.3616C45.5946 15.9161 46.8414 16.16 48.1554 16.16V12.16ZM46.2499 11.7791C45.7534 11.5309 45.4254 11.2257 45.1995 10.8731L41.8314 13.0309C42.4802 14.0436 43.3788 14.8157 44.461 15.3569L46.2499 11.7791ZM45.207 10.885C44.9823 10.5287 44.8594 10.1237 44.8594 9.616H40.8594C40.8594 10.8363 41.1739 11.9887 41.8238 13.019L45.207 10.885ZM44.8594 9.616C44.8594 9.06682 44.987 8.65751 45.1954 8.324L41.8034 6.204C41.1586 7.23582 40.8594 8.39452 40.8594 9.616H44.8594ZM45.1835 8.34285C45.4236 7.96805 45.7455 7.67126 46.1901 7.44257L44.3607 3.88542C43.3121 4.42474 42.4499 5.19461 41.8154 6.18515L45.1835 8.34285ZM46.1799 7.4478C46.6284 7.2204 47.1614 7.088 47.8194 7.088V3.088C46.6001 3.088 45.4372 3.3396 44.371 3.8802L46.1799 7.4478ZM47.8194 7.088C48.4123 7.088 48.9132 7.20322 49.3518 7.40964L51.055 3.79036C50.043 3.31411 48.9546 3.088 47.8194 3.088V7.088ZM49.362 7.41438C49.7616 7.5997 50.0572 7.85759 50.2872 8.21091L53.6397 6.02909C52.995 5.03841 52.1173 4.28297 51.0449 3.78562L49.362 7.41438ZM50.2993 8.2294C50.4829 8.50467 50.6354 8.92805 50.6354 9.616H54.6354C54.6354 8.31995 54.34 7.07932 53.6275 6.0106L50.2993 8.2294ZM50.6354 9.616C50.6354 9.69021 50.6323 9.78874 50.6239 9.91496L54.615 10.181C54.6279 9.98726 54.6354 9.79779 54.6354 9.616H50.6354ZM50.6245 9.90551C50.6143 10.0482 50.6043 10.1789 50.5943 10.2979L54.5805 10.6301C54.5919 10.4931 54.6032 10.3464 54.6144 10.1905L50.6245 9.90551ZM52.5874 8.464H45.8514V12.464H52.5874V8.464ZM47.8514 10.464V8.72H43.8514V10.464H47.8514ZM45.8514 10.72H50.6674V6.72H45.8514V10.72ZM50.0216 6.82713L48.6616 7.29113L49.9532 11.0769L51.3132 10.6129L50.0216 6.82713ZM51.3074 9.184C51.3074 8.59853 51.1978 7.96108 50.8712 7.3623L47.3596 9.2777C47.289 9.14825 47.3074 9.08681 47.3074 9.184H51.3074ZM50.9197 7.45709C50.6495 6.89219 50.2294 6.39359 49.6484 6.04501L47.5904 9.47499C47.5217 9.43375 47.4586 9.38115 47.4063 9.32207C47.3549 9.26407 47.3256 9.21308 47.3112 9.18291L50.9197 7.45709ZM49.7094 6.08311C49.1186 5.69909 48.4685 5.552 47.8514 5.552V9.552C47.846 9.552 47.8069 9.55133 47.7446 9.53445C47.6801 9.51698 47.6048 9.48585 47.5295 9.43689L49.7094 6.08311ZM47.8514 5.552C47.2318 5.552 46.5957 5.69985 46.0147 6.05947L48.1201 9.46053C48.0602 9.49761 47.999 9.52261 47.9443 9.53712C47.8912 9.55121 47.8574 9.552 47.8514 9.552V5.552ZM46.0384 6.04501C45.4575 6.39359 45.0373 6.89219 44.7672 7.45709L48.3757 9.18291C48.3613 9.21308 48.332 9.26407 48.2806 9.32207C48.2283 9.38115 48.1652 9.43375 48.0964 9.47499L46.0384 6.04501ZM44.7826 7.42557C44.491 8.00864 44.3954 8.62227 44.3954 9.184H48.3954C48.3954 9.12649 48.4005 9.1048 48.3992 9.11121C48.3977 9.11875 48.3888 9.15738 48.3603 9.21443L44.7826 7.42557ZM44.3954 9.184V9.728H48.3954V9.184H44.3954ZM44.3954 9.728C44.3954 10.3683 44.5246 11.0406 44.8744 11.6652L48.3644 9.71079C48.3759 9.73123 48.3841 9.74959 48.3899 9.7646C48.3956 9.7795 48.3982 9.7896 48.3991 9.79354C48.4009 9.8011 48.3954 9.782 48.3954 9.728H44.3954ZM44.8744 11.6652C45.2226 12.2869 45.7348 12.7697 46.365 13.0849L48.1539 9.50714C48.1826 9.52149 48.2247 9.54797 48.2689 9.59C48.3134 9.63221 48.3449 9.6758 48.3644 9.71079L44.8744 11.6652ZM46.4213 13.1119C47.0264 13.3912 47.6646 13.488 48.2674 13.488V9.488C48.0809 9.488 48.0472 9.45683 48.0976 9.48008L46.4213 13.1119ZM48.2674 13.488C48.8254 13.488 49.4437 13.4179 50.0287 13.1742L48.4902 9.48185C48.5331 9.46396 48.5424 9.46684 48.501 9.47352C48.4601 9.48011 48.3848 9.488 48.2674 9.488V13.488ZM50.0022 13.185C50.4618 13.0011 50.8885 12.7465 51.2819 12.4551L48.901 9.24089C48.7184 9.37614 48.5904 9.44156 48.5167 9.47105L50.0022 13.185ZM48.6713 12.2562L50.5593 14.1602L53.3996 11.3438L51.5116 9.43977L48.6713 12.2562ZM50.5151 11.3898C50.3093 11.611 50.0401 11.7999 49.669 11.9446L51.1219 15.6714C52.0094 15.3254 52.7963 14.8103 53.4438 14.1142L50.5151 11.3898ZM49.6861 11.938C49.354 12.064 48.8614 12.16 48.1554 12.16V16.16C49.1988 16.16 50.1995 16.0213 51.1047 15.678L49.6861 11.938Z" fill="#4B371F" mask="url(#path-1-outside-1_671_4563)"/>
</svg>
