<svg width="39" height="39" viewBox="0 0 39 39" fill="none" xmlns="http://www.w3.org/2000/svg">
  <circle cx="19.5" cy="19.5" r="18.5" fill="#FFF549" stroke="#4B371F" stroke-width="2"/>
  <circle cx="19.5" cy="19.5" r="17.5" fill="#FFF549" stroke="#4B371F" stroke-width="2"/>
  <circle cx="19.5002" cy="19.5" r="11.9348" fill="#FFCF23" stroke="#AF7026" stroke-width="2"/>
  <path d="M23.6814 12.4714C22.9389 12.2047 22.1325 12.1711 21.3704 12.3751L21.3698 12.3753C20.7288 12.5467 20.1426 12.88 19.6676 13.3434C19.3564 13.6469 19.0998 13.9995 18.9071 14.3857C18.5039 14.4554 18.1078 14.5616 17.7238 14.7028C17.4499 14.5218 17.1533 14.3759 16.841 14.2692C16.3123 14.0886 15.7508 14.0245 15.195 14.0812C14.6392 14.138 14.1022 14.3144 13.621 14.5982C13.1398 14.882 12.7256 15.2665 12.407 15.7254C12.0883 16.1844 11.8727 16.7068 11.775 17.2568C11.6772 17.8069 11.6996 18.3716 11.8406 18.9122C11.9816 19.4528 12.2378 19.9565 12.5918 20.3888C12.8009 20.6442 13.0412 20.871 13.3064 21.0644C13.3105 21.9337 13.4825 22.796 13.8152 23.6034C14.229 24.6077 14.8791 25.4972 15.7103 26.1964C16.5414 26.8957 17.5291 27.3839 18.5894 27.6197C19.6497 27.8554 20.7512 27.8317 21.8004 27.5506C22.8495 27.2695 23.8153 26.7392 24.6157 26.0049C25.416 25.2706 26.0273 24.3539 26.3975 23.3328C26.7677 22.3117 26.8859 21.2163 26.7422 20.1396C26.6266 19.2741 26.3444 18.4413 25.9133 17.6865C26.1381 17.1793 26.2525 16.6271 26.2452 16.0671C26.2351 15.2779 25.9841 14.5107 25.5259 13.8681C25.0677 13.2255 24.4242 12.7382 23.6814 12.4714Z" fill="#FFF549" stroke="#AF7026" stroke-width="2"/>
  <path d="M10.3691 16.4565C10.6228 15.442 11.8909 12.9565 14.9344 11.1304" stroke="white" stroke-width="2" stroke-linecap="round" stroke-linejoin="round"/>
</svg>
