<svg width="37" height="31" viewBox="0 0 37 31" fill="none" xmlns="http://www.w3.org/2000/svg">
  <mask id="path-1-outside-1_0_1" maskUnits="userSpaceOnUse" x="0" y="0" width="37" height="31" fill="black">
    <rect fill="white" width="37" height="31"/>
    <path fill-rule="evenodd" clip-rule="evenodd" d="M33.5695 12.3812V28.2966C33.5695 28.4778 33.4976 28.6515 33.3695 28.7795C33.2414 28.9076 33.0677 28.9796 32.8866 28.9796H4.15094C3.96982 28.9796 3.79612 28.9076 3.66804 28.7795C3.53997 28.6515 3.46802 28.4778 3.46802 28.2966V12.4138C2.51771 11.7307 2 10.4672 2 8.72834C1.99997 8.67404 2.00644 8.61993 2.01926 8.56717L3.48742 2.52176C3.52355 2.37298 3.60862 2.24067 3.72897 2.14605C3.84915 2.05157 3.99754 2.00015 4.15039 2H4.15102H4.15109H9.99039H9.99128H32.7327C32.8921 2.00002 33.0465 2.05584 33.1692 2.15777C33.2918 2.2597 33.3748 2.40133 33.404 2.55809L34.528 8.6035C34.5299 8.61471 34.5317 8.62596 34.5333 8.63723C34.5459 8.73018 34.8239 10.9211 33.5695 12.3812Z"/>
  </mask>
  <path fill-rule="evenodd" clip-rule="evenodd" d="M33.5695 12.3812V28.2966C33.5695 28.4778 33.4976 28.6515 33.3695 28.7795C33.2414 28.9076 33.0677 28.9796 32.8866 28.9796H4.15094C3.96982 28.9796 3.79612 28.9076 3.66804 28.7795C3.53997 28.6515 3.46802 28.4778 3.46802 28.2966V12.4138C2.51771 11.7307 2 10.4672 2 8.72834C1.99997 8.67404 2.00644 8.61993 2.01926 8.56717L3.48742 2.52176C3.52355 2.37298 3.60862 2.24067 3.72897 2.14605C3.84915 2.05157 3.99754 2.00015 4.15039 2H4.15102H4.15109H9.99039H9.99128H32.7327C32.8921 2.00002 33.0465 2.05584 33.1692 2.15777C33.2918 2.2597 33.3748 2.40133 33.404 2.55809L34.528 8.6035C34.5299 8.61471 34.5317 8.62596 34.5333 8.63723C34.5459 8.73018 34.8239 10.9211 33.5695 12.3812Z" fill="#FFF549"/>
  <path d="M33.5695 12.3812L32.0525 11.0779C31.7409 11.4406 31.5695 11.903 31.5695 12.3812H33.5695ZM3.66804 28.7795L5.08226 27.3653L5.08225 27.3653L3.66804 28.7795ZM3.46802 12.4138H5.46802C5.46802 11.77 5.15813 11.1656 4.63541 10.7899L3.46802 12.4138ZM2 8.72834H4L4 8.72729L2 8.72834ZM2.01926 8.56717L3.9627 9.03943L3.96277 9.03916L2.01926 8.56717ZM3.48742 2.52176L1.54391 2.04976L1.54391 2.04977L3.48742 2.52176ZM3.72897 2.14605L4.96506 3.71834L3.72897 2.14605ZM4.15039 2V-9.53674e-07L4.14845 9.53674e-07L4.15039 2ZM32.7327 2L32.733 0H32.7327V2ZM33.1692 2.15777L31.8906 3.69572L31.8906 3.69573L33.1692 2.15777ZM33.404 2.55809L35.3703 2.19251L35.3703 2.19248L33.404 2.55809ZM34.528 8.6035L36.4973 8.2544C36.4963 8.2489 36.4953 8.24341 36.4943 8.23792L34.528 8.6035ZM34.5333 8.63723L36.5151 8.36776L36.5143 8.3625L34.5333 8.63723ZM35.5695 28.2966V12.3812H31.5695V28.2966H35.5695ZM34.7837 30.1938C35.2869 29.6906 35.5695 29.0082 35.5695 28.2966H31.5695C31.5695 27.9473 31.7083 27.6123 31.9553 27.3653L34.7837 30.1938ZM32.8866 30.9796C33.5982 30.9796 34.2806 30.6969 34.7837 30.1938L31.9553 27.3653C32.2023 27.1183 32.5373 26.9796 32.8866 26.9796V30.9796ZM4.15094 30.9796H32.8866V26.9796H4.15094V30.9796ZM2.25382 30.1937C2.75698 30.6969 3.4394 30.9796 4.15094 30.9796V26.9796C4.50024 26.9796 4.83525 27.1183 5.08226 27.3653L2.25382 30.1937ZM1.46802 28.2966C1.46802 29.0082 1.75068 29.6906 2.25383 30.1938L5.08225 27.3653C5.32926 27.6123 5.46802 27.9473 5.46802 28.2966H1.46802ZM1.46802 12.4138V28.2966H5.46802V12.4138H1.46802ZM1.19209e-07 8.72834C1.19209e-07 10.8103 0.623742 12.8323 2.30063 14.0378L4.63541 10.7899C4.41167 10.629 4 10.1241 4 8.72834H1.19209e-07ZM0.0758171 8.0949C0.0253406 8.30262 -0.000112057 8.51563 3.57628e-07 8.72939L4 8.72729C4.00006 8.83245 3.98753 8.93724 3.9627 9.03943L0.0758171 8.0949ZM1.54391 2.04977L0.0757504 8.09518L3.96277 9.03916L5.43092 2.99375L1.54391 2.04977ZM2.49289 0.573759C2.02006 0.94548 1.68585 1.46529 1.54391 2.04976L5.43092 2.99376C5.36124 3.28067 5.19717 3.53586 4.96506 3.71834L2.49289 0.573759ZM4.14845 9.53674e-07C3.54796 0.000583529 2.965 0.202601 2.49289 0.573759L4.96506 3.71834C4.7333 3.90054 4.44712 3.99971 4.15233 4L4.14845 9.53674e-07ZM4.15102 0H4.15039V4H4.15102V0ZM4.15109 0H4.15102V4H4.15109V0ZM9.99039 0H4.15109V4H9.99039V0ZM9.99128 0H9.99039V4H9.99128V0ZM32.7327 0H9.99128V4H32.7327V0ZM34.4477 0.619821C33.966 0.219364 33.3594 9.40561e-05 32.733 0L32.7324 4C32.4249 3.99995 32.1271 3.89231 31.8906 3.69572L34.4477 0.619821ZM35.3703 2.19248C35.2558 1.57665 34.9294 1.02027 34.4477 0.619811L31.8906 3.69573C31.6541 3.49913 31.4939 3.226 31.4377 2.9237L35.3703 2.19248ZM36.4943 8.23792L35.3703 2.19251L31.4377 2.92366L32.5617 8.96907L36.4943 8.23792ZM36.5143 8.3625C36.5093 8.32663 36.5037 8.29059 36.4973 8.2544L32.5587 8.9526C32.5562 8.93883 32.5541 8.92528 32.5522 8.91197L36.5143 8.3625ZM35.0866 13.6845C36.0768 12.5318 36.404 11.1721 36.5133 10.2261C36.6249 9.26019 36.5343 8.50944 36.515 8.36776L32.5515 8.9067C32.5449 8.85797 32.5996 9.24915 32.5398 9.76697C32.4776 10.3047 32.3166 10.7704 32.0525 11.0779L35.0866 13.6845Z" fill="#4B371F" mask="url(#path-1-outside-1_0_1)"/>
  <path d="M32.8863 7.64941V28.2966H4.15063V7.64941" fill="#F0F0FF"/>
  <path d="M32.2037 7.64941V28.2966C32.2037 28.1155 32.2756 27.9418 32.4037 27.8137C32.5318 27.6857 32.7055 27.6137 32.8866 27.6137H4.15094C4.33207 27.6137 4.50577 27.6857 4.63385 27.8137C4.76192 27.9418 4.83387 28.1155 4.83387 28.2966V7.64941H3.46802V28.2966C3.46802 28.4778 3.53997 28.6515 3.66804 28.7795C3.79612 28.9076 3.96982 28.9796 4.15094 28.9796H32.8866C33.0677 28.9796 33.2414 28.9076 33.3695 28.7795C33.4976 28.6515 33.5695 28.4778 33.5695 28.2966V7.64941H32.2037Z" fill="#4B371F"/>
  <path opacity="0.15" d="M33.0412 10.9767L32.9303 10.3792C32.6678 11.435 31.9343 12.598 29.9703 12.598C26.0529 12.598 25.858 9.59353 25.8687 8.85925C25.818 9.59353 25.4018 12.598 21.9955 12.598C18.0535 12.598 17.8864 9.49778 17.8962 8.82715C17.8589 9.49792 17.5125 12.598 14.3052 12.598C10.4583 12.598 10.2077 9.62931 10.2062 8.87263C10.1108 10.6269 8.5872 12.0216 6.72186 12.0216C5.3657 12.0216 4.64548 11.2842 4.33748 10.2078L4.15063 10.9769C4.15063 12.8123 4.79491 14.3001 6.72172 14.3001C8.58707 14.3001 10.1107 12.9055 10.206 11.1512C10.2075 11.908 10.4582 14.8767 14.3051 14.8767C17.5122 14.8767 17.8588 11.7764 17.8961 11.1057C17.8862 11.7764 18.0533 14.8767 21.9954 14.8767C25.4018 14.8767 25.818 11.872 25.8687 11.1378C25.8582 11.872 26.0532 14.8767 29.9703 14.8767C30.3255 14.8767 30.6389 14.8375 30.918 14.7689V26.0887H4.83329V27.7502H32.2031V14.0483C33.2988 12.9035 33.0412 10.9767 33.0412 10.9767Z" fill="#4B371F"/>
  <path d="M9.22227 8.729C9.22227 10.7095 7.53653 12.3148 5.45743 12.3148C3.37833 12.3148 2.68311 10.7094 2.68311 8.729L4.15126 2.68359H9.99057L9.22227 8.729Z" fill="#FFF5A9"/>
  <path d="M8.53917 8.72834C8.53917 10.329 7.15665 11.6312 5.45725 11.6312C4.94 11.6312 3.36585 11.6312 3.36585 8.72834C3.36585 8.78243 3.35944 8.83665 3.3466 8.88951L4.81475 2.8441C4.77862 2.99287 4.69355 3.12519 4.5732 3.21981C4.45284 3.31443 4.30418 3.36586 4.15108 3.36585H9.99039C9.89341 3.3659 9.79754 3.34528 9.70916 3.30538C9.62078 3.26547 9.54191 3.20719 9.47782 3.13442C9.41372 3.06165 9.36586 2.97606 9.33743 2.88335C9.309 2.79064 9.30064 2.69293 9.31292 2.59674L8.54463 8.64215C8.54094 8.6707 8.53917 8.69952 8.53917 8.72834ZM9.99039 2H4.15108C3.99799 1.99999 3.84933 2.05143 3.72897 2.14605C3.60862 2.24067 3.52355 2.37298 3.48742 2.52176L2.01926 8.56717C2.00644 8.61993 1.99997 8.67404 2 8.72834C2 11.4412 3.26014 12.997 5.45725 12.997C7.90978 12.997 9.90502 11.0821 9.90502 8.72834C9.90502 8.75716 9.90325 8.78584 9.89956 8.81439L10.6679 2.76898C10.6801 2.67279 10.6718 2.57509 10.6433 2.48239C10.6149 2.38968 10.5671 2.3041 10.503 2.23134C10.4389 2.15858 10.36 2.10032 10.2716 2.06043C10.1832 2.02054 10.0874 1.99994 9.99039 2Z" fill="#4B371F"/>
  <path d="M9.99086 2.68359L9.22257 8.729C9.22257 8.729 8.88343 12.9369 13.6404 12.9369C17.5204 12.9369 17.5205 8.729 17.5205 8.729V2.68359" fill="#FF8A8A"/>
  <path d="M9.31307 2.59595L8.54477 8.64136C8.5434 8.65175 8.54231 8.66218 8.5415 8.67263C8.5348 8.75513 8.39398 10.709 9.72638 12.153C10.6235 13.1256 11.9403 13.6184 13.6401 13.6184C17.2492 13.6184 18.203 10.4192 18.2031 8.72754V2.682H16.8373V8.72741C16.8351 9.08635 16.7267 12.2524 13.6401 12.2524C12.3372 12.2524 11.3582 11.9073 10.7301 11.2266C9.81379 10.2335 9.90175 8.79652 9.90284 8.78231C9.90201 8.79276 9.90092 8.80319 9.89957 8.81359L10.6679 2.76818L9.31307 2.59595Z" fill="#4B371F"/>
  <path d="M17.5204 2.6866V8.729C17.5204 8.729 17.1697 12.9369 21.9384 12.9369C26.1258 12.9369 26.1257 8.729 26.1257 8.729V2.68359" fill="#FFF5A9"/>
  <path d="M16.8371 2.6866V8.72901C16.8371 8.71002 16.8379 8.69117 16.8394 8.67218C16.8326 8.75455 16.6866 10.7062 18.0156 12.1507C18.9125 13.1256 20.2322 13.6199 21.938 13.6199C23.3572 13.6199 24.5089 13.1876 25.3614 12.335C26.7917 10.9045 26.8081 8.81724 26.8081 8.72901V2.68359H25.4423V8.72901C25.4396 9.08768 25.3199 12.254 21.938 12.254C20.6298 12.254 19.6483 11.9082 19.0209 11.2259C18.1078 10.2336 18.1996 8.79989 18.2008 8.78569C18.2023 8.76679 18.2031 8.74783 18.2031 8.72887V2.6866H16.8371Z" fill="#4B371F"/>
  <path d="M4.15039 2.68359H32.7327L33.8566 8.729C33.8566 8.729 34.4229 12.9369 30.5427 12.9369C25.7278 12.9369 26.1241 8.729 26.1241 8.729L26.1244 3.36953" fill="#FF8A8A"/>
  <path d="M4.15039 3.36585H32.7327C32.5732 3.36584 32.4188 3.31003 32.2961 3.2081C32.1735 3.10616 32.0904 2.96454 32.0612 2.80777L33.1852 8.85318C33.1831 8.84197 33.1814 8.83072 33.1799 8.81944C33.1818 8.83433 33.3873 10.521 32.5178 11.5091C32.0773 12.0099 31.4313 12.2533 30.5427 12.2533C29.214 12.2533 28.2232 11.9044 27.5968 11.2164C26.6967 10.2276 26.803 8.80646 26.8042 8.7924C26.8062 8.77109 26.8071 8.74964 26.8071 8.72834L26.8073 3.36886H25.4415L25.4413 8.72834C25.4413 8.70689 25.4424 8.68559 25.4442 8.66428C25.4364 8.74637 25.2702 10.6894 26.5865 12.1357C27.4825 13.1201 28.8135 13.6192 30.5424 13.6192C31.8327 13.6192 32.8445 13.2103 33.55 12.4037C34.8268 10.9438 34.546 8.73066 34.5333 8.63723C34.5317 8.62596 34.5299 8.61471 34.528 8.6035L33.404 2.55809C33.3748 2.40133 33.2918 2.2597 33.1692 2.15777C33.0465 2.05584 32.8921 2.00002 32.7327 2H4.15039V3.36585Z" fill="#4B371F"/>
  <path d="M7.25757 17.6787H17.8491V24.4979H7.25757V17.6787Z" fill="#9FDAFF"/>
  <path d="M7.25861 18.361H17.8501C17.669 18.361 17.4953 18.289 17.3672 18.1609C17.2392 18.0329 17.1672 17.8592 17.1672 17.678V24.4972C17.1672 24.3161 17.2392 24.1424 17.3672 24.0143C17.4953 23.8862 17.669 23.8143 17.8501 23.8143H7.25861C7.43973 23.8143 7.61344 23.8862 7.74151 24.0143C7.86959 24.1424 7.94154 24.3161 7.94154 24.4972V17.678C7.94154 17.8592 7.86959 18.0329 7.74151 18.1609C7.61344 18.289 7.43973 18.361 7.25861 18.361ZM7.25861 25.1801H17.8501C18.0313 25.1801 18.205 25.1082 18.333 24.9801C18.4611 24.852 18.5331 24.6783 18.5331 24.4972V17.678C18.5331 17.4969 18.4611 17.3232 18.333 17.1951C18.205 17.0671 18.0313 16.9951 17.8501 16.9951H7.25861C7.07749 16.9951 6.90378 17.0671 6.77571 17.1951C6.64763 17.3232 6.57568 17.4969 6.57568 17.678V24.4972C6.57568 24.8742 6.8815 25.1801 7.25861 25.1801Z" fill="#4B371F"/>
  <path d="M21.4041 17.6787H29.5992V28.2966H21.4041V17.6787Z" fill="#9FDAFF"/>
  <path opacity="0.22" d="M7.94116 23.8146L13.3943 18.3613H17.1668L11.7137 23.8146H7.94116Z" fill="#CFEEFF"/>
  <path opacity="0.44" d="M14.051 23.8146L17.167 20.6984V18.3613H15.0071L9.55396 23.8146H14.051Z" fill="white"/>
  <path opacity="0.15" d="M7.94116 18.3613V23.8146H9.15664V19.3045H17.1668V18.3613H7.94116Z" fill="#4B371F"/>
  <path opacity="0.22" d="M21.321 27.6331L27.7773 18.3608L29.3531 18.1152L24.6054 27.6331H21.321Z" fill="#CFEEFF"/>
  <path opacity="0.27" d="M26.6402 27.6331L29.3533 24.2665V18.1152L28.9158 19.8275L22.7251 27.6331H26.6402Z" fill="white"/>
  <path d="M29.5985 27.613H21.4034C21.7808 27.613 22.0863 27.9187 22.0863 28.2959V17.678C22.0863 18.0553 21.7808 18.361 21.4034 18.361H29.5985C29.4174 18.361 29.2437 18.289 29.1156 18.1609C28.9875 18.0329 28.9156 17.8592 28.9156 17.678V28.2959C28.9156 28.1148 28.9875 27.9411 29.1156 27.813C29.2437 27.685 29.4174 27.613 29.5985 27.613ZM29.5985 16.9951H21.4034C21.2223 16.9951 21.0486 17.0671 20.9205 17.1951C20.7924 17.3232 20.7205 17.4969 20.7205 17.678V28.2959C20.7205 28.4771 20.7924 28.6508 20.9205 28.7788C21.0486 28.9069 21.2223 28.9789 21.4034 28.9789H29.5985C29.9759 28.9789 30.2814 28.6732 30.2814 28.2959V17.678C30.2814 17.4969 30.2095 17.3232 30.0814 17.1951C29.9533 17.0671 29.7796 16.9951 29.5985 16.9951Z" fill="#4B371F"/>
  <path opacity="0.2" d="M21.9385 12.9371C25.2819 12.9371 25.9553 10.256 26.0912 9.17456H17.5229C17.5868 10.2541 18.1284 12.9371 21.9385 12.9371ZM33.8853 9.17456H26.1233C26.1774 10.2559 26.6997 12.9371 30.5437 12.9371C33.6422 12.9371 33.9051 10.2558 33.8853 9.17456ZM13.6403 12.9371C16.7403 12.9371 17.3628 10.2541 17.4882 9.17456H9.22603C9.2931 10.2558 9.84176 12.9371 13.6403 12.9371ZM5.45764 12.3149C7.3783 12.3149 8.96201 10.9447 9.19243 9.17456H2.69629C2.79791 10.9446 3.53697 12.3149 5.45764 12.3149Z" fill="#4B371F"/>
</svg>
