<svg width="48" height="20" viewBox="0 0 48 20" fill="none" xmlns="http://www.w3.org/2000/svg">
  <mask id="path-1-outside-1_706_2767" maskUnits="userSpaceOnUse" x="0" y="-0.0205078" width="48" height="20" fill="black">
    <rect fill="white" y="-0.0205078" width="48" height="20"/>
    <path d="M7.11144 14.2355C6.17277 14.2355 5.2661 14.1288 4.39144 13.9155C3.51677 13.7022 2.79677 13.4248 2.23144 13.0835L3.44744 10.3315C3.98077 10.6408 4.57277 10.8915 5.22344 11.0835C5.88477 11.2648 6.52477 11.3555 7.14344 11.3555C7.5061 11.3555 7.78877 11.3342 7.99144 11.2915C8.20477 11.2382 8.35944 11.1688 8.45544 11.0835C8.55144 10.9875 8.59944 10.8755 8.59944 10.7475C8.59944 10.5448 8.48744 10.3848 8.26344 10.2675C8.03944 10.1502 7.74077 10.0542 7.36744 9.97949C7.00477 9.89416 6.60477 9.80883 6.16744 9.72349C5.7301 9.62749 5.28744 9.50483 4.83944 9.35549C4.4021 9.20616 3.99677 9.00883 3.62344 8.76349C3.26077 8.51816 2.96744 8.19816 2.74344 7.80349C2.51944 7.39816 2.40744 6.89683 2.40744 6.29949C2.40744 5.60616 2.59944 4.97683 2.98344 4.41149C3.3781 3.83549 3.95944 3.37683 4.72744 3.03549C5.5061 2.69416 6.47144 2.52349 7.62344 2.52349C8.38077 2.52349 9.12744 2.60349 9.86344 2.76349C10.5994 2.92349 11.2608 3.16882 11.8474 3.49949L10.7114 6.23549C10.1568 5.95816 9.6181 5.75016 9.09544 5.61149C8.58344 5.47283 8.0821 5.40349 7.59144 5.40349C7.22877 5.40349 6.94077 5.43549 6.72744 5.49949C6.5141 5.56349 6.35944 5.64883 6.26344 5.75549C6.1781 5.86216 6.13544 5.97949 6.13544 6.10749C6.13544 6.29949 6.24744 6.45416 6.47144 6.57149C6.69544 6.67816 6.98877 6.76883 7.35144 6.84349C7.72477 6.91816 8.1301 6.99816 8.56744 7.08349C9.01544 7.16883 9.4581 7.28616 9.89544 7.43549C10.3328 7.58483 10.7328 7.78216 11.0954 8.02749C11.4688 8.27283 11.7674 8.59283 11.9914 8.98749C12.2154 9.38216 12.3274 9.87283 12.3274 10.4595C12.3274 11.1422 12.1301 11.7715 11.7354 12.3475C11.3514 12.9128 10.7754 13.3715 10.0074 13.7235C9.23944 14.0648 8.2741 14.2355 7.11144 14.2355ZM19.4191 5.06749C20.0911 5.06749 20.6991 5.20616 21.2431 5.48349C21.7871 5.75016 22.2137 6.17149 22.5231 6.74749C22.8431 7.32349 23.0031 8.07016 23.0031 8.98749V13.9795H19.3871V9.61149C19.3871 9.06749 19.2911 8.68349 19.0991 8.45949C18.9071 8.22483 18.6457 8.10749 18.3151 8.10749C18.0697 8.10749 17.8404 8.16616 17.6271 8.28349C17.4244 8.39016 17.2591 8.57149 17.1311 8.82749C17.0137 9.08349 16.9551 9.43016 16.9551 9.86749V13.9795H13.3391V2.10749H16.9551V7.78749L16.0911 7.05149C16.4324 6.39016 16.8911 5.89416 17.4671 5.56349C18.0537 5.23282 18.7044 5.06749 19.4191 5.06749ZM29.3537 14.1395C28.3617 14.1395 27.4817 13.9475 26.7137 13.5635C25.9564 13.1688 25.359 12.6302 24.9217 11.9475C24.4844 11.2648 24.2657 10.4808 24.2657 9.59549C24.2657 8.71016 24.4844 7.92616 24.9217 7.24349C25.359 6.56083 25.9564 6.02749 26.7137 5.64349C27.4817 5.25949 28.3617 5.06749 29.3537 5.06749C30.3457 5.06749 31.2257 5.25949 31.9937 5.64349C32.7617 6.02749 33.359 6.56083 33.7857 7.24349C34.223 7.92616 34.4417 8.71016 34.4417 9.59549C34.4417 10.4808 34.223 11.2648 33.7857 11.9475C33.359 12.6302 32.7617 13.1688 31.9937 13.5635C31.2257 13.9475 30.3457 14.1395 29.3537 14.1395ZM29.3537 11.3235C29.6204 11.3235 29.8604 11.2595 30.0737 11.1315C30.287 11.0035 30.4577 10.8115 30.5857 10.5555C30.7137 10.2888 30.7777 9.96883 30.7777 9.59549C30.7777 9.21149 30.7137 8.89683 30.5857 8.65149C30.4577 8.39549 30.287 8.20349 30.0737 8.07549C29.8604 7.94749 29.6204 7.88349 29.3537 7.88349C29.087 7.88349 28.847 7.94749 28.6337 8.07549C28.4204 8.20349 28.2497 8.39549 28.1217 8.65149C27.9937 8.89683 27.9297 9.21149 27.9297 9.59549C27.9297 9.96883 27.9937 10.2888 28.1217 10.5555C28.2497 10.8115 28.4204 11.0035 28.6337 11.1315C28.847 11.2595 29.087 11.3235 29.3537 11.3235ZM41.4134 14.1395C40.6561 14.1395 40.0268 13.9795 39.5254 13.6595C39.0348 13.3288 38.6721 12.8328 38.4374 12.1715C38.2028 11.4995 38.0854 10.6462 38.0854 9.61149C38.0854 8.55549 38.1921 7.69683 38.4054 7.03549C38.6294 6.36349 38.9868 5.86749 39.4774 5.54749C39.9681 5.22749 40.6134 5.06749 41.4134 5.06749C42.1814 5.06749 42.8854 5.25416 43.5254 5.62749C44.1654 5.99016 44.6774 6.51283 45.0614 7.19549C45.4454 7.86749 45.6374 8.67283 45.6374 9.61149C45.6374 10.5502 45.4454 11.3608 45.0614 12.0435C44.6774 12.7155 44.1654 13.2328 43.5254 13.5955C42.8854 13.9582 42.1814 14.1395 41.4134 14.1395ZM35.5734 17.0835V5.22749H39.0134V6.41149L39.0294 9.61149L39.1894 12.8115V17.0835H35.5734ZM40.5494 11.3235C40.8161 11.3235 41.0561 11.2595 41.2694 11.1315C41.4828 11.0035 41.6534 10.8115 41.7814 10.5555C41.9094 10.2995 41.9734 9.98483 41.9734 9.61149C41.9734 9.22749 41.9094 8.90749 41.7814 8.65149C41.6534 8.39549 41.4828 8.20349 41.2694 8.07549C41.0561 7.94749 40.8161 7.88349 40.5494 7.88349C40.2828 7.88349 40.0428 7.94749 39.8294 8.07549C39.6161 8.20349 39.4454 8.39549 39.3174 8.65149C39.1894 8.90749 39.1254 9.22749 39.1254 9.61149C39.1254 9.98483 39.1894 10.2995 39.3174 10.5555C39.4454 10.8115 39.6161 11.0035 39.8294 11.1315C40.0428 11.2595 40.2828 11.3235 40.5494 11.3235Z"/>
  </mask>
  <path d="M7.11144 14.2355C6.17277 14.2355 5.2661 14.1288 4.39144 13.9155C3.51677 13.7022 2.79677 13.4248 2.23144 13.0835L3.44744 10.3315C3.98077 10.6408 4.57277 10.8915 5.22344 11.0835C5.88477 11.2648 6.52477 11.3555 7.14344 11.3555C7.5061 11.3555 7.78877 11.3342 7.99144 11.2915C8.20477 11.2382 8.35944 11.1688 8.45544 11.0835C8.55144 10.9875 8.59944 10.8755 8.59944 10.7475C8.59944 10.5448 8.48744 10.3848 8.26344 10.2675C8.03944 10.1502 7.74077 10.0542 7.36744 9.97949C7.00477 9.89416 6.60477 9.80883 6.16744 9.72349C5.7301 9.62749 5.28744 9.50483 4.83944 9.35549C4.4021 9.20616 3.99677 9.00883 3.62344 8.76349C3.26077 8.51816 2.96744 8.19816 2.74344 7.80349C2.51944 7.39816 2.40744 6.89683 2.40744 6.29949C2.40744 5.60616 2.59944 4.97683 2.98344 4.41149C3.3781 3.83549 3.95944 3.37683 4.72744 3.03549C5.5061 2.69416 6.47144 2.52349 7.62344 2.52349C8.38077 2.52349 9.12744 2.60349 9.86344 2.76349C10.5994 2.92349 11.2608 3.16882 11.8474 3.49949L10.7114 6.23549C10.1568 5.95816 9.6181 5.75016 9.09544 5.61149C8.58344 5.47283 8.0821 5.40349 7.59144 5.40349C7.22877 5.40349 6.94077 5.43549 6.72744 5.49949C6.5141 5.56349 6.35944 5.64883 6.26344 5.75549C6.1781 5.86216 6.13544 5.97949 6.13544 6.10749C6.13544 6.29949 6.24744 6.45416 6.47144 6.57149C6.69544 6.67816 6.98877 6.76883 7.35144 6.84349C7.72477 6.91816 8.1301 6.99816 8.56744 7.08349C9.01544 7.16883 9.4581 7.28616 9.89544 7.43549C10.3328 7.58483 10.7328 7.78216 11.0954 8.02749C11.4688 8.27283 11.7674 8.59283 11.9914 8.98749C12.2154 9.38216 12.3274 9.87283 12.3274 10.4595C12.3274 11.1422 12.1301 11.7715 11.7354 12.3475C11.3514 12.9128 10.7754 13.3715 10.0074 13.7235C9.23944 14.0648 8.2741 14.2355 7.11144 14.2355ZM19.4191 5.06749C20.0911 5.06749 20.6991 5.20616 21.2431 5.48349C21.7871 5.75016 22.2137 6.17149 22.5231 6.74749C22.8431 7.32349 23.0031 8.07016 23.0031 8.98749V13.9795H19.3871V9.61149C19.3871 9.06749 19.2911 8.68349 19.0991 8.45949C18.9071 8.22483 18.6457 8.10749 18.3151 8.10749C18.0697 8.10749 17.8404 8.16616 17.6271 8.28349C17.4244 8.39016 17.2591 8.57149 17.1311 8.82749C17.0137 9.08349 16.9551 9.43016 16.9551 9.86749V13.9795H13.3391V2.10749H16.9551V7.78749L16.0911 7.05149C16.4324 6.39016 16.8911 5.89416 17.4671 5.56349C18.0537 5.23282 18.7044 5.06749 19.4191 5.06749ZM29.3537 14.1395C28.3617 14.1395 27.4817 13.9475 26.7137 13.5635C25.9564 13.1688 25.359 12.6302 24.9217 11.9475C24.4844 11.2648 24.2657 10.4808 24.2657 9.59549C24.2657 8.71016 24.4844 7.92616 24.9217 7.24349C25.359 6.56083 25.9564 6.02749 26.7137 5.64349C27.4817 5.25949 28.3617 5.06749 29.3537 5.06749C30.3457 5.06749 31.2257 5.25949 31.9937 5.64349C32.7617 6.02749 33.359 6.56083 33.7857 7.24349C34.223 7.92616 34.4417 8.71016 34.4417 9.59549C34.4417 10.4808 34.223 11.2648 33.7857 11.9475C33.359 12.6302 32.7617 13.1688 31.9937 13.5635C31.2257 13.9475 30.3457 14.1395 29.3537 14.1395ZM29.3537 11.3235C29.6204 11.3235 29.8604 11.2595 30.0737 11.1315C30.287 11.0035 30.4577 10.8115 30.5857 10.5555C30.7137 10.2888 30.7777 9.96883 30.7777 9.59549C30.7777 9.21149 30.7137 8.89683 30.5857 8.65149C30.4577 8.39549 30.287 8.20349 30.0737 8.07549C29.8604 7.94749 29.6204 7.88349 29.3537 7.88349C29.087 7.88349 28.847 7.94749 28.6337 8.07549C28.4204 8.20349 28.2497 8.39549 28.1217 8.65149C27.9937 8.89683 27.9297 9.21149 27.9297 9.59549C27.9297 9.96883 27.9937 10.2888 28.1217 10.5555C28.2497 10.8115 28.4204 11.0035 28.6337 11.1315C28.847 11.2595 29.087 11.3235 29.3537 11.3235ZM41.4134 14.1395C40.6561 14.1395 40.0268 13.9795 39.5254 13.6595C39.0348 13.3288 38.6721 12.8328 38.4374 12.1715C38.2028 11.4995 38.0854 10.6462 38.0854 9.61149C38.0854 8.55549 38.1921 7.69683 38.4054 7.03549C38.6294 6.36349 38.9868 5.86749 39.4774 5.54749C39.9681 5.22749 40.6134 5.06749 41.4134 5.06749C42.1814 5.06749 42.8854 5.25416 43.5254 5.62749C44.1654 5.99016 44.6774 6.51283 45.0614 7.19549C45.4454 7.86749 45.6374 8.67283 45.6374 9.61149C45.6374 10.5502 45.4454 11.3608 45.0614 12.0435C44.6774 12.7155 44.1654 13.2328 43.5254 13.5955C42.8854 13.9582 42.1814 14.1395 41.4134 14.1395ZM35.5734 17.0835V5.22749H39.0134V6.41149L39.0294 9.61149L39.1894 12.8115V17.0835H35.5734ZM40.5494 11.3235C40.8161 11.3235 41.0561 11.2595 41.2694 11.1315C41.4828 11.0035 41.6534 10.8115 41.7814 10.5555C41.9094 10.2995 41.9734 9.98483 41.9734 9.61149C41.9734 9.22749 41.9094 8.90749 41.7814 8.65149C41.6534 8.39549 41.4828 8.20349 41.2694 8.07549C41.0561 7.94749 40.8161 7.88349 40.5494 7.88349C40.2828 7.88349 40.0428 7.94749 39.8294 8.07549C39.6161 8.20349 39.4454 8.39549 39.3174 8.65149C39.1894 8.90749 39.1254 9.22749 39.1254 9.61149C39.1254 9.98483 39.1894 10.2995 39.3174 10.5555C39.4454 10.8115 39.6161 11.0035 39.8294 11.1315C40.0428 11.2595 40.2828 11.3235 40.5494 11.3235Z" fill="white"/>
  <path d="M4.39144 13.9155L4.86535 11.9725L4.39144 13.9155ZM2.23144 13.0835L0.402064 12.2752C-0.00474119 13.1958 0.336039 14.2754 1.1977 14.7956L2.23144 13.0835ZM3.44744 10.3315L4.45087 8.60143C3.95911 8.31621 3.36921 8.25374 2.82861 8.42964C2.28802 8.60553 1.84783 9.00317 1.61806 9.52316L3.44744 10.3315ZM5.22344 11.0835L4.6574 13.0017C4.66976 13.0054 4.68215 13.0089 4.69457 13.0123L5.22344 11.0835ZM7.99144 11.2915L8.40346 13.2486C8.42791 13.2434 8.45227 13.2378 8.47651 13.2318L7.99144 11.2915ZM8.45544 11.0835L9.78417 12.5783C9.81344 12.5523 9.84195 12.5254 9.86965 12.4977L8.45544 11.0835ZM8.26344 10.2675L7.33542 12.0392H7.33542L8.26344 10.2675ZM7.36744 9.97949L6.90936 11.9263C6.93123 11.9315 6.95318 11.9362 6.97521 11.9407L7.36744 9.97949ZM6.16744 9.72349L5.73862 11.677C5.75385 11.6803 5.76912 11.6835 5.78442 11.6865L6.16744 9.72349ZM4.83944 9.35549L4.19315 11.2482C4.19776 11.2498 4.20237 11.2513 4.20698 11.2529L4.83944 9.35549ZM3.62344 8.76349L2.50282 10.4201C2.51021 10.4251 2.51763 10.43 2.52508 10.4349L3.62344 8.76349ZM2.74344 7.80349L0.992954 8.77086C0.99662 8.7775 1.00032 8.78411 1.00407 8.7907L2.74344 7.80349ZM2.98344 4.41149L1.33356 3.28102L1.329 3.28773L2.98344 4.41149ZM4.72744 3.03549L3.92447 1.20373L3.91516 1.20787L4.72744 3.03549ZM9.86344 2.76349L9.43858 4.71784L9.86344 2.76349ZM11.8474 3.49949L13.6945 4.26642C14.0827 3.33161 13.7112 2.25419 12.8295 1.75719L11.8474 3.49949ZM10.7114 6.23549L9.81701 8.02435C10.3132 8.27245 10.8902 8.3033 11.41 8.10953C11.9298 7.91576 12.3458 7.51478 12.5585 7.00242L10.7114 6.23549ZM9.09544 5.61149L8.5726 7.54197L8.58257 7.54462L9.09544 5.61149ZM6.72744 5.49949L6.15274 3.58384L6.15274 3.58384L6.72744 5.49949ZM6.26344 5.75549L4.77685 4.41757C4.75095 4.44634 4.72589 4.47587 4.7017 4.5061L6.26344 5.75549ZM6.47144 6.57149L5.54342 8.34315C5.56592 8.35494 5.58864 8.36629 5.61157 8.37721L6.47144 6.57149ZM7.35144 6.84349L6.94812 8.80244L6.95921 8.80465L7.35144 6.84349ZM8.56744 7.08349L8.18441 9.04649L8.19321 9.04817L8.56744 7.08349ZM9.89544 7.43549L9.24915 9.32819H9.24915L9.89544 7.43549ZM11.0954 8.02749L9.97482 9.68406C9.98221 9.68906 9.98963 9.69401 9.99708 9.6989L11.0954 8.02749ZM11.9914 8.98749L10.2521 9.9747L10.2521 9.9747L11.9914 8.98749ZM11.7354 12.3475L10.0856 11.217L10.081 11.2237L11.7354 12.3475ZM10.0074 13.7235L10.8197 15.5511C10.8267 15.548 10.8338 15.5448 10.8407 15.5416L10.0074 13.7235ZM7.11144 12.2355C6.32565 12.2355 5.57841 12.1464 4.86535 11.9725L3.91753 15.8585C4.9538 16.1113 6.0199 16.2355 7.11144 16.2355V12.2355ZM4.86535 11.9725C4.1215 11.791 3.60652 11.5775 3.26518 11.3714L1.1977 14.7956C1.98702 15.2722 2.91204 15.6133 3.91753 15.8585L4.86535 11.9725ZM4.06081 13.8918L5.27681 11.1398L1.61806 9.52316L0.402064 12.2752L4.06081 13.8918ZM2.444 12.0616C3.12811 12.4583 3.86907 12.7691 4.6574 13.0017L5.78947 9.16526C5.27648 9.01389 4.83343 8.82331 4.45087 8.60143L2.444 12.0616ZM4.69457 13.0123C5.5098 13.2358 6.32795 13.3555 7.14344 13.3555V9.35549C6.7216 9.35549 6.25974 9.29382 5.7523 9.15468L4.69457 13.0123ZM7.14344 13.3555C7.55798 13.3555 8.00093 13.3333 8.40346 13.2486L7.57942 9.33439C7.58918 9.33234 7.55995 9.3389 7.47692 9.34516C7.39721 9.35118 7.28763 9.35549 7.14344 9.35549V13.3555ZM8.47651 13.2318C8.80898 13.1487 9.33226 12.98 9.78417 12.5783L7.12671 9.58867C7.27087 9.46053 7.39638 9.39821 7.44933 9.37447C7.50555 9.34927 7.5305 9.34517 7.50637 9.35121L8.47651 13.2318ZM9.86965 12.4977C10.3155 12.0519 10.5994 11.4406 10.5994 10.7475H6.59944C6.59944 10.5546 6.6371 10.3451 6.72515 10.1397C6.8122 9.93653 6.92982 9.78068 7.04122 9.66928L9.86965 12.4977ZM10.5994 10.7475C10.5994 9.60489 9.88067 8.85685 9.19145 8.49583L7.33542 12.0392C7.24491 11.9917 7.05045 11.8702 6.87697 11.6224C6.68839 11.353 6.59944 11.04 6.59944 10.7475H10.5994ZM9.19145 8.49583C8.73667 8.25761 8.23551 8.1135 7.75967 8.01833L6.97521 11.9407C7.10265 11.9661 7.19549 11.991 7.25942 12.0115C7.32461 12.0325 7.34549 12.0444 7.33542 12.0392L9.19145 8.49583ZM7.82552 8.03266C7.43369 7.94046 7.00823 7.84983 6.55046 7.76051L5.78442 11.6865C6.20131 11.7678 6.57586 11.8479 6.90936 11.9263L7.82552 8.03266ZM6.59625 7.77C6.23136 7.68991 5.85666 7.58638 5.47189 7.45813L4.20698 11.2529C4.71821 11.4233 5.22885 11.5651 5.73862 11.677L6.59625 7.77ZM5.48573 7.46279C5.20229 7.36601 4.94957 7.24176 4.72179 7.09208L2.52508 10.4349C3.04397 10.7759 3.60192 11.0463 4.19315 11.2482L5.48573 7.46279ZM4.74406 7.10693C4.64583 7.04048 4.56054 6.95324 4.48281 6.81628L1.00407 8.7907C1.37433 9.44308 1.87572 9.99584 2.50282 10.4201L4.74406 7.10693ZM4.49392 6.83612C4.4743 6.80062 4.40744 6.654 4.40744 6.29949H0.407438C0.407438 7.13965 0.564574 7.9957 0.992954 8.77086L4.49392 6.83612ZM4.40744 6.29949C4.40744 6.00071 4.48251 5.76399 4.63787 5.53526L1.329 3.28773C0.71637 4.18966 0.407438 5.21161 0.407438 6.29949H4.40744ZM4.6333 5.54195C4.7796 5.32844 5.04075 5.08488 5.53971 4.86311L3.91516 1.20787C2.87813 1.66877 1.97661 2.34255 1.33357 3.28103L4.6333 5.54195ZM5.53039 4.86723C5.98306 4.6688 6.65534 4.52349 7.62344 4.52349V0.523492C6.28754 0.523492 5.02915 0.719518 3.92448 1.20375L5.53039 4.86723ZM7.62344 4.52349C8.23872 4.52349 8.84293 4.58836 9.43858 4.71784L10.2883 0.809139C9.41194 0.618627 8.52282 0.523492 7.62344 0.523492V4.52349ZM9.43858 4.71784C10.0021 4.84036 10.4721 5.0201 10.8654 5.2418L12.8295 1.75719C12.0495 1.31755 11.1967 1.00663 10.2883 0.809139L9.43858 4.71784ZM10.0003 2.73256L8.86433 5.46856L12.5585 7.00242L13.6945 4.26642L10.0003 2.73256ZM11.6059 4.44664C10.9466 4.11703 10.2803 3.85665 9.60831 3.67837L8.58257 7.54462C8.95592 7.64367 9.3669 7.79929 9.81701 8.02435L11.6059 4.44664ZM9.61827 3.68104C8.94954 3.49993 8.27236 3.40349 7.59144 3.40349V7.40349C7.89185 7.40349 8.21733 7.44572 8.57261 7.54194L9.61827 3.68104ZM7.59144 3.40349C7.13992 3.40349 6.63222 3.44 6.15274 3.58384L7.30213 7.41514C7.26485 7.42633 7.26656 7.42168 7.3243 7.41526C7.37945 7.40913 7.46644 7.40349 7.59144 7.40349V3.40349ZM6.15274 3.58384C5.76611 3.69983 5.21811 3.92727 4.77685 4.41757L7.75003 7.09342C7.6189 7.23912 7.49215 7.32151 7.41759 7.36265C7.37909 7.38389 7.34896 7.39722 7.33047 7.40472C7.321 7.40856 7.31382 7.41119 7.30919 7.4128C7.30457 7.41442 7.30214 7.41514 7.30213 7.41514L6.15274 3.58384ZM4.7017 4.5061C4.35312 4.94183 4.13544 5.49365 4.13544 6.10749H8.13544C8.13544 6.27062 8.10737 6.44103 8.04702 6.60698C7.98726 6.77134 7.90581 6.90409 7.82517 7.00488L4.7017 4.5061ZM4.13544 6.10749C4.13544 7.28306 4.90375 8.00809 5.54342 8.34315L7.39945 4.79983C7.4762 4.84003 7.66509 4.95387 7.83932 5.19447C8.03185 5.46035 8.13544 5.78468 8.13544 6.10749H4.13544ZM5.61157 8.37721C6.03339 8.57808 6.49691 8.70951 6.94813 8.80241L7.75474 4.88458C7.48063 4.82814 7.35749 4.77824 7.33131 4.76577L5.61157 8.37721ZM6.95921 8.80465C7.33607 8.88003 7.74451 8.96064 8.18442 9.04647L8.95046 5.12051C8.5157 5.03568 8.11347 4.95629 7.74367 4.88233L6.95921 8.80465ZM8.19321 9.04817C8.54773 9.11569 8.89952 9.20881 9.24915 9.32819L10.5417 5.54279C10.0167 5.36351 9.48315 5.22196 8.94166 5.11881L8.19321 9.04817ZM9.24915 9.32819C9.5279 9.42338 9.76701 9.54348 9.97482 9.68406L12.2161 6.37093C11.6985 6.02083 11.1376 5.74628 10.5417 5.54279L9.24915 9.32819ZM9.99708 9.6989C10.1012 9.76734 10.1819 9.85113 10.2521 9.9747L13.7308 8.00028C13.3529 7.33452 12.8363 6.77831 12.1938 6.35608L9.99708 9.6989ZM10.2521 9.9747C10.2623 9.99273 10.3274 10.12 10.3274 10.4595H14.3274C14.3274 9.62561 14.1686 8.77158 13.7308 8.00028L10.2521 9.9747ZM10.3274 10.4595C10.3274 10.7289 10.2577 10.9658 10.0856 11.217L13.3853 13.478C14.0025 12.5772 14.3274 11.5554 14.3274 10.4595H10.3274ZM10.081 11.2237C9.94561 11.4231 9.68824 11.6697 9.17413 11.9054L10.8407 15.5416C11.8626 15.0733 12.7573 14.4026 13.3899 13.4713L10.081 11.2237ZM9.19516 11.8959C8.76104 12.0888 8.09475 12.2355 7.11144 12.2355V16.2355C8.45345 16.2355 9.71784 16.0408 10.8197 15.5511L9.19516 11.8959ZM21.2431 5.48349L20.3347 7.2653C20.344 7.27005 20.3534 7.27473 20.3627 7.27933L21.2431 5.48349ZM22.5231 6.74749L20.7611 7.69374C20.7656 7.70212 20.7701 7.71047 20.7747 7.71878L22.5231 6.74749ZM23.0031 13.9795V15.9795C24.1076 15.9795 25.0031 15.0841 25.0031 13.9795H23.0031ZM19.3871 13.9795H17.3871C17.3871 15.0841 18.2825 15.9795 19.3871 15.9795V13.9795ZM19.0991 8.45949L17.5511 9.72597C17.5608 9.73778 17.5706 9.74948 17.5805 9.76107L19.0991 8.45949ZM17.6271 8.28349L18.5586 10.0533C18.5694 10.0476 18.5802 10.0418 18.5909 10.0359L17.6271 8.28349ZM17.1311 8.82749L15.3422 7.93306C15.3321 7.95327 15.3223 7.97365 15.3129 7.99418L17.1311 8.82749ZM16.9551 13.9795V15.9795C18.0596 15.9795 18.9551 15.0841 18.9551 13.9795H16.9551ZM13.3391 13.9795H11.3391C11.3391 15.0841 12.2345 15.9795 13.3391 15.9795V13.9795ZM13.3391 2.10749V0.107491C12.2345 0.107491 11.3391 1.00292 11.3391 2.10749H13.3391ZM16.9551 2.10749H18.9551C18.9551 1.00292 18.0596 0.107491 16.9551 0.107491V2.10749ZM16.9551 7.78749L15.6581 9.30998C16.2519 9.81575 17.0855 9.93023 17.7936 9.60324C18.5017 9.27625 18.9551 8.56744 18.9551 7.78749H16.9551ZM16.0911 7.05149L14.3138 6.13421C13.8875 6.96026 14.0865 7.97117 14.7941 8.57398L16.0911 7.05149ZM17.4671 5.56349L16.485 3.82119C16.4805 3.82377 16.4759 3.82637 16.4713 3.82899L17.4671 5.56349ZM19.4191 7.06749C19.8076 7.06749 20.0994 7.14537 20.3347 7.2653L22.1514 3.70168C21.2987 3.26695 20.3746 3.06749 19.4191 3.06749V7.06749ZM20.3627 7.27933C20.5011 7.34713 20.6331 7.45536 20.7611 7.69374L24.2851 5.80124C23.7944 4.88762 23.0731 4.15318 22.1234 3.68765L20.3627 7.27933ZM20.7747 7.71878C20.8776 7.90383 21.0031 8.28355 21.0031 8.98749H25.0031C25.0031 7.85677 24.8086 6.74315 24.2714 5.77621L20.7747 7.71878ZM21.0031 8.98749V13.9795H25.0031V8.98749H21.0031ZM23.0031 11.9795H19.3871V15.9795H23.0031V11.9795ZM21.3871 13.9795V9.61149H17.3871V13.9795H21.3871ZM21.3871 9.61149C21.3871 8.94621 21.2923 7.94511 20.6176 7.15791L17.5805 9.76107C17.4176 9.57095 17.3775 9.41161 17.3748 9.40056C17.3722 9.39027 17.3757 9.40131 17.3797 9.43929C17.3836 9.47681 17.3871 9.53326 17.3871 9.61149H21.3871ZM20.647 7.19302C20.0376 6.44821 19.1837 6.10749 18.3151 6.10749V10.1075C18.2413 10.1075 18.1036 10.0935 17.9399 10.02C17.7712 9.94428 17.6397 9.83424 17.5511 9.72597L20.647 7.19302ZM18.3151 6.10749C17.7354 6.10749 17.1742 6.25002 16.6632 6.53106L18.5909 10.0359C18.5542 10.0561 18.5079 10.0755 18.4547 10.0891C18.4016 10.1027 18.3535 10.1075 18.3151 10.1075V6.10749ZM16.6956 6.51366C16.039 6.85923 15.6102 7.39715 15.3422 7.93306L18.9199 9.72192C18.908 9.74583 18.8098 9.92109 18.5586 10.0533L16.6956 6.51366ZM15.3129 7.99418C15.0279 8.61613 14.9551 9.28538 14.9551 9.86749H18.9551C18.9551 9.73489 18.9642 9.6535 18.971 9.61321C18.9781 9.57165 18.9789 9.59606 18.9492 9.6608L15.3129 7.99418ZM14.9551 9.86749V13.9795H18.9551V9.86749H14.9551ZM16.9551 11.9795H13.3391V15.9795H16.9551V11.9795ZM15.3391 13.9795V2.10749H11.3391V13.9795H15.3391ZM13.3391 4.10749H16.9551V0.107491H13.3391V4.10749ZM14.9551 2.10749V7.78749H18.9551V2.10749H14.9551ZM18.252 6.26501L17.388 5.52901L14.7941 8.57398L15.6581 9.30998L18.252 6.26501ZM17.8683 7.96878C18.0551 7.6068 18.2597 7.41458 18.4628 7.298L16.4713 3.82899C15.5224 4.37374 14.8097 5.17352 14.3138 6.13421L17.8683 7.96878ZM18.4491 7.3058C18.7176 7.15446 19.0266 7.06749 19.4191 7.06749V3.06749C18.3821 3.06749 17.3899 3.31119 16.485 3.82119L18.4491 7.3058ZM26.7137 13.5635L25.7894 15.3371C25.7993 15.3423 25.8093 15.3474 25.8193 15.3523L26.7137 13.5635ZM24.9217 11.9475L23.2376 13.0263L24.9217 11.9475ZM24.9217 7.24349L23.2376 6.16464L24.9217 7.24349ZM26.7137 5.64349L25.8192 3.85461L25.8092 3.85969L26.7137 5.64349ZM31.9937 5.64349L31.0993 7.43235V7.43235L31.9937 5.64349ZM33.7857 7.24349L32.0897 8.30349C32.0936 8.3098 32.0976 8.31608 32.1016 8.32234L33.7857 7.24349ZM33.7857 11.9475L32.1016 10.8686C32.0976 10.8749 32.0936 10.8812 32.0897 10.8875L33.7857 11.9475ZM31.9937 13.5635L32.8881 15.3523C32.8947 15.3491 32.9013 15.3457 32.9078 15.3424L31.9937 13.5635ZM30.0737 11.1315L29.0447 9.41651L30.0737 11.1315ZM30.5857 10.5555L32.3745 11.4499C32.3794 11.4403 32.3841 11.4306 32.3887 11.421L30.5857 10.5555ZM30.5857 8.65149L28.7968 9.54592C28.802 9.5562 28.8072 9.56643 28.8125 9.57663L30.5857 8.65149ZM30.0737 8.07549L29.0447 9.79048H29.0447L30.0737 8.07549ZM28.6337 8.07549L27.6047 6.36051V6.36051L28.6337 8.07549ZM28.1217 8.65149L29.8949 9.57663C29.9002 9.56643 29.9054 9.5562 29.9105 9.54592L28.1217 8.65149ZM28.1217 10.5555L26.3186 11.421C26.3233 11.4306 26.328 11.4403 26.3328 11.4499L28.1217 10.5555ZM28.6337 11.1315L27.6047 12.8465L27.6047 12.8465L28.6337 11.1315ZM29.3537 12.1395C28.6239 12.1395 28.0582 11.9997 27.6081 11.7746L25.8193 15.3523C26.9051 15.8953 28.0995 16.1395 29.3537 16.1395V12.1395ZM27.638 11.7899C27.173 11.5476 26.8446 11.2415 26.6058 10.8686L23.2376 13.0263C23.8734 14.0188 24.7397 14.7901 25.7894 15.3371L27.638 11.7899ZM26.6058 10.8686C26.3936 10.5375 26.2657 10.135 26.2657 9.59549H22.2657C22.2657 10.8267 22.5751 11.9922 23.2376 13.0263L26.6058 10.8686ZM26.2657 9.59549C26.2657 9.05601 26.3936 8.65353 26.6058 8.32235L23.2376 6.16464C22.5751 7.19879 22.2657 8.3643 22.2657 9.59549H26.2657ZM26.6058 8.32235C26.8414 7.95445 27.1632 7.65798 27.6182 7.42729L25.8092 3.85969C24.7495 4.397 23.8766 5.1672 23.2376 6.16464L26.6058 8.32235ZM27.6081 7.43235C28.0582 7.20729 28.6239 7.06749 29.3537 7.06749V3.06749C28.0995 3.06749 26.9051 3.31169 25.8193 3.85464L27.6081 7.43235ZM29.3537 7.06749C30.0835 7.06749 30.6492 7.20729 31.0993 7.43235L32.8881 3.85464C31.8022 3.31169 30.6079 3.06749 29.3537 3.06749V7.06749ZM31.0993 7.43235C31.5609 7.66318 31.8712 7.95385 32.0897 8.30349L35.4817 6.18349C34.8469 5.1678 33.9624 4.3918 32.8881 3.85464L31.0993 7.43235ZM32.1016 8.32234C32.3138 8.65353 32.4417 9.05601 32.4417 9.59549H36.4417C36.4417 8.3643 36.1323 7.19879 35.4698 6.16464L32.1016 8.32234ZM32.4417 9.59549C32.4417 10.135 32.3138 10.5375 32.1016 10.8686L35.4698 13.0263C36.1323 11.9922 36.4417 10.8267 36.4417 9.59549H32.4417ZM32.0897 10.8875C31.868 11.2422 31.5511 11.5423 31.0795 11.7846L32.9078 15.3424C33.9723 14.7953 34.8501 14.0181 35.4817 13.0075L32.0897 10.8875ZM31.0993 11.7746C30.6492 11.9997 30.0835 12.1395 29.3537 12.1395V16.1395C30.6079 16.1395 31.8022 15.8953 32.8881 15.3523L31.0993 11.7746ZM29.3537 13.3235C29.9558 13.3235 30.5561 13.1744 31.1027 12.8465L29.0447 9.41651C29.098 9.38453 29.1575 9.35925 29.2184 9.34302C29.2783 9.32703 29.3258 9.32349 29.3537 9.32349V13.3235ZM31.1027 12.8465C31.689 12.4947 32.1026 11.9938 32.3745 11.4499L28.7968 9.66107C28.8025 9.64967 28.8231 9.61197 28.8669 9.56276C28.9119 9.51211 28.9718 9.46026 29.0447 9.41651L31.1027 12.8465ZM32.3887 11.421C32.6758 10.823 32.7777 10.1922 32.7777 9.59549H28.7777C28.7777 9.7455 28.7516 9.75469 28.7826 9.69003L32.3887 11.421ZM32.7777 9.59549C32.7777 9.00743 32.6823 8.34628 32.3589 7.72636L28.8125 9.57663C28.7774 9.50931 28.7693 9.46749 28.7698 9.47011C28.77 9.47117 28.7721 9.48162 28.774 9.50293C28.776 9.52425 28.7777 9.55476 28.7777 9.59549H32.7777ZM32.3745 7.75707C32.1026 7.21322 31.689 6.71229 31.1027 6.36051L29.0447 9.79048C28.9718 9.74672 28.9119 9.69487 28.8669 9.64422C28.8231 9.59502 28.8025 9.55732 28.7968 9.54592L32.3745 7.75707ZM31.1027 6.36051C30.5561 6.03257 29.9558 5.88349 29.3537 5.88349V9.88349C29.3258 9.88349 29.2783 9.87996 29.2184 9.86396C29.1575 9.84774 29.098 9.82245 29.0447 9.79048L31.1027 6.36051ZM29.3537 5.88349C28.7516 5.88349 28.1513 6.03257 27.6047 6.36051L29.6627 9.79048C29.6094 9.82245 29.5498 9.84774 29.489 9.86396C29.429 9.87996 29.3816 9.88349 29.3537 9.88349V5.88349ZM27.6047 6.36051C27.0184 6.71229 26.6048 7.21322 26.3328 7.75707L29.9105 9.54592C29.9048 9.55732 29.8842 9.59501 29.8405 9.64422C29.7955 9.69487 29.7356 9.74672 29.6627 9.79048L27.6047 6.36051ZM26.3485 7.72636C26.0251 8.34628 25.9297 9.00743 25.9297 9.59549H29.9297C29.9297 9.55476 29.9314 9.52425 29.9333 9.50293C29.9353 9.48162 29.9373 9.47117 29.9376 9.47011C29.9381 9.46749 29.93 9.50931 29.8949 9.57663L26.3485 7.72636ZM25.9297 9.59549C25.9297 10.1922 26.0316 10.823 26.3186 11.421L29.9247 9.69003C29.9558 9.75469 29.9297 9.7455 29.9297 9.59549H25.9297ZM26.3328 11.4499C26.6048 11.9938 27.0184 12.4947 27.6047 12.8465L29.6627 9.41651C29.7356 9.46026 29.7955 9.51211 29.8405 9.56277C29.8842 9.61197 29.9048 9.64967 29.9105 9.66107L26.3328 11.4499ZM27.6047 12.8465C28.1513 13.1744 28.7516 13.3235 29.3537 13.3235V9.32349C29.3816 9.32349 29.429 9.32703 29.489 9.34302C29.5498 9.35925 29.6094 9.38453 29.6627 9.41651L27.6047 12.8465ZM39.5254 13.6595L38.4077 15.318C38.4215 15.3273 38.4354 15.3364 38.4494 15.3453L39.5254 13.6595ZM38.4374 12.1715L36.5492 12.8309L36.5526 12.8403L38.4374 12.1715ZM38.4054 7.03549L36.5081 6.40304C36.506 6.40918 36.504 6.41533 36.502 6.42149L38.4054 7.03549ZM39.4774 5.54749L40.57 7.22271V7.22271L39.4774 5.54749ZM43.5254 5.62749L42.5177 7.35505C42.5249 7.35926 42.5322 7.36342 42.5394 7.36754L43.5254 5.62749ZM45.0614 7.19549L43.3182 8.17604L43.325 8.18777L45.0614 7.19549ZM45.0614 12.0435L46.798 13.0358L46.8046 13.024L45.0614 12.0435ZM43.5254 13.5955L44.5115 15.3355L43.5254 13.5955ZM35.5734 17.0835H33.5734C33.5734 18.1881 34.4689 19.0835 35.5734 19.0835V17.0835ZM35.5734 5.22749V3.22749C34.4689 3.22749 33.5734 4.12292 33.5734 5.22749H35.5734ZM39.0134 5.22749H41.0134C41.0134 4.12292 40.118 3.22749 39.0134 3.22749V5.22749ZM39.0134 6.41149H37.0134L37.0135 6.42149L39.0134 6.41149ZM39.0294 9.61149L37.0295 9.62149C37.0296 9.65147 37.0304 9.68143 37.0319 9.71137L39.0294 9.61149ZM39.1894 12.8115H41.1894C41.1894 12.7782 41.1886 12.7449 41.1869 12.7116L39.1894 12.8115ZM39.1894 17.0835V19.0835C40.294 19.0835 41.1894 18.1881 41.1894 17.0835H39.1894ZM41.2694 11.1315L42.2984 12.8465V12.8465L41.2694 11.1315ZM41.7814 10.5555L39.9926 9.66107L41.7814 10.5555ZM41.7814 8.65149L39.9926 9.54592V9.54592L41.7814 8.65149ZM39.3174 8.65149L41.1063 9.54592V9.54592L39.3174 8.65149ZM39.3174 10.5555L41.1063 9.66107L39.3174 10.5555ZM39.8294 11.1315L38.8004 12.8465V12.8465L39.8294 11.1315ZM41.4134 12.1395C40.9341 12.1395 40.7042 12.0392 40.6015 11.9736L38.4494 15.3453C39.3493 15.9198 40.3781 16.1395 41.4134 16.1395V12.1395ZM40.6431 12.001C40.57 11.9517 40.4412 11.8378 40.3223 11.5027L36.5526 12.8403C36.903 13.8278 37.4995 14.706 38.4077 15.318L40.6431 12.001ZM40.3256 11.5121C40.1903 11.1247 40.0854 10.5142 40.0854 9.61149H36.0854C36.0854 10.7781 36.2152 11.8743 36.5493 12.8309L40.3256 11.5121ZM40.0854 9.61149C40.0854 8.66739 40.1836 8.03773 40.3089 7.6495L36.502 6.42149C36.2006 7.35592 36.0854 8.44359 36.0854 9.61149H40.0854ZM40.3028 7.66795C40.4148 7.33181 40.532 7.24746 40.57 7.22271L38.3849 3.87227C37.4415 4.48752 36.844 5.39517 36.5081 6.40304L40.3028 7.66795ZM40.57 7.22271C40.637 7.17902 40.8638 7.06749 41.4134 7.06749V3.06749C40.363 3.06749 39.2992 3.27597 38.3849 3.87227L40.57 7.22271ZM41.4134 7.06749C41.8408 7.06749 42.195 7.16683 42.5177 7.35505L44.5332 3.89993C43.5758 3.34149 42.522 3.06749 41.4134 3.06749V7.06749ZM42.5394 7.36754C42.8419 7.53895 43.1008 7.78934 43.3183 8.17601L46.8046 6.21497C46.2541 5.23631 45.489 4.44137 44.5115 3.88745L42.5394 7.36754ZM43.325 8.18777C43.503 8.49936 43.6374 8.94706 43.6374 9.61149H47.6374C47.6374 8.39859 47.3879 7.23562 46.7979 6.20321L43.325 8.18777ZM43.6374 9.61149C43.6374 10.2748 43.5034 10.7339 43.3183 11.063L46.8046 13.024C47.3875 11.9878 47.6374 10.8255 47.6374 9.61149H43.6374ZM43.325 11.0512C43.1096 11.428 42.85 11.6794 42.5394 11.8554L44.5115 15.3355C45.4809 14.7862 46.2452 14.003 46.7979 13.0358L43.325 11.0512ZM42.5394 11.8554C42.2136 12.0401 41.8517 12.1395 41.4134 12.1395V16.1395C42.5112 16.1395 43.5573 15.8762 44.5115 15.3355L42.5394 11.8554ZM37.5734 17.0835V5.22749H33.5734V17.0835H37.5734ZM35.5734 7.22749H39.0134V3.22749H35.5734V7.22749ZM37.0134 5.22749V6.41149H41.0134V5.22749H37.0134ZM37.0135 6.42149L37.0295 9.62149L41.0294 9.60149L41.0134 6.40149L37.0135 6.42149ZM37.0319 9.71137L37.1919 12.9114L41.1869 12.7116L41.0269 9.51162L37.0319 9.71137ZM37.1894 12.8115V17.0835H41.1894V12.8115H37.1894ZM39.1894 15.0835H35.5734V19.0835H39.1894V15.0835ZM40.5494 13.3235C41.1515 13.3235 41.7519 13.1744 42.2984 12.8465L40.2404 9.41651C40.2937 9.38453 40.3533 9.35925 40.4141 9.34302C40.4741 9.32703 40.5215 9.32349 40.5494 9.32349V13.3235ZM42.2984 12.8465C42.8847 12.4947 43.2984 11.9938 43.5703 11.4499L39.9926 9.66107C39.9983 9.64967 40.0189 9.61197 40.0626 9.56276C40.1076 9.51211 40.1675 9.46026 40.2404 9.41651L42.2984 12.8465ZM43.5703 11.4499C43.8728 10.8449 43.9734 10.2043 43.9734 9.61149H39.9734C39.9734 9.68533 39.967 9.72187 39.9656 9.72887C39.9644 9.73475 39.9692 9.70787 39.9926 9.66107L43.5703 11.4499ZM43.9734 9.61149C43.9734 9.01819 43.8763 8.36898 43.5703 7.75706L39.9926 9.54592C39.9669 9.49451 39.9624 9.46614 39.9643 9.47572C39.9664 9.48631 39.9734 9.52878 39.9734 9.61149H43.9734ZM43.5703 7.75707C43.2984 7.21322 42.8847 6.71229 42.2984 6.36051L40.2404 9.79048C40.1675 9.74672 40.1076 9.69487 40.0626 9.64422C40.0189 9.59502 39.9983 9.55732 39.9926 9.54592L43.5703 7.75707ZM42.2984 6.36051C41.7519 6.03257 41.1515 5.88349 40.5494 5.88349V9.88349C40.5215 9.88349 40.4741 9.87996 40.4141 9.86396C40.3533 9.84774 40.2937 9.82245 40.2404 9.79048L42.2984 6.36051ZM40.5494 5.88349C39.9473 5.88349 39.347 6.03257 38.8004 6.36051L40.8584 9.79048C40.8051 9.82245 40.7456 9.84774 40.6848 9.86396C40.6248 9.87996 40.5774 9.88349 40.5494 9.88349V5.88349ZM38.8004 6.36051C38.2141 6.71229 37.8005 7.21322 37.5286 7.75707L41.1063 9.54592C41.1006 9.55732 41.08 9.59502 41.0363 9.64422C40.9912 9.69487 40.9314 9.74672 40.8584 9.79048L38.8004 6.36051ZM37.5286 7.75706C37.2226 8.36898 37.1254 9.01819 37.1254 9.61149H41.1254C41.1254 9.52878 41.1325 9.48631 41.1346 9.47572C41.1365 9.46614 41.132 9.49451 41.1063 9.54592L37.5286 7.75706ZM37.1254 9.61149C37.1254 10.2043 37.2261 10.8449 37.5286 11.4499L41.1063 9.66107C41.1297 9.70787 41.1345 9.73475 41.1333 9.72887C41.1319 9.72187 41.1254 9.68533 41.1254 9.61149H37.1254ZM37.5286 11.4499C37.8005 11.9938 38.2141 12.4947 38.8004 12.8465L40.8584 9.41651C40.9314 9.46026 40.9912 9.51211 41.0363 9.56276C41.08 9.61197 41.1006 9.64967 41.1063 9.66107L37.5286 11.4499ZM38.8004 12.8465C39.347 13.1744 39.9473 13.3235 40.5494 13.3235V9.32349C40.5774 9.32349 40.6248 9.32703 40.6848 9.34302C40.7456 9.35925 40.8051 9.38453 40.8584 9.41651L38.8004 12.8465Z" fill="#4B371F" mask="url(#path-1-outside-1_706_2767)"/>
</svg>