<svg width="100" height="48" viewBox="0 0 100 48" fill="none" xmlns="http://www.w3.org/2000/svg">
<rect x="1" y="1" width="98" height="46" rx="15" fill="#FFB050" stroke="#4B371F" stroke-width="2"/>
<rect x="5" y="5" width="90" height="38" rx="11" fill="#FFCF23" stroke="#AF7026" stroke-width="2"/>
<path d="M10 17.8315C10 13.3315 11.5 9.33154 19.5 9.33154M26 9.33154H62" stroke="white" stroke-width="3" stroke-linecap="round" stroke-linejoin="round"/>
<mask id="path-4-outside-1_674_10823" maskUnits="userSpaceOnUse" x="24" y="16" width="52" height="17" fill="black">
<rect fill="white" x="24" y="16" width="52" height="17"/>
<path d="M36.5528 27.152C36.8941 27.568 37.1075 27.888 37.1928 28.112C37.2888 28.3467 37.3368 28.5707 37.3368 28.784C37.3368 29.1467 37.2088 29.4507 36.9528 29.696C36.7075 29.9307 36.4088 30.048 36.0568 30.048C35.8328 30.048 35.6035 29.9893 35.3688 29.872C35.0915 29.7333 34.7501 29.5253 34.3448 29.248C33.5981 29.664 32.8248 29.872 32.0248 29.872C31.0328 29.8613 30.1261 29.616 29.3048 29.136C28.4941 28.6453 27.8488 27.9787 27.3688 27.136C26.8995 26.2933 26.6541 25.36 26.6328 24.336C26.6541 23.3013 26.9048 22.368 27.3848 21.536C27.8648 20.6933 28.5101 20.032 29.3208 19.552C30.1315 19.0613 31.0328 18.8107 32.0248 18.8C33.0275 18.8107 33.9341 19.0613 34.7448 19.552C35.5661 20.032 36.2168 20.6933 36.6968 21.536C37.1768 22.3787 37.4328 23.312 37.4648 24.336C37.4328 25.296 37.1288 26.2347 36.5528 27.152ZM29.9448 25.12C29.9448 25.504 30.0461 25.8667 30.2488 26.208C30.4515 26.5493 30.7235 26.8213 31.0648 27.024C31.4061 27.2267 31.7688 27.328 32.1528 27.328H32.3128C32.0781 26.9867 31.9128 26.7307 31.8168 26.56C31.6568 26.2827 31.5768 25.9893 31.5768 25.68C31.5768 25.296 31.7048 24.976 31.9608 24.72C32.2168 24.464 32.5261 24.336 32.8888 24.336C33.1768 24.336 33.4541 24.4213 33.7208 24.592C33.7741 24.624 33.8648 24.688 33.9928 24.784C34.1208 24.8693 34.2381 24.96 34.3448 25.056C34.3341 24.6827 34.2275 24.3307 34.0248 24C33.8221 23.6693 33.5555 23.408 33.2248 23.216C32.8941 23.024 32.5368 22.928 32.1528 22.928C31.7688 22.928 31.4061 23.0293 31.0648 23.232C30.7235 23.4347 30.4515 23.7067 30.2488 24.048C30.0461 24.3787 29.9448 24.736 29.9448 25.12ZM45.1933 30C43.9986 30 42.9746 29.7333 42.1213 29.2C41.268 28.656 40.6226 27.936 40.1853 27.04C39.7586 26.1333 39.5453 25.1467 39.5453 24.08C39.5453 22.608 39.716 21.36 40.0573 20.336C40.3986 19.312 41.0653 18.8 42.0573 18.8C42.836 18.8 43.396 19.0293 43.7373 19.488C44.0786 19.9467 44.2493 20.512 44.2493 21.184C44.2493 21.632 44.2066 22.1547 44.1213 22.752C44.036 23.328 43.9933 23.8133 43.9933 24.208C43.9933 24.7307 44.084 25.1787 44.2653 25.552C44.4466 25.9253 44.756 26.112 45.1933 26.112C45.6413 26.112 45.9506 25.9253 46.1213 25.552C46.3026 25.1787 46.3933 24.7307 46.3933 24.208C46.3933 23.8133 46.3506 23.328 46.2653 22.752C46.18 22.1547 46.1373 21.632 46.1373 21.184C46.1373 20.512 46.308 19.9467 46.6493 19.488C46.9906 19.0293 47.5506 18.8 48.3293 18.8C49.3213 18.8 49.988 19.312 50.3293 20.336C50.6706 21.36 50.8413 22.608 50.8413 24.08C50.8413 25.1467 50.6226 26.1333 50.1853 27.04C49.7586 27.936 49.1186 28.656 48.2653 29.2C47.412 29.7333 46.388 30 45.1933 30ZM57.9387 27.104C58.4827 27.168 58.904 27.3067 59.2027 27.52C59.512 27.7227 59.6667 28.048 59.6667 28.496C59.6667 28.944 59.5067 29.2747 59.1867 29.488C58.8774 29.7013 58.504 29.8347 58.0667 29.888C57.6294 29.9307 57.064 29.952 56.3707 29.952C55.688 29.952 55.128 29.9307 54.6907 29.888C54.2534 29.8347 53.88 29.7013 53.5707 29.488C53.2614 29.2747 53.1067 28.944 53.1067 28.496C53.1067 28.0587 53.2507 27.7387 53.5387 27.536C53.8374 27.3227 54.2427 27.1787 54.7547 27.104C54.7014 26.4853 54.6747 25.6 54.6747 24.448C54.6747 23.4133 54.696 22.5813 54.7387 21.952C54.12 21.888 53.6347 21.7387 53.2827 21.504C52.9307 21.2693 52.7547 20.9013 52.7547 20.4C52.7547 19.9093 52.9254 19.5467 53.2667 19.312C53.608 19.0773 54.0187 18.9333 54.4987 18.88C54.9787 18.8267 55.5974 18.8 56.3547 18.8C57.112 18.8 57.7307 18.8267 58.2107 18.88C58.6907 18.9333 59.1014 19.0773 59.4427 19.312C59.7947 19.5467 59.9707 19.9093 59.9707 20.4C59.9707 20.9013 59.7894 21.2693 59.4267 21.504C59.0747 21.7387 58.584 21.888 57.9547 21.952C58.008 22.5387 58.0347 23.3707 58.0347 24.448C58.0347 25.4827 58.0027 26.368 57.9387 27.104ZM73.3698 21.184C73.3698 21.888 73.0765 22.4 72.4898 22.72C71.9138 23.0293 70.9698 23.216 69.6578 23.28C69.7005 23.792 69.7218 24.4533 69.7218 25.264C69.7218 26.3947 69.6578 27.3013 69.5298 27.984C69.4125 28.656 69.2045 29.1573 68.9058 29.488C68.6071 29.808 68.1911 29.968 67.6578 29.968C67.1351 29.968 66.7351 29.7973 66.4578 29.456C66.1805 29.1147 65.9885 28.608 65.8818 27.936C65.7751 27.264 65.7218 26.3733 65.7218 25.264C65.7218 24.5173 65.7378 23.856 65.7698 23.28C64.8845 23.2373 64.1698 23.1467 63.6258 23.008C63.0925 22.8587 62.6978 22.64 62.4418 22.352C62.1858 22.064 62.0578 21.6747 62.0578 21.184C62.0578 20.5867 62.2605 20.1173 62.6658 19.776C63.0711 19.4347 63.6791 19.1947 64.4898 19.056C65.3005 18.9173 66.3618 18.848 67.6738 18.848C68.9965 18.848 70.0685 18.9173 70.8898 19.056C71.7111 19.1947 72.3298 19.4347 72.7458 19.776C73.1618 20.1173 73.3698 20.5867 73.3698 21.184Z"/>
</mask>
<path d="M36.5528 27.152C36.8941 27.568 37.1075 27.888 37.1928 28.112C37.2888 28.3467 37.3368 28.5707 37.3368 28.784C37.3368 29.1467 37.2088 29.4507 36.9528 29.696C36.7075 29.9307 36.4088 30.048 36.0568 30.048C35.8328 30.048 35.6035 29.9893 35.3688 29.872C35.0915 29.7333 34.7501 29.5253 34.3448 29.248C33.5981 29.664 32.8248 29.872 32.0248 29.872C31.0328 29.8613 30.1261 29.616 29.3048 29.136C28.4941 28.6453 27.8488 27.9787 27.3688 27.136C26.8995 26.2933 26.6541 25.36 26.6328 24.336C26.6541 23.3013 26.9048 22.368 27.3848 21.536C27.8648 20.6933 28.5101 20.032 29.3208 19.552C30.1315 19.0613 31.0328 18.8107 32.0248 18.8C33.0275 18.8107 33.9341 19.0613 34.7448 19.552C35.5661 20.032 36.2168 20.6933 36.6968 21.536C37.1768 22.3787 37.4328 23.312 37.4648 24.336C37.4328 25.296 37.1288 26.2347 36.5528 27.152ZM29.9448 25.12C29.9448 25.504 30.0461 25.8667 30.2488 26.208C30.4515 26.5493 30.7235 26.8213 31.0648 27.024C31.4061 27.2267 31.7688 27.328 32.1528 27.328H32.3128C32.0781 26.9867 31.9128 26.7307 31.8168 26.56C31.6568 26.2827 31.5768 25.9893 31.5768 25.68C31.5768 25.296 31.7048 24.976 31.9608 24.72C32.2168 24.464 32.5261 24.336 32.8888 24.336C33.1768 24.336 33.4541 24.4213 33.7208 24.592C33.7741 24.624 33.8648 24.688 33.9928 24.784C34.1208 24.8693 34.2381 24.96 34.3448 25.056C34.3341 24.6827 34.2275 24.3307 34.0248 24C33.8221 23.6693 33.5555 23.408 33.2248 23.216C32.8941 23.024 32.5368 22.928 32.1528 22.928C31.7688 22.928 31.4061 23.0293 31.0648 23.232C30.7235 23.4347 30.4515 23.7067 30.2488 24.048C30.0461 24.3787 29.9448 24.736 29.9448 25.12ZM45.1933 30C43.9986 30 42.9746 29.7333 42.1213 29.2C41.268 28.656 40.6226 27.936 40.1853 27.04C39.7586 26.1333 39.5453 25.1467 39.5453 24.08C39.5453 22.608 39.716 21.36 40.0573 20.336C40.3986 19.312 41.0653 18.8 42.0573 18.8C42.836 18.8 43.396 19.0293 43.7373 19.488C44.0786 19.9467 44.2493 20.512 44.2493 21.184C44.2493 21.632 44.2066 22.1547 44.1213 22.752C44.036 23.328 43.9933 23.8133 43.9933 24.208C43.9933 24.7307 44.084 25.1787 44.2653 25.552C44.4466 25.9253 44.756 26.112 45.1933 26.112C45.6413 26.112 45.9506 25.9253 46.1213 25.552C46.3026 25.1787 46.3933 24.7307 46.3933 24.208C46.3933 23.8133 46.3506 23.328 46.2653 22.752C46.18 22.1547 46.1373 21.632 46.1373 21.184C46.1373 20.512 46.308 19.9467 46.6493 19.488C46.9906 19.0293 47.5506 18.8 48.3293 18.8C49.3213 18.8 49.988 19.312 50.3293 20.336C50.6706 21.36 50.8413 22.608 50.8413 24.08C50.8413 25.1467 50.6226 26.1333 50.1853 27.04C49.7586 27.936 49.1186 28.656 48.2653 29.2C47.412 29.7333 46.388 30 45.1933 30ZM57.9387 27.104C58.4827 27.168 58.904 27.3067 59.2027 27.52C59.512 27.7227 59.6667 28.048 59.6667 28.496C59.6667 28.944 59.5067 29.2747 59.1867 29.488C58.8774 29.7013 58.504 29.8347 58.0667 29.888C57.6294 29.9307 57.064 29.952 56.3707 29.952C55.688 29.952 55.128 29.9307 54.6907 29.888C54.2534 29.8347 53.88 29.7013 53.5707 29.488C53.2614 29.2747 53.1067 28.944 53.1067 28.496C53.1067 28.0587 53.2507 27.7387 53.5387 27.536C53.8374 27.3227 54.2427 27.1787 54.7547 27.104C54.7014 26.4853 54.6747 25.6 54.6747 24.448C54.6747 23.4133 54.696 22.5813 54.7387 21.952C54.12 21.888 53.6347 21.7387 53.2827 21.504C52.9307 21.2693 52.7547 20.9013 52.7547 20.4C52.7547 19.9093 52.9254 19.5467 53.2667 19.312C53.608 19.0773 54.0187 18.9333 54.4987 18.88C54.9787 18.8267 55.5974 18.8 56.3547 18.8C57.112 18.8 57.7307 18.8267 58.2107 18.88C58.6907 18.9333 59.1014 19.0773 59.4427 19.312C59.7947 19.5467 59.9707 19.9093 59.9707 20.4C59.9707 20.9013 59.7894 21.2693 59.4267 21.504C59.0747 21.7387 58.584 21.888 57.9547 21.952C58.008 22.5387 58.0347 23.3707 58.0347 24.448C58.0347 25.4827 58.0027 26.368 57.9387 27.104ZM73.3698 21.184C73.3698 21.888 73.0765 22.4 72.4898 22.72C71.9138 23.0293 70.9698 23.216 69.6578 23.28C69.7005 23.792 69.7218 24.4533 69.7218 25.264C69.7218 26.3947 69.6578 27.3013 69.5298 27.984C69.4125 28.656 69.2045 29.1573 68.9058 29.488C68.6071 29.808 68.1911 29.968 67.6578 29.968C67.1351 29.968 66.7351 29.7973 66.4578 29.456C66.1805 29.1147 65.9885 28.608 65.8818 27.936C65.7751 27.264 65.7218 26.3733 65.7218 25.264C65.7218 24.5173 65.7378 23.856 65.7698 23.28C64.8845 23.2373 64.1698 23.1467 63.6258 23.008C63.0925 22.8587 62.6978 22.64 62.4418 22.352C62.1858 22.064 62.0578 21.6747 62.0578 21.184C62.0578 20.5867 62.2605 20.1173 62.6658 19.776C63.0711 19.4347 63.6791 19.1947 64.4898 19.056C65.3005 18.9173 66.3618 18.848 67.6738 18.848C68.9965 18.848 70.0685 18.9173 70.8898 19.056C71.7111 19.1947 72.3298 19.4347 72.7458 19.776C73.1618 20.1173 73.3698 20.5867 73.3698 21.184Z" fill="#F7F9EA"/>
<path d="M36.5528 27.152L34.859 26.0885L34.0935 27.3077L35.0067 28.4206L36.5528 27.152ZM37.1928 28.112L35.3238 28.824L35.3325 28.8467L35.3417 28.8693L37.1928 28.112ZM36.9528 29.696L38.3353 31.1413L38.3366 31.14L36.9528 29.696ZM35.3688 29.872L36.2632 28.0831L35.3688 29.872ZM34.3448 29.248L35.4742 27.5974L34.4527 26.8985L33.3714 27.5009L34.3448 29.248ZM32.0248 29.872L32.0033 31.8719L32.0141 31.872H32.0248V29.872ZM29.3048 29.136L28.2692 30.847L28.2824 30.855L28.2957 30.8627L29.3048 29.136ZM27.3688 27.136L25.6215 28.1092L25.6262 28.1176L25.631 28.1259L27.3688 27.136ZM26.6328 24.336L24.6332 24.2948L24.6324 24.3362L24.6332 24.3777L26.6328 24.336ZM27.3848 21.536L29.1172 22.5355L29.1227 22.5259L27.3848 21.536ZM29.3208 19.552L30.3398 21.2729L30.3481 21.268L30.3564 21.263L29.3208 19.552ZM32.0248 18.8L32.0461 16.8001L32.0247 16.7999L32.0033 16.8001L32.0248 18.8ZM34.7448 19.552L33.7092 21.263L33.7224 21.271L33.7357 21.2787L34.7448 19.552ZM36.6968 21.536L38.4347 20.5461L38.4347 20.5461L36.6968 21.536ZM37.4648 24.336L39.4637 24.4026L39.4659 24.3381L39.4638 24.2735L37.4648 24.336ZM30.2488 26.208L31.9685 25.1869L31.9685 25.1869L30.2488 26.208ZM31.0648 27.024L30.0437 28.7437H30.0437L31.0648 27.024ZM32.3128 27.328V29.328H36.1149L33.9609 26.1949L32.3128 27.328ZM31.8168 26.56L33.56 25.5795L33.5546 25.57L33.5492 25.5606L31.8168 26.56ZM31.9608 24.72L30.5466 23.3058L30.5466 23.3058L31.9608 24.72ZM33.7208 24.592L32.6427 26.2765L32.667 26.2921L32.6918 26.307L33.7208 24.592ZM33.9928 24.784L32.7928 26.384L32.8372 26.4173L32.8834 26.4481L33.9928 24.784ZM34.3448 25.056L33.0069 26.5426L36.4773 29.666L36.344 24.9989L34.3448 25.056ZM34.0248 24L32.3196 25.0451H32.3196L34.0248 24ZM33.2248 23.216L32.2205 24.9456H32.2205L33.2248 23.216ZM31.0648 23.232L32.0859 24.9517L32.0859 24.9517L31.0648 23.232ZM30.2488 24.048L31.954 25.0931L31.9614 25.0812L31.9685 25.0691L30.2488 24.048ZM35.0067 28.4206C35.1505 28.596 35.2459 28.7252 35.3047 28.8134C35.3334 28.8565 35.3475 28.8809 35.3517 28.8885C35.3568 28.8979 35.3432 28.8748 35.3238 28.824L39.0618 27.4C38.8511 26.8469 38.4498 26.3109 38.099 25.8834L35.0067 28.4206ZM35.3417 28.8693C35.3576 28.908 35.3368 28.8744 35.3368 28.784H39.3368C39.3368 28.2669 39.2201 27.7853 39.0439 27.3547L35.3417 28.8693ZM35.3368 28.784C35.3368 28.7254 35.3482 28.625 35.3975 28.5079C35.4473 28.3898 35.5148 28.3039 35.569 28.252L38.3366 31.14C38.9963 30.5078 39.3368 29.6778 39.3368 28.784H35.3368ZM35.5704 28.2507C35.6246 28.1989 35.707 28.1404 35.8135 28.0985C35.9187 28.0572 36.0068 28.048 36.0568 28.048V32.048C36.9028 32.048 37.7028 31.7462 38.3353 31.1413L35.5704 28.2507ZM36.0568 28.048C36.1923 28.048 36.2676 28.0853 36.2632 28.0831L34.4744 31.6609C34.9393 31.8933 35.4733 32.048 36.0568 32.048V28.048ZM36.2632 28.0831C36.1 28.0015 35.8423 27.8493 35.4742 27.5974L33.2154 30.8986C33.658 31.2014 34.083 31.4651 34.4744 31.6609L36.2632 28.0831ZM33.3714 27.5009C32.9014 27.7628 32.4608 27.872 32.0248 27.872V31.872C33.1888 31.872 34.2949 31.5652 35.3182 30.9951L33.3714 27.5009ZM32.0463 27.8721C31.3862 27.865 30.8223 27.7063 30.3139 27.4093L28.2957 30.8627C29.43 31.5257 30.6795 31.8576 32.0033 31.8719L32.0463 27.8721ZM30.3404 27.425C29.8285 27.1152 29.422 26.6997 29.1067 26.1461L25.631 28.1259C26.2756 29.2576 27.1598 30.1755 28.2692 30.847L30.3404 27.425ZM29.1161 26.1628C28.8154 25.6231 28.6473 25.0127 28.6324 24.2943L24.6332 24.3777C24.6609 25.7073 24.9835 26.9636 25.6215 28.1092L29.1161 26.1628ZM28.6324 24.3772C28.6473 23.6525 28.8184 23.0533 29.1172 22.5354L25.6524 20.5366C24.9912 21.6827 24.661 22.9501 24.6332 24.2948L28.6324 24.3772ZM29.1227 22.5259C29.4359 21.976 29.8372 21.5705 30.3398 21.2729L28.3018 17.831C27.183 18.4935 26.2937 19.4107 25.647 20.5461L29.1227 22.5259ZM30.3564 21.263C30.8463 20.9665 31.3946 20.8069 32.0463 20.7999L32.0033 16.8001C30.671 16.8144 29.4166 17.1562 28.2852 17.841L30.3564 21.263ZM32.0035 20.7999C32.67 20.807 33.2227 20.9686 33.7092 21.263L35.7804 17.841C34.6456 17.1541 33.385 16.8144 32.0461 16.8001L32.0035 20.7999ZM33.7357 21.2787C34.2475 21.5778 34.6494 21.9824 34.959 22.5259L38.4347 20.5461C37.7843 19.4043 36.8848 18.4862 35.7539 17.8253L33.7357 21.2787ZM34.959 22.5259C35.2685 23.0693 35.4434 23.6813 35.4658 24.3985L39.4638 24.2735C39.4222 22.9427 39.0851 21.688 38.4347 20.5461L34.959 22.5259ZM35.4659 24.2694C35.4472 24.8326 35.2715 25.4316 34.859 26.0885L38.2466 28.2155C38.9861 27.0377 39.4185 25.7594 39.4637 24.4026L35.4659 24.2694ZM27.9448 25.12C27.9448 25.8759 28.1495 26.5897 28.5291 27.2291L31.9685 25.1869C31.9521 25.1592 31.9479 25.1449 31.947 25.1418C31.9463 25.1391 31.9448 25.1337 31.9448 25.12H27.9448ZM28.5291 27.2291C28.9026 27.858 29.4148 28.3703 30.0437 28.7437L32.0859 25.3043C32.0322 25.2724 32.0004 25.2406 31.9685 25.1869L28.5291 27.2291ZM30.0437 28.7437C30.6831 29.1234 31.397 29.328 32.1528 29.328V25.328C32.1391 25.328 32.1337 25.3265 32.131 25.3258C32.128 25.3249 32.1136 25.3207 32.0859 25.3043L30.0437 28.7437ZM32.1528 29.328H32.3128V25.328H32.1528V29.328ZM33.9609 26.1949C33.7315 25.8612 33.6093 25.6671 33.56 25.5795L30.0737 27.5405C30.2163 27.7942 30.4248 28.1121 30.6647 28.4611L33.9609 26.1949ZM33.5492 25.5606C33.5504 25.5626 33.5589 25.5783 33.5663 25.6058C33.5739 25.6336 33.5768 25.66 33.5768 25.68H29.5768C29.5768 26.3528 29.7555 26.9893 30.0844 27.5594L33.5492 25.5606ZM33.5768 25.68C33.5768 25.7134 33.5705 25.793 33.5298 25.8948C33.4881 25.9989 33.4287 26.0805 33.375 26.1342L30.5466 23.3058C29.891 23.9614 29.5768 24.8013 29.5768 25.68H33.5768ZM33.375 26.1342C33.3324 26.1768 33.257 26.2356 33.1495 26.28C33.0422 26.3245 32.9478 26.336 32.8888 26.336V22.336C31.9967 22.336 31.1784 22.674 30.5466 23.3058L33.375 26.1342ZM32.8888 26.336C32.8319 26.336 32.7751 26.3271 32.7246 26.3116C32.6755 26.2965 32.6479 26.2799 32.6427 26.2765L34.7989 22.9075C34.2436 22.552 33.5965 22.336 32.8888 22.336V26.336ZM32.6918 26.307C32.68 26.2999 32.6713 26.2944 32.6665 26.2913C32.6615 26.2882 32.6587 26.2863 32.6584 26.2861C32.6582 26.2859 32.6635 26.2895 32.6754 26.2979C32.6999 26.3152 32.7381 26.343 32.7928 26.384L35.1928 23.184C35.069 23.0911 34.9026 22.9687 34.7498 22.877L32.6918 26.307ZM32.8834 26.4481C32.9368 26.4837 32.9769 26.5156 33.0069 26.5426L35.6827 23.5694C35.4994 23.4044 35.3049 23.255 35.1022 23.1199L32.8834 26.4481ZM36.344 24.9989C36.323 24.2624 36.108 23.5716 35.73 22.9549L32.3196 25.0451C32.3366 25.0729 32.3415 25.088 32.3428 25.092C32.3439 25.0956 32.3453 25.101 32.3456 25.1131L36.344 24.9989ZM35.73 22.9549C35.3566 22.3457 34.8508 21.8474 34.2291 21.4864L32.2205 24.9456C32.2602 24.9686 32.2876 24.993 32.3196 25.0451L35.73 22.9549ZM34.2291 21.4864C33.592 21.1165 32.888 20.928 32.1528 20.928V24.928C32.1762 24.928 32.1868 24.9307 32.1899 24.9315C32.193 24.9323 32.2023 24.935 32.2205 24.9456L34.2291 21.4864ZM32.1528 20.928C31.397 20.928 30.6831 21.1326 30.0437 21.5123L32.0859 24.9517C32.1136 24.9353 32.128 24.9311 32.131 24.9302C32.1337 24.9295 32.1391 24.928 32.1528 24.928V20.928ZM30.0437 21.5123C29.4148 21.8857 28.9026 22.3979 28.5291 23.0269L31.9685 25.0691C32.0004 25.0154 32.0322 24.9836 32.0859 24.9517L30.0437 21.5123ZM28.5436 23.0029C28.1502 23.6447 27.9448 24.3632 27.9448 25.12H31.9448C31.9448 25.1122 31.9453 25.1084 31.9454 25.1079C31.9455 25.1074 31.9454 25.1082 31.9449 25.1096C31.9445 25.1111 31.9444 25.1112 31.9452 25.1093C31.946 25.1074 31.9485 25.1021 31.954 25.0931L28.5436 23.0029ZM42.1213 29.2L41.0462 30.8865L41.0537 30.8913L41.0613 30.896L42.1213 29.2ZM40.1853 27.04L38.3757 27.8916L38.3817 27.9045L38.388 27.9173L40.1853 27.04ZM40.0573 20.336L41.9547 20.9685L40.0573 20.336ZM43.7373 19.488L42.1328 20.682L42.1328 20.682L43.7373 19.488ZM44.1213 22.752L46.0997 23.0451L46.1012 23.0348L44.1213 22.752ZM44.2653 25.552L46.0643 24.6782L46.0643 24.6782L44.2653 25.552ZM46.1213 25.552L44.3223 24.6782L44.3121 24.6992L44.3024 24.7205L46.1213 25.552ZM46.2653 22.752L44.2854 23.0348L44.2869 23.0451L46.2653 22.752ZM46.6493 19.488L48.2538 20.682V20.682L46.6493 19.488ZM50.3293 20.336L52.2267 19.7035V19.7035L50.3293 20.336ZM50.1853 27.04L48.3839 26.1711L48.3796 26.1801L50.1853 27.04ZM48.2653 29.2L49.3253 30.896L49.3329 30.8913L49.3404 30.8865L48.2653 29.2ZM45.1933 28C44.3025 28 43.6615 27.8041 43.1813 27.504L41.0613 30.896C42.2878 31.6625 43.6948 32 45.1933 32V28ZM43.1964 27.5135C42.6489 27.1645 42.2558 26.7224 41.9826 26.1627L38.388 27.9173C38.9895 29.1496 39.8871 30.1475 41.0462 30.8865L43.1964 27.5135ZM41.995 26.1884C41.7016 25.5651 41.5453 24.8716 41.5453 24.08H37.5453C37.5453 25.4217 37.8156 26.7015 38.3757 27.8916L41.995 26.1884ZM41.5453 24.08C41.5453 22.7503 41.701 21.7295 41.9547 20.9685L38.1599 19.7035C37.7309 20.9905 37.5453 22.4657 37.5453 24.08H41.5453ZM41.9547 20.9685C41.9946 20.8487 42.0301 20.7861 42.0464 20.7613C42.0609 20.7392 42.0582 20.7497 42.0315 20.7702C42.0036 20.7916 41.9764 20.8033 41.9642 20.807C41.9554 20.8097 41.9813 20.8 42.0573 20.8V16.8C41.203 16.8 40.3379 17.0273 39.5951 17.5978C38.8664 18.1575 38.4212 18.9199 38.1599 19.7035L41.9547 20.9685ZM42.0573 20.8C42.258 20.8 42.3221 20.8305 42.3034 20.8228C42.2916 20.818 42.2629 20.8044 42.2268 20.7768C42.1901 20.7488 42.1578 20.7156 42.1328 20.682L45.3418 18.294C44.4968 17.1585 43.2216 16.8 42.0573 16.8V20.8ZM42.1328 20.682C42.1744 20.7378 42.2493 20.8642 42.2493 21.184H46.2493C46.2493 20.1598 45.9829 19.1555 45.3418 18.294L42.1328 20.682ZM42.2493 21.184C42.2493 21.5114 42.2176 21.9357 42.1414 22.4692L46.1012 23.0348C46.1957 22.3737 46.2493 21.7526 46.2493 21.184H42.2493ZM42.1429 22.4589C42.0493 23.0909 41.9933 23.681 41.9933 24.208H45.9933C45.9933 23.9456 46.0227 23.5651 46.0997 23.0451L42.1429 22.4589ZM41.9933 24.208C41.9933 24.957 42.123 25.7189 42.4663 26.4258L46.0643 24.6782C46.045 24.6384 45.9933 24.5043 45.9933 24.208H41.9933ZM42.4663 26.4258C42.7 26.9071 43.0673 27.3629 43.6 27.6844C44.1263 28.002 44.6873 28.112 45.1933 28.112V24.112C45.262 24.112 45.4497 24.1287 45.6666 24.2596C45.89 24.3944 46.0119 24.5703 46.0643 24.6782L42.4663 26.4258ZM45.1933 28.112C45.6946 28.112 46.2613 28.0062 46.7946 27.6844C47.3394 27.3557 47.7112 26.8846 47.9403 26.3835L44.3024 24.7205C44.3608 24.5927 44.4926 24.4017 44.728 24.2596C44.952 24.1244 45.14 24.112 45.1933 24.112V28.112ZM47.9203 26.4258C48.2637 25.7189 48.3933 24.957 48.3933 24.208H44.3933C44.3933 24.5043 44.3416 24.6384 44.3223 24.6782L47.9203 26.4258ZM48.3933 24.208C48.3933 23.681 48.3374 23.0909 48.2437 22.4589L44.2869 23.0451C44.3639 23.5651 44.3933 23.9456 44.3933 24.208H48.3933ZM48.2452 22.4692C48.169 21.9357 48.1373 21.5114 48.1373 21.184H44.1373C44.1373 21.7526 44.191 22.3737 44.2854 23.0348L48.2452 22.4692ZM48.1373 21.184C48.1373 20.8642 48.2122 20.7378 48.2538 20.682L45.0448 18.294C44.4037 19.1555 44.1373 20.1598 44.1373 21.184H48.1373ZM48.2538 20.682C48.2288 20.7156 48.1965 20.7488 48.1598 20.7768C48.1237 20.8044 48.095 20.818 48.0833 20.8228C48.0645 20.8305 48.1287 20.8 48.3293 20.8V16.8C47.1651 16.8 45.8899 17.1585 45.0448 18.294L48.2538 20.682ZM48.3293 20.8C48.4054 20.8 48.4312 20.8097 48.4224 20.807C48.4102 20.8033 48.3831 20.7916 48.3551 20.7702C48.3285 20.7497 48.3257 20.7392 48.3402 20.7613C48.3565 20.7861 48.392 20.8487 48.4319 20.9685L52.2267 19.7035C51.9655 18.9199 51.5202 18.1575 50.7915 17.5978C50.0487 17.0273 49.1836 16.8 48.3293 16.8V20.8ZM48.4319 20.9685C48.6856 21.7295 48.8413 22.7503 48.8413 24.08H52.8413C52.8413 22.4657 52.6557 20.9905 52.2267 19.7035L48.4319 20.9685ZM48.8413 24.08C48.8413 24.8641 48.6828 25.5515 48.3839 26.1711L51.9867 27.9089C52.5625 26.7152 52.8413 25.4292 52.8413 24.08H48.8413ZM48.3796 26.1801C48.1175 26.7306 47.7339 27.1669 47.1902 27.5135L49.3404 30.8865C50.5034 30.1451 51.3998 29.1414 51.991 27.8999L48.3796 26.1801ZM47.2053 27.504C46.7251 27.8041 46.0841 28 45.1933 28V32C46.6918 32 48.0989 31.6625 49.3253 30.896L47.2053 27.504ZM57.9387 27.104L55.9462 26.9307L55.7781 28.8636L57.705 29.0903L57.9387 27.104ZM59.2027 27.52L58.0402 29.1475L58.073 29.1709L58.1066 29.1929L59.2027 27.52ZM59.1867 29.488L58.0773 27.8239L58.0642 27.8326L58.0512 27.8416L59.1867 29.488ZM58.0667 29.888L58.2609 31.8785L58.2849 31.8762L58.3088 31.8733L58.0667 29.888ZM54.6907 29.888L54.4486 31.8733L54.4725 31.8762L54.4965 31.8785L54.6907 29.888ZM53.5707 29.488L54.7062 27.8416L53.5707 29.488ZM53.5387 27.536L54.6897 29.1717L54.7012 29.1635L53.5387 27.536ZM54.7547 27.104L55.0433 29.0831L56.9093 28.8109L56.7473 26.9322L54.7547 27.104ZM54.7387 21.952L56.7341 22.0873L56.8647 20.1613L54.9445 19.9626L54.7387 21.952ZM53.2827 21.504L52.1733 23.1681L53.2827 21.504ZM53.2667 19.312L54.3997 20.9601H54.3997L53.2667 19.312ZM58.2107 18.88L58.4316 16.8922V16.8922L58.2107 18.88ZM59.4427 19.312L58.3096 20.9601L58.3214 20.9682L58.3333 20.9761L59.4427 19.312ZM59.4267 21.504L58.3402 19.8249L58.3287 19.8323L58.3173 19.8399L59.4267 21.504ZM57.9547 21.952L57.7523 19.9623L55.7838 20.1625L55.9629 22.1331L57.9547 21.952ZM57.705 29.0903C57.8736 29.1101 57.9796 29.1367 58.0375 29.1558C58.0949 29.1747 58.0853 29.1796 58.0402 29.1475L60.3652 25.8925C59.6897 25.4101 58.8989 25.2032 58.1724 25.1177L57.705 29.0903ZM58.1066 29.1929C57.9629 29.0988 57.829 28.9526 57.7444 28.7747C57.667 28.6119 57.6667 28.4985 57.6667 28.496H61.6667C61.6667 27.5375 61.2967 26.5009 60.2987 25.8471L58.1066 29.1929ZM57.6667 28.496C57.6667 28.4834 57.6693 28.3682 57.7464 28.2089C57.8292 28.0376 57.9549 27.9055 58.0773 27.8239L60.2961 31.1521C61.2711 30.5021 61.6667 29.4848 61.6667 28.496H57.6667ZM58.0512 27.8416C58.0503 27.8422 57.9965 27.8817 57.8246 27.9027L58.3088 31.8733C59.0116 31.7876 59.7044 31.5605 60.3222 31.1344L58.0512 27.8416ZM57.8725 27.8975C57.5254 27.9313 57.0316 27.952 56.3707 27.952V31.952C57.0965 31.952 57.7333 31.93 58.2609 31.8785L57.8725 27.8975ZM56.3707 27.952C55.7217 27.952 55.2327 27.9314 54.8849 27.8975L54.4965 31.8785C55.0234 31.93 55.6544 31.952 56.3707 31.952V27.952ZM54.9328 27.9027C54.7609 27.8817 54.7071 27.8422 54.7062 27.8416L52.4352 31.1344C53.053 31.5605 53.7458 31.7876 54.4486 31.8733L54.9328 27.9027ZM54.7062 27.8416C54.8348 27.9303 54.9566 28.0666 55.0343 28.2326C55.106 28.3858 55.1067 28.4923 55.1067 28.496H51.1067C51.1067 29.4569 51.4755 30.4726 52.4352 31.1344L54.7062 27.8416ZM55.1067 28.496C55.1067 28.4961 55.1067 28.5021 55.1057 28.5133C55.1047 28.5245 55.1027 28.5416 55.0985 28.5636C55.09 28.608 55.0728 28.6725 55.0385 28.7487C54.9628 28.917 54.8379 29.0673 54.6897 29.1716L52.3877 25.9004C51.4374 26.5691 51.1067 27.5848 51.1067 28.496H55.1067ZM54.7012 29.1635C54.6756 29.1817 54.6797 29.1727 54.7362 29.1526C54.7934 29.1323 54.8919 29.1051 55.0433 29.0831L54.4661 25.1249C53.7602 25.2279 53.0181 25.45 52.3762 25.9085L54.7012 29.1635ZM56.7473 26.9322C56.7014 26.3998 56.6747 25.5822 56.6747 24.448H52.6747C52.6747 25.6178 52.7013 26.5708 52.7621 27.2758L56.7473 26.9322ZM56.6747 24.448C56.6747 23.4339 56.6958 22.6524 56.7341 22.0873L52.7433 21.8167C52.6962 22.5103 52.6747 23.3928 52.6747 24.448H56.6747ZM54.9445 19.9626C54.7371 19.9412 54.5928 19.9094 54.4989 19.8804C54.4053 19.8516 54.3788 19.8311 54.3921 19.8399L52.1733 23.1681C52.8929 23.6478 53.7318 23.8585 54.5329 23.9414L54.9445 19.9626ZM54.3921 19.8399C54.504 19.9145 54.6177 20.036 54.691 20.1891C54.7579 20.329 54.7547 20.419 54.7547 20.4H50.7547C50.7547 21.4273 51.1558 22.4898 52.1733 23.1681L54.3921 19.8399ZM54.7547 20.4C54.7547 20.3844 54.7572 20.4737 54.6923 20.6116C54.6215 20.7621 54.511 20.8836 54.3997 20.9601L52.1336 17.6639C51.144 18.3443 50.7547 19.3902 50.7547 20.4H54.7547ZM54.3997 20.9601C54.4278 20.9408 54.5124 20.8908 54.7196 20.8678L54.2778 16.8922C53.525 16.9759 52.7883 17.2138 52.1336 17.6639L54.3997 20.9601ZM54.7196 20.8678C55.0973 20.8258 55.6348 20.8 56.3547 20.8V16.8C55.5599 16.8 54.8601 16.8275 54.2778 16.8922L54.7196 20.8678ZM56.3547 20.8C57.0746 20.8 57.6121 20.8258 57.9898 20.8678L58.4316 16.8922C57.8493 16.8275 57.1495 16.8 56.3547 16.8V20.8ZM57.9898 20.8678C58.1969 20.8908 58.2816 20.9408 58.3096 20.9601L60.5757 17.6639C59.9211 17.2138 59.1844 16.9759 58.4316 16.8922L57.9898 20.8678ZM58.3333 20.9761C58.2283 20.9061 58.1147 20.7883 58.0394 20.6332C57.9697 20.4897 57.9707 20.3926 57.9707 20.4H61.9707C61.9707 19.3647 61.5564 18.3174 60.5521 17.6479L58.3333 20.9761ZM57.9707 20.4C57.9707 20.411 57.9691 20.3133 58.0407 20.168C58.1183 20.0105 58.2349 19.893 58.3402 19.8249L60.5132 23.1831C61.5446 22.5158 61.9707 21.4526 61.9707 20.4H57.9707ZM58.3173 19.8399C58.3341 19.8287 58.309 19.8492 58.2124 19.8787C58.1156 19.9081 57.9667 19.9405 57.7523 19.9623L58.157 23.9417C58.9629 23.8598 59.8115 23.6512 60.5361 23.1681L58.3173 19.8399ZM55.9629 22.1331C56.008 22.6294 56.0347 23.3904 56.0347 24.448H60.0347C60.0347 23.3509 60.008 22.448 59.9465 21.7709L55.9629 22.1331ZM56.0347 24.448C56.0347 25.4458 56.0037 26.27 55.9462 26.9307L59.9312 27.2773C60.0017 26.466 60.0347 25.5196 60.0347 24.448H56.0347ZM72.4898 22.72L73.4361 24.482L73.4475 24.4758L72.4898 22.72ZM69.6578 23.28L69.5604 21.2824L67.4928 21.3832L67.6647 23.4461L69.6578 23.28ZM69.5298 27.984L67.5641 27.6154L67.5618 27.6277L67.5596 27.64L69.5298 27.984ZM68.9058 29.488L70.3679 30.8526L70.3791 30.8407L70.39 30.8286L68.9058 29.488ZM66.4578 29.456L68.01 28.1948L66.4578 29.456ZM65.8818 27.936L63.9065 28.2495V28.2495L65.8818 27.936ZM65.7698 23.28L67.7667 23.3909L67.8785 21.3793L65.8661 21.2823L65.7698 23.28ZM63.6258 23.008L63.0866 24.9339L63.1091 24.9402L63.1318 24.946L63.6258 23.008ZM62.4418 22.352L60.947 23.6807L62.4418 22.352ZM62.6658 19.776L61.3775 18.2462L61.3775 18.2462L62.6658 19.776ZM64.4898 19.056L64.1526 17.0846L64.4898 19.056ZM72.7458 19.776L74.0144 18.2299V18.2299L72.7458 19.776ZM71.3698 21.184C71.3698 21.2547 71.357 21.2021 71.4144 21.1018C71.441 21.0555 71.4723 21.0177 71.5008 20.9907C71.5281 20.9649 71.543 20.9583 71.5321 20.9642L73.4475 24.4758C74.0214 24.1628 74.5312 23.708 74.8852 23.0902C75.236 22.4779 75.3698 21.8173 75.3698 21.184H71.3698ZM71.5436 20.958C71.3809 21.0454 70.8161 21.2211 69.5604 21.2824L69.7553 25.2776C71.1235 25.2109 72.4468 25.0133 73.4361 24.482L71.5436 20.958ZM67.6647 23.4461C67.701 23.8808 67.7218 24.4811 67.7218 25.264H71.7218C71.7218 24.4256 71.7 23.7032 71.6509 23.1139L67.6647 23.4461ZM67.7218 25.264C67.7218 26.3376 67.6596 27.1058 67.5641 27.6154L71.4956 28.3526C71.656 27.4969 71.7218 26.4518 71.7218 25.264H67.7218ZM67.5596 27.64C67.5201 27.8663 67.4739 28.0122 67.4385 28.0976C67.4035 28.182 67.3888 28.1837 67.4216 28.1474L70.39 30.8286C71.042 30.1068 71.3497 29.1889 71.5 28.328L67.5596 27.64ZM67.4437 28.1234C67.4713 28.0938 67.5053 28.0642 67.5447 28.0377C67.5839 28.0114 67.6211 27.9931 67.6519 27.9813C67.7131 27.9577 67.7261 27.968 67.6578 27.968V31.968C68.6151 31.968 69.6104 31.6643 70.3679 30.8526L67.4437 28.1234ZM67.6578 27.968C67.6129 27.968 67.6578 27.9608 67.7507 28.0004C67.8532 28.0442 67.9461 28.1162 68.01 28.1948L64.9056 30.7172C65.6357 31.6158 66.659 31.968 67.6578 31.968V27.968ZM68.01 28.1948C68.0333 28.2235 68.0131 28.2092 67.976 28.1113C67.9389 28.0133 67.8942 27.8561 67.8571 27.6225L63.9065 28.2495C64.0408 29.0952 64.3168 29.9925 64.9056 30.7172L68.01 28.1948ZM67.8571 27.6225C67.7739 27.0981 67.7218 26.3249 67.7218 25.264H63.7218C63.7218 26.4217 63.7764 27.4299 63.9065 28.2495L67.8571 27.6225ZM67.7218 25.264C67.7218 24.5442 67.7373 23.9211 67.7667 23.3909L63.7729 23.1691C63.7383 23.7909 63.7218 24.4904 63.7218 25.264H67.7218ZM65.8661 21.2823C65.0475 21.2429 64.4813 21.1621 64.1198 21.07L63.1318 24.946C63.8583 25.1312 64.7215 25.2318 65.6735 25.2777L65.8661 21.2823ZM64.1651 21.0821C64.0156 21.0402 63.9338 21.0018 63.8991 20.9826C63.8664 20.9645 63.8913 20.9722 63.9366 21.0233L60.947 23.6807C61.5461 24.3547 62.3375 24.7242 63.0866 24.9339L64.1651 21.0821ZM63.9366 21.0233C64.0018 21.0966 64.0378 21.1709 64.0538 21.2194C64.0676 21.2615 64.0578 21.2577 64.0578 21.184H60.0578C60.0578 22.0264 60.2842 22.9351 60.947 23.6807L63.9366 21.0233ZM64.0578 21.184C64.0578 21.1126 64.0694 21.1226 64.0459 21.1769C64.0348 21.2028 64.0191 21.2303 63.9998 21.256C63.9807 21.2815 63.9635 21.2979 63.9541 21.3058L61.3775 18.2462C60.4602 19.0186 60.0578 20.081 60.0578 21.184H64.0578ZM63.9541 21.3058C63.9767 21.2868 64.19 21.1363 64.827 21.0274L64.1526 17.0846C63.1683 17.253 62.1656 17.5826 61.3775 18.2462L63.9541 21.3058ZM64.827 21.0274C65.4808 20.9155 66.4167 20.848 67.6738 20.848V16.848C66.3069 16.848 65.1201 16.9191 64.1526 17.0846L64.827 21.0274ZM67.6738 20.848C68.9417 20.848 69.8901 20.9155 70.5569 21.0281L71.2228 17.0839C70.2469 16.9192 69.0513 16.848 67.6738 16.848V20.848ZM70.5569 21.0281C71.2066 21.1378 71.4394 21.2911 71.4772 21.3221L74.0144 18.2299C73.2203 17.5782 72.2157 17.2516 71.2228 17.0839L70.5569 21.0281ZM71.4772 21.3221C71.4698 21.3161 71.4533 21.3011 71.434 21.2759C71.4144 21.2505 71.3977 21.2222 71.3853 21.1943C71.3592 21.1355 71.3698 21.1192 71.3698 21.184H75.3698C75.3698 20.0624 74.9482 18.996 74.0144 18.2299L71.4772 21.3221Z" fill="#4B371F" mask="url(#path-4-outside-1_674_10823)"/>
</svg>
