<svg width="242" height="56" viewBox="0 0 242 56" fill="none" xmlns="http://www.w3.org/2000/svg">
<rect x="1" y="1" width="240" height="54" rx="19" fill="#FFB050" stroke="#4B371F" stroke-width="2"/>
<rect x="7" y="7" width="228" height="42" rx="15" fill="#FFCF23" stroke="#AF7026" stroke-width="2"/>
<path d="M12 19.5C12.1667 17 15 11.5 21.5 11M30 11H66" stroke="white" stroke-width="3" stroke-linecap="round" stroke-linejoin="round"/>
<mask id="path-4-outside-1_662_2475" maskUnits="userSpaceOnUse" x="25" y="17" width="192" height="24" fill="black">
<rect fill="white" x="25" y="17" width="192" height="24"/>
<path d="M37.036 37.974C35.06 37.974 33.37 37.6273 31.966 36.934C30.562 36.2407 29.4873 35.2527 28.742 33.97C28.014 32.67 27.65 31.136 27.65 29.368C27.65 27.2533 28.092 25.4767 28.976 24.038C29.8773 22.5993 31.0387 21.5333 32.46 20.84C33.8813 20.1467 35.372 19.8 36.932 19.8C38.3187 19.8 39.5407 20.008 40.598 20.424C41.6553 20.84 42.47 21.386 43.042 22.062C43.614 22.738 43.9 23.4487 43.9 24.194C43.9 25.2687 43.6227 26.04 43.068 26.508C42.5133 26.9587 41.8287 27.184 41.014 27.184C40.6327 27.184 40.2947 27.1493 40 27.08C39.7227 27.0107 39.428 26.9153 39.116 26.794C38.7693 26.6727 38.4573 26.586 38.18 26.534C37.92 26.4647 37.5907 26.43 37.192 26.43C36.048 26.43 35.1467 26.7767 34.488 27.47C33.8293 28.146 33.5 29.108 33.5 30.356C33.5 31.4133 33.8207 32.228 34.462 32.8C35.1033 33.372 35.9007 33.658 36.854 33.658C37.3913 33.658 37.8593 33.5887 38.258 33.45C38.6567 33.3113 38.96 33.1553 39.168 32.982C39.376 32.8087 39.48 32.67 39.48 32.566C38.2147 32.566 37.2527 32.4187 36.594 32.124C35.9353 31.8293 35.606 31.318 35.606 30.59C35.606 29.862 35.8573 29.2987 36.36 28.9C36.8627 28.484 37.712 28.276 38.908 28.276C40.1387 28.276 41.1007 28.4233 41.794 28.718C42.4873 28.9953 42.9813 29.4373 43.276 30.044C43.5707 30.6333 43.718 31.422 43.718 32.41C43.718 33.4153 43.4147 34.3427 42.808 35.192C42.2187 36.0413 41.404 36.7173 40.364 37.22C39.3413 37.7227 38.232 37.974 37.036 37.974ZM53.0209 38C51.7383 38 50.6029 37.7487 49.6149 37.246C48.6269 36.7433 47.8556 36.0413 47.3009 35.14C46.7636 34.2213 46.4949 33.19 46.4949 32.046C46.4949 30.9193 46.7636 29.8793 47.3009 28.926C47.8556 27.9727 48.6183 27.21 49.5889 26.638C50.5596 26.066 51.6603 25.78 52.8909 25.78C54.0003 25.78 54.9796 26.0053 55.8289 26.456C56.6783 26.9067 57.3283 27.5047 57.7789 28.25C58.2296 28.978 58.4549 29.7407 58.4549 30.538C58.4549 31.838 57.9609 32.7913 56.9729 33.398C56.0023 33.9873 54.8409 34.282 53.4889 34.282C52.5876 34.282 51.8249 34.1693 51.2009 33.944C51.7209 34.7933 52.5789 35.218 53.7749 35.218C54.2603 35.218 54.7803 35.1573 55.3349 35.036C55.5429 34.984 55.7423 34.958 55.9329 34.958C56.3143 34.958 56.6176 35.0533 56.8429 35.244C57.0856 35.4347 57.2069 35.6947 57.2069 36.024C57.2069 36.5613 56.8776 37.0293 56.2189 37.428C55.5603 37.8093 54.4943 38 53.0209 38ZM51.2789 30.772C51.4349 31.0147 51.6429 31.1967 51.9029 31.318C52.1803 31.422 52.4836 31.474 52.8129 31.474C53.1943 31.474 53.5236 31.3873 53.8009 31.214C54.0956 31.0407 54.2429 30.8153 54.2429 30.538C54.2429 30.226 54.1129 29.9573 53.8529 29.732C53.6103 29.5067 53.2549 29.394 52.7869 29.394C52.3189 29.394 51.9463 29.5413 51.6689 29.836C51.4089 30.1133 51.2789 30.4253 51.2789 30.772ZM73.229 26.742C73.229 27.6433 72.8043 28.2587 71.955 28.588C71.1057 28.9 69.9443 29.0647 68.471 29.082C68.4537 29.5153 68.445 30.2173 68.445 31.188C68.445 32.176 68.5143 32.878 68.653 33.294C68.7397 33.5887 68.8697 33.7793 69.043 33.866C69.2337 33.9527 69.511 34.0133 69.875 34.048C69.9963 34.0653 70.1263 34.0913 70.265 34.126C70.421 34.1433 70.5943 34.1693 70.785 34.204C71.1837 34.2907 71.4957 34.5073 71.721 34.854C71.9463 35.1833 72.059 35.608 72.059 36.128C72.059 36.7173 71.7557 37.1767 71.149 37.506C70.5423 37.8353 69.7103 38 68.653 38C67.6823 38 66.755 37.7227 65.871 37.168C64.987 36.596 64.3803 35.8333 64.051 34.88C63.7043 33.8573 63.531 31.9247 63.531 29.082C62.3177 29.0473 61.3383 28.8913 60.593 28.614C59.865 28.3193 59.501 27.7993 59.501 27.054C59.501 26.118 59.8477 25.494 60.541 25.182C61.2343 24.8527 62.231 24.6793 63.531 24.662C63.583 23.2753 63.7997 22.1227 64.181 21.204C64.5623 20.268 65.247 19.8 66.235 19.8C67.2403 19.8 67.8903 20.2333 68.185 21.1C68.497 21.9667 68.6357 23.154 68.601 24.662C70.1783 24.6447 71.3397 24.766 72.085 25.026C72.8477 25.286 73.229 25.858 73.229 26.742ZM102.268 26.17C102.268 28.3193 101.748 30.0353 100.708 31.318C99.6682 32.5833 98.2382 33.424 96.4182 33.84C96.4355 34.0827 96.4442 34.4553 96.4442 34.958C96.4442 35.9287 96.1582 36.6827 95.5862 37.22C95.0315 37.74 94.3642 38 93.5842 38C92.7522 38 92.0242 37.7313 91.4002 37.194C90.7762 36.6393 90.4642 35.894 90.4642 34.958C90.4642 34.4207 90.4728 34.0307 90.4902 33.788C88.7742 33.3373 87.4135 32.4967 86.4082 31.266C85.4202 30.0353 84.9262 28.4407 84.9262 26.482C84.9262 24.4193 85.2728 22.7987 85.9662 21.62C86.6595 20.4413 87.6822 19.852 89.0342 19.852C90.0048 19.852 90.7762 20.1467 91.3482 20.736C91.9202 21.308 92.2062 22.1053 92.2062 23.128C92.2062 23.4053 92.1628 24.0467 92.0762 25.052C92.0068 25.676 91.9722 26.066 91.9722 26.222C91.9722 26.95 92.0935 27.5047 92.3362 27.886C92.5962 28.2673 93.0122 28.458 93.5842 28.458C94.1562 28.458 94.5635 28.2673 94.8062 27.886C95.0662 27.5047 95.1962 26.95 95.1962 26.222C95.1962 26.0487 95.1615 25.65 95.0922 25.026C95.0055 23.986 94.9622 23.3447 94.9622 23.102C94.9622 22.0967 95.2568 21.308 95.8462 20.736C96.4355 20.1467 97.2068 19.852 98.1602 19.852C99.5122 19.852 100.535 20.424 101.228 21.568C101.922 22.712 102.268 24.246 102.268 26.17ZM110.068 38.026C108.82 38.0433 107.702 37.7833 106.714 37.246C105.743 36.7087 104.981 35.972 104.426 35.036C103.889 34.0827 103.603 33.0253 103.568 31.864C103.551 30.7027 103.819 29.6627 104.374 28.744C104.929 27.8253 105.7 27.0973 106.688 26.56C107.693 26.0227 108.82 25.754 110.068 25.754C111.281 25.754 112.373 26.014 113.344 26.534C114.332 27.054 115.112 27.782 115.684 28.718C116.256 29.654 116.559 30.7027 116.594 31.864C116.611 32.9907 116.343 34.022 115.788 34.958C115.233 35.8767 114.453 36.6133 113.448 37.168C112.46 37.7227 111.333 38.0087 110.068 38.026ZM110.146 34.23C110.614 34.23 111.021 34.048 111.368 33.684C111.715 33.32 111.888 32.8953 111.888 32.41C111.888 31.9247 111.715 31.5087 111.368 31.162C111.021 30.798 110.614 30.616 110.146 30.616C109.678 30.616 109.271 30.798 108.924 31.162C108.577 31.5087 108.404 31.9247 108.404 32.41C108.404 32.8953 108.577 33.32 108.924 33.684C109.271 34.048 109.678 34.23 110.146 34.23ZM124.972 38C123.707 38 122.598 37.688 121.644 37.064C120.691 36.4227 119.954 35.5387 119.434 34.412C118.932 33.268 118.68 31.9507 118.68 30.46C118.68 29.004 118.914 27.86 119.382 27.028C119.85 26.196 120.5 25.78 121.332 25.78C122.806 25.78 123.542 26.534 123.542 28.042C123.542 28.354 123.534 28.6313 123.516 28.874C123.499 29.0993 123.482 29.2987 123.464 29.472C123.395 30.1653 123.36 30.72 123.36 31.136C123.36 31.8987 123.516 32.4793 123.828 32.878C124.14 33.2767 124.522 33.476 124.972 33.476C125.44 33.476 125.822 33.2853 126.116 32.904C126.428 32.5053 126.584 31.916 126.584 31.136C126.584 30.5813 126.558 30.07 126.506 29.602C126.489 29.446 126.472 29.2207 126.454 28.926C126.437 28.614 126.428 28.328 126.428 28.068C126.428 26.5427 127.165 25.78 128.638 25.78C129.47 25.78 130.112 26.196 130.562 27.028C131.03 27.8427 131.264 28.9867 131.264 30.46C131.264 32.7653 130.727 34.6027 129.652 35.972C128.578 37.324 127.018 38 124.972 38ZM136.219 38C135.11 38 134.365 37.35 133.983 36.05C133.619 34.75 133.437 32.956 133.437 30.668C133.437 29.628 133.481 28.7613 133.567 28.068C133.671 27.3573 133.905 26.7593 134.269 26.274C134.651 25.7713 135.231 25.52 136.011 25.52C136.497 25.52 136.921 25.6327 137.285 25.858C137.667 26.0833 137.909 26.404 138.013 26.82C138.395 26.4733 138.889 26.2133 139.495 26.04C140.102 25.8667 140.752 25.78 141.445 25.78C142 25.78 142.563 25.9187 143.135 26.196C143.725 26.4733 144.21 26.8547 144.591 27.34C144.99 27.808 145.189 28.3193 145.189 28.874C145.189 29.4287 144.99 29.9227 144.591 30.356C144.21 30.772 143.699 30.98 143.057 30.98C142.849 30.98 142.65 30.954 142.459 30.902C142.286 30.85 142.13 30.798 141.991 30.746C141.645 30.6073 141.367 30.538 141.159 30.538C140.483 30.538 139.885 30.8067 139.365 31.344C138.863 31.864 138.611 32.54 138.611 33.372C138.611 34.2907 138.577 35.0533 138.507 35.66C138.438 36.2667 138.23 36.8127 137.883 37.298C137.537 37.766 136.982 38 136.219 38ZM165.489 37.974C162.612 37.9567 160.454 37.246 159.015 35.842C157.594 34.438 156.883 32.1587 156.883 29.004C156.883 26.144 157.577 23.8993 158.963 22.27C160.35 20.6233 162.309 19.8 164.839 19.8C166.399 19.8 167.76 20.034 168.921 20.502C170.083 20.97 170.975 21.6373 171.599 22.504C172.223 23.3707 172.535 24.3933 172.535 25.572C172.535 26.508 172.327 27.34 171.911 28.068C171.513 28.796 170.915 29.446 170.117 30.018C170.759 30.122 171.313 30.4687 171.781 31.058C172.267 31.6473 172.509 32.332 172.509 33.112C172.509 33.944 172.284 34.7327 171.833 35.478C171.4 36.206 170.655 36.804 169.597 37.272C168.557 37.74 167.188 37.974 165.489 37.974ZM163.695 28.276C164.007 28.432 164.397 28.51 164.865 28.51C165.42 28.51 165.897 28.38 166.295 28.12C166.711 27.8427 166.919 27.4353 166.919 26.898C166.919 26.378 166.711 25.988 166.295 25.728C165.897 25.4507 165.411 25.312 164.839 25.312C164.389 25.312 164.007 25.39 163.695 25.546C163.453 25.65 163.271 25.832 163.149 26.092C163.028 26.352 162.967 26.6293 162.967 26.924C162.967 27.2187 163.028 27.496 163.149 27.756C163.271 27.9987 163.453 28.172 163.695 28.276ZM163.695 34.36C164.025 34.4987 164.415 34.568 164.865 34.568C165.42 34.568 165.897 34.4553 166.295 34.23C166.711 33.9873 166.919 33.632 166.919 33.164C166.919 32.7133 166.711 32.3667 166.295 32.124C165.879 31.8813 165.394 31.76 164.839 31.76C164.406 31.76 164.025 31.8293 163.695 31.968C163.453 32.072 163.271 32.2367 163.149 32.462C163.028 32.67 162.967 32.904 162.967 33.164C162.967 33.424 163.028 33.6667 163.149 33.892C163.271 34.1 163.453 34.256 163.695 34.36ZM181.162 38C179.88 38 178.744 37.7487 177.756 37.246C176.768 36.7433 175.997 36.0413 175.442 35.14C174.905 34.2213 174.636 33.19 174.636 32.046C174.636 30.9193 174.905 29.8793 175.442 28.926C175.997 27.9727 176.76 27.21 177.73 26.638C178.701 26.066 179.802 25.78 181.032 25.78C182.142 25.78 183.121 26.0053 183.97 26.456C184.82 26.9067 185.47 27.5047 185.92 28.25C186.371 28.978 186.596 29.7407 186.596 30.538C186.596 31.838 186.102 32.7913 185.114 33.398C184.144 33.9873 182.982 34.282 181.63 34.282C180.729 34.282 179.966 34.1693 179.342 33.944C179.862 34.7933 180.72 35.218 181.916 35.218C182.402 35.218 182.922 35.1573 183.476 35.036C183.684 34.984 183.884 34.958 184.074 34.958C184.456 34.958 184.759 35.0533 184.984 35.244C185.227 35.4347 185.348 35.6947 185.348 36.024C185.348 36.5613 185.019 37.0293 184.36 37.428C183.702 37.8093 182.636 38 181.162 38ZM179.42 30.772C179.576 31.0147 179.784 31.1967 180.044 31.318C180.322 31.422 180.625 31.474 180.954 31.474C181.336 31.474 181.665 31.3873 181.942 31.214C182.237 31.0407 182.384 30.8153 182.384 30.538C182.384 30.226 182.254 29.9573 181.994 29.732C181.752 29.5067 181.396 29.394 180.928 29.394C180.46 29.394 180.088 29.5413 179.81 29.836C179.55 30.1133 179.42 30.4253 179.42 30.772ZM191.718 38C190.609 38 189.864 37.35 189.482 36.05C189.118 34.75 188.936 32.956 188.936 30.668C188.936 29.628 188.98 28.7613 189.066 28.068C189.17 27.3573 189.404 26.7593 189.768 26.274C190.15 25.7713 190.73 25.52 191.51 25.52C191.996 25.52 192.42 25.6327 192.784 25.858C193.166 26.0833 193.408 26.404 193.512 26.82C193.894 26.4733 194.388 26.2133 194.994 26.04C195.601 25.8667 196.251 25.78 196.944 25.78C197.499 25.78 198.062 25.9187 198.634 26.196C199.224 26.4733 199.709 26.8547 200.09 27.34C200.489 27.808 200.688 28.3193 200.688 28.874C200.688 29.4287 200.489 29.9227 200.09 30.356C199.709 30.772 199.198 30.98 198.556 30.98C198.348 30.98 198.149 30.954 197.958 30.902C197.785 30.85 197.629 30.798 197.49 30.746C197.144 30.6073 196.866 30.538 196.658 30.538C195.982 30.538 195.384 30.8067 194.864 31.344C194.362 31.864 194.11 32.54 194.11 33.372C194.11 34.2907 194.076 35.0533 194.006 35.66C193.937 36.2667 193.729 36.8127 193.382 37.298C193.036 37.766 192.481 38 191.718 38ZM207.18 38C205.828 38 204.719 37.6967 203.852 37.09C202.985 36.466 202.552 35.5733 202.552 34.412C202.552 33.4067 202.994 32.6093 203.878 32.02C204.762 31.4307 205.863 31.136 207.18 31.136C207.665 31.136 208.116 31.1793 208.532 31.266C208.965 31.3353 209.26 31.422 209.416 31.526C209.416 31.0927 209.234 30.7373 208.87 30.46C208.506 30.1653 207.951 30.018 207.206 30.018C206.877 30.018 206.608 30.044 206.4 30.096C206.192 30.148 205.967 30.226 205.724 30.33C205.481 30.434 205.256 30.512 205.048 30.564C204.857 30.616 204.597 30.642 204.268 30.642C203.713 30.642 203.28 30.5033 202.968 30.226C202.656 29.9313 202.5 29.4893 202.5 28.9C202.5 28.224 202.743 27.652 203.228 27.184C203.731 26.716 204.355 26.3693 205.1 26.144C205.845 25.9013 206.591 25.78 207.336 25.78C208.809 25.78 210.04 26.0573 211.028 26.612C212.033 27.1493 212.77 27.8687 213.238 28.77C213.723 29.6713 213.966 30.668 213.966 31.76C213.966 32.3493 213.914 32.8953 213.81 33.398C213.723 33.9007 213.602 34.2907 213.446 34.568C213.689 34.776 213.871 35.0187 213.992 35.296C214.131 35.5733 214.2 35.8593 214.2 36.154C214.2 36.6567 214.027 37.09 213.68 37.454C213.351 37.818 212.909 38 212.354 38C211.938 38 211.6 37.9393 211.34 37.818C211.08 37.6967 210.803 37.506 210.508 37.246C210.075 37.506 209.598 37.6967 209.078 37.818C208.575 37.9393 207.943 38 207.18 38ZM207.7 35.374C208.064 35.374 208.35 35.296 208.558 35.14C208.783 34.984 208.896 34.7933 208.896 34.568C208.896 34.3427 208.783 34.152 208.558 33.996C208.35 33.84 208.064 33.762 207.7 33.762C207.336 33.762 207.041 33.84 206.816 33.996C206.608 34.152 206.504 34.3427 206.504 34.568C206.504 34.7933 206.608 34.984 206.816 35.14C207.041 35.296 207.336 35.374 207.7 35.374Z"/>
</mask>
<path d="M37.036 37.974C35.06 37.974 33.37 37.6273 31.966 36.934C30.562 36.2407 29.4873 35.2527 28.742 33.97C28.014 32.67 27.65 31.136 27.65 29.368C27.65 27.2533 28.092 25.4767 28.976 24.038C29.8773 22.5993 31.0387 21.5333 32.46 20.84C33.8813 20.1467 35.372 19.8 36.932 19.8C38.3187 19.8 39.5407 20.008 40.598 20.424C41.6553 20.84 42.47 21.386 43.042 22.062C43.614 22.738 43.9 23.4487 43.9 24.194C43.9 25.2687 43.6227 26.04 43.068 26.508C42.5133 26.9587 41.8287 27.184 41.014 27.184C40.6327 27.184 40.2947 27.1493 40 27.08C39.7227 27.0107 39.428 26.9153 39.116 26.794C38.7693 26.6727 38.4573 26.586 38.18 26.534C37.92 26.4647 37.5907 26.43 37.192 26.43C36.048 26.43 35.1467 26.7767 34.488 27.47C33.8293 28.146 33.5 29.108 33.5 30.356C33.5 31.4133 33.8207 32.228 34.462 32.8C35.1033 33.372 35.9007 33.658 36.854 33.658C37.3913 33.658 37.8593 33.5887 38.258 33.45C38.6567 33.3113 38.96 33.1553 39.168 32.982C39.376 32.8087 39.48 32.67 39.48 32.566C38.2147 32.566 37.2527 32.4187 36.594 32.124C35.9353 31.8293 35.606 31.318 35.606 30.59C35.606 29.862 35.8573 29.2987 36.36 28.9C36.8627 28.484 37.712 28.276 38.908 28.276C40.1387 28.276 41.1007 28.4233 41.794 28.718C42.4873 28.9953 42.9813 29.4373 43.276 30.044C43.5707 30.6333 43.718 31.422 43.718 32.41C43.718 33.4153 43.4147 34.3427 42.808 35.192C42.2187 36.0413 41.404 36.7173 40.364 37.22C39.3413 37.7227 38.232 37.974 37.036 37.974ZM53.0209 38C51.7383 38 50.6029 37.7487 49.6149 37.246C48.6269 36.7433 47.8556 36.0413 47.3009 35.14C46.7636 34.2213 46.4949 33.19 46.4949 32.046C46.4949 30.9193 46.7636 29.8793 47.3009 28.926C47.8556 27.9727 48.6183 27.21 49.5889 26.638C50.5596 26.066 51.6603 25.78 52.8909 25.78C54.0003 25.78 54.9796 26.0053 55.8289 26.456C56.6783 26.9067 57.3283 27.5047 57.7789 28.25C58.2296 28.978 58.4549 29.7407 58.4549 30.538C58.4549 31.838 57.9609 32.7913 56.9729 33.398C56.0023 33.9873 54.8409 34.282 53.4889 34.282C52.5876 34.282 51.8249 34.1693 51.2009 33.944C51.7209 34.7933 52.5789 35.218 53.7749 35.218C54.2603 35.218 54.7803 35.1573 55.3349 35.036C55.5429 34.984 55.7423 34.958 55.9329 34.958C56.3143 34.958 56.6176 35.0533 56.8429 35.244C57.0856 35.4347 57.2069 35.6947 57.2069 36.024C57.2069 36.5613 56.8776 37.0293 56.2189 37.428C55.5603 37.8093 54.4943 38 53.0209 38ZM51.2789 30.772C51.4349 31.0147 51.6429 31.1967 51.9029 31.318C52.1803 31.422 52.4836 31.474 52.8129 31.474C53.1943 31.474 53.5236 31.3873 53.8009 31.214C54.0956 31.0407 54.2429 30.8153 54.2429 30.538C54.2429 30.226 54.1129 29.9573 53.8529 29.732C53.6103 29.5067 53.2549 29.394 52.7869 29.394C52.3189 29.394 51.9463 29.5413 51.6689 29.836C51.4089 30.1133 51.2789 30.4253 51.2789 30.772ZM73.229 26.742C73.229 27.6433 72.8043 28.2587 71.955 28.588C71.1057 28.9 69.9443 29.0647 68.471 29.082C68.4537 29.5153 68.445 30.2173 68.445 31.188C68.445 32.176 68.5143 32.878 68.653 33.294C68.7397 33.5887 68.8697 33.7793 69.043 33.866C69.2337 33.9527 69.511 34.0133 69.875 34.048C69.9963 34.0653 70.1263 34.0913 70.265 34.126C70.421 34.1433 70.5943 34.1693 70.785 34.204C71.1837 34.2907 71.4957 34.5073 71.721 34.854C71.9463 35.1833 72.059 35.608 72.059 36.128C72.059 36.7173 71.7557 37.1767 71.149 37.506C70.5423 37.8353 69.7103 38 68.653 38C67.6823 38 66.755 37.7227 65.871 37.168C64.987 36.596 64.3803 35.8333 64.051 34.88C63.7043 33.8573 63.531 31.9247 63.531 29.082C62.3177 29.0473 61.3383 28.8913 60.593 28.614C59.865 28.3193 59.501 27.7993 59.501 27.054C59.501 26.118 59.8477 25.494 60.541 25.182C61.2343 24.8527 62.231 24.6793 63.531 24.662C63.583 23.2753 63.7997 22.1227 64.181 21.204C64.5623 20.268 65.247 19.8 66.235 19.8C67.2403 19.8 67.8903 20.2333 68.185 21.1C68.497 21.9667 68.6357 23.154 68.601 24.662C70.1783 24.6447 71.3397 24.766 72.085 25.026C72.8477 25.286 73.229 25.858 73.229 26.742ZM102.268 26.17C102.268 28.3193 101.748 30.0353 100.708 31.318C99.6682 32.5833 98.2382 33.424 96.4182 33.84C96.4355 34.0827 96.4442 34.4553 96.4442 34.958C96.4442 35.9287 96.1582 36.6827 95.5862 37.22C95.0315 37.74 94.3642 38 93.5842 38C92.7522 38 92.0242 37.7313 91.4002 37.194C90.7762 36.6393 90.4642 35.894 90.4642 34.958C90.4642 34.4207 90.4728 34.0307 90.4902 33.788C88.7742 33.3373 87.4135 32.4967 86.4082 31.266C85.4202 30.0353 84.9262 28.4407 84.9262 26.482C84.9262 24.4193 85.2728 22.7987 85.9662 21.62C86.6595 20.4413 87.6822 19.852 89.0342 19.852C90.0048 19.852 90.7762 20.1467 91.3482 20.736C91.9202 21.308 92.2062 22.1053 92.2062 23.128C92.2062 23.4053 92.1628 24.0467 92.0762 25.052C92.0068 25.676 91.9722 26.066 91.9722 26.222C91.9722 26.95 92.0935 27.5047 92.3362 27.886C92.5962 28.2673 93.0122 28.458 93.5842 28.458C94.1562 28.458 94.5635 28.2673 94.8062 27.886C95.0662 27.5047 95.1962 26.95 95.1962 26.222C95.1962 26.0487 95.1615 25.65 95.0922 25.026C95.0055 23.986 94.9622 23.3447 94.9622 23.102C94.9622 22.0967 95.2568 21.308 95.8462 20.736C96.4355 20.1467 97.2068 19.852 98.1602 19.852C99.5122 19.852 100.535 20.424 101.228 21.568C101.922 22.712 102.268 24.246 102.268 26.17ZM110.068 38.026C108.82 38.0433 107.702 37.7833 106.714 37.246C105.743 36.7087 104.981 35.972 104.426 35.036C103.889 34.0827 103.603 33.0253 103.568 31.864C103.551 30.7027 103.819 29.6627 104.374 28.744C104.929 27.8253 105.7 27.0973 106.688 26.56C107.693 26.0227 108.82 25.754 110.068 25.754C111.281 25.754 112.373 26.014 113.344 26.534C114.332 27.054 115.112 27.782 115.684 28.718C116.256 29.654 116.559 30.7027 116.594 31.864C116.611 32.9907 116.343 34.022 115.788 34.958C115.233 35.8767 114.453 36.6133 113.448 37.168C112.46 37.7227 111.333 38.0087 110.068 38.026ZM110.146 34.23C110.614 34.23 111.021 34.048 111.368 33.684C111.715 33.32 111.888 32.8953 111.888 32.41C111.888 31.9247 111.715 31.5087 111.368 31.162C111.021 30.798 110.614 30.616 110.146 30.616C109.678 30.616 109.271 30.798 108.924 31.162C108.577 31.5087 108.404 31.9247 108.404 32.41C108.404 32.8953 108.577 33.32 108.924 33.684C109.271 34.048 109.678 34.23 110.146 34.23ZM124.972 38C123.707 38 122.598 37.688 121.644 37.064C120.691 36.4227 119.954 35.5387 119.434 34.412C118.932 33.268 118.68 31.9507 118.68 30.46C118.68 29.004 118.914 27.86 119.382 27.028C119.85 26.196 120.5 25.78 121.332 25.78C122.806 25.78 123.542 26.534 123.542 28.042C123.542 28.354 123.534 28.6313 123.516 28.874C123.499 29.0993 123.482 29.2987 123.464 29.472C123.395 30.1653 123.36 30.72 123.36 31.136C123.36 31.8987 123.516 32.4793 123.828 32.878C124.14 33.2767 124.522 33.476 124.972 33.476C125.44 33.476 125.822 33.2853 126.116 32.904C126.428 32.5053 126.584 31.916 126.584 31.136C126.584 30.5813 126.558 30.07 126.506 29.602C126.489 29.446 126.472 29.2207 126.454 28.926C126.437 28.614 126.428 28.328 126.428 28.068C126.428 26.5427 127.165 25.78 128.638 25.78C129.47 25.78 130.112 26.196 130.562 27.028C131.03 27.8427 131.264 28.9867 131.264 30.46C131.264 32.7653 130.727 34.6027 129.652 35.972C128.578 37.324 127.018 38 124.972 38ZM136.219 38C135.11 38 134.365 37.35 133.983 36.05C133.619 34.75 133.437 32.956 133.437 30.668C133.437 29.628 133.481 28.7613 133.567 28.068C133.671 27.3573 133.905 26.7593 134.269 26.274C134.651 25.7713 135.231 25.52 136.011 25.52C136.497 25.52 136.921 25.6327 137.285 25.858C137.667 26.0833 137.909 26.404 138.013 26.82C138.395 26.4733 138.889 26.2133 139.495 26.04C140.102 25.8667 140.752 25.78 141.445 25.78C142 25.78 142.563 25.9187 143.135 26.196C143.725 26.4733 144.21 26.8547 144.591 27.34C144.99 27.808 145.189 28.3193 145.189 28.874C145.189 29.4287 144.99 29.9227 144.591 30.356C144.21 30.772 143.699 30.98 143.057 30.98C142.849 30.98 142.65 30.954 142.459 30.902C142.286 30.85 142.13 30.798 141.991 30.746C141.645 30.6073 141.367 30.538 141.159 30.538C140.483 30.538 139.885 30.8067 139.365 31.344C138.863 31.864 138.611 32.54 138.611 33.372C138.611 34.2907 138.577 35.0533 138.507 35.66C138.438 36.2667 138.23 36.8127 137.883 37.298C137.537 37.766 136.982 38 136.219 38ZM165.489 37.974C162.612 37.9567 160.454 37.246 159.015 35.842C157.594 34.438 156.883 32.1587 156.883 29.004C156.883 26.144 157.577 23.8993 158.963 22.27C160.35 20.6233 162.309 19.8 164.839 19.8C166.399 19.8 167.76 20.034 168.921 20.502C170.083 20.97 170.975 21.6373 171.599 22.504C172.223 23.3707 172.535 24.3933 172.535 25.572C172.535 26.508 172.327 27.34 171.911 28.068C171.513 28.796 170.915 29.446 170.117 30.018C170.759 30.122 171.313 30.4687 171.781 31.058C172.267 31.6473 172.509 32.332 172.509 33.112C172.509 33.944 172.284 34.7327 171.833 35.478C171.4 36.206 170.655 36.804 169.597 37.272C168.557 37.74 167.188 37.974 165.489 37.974ZM163.695 28.276C164.007 28.432 164.397 28.51 164.865 28.51C165.42 28.51 165.897 28.38 166.295 28.12C166.711 27.8427 166.919 27.4353 166.919 26.898C166.919 26.378 166.711 25.988 166.295 25.728C165.897 25.4507 165.411 25.312 164.839 25.312C164.389 25.312 164.007 25.39 163.695 25.546C163.453 25.65 163.271 25.832 163.149 26.092C163.028 26.352 162.967 26.6293 162.967 26.924C162.967 27.2187 163.028 27.496 163.149 27.756C163.271 27.9987 163.453 28.172 163.695 28.276ZM163.695 34.36C164.025 34.4987 164.415 34.568 164.865 34.568C165.42 34.568 165.897 34.4553 166.295 34.23C166.711 33.9873 166.919 33.632 166.919 33.164C166.919 32.7133 166.711 32.3667 166.295 32.124C165.879 31.8813 165.394 31.76 164.839 31.76C164.406 31.76 164.025 31.8293 163.695 31.968C163.453 32.072 163.271 32.2367 163.149 32.462C163.028 32.67 162.967 32.904 162.967 33.164C162.967 33.424 163.028 33.6667 163.149 33.892C163.271 34.1 163.453 34.256 163.695 34.36ZM181.162 38C179.88 38 178.744 37.7487 177.756 37.246C176.768 36.7433 175.997 36.0413 175.442 35.14C174.905 34.2213 174.636 33.19 174.636 32.046C174.636 30.9193 174.905 29.8793 175.442 28.926C175.997 27.9727 176.76 27.21 177.73 26.638C178.701 26.066 179.802 25.78 181.032 25.78C182.142 25.78 183.121 26.0053 183.97 26.456C184.82 26.9067 185.47 27.5047 185.92 28.25C186.371 28.978 186.596 29.7407 186.596 30.538C186.596 31.838 186.102 32.7913 185.114 33.398C184.144 33.9873 182.982 34.282 181.63 34.282C180.729 34.282 179.966 34.1693 179.342 33.944C179.862 34.7933 180.72 35.218 181.916 35.218C182.402 35.218 182.922 35.1573 183.476 35.036C183.684 34.984 183.884 34.958 184.074 34.958C184.456 34.958 184.759 35.0533 184.984 35.244C185.227 35.4347 185.348 35.6947 185.348 36.024C185.348 36.5613 185.019 37.0293 184.36 37.428C183.702 37.8093 182.636 38 181.162 38ZM179.42 30.772C179.576 31.0147 179.784 31.1967 180.044 31.318C180.322 31.422 180.625 31.474 180.954 31.474C181.336 31.474 181.665 31.3873 181.942 31.214C182.237 31.0407 182.384 30.8153 182.384 30.538C182.384 30.226 182.254 29.9573 181.994 29.732C181.752 29.5067 181.396 29.394 180.928 29.394C180.46 29.394 180.088 29.5413 179.81 29.836C179.55 30.1133 179.42 30.4253 179.42 30.772ZM191.718 38C190.609 38 189.864 37.35 189.482 36.05C189.118 34.75 188.936 32.956 188.936 30.668C188.936 29.628 188.98 28.7613 189.066 28.068C189.17 27.3573 189.404 26.7593 189.768 26.274C190.15 25.7713 190.73 25.52 191.51 25.52C191.996 25.52 192.42 25.6327 192.784 25.858C193.166 26.0833 193.408 26.404 193.512 26.82C193.894 26.4733 194.388 26.2133 194.994 26.04C195.601 25.8667 196.251 25.78 196.944 25.78C197.499 25.78 198.062 25.9187 198.634 26.196C199.224 26.4733 199.709 26.8547 200.09 27.34C200.489 27.808 200.688 28.3193 200.688 28.874C200.688 29.4287 200.489 29.9227 200.09 30.356C199.709 30.772 199.198 30.98 198.556 30.98C198.348 30.98 198.149 30.954 197.958 30.902C197.785 30.85 197.629 30.798 197.49 30.746C197.144 30.6073 196.866 30.538 196.658 30.538C195.982 30.538 195.384 30.8067 194.864 31.344C194.362 31.864 194.11 32.54 194.11 33.372C194.11 34.2907 194.076 35.0533 194.006 35.66C193.937 36.2667 193.729 36.8127 193.382 37.298C193.036 37.766 192.481 38 191.718 38ZM207.18 38C205.828 38 204.719 37.6967 203.852 37.09C202.985 36.466 202.552 35.5733 202.552 34.412C202.552 33.4067 202.994 32.6093 203.878 32.02C204.762 31.4307 205.863 31.136 207.18 31.136C207.665 31.136 208.116 31.1793 208.532 31.266C208.965 31.3353 209.26 31.422 209.416 31.526C209.416 31.0927 209.234 30.7373 208.87 30.46C208.506 30.1653 207.951 30.018 207.206 30.018C206.877 30.018 206.608 30.044 206.4 30.096C206.192 30.148 205.967 30.226 205.724 30.33C205.481 30.434 205.256 30.512 205.048 30.564C204.857 30.616 204.597 30.642 204.268 30.642C203.713 30.642 203.28 30.5033 202.968 30.226C202.656 29.9313 202.5 29.4893 202.5 28.9C202.5 28.224 202.743 27.652 203.228 27.184C203.731 26.716 204.355 26.3693 205.1 26.144C205.845 25.9013 206.591 25.78 207.336 25.78C208.809 25.78 210.04 26.0573 211.028 26.612C212.033 27.1493 212.77 27.8687 213.238 28.77C213.723 29.6713 213.966 30.668 213.966 31.76C213.966 32.3493 213.914 32.8953 213.81 33.398C213.723 33.9007 213.602 34.2907 213.446 34.568C213.689 34.776 213.871 35.0187 213.992 35.296C214.131 35.5733 214.2 35.8593 214.2 36.154C214.2 36.6567 214.027 37.09 213.68 37.454C213.351 37.818 212.909 38 212.354 38C211.938 38 211.6 37.9393 211.34 37.818C211.08 37.6967 210.803 37.506 210.508 37.246C210.075 37.506 209.598 37.6967 209.078 37.818C208.575 37.9393 207.943 38 207.18 38ZM207.7 35.374C208.064 35.374 208.35 35.296 208.558 35.14C208.783 34.984 208.896 34.7933 208.896 34.568C208.896 34.3427 208.783 34.152 208.558 33.996C208.35 33.84 208.064 33.762 207.7 33.762C207.336 33.762 207.041 33.84 206.816 33.996C206.608 34.152 206.504 34.3427 206.504 34.568C206.504 34.7933 206.608 34.984 206.816 35.14C207.041 35.296 207.336 35.374 207.7 35.374Z" fill="#FFF4C2"/>
<path d="M31.966 36.934L32.8516 35.1407L31.966 36.934ZM28.742 33.97L26.997 34.9472L27.0048 34.9611L27.0127 34.9748L28.742 33.97ZM28.976 24.038L27.2812 22.9762L27.2765 22.9835L27.272 22.991L28.976 24.038ZM32.46 20.84L31.5832 19.0425V19.0425L32.46 20.84ZM40.598 20.424L41.3302 18.5629L41.3302 18.5629L40.598 20.424ZM43.042 22.062L44.5688 20.7701L44.5688 20.7701L43.042 22.062ZM43.068 26.508L44.3292 28.0602L44.3436 28.0485L44.3577 28.0366L43.068 26.508ZM40 27.08L39.5149 29.0203L39.5284 29.0237L39.5419 29.0268L40 27.08ZM39.116 26.794L39.8409 24.93L39.809 24.9176L39.7767 24.9063L39.116 26.794ZM38.18 26.534L37.6647 28.4665L37.7374 28.4859L37.8114 28.4997L38.18 26.534ZM34.488 27.47L35.9205 28.8657L35.9293 28.8567L35.938 28.8475L34.488 27.47ZM34.462 32.8L33.1308 34.2926H33.1308L34.462 32.8ZM39.168 32.982L40.4484 34.5184H40.4484L39.168 32.982ZM39.48 32.566H41.48V30.566H39.48V32.566ZM36.36 28.9L37.6028 30.467L37.6191 30.4541L37.6351 30.4408L36.36 28.9ZM41.794 28.718L41.0117 30.5587L41.0314 30.567L41.0512 30.575L41.794 28.718ZM43.276 30.044L41.477 30.9178L41.482 30.9281L41.4871 30.9384L43.276 30.044ZM42.808 35.192L41.1805 34.0295L41.1726 34.0406L41.1648 34.0518L42.808 35.192ZM40.364 37.22L39.4936 35.4193L39.4818 35.4251L40.364 37.22ZM37.036 35.974C35.2889 35.974 33.9177 35.6672 32.8516 35.1407L31.0804 38.7273C32.8223 39.5875 34.8311 39.974 37.036 39.974V35.974ZM32.8516 35.1407C31.7796 34.6114 31.0077 33.8884 30.4713 32.9652L27.0127 34.9748C27.9669 36.6169 29.3444 37.87 31.0804 38.7273L32.8516 35.1407ZM30.487 32.9928C29.9549 32.0426 29.65 30.8578 29.65 29.368H25.65C25.65 31.4142 26.0731 33.2974 26.997 34.9472L30.487 32.9928ZM29.65 29.368C29.65 27.5304 30.0329 26.1382 30.68 25.085L27.272 22.991C26.1511 24.8151 25.65 26.9763 25.65 29.368H29.65ZM30.6708 25.0998C31.3889 23.9538 32.2764 23.1548 33.3368 22.6375L31.5832 19.0425C29.8009 19.9119 28.3658 21.2449 27.2812 22.9762L30.6708 25.0998ZM33.3368 22.6375C34.489 22.0755 35.6802 21.8 36.932 21.8V17.8C35.0638 17.8 33.2737 18.2178 31.5832 19.0425L33.3368 22.6375ZM36.932 21.8C38.1217 21.8 39.0868 21.9787 39.8658 22.2851L41.3302 18.5629C39.9945 18.0373 38.5157 17.8 36.932 17.8V21.8ZM39.8658 22.2851C40.7001 22.6134 41.209 22.9919 41.5152 23.3539L44.5688 20.7701C43.731 19.7801 42.6105 19.0666 41.3302 18.5629L39.8658 22.2851ZM41.5152 23.3539C41.8419 23.7399 41.9 24.0072 41.9 24.194H45.9C45.9 22.8901 45.3861 21.7361 44.5688 20.7701L41.5152 23.3539ZM41.9 24.194C41.9 24.5684 41.8505 24.7889 41.81 24.9018C41.7746 25.0001 41.7533 25.0005 41.7783 24.9794L44.3577 28.0366C45.5449 27.0349 45.9 25.5687 45.9 24.194H41.9ZM41.8068 24.9558C41.658 25.0767 41.4371 25.184 41.014 25.184V29.184C42.2202 29.184 43.3687 28.8406 44.3292 28.0602L41.8068 24.9558ZM41.014 25.184C40.749 25.184 40.5698 25.1594 40.4581 25.1332L39.5419 29.0268C40.0196 29.1392 40.5163 29.184 41.014 29.184V25.184ZM40.4851 25.1397C40.3016 25.0938 40.0875 25.0259 39.8409 24.93L38.3911 28.658C38.7685 28.8048 39.1438 28.9275 39.5149 29.0203L40.4851 25.1397ZM39.7767 24.9063C39.3615 24.761 38.9495 24.6434 38.5486 24.5683L37.8114 28.4997C37.9651 28.5286 38.1772 28.5844 38.4553 28.6817L39.7767 24.9063ZM38.6953 24.6015C38.2076 24.4715 37.6896 24.43 37.192 24.43V28.43C37.4917 28.43 37.6324 28.4579 37.6647 28.4665L38.6953 24.6015ZM37.192 24.43C35.616 24.43 34.1475 24.9247 33.038 26.0925L35.938 28.8475C36.1459 28.6287 36.48 28.43 37.192 28.43V24.43ZM33.0555 26.0743C31.9276 27.2318 31.5 28.76 31.5 30.356H35.5C35.5 29.456 35.731 29.0602 35.9205 28.8657L33.0555 26.0743ZM31.5 30.356C31.5 31.8414 31.9684 33.2558 33.1308 34.2926L35.7932 31.3074C35.673 31.2002 35.5 30.9853 35.5 30.356H31.5ZM33.1308 34.2926C34.1795 35.228 35.4675 35.658 36.854 35.658V31.658C36.3338 31.658 36.0272 31.516 35.7932 31.3074L33.1308 34.2926ZM36.854 35.658C37.5568 35.658 38.2564 35.5681 38.915 35.339L37.601 31.561C37.4623 31.6092 37.2258 31.658 36.854 31.658V35.658ZM38.915 35.339C39.4282 35.1605 39.9818 34.9072 40.4484 34.5184L37.8876 31.4456C37.9209 31.4178 37.9231 31.423 37.8698 31.4504C37.8181 31.477 37.7318 31.5155 37.601 31.561L38.915 35.339ZM40.4484 34.5184C40.613 34.3813 40.8201 34.1905 41.002 33.948C41.1561 33.7425 41.48 33.255 41.48 32.566H37.48C37.48 32.2588 37.5562 32.0167 37.6222 31.8627C37.6879 31.7093 37.7604 31.6035 37.802 31.548C37.8799 31.4442 37.931 31.4094 37.8876 31.4456L40.4484 34.5184ZM39.48 30.566C38.3154 30.566 37.6871 30.422 37.4107 30.2984L35.7773 33.9496C36.8182 34.4153 38.114 34.566 39.48 34.566V30.566ZM37.4107 30.2984C37.386 30.2873 37.3966 30.2886 37.426 30.3126C37.4573 30.3382 37.4977 30.3795 37.5344 30.4365C37.5711 30.4935 37.5911 30.5459 37.6007 30.5817C37.6096 30.6152 37.606 30.6216 37.606 30.59H33.606C33.606 31.2615 33.761 31.965 34.1716 32.6025C34.5829 33.241 35.1608 33.6739 35.7773 33.9496L37.4107 30.2984ZM37.606 30.59C37.606 30.4568 37.6284 30.4196 37.621 30.4364C37.6178 30.4436 37.6119 30.4539 37.6042 30.4636C37.5968 30.4731 37.5942 30.4738 37.6028 30.467L35.1172 27.333C34.0677 28.1654 33.606 29.3446 33.606 30.59H37.606ZM37.6351 30.4408C37.5886 30.4793 37.6234 30.43 37.8497 30.3746C38.0736 30.3198 38.4161 30.276 38.908 30.276V26.276C37.5887 26.276 36.1424 26.484 35.0849 27.3592L37.6351 30.4408ZM38.908 30.276C40.0191 30.276 40.6736 30.415 41.0117 30.5587L42.5763 26.8773C41.5277 26.4317 40.2583 26.276 38.908 26.276V30.276ZM41.0512 30.575C41.336 30.6888 41.4237 30.8082 41.477 30.9178L45.075 29.1702C44.5389 28.0665 43.6387 27.3018 42.5368 26.861L41.0512 30.575ZM41.4871 30.9384C41.591 31.1461 41.718 31.5905 41.718 32.41H45.718C45.718 31.2535 45.5504 30.1206 45.0649 29.1496L41.4871 30.9384ZM41.718 32.41C41.718 32.9818 41.5548 33.5056 41.1805 34.0295L44.4355 36.3545C45.2746 35.1798 45.718 33.8488 45.718 32.41H41.718ZM41.1648 34.0518C40.7942 34.586 40.2606 35.0486 39.4937 35.4193L41.2343 39.0207C42.5474 38.3861 43.6432 37.4967 44.4512 36.3322L41.1648 34.0518ZM39.4818 35.4251C38.7473 35.7861 37.9417 35.974 37.036 35.974V39.974C38.5223 39.974 39.9354 39.6592 41.2462 39.0149L39.4818 35.4251ZM49.6149 37.246L50.5218 35.4634L49.6149 37.246ZM47.3009 35.14L45.5745 36.1498L45.5859 36.1691L45.5976 36.1882L47.3009 35.14ZM47.3009 28.926L45.5722 27.9202L45.5653 27.932L45.5586 27.944L47.3009 28.926ZM49.5889 26.638L50.6043 28.3611L50.6043 28.3611L49.5889 26.638ZM55.8289 26.456L56.7664 24.6893V24.6893L55.8289 26.456ZM57.7789 28.25L56.0675 29.2848L56.0729 29.2938L56.0784 29.3027L57.7789 28.25ZM56.9729 33.398L58.0109 35.1076L58.0194 35.1023L56.9729 33.398ZM51.2009 33.944L51.8802 32.0629L46.5188 30.1268L49.4952 34.9883L51.2009 33.944ZM55.3349 35.036L55.7623 36.9898L55.7913 36.9835L55.82 36.9763L55.3349 35.036ZM56.8429 35.244L55.551 36.7708L55.5787 36.7942L55.6073 36.8166L56.8429 35.244ZM56.2189 37.428L57.221 39.1589L57.2379 39.1491L57.2545 39.139L56.2189 37.428ZM51.2789 30.772H49.2789V31.3594L49.5966 31.8535L51.2789 30.772ZM51.9029 31.318L51.0571 33.1304L51.1277 33.1633L51.2007 33.1907L51.9029 31.318ZM53.8009 31.214L52.7869 29.4901L52.7637 29.5038L52.7409 29.518L53.8009 31.214ZM53.8529 29.732L52.492 31.1976L52.5171 31.2209L52.5431 31.2434L53.8529 29.732ZM51.6689 29.836L50.2125 28.4653L50.2098 28.4681L51.6689 29.836ZM53.0209 36C52.0039 36 51.1878 35.8023 50.5218 35.4634L48.708 39.0286C50.0181 39.6951 51.4727 40 53.0209 40V36ZM50.5218 35.4634C49.8455 35.1194 49.3567 34.6646 49.0042 34.0918L45.5976 36.1882C46.3545 37.4181 47.4083 38.3673 48.708 39.0286L50.5218 35.4634ZM49.0273 34.1302C48.6825 33.5408 48.4949 32.8626 48.4949 32.046H44.4949C44.4949 33.5174 44.8446 34.9018 45.5745 36.1498L49.0273 34.1302ZM48.4949 32.046C48.4949 31.2528 48.68 30.5525 49.0432 29.908L45.5586 27.944C44.8472 29.2061 44.4949 30.5859 44.4949 32.046H48.4949ZM49.0296 29.9318C49.4081 29.2813 49.9223 28.763 50.6043 28.3611L48.5735 24.9149C47.3142 25.657 46.3031 26.664 45.5722 27.9202L49.0296 29.9318ZM50.6043 28.3611C51.2393 27.9869 51.9834 27.78 52.8909 27.78V23.78C51.3371 23.78 49.8799 24.1451 48.5735 24.9149L50.6043 28.3611ZM52.8909 27.78C53.724 27.78 54.3725 27.9473 54.8915 28.2227L56.7664 24.6893C55.5867 24.0634 54.2765 23.78 52.8909 23.78V27.78ZM54.8915 28.2227C55.4556 28.522 55.8229 28.8805 56.0675 29.2848L59.4904 27.2152C58.8336 26.1289 57.9009 25.2913 56.7664 24.6893L54.8915 28.2227ZM56.0784 29.3027C56.3483 29.7388 56.4549 30.1402 56.4549 30.538H60.4549C60.4549 29.3412 60.1108 28.2172 59.4795 27.1973L56.0784 29.3027ZM56.4549 30.538C56.4549 31.2433 56.2411 31.5004 55.9264 31.6937L58.0194 35.1023C59.6808 34.0822 60.4549 32.4327 60.4549 30.538H56.4549ZM55.935 31.6884C55.3323 32.0543 54.5452 32.282 53.4889 32.282V36.282C55.1366 36.282 56.6722 35.9203 58.0109 35.1076L55.935 31.6884ZM53.4889 32.282C52.7417 32.282 52.2238 32.187 51.8802 32.0629L50.5216 35.8251C51.4261 36.1517 52.4335 36.282 53.4889 36.282V32.282ZM49.4952 34.9883C50.4565 36.5585 52.0461 37.218 53.7749 37.218V33.218C53.1118 33.218 52.9853 33.0282 52.9066 32.8997L49.4952 34.9883ZM53.7749 37.218C54.4258 37.218 55.0903 37.1368 55.7623 36.9898L54.9075 33.0822C54.4702 33.1779 54.0947 33.218 53.7749 33.218V37.218ZM55.82 36.9763C55.8887 36.9591 55.9246 36.958 55.9329 36.958V32.958C55.5599 32.958 55.1971 33.0089 54.8498 33.0957L55.82 36.9763ZM55.9329 36.958C55.9594 36.958 55.9233 36.9615 55.8468 36.9375C55.7644 36.9116 55.6567 36.8602 55.551 36.7708L58.1348 33.7172C57.4538 33.141 56.6465 32.958 55.9329 32.958V36.958ZM55.6073 36.8166C55.5011 36.7332 55.3854 36.6031 55.3036 36.4278C55.2236 36.2565 55.2069 36.1084 55.2069 36.024H59.2069C59.2069 35.1285 58.84 34.2696 58.0786 33.6714L55.6073 36.8166ZM55.2069 36.024C55.2069 35.9502 55.2188 35.8699 55.2446 35.7914C55.2699 35.714 55.3019 35.6588 55.3243 35.627C55.3636 35.5712 55.3533 35.6141 55.1833 35.717L57.2545 39.139C58.2274 38.5502 59.2069 37.5394 59.2069 36.024H55.2069ZM55.2168 35.6971C55.0341 35.8029 54.4154 36 53.0209 36V40C54.5731 40 56.0864 39.8157 57.221 39.1589L55.2168 35.6971ZM49.5966 31.8535C49.9556 32.4121 50.4529 32.8484 51.0571 33.1304L52.7487 29.5056C52.7829 29.5216 52.8258 29.5476 52.8689 29.5853C52.912 29.6231 52.9424 29.6611 52.9613 29.6905L49.5966 31.8535ZM51.2007 33.1907C51.7263 33.3878 52.2705 33.474 52.8129 33.474V29.474C52.6967 29.474 52.6342 29.4562 52.6052 29.4453L51.2007 33.1907ZM52.8129 33.474C53.5058 33.474 54.216 33.3131 54.8609 32.91L52.7409 29.518C52.7799 29.4937 52.8151 29.4806 52.8369 29.4749C52.8569 29.4696 52.852 29.474 52.8129 29.474V33.474ZM54.815 32.9379C55.5547 32.5027 56.2429 31.6973 56.2429 30.538H52.2429C52.2429 30.3003 52.3127 30.0434 52.4585 29.8205C52.5926 29.6154 52.7383 29.5187 52.7869 29.4901L54.815 32.9379ZM56.2429 30.538C56.2429 29.5822 55.8105 28.782 55.1628 28.2206L52.5431 31.2434C52.4989 31.2051 52.4151 31.1183 52.3451 30.9736C52.2727 30.824 52.2429 30.6697 52.2429 30.538H56.2429ZM55.2138 28.2664C54.4724 27.578 53.5511 27.394 52.7869 27.394V31.394C52.8658 31.394 52.8603 31.4041 52.7999 31.385C52.7316 31.3633 52.6129 31.3099 52.492 31.1976L55.2138 28.2664ZM52.7869 27.394C51.8618 27.394 50.928 27.7051 50.2125 28.4653L53.1253 31.2067C53.0645 31.2713 52.9816 31.3289 52.8917 31.3644C52.8082 31.3975 52.7631 31.394 52.7869 31.394V27.394ZM50.2098 28.4681C49.6389 29.0772 49.2789 29.8662 49.2789 30.772H53.2789C53.2789 30.8558 53.2618 30.9532 53.2226 31.0472C53.1847 31.1382 53.1416 31.1894 53.128 31.2039L50.2098 28.4681ZM71.955 28.588L72.6446 30.4653L72.6614 30.4592L72.6781 30.4527L71.955 28.588ZM68.471 29.082L68.4475 27.0821L66.5485 27.1045L66.4726 29.0021L68.471 29.082ZM68.653 33.294L70.5717 32.7297L70.5617 32.6954L70.5504 32.6615L68.653 33.294ZM69.043 33.866L68.1486 35.6549L68.1817 35.6714L68.2154 35.6867L69.043 33.866ZM69.875 34.048L70.1579 32.0681L70.1114 32.0615L70.0646 32.057L69.875 34.048ZM70.265 34.126L69.7799 36.0663L69.9104 36.0989L70.0442 36.1138L70.265 34.126ZM70.785 34.204L71.2099 32.2496L71.1764 32.2424L71.1428 32.2363L70.785 34.204ZM71.721 34.854L70.0441 35.944L70.057 35.9638L70.0704 35.9834L71.721 34.854ZM71.149 37.506L70.1948 35.7483L71.149 37.506ZM65.871 37.168L64.7845 38.8471L64.7962 38.8547L64.808 38.8621L65.871 37.168ZM64.051 34.88L62.1569 35.5221L62.1606 35.533L64.051 34.88ZM63.531 29.082H65.531V27.1383L63.5881 27.0828L63.531 29.082ZM60.593 28.614L59.8426 30.4679L59.8689 30.4785L59.8955 30.4884L60.593 28.614ZM60.541 25.182L61.3617 27.0058L61.3805 26.9974L61.3991 26.9886L60.541 25.182ZM63.531 24.662L63.5577 26.6618L65.4584 26.6365L65.5296 24.7369L63.531 24.662ZM64.181 21.204L66.0282 21.9708L66.0332 21.9586L64.181 21.204ZM68.185 21.1L66.2915 21.7438L66.2972 21.7607L66.3032 21.7774L68.185 21.1ZM68.601 24.662L66.6015 24.616L66.554 26.6846L68.623 26.6619L68.601 24.662ZM72.085 25.026L71.4263 26.9144L71.433 26.9167L71.4397 26.919L72.085 25.026ZM71.229 26.742C71.229 26.8108 71.2209 26.8343 71.2235 26.8251C71.2248 26.8205 71.2283 26.8095 71.2355 26.794C71.2427 26.7783 71.2524 26.761 71.2645 26.7435C71.2765 26.726 71.2889 26.7113 71.3001 26.6998C71.3112 26.6885 71.319 26.6824 71.3212 26.6808C71.3252 26.6779 71.3016 26.6963 71.232 26.7233L72.6781 30.4527C73.3939 30.1752 74.0709 29.7192 74.5566 29.0155C75.0433 28.3102 75.229 27.5136 75.229 26.742H71.229ZM71.2654 26.7107C70.7213 26.9105 69.8177 27.066 68.4475 27.0821L68.4945 31.0819C70.071 31.0633 71.4901 30.8895 72.6446 30.4653L71.2654 26.7107ZM66.4726 29.0021C66.4536 29.4785 66.445 30.215 66.445 31.188H70.445C70.445 30.2197 70.4538 29.5522 70.4694 29.1619L66.4726 29.0021ZM66.445 31.188C66.445 32.19 66.506 33.1774 66.7556 33.9265L70.5504 32.6615C70.5518 32.6659 70.5421 32.6369 70.5283 32.5626C70.5148 32.4903 70.5003 32.3906 70.4873 32.2589C70.4611 31.9933 70.445 31.6401 70.445 31.188H66.445ZM66.7343 33.8583C66.8881 34.3813 67.2524 35.2068 68.1486 35.6549L69.9374 32.0771C70.2091 32.213 70.3775 32.3987 70.468 32.5313C70.5117 32.5955 70.5381 32.6481 70.5524 32.6802C70.5598 32.6967 70.5647 32.7093 70.5676 32.7174C70.5691 32.7214 70.5701 32.7245 70.5708 32.7266C70.5714 32.7286 70.5717 32.7296 70.5717 32.7297L66.7343 33.8583ZM68.2154 35.6867C68.7044 35.909 69.2396 35.9965 69.6854 36.039L70.0646 32.057C69.9411 32.0452 69.8631 32.0318 69.8214 32.0227C69.8016 32.0184 69.7963 32.0164 69.8028 32.0184C69.809 32.0204 69.8332 32.0283 69.8706 32.0453L68.2154 35.6867ZM69.5922 36.0279C69.6354 36.0341 69.6973 36.0456 69.7799 36.0663L70.7501 32.1857C70.5554 32.137 70.3573 32.0966 70.1579 32.0681L69.5922 36.0279ZM70.0442 36.1138C70.1452 36.125 70.2719 36.1435 70.4272 36.1717L71.1428 32.2363C70.9168 32.1952 70.6969 32.1617 70.4859 32.1382L70.0442 36.1138ZM70.3602 36.1584C70.3219 36.15 70.2527 36.1266 70.1772 36.0742C70.1022 36.0222 70.0601 35.9685 70.0441 35.944L73.3979 33.764C72.8897 32.9822 72.1312 32.4499 71.2099 32.2496L70.3602 36.1584ZM70.0704 35.9834C70.0422 35.9421 70.0376 35.918 70.0414 35.9324C70.0461 35.9501 70.059 36.0104 70.059 36.128H74.059C74.059 35.326 73.8845 34.4742 73.3716 33.7246L70.0704 35.9834ZM70.059 36.128C70.059 36.1022 70.0626 36.0532 70.0809 35.9899C70.0995 35.9255 70.1282 35.8645 70.1626 35.8124C70.232 35.7072 70.2816 35.7012 70.1948 35.7483L72.1032 39.2637C73.2214 38.6567 74.059 37.5904 74.059 36.128H70.059ZM70.1948 35.7483C69.9963 35.8561 69.539 36 68.653 36V40C69.8817 40 71.0884 39.8146 72.1032 39.2637L70.1948 35.7483ZM68.653 36C68.0868 36 67.5244 35.8443 66.934 35.4739L64.808 38.8621C65.9856 39.601 67.2779 40 68.653 40V36ZM66.9575 35.4889C66.4308 35.1481 66.1181 34.7385 65.9414 34.227L62.1606 35.533C62.6426 36.9281 63.5432 38.0439 64.7845 38.8471L66.9575 35.4889ZM65.9451 34.2379C65.7183 33.5688 65.531 31.9508 65.531 29.082H61.531C61.531 31.8985 61.6904 34.1459 62.1569 35.5221L65.9451 34.2379ZM63.5881 27.0828C62.491 27.0515 61.7525 26.9115 61.2905 26.7396L59.8955 30.4884C60.9242 30.8712 62.1444 31.0432 63.4739 31.0812L63.5881 27.0828ZM61.3434 26.7601C61.2523 26.7232 61.3256 26.7319 61.4125 26.8561C61.4528 26.9137 61.478 26.9717 61.4913 27.0178C61.5038 27.0613 61.501 27.0775 61.501 27.054H57.501C57.501 27.7636 57.6794 28.4982 58.1355 29.1499C58.5865 29.7941 59.2057 30.2101 59.8426 30.4679L61.3434 26.7601ZM61.501 27.054C61.501 26.8234 61.5446 26.7918 61.5093 26.8553C61.4908 26.8886 61.4616 26.9272 61.4239 26.9611C61.3873 26.9941 61.3609 27.0062 61.3617 27.0058L59.7203 23.3582C59.0079 23.6787 58.4094 24.1987 58.0127 24.9127C57.6308 25.6002 57.501 26.3486 57.501 27.054H61.501ZM61.3991 26.9886C61.7118 26.84 62.3725 26.6776 63.5577 26.6618L63.5043 22.6622C62.0896 22.681 60.7569 22.8653 59.6829 23.3754L61.3991 26.9886ZM65.5296 24.7369C65.576 23.5011 65.7664 22.6016 66.0282 21.9708L62.3338 20.4372C61.833 21.6438 61.5901 23.0495 61.5324 24.5871L65.5296 24.7369ZM66.0332 21.9586C66.0719 21.8637 66.1037 21.8164 66.1168 21.7992C66.1282 21.7841 66.1263 21.7904 66.1091 21.8021C66.0917 21.8141 66.081 21.8162 66.0898 21.8138C66.1013 21.8106 66.1456 21.8 66.235 21.8V17.8C65.4169 17.8 64.5862 17.998 63.8519 18.4999C63.1209 18.9995 62.6349 19.6982 62.3288 20.4494L66.0332 21.9586ZM66.235 21.8C66.3444 21.8 66.4002 21.8119 66.4159 21.8161C66.4232 21.818 66.4207 21.8179 66.4108 21.8135C66.4007 21.8091 66.3854 21.8013 66.3671 21.7891C66.3488 21.7769 66.3309 21.7625 66.3146 21.7468C66.2984 21.7312 66.2868 21.7171 66.2794 21.707C66.2644 21.6862 66.2736 21.6913 66.2915 21.7438L70.0786 20.4562C69.8147 19.6801 69.338 18.9623 68.5859 18.4609C67.8499 17.9702 67.0201 17.8 66.235 17.8V21.8ZM66.3032 21.7774C66.4954 22.3113 66.6337 23.2176 66.6015 24.616L70.6005 24.708C70.6377 23.0904 70.4986 21.622 70.0668 20.4226L66.3032 21.7774ZM68.623 26.6619C70.1524 26.6451 71.0237 26.774 71.4263 26.9144L72.7438 23.1376C71.6557 22.758 70.2043 22.6443 68.579 22.6621L68.623 26.6619ZM71.4397 26.919C71.4665 26.9282 71.4491 26.926 71.4092 26.897C71.3664 26.8659 71.3186 26.819 71.2789 26.7594C71.1957 26.6346 71.229 26.5828 71.229 26.742H75.229C75.229 26.0172 75.0716 25.2374 74.6071 24.5406C74.132 23.8279 73.4538 23.3796 72.7304 23.133L71.4397 26.919ZM100.708 31.318L102.253 32.588L102.262 32.5776L100.708 31.318ZM96.4182 33.84L95.9725 31.8903L94.3011 32.2723L94.4233 33.9825L96.4182 33.84ZM95.5862 37.22L96.9541 38.6791L96.9555 38.6777L95.5862 37.22ZM91.4002 37.194L90.0714 38.6888L90.0832 38.6993L90.0951 38.7095L91.4002 37.194ZM90.4902 33.788L92.4851 33.9305L92.6033 32.2751L90.9982 31.8536L90.4902 33.788ZM86.4082 31.266L84.8486 32.5181L84.8539 32.5247L84.8593 32.5313L86.4082 31.266ZM85.9662 21.62L84.2423 20.606V20.606L85.9662 21.62ZM91.3482 20.736L89.913 22.129L89.9234 22.1397L89.934 22.1502L91.3482 20.736ZM92.0762 25.052L94.0639 25.2729L94.0667 25.2483L94.0688 25.2238L92.0762 25.052ZM92.3362 27.886L90.6488 28.9598L90.6659 28.9865L90.6837 29.0127L92.3362 27.886ZM94.8062 27.886L93.1537 26.7593L93.1359 26.7855L93.1189 26.8122L94.8062 27.886ZM95.0922 25.026L93.0991 25.1921L93.1014 25.2195L93.1044 25.2469L95.0922 25.026ZM95.8462 20.736L97.2391 22.1712L97.2498 22.1608L97.2604 22.1502L95.8462 20.736ZM101.228 21.568L99.5178 22.6046V22.6046L101.228 21.568ZM100.268 26.17C100.268 28.0006 99.8285 29.2273 99.1547 30.0584L102.262 32.5776C103.668 30.8434 104.268 28.6381 104.268 26.17H100.268ZM99.1631 30.0481C98.4428 30.9244 97.4242 31.5585 95.9725 31.8903L96.8638 35.7897C99.0521 35.2895 100.894 34.2423 102.253 32.5879L99.1631 30.0481ZM94.4233 33.9825C94.4353 34.1505 94.4442 34.464 94.4442 34.958H98.4442C98.4442 34.4466 98.4358 34.0149 98.4131 33.6975L94.4233 33.9825ZM94.4442 34.958C94.4442 35.5165 94.2946 35.6892 94.2168 35.7623L96.9555 38.6777C98.0217 37.6761 98.4442 36.3408 98.4442 34.958H94.4442ZM94.2183 35.7609C94.0448 35.9235 93.8707 36 93.5842 36V40C94.8577 40 96.0182 39.5565 96.9541 38.6791L94.2183 35.7609ZM93.5842 36C93.2257 36 92.9621 35.8997 92.7052 35.6785L90.0951 38.7095C91.0862 39.563 92.2786 40 93.5842 40V36ZM92.7289 35.6992C92.5863 35.5724 92.4642 35.3998 92.4642 34.958H88.4642C88.4642 36.3882 88.9661 37.7063 90.0714 38.6888L92.7289 35.6992ZM92.4642 34.958C92.4642 34.4256 92.4732 34.0967 92.4851 33.9305L88.4953 33.6455C88.4725 33.9646 88.4642 34.4157 88.4642 34.958H92.4642ZM90.9982 31.8536C89.6413 31.4972 88.664 30.8661 87.9571 30.0007L84.8593 32.5313C86.163 34.1272 87.9071 35.1774 89.9821 35.7224L90.9982 31.8536ZM87.9678 30.0139C87.3281 29.2172 86.9262 28.098 86.9262 26.482H82.9262C82.9262 28.7834 83.5122 30.8535 84.8486 32.5181L87.9678 30.0139ZM86.9262 26.482C86.9262 24.6082 87.2469 23.3874 87.69 22.634L84.2423 20.606C83.2988 22.21 82.9262 24.2305 82.9262 26.482H86.9262ZM87.69 22.634C88.0291 22.0576 88.4009 21.852 89.0342 21.852V17.852C86.9635 17.852 85.2899 18.8251 84.2423 20.606L87.69 22.634ZM89.0342 21.852C89.5703 21.852 89.7858 21.9978 89.913 22.129L92.7833 19.343C91.7666 18.2955 90.4393 17.852 89.0342 17.852V21.852ZM89.934 22.1502C90.0381 22.2543 90.2062 22.4883 90.2062 23.128H94.2062C94.2062 21.7224 93.8023 20.3617 92.7624 19.3218L89.934 22.1502ZM90.2062 23.128C90.2062 23.3013 90.1725 23.8485 90.0836 24.8802L94.0688 25.2238C94.1532 24.2449 94.2062 23.5094 94.2062 23.128H90.2062ZM90.0884 24.8311C90.0237 25.4134 89.9722 25.93 89.9722 26.222H93.9722C93.9722 26.2431 93.9727 26.1873 93.9903 25.9896C94.0058 25.8152 94.0301 25.5778 94.0639 25.2729L90.0884 24.8311ZM89.9722 26.222C89.9722 27.1196 90.1125 28.1169 90.6488 28.9598L94.0235 26.8122C94.0559 26.8631 94.0398 26.8609 94.017 26.7566C93.9942 26.6525 93.9722 26.4804 93.9722 26.222H89.9722ZM90.6837 29.0127C91.407 30.0735 92.53 30.458 93.5842 30.458V26.458C93.516 26.458 93.5662 26.4463 93.6765 26.4969C93.7323 26.5225 93.7933 26.5596 93.8523 26.6095C93.9112 26.6593 93.9563 26.712 93.9886 26.7593L90.6837 29.0127ZM93.5842 30.458C94.6332 30.458 95.785 30.0731 96.4935 28.9597L93.1189 26.8122C93.155 26.7555 93.2056 26.6933 93.272 26.6348C93.3386 26.5763 93.4077 26.5332 93.4708 26.5036C93.5944 26.4458 93.6542 26.458 93.5842 26.458V30.458ZM96.4586 29.0127C97.0413 28.1581 97.1962 27.1381 97.1962 26.222H93.1962C93.1962 26.4725 93.1733 26.6345 93.1514 26.7276C93.1299 26.8196 93.1168 26.8135 93.1537 26.7593L96.4586 29.0127ZM97.1962 26.222C97.1962 25.9148 97.1455 25.3955 97.0799 24.8051L93.1044 25.2469C93.1382 25.5508 93.1623 25.7891 93.1777 25.9663C93.1948 26.1626 93.1962 26.2299 93.1962 26.222H97.1962ZM97.0853 24.8599C96.9957 23.7849 96.9622 23.2416 96.9622 23.102H92.9622C92.9622 23.4477 93.0153 24.1871 93.0991 25.1921L97.0853 24.8599ZM96.9622 23.102C96.9622 22.5079 97.1219 22.285 97.2391 22.1712L94.4532 19.3008C93.3918 20.331 92.9622 21.6854 92.9622 23.102H96.9622ZM97.2604 22.1502C97.4198 21.9908 97.6544 21.852 98.1602 21.852V17.852C96.7593 17.852 95.4512 18.3026 94.432 19.3218L97.2604 22.1502ZM98.1602 21.852C98.822 21.852 99.1917 22.0665 99.5178 22.6046L102.939 20.5314C101.878 18.7815 100.202 17.852 98.1602 17.852V21.852ZM99.5178 22.6046C99.9562 23.3279 100.268 24.4602 100.268 26.17H104.268C104.268 24.0318 103.887 22.0961 102.939 20.5314L99.5178 22.6046ZM110.068 38.026L110.041 36.0262L110.04 36.0262L110.068 38.026ZM106.714 37.246L105.745 38.9958L105.752 38.9994L105.758 39.003L106.714 37.246ZM104.426 35.036L102.684 36.018L102.694 36.0369L102.705 36.0556L104.426 35.036ZM103.568 31.864L101.568 31.8938L101.568 31.9088L101.569 31.9237L103.568 31.864ZM104.374 28.744L102.662 27.7103L104.374 28.744ZM106.688 26.56L105.745 24.7961L105.739 24.7996L105.732 24.803L106.688 26.56ZM113.344 26.534L112.4 28.297L112.406 28.3004L112.412 28.3038L113.344 26.534ZM115.684 28.718L113.977 29.7609L115.684 28.718ZM116.594 31.864L118.594 31.8332L118.594 31.8188L118.593 31.8043L116.594 31.864ZM115.788 34.958L117.5 35.9917L117.504 35.9847L117.509 35.9776L115.788 34.958ZM113.448 37.168L112.482 35.4168L112.475 35.4204L112.469 35.424L113.448 37.168ZM111.368 31.162L109.92 32.5413L109.937 32.559L109.954 32.5762L111.368 31.162ZM108.924 31.162L110.338 32.5762L110.355 32.559L110.372 32.5413L108.924 31.162ZM108.924 33.684L107.476 35.0633L108.924 33.684ZM110.04 36.0262C109.097 36.0393 108.324 35.8449 107.67 35.489L105.758 39.003C107.08 39.7217 108.543 40.0474 110.096 40.0258L110.04 36.0262ZM107.683 35.4962C107.017 35.1275 106.516 34.6402 106.147 34.0164L102.705 36.0556C103.445 37.3038 104.47 38.2898 105.745 38.9958L107.683 35.4962ZM106.168 34.054C105.8 33.4002 105.593 32.6625 105.567 31.8043L101.569 31.9237C101.613 33.3882 101.978 34.7652 102.684 36.018L106.168 34.054ZM105.568 31.8342C105.556 31.0153 105.741 30.3494 106.086 29.7777L102.662 27.7103C101.898 28.9759 101.546 30.3901 101.568 31.8938L105.568 31.8342ZM106.086 29.7777C106.448 29.1779 106.952 28.6931 107.644 28.317L105.732 24.803C104.448 25.5015 103.409 26.4728 102.662 27.7103L106.086 29.7777ZM107.631 28.3239C108.319 27.9559 109.117 27.754 110.068 27.754V23.754C108.523 23.754 107.067 24.0894 105.745 24.7961L107.631 28.3239ZM110.068 27.754C110.986 27.754 111.748 27.948 112.4 28.297L114.288 24.771C112.999 24.08 111.577 23.754 110.068 23.754V27.754ZM112.412 28.3038C113.087 28.659 113.597 29.1384 113.977 29.7609L117.391 27.6751C116.627 26.4256 115.577 25.449 114.275 24.7642L112.412 28.3038ZM113.977 29.7609C114.357 30.3825 114.57 31.0886 114.595 31.9237L118.593 31.8043C118.549 30.3167 118.155 28.9255 117.391 27.6751L113.977 29.7609ZM114.594 31.8948C114.606 32.6661 114.427 33.3317 114.067 33.9384L117.509 35.9776C118.258 34.7123 118.617 33.3153 118.594 31.8332L114.594 31.8948ZM114.076 33.9243C113.715 34.5214 113.202 35.0194 112.482 35.4168L114.414 38.9192C115.705 38.2072 116.751 37.2319 117.5 35.9917L114.076 33.9243ZM112.469 35.424C111.805 35.797 111.012 36.0129 110.041 36.0262L110.095 40.0258C111.655 40.0045 113.115 39.6483 114.427 38.912L112.469 35.424ZM110.146 36.23C111.205 36.23 112.123 35.7909 112.816 35.0633L109.92 32.3047C109.903 32.3218 109.924 32.2954 109.987 32.2675C110.052 32.2382 110.113 32.23 110.146 32.23V36.23ZM112.816 35.0633C113.503 34.3421 113.888 33.4289 113.888 32.41H109.888C109.888 32.4117 109.888 32.4037 109.891 32.3884C109.894 32.3728 109.899 32.3549 109.906 32.3367C109.914 32.3186 109.921 32.3057 109.926 32.2987C109.93 32.292 109.93 32.2943 109.92 32.3047L112.816 35.0633ZM113.888 32.41C113.888 31.3882 113.5 30.4652 112.782 29.7478L109.954 32.5762C109.959 32.5812 109.934 32.5568 109.912 32.5032C109.902 32.4788 109.895 32.4558 109.891 32.4367C109.888 32.418 109.888 32.4082 109.888 32.41H113.888ZM112.816 29.7827C112.123 29.0551 111.205 28.616 110.146 28.616V32.616C110.113 32.616 110.052 32.6078 109.987 32.5785C109.924 32.5506 109.903 32.5242 109.92 32.5413L112.816 29.7827ZM110.146 28.616C109.087 28.616 108.169 29.0551 107.476 29.7827L110.372 32.5413C110.389 32.5242 110.368 32.5506 110.305 32.5785C110.24 32.6078 110.179 32.616 110.146 32.616V28.616ZM107.51 29.7478C106.792 30.4652 106.404 31.3882 106.404 32.41H110.404C110.404 32.4082 110.404 32.418 110.4 32.4367C110.397 32.4558 110.39 32.4788 110.38 32.5032C110.358 32.5568 110.333 32.5812 110.338 32.5762L107.51 29.7478ZM106.404 32.41C106.404 33.4289 106.789 34.3421 107.476 35.0633L110.372 32.3047C110.362 32.2943 110.362 32.292 110.366 32.2987C110.371 32.3057 110.378 32.3186 110.386 32.3367C110.393 32.3549 110.398 32.3728 110.401 32.3884C110.404 32.4037 110.404 32.4117 110.404 32.41H106.404ZM107.476 35.0633C108.169 35.7909 109.087 36.23 110.146 36.23V32.23C110.179 32.23 110.24 32.2382 110.305 32.2675C110.368 32.2954 110.389 32.3218 110.372 32.3047L107.476 35.0633ZM121.644 37.064L120.528 38.7234L120.539 38.7305L120.549 38.7374L121.644 37.064ZM119.434 34.412L117.603 35.2165L117.611 35.2334L117.619 35.2501L119.434 34.412ZM119.382 27.028L117.639 26.0475L119.382 27.028ZM123.516 28.874L125.511 29.0274L125.511 29.0165L123.516 28.874ZM123.464 29.472L121.474 29.273V29.273L123.464 29.472ZM123.828 32.878L122.253 34.1106L123.828 32.878ZM126.116 32.904L124.541 31.6714L124.534 31.6811L126.116 32.904ZM126.506 29.602L124.519 29.8229V29.8229L126.506 29.602ZM126.454 28.926L124.458 29.0369L124.458 29.0434L126.454 28.926ZM130.562 27.028L128.804 27.9806L128.816 28.0026L128.828 28.0242L130.562 27.028ZM129.652 35.972L131.218 37.2165L131.226 37.2068L129.652 35.972ZM124.972 36C124.052 36 123.332 35.7783 122.74 35.3906L120.549 38.7374C121.863 39.5977 123.363 40 124.972 40V36ZM122.761 35.4046C122.136 34.9841 121.63 34.3955 121.25 33.5739L117.619 35.2501C118.279 36.6819 119.246 37.8613 120.528 38.7234L122.761 35.4046ZM121.266 33.6075C120.894 32.7611 120.68 31.7262 120.68 30.46H116.68C116.68 32.1751 116.97 33.7749 117.603 35.2165L121.266 33.6075ZM120.68 30.46C120.68 29.1819 120.892 28.424 121.126 28.0085L117.639 26.0475C116.937 27.296 116.68 28.8261 116.68 30.46H120.68ZM121.126 28.0085C121.236 27.8115 121.308 27.7708 121.299 27.7765C121.296 27.7787 121.288 27.7821 121.283 27.7836C121.279 27.7848 121.292 27.78 121.332 27.78V23.78C119.658 23.78 118.399 24.6974 117.639 26.0475L121.126 28.0085ZM121.332 27.78C121.536 27.78 121.632 27.8067 121.654 27.8142C121.665 27.8183 121.617 27.8022 121.559 27.7432C121.503 27.6851 121.493 27.6434 121.503 27.6717C121.515 27.7092 121.542 27.8217 121.542 28.042H125.542C125.542 26.9912 125.286 25.8336 124.421 24.9478C123.547 24.0534 122.389 23.78 121.332 23.78V27.78ZM121.542 28.042C121.542 28.319 121.535 28.5473 121.522 28.7315L125.511 29.0165C125.533 28.7154 125.542 28.389 125.542 28.042H121.542ZM121.522 28.7206C121.506 28.9349 121.49 29.1185 121.474 29.273L125.455 29.671C125.474 29.4788 125.492 29.2638 125.511 29.0274L121.522 28.7206ZM121.474 29.273C121.402 29.9948 121.36 30.6242 121.36 31.136H125.36C125.36 30.8158 125.388 30.3359 125.455 29.671L121.474 29.273ZM121.36 31.136C121.36 32.1296 121.557 33.2213 122.253 34.1106L125.403 31.6454C125.441 31.6934 125.43 31.7033 125.409 31.6246C125.387 31.5416 125.36 31.3866 125.36 31.136H121.36ZM122.253 34.1106C122.891 34.9257 123.825 35.476 124.972 35.476V31.476C125.054 31.476 125.166 31.4971 125.275 31.554C125.377 31.6074 125.415 31.6598 125.403 31.6454L122.253 34.1106ZM124.972 35.476C126.081 35.476 127.039 34.9813 127.699 34.1269L124.534 31.6811C124.546 31.665 124.604 31.5999 124.715 31.5441C124.828 31.4875 124.927 31.476 124.972 31.476V35.476ZM127.691 34.1366C128.393 33.2408 128.584 32.1344 128.584 31.136H124.584C124.584 31.3988 124.558 31.5625 124.534 31.6512C124.512 31.7362 124.5 31.7245 124.541 31.6714L127.691 34.1366ZM128.584 31.136C128.584 30.5201 128.556 29.934 128.494 29.3811L124.519 29.8229C124.561 30.206 124.584 30.6425 124.584 31.136H128.584ZM128.494 29.3811C128.483 29.2773 128.468 29.093 128.451 28.8086L124.458 29.0434C124.476 29.3483 124.496 29.6146 124.519 29.8229L128.494 29.3811ZM128.451 28.8151C128.436 28.5329 128.428 28.2845 128.428 28.068H124.428C124.428 28.3715 124.439 28.6951 124.458 29.0369L128.451 28.8151ZM128.428 28.068C128.428 27.8415 128.457 27.7229 128.47 27.68C128.481 27.6459 128.474 27.6845 128.419 27.7415C128.363 27.7999 128.315 27.8168 128.324 27.8136C128.344 27.8067 128.437 27.78 128.638 27.78V23.78C127.576 23.78 126.415 24.0589 125.542 24.9625C124.682 25.8532 124.428 27.0141 124.428 28.068H128.428ZM128.638 27.78C128.679 27.78 128.691 27.7848 128.683 27.7827C128.675 27.7803 128.663 27.7752 128.655 27.7699C128.636 27.7576 128.7 27.7896 128.804 27.9806L132.321 26.0754C131.579 24.7057 130.319 23.78 128.638 23.78V27.78ZM128.828 28.0242C129.05 28.4103 129.264 29.1557 129.264 30.46H133.264C133.264 28.8177 133.011 27.275 132.297 26.0318L128.828 28.0242ZM129.264 30.46C129.264 32.463 128.799 33.8196 128.079 34.7372L131.226 37.2068C132.655 35.3858 133.264 33.0677 133.264 30.46H129.264ZM128.087 34.7275C127.463 35.5119 126.534 36 124.972 36V40C127.502 40 129.692 39.1361 131.218 37.2165L128.087 34.7275ZM133.983 36.05L132.058 36.5893L132.061 36.6011L132.064 36.6129L133.983 36.05ZM133.567 28.068L131.589 27.7784L131.586 27.7991L131.583 27.8199L133.567 28.068ZM134.27 26.274L132.676 25.0652L132.669 25.074L134.27 26.274ZM137.285 25.858L136.233 27.5585L136.25 27.5694L136.268 27.5799L137.285 25.858ZM138.013 26.82L136.073 27.3051L136.884 30.5495L139.359 28.2999L138.013 26.82ZM139.495 26.04L140.045 27.963L140.045 27.963L139.495 26.04ZM143.135 26.196L142.263 27.9956L142.273 28.0007L142.284 28.0056L143.135 26.196ZM144.591 27.34L143.019 28.5756L143.043 28.6068L143.069 28.6369L144.591 27.34ZM144.591 30.356L143.12 29.0019L143.117 29.0045L144.591 30.356ZM142.459 30.902L141.885 32.8177L141.909 32.8249L141.933 32.8315L142.459 30.902ZM141.992 30.746L141.249 32.603L141.269 32.611L141.289 32.6187L141.992 30.746ZM139.366 31.344L137.928 29.9532L137.928 29.954L139.366 31.344ZM138.507 35.66L140.495 35.8871L138.507 35.66ZM137.883 37.298L139.491 38.4885L139.501 38.4746L139.511 38.4605L137.883 37.298ZM136.219 36C136.139 36 136.111 35.9885 136.117 35.9907C136.12 35.9915 136.125 35.9938 136.132 35.9979C136.135 35.9998 136.138 36.0016 136.14 36.0031C136.142 36.0045 136.143 36.0054 136.143 36.0052C136.143 36.005 136.136 35.9991 136.124 35.9838C136.111 35.9683 136.093 35.9424 136.069 35.9026C136.022 35.8212 135.962 35.689 135.903 35.4871L132.064 36.6129C132.324 37.4981 132.766 38.3675 133.514 39.0198C134.296 39.7016 135.244 40 136.219 40V36ZM135.909 35.5107C135.617 34.4662 135.438 32.8813 135.438 30.668H131.438C131.438 33.0307 131.622 35.0338 132.058 36.5893L135.909 35.5107ZM135.438 30.668C135.438 29.6751 135.479 28.8979 135.552 28.3161L131.583 27.8199C131.482 28.6248 131.438 29.5809 131.438 30.668H135.438ZM135.546 28.3576C135.611 27.9165 135.74 27.6471 135.869 27.474L132.669 25.074C132.071 25.8716 131.732 26.7982 131.589 27.7784L135.546 28.3576ZM135.863 27.4828C135.858 27.4894 135.846 27.5032 135.827 27.5182C135.808 27.5332 135.792 27.5412 135.785 27.5439C135.774 27.549 135.833 27.52 136.011 27.52V23.52C134.77 23.52 133.525 23.9464 132.676 25.0652L135.863 27.4828ZM136.011 27.52C136.176 27.52 136.226 27.5542 136.233 27.5585L138.338 24.1575C137.617 23.7112 136.818 23.52 136.011 23.52V27.52ZM136.268 27.5799C136.257 27.5736 136.21 27.5418 136.159 27.4744C136.107 27.4059 136.082 27.3409 136.073 27.3051L139.954 26.3349C139.715 25.381 139.128 24.6236 138.303 24.1361L136.268 27.5799ZM139.359 28.2999C139.467 28.2014 139.669 28.0705 140.045 27.963L138.946 24.117C138.109 24.3562 137.323 24.7452 136.668 25.3401L139.359 28.2999ZM140.045 27.963C140.456 27.8455 140.92 27.78 141.445 27.78V23.78C140.585 23.78 139.748 23.8878 138.946 24.117L140.045 27.963ZM141.445 27.78C141.657 27.78 141.923 27.8309 142.263 27.9956L144.008 24.3964C143.204 24.0065 142.344 23.78 141.445 23.78V27.78ZM142.284 28.0056C142.607 28.1579 142.841 28.3487 143.019 28.5756L146.164 26.1044C145.58 25.3606 144.842 24.7888 143.987 24.3864L142.284 28.0056ZM143.069 28.6369C143.195 28.7851 143.189 28.847 143.189 28.874H147.189C147.189 27.7916 146.785 26.8309 146.114 26.0431L143.069 28.6369ZM143.189 28.874C143.189 28.8922 143.188 28.9019 143.187 28.9051C143.187 28.9082 143.186 28.9099 143.185 28.9121C143.185 28.9135 143.173 28.9438 143.12 29.0019L146.063 31.7101C146.779 30.9325 147.189 29.9631 147.189 28.874H143.189ZM143.117 29.0045C143.117 29.0048 143.123 28.9984 143.135 28.9898C143.148 28.9811 143.16 28.9749 143.168 28.9714C143.177 28.9681 143.175 28.9699 143.159 28.9728C143.143 28.9758 143.11 28.98 143.057 28.98V32.98C144.175 32.98 145.252 32.5951 146.066 31.7075L143.117 29.0045ZM143.057 28.98C143.018 28.98 142.996 28.9753 142.986 28.9725L141.933 32.8315C142.304 32.9327 142.681 32.98 143.057 32.98V28.98ZM143.034 28.9863C142.895 28.9445 142.782 28.9066 142.694 28.8733L141.289 32.6187C141.478 32.6894 141.678 32.7555 141.885 32.8177L143.034 28.9863ZM142.734 28.889C142.309 28.7189 141.749 28.538 141.16 28.538V32.538C141.102 32.538 141.063 32.5333 141.046 32.5309C141.028 32.5284 141.025 32.527 141.038 32.5303C141.051 32.5335 141.076 32.5402 141.112 32.5524C141.148 32.5645 141.194 32.5809 141.249 32.603L142.734 28.889ZM141.16 28.538C139.881 28.538 138.781 29.072 137.928 29.9532L140.803 32.7348C140.99 32.5413 141.086 32.538 141.16 32.538V28.538ZM137.928 29.954C137.01 30.9033 136.611 32.1054 136.611 33.372H140.611C140.611 32.9746 140.716 32.8247 140.803 32.734L137.928 29.954ZM136.611 33.372C136.611 34.2485 136.578 34.929 136.52 35.4329L140.495 35.8871C140.576 35.1777 140.611 34.3328 140.611 33.372H136.611ZM136.52 35.4329C136.489 35.7107 136.401 35.9332 136.256 36.1355L139.511 38.4605C140.06 37.6921 140.388 36.8226 140.495 35.8871L136.52 35.4329ZM136.276 36.1075C136.296 36.0817 136.322 36.0531 136.356 36.0272C136.388 36.0017 136.416 35.9877 136.43 35.9818C136.455 35.9713 136.402 36 136.219 36V40C137.401 40 138.655 39.6165 139.491 38.4885L136.276 36.1075ZM165.489 37.974L165.477 39.974H165.489V37.974ZM159.015 35.842L157.61 37.2649L157.618 37.2734L159.015 35.842ZM158.963 22.27L160.486 23.5663L160.493 23.5583L158.963 22.27ZM168.921 20.502L169.669 18.647V18.647L168.921 20.502ZM171.911 28.068L170.175 27.0757L170.166 27.0915L170.157 27.1074L171.911 28.068ZM170.117 30.018L168.951 28.3929L165.015 31.2168L169.797 31.9922L170.117 30.018ZM171.781 31.058L170.215 32.3018L170.226 32.3157L170.237 32.3294L171.781 31.058ZM171.833 35.478L170.122 34.4431L170.115 34.455L171.833 35.478ZM169.597 37.272L168.788 35.4431L168.776 35.4482L169.597 37.272ZM163.695 28.276L164.59 26.4871L164.537 26.4609L164.483 26.4377L163.695 28.276ZM166.295 28.12L167.388 29.7952L167.396 29.7897L167.405 29.7841L166.295 28.12ZM166.295 25.728L165.153 27.3698L165.193 27.3979L165.235 27.424L166.295 25.728ZM163.695 25.546L164.483 27.3843L164.537 27.3611L164.59 27.3349L163.695 25.546ZM163.149 26.092L161.337 25.2462V25.2462L163.149 26.092ZM163.149 27.756L161.337 28.6018L161.348 28.6263L161.36 28.6504L163.149 27.756ZM163.695 34.36L162.907 36.1983L162.919 36.2033L163.695 34.36ZM166.295 34.23L167.279 35.9711L167.291 35.9644L167.303 35.9576L166.295 34.23ZM166.295 32.124L167.303 30.3964V30.3964L166.295 32.124ZM163.695 31.968L162.919 30.1247L162.907 30.1297L163.695 31.968ZM163.149 32.462L164.877 33.4697L164.894 33.4403L164.91 33.4102L163.149 32.462ZM163.149 33.892L161.388 34.8402L161.404 34.8703L161.422 34.8997L163.149 33.892ZM165.501 35.974C162.918 35.9585 161.346 35.3222 160.412 34.4106L157.618 37.2734C159.562 39.1698 162.306 39.9549 165.477 39.974L165.501 35.974ZM160.421 34.4191C159.55 33.5593 158.883 31.9241 158.883 29.004H154.883C154.883 32.3932 155.637 35.3167 157.61 37.2649L160.421 34.4191ZM158.883 29.004C158.883 26.4577 159.498 24.7275 160.486 23.5662L157.44 20.9738C155.655 23.0712 154.883 25.8303 154.883 29.004H158.883ZM160.493 23.5583C161.431 22.4439 162.784 21.8 164.839 21.8V17.8C161.833 17.8 159.268 18.8028 157.433 20.9817L160.493 23.5583ZM164.839 21.8C166.204 21.8 167.3 22.0052 168.174 22.357L169.669 18.647C168.219 18.0628 166.595 17.8 164.839 17.8V21.8ZM168.174 22.357C169.046 22.7084 169.609 23.1627 169.976 23.6726L173.222 21.3354C172.341 20.112 171.119 19.2316 169.669 18.647L168.174 22.357ZM169.976 23.6726C170.33 24.1636 170.535 24.7671 170.535 25.572H174.535C174.535 24.0195 174.117 22.5777 173.222 21.3354L169.976 23.6726ZM170.535 25.572C170.535 26.2013 170.399 26.6839 170.175 27.0757L173.648 29.0603C174.256 27.9961 174.535 26.8147 174.535 25.572H170.535ZM170.157 27.1074C169.926 27.5289 169.549 27.964 168.951 28.3929L171.283 31.6431C172.28 30.928 173.099 30.0631 173.665 29.0286L170.157 27.1074ZM169.797 31.9922C169.869 32.0039 170.005 32.0367 170.215 32.3018L173.347 29.8142C172.622 28.9006 171.648 28.2401 170.437 28.0438L169.797 31.9922ZM170.237 32.3294C170.421 32.5523 170.509 32.7849 170.509 33.112H174.509C174.509 31.8791 174.112 30.7424 173.325 29.7866L170.237 32.3294ZM170.509 33.112C170.509 33.5617 170.393 33.9947 170.122 34.4432L173.545 36.5128C174.175 35.4706 174.509 34.3263 174.509 33.112H170.509ZM170.115 34.455C169.958 34.7176 169.601 35.0831 168.788 35.4431L170.407 39.1009C171.708 38.5249 172.841 37.6944 173.552 36.501L170.115 34.455ZM168.776 35.4482C168.089 35.7575 167.031 35.974 165.489 35.974V39.974C167.345 39.974 169.025 39.7225 170.418 39.0958L168.776 35.4482ZM162.801 30.0649C163.469 30.3988 164.188 30.51 164.865 30.51V26.51C164.607 26.51 164.546 26.4652 164.59 26.4871L162.801 30.0649ZM164.865 30.51C165.742 30.51 166.613 30.3003 167.388 29.7952L165.203 26.4448C165.18 26.4597 165.097 26.51 164.865 26.51V30.51ZM167.405 29.7841C168.425 29.1041 168.919 28.0447 168.919 26.898H164.919C164.919 26.9056 164.919 26.8202 164.982 26.6969C165.048 26.5679 165.136 26.489 165.186 26.4559L167.405 29.7841ZM168.919 26.898C168.919 25.7383 168.397 24.6832 167.355 24.032L165.235 27.424C165.18 27.3893 165.077 27.3036 164.998 27.1567C164.923 27.0149 164.919 26.9083 164.919 26.898H168.919ZM167.437 24.0862C166.647 23.5365 165.745 23.312 164.839 23.312V27.312C165.077 27.312 165.146 27.3649 165.153 27.3698L167.437 24.0862ZM164.839 23.312C164.166 23.312 163.459 23.4278 162.801 23.7571L164.59 27.3349C164.555 27.3522 164.611 27.312 164.839 27.312V23.312ZM162.907 23.7077C162.172 24.0228 161.647 24.5826 161.337 25.2462L164.962 26.9378C164.935 26.9949 164.883 27.0831 164.791 27.1747C164.697 27.2683 164.589 27.3387 164.483 27.3843L162.907 23.7077ZM161.337 25.2462C161.089 25.7783 160.967 26.3452 160.967 26.924H164.967C164.967 26.9191 164.967 26.9169 164.967 26.9172C164.967 26.9175 164.967 26.9193 164.967 26.9224C164.966 26.9255 164.965 26.9287 164.964 26.9319C164.963 26.935 164.962 26.937 164.962 26.9378L161.337 25.2462ZM160.967 26.924C160.967 27.5028 161.089 28.0697 161.337 28.6018L164.962 26.9102C164.962 26.911 164.963 26.913 164.964 26.9161C164.965 26.9193 164.966 26.9225 164.967 26.9256C164.967 26.9287 164.967 26.9305 164.967 26.9308C164.967 26.9311 164.967 26.9289 164.967 26.924H160.967ZM161.36 28.6504C161.687 29.3034 162.217 29.8184 162.907 30.1143L164.483 26.4377C164.569 26.4747 164.666 26.5341 164.756 26.6197C164.845 26.7048 164.904 26.7925 164.938 26.8616L161.36 28.6504ZM162.919 36.2033C163.549 36.4686 164.215 36.568 164.865 36.568V32.568C164.614 32.568 164.5 32.5288 164.471 32.5167L162.919 36.2033ZM164.865 36.568C165.692 36.568 166.523 36.3986 167.279 35.9711L165.311 32.4889C165.27 32.5121 165.148 32.568 164.865 32.568V36.568ZM167.303 35.9576C168.311 35.3693 168.919 34.3685 168.919 33.164H164.919C164.919 33.0923 164.938 32.94 165.037 32.7711C165.134 32.6051 165.249 32.5248 165.287 32.5024L167.303 35.9576ZM168.919 33.164C168.919 31.9444 168.282 30.9675 167.303 30.3964L165.287 33.8516C165.26 33.8357 165.148 33.7609 165.048 33.595C164.945 33.4228 164.919 33.2584 164.919 33.164H168.919ZM167.303 30.3964C166.537 29.9498 165.693 29.76 164.839 29.76V33.76C165.094 33.76 165.221 33.8129 165.287 33.8516L167.303 30.3964ZM164.839 29.76C164.195 29.76 163.54 29.8631 162.919 30.1247L164.471 33.8113C164.509 33.7955 164.617 33.76 164.839 33.76V29.76ZM162.907 30.1297C162.263 30.4058 161.731 30.8769 161.388 31.5138L164.91 33.4102C164.867 33.4897 164.804 33.5753 164.719 33.6526C164.634 33.7293 164.549 33.7779 164.483 33.8063L162.907 30.1297ZM161.422 31.4543C161.108 31.9924 160.967 32.5791 160.967 33.164H164.967C164.967 33.1906 164.964 33.2366 164.949 33.2954C164.933 33.3551 164.909 33.4149 164.877 33.4697L161.422 31.4543ZM160.967 33.164C160.967 33.7495 161.107 34.3186 161.388 34.8402L164.91 32.9438C164.926 32.9741 164.942 33.0123 164.953 33.0559C164.964 33.0994 164.967 33.1369 164.967 33.164H160.967ZM161.422 34.8997C161.78 35.5142 162.311 35.9425 162.907 36.1983L164.483 32.5217C164.529 32.5416 164.6 32.5798 164.678 32.6465C164.758 32.7145 164.825 32.7963 164.877 32.8843L161.422 34.8997ZM177.756 37.246L178.663 35.4634L177.756 37.246ZM175.442 35.14L173.716 36.1498L173.727 36.1691L173.739 36.1882L175.442 35.14ZM175.442 28.926L173.714 27.9202L173.707 27.932L173.7 27.944L175.442 28.926ZM177.73 26.638L178.746 28.3611V28.3611L177.73 26.638ZM183.97 26.456L184.908 24.6893V24.6893L183.97 26.456ZM185.92 28.25L184.209 29.2848L184.214 29.2938L184.22 29.3027L185.92 28.25ZM185.114 33.398L186.152 35.1076L186.161 35.1023L185.114 33.398ZM179.342 33.944L180.022 32.0629L174.66 30.1268L177.637 34.9883L179.342 33.944ZM183.476 35.036L183.904 36.9898L183.933 36.9835L183.961 36.9763L183.476 35.036ZM184.984 35.244L183.692 36.7708L183.72 36.7942L183.749 36.8166L184.984 35.244ZM184.36 37.428L185.362 39.1589L185.379 39.1491L185.396 39.139L184.36 37.428ZM179.42 30.772H177.42V31.3594L177.738 31.8535L179.42 30.772ZM180.044 31.318L179.199 33.1304L179.269 33.1633L179.342 33.1907L180.044 31.318ZM181.942 31.214L180.928 29.4901L180.905 29.5038L180.882 29.518L181.942 31.214ZM181.994 29.732L180.633 31.1976L180.659 31.2209L180.684 31.2434L181.994 29.732ZM179.81 29.836L178.354 28.4653L178.351 28.4681L179.81 29.836ZM181.162 36C180.145 36 179.329 35.8023 178.663 35.4634L176.849 39.0286C178.159 39.6951 179.614 40 181.162 40V36ZM178.663 35.4634C177.987 35.1194 177.498 34.6646 177.146 34.0918L173.739 36.1882C174.496 37.4181 175.55 38.3673 176.849 39.0286L178.663 35.4634ZM177.169 34.1302C176.824 33.5408 176.636 32.8626 176.636 32.046H172.636C172.636 33.5174 172.986 34.9018 173.716 36.1498L177.169 34.1302ZM176.636 32.046C176.636 31.2528 176.821 30.5525 177.185 29.908L173.7 27.944C172.989 29.2061 172.636 30.5859 172.636 32.046H176.636ZM177.171 29.9318C177.549 29.2813 178.064 28.763 178.746 28.3611L176.715 24.9149C175.456 25.657 174.445 26.664 173.714 27.9202L177.171 29.9318ZM178.746 28.3611C179.381 27.9869 180.125 27.78 181.032 27.78V23.78C179.479 23.78 178.021 24.1451 176.715 24.9149L178.746 28.3611ZM181.032 27.78C181.865 27.78 182.514 27.9473 183.033 28.2227L184.908 24.6893C183.728 24.0634 182.418 23.78 181.032 23.78V27.78ZM183.033 28.2227C183.597 28.522 183.964 28.8805 184.209 29.2848L187.632 27.2152C186.975 26.1289 186.042 25.2913 184.908 24.6893L183.033 28.2227ZM184.22 29.3027C184.49 29.7388 184.596 30.1402 184.596 30.538H188.596C188.596 29.3412 188.252 28.2172 187.621 27.1973L184.22 29.3027ZM184.596 30.538C184.596 31.2433 184.382 31.5004 184.068 31.6937L186.161 35.1023C187.822 34.0822 188.596 32.4327 188.596 30.538H184.596ZM184.076 31.6884C183.474 32.0543 182.687 32.282 181.63 32.282V36.282C183.278 36.282 184.814 35.9203 186.152 35.1076L184.076 31.6884ZM181.63 32.282C180.883 32.282 180.365 32.187 180.022 32.0629L178.663 35.8251C179.567 36.1517 180.575 36.282 181.63 36.282V32.282ZM177.637 34.9883C178.598 36.5585 180.187 37.218 181.916 37.218V33.218C181.253 33.218 181.127 33.0282 181.048 32.8997L177.637 34.9883ZM181.916 37.218C182.567 37.218 183.232 37.1368 183.904 36.9898L183.049 33.0822C182.612 33.1779 182.236 33.218 181.916 33.218V37.218ZM183.961 36.9763C184.03 36.9591 184.066 36.958 184.074 36.958V32.958C183.701 32.958 183.339 33.0089 182.991 33.0957L183.961 36.9763ZM184.074 36.958C184.101 36.958 184.065 36.9615 183.988 36.9375C183.906 36.9116 183.798 36.8602 183.692 36.7708L186.276 33.7172C185.595 33.141 184.788 32.958 184.074 32.958V36.958ZM183.749 36.8166C183.643 36.7332 183.527 36.6031 183.445 36.4278C183.365 36.2565 183.348 36.1084 183.348 36.024H187.348C187.348 35.1285 186.981 34.2696 186.22 33.6714L183.749 36.8166ZM183.348 36.024C183.348 35.9502 183.36 35.8699 183.386 35.7914C183.411 35.714 183.443 35.6588 183.466 35.627C183.505 35.5712 183.495 35.6141 183.325 35.717L185.396 39.139C186.369 38.5502 187.348 37.5394 187.348 36.024H183.348ZM183.358 35.6971C183.176 35.8029 182.557 36 181.162 36V40C182.715 40 184.228 39.8157 185.362 39.1589L183.358 35.6971ZM177.738 31.8535C178.097 32.4121 178.594 32.8484 179.199 33.1304L180.89 29.5056C180.924 29.5216 180.967 29.5476 181.01 29.5853C181.053 29.6231 181.084 29.6611 181.103 29.6905L177.738 31.8535ZM179.342 33.1907C179.868 33.3878 180.412 33.474 180.954 33.474V29.474C180.838 29.474 180.776 29.4562 180.747 29.4453L179.342 33.1907ZM180.954 33.474C181.647 33.474 182.357 33.3131 183.002 32.91L180.882 29.518C180.921 29.4937 180.956 29.4806 180.978 29.4749C180.998 29.4696 180.993 29.474 180.954 29.474V33.474ZM182.956 32.9379C183.696 32.5027 184.384 31.6973 184.384 30.538H180.384C180.384 30.3003 180.454 30.0434 180.6 29.8205C180.734 29.6154 180.88 29.5187 180.928 29.4901L182.956 32.9379ZM184.384 30.538C184.384 29.5822 183.952 28.782 183.304 28.2206L180.684 31.2434C180.64 31.2051 180.557 31.1183 180.487 30.9736C180.414 30.824 180.384 30.6697 180.384 30.538H184.384ZM183.355 28.2664C182.614 27.578 181.693 27.394 180.928 27.394V31.394C181.007 31.394 181.002 31.4041 180.941 31.385C180.873 31.3633 180.754 31.3099 180.633 31.1976L183.355 28.2664ZM180.928 27.394C180.003 27.394 179.069 27.7051 178.354 28.4653L181.267 31.2067C181.206 31.2713 181.123 31.3289 181.033 31.3644C180.95 31.3975 180.904 31.394 180.928 31.394V27.394ZM178.351 28.4681C177.78 29.0772 177.42 29.8662 177.42 30.772H181.42C181.42 30.8558 181.403 30.9532 181.364 31.0472C181.326 31.1382 181.283 31.1894 181.269 31.2039L178.351 28.4681ZM189.482 36.05L187.556 36.5893L187.56 36.6011L187.563 36.6129L189.482 36.05ZM189.066 28.068L187.087 27.7784L187.084 27.7991L187.082 27.8199L189.066 28.068ZM189.768 26.274L188.175 25.0652L188.168 25.074L189.768 26.274ZM192.784 25.858L191.732 27.5585L191.749 27.5694L191.767 27.5799L192.784 25.858ZM193.512 26.82L191.572 27.3051L192.383 30.5495L194.858 28.2999L193.512 26.82ZM194.994 26.04L195.544 27.963V27.963L194.994 26.04ZM198.634 26.196L197.762 27.9956L197.772 28.0007L197.783 28.0056L198.634 26.196ZM200.09 27.34L198.518 28.5756L198.542 28.6068L198.568 28.6369L200.09 27.34ZM200.09 30.356L198.618 29.0019L198.616 29.0045L200.09 30.356ZM197.958 30.902L197.384 32.8177L197.408 32.8249L197.432 32.8315L197.958 30.902ZM197.49 30.746L196.748 32.603L196.768 32.611L196.788 32.6187L197.49 30.746ZM194.864 31.344L193.427 29.9532L193.426 29.954L194.864 31.344ZM194.006 35.66L195.993 35.8871L194.006 35.66ZM193.382 37.298L194.989 38.4885L195 38.4746L195.01 38.4605L193.382 37.298ZM191.718 36C191.638 36 191.61 35.9885 191.616 35.9907C191.618 35.9915 191.624 35.9938 191.631 35.9979C191.634 35.9998 191.637 36.0016 191.639 36.0031C191.641 36.0045 191.642 36.0054 191.642 36.0052C191.642 36.005 191.635 35.9991 191.623 35.9838C191.61 35.9683 191.591 35.9424 191.568 35.9026C191.521 35.8212 191.461 35.689 191.401 35.4871L187.563 36.6129C187.823 37.4981 188.265 38.3675 189.013 39.0198C189.795 39.7016 190.743 40 191.718 40V36ZM191.408 35.5107C191.116 34.4662 190.936 32.8813 190.936 30.668H186.936C186.936 33.0307 187.121 35.0338 187.556 36.5893L191.408 35.5107ZM190.936 30.668C190.936 29.6751 190.978 28.8979 191.051 28.3161L187.082 27.8199C186.981 28.6248 186.936 29.5809 186.936 30.668H190.936ZM191.045 28.3576C191.11 27.9165 191.239 27.6471 191.368 27.474L188.168 25.074C187.57 25.8716 187.231 26.7982 187.087 27.7784L191.045 28.3576ZM191.362 27.4828C191.357 27.4894 191.345 27.5032 191.325 27.5182C191.306 27.5332 191.291 27.5412 191.284 27.5439C191.273 27.549 191.332 27.52 191.51 27.52V23.52C190.269 23.52 189.024 23.9464 188.175 25.0652L191.362 27.4828ZM191.51 27.52C191.675 27.52 191.725 27.5542 191.732 27.5585L193.837 24.1575C193.116 23.7112 192.317 23.52 191.51 23.52V27.52ZM191.767 27.5799C191.756 27.5736 191.709 27.5418 191.658 27.4744C191.606 27.4059 191.581 27.3409 191.572 27.3051L195.453 26.3349C195.214 25.381 194.627 24.6236 193.802 24.1361L191.767 27.5799ZM194.858 28.2999C194.966 28.2014 195.168 28.0705 195.544 27.963L194.445 24.117C193.608 24.3562 192.821 24.7452 192.167 25.3401L194.858 28.2999ZM195.544 27.963C195.955 27.8455 196.419 27.78 196.944 27.78V23.78C196.083 23.78 195.247 23.8878 194.445 24.117L195.544 27.963ZM196.944 27.78C197.155 27.78 197.422 27.8309 197.762 27.9956L199.507 24.3964C198.703 24.0065 197.843 23.78 196.944 23.78V27.78ZM197.783 28.0056C198.106 28.1579 198.339 28.3487 198.518 28.5756L201.663 26.1044C201.079 25.3606 200.341 24.7888 199.486 24.3864L197.783 28.0056ZM198.568 28.6369C198.694 28.7851 198.688 28.847 198.688 28.874H202.688C202.688 27.7916 202.284 26.8309 201.613 26.0431L198.568 28.6369ZM198.688 28.874C198.688 28.8922 198.687 28.9019 198.686 28.9051C198.686 28.9082 198.685 28.9099 198.684 28.9121C198.684 28.9135 198.672 28.9438 198.618 29.0019L201.562 31.7101C202.278 30.9325 202.688 29.9631 202.688 28.874H198.688ZM198.616 29.0045C198.616 29.0048 198.622 28.9984 198.634 28.9898C198.647 28.9811 198.659 28.9749 198.667 28.9714C198.675 28.9681 198.674 28.9699 198.658 28.9728C198.641 28.9758 198.609 28.98 198.556 28.98V32.98C199.674 32.98 200.751 32.5951 201.565 31.7075L198.616 29.0045ZM198.556 28.98C198.517 28.98 198.495 28.9753 198.485 28.9725L197.432 32.8315C197.803 32.9327 198.18 32.98 198.556 32.98V28.98ZM198.533 28.9863C198.394 28.9445 198.281 28.9066 198.193 28.8733L196.788 32.6187C196.977 32.6894 197.176 32.7555 197.384 32.8177L198.533 28.9863ZM198.233 28.889C197.808 28.7189 197.248 28.538 196.658 28.538V32.538C196.601 32.538 196.561 32.5333 196.544 32.5309C196.527 32.5284 196.524 32.527 196.537 32.5303C196.55 32.5335 196.574 32.5402 196.611 32.5524C196.647 32.5645 196.692 32.5809 196.748 32.603L198.233 28.889ZM196.658 28.538C195.38 28.538 194.28 29.072 193.427 29.9532L196.302 32.7348C196.489 32.5413 196.584 32.538 196.658 32.538V28.538ZM193.426 29.954C192.509 30.9033 192.11 32.1054 192.11 33.372H196.11C196.11 32.9746 196.215 32.8247 196.302 32.734L193.426 29.954ZM192.11 33.372C192.11 34.2485 192.077 34.929 192.019 35.4329L195.993 35.8871C196.074 35.1777 196.11 34.3328 196.11 33.372H192.11ZM192.019 35.4329C191.988 35.7107 191.899 35.9332 191.755 36.1355L195.01 38.4605C195.559 37.6921 195.886 36.8226 195.993 35.8871L192.019 35.4329ZM191.775 36.1075C191.794 36.0817 191.821 36.0531 191.854 36.0272C191.887 36.0017 191.915 35.9877 191.929 35.9818C191.954 35.9713 191.901 36 191.718 36V40C192.9 40 194.154 39.6165 194.989 38.4885L191.775 36.1075ZM203.852 37.09L202.683 38.7131L202.694 38.7208L202.705 38.7285L203.852 37.09ZM203.878 32.02L202.769 30.3559L203.878 32.02ZM208.532 31.266L208.124 33.224L208.17 33.2335L208.216 33.2409L208.532 31.266ZM209.416 31.526L208.307 33.1901L211.416 35.263V31.526H209.416ZM208.87 30.46L207.612 32.0145L207.634 32.033L207.658 32.0509L208.87 30.46ZM206.4 30.096L206.885 32.0363L206.4 30.096ZM205.048 30.564L204.563 28.6237L204.542 28.6289L204.522 28.6345L205.048 30.564ZM202.968 30.226L201.595 31.68L201.617 31.7008L201.639 31.7208L202.968 30.226ZM203.228 27.184L201.865 25.7202L201.852 25.7322L201.84 25.7443L203.228 27.184ZM205.1 26.144L205.679 28.0584L205.699 28.0523L205.719 28.0457L205.1 26.144ZM211.028 26.612L210.049 28.356L210.067 28.3661L210.085 28.3759L211.028 26.612ZM213.238 28.77L211.463 29.6916L211.47 29.705L211.477 29.7182L213.238 28.77ZM213.81 33.398L211.851 32.9928L211.845 33.0254L211.839 33.0582L213.81 33.398ZM213.446 34.568L211.703 33.5875L210.898 35.0182L212.144 36.0865L213.446 34.568ZM213.992 35.296L212.16 36.0976L212.18 36.1446L212.203 36.1904L213.992 35.296ZM213.68 37.454L212.232 36.0747L212.214 36.0932L212.197 36.1122L213.68 37.454ZM211.34 37.818L210.494 39.6304V39.6304L211.34 37.818ZM210.508 37.246L211.831 35.7463L210.734 34.7781L209.479 35.531L210.508 37.246ZM209.078 37.818L208.624 35.8703L208.616 35.872L208.609 35.8738L209.078 37.818ZM208.558 35.14L207.42 33.4956L207.388 33.5172L207.358 33.54L208.558 35.14ZM208.558 33.996L207.358 35.596L207.388 35.6188L207.42 35.6404L208.558 33.996ZM206.816 33.996L205.678 32.3516L205.646 32.3732L205.616 32.396L206.816 33.996ZM206.816 35.14L205.616 36.74L205.646 36.7628L205.678 36.7844L206.816 35.14ZM207.18 36C206.124 36 205.447 35.765 204.999 35.4515L202.705 38.7285C203.991 39.6283 205.532 40 207.18 40V36ZM205.021 35.4669C204.727 35.2556 204.552 34.9957 204.552 34.412H200.552C200.552 36.1509 201.244 37.6764 202.683 38.7131L205.021 35.4669ZM204.552 34.412C204.552 34.1195 204.622 33.9276 204.987 33.6841L202.769 30.3559C201.366 31.291 200.552 32.6939 200.552 34.412H204.552ZM204.987 33.6841C205.472 33.3612 206.162 33.136 207.18 33.136V29.136C205.563 29.136 204.052 29.5001 202.769 30.3559L204.987 33.6841ZM207.18 33.136C207.547 33.136 207.86 33.1689 208.124 33.224L208.94 29.308C208.372 29.1898 207.783 29.136 207.18 29.136V33.136ZM208.216 33.2409C208.296 33.2536 208.361 33.2658 208.412 33.2769C208.464 33.288 208.497 33.2967 208.514 33.3017C208.532 33.3071 208.523 33.3054 208.494 33.2932C208.479 33.2868 208.455 33.2761 208.424 33.2603C208.394 33.2445 208.354 33.2217 208.307 33.1901L210.525 29.8619C209.972 29.493 209.283 29.3607 208.848 29.2911L208.216 33.2409ZM211.416 31.526C211.416 30.4289 210.91 29.5001 210.082 28.8691L207.658 32.0509C207.637 32.0349 207.563 31.9709 207.499 31.8463C207.434 31.7181 207.416 31.5987 207.416 31.526H211.416ZM210.128 28.9055C209.251 28.1956 208.156 28.018 207.206 28.018V32.018C207.454 32.018 207.599 32.0433 207.668 32.0615C207.733 32.0787 207.692 32.0796 207.612 32.0145L210.128 28.9055ZM207.206 28.018C206.79 28.018 206.342 28.0489 205.915 28.1557L206.885 32.0363C206.872 32.0395 206.89 32.034 206.95 32.0282C207.008 32.0226 207.092 32.018 207.206 32.018V28.018ZM205.915 28.1557C205.583 28.2387 205.255 28.3549 204.936 28.4917L206.512 32.1683C206.678 32.0971 206.801 32.0573 206.885 32.0363L205.915 28.1557ZM204.936 28.4917C204.77 28.5629 204.647 28.6027 204.563 28.6237L205.533 32.5043C205.865 32.4213 206.193 32.3051 206.512 32.1683L204.936 28.4917ZM204.522 28.6345C204.561 28.6236 204.563 28.6272 204.511 28.6324C204.462 28.6374 204.382 28.642 204.268 28.642V32.642C204.674 32.642 205.136 32.613 205.574 32.4935L204.522 28.6345ZM204.268 28.642C204.154 28.642 204.119 28.6274 204.137 28.6332C204.147 28.6364 204.169 28.6447 204.199 28.6616C204.23 28.6788 204.264 28.7019 204.297 28.7312L201.639 31.7208C202.424 32.418 203.387 32.642 204.268 32.642V28.642ZM204.341 28.772C204.386 28.8139 204.423 28.8596 204.451 28.9049C204.48 28.9496 204.495 28.9862 204.503 29.0079C204.517 29.0476 204.5 29.0238 204.5 28.9H200.5C200.5 29.8278 200.751 30.8833 201.595 31.68L204.341 28.772ZM204.5 28.9C204.5 28.8066 204.516 28.763 204.523 28.7451C204.531 28.7273 204.551 28.6869 204.616 28.6237L201.84 25.7443C200.962 26.5904 200.5 27.6826 200.5 28.9H204.5ZM204.591 28.6478C204.842 28.4142 205.186 28.2073 205.679 28.0584L204.521 24.2296C203.523 24.5314 202.62 25.0178 201.865 25.7202L204.591 28.6478ZM205.719 28.0457C206.275 27.8648 206.812 27.78 207.336 27.78V23.78C206.37 23.78 205.416 23.9379 204.481 24.2423L205.719 28.0457ZM207.336 27.78C208.567 27.78 209.437 28.0122 210.049 28.356L212.007 24.868C210.643 24.1025 209.052 23.78 207.336 23.78V27.78ZM210.085 28.3759C210.78 28.7471 211.203 29.1916 211.463 29.6916L215.013 27.8484C214.337 26.5457 213.287 25.5516 211.971 24.8481L210.085 28.3759ZM211.477 29.7182C211.795 30.3087 211.966 30.9762 211.966 31.76H215.966C215.966 30.3598 215.652 29.0339 214.999 27.8218L211.477 29.7182ZM211.966 31.76C211.966 32.2328 211.924 32.6413 211.851 32.9928L215.769 33.8032C215.904 33.1494 215.966 32.4659 215.966 31.76H211.966ZM211.839 33.0582C211.807 33.2437 211.774 33.3792 211.744 33.4734C211.714 33.5698 211.696 33.6002 211.703 33.5875L215.189 35.5485C215.504 34.9889 215.676 34.3467 215.781 33.7378L211.839 33.0582ZM212.144 36.0865C212.153 36.0938 212.158 36.0991 212.161 36.1021C212.164 36.1051 212.165 36.1064 212.165 36.106C212.164 36.1056 212.163 36.1042 212.162 36.1022C212.161 36.1002 212.16 36.0986 212.16 36.0976L215.824 34.4944C215.576 33.9258 215.206 33.4422 214.748 33.0495L212.144 36.0865ZM212.203 36.1904C212.209 36.2015 212.207 36.2008 212.204 36.1897C212.203 36.1846 212.202 36.1785 212.201 36.1717C212.2 36.165 212.2 36.159 212.2 36.154H216.2C216.2 35.5326 216.051 34.9417 215.781 34.4016L212.203 36.1904ZM212.2 36.154C212.2 36.1643 212.199 36.1634 212.201 36.1538C212.203 36.1439 212.207 36.1296 212.213 36.1132C212.22 36.0969 212.227 36.0839 212.232 36.0755C212.238 36.0673 212.239 36.0672 212.232 36.0747L215.128 38.8333C215.829 38.0974 216.2 37.1702 216.2 36.154H212.2ZM212.197 36.1122C212.209 36.0988 212.229 36.08 212.256 36.0605C212.284 36.0408 212.313 36.0252 212.34 36.0141C212.396 35.991 212.411 36 212.354 36V40C213.392 40 214.403 39.6357 215.163 38.7958L212.197 36.1122ZM212.354 36C212.241 36 212.173 35.9915 212.142 35.986C212.111 35.9804 212.132 35.9805 212.186 36.0056L210.494 39.6304C211.111 39.918 211.767 40 212.354 40V36ZM212.186 36.0056C212.15 35.9888 212.031 35.923 211.831 35.7463L209.185 38.7457C209.574 39.089 210.01 39.4045 210.494 39.6304L212.186 36.0056ZM209.479 35.531C209.234 35.6781 208.953 35.7935 208.624 35.8703L209.532 39.7657C210.243 39.5998 210.916 39.3339 211.537 38.961L209.479 35.531ZM208.609 35.8738C208.314 35.9451 207.852 36 207.18 36V40C208.034 40 208.837 39.9336 209.547 39.7622L208.609 35.8738ZM207.7 37.374C208.328 37.374 209.089 37.2414 209.758 36.74L207.358 33.54C207.611 33.3506 207.8 33.374 207.7 33.374V37.374ZM209.696 36.7844C210.329 36.3466 210.896 35.5958 210.896 34.568H206.896C206.896 34.3293 206.961 34.081 207.09 33.8625C207.211 33.6575 207.35 33.544 207.42 33.4956L209.696 36.7844ZM210.896 34.568C210.896 33.5402 210.329 32.7894 209.696 32.3516L207.42 35.6404C207.35 35.592 207.211 35.4785 207.09 35.2735C206.961 35.055 206.896 34.8067 206.896 34.568H210.896ZM209.758 32.396C209.089 31.8946 208.328 31.762 207.7 31.762V35.762C207.8 35.762 207.611 35.7854 207.358 35.596L209.758 32.396ZM207.7 31.762C207.061 31.762 206.331 31.899 205.678 32.3516L207.954 35.6404C207.751 35.781 207.611 35.762 207.7 35.762V31.762ZM205.616 32.396C204.993 32.8636 204.504 33.6105 204.504 34.568H208.504C208.504 34.7769 208.452 35.004 208.338 35.2137C208.228 35.4144 208.097 35.5355 208.016 35.596L205.616 32.396ZM204.504 34.568C204.504 35.5255 204.993 36.2724 205.616 36.74L208.016 33.54C208.097 33.6005 208.228 33.7216 208.338 33.9223C208.452 34.132 208.504 34.3591 208.504 34.568H204.504ZM205.678 36.7844C206.331 37.237 207.061 37.374 207.7 37.374V33.374C207.611 33.374 207.751 33.355 207.954 33.4956L205.678 36.7844Z" fill="#4B371F" mask="url(#path-4-outside-1_662_2475)"/>
</svg>
