<svg width="40" height="40" viewBox="0 0 40 40" fill="none" xmlns="http://www.w3.org/2000/svg">
<circle cx="20" cy="20" r="19" fill="#FFF549" stroke="#4B371F" stroke-width="2"/>
<circle cx="20" cy="19.9999" r="13.7826" fill="#FFCF23" stroke="#AF7026" stroke-width="2"/>
<path d="M24.7304 12.1022C23.9091 11.8072 23.0173 11.7701 22.1743 11.9958L22.1738 11.9959C21.4648 12.1855 20.8165 12.5542 20.2912 13.0666C19.9296 13.4192 19.6347 13.8318 19.4183 14.2842C18.9174 14.366 18.4258 14.4977 17.9511 14.6774C17.6316 14.4586 17.2832 14.2835 16.9148 14.1576C16.3301 13.9579 15.7091 13.8869 15.0944 13.9497C14.4797 14.0125 13.8858 14.2076 13.3536 14.5214C12.8214 14.8353 12.3633 15.2606 12.0109 15.7682C11.6585 16.2757 11.4201 16.8535 11.3119 17.4619C11.2038 18.0702 11.2286 18.6948 11.3845 19.2927C11.5404 19.8906 11.8238 20.4477 12.2153 20.9258C12.4619 21.2269 12.7477 21.4922 13.0643 21.715C13.0594 22.7146 13.2526 23.7075 13.635 24.6357C14.0992 25.7622 14.8284 26.7599 15.7607 27.5442C16.693 28.3286 17.8009 28.8762 18.9902 29.1406C20.1795 29.4051 21.4151 29.3785 22.5919 29.0632C23.7687 28.7479 24.852 28.1531 25.7498 27.3294C26.6475 26.5058 27.3331 25.4775 27.7484 24.3322C28.1637 23.1868 28.2963 21.958 28.135 20.7504C28.0021 19.7554 27.673 18.799 27.169 17.9358C27.4373 17.3569 27.5742 16.7227 27.5659 16.079C27.5546 15.2062 27.2771 14.3576 26.7703 13.6469C26.2636 12.9362 25.5519 12.3973 24.7304 12.1022Z" fill="#FFF549" stroke="#AF7026" stroke-width="2"/>
<path d="M9.56506 16.5215C9.85492 15.3621 11.3042 12.5215 14.7825 10.4346" stroke="white" stroke-width="2" stroke-linecap="round" stroke-linejoin="round"/>
</svg>
