<svg width="155" height="46" viewBox="0 0 155 46" fill="none" xmlns="http://www.w3.org/2000/svg">
<rect x="1" y="1" width="153" height="44" rx="15" fill="#FFB050" stroke="#4B371F" stroke-width="2"/>
<rect x="5" y="5" width="145" height="36" rx="11" fill="#FFCF23" stroke="#AF7026" stroke-width="2"/>
<path d="M9.3772 17.0885C9.3772 12.776 10.7838 8.94263 18.2854 8.94263M24.3805 8.94263H58.1378" stroke="white" stroke-width="3" stroke-linecap="round" stroke-linejoin="round"/>
<mask id="path-4-outside-1_685_4374" maskUnits="userSpaceOnUse" x="55" y="14.3335" width="47" height="18" fill="black">
<rect fill="white" x="55" y="14.3335" width="47" height="18"/>
<path d="M62.483 29.3515C61.691 29.3515 60.929 29.2435 60.197 29.0275C59.477 28.7995 58.889 28.4875 58.433 28.0915C57.977 27.6835 57.749 27.2215 57.749 26.7055C57.749 26.2135 57.899 25.8235 58.199 25.5355C58.499 25.2475 58.877 25.1035 59.333 25.1035C59.633 25.1035 59.891 25.1455 60.107 25.2295C60.335 25.3015 60.581 25.4095 60.845 25.5535C61.037 25.6495 61.199 25.7275 61.331 25.7875C61.475 25.8355 61.625 25.8595 61.781 25.8595C62.177 25.8595 62.375 25.7035 62.375 25.3915C62.375 25.2715 62.291 25.1695 62.123 25.0855C61.955 24.9895 61.673 24.8635 61.277 24.7075C60.569 24.4315 59.993 24.1615 59.549 23.8975C58.865 23.4895 58.391 23.0455 58.127 22.5655C57.875 22.0855 57.749 21.4855 57.749 20.7655C57.749 20.0695 57.971 19.4155 58.415 18.8035C58.859 18.1795 59.465 17.6815 60.233 17.3095C61.001 16.9375 61.841 16.7515 62.753 16.7515C63.641 16.7515 64.451 16.8895 65.183 17.1655C65.927 17.4295 66.509 17.8015 66.929 18.2815C67.361 18.7495 67.577 19.2715 67.577 19.8475C67.577 20.5075 67.379 21.0055 66.983 21.3415C66.599 21.6655 66.167 21.8275 65.687 21.8275C65.291 21.8275 64.991 21.8035 64.787 21.7555C64.595 21.7075 64.403 21.6415 64.211 21.5575C64.055 21.4975 63.923 21.4555 63.815 21.4315C63.707 21.3955 63.557 21.3775 63.365 21.3775C63.209 21.3775 63.059 21.4315 62.915 21.5395C62.783 21.6355 62.717 21.7735 62.717 21.9535C62.717 22.0855 62.795 22.1995 62.951 22.2955C63.107 22.3795 63.287 22.4575 63.491 22.5295C63.695 22.6015 63.839 22.6555 63.923 22.6915C65.039 23.0995 65.861 23.5675 66.389 24.0955C66.917 24.6115 67.181 25.2835 67.181 26.1115C67.181 27.1315 66.767 27.9295 65.939 28.5055C65.123 29.0695 63.971 29.3515 62.483 29.3515ZM72.791 29.3335C71.855 29.3335 71.087 29.1235 70.487 28.7035C69.887 28.2715 69.587 27.6535 69.587 26.8495C69.587 26.1535 69.893 25.6015 70.505 25.1935C71.117 24.7855 71.879 24.5815 72.791 24.5815C73.127 24.5815 73.439 24.6115 73.727 24.6715C74.027 24.7195 74.231 24.7795 74.339 24.8515C74.339 24.5515 74.213 24.3055 73.961 24.1135C73.709 23.9095 73.325 23.8075 72.809 23.8075C72.581 23.8075 72.395 23.8255 72.251 23.8615C72.107 23.8975 71.951 23.9515 71.783 24.0235C71.615 24.0955 71.459 24.1495 71.315 24.1855C71.183 24.2215 71.003 24.2395 70.775 24.2395C70.391 24.2395 70.091 24.1435 69.875 23.9515C69.659 23.7475 69.551 23.4415 69.551 23.0335C69.551 22.5655 69.719 22.1695 70.055 21.8455C70.403 21.5215 70.835 21.2815 71.351 21.1255C71.867 20.9575 72.383 20.8735 72.899 20.8735C73.919 20.8735 74.771 21.0655 75.455 21.4495C76.151 21.8215 76.661 22.3195 76.985 22.9435C77.321 23.5675 77.489 24.2575 77.489 25.0135C77.489 25.4215 77.453 25.7995 77.381 26.1475C77.321 26.4955 77.237 26.7655 77.129 26.9575C77.297 27.1015 77.423 27.2695 77.507 27.4615C77.603 27.6535 77.651 27.8515 77.651 28.0555C77.651 28.4035 77.531 28.7035 77.291 28.9555C77.063 29.2075 76.757 29.3335 76.373 29.3335C76.085 29.3335 75.851 29.2915 75.671 29.2075C75.491 29.1235 75.299 28.9915 75.095 28.8115C74.795 28.9915 74.465 29.1235 74.105 29.2075C73.757 29.2915 73.319 29.3335 72.791 29.3335ZM73.151 27.5155C73.403 27.5155 73.601 27.4615 73.745 27.3535C73.901 27.2455 73.979 27.1135 73.979 26.9575C73.979 26.8015 73.901 26.6695 73.745 26.5615C73.601 26.4535 73.403 26.3995 73.151 26.3995C72.899 26.3995 72.695 26.4535 72.539 26.5615C72.395 26.6695 72.323 26.8015 72.323 26.9575C72.323 27.1135 72.395 27.2455 72.539 27.3535C72.695 27.4615 72.899 27.5155 73.151 27.5155ZM84.2563 29.3155C83.9683 29.3155 83.6983 29.2795 83.4463 29.2075C83.2063 29.1355 82.9243 28.9735 82.6003 28.7215C82.2283 28.4215 81.8083 27.9175 81.3403 27.2095C80.8723 26.4895 80.4703 25.7155 80.1343 24.8875C79.7983 24.0475 79.6303 23.2915 79.6303 22.6195C79.6303 22.1155 79.7743 21.7015 80.0623 21.3775C80.3623 21.0415 80.7103 20.8735 81.1063 20.8735C81.5863 20.8735 81.9943 21.0595 82.3303 21.4315C82.6783 21.7915 82.9663 22.2415 83.1943 22.7815C83.4343 23.3095 83.7043 24.0235 84.0043 24.9235C84.0403 25.0315 84.0763 25.1515 84.1123 25.2835C84.1603 25.4035 84.2083 25.5295 84.2563 25.6615L84.4363 25.1395C84.7723 24.1795 85.0603 23.4235 85.3003 22.8715C85.5403 22.3075 85.8403 21.8335 86.2003 21.4495C86.5603 21.0535 86.9803 20.8615 87.4603 20.8735C87.8443 20.8855 88.1683 21.0295 88.4323 21.3055C88.7083 21.5815 88.8463 21.9835 88.8463 22.5115C88.8463 23.2315 88.6903 23.9875 88.3783 24.7795C88.0663 25.5715 87.7003 26.2915 87.2803 26.9395C86.8603 27.5755 86.5003 28.0435 86.2003 28.3435C85.9363 28.6435 85.6243 28.8835 85.2643 29.0635C84.9163 29.2315 84.5803 29.3155 84.2563 29.3155ZM95.4932 29.3335C94.6052 29.3335 93.8192 29.1595 93.1352 28.8115C92.4512 28.4635 91.9172 27.9775 91.5332 27.3535C91.1612 26.7175 90.9752 26.0035 90.9752 25.2115C90.9752 24.4315 91.1612 23.7115 91.5332 23.0515C91.9172 22.3915 92.4452 21.8635 93.1172 21.4675C93.7892 21.0715 94.5512 20.8735 95.4032 20.8735C96.1712 20.8735 96.8492 21.0295 97.4372 21.3415C98.0252 21.6535 98.4752 22.0675 98.7872 22.5835C99.0992 23.0875 99.2552 23.6155 99.2552 24.1675C99.2552 25.0675 98.9132 25.7275 98.2292 26.1475C97.5572 26.5555 96.7532 26.7595 95.8172 26.7595C95.1932 26.7595 94.6652 26.6815 94.2332 26.5255C94.5932 27.1135 95.1872 27.4075 96.0152 27.4075C96.3512 27.4075 96.7112 27.3655 97.0952 27.2815C97.2392 27.2455 97.3772 27.2275 97.5092 27.2275C97.7732 27.2275 97.9832 27.2935 98.1392 27.4255C98.3072 27.5575 98.3912 27.7375 98.3912 27.9655C98.3912 28.3375 98.1632 28.6615 97.7072 28.9375C97.2512 29.2015 96.5132 29.3335 95.4932 29.3335ZM94.2872 24.3295C94.3952 24.4975 94.5392 24.6235 94.7192 24.7075C94.9112 24.7795 95.1212 24.8155 95.3492 24.8155C95.6132 24.8155 95.8412 24.7555 96.0332 24.6355C96.2372 24.5155 96.3392 24.3595 96.3392 24.1675C96.3392 23.9515 96.2492 23.7655 96.0692 23.6095C95.9012 23.4535 95.6552 23.3755 95.3312 23.3755C95.0072 23.3755 94.7492 23.4775 94.5572 23.6815C94.3772 23.8735 94.2872 24.0895 94.2872 24.3295Z"/>
</mask>
<path d="M62.483 29.3515C61.691 29.3515 60.929 29.2435 60.197 29.0275C59.477 28.7995 58.889 28.4875 58.433 28.0915C57.977 27.6835 57.749 27.2215 57.749 26.7055C57.749 26.2135 57.899 25.8235 58.199 25.5355C58.499 25.2475 58.877 25.1035 59.333 25.1035C59.633 25.1035 59.891 25.1455 60.107 25.2295C60.335 25.3015 60.581 25.4095 60.845 25.5535C61.037 25.6495 61.199 25.7275 61.331 25.7875C61.475 25.8355 61.625 25.8595 61.781 25.8595C62.177 25.8595 62.375 25.7035 62.375 25.3915C62.375 25.2715 62.291 25.1695 62.123 25.0855C61.955 24.9895 61.673 24.8635 61.277 24.7075C60.569 24.4315 59.993 24.1615 59.549 23.8975C58.865 23.4895 58.391 23.0455 58.127 22.5655C57.875 22.0855 57.749 21.4855 57.749 20.7655C57.749 20.0695 57.971 19.4155 58.415 18.8035C58.859 18.1795 59.465 17.6815 60.233 17.3095C61.001 16.9375 61.841 16.7515 62.753 16.7515C63.641 16.7515 64.451 16.8895 65.183 17.1655C65.927 17.4295 66.509 17.8015 66.929 18.2815C67.361 18.7495 67.577 19.2715 67.577 19.8475C67.577 20.5075 67.379 21.0055 66.983 21.3415C66.599 21.6655 66.167 21.8275 65.687 21.8275C65.291 21.8275 64.991 21.8035 64.787 21.7555C64.595 21.7075 64.403 21.6415 64.211 21.5575C64.055 21.4975 63.923 21.4555 63.815 21.4315C63.707 21.3955 63.557 21.3775 63.365 21.3775C63.209 21.3775 63.059 21.4315 62.915 21.5395C62.783 21.6355 62.717 21.7735 62.717 21.9535C62.717 22.0855 62.795 22.1995 62.951 22.2955C63.107 22.3795 63.287 22.4575 63.491 22.5295C63.695 22.6015 63.839 22.6555 63.923 22.6915C65.039 23.0995 65.861 23.5675 66.389 24.0955C66.917 24.6115 67.181 25.2835 67.181 26.1115C67.181 27.1315 66.767 27.9295 65.939 28.5055C65.123 29.0695 63.971 29.3515 62.483 29.3515ZM72.791 29.3335C71.855 29.3335 71.087 29.1235 70.487 28.7035C69.887 28.2715 69.587 27.6535 69.587 26.8495C69.587 26.1535 69.893 25.6015 70.505 25.1935C71.117 24.7855 71.879 24.5815 72.791 24.5815C73.127 24.5815 73.439 24.6115 73.727 24.6715C74.027 24.7195 74.231 24.7795 74.339 24.8515C74.339 24.5515 74.213 24.3055 73.961 24.1135C73.709 23.9095 73.325 23.8075 72.809 23.8075C72.581 23.8075 72.395 23.8255 72.251 23.8615C72.107 23.8975 71.951 23.9515 71.783 24.0235C71.615 24.0955 71.459 24.1495 71.315 24.1855C71.183 24.2215 71.003 24.2395 70.775 24.2395C70.391 24.2395 70.091 24.1435 69.875 23.9515C69.659 23.7475 69.551 23.4415 69.551 23.0335C69.551 22.5655 69.719 22.1695 70.055 21.8455C70.403 21.5215 70.835 21.2815 71.351 21.1255C71.867 20.9575 72.383 20.8735 72.899 20.8735C73.919 20.8735 74.771 21.0655 75.455 21.4495C76.151 21.8215 76.661 22.3195 76.985 22.9435C77.321 23.5675 77.489 24.2575 77.489 25.0135C77.489 25.4215 77.453 25.7995 77.381 26.1475C77.321 26.4955 77.237 26.7655 77.129 26.9575C77.297 27.1015 77.423 27.2695 77.507 27.4615C77.603 27.6535 77.651 27.8515 77.651 28.0555C77.651 28.4035 77.531 28.7035 77.291 28.9555C77.063 29.2075 76.757 29.3335 76.373 29.3335C76.085 29.3335 75.851 29.2915 75.671 29.2075C75.491 29.1235 75.299 28.9915 75.095 28.8115C74.795 28.9915 74.465 29.1235 74.105 29.2075C73.757 29.2915 73.319 29.3335 72.791 29.3335ZM73.151 27.5155C73.403 27.5155 73.601 27.4615 73.745 27.3535C73.901 27.2455 73.979 27.1135 73.979 26.9575C73.979 26.8015 73.901 26.6695 73.745 26.5615C73.601 26.4535 73.403 26.3995 73.151 26.3995C72.899 26.3995 72.695 26.4535 72.539 26.5615C72.395 26.6695 72.323 26.8015 72.323 26.9575C72.323 27.1135 72.395 27.2455 72.539 27.3535C72.695 27.4615 72.899 27.5155 73.151 27.5155ZM84.2563 29.3155C83.9683 29.3155 83.6983 29.2795 83.4463 29.2075C83.2063 29.1355 82.9243 28.9735 82.6003 28.7215C82.2283 28.4215 81.8083 27.9175 81.3403 27.2095C80.8723 26.4895 80.4703 25.7155 80.1343 24.8875C79.7983 24.0475 79.6303 23.2915 79.6303 22.6195C79.6303 22.1155 79.7743 21.7015 80.0623 21.3775C80.3623 21.0415 80.7103 20.8735 81.1063 20.8735C81.5863 20.8735 81.9943 21.0595 82.3303 21.4315C82.6783 21.7915 82.9663 22.2415 83.1943 22.7815C83.4343 23.3095 83.7043 24.0235 84.0043 24.9235C84.0403 25.0315 84.0763 25.1515 84.1123 25.2835C84.1603 25.4035 84.2083 25.5295 84.2563 25.6615L84.4363 25.1395C84.7723 24.1795 85.0603 23.4235 85.3003 22.8715C85.5403 22.3075 85.8403 21.8335 86.2003 21.4495C86.5603 21.0535 86.9803 20.8615 87.4603 20.8735C87.8443 20.8855 88.1683 21.0295 88.4323 21.3055C88.7083 21.5815 88.8463 21.9835 88.8463 22.5115C88.8463 23.2315 88.6903 23.9875 88.3783 24.7795C88.0663 25.5715 87.7003 26.2915 87.2803 26.9395C86.8603 27.5755 86.5003 28.0435 86.2003 28.3435C85.9363 28.6435 85.6243 28.8835 85.2643 29.0635C84.9163 29.2315 84.5803 29.3155 84.2563 29.3155ZM95.4932 29.3335C94.6052 29.3335 93.8192 29.1595 93.1352 28.8115C92.4512 28.4635 91.9172 27.9775 91.5332 27.3535C91.1612 26.7175 90.9752 26.0035 90.9752 25.2115C90.9752 24.4315 91.1612 23.7115 91.5332 23.0515C91.9172 22.3915 92.4452 21.8635 93.1172 21.4675C93.7892 21.0715 94.5512 20.8735 95.4032 20.8735C96.1712 20.8735 96.8492 21.0295 97.4372 21.3415C98.0252 21.6535 98.4752 22.0675 98.7872 22.5835C99.0992 23.0875 99.2552 23.6155 99.2552 24.1675C99.2552 25.0675 98.9132 25.7275 98.2292 26.1475C97.5572 26.5555 96.7532 26.7595 95.8172 26.7595C95.1932 26.7595 94.6652 26.6815 94.2332 26.5255C94.5932 27.1135 95.1872 27.4075 96.0152 27.4075C96.3512 27.4075 96.7112 27.3655 97.0952 27.2815C97.2392 27.2455 97.3772 27.2275 97.5092 27.2275C97.7732 27.2275 97.9832 27.2935 98.1392 27.4255C98.3072 27.5575 98.3912 27.7375 98.3912 27.9655C98.3912 28.3375 98.1632 28.6615 97.7072 28.9375C97.2512 29.2015 96.5132 29.3335 95.4932 29.3335ZM94.2872 24.3295C94.3952 24.4975 94.5392 24.6235 94.7192 24.7075C94.9112 24.7795 95.1212 24.8155 95.3492 24.8155C95.6132 24.8155 95.8412 24.7555 96.0332 24.6355C96.2372 24.5155 96.3392 24.3595 96.3392 24.1675C96.3392 23.9515 96.2492 23.7655 96.0692 23.6095C95.9012 23.4535 95.6552 23.3755 95.3312 23.3755C95.0072 23.3755 94.7492 23.4775 94.5572 23.6815C94.3772 23.8735 94.2872 24.0895 94.2872 24.3295Z" fill="#F7F9EA"/>
<path d="M60.197 29.0275L59.5932 30.9342L59.6121 30.9401L59.631 30.9457L60.197 29.0275ZM58.433 28.0915L57.0994 29.582L57.1105 29.5919L57.1216 29.6016L58.433 28.0915ZM58.199 25.5355L56.814 24.0927H56.814L58.199 25.5355ZM60.107 25.2295L59.3821 27.0935L59.4427 27.1171L59.5048 27.1367L60.107 25.2295ZM60.845 25.5535L59.8873 27.3093L59.9187 27.3264L59.9506 27.3424L60.845 25.5535ZM61.331 25.7875L60.5034 27.6082L60.599 27.6517L60.6986 27.6849L61.331 25.7875ZM62.123 25.0855L61.1307 26.822L61.1789 26.8495L61.2286 26.8744L62.123 25.0855ZM61.277 24.7075L62.0101 22.8467L62.0034 22.8441L61.277 24.7075ZM59.549 23.8975L58.5245 25.6151L58.5269 25.6166L59.549 23.8975ZM58.127 22.5655L56.3562 23.4952L56.3652 23.5123L56.3746 23.5293L58.127 22.5655ZM58.415 18.8035L60.0339 19.978L60.0393 19.9705L60.0446 19.963L58.415 18.8035ZM60.233 17.3095L59.3612 15.5095H59.3612L60.233 17.3095ZM65.183 17.1655L64.4774 19.0369L64.4957 19.0438L64.5142 19.0504L65.183 17.1655ZM66.929 18.2815L65.4239 19.5985L65.4414 19.6185L65.4594 19.6381L66.929 18.2815ZM66.983 21.3415L68.2728 22.8701L68.277 22.8665L66.983 21.3415ZM64.787 21.7555L64.302 23.6958L64.3154 23.6991L64.3289 23.7023L64.787 21.7555ZM64.211 21.5575L65.0127 19.7252L64.9712 19.707L64.929 19.6908L64.211 21.5575ZM63.815 21.4315L63.1826 23.3289L63.2804 23.3615L63.3812 23.3839L63.815 21.4315ZM62.915 21.5395L64.0914 23.157L64.1033 23.1483L64.115 23.1395L62.915 21.5395ZM62.951 22.2955L61.9028 23.9988L61.952 24.0291L62.0028 24.0564L62.951 22.2955ZM63.491 22.5295L64.1567 20.6435L64.1567 20.6435L63.491 22.5295ZM63.923 22.6915L63.1352 24.5298L63.1852 24.5512L63.2363 24.5699L63.923 22.6915ZM66.389 24.0955L64.9748 25.5097L64.9829 25.5178L64.9912 25.5259L66.389 24.0955ZM65.939 28.5055L67.0762 30.1508L67.0812 30.1473L65.939 28.5055ZM62.483 27.3515C61.8754 27.3515 61.3044 27.269 60.7631 27.1093L59.631 30.9457C60.5536 31.218 61.5067 31.3515 62.483 31.3515V27.3515ZM60.8008 27.1208C60.2781 26.9553 59.9494 26.7594 59.7444 26.5814L57.1216 29.6016C57.8287 30.2156 58.6759 30.6437 59.5932 30.9342L60.8008 27.1208ZM59.7666 26.601C59.6942 26.5362 59.6952 26.5168 59.7135 26.5539C59.7225 26.5721 59.7324 26.5976 59.7395 26.6283C59.7467 26.659 59.749 26.6859 59.749 26.7055H55.749C55.749 27.8967 56.3056 28.8717 57.0994 29.582L59.7666 26.601ZM59.749 26.7055C59.749 26.6623 59.7555 26.6911 59.7282 26.762C59.6983 26.8396 59.6469 26.9179 59.5841 26.9783L56.814 24.0927C56.0495 24.8266 55.749 25.7768 55.749 26.7055H59.749ZM59.5841 26.9783C59.5461 27.0147 59.4883 27.0543 59.4195 27.0805C59.3541 27.1054 59.3176 27.1035 59.333 27.1035V23.1035C58.4152 23.1035 57.5239 23.4112 56.814 24.0927L59.5841 26.9783ZM59.333 27.1035C59.3908 27.1035 59.4216 27.1076 59.4302 27.109C59.4384 27.1104 59.4197 27.1081 59.3821 27.0935L60.8319 23.3655C60.3278 23.1695 59.8115 23.1035 59.333 23.1035V27.1035ZM59.5048 27.1367C59.583 27.1614 59.7091 27.2121 59.8873 27.3093L61.8027 23.7977C61.4529 23.6069 61.0871 23.4416 60.7093 23.3223L59.5048 27.1367ZM59.9506 27.3424C60.1553 27.4447 60.3411 27.5344 60.5034 27.6082L62.1586 23.9668C62.057 23.9206 61.9188 23.8543 61.7394 23.7646L59.9506 27.3424ZM60.6986 27.6849C61.0522 27.8027 61.4161 27.8595 61.781 27.8595V23.8595C61.8339 23.8595 61.8979 23.8683 61.9635 23.8901L60.6986 27.6849ZM61.781 27.8595C62.1874 27.8595 62.8613 27.7886 63.4643 27.3135C64.1581 26.7668 64.375 25.9996 64.375 25.3915H60.375C60.375 25.0954 60.4929 24.5622 60.9888 24.1715C61.3938 23.8524 61.7706 23.8595 61.781 23.8595V27.8595ZM64.375 25.3915C64.375 24.1373 63.4432 23.5095 63.0174 23.2966L61.2286 26.8744C61.1601 26.8401 60.9625 26.7323 60.7682 26.4964C60.5471 26.228 60.375 25.8431 60.375 25.3915H64.375ZM63.1153 23.349C62.813 23.1763 62.4156 23.0064 62.0101 22.8467L60.544 26.5683C60.7237 26.6391 60.864 26.6978 60.9696 26.745C61.022 26.7684 61.0618 26.7872 61.0908 26.8015C61.1207 26.8162 61.1325 26.823 61.1307 26.822L63.1153 23.349ZM62.0034 22.8441C61.3548 22.5912 60.888 22.3668 60.5712 22.1784L58.5269 25.6166C59.0981 25.9562 59.7832 26.2718 60.5506 26.5709L62.0034 22.8441ZM60.5736 22.1799C60.0649 21.8764 59.9115 21.66 59.8795 21.6017L56.3746 23.5293C56.8705 24.431 57.6651 25.1026 58.5245 25.6151L60.5736 22.1799ZM59.8978 21.6358C59.8376 21.5211 59.749 21.2637 59.749 20.7655H55.749C55.749 21.7073 55.9125 22.6499 56.3562 23.4952L59.8978 21.6358ZM59.749 20.7655C59.749 20.5283 59.815 20.2796 60.0339 19.978L56.7962 17.629C56.127 18.5514 55.749 19.6107 55.749 20.7655H59.749ZM60.0446 19.963C60.2723 19.6429 60.604 19.3521 61.1049 19.1095L59.3612 15.5095C58.326 16.0109 57.4457 16.7161 56.7854 17.644L60.0446 19.963ZM61.1049 19.1095C61.5826 18.878 62.1218 18.7515 62.753 18.7515V14.7515C61.5602 14.7515 60.4194 14.9969 59.3612 15.5095L61.1049 19.1095ZM62.753 18.7515C63.4322 18.7515 63.9993 18.8566 64.4774 19.0369L65.8886 15.2941C64.9028 14.9224 63.8498 14.7515 62.753 14.7515V18.7515ZM64.5142 19.0504C65.0113 19.2267 65.2771 19.4308 65.4239 19.5985L68.4342 16.9645C67.7409 16.1722 66.8428 15.6323 65.8518 15.2806L64.5142 19.0504ZM65.4594 19.6381C65.5356 19.7205 65.56 19.7717 65.567 19.7887C65.5727 19.8024 65.577 19.8166 65.577 19.8475H69.577C69.577 18.7139 69.1326 17.72 68.3986 16.9249L65.4594 19.6381ZM65.577 19.8475C65.577 19.9812 65.5566 20.0107 65.57 19.9771C65.5771 19.9594 65.5907 19.9313 65.6138 19.8989C65.6371 19.8662 65.6635 19.8382 65.6891 19.8165L68.277 22.8665C69.237 22.0519 69.577 20.9232 69.577 19.8475H65.577ZM65.6933 19.8129C65.6759 19.8275 65.6656 19.834 65.6626 19.8358C65.6599 19.8374 65.6621 19.8358 65.6688 19.8333C65.6755 19.8308 65.6825 19.829 65.6882 19.8279C65.6938 19.827 65.694 19.8275 65.687 19.8275V23.8275C66.6625 23.8275 67.5463 23.4831 68.2728 22.8701L65.6933 19.8129ZM65.687 19.8275C65.5267 19.8275 65.408 19.8225 65.3245 19.8159C65.2357 19.8088 65.2167 19.802 65.2451 19.8087L64.3289 23.7023C64.762 23.8042 65.2474 23.8275 65.687 23.8275V19.8275ZM65.2721 19.8152C65.1946 19.7958 65.1083 19.767 65.0127 19.7252L63.4094 23.3898C63.6977 23.516 63.9955 23.6192 64.302 23.6958L65.2721 19.8152ZM64.929 19.6908C64.7221 19.6112 64.4891 19.5325 64.2489 19.4791L63.3812 23.3839C63.3647 23.3802 63.366 23.3796 63.3886 23.3868C63.4103 23.3938 63.4446 23.4056 63.4931 23.4242L64.929 19.6908ZM64.4475 19.5341C64.0429 19.3993 63.6458 19.3775 63.365 19.3775V23.3775C63.4016 23.3775 63.4051 23.3794 63.3832 23.3767C63.3648 23.3745 63.2904 23.3648 63.1826 23.3289L64.4475 19.5341ZM63.365 19.3775C62.7118 19.3775 62.1498 19.6134 61.715 19.9395L64.115 23.1395C63.9683 23.2496 63.7063 23.3775 63.365 23.3775V19.3775ZM61.7387 19.922C61.0304 20.4371 60.717 21.2099 60.717 21.9535H64.717C64.717 22.1098 64.6875 22.3339 64.5708 22.5779C64.4508 22.8287 64.2756 23.023 64.0914 23.157L61.7387 19.922ZM60.717 21.9535C60.717 23.0337 61.4094 23.6952 61.9028 23.9988L63.9992 20.5922C64.086 20.6456 64.2641 20.7718 64.4261 21.0086C64.6035 21.2679 64.717 21.5971 64.717 21.9535H60.717ZM62.0028 24.0564C62.2669 24.1986 62.5445 24.3163 62.8254 24.4155L64.1567 20.6435C64.0295 20.5986 63.9472 20.5604 63.8992 20.5346L62.0028 24.0564ZM62.8254 24.4155C62.9196 24.4487 62.9937 24.4756 63.0498 24.4967C63.0776 24.5071 63.0989 24.5153 63.1144 24.5214C63.1306 24.5278 63.1367 24.5304 63.1352 24.5298L64.7109 20.8532C64.5606 20.7888 64.3616 20.7158 64.1567 20.6435L62.8254 24.4155ZM63.2363 24.5699C64.2228 24.9306 64.7388 25.2737 64.9748 25.5097L67.8032 22.6813C66.9833 21.8613 65.8553 21.2684 64.6098 20.8131L63.2363 24.5699ZM64.9912 25.5259C65.0856 25.6182 65.181 25.7501 65.181 26.1115H69.181C69.181 24.8168 68.7484 23.6048 67.7869 22.6651L64.9912 25.5259ZM65.181 26.1115C65.181 26.4856 65.0802 26.6666 64.7969 26.8637L67.0812 30.1473C68.4538 29.1924 69.181 27.7774 69.181 26.1115H65.181ZM64.8019 26.8602C64.4489 27.1042 63.7561 27.3515 62.483 27.3515V31.3515C64.186 31.3515 65.7971 31.0348 67.0762 30.1508L64.8019 26.8602ZM70.487 28.7035L69.3184 30.3266L69.3292 30.3343L69.3401 30.342L70.487 28.7035ZM70.505 25.1935L69.3956 23.5294L70.505 25.1935ZM73.727 24.6715L73.3191 26.6295L73.3648 26.639L73.411 26.6464L73.727 24.6715ZM74.339 24.8515L73.2296 26.5156L76.339 28.5885V24.8515H74.339ZM73.961 24.1135L72.7026 25.668L72.7255 25.6865L72.7489 25.7044L73.961 24.1135ZM72.251 23.8615L72.736 25.8018H72.736L72.251 23.8615ZM71.315 24.1855L70.8299 22.2452L70.8093 22.2504L70.7887 22.256L71.315 24.1855ZM69.875 23.9515L68.5017 25.4055L68.5237 25.4263L68.5462 25.4463L69.875 23.9515ZM70.055 21.8455L68.6921 20.3817L68.6793 20.3936L68.6667 20.4058L70.055 21.8455ZM71.351 21.1255L71.9298 23.0399L71.95 23.0338L71.9701 23.0272L71.351 21.1255ZM75.455 21.4495L74.4759 23.1935L74.494 23.2036L74.5122 23.2134L75.455 21.4495ZM76.985 22.9435L75.21 23.8651L75.2169 23.8785L75.224 23.8917L76.985 22.9435ZM77.381 26.1475L75.4225 25.7423L75.4157 25.7749L75.4101 25.8077L77.381 26.1475ZM77.129 26.9575L75.3858 25.977L74.581 27.4077L75.8274 28.476L77.129 26.9575ZM77.507 27.4615L75.6747 28.2631L75.6952 28.3101L75.7181 28.3559L77.507 27.4615ZM77.291 28.9555L75.8427 27.5762L75.8251 27.5947L75.8079 27.6137L77.291 28.9555ZM75.671 29.2075L74.8252 31.0199L74.8252 31.0199L75.671 29.2075ZM75.095 28.8115L76.4182 27.3118L75.3209 26.3436L74.066 27.0965L75.095 28.8115ZM74.105 29.2075L73.6505 27.2598L73.6431 27.2615L73.6357 27.2633L74.105 29.2075ZM73.745 27.3535L72.6066 25.7091L72.5753 25.7307L72.545 25.7535L73.745 27.3535ZM73.745 26.5615L72.545 28.1615L72.5753 28.1843L72.6066 28.2059L73.745 26.5615ZM72.539 26.5615L71.4006 24.9171L71.3693 24.9387L71.339 24.9615L72.539 26.5615ZM72.539 27.3535L71.339 28.9535L71.3693 28.9763L71.4006 28.9979L72.539 27.3535ZM72.791 27.3335C72.1513 27.3335 71.8151 27.1918 71.6339 27.065L69.3401 30.342C70.3589 31.0552 71.5587 31.3335 72.791 31.3335V27.3335ZM71.6556 27.0804C71.6257 27.0589 71.6139 27.0456 71.6117 27.043C71.6104 27.0414 71.6102 27.0411 71.6107 27.0418C71.6112 27.0425 71.6114 27.043 71.6112 27.0426C71.611 27.0422 71.6098 27.0396 71.6079 27.0341C71.606 27.0285 71.6032 27.019 71.6002 27.0048C71.5941 26.9763 71.587 26.9263 71.587 26.8495H67.587C67.587 28.2311 68.1453 29.4819 69.3184 30.3266L71.6556 27.0804ZM71.587 26.8495C71.587 26.8228 71.5898 26.8185 71.5868 26.8308C71.5854 26.8365 71.583 26.8447 71.5792 26.8544C71.5754 26.8642 71.5708 26.874 71.5657 26.8832C71.5606 26.8923 71.5558 26.8994 71.5523 26.9043C71.5487 26.909 71.5472 26.9105 71.5488 26.9087C71.5521 26.9054 71.5705 26.8868 71.6144 26.8576L69.3956 23.5294C68.2649 24.2832 67.587 25.4407 67.587 26.8495H71.587ZM71.6144 26.8576C71.8267 26.716 72.1787 26.5815 72.791 26.5815V22.5815C71.5793 22.5815 70.4072 22.855 69.3956 23.5294L71.6144 26.8576ZM72.791 26.5815C73.0089 26.5815 73.1826 26.601 73.3191 26.6295L74.1349 22.7135C73.6954 22.622 73.2451 22.5815 72.791 22.5815V26.5815ZM73.411 26.6464C73.5094 26.6621 73.5465 26.6729 73.5406 26.6712C73.5361 26.6699 73.5068 26.6612 73.4607 26.6417C73.4171 26.6232 73.3327 26.5844 73.2296 26.5156L75.4484 23.1874C74.943 22.8505 74.3447 22.7449 74.043 22.6966L73.411 26.6464ZM76.339 24.8515C76.339 23.8877 75.8892 23.0682 75.1731 22.5226L72.7489 25.7044C72.672 25.6458 72.5562 25.5331 72.4644 25.3537C72.3708 25.1709 72.339 24.9909 72.339 24.8515H76.339ZM75.2194 22.559C74.4544 21.9397 73.5293 21.8075 72.809 21.8075V25.8075C72.9422 25.8075 72.9873 25.8214 72.9705 25.817C72.9502 25.8116 72.839 25.7784 72.7026 25.668L75.2194 22.559ZM72.809 21.8075C72.4947 21.8075 72.1292 21.8304 71.7659 21.9212L72.736 25.8018C72.7123 25.8077 72.6964 25.8105 72.6898 25.8116C72.6832 25.8127 72.6833 25.8125 72.6911 25.8117C72.708 25.8101 72.7459 25.8075 72.809 25.8075V21.8075ZM71.7659 21.9212C71.498 21.9882 71.2397 22.0804 70.9951 22.1852L72.5708 25.8618C72.6623 25.8226 72.716 25.8068 72.736 25.8018L71.7659 21.9212ZM70.9951 22.1852C70.9037 22.2244 70.85 22.2402 70.8299 22.2452L71.8 26.1258C72.068 26.0588 72.3263 25.9666 72.5708 25.8618L70.9951 22.1852ZM70.7887 22.256C70.8074 22.2509 70.8232 22.2471 70.8358 22.2444C70.8485 22.2416 70.8586 22.2397 70.8659 22.2384C70.8801 22.236 70.8859 22.2355 70.882 22.2359C70.8782 22.2363 70.8674 22.2372 70.8488 22.2381C70.8303 22.2389 70.8059 22.2395 70.775 22.2395V26.2395C71.0795 26.2395 71.4617 26.2185 71.8412 26.115L70.7887 22.256ZM70.775 22.2395C70.7462 22.2395 70.7868 22.2355 70.8715 22.2626C70.9631 22.2919 71.0851 22.3512 71.2037 22.4567L68.5462 25.4463C69.2346 26.0582 70.0648 26.2395 70.775 26.2395V22.2395ZM71.2482 22.4975C71.3922 22.6334 71.4761 22.7847 71.518 22.9034C71.556 23.0111 71.551 23.0666 71.551 23.0335H67.551C67.551 23.7799 67.7541 24.6994 68.5017 25.4055L71.2482 22.4975ZM71.551 23.0335C71.551 23.0441 71.5479 23.0965 71.5181 23.1666C71.4884 23.2368 71.4523 23.2764 71.4432 23.2852L68.6667 20.4058C67.9386 21.1079 67.551 22.0241 67.551 23.0335H71.551ZM71.4178 23.3093C71.5141 23.2197 71.6668 23.1194 71.9298 23.0399L70.7722 19.2111C70.0032 19.4436 69.2919 19.8233 68.6921 20.3817L71.4178 23.3093ZM71.9701 23.0272C72.2966 22.921 72.6039 22.8735 72.899 22.8735V18.8735C72.162 18.8735 71.4374 18.994 70.7318 19.2238L71.9701 23.0272ZM72.899 22.8735C73.6763 22.8735 74.1676 23.0204 74.4759 23.1935L76.434 19.7055C75.3744 19.1106 74.1617 18.8735 72.899 18.8735V22.8735ZM74.5122 23.2134C74.8974 23.4192 75.0944 23.6424 75.21 23.8651L78.76 22.0219C78.2276 20.9966 77.4045 20.2237 76.3977 19.6856L74.5122 23.2134ZM75.224 23.8917C75.3927 24.2049 75.489 24.5657 75.489 25.0135H79.489C79.489 23.9493 79.2493 22.9301 78.7459 21.9953L75.224 23.8917ZM75.489 25.0135C75.489 25.3049 75.4632 25.5455 75.4225 25.7423L79.3395 26.5527C79.4428 26.0535 79.489 25.5381 79.489 25.0135H75.489ZM75.4101 25.8077C75.3914 25.9158 75.3739 25.9827 75.3633 26.0169C75.3519 26.0533 75.3547 26.0323 75.3858 25.977L78.8721 27.938C79.1389 27.4637 79.2736 26.9415 79.3519 26.4873L75.4101 25.8077ZM75.8274 28.476C75.8065 28.4581 75.7786 28.4303 75.7495 28.3915C75.7201 28.3524 75.6946 28.3087 75.6747 28.2631L79.3393 26.6599C79.1279 26.1766 78.8141 25.7677 78.4306 25.439L75.8274 28.476ZM75.7181 28.3559C75.6827 28.2851 75.651 28.1783 75.651 28.0555H79.651C79.651 27.5247 79.5232 27.0219 79.2958 26.5671L75.7181 28.3559ZM75.651 28.0555C75.651 27.9948 75.6625 27.9026 75.704 27.7987C75.7456 27.6948 75.8008 27.6201 75.8427 27.5762L78.7393 30.3348C79.3334 29.7109 79.651 28.917 79.651 28.0555H75.651ZM75.8079 27.6137C75.8881 27.525 75.9991 27.4431 76.129 27.3896C76.2531 27.3385 76.3451 27.3335 76.373 27.3335V31.3335C77.2407 31.3335 78.1155 31.0252 78.774 30.2973L75.8079 27.6137ZM76.373 27.3335C76.3236 27.3335 76.3138 27.3297 76.3348 27.3335C76.3557 27.3372 76.4229 27.3513 76.5167 27.3951L74.8252 31.0199C75.3615 31.2702 75.9141 31.3335 76.373 31.3335V27.3335ZM76.5167 27.3951C76.5423 27.407 76.5451 27.4112 76.525 27.3974C76.5052 27.3838 76.4696 27.3571 76.4182 27.3118L73.7717 30.3112C74.0702 30.5745 74.4213 30.8314 74.8252 31.0199L76.5167 27.3951ZM74.066 27.0965C73.9541 27.1636 73.8196 27.2204 73.6505 27.2598L74.5594 31.1552C75.1104 31.0266 75.6359 30.8193 76.124 30.5265L74.066 27.0965ZM73.6357 27.2633C73.4952 27.2972 73.2281 27.3335 72.791 27.3335V31.3335C73.4099 31.3335 74.0187 31.2858 74.5743 31.1517L73.6357 27.2633ZM73.151 29.5155C73.6668 29.5155 74.3404 29.4069 74.945 28.9535L72.545 25.7535C72.8615 25.5161 73.1391 25.5155 73.151 25.5155V29.5155ZM74.8834 28.9979C75.4464 28.6081 75.979 27.916 75.979 26.9575H71.979C71.979 26.6841 72.0522 26.4038 72.1986 26.156C72.3371 25.9216 72.5021 25.7814 72.6066 25.7091L74.8834 28.9979ZM75.979 26.9575C75.979 25.999 75.4464 25.3069 74.8834 24.9171L72.6066 28.2059C72.5021 28.1335 72.3371 27.9934 72.1986 27.759C72.0522 27.5112 71.979 27.2309 71.979 26.9575H75.979ZM74.945 24.9615C74.3404 24.5081 73.6668 24.3995 73.151 24.3995V28.3995C73.1391 28.3995 72.8615 28.3989 72.545 28.1615L74.945 24.9615ZM73.151 24.3995C72.6237 24.3995 71.985 24.5125 71.4006 24.9171L73.6774 28.2059C73.405 28.3945 73.1742 28.3995 73.151 28.3995V24.3995ZM71.339 24.9615C70.7795 25.3811 70.323 26.0694 70.323 26.9575H74.323C74.323 27.2011 74.2631 27.4602 74.1328 27.6992C74.0073 27.9292 73.8516 28.077 73.739 28.1615L71.339 24.9615ZM70.323 26.9575C70.323 27.8456 70.7795 28.5339 71.339 28.9535L73.739 25.7535C73.8516 25.838 74.0073 25.9858 74.1328 26.2158C74.2631 26.4548 74.323 26.7139 74.323 26.9575H70.323ZM71.4006 28.9979C71.985 29.4025 72.6237 29.5155 73.151 29.5155V25.5155C73.1742 25.5155 73.405 25.5205 73.6774 25.7091L71.4006 28.9979ZM83.4463 29.2075L82.8716 31.1231L82.8842 31.1269L82.8968 31.1305L83.4463 29.2075ZM82.6003 28.7215L81.3448 30.2783L81.3585 30.2894L81.3724 30.3002L82.6003 28.7215ZM81.3403 27.2095L79.6634 28.2995L79.6676 28.3059L79.6718 28.3124L81.3403 27.2095ZM80.1343 24.8875L78.2773 25.6303L78.281 25.6395L80.1343 24.8875ZM80.0623 21.3775L78.5704 20.0455L78.5675 20.0488L80.0623 21.3775ZM82.3303 21.4315L80.8461 22.7721L80.8688 22.7972L80.8923 22.8215L82.3303 21.4315ZM83.1943 22.7815L81.3518 23.5594L81.3623 23.5844L81.3735 23.6091L83.1943 22.7815ZM84.0043 24.9235L82.1069 25.556L82.1069 25.556L84.0043 24.9235ZM84.1123 25.2835L82.1827 25.8097L82.2128 25.9201L82.2553 26.0263L84.1123 25.2835ZM84.2563 25.6615L82.3767 26.345L84.3063 31.6515L86.147 26.3135L84.2563 25.6615ZM84.4363 25.1395L82.5485 24.4788L82.5455 24.4875L84.4363 25.1395ZM85.3003 22.8715L87.1344 23.6689L87.1375 23.6618L87.1406 23.6546L85.3003 22.8715ZM86.2003 21.4495L87.6593 22.8174L87.6698 22.8062L87.6802 22.7948L86.2003 21.4495ZM87.4603 20.8735L87.5227 18.8744L87.5103 18.8741L87.4603 20.8735ZM88.4323 21.3055L86.987 22.6879L87.0023 22.704L87.0181 22.7197L88.4323 21.3055ZM88.3783 24.7795L90.2391 25.5125V25.5125L88.3783 24.7795ZM87.2803 26.9395L88.9492 28.0416L88.9539 28.0345L88.9586 28.0273L87.2803 26.9395ZM86.2003 28.3435L84.7861 26.9293L84.741 26.9744L84.6988 27.0222L86.2003 28.3435ZM85.2643 29.0635L86.1338 30.8646L86.1463 30.8586L86.1587 30.8524L85.2643 29.0635ZM84.2563 27.3155C84.1359 27.3155 84.0524 27.3006 83.9957 27.2844L82.8968 31.1305C83.3442 31.2584 83.8006 31.3155 84.2563 31.3155V27.3155ZM84.021 27.2918C84.084 27.3107 84.096 27.3236 84.051 27.2978C84.0084 27.2733 83.9347 27.2257 83.8282 27.1428L81.3724 30.3002C81.783 30.6196 82.2917 30.9492 82.8716 31.1231L84.021 27.2918ZM83.8558 27.1647C83.7223 27.057 83.4368 26.7542 83.0087 26.1066L79.6718 28.3124C80.1798 29.0808 80.7342 29.786 81.3448 30.2783L83.8558 27.1647ZM83.0172 26.1195C82.6213 25.5105 82.2775 24.8502 81.9875 24.1355L78.281 25.6395C78.663 26.5808 79.1232 27.4685 79.6634 28.2995L83.0172 26.1195ZM81.9912 24.1447C81.719 23.464 81.6303 22.9656 81.6303 22.6195H77.6303C77.6303 23.6174 77.8776 24.631 78.2773 25.6303L81.9912 24.1447ZM81.6303 22.6195C81.6303 22.5582 81.6388 22.5547 81.6273 22.588C81.6216 22.6042 81.6126 22.625 81.5993 22.6477C81.586 22.6705 81.5712 22.6903 81.5571 22.7062L78.5675 20.0488C77.9019 20.7975 77.6303 21.7103 77.6303 22.6195H81.6303ZM81.5541 22.7095C81.558 22.7052 81.5158 22.7533 81.4178 22.8006C81.3138 22.8508 81.2017 22.8735 81.1063 22.8735V18.8735C80.0591 18.8735 79.192 19.3492 78.5704 20.0455L81.5541 22.7095ZM81.1063 22.8735C81.0805 22.8735 81.0172 22.8668 80.9427 22.8328C80.8702 22.7998 80.8396 22.7649 80.8461 22.7721L83.8145 20.0909C83.1183 19.3202 82.1798 18.8735 81.1063 18.8735V22.8735ZM80.8923 22.8215C81.0423 22.9767 81.2036 23.2086 81.3518 23.5594L85.0368 22.0036C84.7289 21.2744 84.3143 20.6063 83.7682 20.0415L80.8923 22.8215ZM81.3735 23.6091C81.5723 24.0464 81.817 24.6864 82.1069 25.556L85.9016 24.291C85.5915 23.3606 85.2962 22.5726 85.015 21.9539L81.3735 23.6091ZM82.1069 25.556C82.1292 25.6227 82.1546 25.7066 82.1827 25.8097L86.0418 24.7573C85.9979 24.5964 85.9514 24.4403 85.9016 24.291L82.1069 25.556ZM82.2553 26.0263C82.2948 26.125 82.3353 26.2312 82.3767 26.345L86.1359 24.978C86.0812 24.8278 86.0257 24.682 85.9692 24.5407L82.2553 26.0263ZM86.147 26.3135L86.327 25.7915L82.5455 24.4875L82.3655 25.0095L86.147 26.3135ZM86.324 25.8002C86.6532 24.8596 86.9227 24.1559 87.1344 23.6689L83.4661 22.074C83.1979 22.6911 82.8914 23.4993 82.5486 24.4788L86.324 25.8002ZM87.1406 23.6546C87.3036 23.2715 87.4837 23.0047 87.6593 22.8174L84.7412 20.0816C84.1968 20.6623 83.777 21.3435 83.46 22.0884L87.1406 23.6546ZM87.6802 22.7948C87.7069 22.7654 87.6887 22.7946 87.6168 22.8274C87.5822 22.8432 87.5436 22.8559 87.5038 22.8639C87.4642 22.8718 87.4318 22.8734 87.4103 22.8729L87.5103 18.8741C86.3788 18.8458 85.421 19.3335 84.7204 20.1041L87.6802 22.7948ZM87.3978 22.8725C87.3529 22.8711 87.2726 22.8597 87.179 22.8181C87.0852 22.7764 87.021 22.7235 86.987 22.6879L89.8776 19.9231C89.2488 19.2658 88.4272 18.9027 87.5227 18.8745L87.3978 22.8725ZM87.0181 22.7197C86.9221 22.6238 86.872 22.5243 86.8511 22.4634C86.8334 22.4118 86.8463 22.4171 86.8463 22.5115H90.8463C90.8463 21.6454 90.6146 20.6594 89.8465 19.8913L87.0181 22.7197ZM86.8463 22.5115C86.8463 22.9393 86.7539 23.4462 86.5175 24.0464L90.2391 25.5125C90.6266 24.5288 90.8463 23.5237 90.8463 22.5115H86.8463ZM86.5175 24.0464C86.2494 24.7269 85.9425 25.3263 85.602 25.8517L88.9586 28.0273C89.458 27.2567 89.8831 26.4161 90.2391 25.5125L86.5175 24.0464ZM85.6113 25.8374C85.2169 26.4347 84.944 26.7713 84.7861 26.9293L87.6145 29.7577C88.0565 29.3157 88.5036 28.7163 88.9492 28.0416L85.6113 25.8374ZM84.6988 27.0222C84.6064 27.1273 84.501 27.2091 84.3698 27.2746L86.1587 30.8524C86.7476 30.5579 87.2661 30.1597 87.7017 29.6648L84.6988 27.0222ZM84.3948 27.2624C84.2663 27.3244 84.2266 27.3155 84.2563 27.3155V31.3155C84.9339 31.3155 85.5663 31.1386 86.1338 30.8646L84.3948 27.2624ZM93.1352 28.8115L94.0421 27.0289L93.1352 28.8115ZM91.5332 27.3535L89.8068 28.3633L89.8181 28.3826L89.8299 28.4017L91.5332 27.3535ZM91.5332 23.0515L89.8045 22.0457L89.7976 22.0575L89.7909 22.0695L91.5332 23.0515ZM93.1172 21.4675L94.1326 23.1906L93.1172 21.4675ZM97.4372 21.3415L98.3746 19.5748V19.5748L97.4372 21.3415ZM98.7872 22.5835L97.0757 23.6183L97.0812 23.6273L97.0867 23.6362L98.7872 22.5835ZM98.2292 26.1475L99.2672 27.8571L99.2757 27.8518L98.2292 26.1475ZM94.2332 26.5255L94.9125 24.6444L89.5511 22.7083L92.5275 27.5698L94.2332 26.5255ZM97.0952 27.2815L97.5226 29.2353L97.5515 29.229L97.5803 29.2218L97.0952 27.2815ZM98.1392 27.4255L96.8473 28.9523L96.875 28.9757L96.9036 28.9981L98.1392 27.4255ZM97.7072 28.9375L98.7093 30.6683L98.7261 30.6586L98.7428 30.6485L97.7072 28.9375ZM94.2872 24.3295H92.2872V24.9169L92.6048 25.411L94.2872 24.3295ZM94.7192 24.7075L93.8734 26.5199L93.944 26.5528L94.017 26.5802L94.7192 24.7075ZM96.0332 24.6355L95.0192 22.9116L94.996 22.9253L94.9732 22.9395L96.0332 24.6355ZM96.0692 23.6095L94.7083 25.0751L94.7334 25.0984L94.7593 25.1209L96.0692 23.6095ZM94.5572 23.6815L93.1008 22.3108L93.0981 22.3136L94.5572 23.6815ZM95.4932 27.3335C94.8708 27.3335 94.404 27.2131 94.0421 27.0289L92.2283 30.5941C93.2343 31.1059 94.3396 31.3335 95.4932 31.3335V27.3335ZM94.0421 27.0289C93.6698 26.8395 93.4183 26.6007 93.2365 26.3053L89.8299 28.4017C90.4161 29.3543 91.2326 30.0875 92.2283 30.5941L94.0421 27.0289ZM93.2596 26.3437C93.0802 26.037 92.9752 25.6761 92.9752 25.2115H88.9752C88.9752 26.3309 89.2422 27.398 89.8068 28.3633L93.2596 26.3437ZM92.9752 25.2115C92.9752 24.7649 93.0776 24.3847 93.2755 24.0335L89.7909 22.0695C89.2448 23.0383 88.9752 24.098 88.9752 25.2115H92.9752ZM93.2619 24.0573C93.4697 23.7001 93.7493 23.4165 94.1326 23.1906L92.1018 19.7444C91.1411 20.3105 90.3647 21.0828 89.8045 22.0457L93.2619 24.0573ZM94.1326 23.1906C94.4689 22.9924 94.8743 22.8735 95.4032 22.8735V18.8735C94.2281 18.8735 93.1095 19.1506 92.1018 19.7444L94.1326 23.1906ZM95.4032 22.8735C95.8949 22.8735 96.2421 22.9715 96.4998 23.1082L98.3746 19.5748C97.4563 19.0875 96.4475 18.8735 95.4032 18.8735V22.8735ZM96.4998 23.1082C96.8025 23.2688 96.9699 23.4433 97.0757 23.6183L100.499 21.5487C99.9805 20.6917 99.2479 20.0382 98.3746 19.5748L96.4998 23.1082ZM97.0867 23.6362C97.2179 23.8483 97.2552 24.015 97.2552 24.1675H101.255C101.255 23.216 100.98 22.3267 100.488 21.5308L97.0867 23.6362ZM97.2552 24.1675C97.2552 24.2664 97.2458 24.3313 97.2375 24.3692C97.2333 24.388 97.2294 24.4004 97.2269 24.4076C97.2256 24.4112 97.2246 24.4137 97.2239 24.4152C97.2233 24.4166 97.2229 24.4173 97.2229 24.4173C97.2229 24.4173 97.223 24.4172 97.2231 24.417C97.2233 24.4168 97.2235 24.4164 97.2237 24.416C97.2242 24.4152 97.2248 24.4142 97.2256 24.4132C97.2272 24.4109 97.2283 24.4098 97.2281 24.41C97.2278 24.4103 97.225 24.4132 97.2184 24.4185C97.2117 24.4239 97.2002 24.4324 97.1827 24.4432L99.2757 27.8518C100.633 27.0184 101.255 25.6622 101.255 24.1675H97.2552ZM97.1912 24.4379C96.8872 24.6225 96.4575 24.7595 95.8172 24.7595V28.7595C97.0489 28.7595 98.2272 28.4885 99.2672 27.8571L97.1912 24.4379ZM95.8172 24.7595C95.3473 24.7595 95.0641 24.6991 94.9125 24.6444L93.5539 28.4066C94.2663 28.6639 95.0391 28.7595 95.8172 28.7595V24.7595ZM92.5275 27.5698C93.3288 28.8786 94.6543 29.4075 96.0152 29.4075V25.4075C95.834 25.4075 95.797 25.3753 95.8359 25.3945C95.8554 25.4042 95.8806 25.4205 95.9048 25.4428C95.916 25.4532 95.9246 25.4627 95.9307 25.4702C95.9367 25.4776 95.9392 25.4817 95.9389 25.4812L92.5275 27.5698ZM96.0152 29.4075C96.5167 29.4075 97.0212 29.345 97.5226 29.2353L96.6678 25.3277C96.4011 25.386 96.1857 25.4075 96.0152 25.4075V29.4075ZM97.5803 29.2218C97.585 29.2206 97.5595 29.2275 97.5092 29.2275V25.2275C97.1949 25.2275 96.8934 25.2704 96.6101 25.3412L97.5803 29.2218ZM97.5092 29.2275C97.4409 29.2275 97.147 29.2059 96.8473 28.9523L99.4311 25.8987C98.8194 25.3811 98.1055 25.2275 97.5092 25.2275V29.2275ZM96.9036 28.9981C96.7601 28.8854 96.6163 28.7206 96.5158 28.5053C96.4172 28.2939 96.3912 28.1006 96.3912 27.9655H100.391C100.391 27.1713 100.062 26.3925 99.3748 25.8529L96.9036 28.9981ZM96.3912 27.9655C96.3912 27.712 96.4778 27.4883 96.5846 27.3365C96.6745 27.2087 96.7402 27.1849 96.6716 27.2265L98.7428 30.6485C99.513 30.1823 100.391 29.3156 100.391 27.9655H96.3912ZM96.7051 27.2066C96.7438 27.1842 96.6885 27.2248 96.4596 27.2657C96.2398 27.3051 95.9242 27.3335 95.4932 27.3335V31.3335C96.5921 31.3335 97.7773 31.2079 98.7093 30.6683L96.7051 27.2066ZM92.6048 25.411C92.9159 25.8949 93.3492 26.2752 93.8734 26.5199L95.565 22.8951C95.6392 22.9298 95.7181 22.9791 95.7932 23.0448C95.8683 23.1106 95.9267 23.1813 95.9696 23.248L92.6048 25.411ZM94.017 26.5802C94.4572 26.7453 94.9081 26.8155 95.3492 26.8155V22.8155C95.3406 22.8155 95.3445 22.8148 95.3586 22.8173C95.3731 22.8197 95.3949 22.8249 95.4214 22.8348L94.017 26.5802ZM95.3492 26.8155C95.9247 26.8155 96.5336 26.6812 97.0932 26.3315L94.9732 22.9395C95.1488 22.8298 95.3017 22.8155 95.3492 22.8155V26.8155ZM97.0472 26.3594C97.6964 25.9775 98.3392 25.2415 98.3392 24.1675H94.3392C94.3392 23.8871 94.4203 23.5916 94.5888 23.334C94.7455 23.0942 94.9252 22.9669 95.0192 22.9116L97.0472 26.3594ZM98.3392 24.1675C98.3392 23.3077 97.9468 22.5901 97.3791 22.0981L94.7593 25.1209C94.6752 25.0479 94.5614 24.9232 94.4714 24.7371C94.379 24.5461 94.3392 24.3472 94.3392 24.1675H98.3392ZM97.4301 22.1439C96.7634 21.5248 95.9514 21.3755 95.3312 21.3755V25.3755C95.359 25.3755 95.039 25.3822 94.7083 25.0751L97.4301 22.1439ZM95.3312 21.3755C94.5501 21.3755 93.7309 21.6413 93.1008 22.3108L96.0136 25.0522C95.9101 25.1621 95.7772 25.2537 95.63 25.3119C95.4891 25.3676 95.3793 25.3755 95.3312 25.3755V21.3755ZM93.0981 22.3136C92.6071 22.8373 92.2872 23.5303 92.2872 24.3295H96.2872C96.2872 24.4666 96.26 24.6147 96.2009 24.7567C96.143 24.8957 96.0698 24.9923 96.0163 25.0494L93.0981 22.3136Z" fill="#4B371F" mask="url(#path-4-outside-1_685_4374)"/>
</svg>
