<svg width="426" height="467" viewBox="0 0 426 467" fill="none" xmlns="http://www.w3.org/2000/svg">
<path fill-rule="evenodd" clip-rule="evenodd" d="M237.276 41.7622H187.964L198.725 202.402L127.724 57.9038L85.0183 82.5599L174.657 216.297L40.9186 126.658L16.2625 169.364L160.762 240.365L0.120365 229.605L0.120361 278.917L160.763 268.156L16.2626 339.158L40.9187 381.864L174.661 292.222L85.0187 425.965L127.724 450.621L198.724 306.125L187.964 466.762H237.276L226.515 306.118L297.518 450.621L340.224 425.965L250.583 292.223L384.323 381.864L408.979 339.158L264.479 268.156L425.12 278.917V229.605L264.48 240.365L408.98 169.364L384.323 126.658L250.587 216.296L340.224 82.5605L297.519 57.9044L226.515 202.408L237.276 41.7622Z" fill="url(#paint0_radial_780_4668)"/>
<path d="M178.006 438.662C178.267 438.728 178.539 438.741 178.806 438.699L370.45 408.772C372.601 408.436 372.743 405.392 370.633 404.858L256.235 375.863C255.974 375.796 255.701 375.784 255.435 375.825L63.7906 405.752C61.6398 406.088 61.4977 409.132 63.6078 409.667L178.006 438.662Z" fill="black" fill-opacity="0.5"/>
<path d="M75.1204 27.5592L246.459 0.762207V379.168L75.1204 405.965V27.5592Z" fill="url(#paint1_linear_780_4668)"/>
<path d="M352.023 339.176L272.85 319.078V172.811V90.0348V60.8271L352.023 79.5291V27.1532L246.459 0.762207V379.168L352.023 405.965L352.023 339.176Z" fill="#4F3414" stroke="black" stroke-width="0.6"/>
<path d="M180.684 54.3562L352.023 27.5592L246.459 0.762207L75.1204 27.5592L180.684 54.3562Z" fill="#FFBE6D" stroke="black" stroke-width="0.6"/>
<path d="M180.684 392.973L352.023 366.176L246.459 339.379L75.1204 366.176L180.684 392.973Z" fill="#6C3B00" stroke="black"/>
<path d="M180.684 54.3561L75.1204 27.5591V405.965L180.684 432.762V54.3561Z" fill="white" fill-opacity="0.2"/>
<path d="M180.684 385.258L127.902 371.86L114.707 368.51L101.511 365.161V199.608V116.832V87.6239L180.684 106.326V53.9501L75.1204 27.5591V405.965L180.684 432.762L180.684 385.258Z" fill="#A25900" stroke="black" stroke-width="0.6"/>
<path d="M180.684 54.3561L352.023 27.5591V405.965L180.684 432.762V54.3561Z" fill="white" fill-opacity="0.2"/>
<path d="M352.023 27.5591L180.684 54.3561V105.514L223.12 98.8771L238.62 115.762L312.62 103.762L322.62 83.3154L352.023 78.717V27.5591Z" fill="#FFA02C" stroke="black" stroke-width="0.6"/>
<path d="M189.584 88.5196V70.3196L199.188 68.7985C201.671 68.4053 203.503 68.5658 204.684 69.2801C205.865 69.977 206.456 71.0187 206.456 72.4054C206.456 73.3241 206.199 74.1881 205.685 74.9974C205.189 75.7867 204.461 76.4653 203.503 77.0332C202.544 77.601 201.363 77.9961 199.959 78.2184L200.472 76.7331C201.876 76.5107 203.083 76.5189 204.093 76.7576C205.12 76.9936 205.908 77.4495 206.456 78.1254C207.021 78.7813 207.303 79.6379 207.303 80.6952C207.303 82.2725 206.653 83.6062 205.352 84.6963C204.068 85.7837 202.184 86.5239 199.702 86.9171L189.584 88.5196ZM195.542 83.286L199.188 82.7085C199.856 82.6027 200.352 82.4027 200.678 82.1086C201.02 81.8117 201.191 81.4292 201.191 80.9612C201.191 80.4932 201.02 80.165 200.678 79.9766C200.352 79.7854 199.856 79.7427 199.188 79.8485L195.131 80.4911V76.4351L198.367 75.9226C199.051 75.8142 199.548 75.6229 199.856 75.3487C200.181 75.0545 200.344 74.6908 200.344 74.2574C200.344 73.8068 200.181 73.4945 199.856 73.3207C199.548 73.1442 199.051 73.1102 198.367 73.2186L195.542 73.666V83.286ZM213.709 73.2587L221.721 71.9897V76.4097L213.709 77.6787V73.2587ZM214.12 80.0056L223.108 78.582V83.21L208.162 85.5772V67.3772L222.774 65.0629V69.6909L214.12 71.0616V80.0056ZM224.157 83.0439V64.8439L232.811 63.4732C234.489 63.2075 235.935 63.2557 237.151 63.6178C238.383 63.9773 239.333 64.6241 240.001 65.5583C240.669 66.4753 241.003 67.6357 241.003 69.0397C241.003 70.4437 240.669 71.7099 240.001 72.8384C239.333 73.9494 238.383 74.8713 237.151 75.6038C235.935 76.3337 234.489 76.8315 232.811 77.0972L227.521 77.9351L230.217 74.986V82.084L224.157 83.0439ZM234.916 81.3397L230.5 75.4092L236.92 74.3924L241.388 80.3147L234.916 81.3397ZM230.217 75.662L227.521 73.3071L232.426 72.5302C233.264 72.3973 233.881 72.1091 234.275 71.6654C234.685 71.2189 234.891 70.6664 234.891 70.0077C234.891 69.3491 234.685 68.8616 234.275 68.5454C233.881 68.2264 233.264 68.1333 232.426 68.2662L227.521 69.0431L230.217 65.834V75.662ZM240.055 80.5257L247.914 61.0811L253.871 60.1375L261.729 77.0929L255.463 78.0854L249.66 63.7166L252.022 63.3424L246.219 79.5496L240.055 80.5257ZM244.729 76.6135L246.27 71.9495L254.539 70.6398L256.08 74.8157L244.729 76.6135ZM270.458 76.1265C269.02 76.3542 267.684 76.3404 266.452 76.085C265.236 75.8095 264.175 75.3189 263.268 74.6133C262.377 73.905 261.684 73.0095 261.187 71.9268C260.691 70.8441 260.443 69.6007 260.443 68.1967C260.443 66.7927 260.691 65.4707 261.187 64.2308C261.684 62.9908 262.377 61.8756 263.268 60.8853C264.175 59.8923 265.236 59.0742 266.452 58.431C267.684 57.7677 269.02 57.3222 270.458 57.0945C272.221 56.8152 273.779 56.8804 275.132 57.2902C276.501 57.6973 277.631 58.4197 278.521 59.4573L274.695 63.5214C274.164 62.9294 273.574 62.503 272.923 62.242C272.29 61.961 271.571 61.8842 270.766 62.0117C270.133 62.112 269.559 62.3068 269.045 62.5962C268.532 62.8855 268.087 63.2594 267.71 63.7177C267.351 64.1733 267.068 64.7034 266.863 65.3079C266.657 65.8951 266.555 66.5354 266.555 67.2287C266.555 67.922 266.657 68.5384 266.863 69.0779C267.068 69.6 267.351 70.032 267.71 70.3737C268.087 70.7127 268.532 70.9455 269.045 71.0722C269.559 71.1988 270.133 71.212 270.766 71.1117C271.571 70.9842 272.29 70.6883 272.923 70.224C273.574 69.7396 274.164 69.1174 274.695 68.3574L278.521 71.2093C277.631 72.5117 276.501 73.592 275.132 74.4502C273.779 75.2884 272.221 75.8472 270.458 76.1265ZM278.987 74.3596V56.1596L285.048 55.1997V73.3997L278.987 74.3596ZM284.729 73.4501L292.588 54.0055L298.545 53.0619L306.403 70.0173L300.137 71.0097L294.334 56.6409L296.696 56.2667L290.893 72.4739L284.729 73.4501ZM289.403 69.5378L290.944 64.8738L299.213 63.5641L300.754 67.7401L289.403 69.5378ZM315.158 69.0467C313.702 69.2772 312.358 69.2647 311.126 69.0093C309.91 68.7338 308.849 68.2433 307.941 67.5377C307.051 66.8293 306.358 65.9338 305.861 64.8511C305.365 63.7684 305.117 62.5251 305.117 61.1211C305.117 59.7171 305.365 58.3951 305.861 57.1551C306.358 55.9151 307.06 54.7986 307.967 53.8056C308.875 52.8125 309.945 51.9931 311.177 51.3472C312.427 50.6812 313.797 50.2303 315.286 49.9944C317.066 49.7124 318.65 49.7649 320.037 50.152C321.441 50.5363 322.596 51.2199 323.504 52.2029L319.626 56.275C319.061 55.7058 318.445 55.3095 317.777 55.0859C317.126 54.8422 316.399 54.7842 315.594 54.9116C314.926 55.0173 314.319 55.2176 313.771 55.5124C313.24 55.8044 312.786 56.1796 312.41 56.6379C312.033 57.0963 311.742 57.619 311.537 58.2062C311.331 58.7934 311.229 59.4424 311.229 60.153C311.229 60.829 311.331 61.4368 311.537 61.9762C311.742 62.4984 312.033 62.9289 312.41 63.2679C312.786 63.607 313.232 63.8485 313.745 63.9924C314.276 64.1164 314.867 64.1268 315.517 64.0238C316.202 63.9153 316.87 63.6969 317.52 63.3686C318.171 63.0228 318.864 62.5057 319.6 61.8171L322.99 65.4922C321.894 66.4111 320.644 67.181 319.241 67.802C317.837 68.4231 316.476 68.838 315.158 69.0467ZM317.726 65.546V58.63L322.99 57.7962V65.4922L317.726 65.546ZM322.336 67.4937L330.195 48.0491L336.152 47.1055L344.01 64.0609L337.744 65.0533L331.941 50.6845L334.303 50.3103L328.5 66.5176L322.336 67.4937ZM327.01 63.5815L328.551 58.9174L336.82 57.6078L338.361 61.7837L327.01 63.5815Z" fill="white"/>
<path d="M180.684 384.852L279.346 371.454L309.188 346.078L352.023 339.379V405.965L180.684 432.762L180.684 384.852Z" fill="#FFA02C" stroke="black" stroke-width="0.6"/>
<path d="M189.584 414.52V396.32L199.188 394.798C201.671 394.405 203.503 394.566 204.684 395.28C205.865 395.977 206.456 397.019 206.456 398.405C206.456 399.324 206.199 400.188 205.685 400.997C205.189 401.787 204.461 402.465 203.503 403.033C202.544 403.601 201.363 403.996 199.959 404.218L200.472 402.733C201.876 402.511 203.083 402.519 204.093 402.758C205.12 402.994 205.908 403.45 206.456 404.125C207.021 404.781 207.303 405.638 207.303 406.695C207.303 408.273 206.653 409.606 205.352 410.696C204.068 411.784 202.184 412.524 199.702 412.917L189.584 414.52ZM195.542 409.286L199.188 408.708C199.856 408.603 200.352 408.403 200.678 408.109C201.02 407.812 201.191 407.429 201.191 406.961C201.191 406.493 201.02 406.165 200.678 405.977C200.352 405.785 199.856 405.743 199.188 405.848L195.131 406.491V402.435L198.367 401.923C199.051 401.814 199.548 401.623 199.856 401.349C200.181 401.055 200.344 400.691 200.344 400.257C200.344 399.807 200.181 399.495 199.856 399.321C199.548 399.144 199.051 399.11 198.367 399.219L195.542 399.666V409.286ZM213.709 399.259L221.721 397.99V402.41L213.709 403.679V399.259ZM214.12 406.006L223.108 404.582V409.21L208.162 411.577V393.377L222.774 391.063V395.691L214.12 397.062V406.006ZM224.157 409.044V390.844L232.811 389.473C234.489 389.207 235.935 389.256 237.151 389.618C238.383 389.977 239.333 390.624 240.001 391.558C240.669 392.475 241.003 393.636 241.003 395.04C241.003 396.444 240.669 397.71 240.001 398.838C239.333 399.949 238.383 400.871 237.151 401.604C235.935 402.334 234.489 402.831 232.811 403.097L227.521 403.935L230.217 400.986V408.084L224.157 409.044ZM234.916 407.34L230.5 401.409L236.92 400.392L241.388 406.315L234.916 407.34ZM230.217 401.662L227.521 399.307L232.426 398.53C233.264 398.397 233.881 398.109 234.275 397.665C234.685 397.219 234.891 396.666 234.891 396.008C234.891 395.349 234.685 394.862 234.275 394.545C233.881 394.226 233.264 394.133 232.426 394.266L227.521 395.043L230.217 391.834V401.662ZM240.055 406.526L247.914 387.081L253.871 386.138L261.729 403.093L255.463 404.085L249.66 389.717L252.022 389.342L246.219 405.55L240.055 406.526ZM244.729 402.613L246.27 397.949L254.539 396.64L256.08 400.816L244.729 402.613ZM270.458 402.126C269.02 402.354 267.684 402.34 266.452 402.085C265.236 401.809 264.175 401.319 263.268 400.613C262.377 399.905 261.684 399.009 261.187 397.927C260.691 396.844 260.443 395.601 260.443 394.197C260.443 392.793 260.691 391.471 261.187 390.231C261.684 388.991 262.377 387.876 263.268 386.885C264.175 385.892 265.236 385.074 266.452 384.431C267.684 383.768 269.02 383.322 270.458 383.094C272.221 382.815 273.779 382.88 275.132 383.29C276.501 383.697 277.631 384.42 278.521 385.457L274.695 389.521C274.164 388.929 273.574 388.503 272.923 388.242C272.29 387.961 271.571 387.884 270.766 388.012C270.133 388.112 269.559 388.307 269.045 388.596C268.532 388.886 268.087 389.259 267.71 389.718C267.351 390.173 267.068 390.703 266.863 391.308C266.657 391.895 266.555 392.535 266.555 393.229C266.555 393.922 266.657 394.538 266.863 395.078C267.068 395.6 267.351 396.032 267.71 396.374C268.087 396.713 268.532 396.946 269.045 397.072C269.559 397.199 270.133 397.212 270.766 397.112C271.571 396.984 272.29 396.688 272.923 396.224C273.574 395.74 274.164 395.117 274.695 394.357L278.521 397.209C277.631 398.512 276.501 399.592 275.132 400.45C273.779 401.288 272.221 401.847 270.458 402.126ZM278.987 400.36V382.16L285.048 381.2V399.4L278.987 400.36ZM284.729 399.45L292.588 380.005L298.545 379.062L306.403 396.017L300.137 397.01L294.334 382.641L296.696 382.267L290.893 398.474L284.729 399.45ZM289.403 395.538L290.944 390.874L299.213 389.564L300.754 393.74L289.403 395.538ZM315.158 395.047C313.702 395.277 312.358 395.265 311.126 395.009C309.91 394.734 308.849 394.243 307.941 393.538C307.051 392.829 306.358 391.934 305.861 390.851C305.365 389.768 305.117 388.525 305.117 387.121C305.117 385.717 305.365 384.395 305.861 383.155C306.358 381.915 307.06 380.799 307.967 379.806C308.875 378.813 309.945 377.993 311.177 377.347C312.427 376.681 313.797 376.23 315.286 375.994C317.066 375.712 318.65 375.765 320.037 376.152C321.441 376.536 322.596 377.22 323.504 378.203L319.626 382.275C319.061 381.706 318.445 381.309 317.777 381.086C317.126 380.842 316.399 380.784 315.594 380.912C314.926 381.017 314.319 381.218 313.771 381.512C313.24 381.804 312.786 382.18 312.41 382.638C312.033 383.096 311.742 383.619 311.537 384.206C311.331 384.793 311.229 385.442 311.229 386.153C311.229 386.829 311.331 387.437 311.537 387.976C311.742 388.498 312.033 388.929 312.41 389.268C312.786 389.607 313.232 389.848 313.745 389.992C314.276 390.116 314.867 390.127 315.517 390.024C316.202 389.915 316.87 389.697 317.52 389.369C318.171 389.023 318.864 388.506 319.6 387.817L322.99 391.492C321.894 392.411 320.644 393.181 319.241 393.802C317.837 394.423 316.476 394.838 315.158 395.047ZM317.726 391.546V384.63L322.99 383.796V391.492L317.726 391.546ZM322.336 393.494L330.195 374.049L336.152 373.106L344.01 390.061L337.744 391.053L331.941 376.685L334.303 376.31L328.5 392.518L322.336 393.494ZM327.01 389.581L328.551 384.917L336.82 383.608L338.361 387.784L327.01 389.581Z" fill="white"/>
<path d="M236.144 105.892L237.803 97.2294L240.601 96.7864L239.38 103.184L243.125 102.591L242.687 104.856L236.144 105.892ZM248.178 104.178C247.316 104.315 246.597 104.265 246.021 104.028C245.444 103.783 245.033 103.384 244.788 102.831C244.551 102.269 244.511 101.579 244.669 100.762L245.582 95.9974L248.379 95.5544L247.478 100.269C247.423 100.574 247.403 100.833 247.419 101.046C247.435 101.26 247.486 101.432 247.573 101.562C247.668 101.691 247.794 101.779 247.953 101.826C248.111 101.865 248.3 101.867 248.521 101.832C248.79 101.789 249.019 101.697 249.209 101.555C249.406 101.412 249.568 101.202 249.695 100.926C249.829 100.649 249.936 100.296 250.015 99.8673L250.916 95.1527L253.665 94.7171L252.729 99.6054C252.484 100.9 251.982 101.936 251.224 102.712C250.465 103.488 249.45 103.977 248.178 104.178ZM258.598 102.528C257.745 102.663 256.998 102.625 256.358 102.415C255.718 102.196 255.22 101.835 254.865 101.331C254.517 100.818 254.343 100.19 254.343 99.4458C254.343 98.7098 254.469 98.0138 254.722 97.3577C254.983 96.7004 255.347 96.1109 255.813 95.589C256.279 95.0672 256.832 94.6356 257.472 94.2942C258.112 93.9449 258.815 93.7095 259.582 93.5881C260.38 93.4617 261.087 93.4937 261.703 93.6841C262.32 93.8744 262.778 94.2179 263.078 94.7143L261.063 96.6294C260.889 96.345 260.664 96.1406 260.388 96.0164C260.111 95.8842 259.783 95.8482 259.404 95.9082C259.072 95.9608 258.768 96.073 258.491 96.2448C258.223 96.4073 257.99 96.6203 257.792 96.8835C257.594 97.1388 257.44 97.4312 257.33 97.7608C257.219 98.0903 257.164 98.443 257.164 98.819C257.164 99.147 257.235 99.4238 257.377 99.6492C257.519 99.8747 257.717 100.035 257.97 100.131C258.231 100.226 258.531 100.247 258.871 100.193C259.195 100.141 259.511 100.015 259.819 99.8145C260.135 99.6125 260.435 99.3169 260.72 98.9279L262.367 100.263C261.861 100.967 261.296 101.493 260.672 101.839C260.056 102.177 259.364 102.406 258.598 102.528ZM266.15 99.4118L266.564 96.1661L270.262 92.0884L273.474 91.5797L269.219 96.1656L267.323 98.122L266.15 99.4118ZM263.293 101.592L264.952 92.9294L267.702 92.4939L266.043 101.157L263.293 101.592ZM268.899 100.704L266.896 97.7576L268.97 95.5331L272.016 100.211L268.899 100.704ZM274.434 99.8277L275.157 96.0292L275.465 97.6724L272.964 91.6605L275.773 91.2156L277.48 95.3493L275.714 95.629L279.21 90.6712L282.019 90.2263L277.006 97.4284L277.954 95.5862L277.231 99.3847L274.434 99.8277ZM285.454 98.0824L287.113 89.4196L291.51 88.7231C292.498 88.5667 293.241 88.625 293.738 88.8982C294.236 89.1634 294.485 89.6159 294.485 90.2559C294.485 90.7759 294.335 91.2397 294.035 91.6473C293.742 92.0536 293.335 92.394 292.814 92.6686C292.3 92.934 291.708 93.1198 291.036 93.2262L291.392 92.5219C292.237 92.388 292.901 92.4549 293.383 92.7225C293.873 92.9809 294.118 93.4181 294.118 94.0341C294.118 94.6501 293.94 95.1863 293.584 95.6426C293.237 96.0897 292.77 96.4555 292.186 96.7401C291.601 97.0167 290.953 97.2113 290.242 97.324L285.454 98.0824ZM288.594 95.6049L290.396 95.3196C290.673 95.2758 290.898 95.1761 291.072 95.0206C291.253 94.8638 291.344 94.6574 291.344 94.4014C291.344 94.2174 291.273 94.0927 291.131 94.0272C290.997 93.9525 290.839 93.9295 290.657 93.9583L288.666 94.2736L289.033 92.3435L290.645 92.0882C290.858 92.0544 291.032 91.9988 291.166 91.9216C291.309 91.835 291.411 91.7348 291.475 91.6207C291.538 91.4987 291.569 91.3617 291.569 91.2097C291.569 91.0337 291.502 90.9164 291.368 90.8576C291.241 90.7897 291.064 90.7738 290.835 90.8101L289.472 91.026L288.594 95.6049ZM299.883 95.989C299.022 96.1254 298.275 96.0837 297.643 95.8638C297.019 95.6426 296.533 95.2796 296.185 94.7747C295.845 94.2605 295.675 93.6354 295.675 92.8994C295.675 92.1554 295.802 91.4594 296.055 90.8113C296.315 90.154 296.679 89.5645 297.145 89.0426C297.611 88.5208 298.164 88.0892 298.804 87.7478C299.444 87.3984 300.144 87.1637 300.902 87.0435C301.764 86.9071 302.506 86.9495 303.131 87.1706C303.763 87.3905 304.249 87.7575 304.588 88.2717C304.936 88.7767 305.11 89.3971 305.11 90.1331C305.11 90.8771 304.979 91.5778 304.719 92.2351C304.466 92.8831 304.106 93.4681 303.64 93.9899C303.174 94.5117 302.621 94.9473 301.981 95.2967C301.341 95.6381 300.642 95.8688 299.883 95.989ZM300.12 93.6594C300.468 93.6044 300.772 93.4882 301.033 93.3109C301.301 93.1323 301.53 92.9081 301.72 92.638C301.91 92.368 302.052 92.0735 302.147 91.7544C302.242 91.4274 302.289 91.0919 302.289 90.7479C302.289 90.4199 302.222 90.1465 302.088 89.9278C301.961 89.6998 301.775 89.5373 301.53 89.4401C301.293 89.3416 301.005 89.3193 300.665 89.3731C300.326 89.4269 300.021 89.5431 299.753 89.7216C299.484 89.9002 299.255 90.1245 299.065 90.3945C298.876 90.6645 298.733 90.9631 298.639 91.2901C298.544 91.6091 298.496 91.9406 298.496 92.2846C298.496 92.6046 298.56 92.8786 298.686 93.1066C298.82 93.3333 299.006 93.4959 299.243 93.5944C299.488 93.6916 299.78 93.7133 300.12 93.6594ZM304.769 95.0231L309.451 89.0856L309.084 90.7878L306.583 86.3359L309.569 85.8628L311.015 88.6218L309.807 88.8373L312.367 85.4198L315.519 84.9204L311.146 90.4971L311.241 88.8861L313.967 93.5664L310.944 94.045L309.439 91.1394L310.707 90.9626L308.112 94.4937L304.769 95.0231Z" fill="white"/>
<defs>
<radialGradient id="paint0_radial_780_4668" cx="0" cy="0" r="1" gradientUnits="userSpaceOnUse" gradientTransform="translate(212.62 254.262) rotate(90) scale(212.5)">
<stop stop-color="white" stop-opacity="0.8"/>
<stop offset="1" stop-color="white" stop-opacity="0"/>
</radialGradient>
<linearGradient id="paint1_linear_780_4668" x1="160.79" y1="0.762207" x2="160.79" y2="405.965" gradientUnits="userSpaceOnUse">
<stop stop-color="#774100"/>
<stop offset="1" stop-color="#F68700"/>
</linearGradient>
</defs>
</svg>
