<svg width="48" height="30" viewBox="0 0 48 30" fill="none" xmlns="http://www.w3.org/2000/svg">
<g filter="url(#filter0_i_678_14137)">
<path d="M0 12.5C0 6.14873 5.14873 1 11.5 1H36.5C42.8513 1 48 6.14873 48 12.5C48 18.8513 42.8513 24 36.5 24H11.5C5.14872 24 0 18.8513 0 12.5Z" fill="#FF9900"/>
</g>
<path d="M1 12.5C1 6.70101 5.70101 2 11.5 2H36.5C42.299 2 47 6.70101 47 12.5C47 18.299 42.299 23 36.5 23H11.5C5.70101 23 1 18.299 1 12.5Z" stroke="#855B5B" stroke-opacity="0.3" stroke-width="2" stroke-linecap="round" stroke-linejoin="round"/>
<g filter="url(#filter1_d_678_14137)">
<circle cx="35" cy="13" r="12" fill="#FFDA6A" stroke="#4B371F" stroke-width="2"/>
</g>
<defs>
<filter id="filter0_i_678_14137" x="0" y="1" width="48" height="23" filterUnits="userSpaceOnUse" color-interpolation-filters="sRGB">
<feFlood flood-opacity="0" result="BackgroundImageFix"/>
<feBlend mode="normal" in="SourceGraphic" in2="BackgroundImageFix" result="shape"/>
<feColorMatrix in="SourceAlpha" type="matrix" values="0 0 0 0 0 0 0 0 0 0 0 0 0 0 0 0 0 0 127 0" result="hardAlpha"/>
<feOffset dx="5" dy="5"/>
<feComposite in2="hardAlpha" operator="arithmetic" k2="-1" k3="1"/>
<feColorMatrix type="matrix" values="0 0 0 0 0 0 0 0 0 0 0 0 0 0 0 0 0 0 0.25 0"/>
<feBlend mode="normal" in2="shape" result="effect1_innerShadow_678_14137"/>
</filter>
<filter id="filter1_d_678_14137" x="22" y="0" width="26" height="30" filterUnits="userSpaceOnUse" color-interpolation-filters="sRGB">
<feFlood flood-opacity="0" result="BackgroundImageFix"/>
<feColorMatrix in="SourceAlpha" type="matrix" values="0 0 0 0 0 0 0 0 0 0 0 0 0 0 0 0 0 0 127 0" result="hardAlpha"/>
<feOffset dy="4"/>
<feComposite in2="hardAlpha" operator="out"/>
<feColorMatrix type="matrix" values="0 0 0 0 0 0 0 0 0 0 0 0 0 0 0 0 0 0 0.25 0"/>
<feBlend mode="normal" in2="BackgroundImageFix" result="effect1_dropShadow_678_14137"/>
<feBlend mode="normal" in="SourceGraphic" in2="effect1_dropShadow_678_14137" result="shape"/>
</filter>
</defs>
</svg>
