<svg width="48" height="30" viewBox="0 0 48 30" fill="none" xmlns="http://www.w3.org/2000/svg">
<g filter="url(#filter0_i_1512_10959)">
<path d="M48 12.5C48 6.14873 42.8513 1 36.5 1H11.5C5.14872 1 0 6.14873 0 12.5C0 18.8513 5.14872 24 11.5 24H36.5C42.8513 24 48 18.8513 48 12.5Z" fill="#DBDBDB"/>
</g>
<path d="M47 12.5C47 6.70101 42.299 2 36.5 2H11.5C5.70101 2 1 6.70101 1 12.5C1 18.299 5.70101 23 11.5 23H36.5C42.299 23 47 18.299 47 12.5Z" stroke="#855B5B" stroke-opacity="0.3" stroke-width="2" stroke-linecap="round" stroke-linejoin="round"/>
<g filter="url(#filter1_d_1512_10959)">
<circle cx="13" cy="13" r="12" transform="matrix(-1 0 0 1 26 0)" fill="#C9C9C9" stroke="#626262" stroke-width="2"/>
</g>
<defs>
<filter id="filter0_i_1512_10959" x="0" y="1" width="48" height="23" filterUnits="userSpaceOnUse" color-interpolation-filters="sRGB">
<feFlood flood-opacity="0" result="BackgroundImageFix"/>
<feBlend mode="normal" in="SourceGraphic" in2="BackgroundImageFix" result="shape"/>
<feColorMatrix in="SourceAlpha" type="matrix" values="0 0 0 0 0 0 0 0 0 0 0 0 0 0 0 0 0 0 127 0" result="hardAlpha"/>
<feOffset dx="5" dy="5"/>
<feComposite in2="hardAlpha" operator="arithmetic" k2="-1" k3="1"/>
<feColorMatrix type="matrix" values="0 0 0 0 0 0 0 0 0 0 0 0 0 0 0 0 0 0 0.25 0"/>
<feBlend mode="normal" in2="shape" result="effect1_innerShadow_1512_10959"/>
</filter>
<filter id="filter1_d_1512_10959" x="0" y="0" width="26" height="30" filterUnits="userSpaceOnUse" color-interpolation-filters="sRGB">
<feFlood flood-opacity="0" result="BackgroundImageFix"/>
<feColorMatrix in="SourceAlpha" type="matrix" values="0 0 0 0 0 0 0 0 0 0 0 0 0 0 0 0 0 0 127 0" result="hardAlpha"/>
<feOffset dy="4"/>
<feComposite in2="hardAlpha" operator="out"/>
<feColorMatrix type="matrix" values="0 0 0 0 0 0 0 0 0 0 0 0 0 0 0 0 0 0 0.25 0"/>
<feBlend mode="normal" in2="BackgroundImageFix" result="effect1_dropShadow_1512_10959"/>
<feBlend mode="normal" in="SourceGraphic" in2="effect1_dropShadow_1512_10959" result="shape"/>
</filter>
</defs>
</svg>
