<svg width="366" height="68" viewBox="0 0 366 68" fill="none" xmlns="http://www.w3.org/2000/svg">
  <g filter="url(#filter0_i_0_1)">
    <path d="M285.617 29C278.539 29 275.59 33.1279 275 35.1919C275.442 40.2044 277.123 50.5832 280.309 51.9985C283.494 53.4138 285.175 51.4088 285.617 50.2294C288.803 51.9985 290.189 49.4923 290.484 48.018C291.516 49.1974 294.111 50.4948 296.235 46.2489C298.889 40.9415 294.465 29 285.617 29Z" fill="#B9BFBE"/>
  </g>
  <path d="M285.617 29C278.539 29 275.59 33.1279 275 35.1919C275.442 40.2044 277.123 50.5832 280.309 51.9985C283.494 53.4138 285.175 51.4088 285.617 50.2294C288.803 51.9985 290.189 49.4923 290.484 48.018C291.516 49.1974 294.111 50.4948 296.235 46.2489C298.889 40.9415 294.465 29 285.617 29Z" stroke="#4B371F" stroke-linecap="round"/>
  <path d="M280.5 45.3378L278.5 38.7006C280.833 37.3391 285.9 35.7394 287.5 40.2323C289.1 44.7251 283.5 45.5079 280.5 45.3378Z" fill="#67696A" stroke="#4B371F" stroke-linecap="round"/>
  <g filter="url(#filter1_i_0_1)">
    <path d="M230.865 29C237.622 29 240.437 32.9485 241 34.9227C240.578 39.7173 238.973 49.6448 235.933 50.9986C232.892 52.3523 231.287 50.4345 230.865 49.3064C227.825 50.9986 226.502 48.6013 226.22 47.1911C225.235 48.3193 222.757 49.5602 220.73 45.4989C218.197 40.4223 222.419 29 230.865 29Z" fill="#B9BFBE"/>
  </g>
  <path d="M230.865 29C237.622 29 240.437 32.9485 241 34.9227C240.578 39.7173 238.973 49.6448 235.933 50.9986C232.892 52.3523 231.287 50.4345 230.865 49.3064C227.825 50.9986 226.502 48.6013 226.22 47.1911C225.235 48.3193 222.757 49.5602 220.73 45.4989C218.197 40.4223 222.419 29 230.865 29Z" stroke="#4B371F" stroke-linecap="round"/>
  <path d="M236.365 45.3378L238.365 38.7006C236.031 37.3391 230.965 35.7394 229.365 40.2323C227.765 44.7251 233.365 45.5079 236.365 45.3378Z" fill="#67696A" stroke="#4B371F" stroke-linecap="round"/>
  <mask id="path-5-outside-1_0_1" maskUnits="userSpaceOnUse" x="229" y="29" width="59" height="34" fill="black">
    <rect fill="white" x="229" y="29" width="59" height="34"/>
    <path d="M258.5 30C242.76 30 230 36.9275 230 58.4887C230 60.2671 231.481 61.6541 233.26 61.6541H283.74C285.519 61.6541 287 60.2671 287 58.4887C287 36.9275 274.24 30 258.5 30Z"/>
  </mask>
  <g filter="url(#filter2_i_0_1)">
    <path d="M258.5 30C242.76 30 230 36.9275 230 58.4887C230 60.2671 231.481 61.6541 233.26 61.6541H283.74C285.519 61.6541 287 60.2671 287 58.4887C287 36.9275 274.24 30 258.5 30Z" fill="#BFBFBF"/>
  </g>
  <path d="M231 58.4887C231 47.9104 234.122 41.1033 238.999 36.9177C243.904 32.7072 250.755 31 258.5 31V29C250.505 29 243.106 30.7565 237.696 35.4001C232.257 40.0685 229 47.5058 229 58.4887H231ZM258.5 31C266.245 31 273.096 32.7072 278.001 36.9177C282.878 41.1033 286 47.9104 286 58.4887H288C288 47.5058 284.743 40.0685 279.304 35.4001C273.894 30.7565 266.495 29 258.5 29V31ZM233.26 62.6541H283.74V60.6541H233.26V62.6541ZM286 58.4887C286 59.677 285.005 60.6541 283.74 60.6541V62.6541C286.033 62.6541 288 60.8572 288 58.4887H286ZM229 58.4887C229 60.8572 230.967 62.6541 233.26 62.6541V60.6541C231.995 60.6541 231 59.677 231 58.4887H229Z" fill="#4B371F" mask="url(#path-5-outside-1_0_1)"/>
  <ellipse cx="3.87043" cy="4.97186" rx="3.87043" ry="4.97186" transform="matrix(-0.986616 0.16306 0.16306 0.986616 273.637 40)" fill="#4B371F"/>
  <ellipse cx="247.63" cy="45.5364" rx="3.87043" ry="4.97186" transform="rotate(9.38454 247.63 45.5364)" fill="#4B371F"/>
  <ellipse cx="271.624" cy="44.5372" rx="1.44742" ry="1.34526" transform="rotate(-8.16564 271.624 44.5372)" fill="white"/>
  <ellipse cx="248.624" cy="44.5372" rx="1.44742" ry="1.34526" transform="rotate(-8.16564 248.624 44.5372)" fill="white"/>
  <path d="M265.5 55.4597C265.5 51.5955 264.673 48.1219 263.361 45.6326C262.037 43.1203 260.293 41.7323 258.5 41.7323C256.707 41.7323 254.963 43.1203 253.639 45.6326C252.327 48.1219 251.5 51.5955 251.5 55.4597C251.5 58.4749 252.313 59.7999 253.444 60.4457C254.039 60.7848 254.77 60.9672 255.634 61.0604C256.5 61.1537 257.458 61.1543 258.5 61.1543C259.542 61.1543 260.5 61.1537 261.366 61.0604C262.23 60.9672 262.961 60.7848 263.556 60.4457C264.687 59.7999 265.5 58.4749 265.5 55.4597Z" fill="#67696A" stroke="#4B371F"/>
  <path d="M254.904 43.7192C252.89 46.1151 251.5 50.4468 251.5 55.4597C251.5 58.4749 252.313 59.7999 253.444 60.4457C254.039 60.7848 254.77 60.9672 255.634 61.0604C256.491 61.1528 257.438 61.1543 258.468 61.1543C258.469 61.1531 258.47 61.1519 258.472 61.1505C258.501 61.1212 258.542 61.0615 258.574 60.9717C258.606 60.8838 258.622 60.7912 258.62 60.7139C258.619 60.6417 258.604 60.61 258.602 60.6058C258.602 60.6052 258.602 60.6051 258.602 60.6055C257.551 59.0442 257.091 56.6093 256.951 53.9882C256.81 51.3438 256.992 48.4172 257.296 45.7996C257.42 44.7283 257.031 43.8294 256.528 43.4118C256.283 43.209 256.028 43.1292 255.785 43.1563C255.542 43.1834 255.233 43.3269 254.904 43.7192Z" fill="#4E4E4E" stroke="#4B371F"/>
  <g filter="url(#filter3_i_0_1)">
    <path d="M237 61.1435C237 64.8091 233.866 65.2279 230 65.2279C226.134 65.2279 223 64.8091 223 61.1435C223 57.4779 226.134 54.5063 230 54.5063C233.866 54.5063 237 57.4779 237 61.1435Z" fill="#B9BFBE"/>
  </g>
  <path d="M236.5 61.1435C236.5 61.9881 236.32 62.6025 236.028 63.059C235.738 63.5143 235.311 63.8528 234.747 64.1034C233.589 64.6176 231.942 64.7279 230 64.7279C228.058 64.7279 226.411 64.6176 225.253 64.1034C224.689 63.8528 224.262 63.5143 223.972 63.059C223.68 62.6025 223.5 61.9881 223.5 61.1435C223.5 57.7788 226.385 55.0063 230 55.0063C233.615 55.0063 236.5 57.7788 236.5 61.1435Z" stroke="#4B371F"/>
  <g filter="url(#filter4_i_0_1)">
    <path d="M294 61.1435C294 64.8091 290.866 65.2279 287 65.2279C283.134 65.2279 280 64.8091 280 61.1435C280 57.4779 283.134 54.5063 287 54.5063C290.866 54.5063 294 57.4779 294 61.1435Z" fill="#B9BFBE"/>
  </g>
  <path d="M293.5 61.1435C293.5 61.9881 293.32 62.6025 293.028 63.059C292.738 63.5143 292.311 63.8528 291.747 64.1034C290.589 64.6176 288.942 64.7279 287 64.7279C285.058 64.7279 283.411 64.6176 282.253 64.1034C281.689 63.8528 281.262 63.5143 280.972 63.059C280.68 62.6025 280.5 61.9881 280.5 61.1435C280.5 57.7788 283.385 55.0063 287 55.0063C290.615 55.0063 293.5 57.7788 293.5 61.1435Z" stroke="#4B371F"/>
  <path d="M239 51.064C242 49.064 246.5 50.064 248 52.5638" stroke="#4B371F" stroke-linecap="round"/>
  <path d="M278 51.064C275 49.064 270.5 50.064 269 52.5638" stroke="#4B371F" stroke-linecap="round"/>
  <ellipse cx="46.6724" cy="9.39798" rx="8.39798" ry="8.39798" fill="#E49F63"/>
  <path d="M38.2744 9.39797C38.2744 4.7599 42.0343 1 46.6724 1C51.3105 1 55.0704 4.7599 55.0704 9.39797C55.0704 11.5828 54.236 13.5727 52.8686 15.0666" stroke="#4B371F"/>
  <circle cx="46.6731" cy="9.81808" r="5.03878" fill="#FABEBE" stroke="#4B371F"/>
  <g filter="url(#filter5_i_0_1)">
    <path d="M5.34076 53.4885C-3.26698 43.8309 2.6544 31.8627 8.25305 22.205C11.6609 16.3265 21.5004 8.41829 35.9663 9.18903C55.7016 10.2405 62.8395 26.4051 65.149 40.2617C66.8286 41.2415 71.0275 43.411 69.7678 50.1293C68.5081 56.8477 60.3481 61.6765 45.0218 61.6765C29.6955 61.6765 13.9485 63.1462 5.34076 53.4885Z" fill="#E49F63"/>
  </g>
  <path d="M65.149 40.2617C66.8286 41.2415 71.0275 43.411 69.7678 50.1293C68.5081 56.8477 60.3481 61.6765 45.0218 61.6765C29.6955 61.6765 13.9485 63.1462 5.34076 53.4885C-3.26698 43.8309 2.6544 31.8627 8.25305 22.205C11.6609 16.3265 21.5004 8.41829 35.9663 9.18903C55.7016 10.2405 62.8395 26.4051 65.149 40.2617ZM65.149 40.2617C64.1692 39.8418 60.74 38.7921 58.0107 42.7811M19.38 42.7811C22.3193 42.0113 28.4078 40.2617 33.6565 45.5104" stroke="#4B371F" stroke-linecap="round"/>
  <ellipse cx="13.29" cy="13.3861" rx="10.2875" ry="10.2875" fill="#E49F63"/>
  <ellipse cx="13.2912" cy="13.3864" rx="5.66863" ry="5.66863" fill="#FABEBE" stroke="#4B371F"/>
  <path d="M23.5775 13.3861C23.5775 7.70451 18.9716 3.09863 13.29 3.09863C7.60832 3.09863 3.00244 7.70451 3.00244 13.3861C3.00244 19.0678 7.60832 23.6737 13.29 23.6737" stroke="#4B371F"/>
  <ellipse cx="33.1808" cy="37.9909" rx="5.0183" ry="6.4464" transform="rotate(9.38454 33.1808 37.9909)" fill="#4B371F"/>
  <ellipse cx="34.7202" cy="37.2886" rx="1.59204" ry="2.04509" transform="rotate(9.38454 34.7202 37.2886)" fill="white"/>
  <ellipse cx="4.25713" cy="5.46861" rx="4.25713" ry="5.46861" transform="matrix(-0.986616 0.16306 0.16306 0.986616 59.6919 30.3926)" fill="#4B371F"/>
  <path d="M32.9332 34.5252C34.4456 34.7751 35.8943 34.6722 37.0206 34.2794C38.1265 33.8937 39.0427 33.1764 39.2168 32.1225C39.391 31.0686 38.7544 30.0947 37.8313 29.3737C36.8913 28.6394 35.5528 28.0757 34.0404 27.8258C32.5281 27.5758 31.0794 27.6788 29.9531 28.0716C28.8471 28.4573 27.931 29.1746 27.7568 30.2285C27.5826 31.2824 28.2192 32.2563 29.1423 32.9773C30.0823 33.7116 31.4208 34.2752 32.9332 34.5252Z" fill="#FED2AB" stroke="#4B371F"/>
  <path d="M55.7416 33.3265C57.0158 32.9032 58.0995 32.2314 58.8163 31.4629C59.5184 30.7103 59.9514 29.7623 59.6472 28.847C59.3431 27.9318 58.4289 27.4314 57.4159 27.2487C56.3818 27.062 55.1115 27.1725 53.8374 27.5959C52.5632 28.0192 51.4795 28.691 50.7627 29.4595C50.0606 30.2121 49.6277 31.1601 49.9318 32.0754C50.2359 32.9906 51.1501 33.491 52.1631 33.6737C53.1972 33.8604 54.4675 33.7499 55.7416 33.3265Z" fill="#FED2AB" stroke="#4B371F"/>
  <ellipse cx="56.5173" cy="36.7333" rx="1.59204" ry="2.04509" transform="rotate(-8.16564 56.5173 36.7333)" fill="white"/>
  <g filter="url(#filter6_di_0_1)">
    <ellipse cx="46.6728" cy="44.2516" rx="10.0776" ry="6.29848" fill="#FED2AB"/>
    <path d="M46.6728 51.0501C49.5343 51.0501 52.1487 50.3262 54.0637 49.1293C55.9716 47.9369 57.2504 46.2255 57.2504 44.2516C57.2504 42.2777 55.9716 40.5664 54.0637 39.3739C52.1487 38.1771 49.5343 37.4531 46.6728 37.4531C43.8112 37.4531 41.1968 38.1771 39.2819 39.3739C37.3739 40.5664 36.0952 42.2777 36.0952 44.2516C36.0952 46.2255 37.3739 47.9369 39.2819 49.1293C41.1968 50.3262 43.8112 51.0501 46.6728 51.0501Z" stroke="#4B371F"/>
  </g>
  <path d="M51.1497 39.1265C49.4953 38.8994 46.4969 38.9688 44.6874 39.4102C42.3609 39.9777 46.4969 44.5186 48.8234 43.951C51.1499 43.3834 53.2177 39.4103 51.1497 39.1265Z" fill="#4B371F"/>
  <ellipse cx="48.5" cy="40.5" rx="1.5" ry="0.5" fill="white"/>
  <path d="M48.7287 42.9917C48.9277 44.5048 48.4102 47.8217 47.9326 49.7101" stroke="#4B371F" stroke-linecap="round"/>
  <g filter="url(#filter7_i_0_1)">
    <path d="M22 61.6667C22 66.4531 17.9706 67 13 67C8.02944 67 4 66.4531 4 61.6667C4 56.8802 8.02944 53 13 53C17.9706 53 22 56.8802 22 61.6667Z" fill="#E49F63"/>
  </g>
  <path d="M22 61.6667C22 66.4531 17.9706 67 13 67C8.02944 67 4 66.4531 4 61.6667C4 56.8802 8.02944 53 13 53C17.9706 53 22 56.8802 22 61.6667Z" stroke="#4B371F" stroke-linecap="round"/>
  <g filter="url(#filter8_i_0_1)">
    <path d="M69 61.6667C69 66.4531 64.9706 67 60 67C55.0294 67 51 66.4531 51 61.6667C51 56.8802 55.0294 53 60 53C64.9706 53 69 56.8802 69 61.6667Z" fill="#E49F63"/>
  </g>
  <path d="M69 61.6667C69 66.4531 64.9706 67 60 67C55.0294 67 51 66.4531 51 61.6667C51 56.8802 55.0294 53 60 53C64.9706 53 69 56.8802 69 61.6667Z" stroke="#4B371F" stroke-linecap="round"/>
  <ellipse cx="136.856" cy="36.0559" rx="7.66571" ry="7.66571" transform="rotate(35.0068 136.856 36.0559)" fill="white"/>
  <path d="M130.577 31.6583C133.006 28.1905 137.786 27.3483 141.254 29.777C144.722 32.2057 145.564 36.9858 143.135 40.4535C141.991 42.087 140.325 43.1379 138.521 43.5388" stroke="#4B371F" stroke-linecap="round"/>
  <circle cx="136.637" cy="36.3702" r="4.59942" transform="rotate(35.0068 136.637 36.3702)" fill="#BFBFBF" stroke="#4B371F" stroke-linecap="round"/>
  <ellipse cx="7.66571" cy="7.66571" rx="7.66571" ry="7.66571" transform="matrix(-0.819084 0.573673 0.573673 0.819084 82.5576 25.3794)" fill="white"/>
  <path d="M86.9552 31.6583C84.5265 28.1905 79.7465 27.3483 76.2788 29.777C72.811 32.2057 71.9688 36.9858 74.3975 40.4535C75.5416 42.087 77.2074 43.1379 79.012 43.5388" stroke="#4B371F" stroke-linecap="round"/>
  <circle cx="4.59942" cy="4.59942" r="4.59942" transform="matrix(-0.819084 0.573673 0.573673 0.819084 82.0244 29.9644)" fill="#BFBFBF" stroke="#4B371F" stroke-linecap="round"/>
  <g filter="url(#filter9_i_0_1)">
    <path d="M141 51C141 65.5 126.673 63 109 63C91.3269 63 77 64.5 77 51C77 35.2599 91.3269 16 109 16C126.673 16 141 35.2599 141 51Z" fill="white"/>
  </g>
  <path d="M140.5 51C140.5 54.5423 139.627 56.9716 138.113 58.6583C136.593 60.3519 134.368 61.3651 131.527 61.9477C128.685 62.5306 125.28 62.6719 121.457 62.6641C119.669 62.6604 117.797 62.6243 115.854 62.5868C115.723 62.5843 115.591 62.5817 115.459 62.5792C113.376 62.5392 111.215 62.5 109 62.5C107.346 62.5 105.727 62.513 104.148 62.5257C101.493 62.5471 98.9516 62.5676 96.5533 62.5235C92.7333 62.4534 89.3271 62.2195 86.4831 61.5749C83.6388 60.9302 81.4061 59.8855 79.8825 58.2315C78.3683 56.5878 77.5 54.2826 77.5 51C77.5 43.2692 81.025 34.6308 86.7528 27.9221C92.4791 21.2153 100.351 16.5 109 16.5C117.649 16.5 125.521 21.2153 131.247 27.9221C136.975 34.6308 140.5 43.2692 140.5 51Z" stroke="#4B371F"/>
  <ellipse cx="3.87043" cy="4.97186" rx="3.87043" ry="4.97186" transform="matrix(-0.986616 0.16306 0.16306 0.986616 123.379 35.9092)" fill="#4B371F"/>
  <path d="M120.548 39.2283C121.715 38.9156 122.742 38.4337 123.459 37.8882C123.816 37.6162 124.117 37.3126 124.313 36.9862C124.509 36.6581 124.62 36.2685 124.512 35.8679C124.405 35.4672 124.115 35.185 123.78 34.9991C123.448 34.8142 123.035 34.7018 122.59 34.645C121.696 34.5309 120.566 34.6272 119.399 34.9399C118.231 35.2526 117.204 35.7346 116.487 36.2801C116.13 36.5521 115.829 36.8556 115.633 37.182C115.437 37.5102 115.326 37.8997 115.434 38.3004C115.541 38.7011 115.832 38.9833 116.166 39.1692C116.498 39.3541 116.911 39.4665 117.356 39.5233C118.25 39.6373 119.381 39.541 120.548 39.2283Z" fill="#BFBFBF" stroke="#4B371F"/>
  <ellipse cx="120.566" cy="42.1832" rx="1.44742" ry="1.34526" transform="rotate(-8.16564 120.566 42.1832)" fill="white"/>
  <ellipse cx="97.6295" cy="41.4456" rx="3.87043" ry="4.97186" transform="rotate(9.38454 97.6295 41.4456)" fill="#4B371F"/>
  <path d="M97.4524 39.2283C96.2854 38.9156 95.258 38.4337 94.5412 37.8882C94.1839 37.6162 93.8828 37.3126 93.6873 36.9862C93.4907 36.6581 93.3804 36.2685 93.4878 35.8679C93.5951 35.4672 93.8854 35.185 94.2198 34.9991C94.5523 34.8142 94.9648 34.7018 95.4102 34.645C96.3038 34.5309 97.4345 34.6272 98.6015 34.9399C99.7685 35.2526 100.796 35.7346 101.513 36.2801C101.87 36.5521 102.171 36.8556 102.367 37.182C102.563 37.5102 102.674 37.8997 102.566 38.3004C102.459 38.7011 102.168 38.9833 101.834 39.1692C101.502 39.3541 101.089 39.4665 100.644 39.5233C99.7501 39.6373 98.6194 39.541 97.4524 39.2283Z" fill="#BFBFBF" stroke="#4B371F"/>
  <ellipse cx="1.44742" cy="1.34526" rx="1.44742" ry="1.34526" transform="matrix(-0.989862 -0.142035 -0.142035 0.989862 99.0586 41.0571)" fill="white"/>
  <path d="M89 46.064C92 44.064 96.5 45.064 98 47.5638" stroke="#4B371F" stroke-linecap="round"/>
  <path d="M129.5 46.064C126.5 44.064 122 45.064 120.5 47.5638" stroke="#4B371F" stroke-linecap="round"/>
  <g filter="url(#filter10_i_0_1)">
    <path d="M91 61.6667C91 66.4531 86.9706 67 82 67C77.0294 67 73 66.4531 73 61.6667C73 56.8802 77.0294 53 82 53C86.9706 53 91 56.8802 91 61.6667Z" fill="white"/>
  </g>
  <path d="M90.5 61.6667C90.5 62.7929 90.2635 63.6265 89.8694 64.2532C89.4766 64.878 88.9023 65.3367 88.1583 65.6725C86.6403 66.3576 84.4938 66.5 82 66.5C79.5062 66.5 77.3597 66.3576 75.8417 65.6725C75.0977 65.3367 74.5234 64.878 74.1306 64.2532C73.7365 63.6265 73.5 62.7929 73.5 61.6667C73.5 57.174 77.2876 53.5 82 53.5C86.7124 53.5 90.5 57.174 90.5 61.6667Z" stroke="#4B371F"/>
  <g filter="url(#filter11_i_0_1)">
    <path d="M147 61.6667C147 66.4531 142.971 67 138 67C133.029 67 129 66.4531 129 61.6667C129 56.8802 133.029 53 138 53C142.971 53 147 56.8802 147 61.6667Z" fill="white"/>
  </g>
  <path d="M146.5 61.6667C146.5 62.7929 146.263 63.6265 145.869 64.2532C145.477 64.878 144.902 65.3367 144.158 65.6725C142.64 66.3576 140.494 66.5 138 66.5C135.506 66.5 133.36 66.3576 131.842 65.6725C131.098 65.3367 130.523 64.878 130.131 64.2532C129.737 63.6265 129.5 62.7929 129.5 61.6667C129.5 57.174 133.288 53.5 138 53.5C142.712 53.5 146.5 57.174 146.5 61.6667Z" stroke="#4B371F"/>
  <g filter="url(#filter12_i_0_1)">
    <path d="M159 18.2489C154.6 20.2484 154.5 34.4155 155 41.2489L171 24.7487C169.5 21.4153 162 16.8856 159 18.2489Z" fill="white"/>
  </g>
  <path d="M159 18.2489C154.6 20.2484 154.5 34.4155 155 41.2489L171 24.7487C169.5 21.4153 162 16.8856 159 18.2489Z" stroke="#4B371F"/>
  <path d="M161.557 25.3454C159.928 26.1194 159.891 31.6037 160.076 34.249L166 27.8615C165.445 26.5711 162.668 24.8176 161.557 25.3454Z" fill="#844C33" stroke="#4B371F"/>
  <g filter="url(#filter13_i_0_1)">
    <path d="M209 18.2489C213.4 20.2484 213.5 34.4155 213 41.2489L197 24.7487C198.5 21.4153 206 16.8856 209 18.2489Z" fill="white"/>
  </g>
  <path d="M209 18.2489C213.4 20.2484 213.5 34.4155 213 41.2489L197 24.7487C198.5 21.4153 206 16.8856 209 18.2489Z" stroke="#4B371F"/>
  <path d="M206.443 25.3454C208.072 26.1194 208.109 31.6037 207.924 34.249L202 27.8615C202.555 26.5711 205.332 24.8176 206.443 25.3454Z" fill="#844C33" stroke="#4B371F"/>
  <g filter="url(#filter14_i_0_1)">
    <path d="M216 51C216 65.5 201.673 63 184 63C166.327 63 152 64.5 152 51C152 35.2599 166.327 21 184 21C201.673 21 216 35.2599 216 51Z" fill="#FF9136"/>
  </g>
  <path d="M215.5 51C215.5 54.5423 214.627 56.9716 213.113 58.6583C211.593 60.3519 209.368 61.3651 206.527 61.9477C203.685 62.5306 200.28 62.6719 196.457 62.6641C194.669 62.6604 192.797 62.6243 190.854 62.5868C190.723 62.5843 190.591 62.5817 190.459 62.5792C188.376 62.5392 186.215 62.5 184 62.5C182.346 62.5 180.727 62.513 179.148 62.5257C176.493 62.5471 173.952 62.5676 171.553 62.5235C167.733 62.4534 164.327 62.2195 161.483 61.5749C158.639 60.9302 156.406 59.8855 154.882 58.2315C153.368 56.5878 152.5 54.2826 152.5 51C152.5 35.5573 166.581 21.5 184 21.5C201.419 21.5 215.5 35.5573 215.5 51Z" stroke="#4B371F"/>
  <ellipse cx="3.87043" cy="4.97186" rx="3.87043" ry="4.97186" transform="matrix(-0.986616 0.16306 0.16306 0.986616 200.637 38.1533)" fill="#4B371F"/>
  <path d="M196.551 36.1271C197.331 35.9183 198.003 35.5168 198.454 35.0108C198.902 34.5086 199.171 33.8493 198.991 33.1753C198.81 32.5012 198.247 32.0649 197.609 31.8539C196.965 31.6413 196.182 31.6299 195.402 31.8388C194.622 32.0476 193.95 32.4491 193.499 32.9551C193.051 33.4573 192.782 34.1166 192.962 34.7906C193.143 35.4647 193.706 35.901 194.345 36.112C194.988 36.3246 195.771 36.336 196.551 36.1271Z" fill="white" stroke="#4B371F"/>
  <ellipse cx="197.824" cy="44.4273" rx="1.44742" ry="1.34526" transform="rotate(-8.16564 197.824 44.4273)" fill="white"/>
  <ellipse cx="170.63" cy="43.6902" rx="3.87043" ry="4.97186" transform="rotate(9.38454 170.63 43.6902)" fill="#4B371F"/>
  <path d="M172.516 36.0964C171.709 35.8802 171.011 35.4738 170.539 34.9658C170.072 34.4636 169.779 33.7981 169.962 33.1138C170.145 32.4295 170.733 32.0001 171.387 31.7984C172.05 31.5943 172.858 31.5918 173.666 31.808C174.473 32.0243 175.171 32.4307 175.643 32.9387C176.109 33.4409 176.403 34.1064 176.22 34.7906C176.037 35.4749 175.449 35.9043 174.794 36.1061C174.132 36.3102 173.324 36.3127 172.516 36.0964Z" fill="white" stroke="#4B371F"/>
  <ellipse cx="1.44742" cy="1.34526" rx="1.44742" ry="1.34526" transform="matrix(-0.989862 -0.142035 -0.142035 0.989862 172.059 43.3018)" fill="white"/>
  <path d="M196.5 50.5C196.5 55.9284 191.009 60.5 184 60.5C176.991 60.5 171.5 55.9284 171.5 50.5C171.5 45.0716 176.991 40.5 184 40.5C191.009 40.5 196.5 45.0716 196.5 50.5Z" fill="white" stroke="#4B371F"/>
  <mask id="path-73-inside-2_0_1" fill="white">
    <path fill-rule="evenodd" clip-rule="evenodd" d="M171.732 47.0178C173.51 42.9303 178.331 40 184 40C190.101 40 195.22 43.3945 196.621 47.9727C197.243 47.8021 197.852 47.6306 198.449 47.4627C206.184 45.2856 211.757 43.7172 215 52.4257C215 63.3761 203.218 63.1654 189.961 62.9283C187.995 62.8931 185.997 62.8574 184 62.8574C182.583 62.8574 181.165 62.8684 179.759 62.8792C165.819 62.9869 153 63.0859 153 52.4258C155.65 44.1524 160.881 44.4378 171.732 47.0178Z"/>
  </mask>
  <path fill-rule="evenodd" clip-rule="evenodd" d="M171.732 47.0178C173.51 42.9303 178.331 40 184 40C190.101 40 195.22 43.3945 196.621 47.9727C197.243 47.8021 197.852 47.6306 198.449 47.4627C206.184 45.2856 211.757 43.7172 215 52.4257C215 63.3761 203.218 63.1654 189.961 62.9283C187.995 62.8931 185.997 62.8574 184 62.8574C182.583 62.8574 181.165 62.8684 179.759 62.8792C165.819 62.9869 153 63.0859 153 52.4258C155.65 44.1524 160.881 44.4378 171.732 47.0178Z" fill="white"/>
  <path d="M171.732 47.0178L171.501 47.9907L172.315 48.1843L172.649 47.4167L171.732 47.0178ZM196.621 47.9727L195.665 48.2653L195.949 49.1941L196.886 48.9371L196.621 47.9727ZM198.449 47.4627L198.178 46.5001L198.449 47.4627ZM215 52.4257H216V52.2456L215.937 52.0767L215 52.4257ZM189.961 62.9283L189.979 61.9285L189.961 62.9283ZM179.759 62.8792L179.767 63.8792H179.767L179.759 62.8792ZM153 52.4258L152.048 52.1207L152 52.2695V52.4258H153ZM172.649 47.4167C174.236 43.7686 178.642 41 184 41V39C178.021 39 172.785 42.092 170.815 46.6188L172.649 47.4167ZM184 41C189.778 41 194.424 44.2089 195.665 48.2653L197.577 47.6802C196.017 42.5801 190.424 39 184 39V41ZM196.886 48.9371C197.511 48.7654 198.124 48.5931 198.72 48.4253L198.178 46.5001C197.581 46.6681 196.975 46.8387 196.356 47.0084L196.886 48.9371ZM198.72 48.4253C200.664 47.878 202.419 47.3849 204.03 47.0773C205.64 46.7699 207.036 46.6631 208.257 46.8505C209.456 47.0344 210.506 47.5038 211.445 48.3955C212.399 49.3014 213.286 50.6878 214.063 52.7747L215.937 52.0767C215.093 49.8094 214.066 48.1261 212.822 46.9449C211.563 45.7495 210.128 45.1141 208.561 44.8737C207.017 44.6368 205.367 44.786 203.655 45.1128C201.943 45.4396 200.101 45.9589 198.178 46.5001L198.72 48.4253ZM214 52.4257C214 54.9738 213.32 56.7659 212.196 58.0656C211.057 59.3819 209.373 60.2969 207.183 60.9092C202.753 62.1474 196.664 62.048 189.979 61.9285L189.944 63.9281C196.515 64.0457 202.945 64.1702 207.721 62.8354C210.133 62.1612 212.223 61.0905 213.708 59.374C215.207 57.6408 216 55.3528 216 52.4257H214ZM189.979 61.9285C188.015 61.8933 186.008 61.8574 184 61.8574V63.8574C185.987 63.8574 187.976 63.893 189.944 63.9281L189.979 61.9285ZM184 61.8574C182.578 61.8574 181.157 61.8684 179.751 61.8792L179.767 63.8792C181.174 63.8683 182.587 63.8574 184 63.8574V61.8574ZM179.751 61.8792C172.731 61.9335 166.195 61.9761 161.405 60.723C159.027 60.1008 157.187 59.1837 155.944 57.8812C154.727 56.6047 154 54.8713 154 52.4258H152C152 55.3103 152.876 57.5621 154.497 59.2617C156.094 60.9355 158.33 61.9857 160.899 62.6579C166.003 63.9933 172.847 63.9326 179.767 63.8792L179.751 61.8792ZM153.952 52.7308C154.588 50.7473 155.351 49.3645 156.247 48.4133C157.128 47.4782 158.182 46.9114 159.5 46.6297C162.236 46.0447 166.03 46.6898 171.501 47.9907L171.963 46.0449C166.584 44.7658 162.336 43.9781 159.082 44.6738C157.404 45.0324 155.976 45.7843 154.791 47.042C153.622 48.2835 152.737 49.9676 152.048 52.1207L153.952 52.7308Z" fill="#4B371F" mask="url(#path-73-inside-2_0_1)"/>
  <mask id="path-75-inside-3_0_1" fill="white">
    <path fill-rule="evenodd" clip-rule="evenodd" d="M201.268 62.8304C203.004 60.3854 204 57.5386 204 54.5001C204 51.6424 203.119 48.9544 201.57 46.6107C200.572 46.8651 199.532 47.158 198.449 47.4628C194.258 48.6421 189.433 50.0001 184 50.0001C181.157 49.3441 178.559 48.6987 176.183 48.1086C172.599 47.2184 169.522 46.4541 166.877 45.9692C165.051 48.4585 164 51.378 164 54.5001C164 57.4353 164.929 60.1916 166.558 62.5796C170.538 62.9505 175.086 62.9154 179.759 62.8793C181.165 62.8684 182.583 62.8575 184 62.8575C185.997 62.8575 187.995 62.8932 189.961 62.9284C193.958 62.9998 197.821 63.0689 201.268 62.8304Z"/>
  </mask>
  <path fill-rule="evenodd" clip-rule="evenodd" d="M201.268 62.8304C203.004 60.3854 204 57.5386 204 54.5001C204 51.6424 203.119 48.9544 201.57 46.6107C200.572 46.8651 199.532 47.158 198.449 47.4628C194.258 48.6421 189.433 50.0001 184 50.0001C181.157 49.3441 178.559 48.6987 176.183 48.1086C172.599 47.2184 169.522 46.4541 166.877 45.9692C165.051 48.4585 164 51.378 164 54.5001C164 57.4353 164.929 60.1916 166.558 62.5796C170.538 62.9505 175.086 62.9154 179.759 62.8793C181.165 62.8684 182.583 62.8575 184 62.8575C185.997 62.8575 187.995 62.8932 189.961 62.9284C193.958 62.9998 197.821 63.0689 201.268 62.8304Z" fill="#844C33"/>
  <path d="M201.268 62.8304L201.337 63.828L201.809 63.7953L202.083 63.4095L201.268 62.8304ZM201.57 46.6107L202.404 46.0592L202.012 45.466L201.323 45.6417L201.57 46.6107ZM198.449 47.4628L198.178 46.5002V46.5002L198.449 47.4628ZM184 50.0001L183.775 50.9745L183.886 51.0001H184V50.0001ZM176.183 48.1086L176.424 47.1381L176.183 48.1086ZM166.877 45.9692L167.057 44.9856L166.441 44.8727L166.071 45.3778L166.877 45.9692ZM166.558 62.5796L165.732 63.143L165.997 63.5316L166.465 63.5753L166.558 62.5796ZM179.759 62.8793L179.767 63.8792L179.759 62.8793ZM189.961 62.9284L189.979 61.9285L189.961 62.9284ZM203 54.5001C203 57.3131 202.08 59.9602 200.452 62.2513L202.083 63.4095C203.929 60.8106 205 57.7642 205 54.5001H203ZM200.736 47.1622C202.186 49.3556 203 51.8539 203 54.5001H205C205 51.4309 204.053 48.5532 202.404 46.0592L200.736 47.1622ZM198.72 48.4254C199.805 48.1199 200.833 47.8305 201.817 47.5797L201.323 45.6417C200.311 45.8997 199.258 46.1961 198.178 46.5002L198.72 48.4254ZM184 51.0001C189.59 51.0001 194.54 49.6018 198.72 48.4254L198.178 46.5002C193.977 47.6825 189.277 49.0001 184 49.0001V51.0001ZM175.942 49.0791C178.317 49.6691 180.923 50.3164 183.775 50.9745L184.225 49.0257C181.391 48.3718 178.8 47.7284 176.424 47.1381L175.942 49.0791ZM166.697 46.9528C169.304 47.4309 172.348 48.1865 175.942 49.0791L176.424 47.1381C172.85 46.2504 169.739 45.4773 167.057 44.9856L166.697 46.9528ZM165 54.5001C165 51.61 165.971 48.8947 167.683 46.5607L166.071 45.3778C164.131 48.0224 163 51.146 163 54.5001H165ZM167.384 62.0161C165.859 59.78 165 57.2178 165 54.5001H163C163 57.6528 163.999 60.6031 165.732 63.143L167.384 62.0161ZM179.751 61.8793C175.064 61.9155 170.571 61.9492 166.651 61.5839L166.465 63.5753C170.506 63.9518 175.107 63.9152 179.767 63.8792L179.751 61.8793ZM184 61.8575C182.578 61.8575 181.157 61.8684 179.751 61.8793L179.767 63.8792C181.174 63.8684 182.587 63.8575 184 63.8575V61.8575ZM189.979 61.9285C188.015 61.8934 186.008 61.8575 184 61.8575V63.8575C185.987 63.8575 187.976 63.893 189.943 63.9282L189.979 61.9285ZM201.199 61.8328C197.804 62.0677 193.987 62.0002 189.979 61.9285L189.943 63.9282C193.929 63.9995 197.838 64.0701 201.337 63.828L201.199 61.8328Z" fill="#4B371F" mask="url(#path-75-inside-3_0_1)"/>
  <g filter="url(#filter15_di_0_1)">
    <ellipse cx="184" cy="50.5" rx="13" ry="10.5" fill="white"/>
    <path d="M184 61.5C191.351 61.5 197.5 56.6696 197.5 50.5C197.5 44.3304 191.351 39.5 184 39.5C176.649 39.5 170.5 44.3304 170.5 50.5C170.5 56.6696 176.649 61.5 184 61.5Z" stroke="#4B371F"/>
  </g>
  <path d="M187.459 43.2351C185.501 42.9665 181.954 43.0485 179.813 43.5708C177.061 44.2422 181.954 49.6143 184.706 48.9428C187.459 48.2713 189.905 43.5708 187.459 43.2351Z" fill="#4B371F"/>
  <ellipse cx="183.775" cy="44.8601" rx="1.7746" ry="0.591533" fill="white"/>
  <path d="M184 47.8081L184 56" stroke="#4B371F" stroke-linecap="round"/>
  <g filter="url(#filter16_i_0_1)">
    <path d="M166 61.6667C166 66.4531 161.971 67 157 67C152.029 67 148 66.4531 148 61.6667C148 56.8802 152.029 53 157 53C161.971 53 166 56.8802 166 61.6667Z" fill="#FF9136"/>
  </g>
  <path d="M166 61.6667C166 66.4531 161.971 67 157 67C152.029 67 148 66.4531 148 61.6667C148 56.8802 152.029 53 157 53C161.971 53 166 56.8802 166 61.6667Z" stroke="#4B371F" stroke-linecap="round"/>
  <g filter="url(#filter17_i_0_1)">
    <path d="M222 61.6667C222 66.4531 217.971 67 213 67C208.029 67 204 66.4531 204 61.6667C204 56.8802 208.029 53 213 53C217.971 53 222 56.8802 222 61.6667Z" fill="#FF9136"/>
  </g>
  <path d="M222 61.6667C222 66.4531 217.971 67 213 67C208.029 67 204 66.4531 204 61.6667C204 56.8802 208.029 53 213 53C217.971 53 222 56.8802 222 61.6667Z" stroke="#4B371F" stroke-linecap="round"/>
  <ellipse cx="8.39798" cy="8.39798" rx="8.39798" ry="8.39798" transform="matrix(-1 0 0 1 328.726 1)" fill="#2C241B"/>
  <path d="M328.726 9.39797C328.726 4.7599 324.966 1 320.328 1C315.69 1 311.93 4.7599 311.93 9.39797C311.93 11.5828 312.764 13.5727 314.131 15.0666" stroke="#4B371F"/>
  <g filter="url(#filter18_i_0_1)">
    <path d="M361.659 53.4885C370.267 43.8309 364.346 31.8627 358.747 22.205C355.339 16.3265 345.5 8.41829 331.034 9.18903C311.298 10.2405 304.16 26.4051 301.851 40.2617C300.171 41.2415 295.972 43.411 297.232 50.1293C298.492 56.8477 306.652 61.6765 321.978 61.6765C337.304 61.6765 353.051 63.1462 361.659 53.4885Z" fill="white"/>
  </g>
  <path d="M302.344 40.3439L302.306 40.5754L302.103 40.6936C302.048 40.7258 301.99 40.759 301.931 40.7934C301.072 41.2907 299.807 42.0229 298.843 43.339C297.83 44.722 297.117 46.8009 297.724 50.0372C298.317 53.2045 300.542 55.9784 304.553 57.9747C308.573 59.9752 314.36 61.1765 321.978 61.1765C323.787 61.1765 325.597 61.1968 327.396 61.2169C333.256 61.2823 339.008 61.3466 344.278 60.7078C351.154 59.8744 357.099 57.8531 361.286 53.1558C365.461 48.4716 366.121 43.2376 365.041 37.9468C363.954 32.6286 361.114 27.285 358.314 22.4558C354.996 16.7314 345.329 8.92808 331.06 9.68832C321.346 10.2059 314.76 14.4328 310.304 20.2282C305.834 26.0423 303.492 33.4575 302.344 40.3439Z" stroke="#4B371F"/>
  <ellipse cx="10.2875" cy="10.2875" rx="10.2875" ry="10.2875" transform="matrix(-1 0 0 1 363.998 3.09863)" fill="#2C241B"/>
  <path d="M343.423 13.3861C343.423 7.70451 348.028 3.09863 353.71 3.09863C359.392 3.09863 363.998 7.70451 363.998 13.3861C363.998 19.0678 359.392 23.6737 353.71 23.6737" stroke="#4B371F"/>
  <path d="M318 61.6667C318 66.4531 313.971 67 309 67C304.029 67 300 66.4531 300 61.6667C300 56.8802 304.029 53 309 53C313.971 53 318 56.8802 318 61.6667Z" fill="#2C241B" stroke="#2C241B" stroke-linecap="round"/>
  <path d="M365 61.6667C365 66.4531 360.971 67 356 67C351.029 67 347 66.4531 347 61.6667C347 56.8802 351.029 53 356 53C360.971 53 365 56.8802 365 61.6667Z" fill="#2C241B" stroke="#2C241B" stroke-linecap="round"/>
  <ellipse cx="6.0568" cy="8.30819" rx="6.0568" ry="8.30819" transform="matrix(0.794831 0.60683 -0.590792 0.806824 309.817 27)" fill="#2C241B"/>
  <ellipse cx="310.68" cy="35.9103" rx="2.29159" ry="2.571" transform="rotate(9.38454 310.68 35.9103)" fill="white"/>
  <ellipse cx="1.39771" cy="1.37946" rx="1.39771" ry="1.37946" transform="matrix(-0.989862 -0.142035 -0.142035 0.989862 311.277 35.397)" fill="#2C241B"/>
  <ellipse cx="6.71117" cy="9.2058" rx="6.71117" ry="9.2058" transform="matrix(-0.794831 0.60683 0.590792 0.806824 334.668 27)" fill="#2C241B"/>
  <ellipse cx="2.75949" cy="2.97308" rx="2.75949" ry="2.97308" transform="matrix(-0.986616 0.16306 0.16306 0.986616 335.927 33.5596)" fill="white"/>
  <ellipse cx="331.747" cy="37.7145" rx="1.54872" ry="1.50988" transform="rotate(-8.16564 331.747 37.7145)" fill="#2C241B"/>
  <g filter="url(#filter19_di_0_1)">
    <ellipse cx="10.6728" cy="6.67049" rx="10.6728" ry="6.67049" transform="matrix(-1 0 0 1 331 37.5811)" fill="white"/>
    <path d="M320.327 51.422C317.301 51.422 314.538 50.6565 312.515 49.3923C310.5 48.1325 309.154 46.3282 309.154 44.2515C309.154 42.1749 310.5 40.3706 312.515 39.1108C314.538 37.8466 317.301 37.0811 320.327 37.0811C323.353 37.0811 326.116 37.8466 328.139 39.1108C330.155 40.3706 331.5 42.1749 331.5 44.2515C331.5 46.3282 330.155 48.1325 328.139 49.3923C326.116 50.6565 323.353 51.422 320.327 51.422Z" stroke="#4B371F"/>
  </g>
  <path d="M315.586 38.8239C317.338 38.5834 320.513 38.6569 322.43 39.1244C324.894 39.7254 320.513 44.5345 318.049 43.9334C315.585 43.3322 313.396 39.1244 315.586 38.8239Z" fill="#4B371F"/>
  <ellipse cx="1.5886" cy="0.529532" rx="1.5886" ry="0.529532" transform="matrix(-1 0 0 1 319.98 39.749)" fill="white"/>
  <path d="M318.15 42.917C317.939 44.5195 318.487 48.0322 318.993 50.0322" stroke="#4B371F" stroke-linecap="round"/>
  <defs>
    <filter id="filter0_i_0_1" x="274.494" y="28.5" width="23.0063" height="24.4854" filterUnits="userSpaceOnUse" color-interpolation-filters="sRGB">
      <feFlood flood-opacity="0" result="BackgroundImageFix"/>
      <feBlend mode="normal" in="SourceGraphic" in2="BackgroundImageFix" result="shape"/>
      <feColorMatrix in="SourceAlpha" type="matrix" values="0 0 0 0 0 0 0 0 0 0 0 0 0 0 0 0 0 0 127 0" result="hardAlpha"/>
      <feOffset dx="4" dy="-4"/>
      <feComposite in2="hardAlpha" operator="arithmetic" k2="-1" k3="1"/>
      <feColorMatrix type="matrix" values="0 0 0 0 0 0 0 0 0 0 0 0 0 0 0 0 0 0 0.25 0"/>
      <feBlend mode="normal" in2="shape" result="effect1_innerShadow_0_1"/>
    </filter>
    <filter id="filter1_i_0_1" x="219.5" y="28.5" width="22.0063" height="23.4644" filterUnits="userSpaceOnUse" color-interpolation-filters="sRGB">
      <feFlood flood-opacity="0" result="BackgroundImageFix"/>
      <feBlend mode="normal" in="SourceGraphic" in2="BackgroundImageFix" result="shape"/>
      <feColorMatrix in="SourceAlpha" type="matrix" values="0 0 0 0 0 0 0 0 0 0 0 0 0 0 0 0 0 0 127 0" result="hardAlpha"/>
      <feOffset dx="4" dy="-4"/>
      <feComposite in2="hardAlpha" operator="arithmetic" k2="-1" k3="1"/>
      <feColorMatrix type="matrix" values="0 0 0 0 0 0 0 0 0 0 0 0 0 0 0 0 0 0 0.25 0"/>
      <feBlend mode="normal" in2="shape" result="effect1_innerShadow_0_1"/>
    </filter>
    <filter id="filter2_i_0_1" x="229" y="29" width="59" height="33.6543" filterUnits="userSpaceOnUse" color-interpolation-filters="sRGB">
      <feFlood flood-opacity="0" result="BackgroundImageFix"/>
      <feBlend mode="normal" in="SourceGraphic" in2="BackgroundImageFix" result="shape"/>
      <feColorMatrix in="SourceAlpha" type="matrix" values="0 0 0 0 0 0 0 0 0 0 0 0 0 0 0 0 0 0 127 0" result="hardAlpha"/>
      <feOffset dx="5" dy="-5"/>
      <feComposite in2="hardAlpha" operator="arithmetic" k2="-1" k3="1"/>
      <feColorMatrix type="matrix" values="0 0 0 0 0 0 0 0 0 0 0 0 0 0 0 0 0 0 0.25 0"/>
      <feBlend mode="normal" in2="shape" result="effect1_innerShadow_0_1"/>
    </filter>
    <filter id="filter3_i_0_1" x="223" y="54.5063" width="14" height="10.7217" filterUnits="userSpaceOnUse" color-interpolation-filters="sRGB">
      <feFlood flood-opacity="0" result="BackgroundImageFix"/>
      <feBlend mode="normal" in="SourceGraphic" in2="BackgroundImageFix" result="shape"/>
      <feColorMatrix in="SourceAlpha" type="matrix" values="0 0 0 0 0 0 0 0 0 0 0 0 0 0 0 0 0 0 127 0" result="hardAlpha"/>
      <feOffset dx="4" dy="-4"/>
      <feComposite in2="hardAlpha" operator="arithmetic" k2="-1" k3="1"/>
      <feColorMatrix type="matrix" values="0 0 0 0 0 0 0 0 0 0 0 0 0 0 0 0 0 0 0.25 0"/>
      <feBlend mode="normal" in2="shape" result="effect1_innerShadow_0_1"/>
    </filter>
    <filter id="filter4_i_0_1" x="280" y="54.5063" width="14" height="10.7217" filterUnits="userSpaceOnUse" color-interpolation-filters="sRGB">
      <feFlood flood-opacity="0" result="BackgroundImageFix"/>
      <feBlend mode="normal" in="SourceGraphic" in2="BackgroundImageFix" result="shape"/>
      <feColorMatrix in="SourceAlpha" type="matrix" values="0 0 0 0 0 0 0 0 0 0 0 0 0 0 0 0 0 0 127 0" result="hardAlpha"/>
      <feOffset dx="4" dy="-4"/>
      <feComposite in2="hardAlpha" operator="arithmetic" k2="-1" k3="1"/>
      <feColorMatrix type="matrix" values="0 0 0 0 0 0 0 0 0 0 0 0 0 0 0 0 0 0 0.25 0"/>
      <feBlend mode="normal" in2="shape" result="effect1_innerShadow_0_1"/>
    </filter>
    <filter id="filter5_i_0_1" x="0.500488" y="8.63672" width="69.9995" height="53.6201" filterUnits="userSpaceOnUse" color-interpolation-filters="sRGB">
      <feFlood flood-opacity="0" result="BackgroundImageFix"/>
      <feBlend mode="normal" in="SourceGraphic" in2="BackgroundImageFix" result="shape"/>
      <feColorMatrix in="SourceAlpha" type="matrix" values="0 0 0 0 0 0 0 0 0 0 0 0 0 0 0 0 0 0 127 0" result="hardAlpha"/>
      <feOffset dx="4" dy="-4"/>
      <feComposite in2="hardAlpha" operator="arithmetic" k2="-1" k3="1"/>
      <feColorMatrix type="matrix" values="0 0 0 0 0 0 0 0 0 0 0 0 0 0 0 0 0 0 0.25 0"/>
      <feBlend mode="normal" in2="shape" result="effect1_innerShadow_0_1"/>
    </filter>
    <filter id="filter6_di_0_1" x="34.5952" y="34.9531" width="23.1553" height="16.5972" filterUnits="userSpaceOnUse" color-interpolation-filters="sRGB">
      <feFlood flood-opacity="0" result="BackgroundImageFix"/>
      <feColorMatrix in="SourceAlpha" type="matrix" values="0 0 0 0 0 0 0 0 0 0 0 0 0 0 0 0 0 0 127 0" result="hardAlpha"/>
      <feOffset dx="-1" dy="-2"/>
      <feComposite in2="hardAlpha" operator="out"/>
      <feColorMatrix type="matrix" values="0 0 0 0 0 0 0 0 0 0 0 0 0 0 0 0 0 0 0.25 0"/>
      <feBlend mode="normal" in2="BackgroundImageFix" result="effect1_dropShadow_0_1"/>
      <feBlend mode="normal" in="SourceGraphic" in2="effect1_dropShadow_0_1" result="shape"/>
      <feColorMatrix in="SourceAlpha" type="matrix" values="0 0 0 0 0 0 0 0 0 0 0 0 0 0 0 0 0 0 127 0" result="hardAlpha"/>
      <feOffset dx="2" dy="-2"/>
      <feComposite in2="hardAlpha" operator="arithmetic" k2="-1" k3="1"/>
      <feColorMatrix type="matrix" values="0 0 0 0 0 0 0 0 0 0 0 0 0 0 0 0 0 0 0.25 0"/>
      <feBlend mode="normal" in2="shape" result="effect2_innerShadow_0_1"/>
    </filter>
    <filter id="filter7_i_0_1" x="3.5" y="52.5" width="19" height="15" filterUnits="userSpaceOnUse" color-interpolation-filters="sRGB">
      <feFlood flood-opacity="0" result="BackgroundImageFix"/>
      <feBlend mode="normal" in="SourceGraphic" in2="BackgroundImageFix" result="shape"/>
      <feColorMatrix in="SourceAlpha" type="matrix" values="0 0 0 0 0 0 0 0 0 0 0 0 0 0 0 0 0 0 127 0" result="hardAlpha"/>
      <feOffset dx="4" dy="-4"/>
      <feComposite in2="hardAlpha" operator="arithmetic" k2="-1" k3="1"/>
      <feColorMatrix type="matrix" values="0 0 0 0 0 0 0 0 0 0 0 0 0 0 0 0 0 0 0.25 0"/>
      <feBlend mode="normal" in2="shape" result="effect1_innerShadow_0_1"/>
    </filter>
    <filter id="filter8_i_0_1" x="50.5" y="52.5" width="19" height="15" filterUnits="userSpaceOnUse" color-interpolation-filters="sRGB">
      <feFlood flood-opacity="0" result="BackgroundImageFix"/>
      <feBlend mode="normal" in="SourceGraphic" in2="BackgroundImageFix" result="shape"/>
      <feColorMatrix in="SourceAlpha" type="matrix" values="0 0 0 0 0 0 0 0 0 0 0 0 0 0 0 0 0 0 127 0" result="hardAlpha"/>
      <feOffset dx="4" dy="-4"/>
      <feComposite in2="hardAlpha" operator="arithmetic" k2="-1" k3="1"/>
      <feColorMatrix type="matrix" values="0 0 0 0 0 0 0 0 0 0 0 0 0 0 0 0 0 0 0.25 0"/>
      <feBlend mode="normal" in2="shape" result="effect1_innerShadow_0_1"/>
    </filter>
    <filter id="filter9_i_0_1" x="77" y="16" width="64" height="47.1646" filterUnits="userSpaceOnUse" color-interpolation-filters="sRGB">
      <feFlood flood-opacity="0" result="BackgroundImageFix"/>
      <feBlend mode="normal" in="SourceGraphic" in2="BackgroundImageFix" result="shape"/>
      <feColorMatrix in="SourceAlpha" type="matrix" values="0 0 0 0 0 0 0 0 0 0 0 0 0 0 0 0 0 0 127 0" result="hardAlpha"/>
      <feOffset dx="4" dy="-4"/>
      <feComposite in2="hardAlpha" operator="arithmetic" k2="-1" k3="1"/>
      <feColorMatrix type="matrix" values="0 0 0 0 0 0 0 0 0 0 0 0 0 0 0 0 0 0 0.25 0"/>
      <feBlend mode="normal" in2="shape" result="effect1_innerShadow_0_1"/>
    </filter>
    <filter id="filter10_i_0_1" x="73" y="53" width="18" height="14" filterUnits="userSpaceOnUse" color-interpolation-filters="sRGB">
      <feFlood flood-opacity="0" result="BackgroundImageFix"/>
      <feBlend mode="normal" in="SourceGraphic" in2="BackgroundImageFix" result="shape"/>
      <feColorMatrix in="SourceAlpha" type="matrix" values="0 0 0 0 0 0 0 0 0 0 0 0 0 0 0 0 0 0 127 0" result="hardAlpha"/>
      <feOffset dx="4" dy="-4"/>
      <feComposite in2="hardAlpha" operator="arithmetic" k2="-1" k3="1"/>
      <feColorMatrix type="matrix" values="0 0 0 0 0 0 0 0 0 0 0 0 0 0 0 0 0 0 0.25 0"/>
      <feBlend mode="normal" in2="shape" result="effect1_innerShadow_0_1"/>
    </filter>
    <filter id="filter11_i_0_1" x="129" y="53" width="18" height="14" filterUnits="userSpaceOnUse" color-interpolation-filters="sRGB">
      <feFlood flood-opacity="0" result="BackgroundImageFix"/>
      <feBlend mode="normal" in="SourceGraphic" in2="BackgroundImageFix" result="shape"/>
      <feColorMatrix in="SourceAlpha" type="matrix" values="0 0 0 0 0 0 0 0 0 0 0 0 0 0 0 0 0 0 127 0" result="hardAlpha"/>
      <feOffset dx="4" dy="-4"/>
      <feComposite in2="hardAlpha" operator="arithmetic" k2="-1" k3="1"/>
      <feColorMatrix type="matrix" values="0 0 0 0 0 0 0 0 0 0 0 0 0 0 0 0 0 0 0.25 0"/>
      <feBlend mode="normal" in2="shape" result="effect1_innerShadow_0_1"/>
    </filter>
    <filter id="filter12_i_0_1" x="154.295" y="17.5" width="17.3003" height="24.8975" filterUnits="userSpaceOnUse" color-interpolation-filters="sRGB">
      <feFlood flood-opacity="0" result="BackgroundImageFix"/>
      <feBlend mode="normal" in="SourceGraphic" in2="BackgroundImageFix" result="shape"/>
      <feColorMatrix in="SourceAlpha" type="matrix" values="0 0 0 0 0 0 0 0 0 0 0 0 0 0 0 0 0 0 127 0" result="hardAlpha"/>
      <feOffset dx="3" dy="-3"/>
      <feComposite in2="hardAlpha" operator="arithmetic" k2="-1" k3="1"/>
      <feColorMatrix type="matrix" values="0 0 0 0 0 0 0 0 0 0 0 0 0 0 0 0 0 0 0.25 0"/>
      <feBlend mode="normal" in2="shape" result="effect1_innerShadow_0_1"/>
    </filter>
    <filter id="filter13_i_0_1" x="196.405" y="17.5" width="17.3003" height="24.8975" filterUnits="userSpaceOnUse" color-interpolation-filters="sRGB">
      <feFlood flood-opacity="0" result="BackgroundImageFix"/>
      <feBlend mode="normal" in="SourceGraphic" in2="BackgroundImageFix" result="shape"/>
      <feColorMatrix in="SourceAlpha" type="matrix" values="0 0 0 0 0 0 0 0 0 0 0 0 0 0 0 0 0 0 127 0" result="hardAlpha"/>
      <feOffset dx="3" dy="-3"/>
      <feComposite in2="hardAlpha" operator="arithmetic" k2="-1" k3="1"/>
      <feColorMatrix type="matrix" values="0 0 0 0 0 0 0 0 0 0 0 0 0 0 0 0 0 0 0.25 0"/>
      <feBlend mode="normal" in2="shape" result="effect1_innerShadow_0_1"/>
    </filter>
    <filter id="filter14_i_0_1" x="152" y="21" width="64" height="42.1646" filterUnits="userSpaceOnUse" color-interpolation-filters="sRGB">
      <feFlood flood-opacity="0" result="BackgroundImageFix"/>
      <feBlend mode="normal" in="SourceGraphic" in2="BackgroundImageFix" result="shape"/>
      <feColorMatrix in="SourceAlpha" type="matrix" values="0 0 0 0 0 0 0 0 0 0 0 0 0 0 0 0 0 0 127 0" result="hardAlpha"/>
      <feOffset dx="4" dy="-4"/>
      <feComposite in2="hardAlpha" operator="arithmetic" k2="-1" k3="1"/>
      <feColorMatrix type="matrix" values="0 0 0 0 0 0 0 0 0 0 0 0 0 0 0 0 0 0 0.25 0"/>
      <feBlend mode="normal" in2="shape" result="effect1_innerShadow_0_1"/>
    </filter>
    <filter id="filter15_di_0_1" x="170" y="37" width="28" height="25" filterUnits="userSpaceOnUse" color-interpolation-filters="sRGB">
      <feFlood flood-opacity="0" result="BackgroundImageFix"/>
      <feColorMatrix in="SourceAlpha" type="matrix" values="0 0 0 0 0 0 0 0 0 0 0 0 0 0 0 0 0 0 127 0" result="hardAlpha"/>
      <feOffset dy="-2"/>
      <feComposite in2="hardAlpha" operator="out"/>
      <feColorMatrix type="matrix" values="0 0 0 0 0 0 0 0 0 0 0 0 0 0 0 0 0 0 0.25 0"/>
      <feBlend mode="normal" in2="BackgroundImageFix" result="effect1_dropShadow_0_1"/>
      <feBlend mode="normal" in="SourceGraphic" in2="effect1_dropShadow_0_1" result="shape"/>
      <feColorMatrix in="SourceAlpha" type="matrix" values="0 0 0 0 0 0 0 0 0 0 0 0 0 0 0 0 0 0 127 0" result="hardAlpha"/>
      <feOffset dx="2" dy="-3"/>
      <feComposite in2="hardAlpha" operator="arithmetic" k2="-1" k3="1"/>
      <feColorMatrix type="matrix" values="0 0 0 0 0 0 0 0 0 0 0 0 0 0 0 0 0 0 0.25 0"/>
      <feBlend mode="normal" in2="shape" result="effect2_innerShadow_0_1"/>
    </filter>
    <filter id="filter16_i_0_1" x="147.5" y="52.5" width="19" height="15" filterUnits="userSpaceOnUse" color-interpolation-filters="sRGB">
      <feFlood flood-opacity="0" result="BackgroundImageFix"/>
      <feBlend mode="normal" in="SourceGraphic" in2="BackgroundImageFix" result="shape"/>
      <feColorMatrix in="SourceAlpha" type="matrix" values="0 0 0 0 0 0 0 0 0 0 0 0 0 0 0 0 0 0 127 0" result="hardAlpha"/>
      <feOffset dx="4" dy="-4"/>
      <feComposite in2="hardAlpha" operator="arithmetic" k2="-1" k3="1"/>
      <feColorMatrix type="matrix" values="0 0 0 0 0 0 0 0 0 0 0 0 0 0 0 0 0 0 0.25 0"/>
      <feBlend mode="normal" in2="shape" result="effect1_innerShadow_0_1"/>
    </filter>
    <filter id="filter17_i_0_1" x="203.5" y="52.5" width="19" height="15" filterUnits="userSpaceOnUse" color-interpolation-filters="sRGB">
      <feFlood flood-opacity="0" result="BackgroundImageFix"/>
      <feBlend mode="normal" in="SourceGraphic" in2="BackgroundImageFix" result="shape"/>
      <feColorMatrix in="SourceAlpha" type="matrix" values="0 0 0 0 0 0 0 0 0 0 0 0 0 0 0 0 0 0 127 0" result="hardAlpha"/>
      <feOffset dx="4" dy="-4"/>
      <feComposite in2="hardAlpha" operator="arithmetic" k2="-1" k3="1"/>
      <feColorMatrix type="matrix" values="0 0 0 0 0 0 0 0 0 0 0 0 0 0 0 0 0 0 0.25 0"/>
      <feBlend mode="normal" in2="shape" result="effect1_innerShadow_0_1"/>
    </filter>
    <filter id="filter18_i_0_1" x="297" y="9.13672" width="69" height="52.6196" filterUnits="userSpaceOnUse" color-interpolation-filters="sRGB">
      <feFlood flood-opacity="0" result="BackgroundImageFix"/>
      <feBlend mode="normal" in="SourceGraphic" in2="BackgroundImageFix" result="shape"/>
      <feColorMatrix in="SourceAlpha" type="matrix" values="0 0 0 0 0 0 0 0 0 0 0 0 0 0 0 0 0 0 127 0" result="hardAlpha"/>
      <feOffset dx="4" dy="-4"/>
      <feComposite in2="hardAlpha" operator="arithmetic" k2="-1" k3="1"/>
      <feColorMatrix type="matrix" values="0 0 0 0 0 0 0 0 0 0 0 0 0 0 0 0 0 0 0.25 0"/>
      <feBlend mode="normal" in2="shape" result="effect1_innerShadow_0_1"/>
    </filter>
    <filter id="filter19_di_0_1" x="308.654" y="34.5811" width="23.3457" height="17.3408" filterUnits="userSpaceOnUse" color-interpolation-filters="sRGB">
      <feFlood flood-opacity="0" result="BackgroundImageFix"/>
      <feColorMatrix in="SourceAlpha" type="matrix" values="0 0 0 0 0 0 0 0 0 0 0 0 0 0 0 0 0 0 127 0" result="hardAlpha"/>
      <feOffset dy="-2"/>
      <feComposite in2="hardAlpha" operator="out"/>
      <feColorMatrix type="matrix" values="0 0 0 0 0 0 0 0 0 0 0 0 0 0 0 0 0 0 0.25 0"/>
      <feBlend mode="normal" in2="BackgroundImageFix" result="effect1_dropShadow_0_1"/>
      <feBlend mode="normal" in="SourceGraphic" in2="effect1_dropShadow_0_1" result="shape"/>
      <feColorMatrix in="SourceAlpha" type="matrix" values="0 0 0 0 0 0 0 0 0 0 0 0 0 0 0 0 0 0 127 0" result="hardAlpha"/>
      <feOffset dx="2" dy="-3"/>
      <feComposite in2="hardAlpha" operator="arithmetic" k2="-1" k3="1"/>
      <feColorMatrix type="matrix" values="0 0 0 0 0 0 0 0 0 0 0 0 0 0 0 0 0 0 0.25 0"/>
      <feBlend mode="normal" in2="shape" result="effect2_innerShadow_0_1"/>
    </filter>
  </defs>
</svg>
