<svg width="384" height="34" viewBox="0 0 384 34" fill="none" xmlns="http://www.w3.org/2000/svg">
  <path d="M13.8827 9.52464C13.7591 9.51932 13.6452 9.52195 13.5411 9.5326C12.51 9.64704 12.3018 10.5439 12.3018 10.5439C12.3018 10.5439 10.4704 9.86262 7.64353 10.6796C4.81671 11.4967 2.81939 13.6736 2.48434 14.4906C2.15254 15.3077 3.483 17.2132 3.483 17.2132C3.483 17.2132 1.73616 17.7587 0.822078 18.5066C-0.0920033 19.2544 -0.176583 20.8884 0.239796 21.1599C0.656174 21.4314 2.73481 22.0434 2.73481 22.0434C2.73481 22.0434 3.3171 23.6775 4.23118 24.4945C5.14526 25.3116 6.81077 26.605 8.05665 27.0813C9.30254 27.5577 11.2999 27.422 11.2999 27.422C11.2999 27.422 11.4267 28.1751 11.7976 28.7819C12.2953 29.5989 13.8046 30.7832 14.7935 31.4352C16.5404 32.5929 18.2872 33.6122 18.7849 33.3407C19.2826 33.0693 21.114 31.571 21.114 31.571C21.114 31.571 23.2772 31.7759 23.775 31.6402C24.2727 31.5044 25.19 29.8038 25.19 29.8038C25.19 29.8038 26.4391 29.873 28.5178 29.5989C30.5964 29.3275 30.8469 29.5989 31.1787 29.0534C31.5105 28.5078 32.5091 24.2204 31.6764 22.3841C30.8436 20.5478 30.2614 19.8665 30.2614 19.8665C30.2614 19.8665 31.0095 19.3209 30.8436 18.4374C30.6777 17.5538 28.9309 16.0555 28.9309 16.0555L19.198 15.8506L18.0335 10.4747L13.8729 9.52198L13.8827 9.52464Z" fill="url(#paint0_radial_0_1)"/>
  <path d="M21.7421 13.4658C21.7388 13.2503 22.2723 12.2337 21.3517 10.6928C20.4311 9.15452 15.1841 8.63556 13.7756 9.25565C12.3671 9.87573 13.4243 11.736 13.4243 11.736C13.4243 11.736 10.9195 10.0008 8.45375 10.4186C5.98801 10.8365 4.89502 13.0214 4.82345 14.9189C4.75189 16.8138 8.34315 17.5882 8.34315 17.5882C8.34315 17.5882 5.34067 17.3647 4.31924 19.0998C3.29781 20.835 5.97825 23.6001 8.79206 25.0293C11.6059 26.4584 13.8439 25.0985 13.8439 25.0985C13.8439 25.0985 12.9461 26.2934 14.8133 27.7784C16.6805 29.2634 20.7564 30.5488 22.6106 29.7291C24.4648 28.9094 23.9313 25.6014 23.9313 25.6014C23.9313 25.6014 24.416 27.7704 25.818 28.1616C27.2201 28.5528 30.3462 26.7937 30.8439 23.8396C31.3448 20.8856 28.2155 19.5443 28.2155 19.5443C28.2155 19.5443 30.2909 19.4538 29.9753 17.8863C29.6565 16.3188 27.4836 12.4705 25.509 12.388C23.5345 12.3029 21.7388 13.4658 21.7388 13.4658H21.7421Z" fill="url(#paint1_radial_0_1)"/>
  <path d="M20.827 16.0897C23.1951 17.4895 24.0767 19.7623 22.7917 21.1702C21.5068 22.578 18.5466 22.5833 16.1785 21.1835C13.8103 19.7836 12.9288 17.5108 14.2137 16.103C15.4986 14.6952 18.4588 14.6898 20.827 16.0897Z" fill="url(#paint2_radial_0_1)"/>
  <path d="M20.3659 16.162C22.2624 17.3011 22.965 19.156 21.9371 20.3031C20.9091 21.4501 18.541 21.4554 16.6478 20.3137C14.7513 19.1746 14.0486 17.3197 15.0766 16.1727C16.1045 15.0257 18.4727 15.0203 20.3659 16.162Z" fill="url(#paint3_radial_0_1)"/>
  <path d="M18.115 22.5058C20.07 22.9556 20.5645 22.3169 21.3387 23.243C21.9437 23.9642 22.5 25.7872 22.5911 26.9955C22.7992 29.7473 18.8892 28.8477 17.2172 28.028C15.5451 27.2084 14.514 26.8544 14.5693 25.5424C14.6246 24.2277 16.1795 22.0614 18.1182 22.5085L18.115 22.5058Z" fill="url(#paint4_radial_0_1)"/>
  <path d="M15.0645 21.1435C16.0372 22.2986 13.8512 23.8714 11.9157 24.4968C9.98015 25.1222 7.23791 23.2407 5.91721 21.5987C4.59976 19.9566 5.17553 18.421 7.48839 18.264C8.64319 18.1868 10.7186 17.9606 12.0946 18.3172C13.4706 18.6712 13.4511 19.2274 15.0645 21.1435Z" fill="url(#paint5_radial_0_1)"/>
  <path d="M14.1797 9.79062C13.3209 10.6369 14.9864 13.74 15.7281 14.0327C16.4698 14.3255 17.7352 14.3973 18.9973 14.4665C20.2595 14.5357 21.6778 12.907 20.8353 11.3448C19.9927 9.78263 14.7978 9.17852 14.1765 9.78796L14.1797 9.79062Z" fill="url(#paint6_radial_0_1)"/>
  <path d="M25.1812 13.0582C24.0394 12.9065 20.9198 14.6364 21.4045 15.1474C21.8859 15.6583 23.2066 17.3004 23.5905 18.1999C23.9743 19.0994 28.0535 19.158 28.6163 18.2052C29.1791 17.2525 27.4257 13.3563 25.1812 13.0582Z" fill="url(#paint7_radial_0_1)"/>
  <path d="M23.3071 21.4521C22.5068 22.2585 24.5985 25.9125 25.3011 26.9371C26.0038 27.9617 28.4467 26.9637 29.4487 24.8852C30.6165 22.4607 29.3283 21.0982 28.3719 20.5074C27.4156 19.9165 25.0897 19.4268 24.4391 19.7568C23.7885 20.0868 23.3103 21.4494 23.3103 21.4494L23.3071 21.4521Z" fill="url(#paint8_radial_0_1)"/>
  <path d="M5.90793 15.1826C6.12588 16.3084 11.8901 17.2212 12.4626 16.9125C13.0352 16.6038 12.9961 15.8932 14.0338 15.0203C15.0715 14.1474 11.6949 10.7861 9.51221 10.834C7.32948 10.8819 5.47204 12.9285 5.90793 15.1826Z" fill="url(#paint9_radial_0_1)"/>
  <path d="M365.345 0.705245C365.511 0.698093 365.664 0.701636 365.804 0.71594C367.19 0.869714 367.47 2.07489 367.47 2.07489C367.47 2.07489 369.93 1.1594 373.729 2.25728C377.528 3.35515 380.211 6.28042 380.662 7.37829C381.108 8.47617 379.32 11.0367 379.32 11.0367C379.32 11.0367 381.667 11.7698 382.895 12.7747C384.124 13.7796 384.237 15.9754 383.678 16.3401C383.118 16.7049 380.325 17.5274 380.325 17.5274C380.325 17.5274 379.543 19.7232 378.314 20.821C377.086 21.9189 374.848 23.6569 373.174 24.297C371.5 24.9372 368.816 24.7548 368.816 24.7548C368.816 24.7548 368.645 25.7668 368.147 26.5822C367.478 27.6801 365.45 29.2715 364.121 30.1476C361.774 31.7032 359.427 33.0729 358.758 32.7081C358.089 32.3434 355.628 30.33 355.628 30.33C355.628 30.33 352.721 30.6054 352.052 30.423C351.384 30.2406 350.151 27.9554 350.151 27.9554C350.151 27.9554 348.472 28.0484 345.679 27.6801C342.886 27.3153 342.55 27.6801 342.104 26.947C341.658 26.2139 340.316 20.4527 341.435 17.9851C342.554 15.5176 343.336 14.6021 343.336 14.6021C343.336 14.6021 342.331 13.869 342.554 12.6817C342.777 11.4945 345.124 9.48107 345.124 9.48107L358.203 9.20574L359.768 1.98191L365.358 0.701665L365.345 0.705245Z" fill="url(#paint10_radial_0_1)"/>
  <path d="M354.784 6.00096C354.789 5.71129 354.072 4.34523 355.309 2.27465C356.546 0.207638 363.597 -0.489718 365.489 0.343523C367.382 1.17676 365.961 3.67647 365.961 3.67647C365.961 3.67647 369.327 1.34484 372.641 1.9063C375.954 2.46775 377.423 5.40377 377.519 7.95356C377.615 10.4998 372.789 11.5404 372.789 11.5404C372.789 11.5404 376.824 11.24 378.196 13.5717C379.569 15.9033 375.967 19.6189 372.186 21.5393C368.405 23.4597 365.398 21.6323 365.398 21.6323C365.398 21.6323 366.604 23.238 364.095 25.2335C361.586 27.2289 356.109 28.9562 353.617 27.8548C351.126 26.7533 351.843 22.3082 351.843 22.3082C351.843 22.3082 351.191 25.2227 349.307 25.7484C347.423 26.2741 343.223 23.9103 342.554 19.9408C341.881 15.9712 346.086 14.1689 346.086 14.1689C346.086 14.1689 343.297 14.0473 343.721 11.9409C344.149 9.83458 347.069 4.66351 349.723 4.55265C352.376 4.43821 354.789 6.00096 354.789 6.00096H354.784Z" fill="url(#paint11_radial_0_1)"/>
  <path d="M356.014 9.52648C352.831 11.4075 351.647 14.4616 353.373 16.3534C355.1 18.2451 359.078 18.2523 362.26 16.3712C365.442 14.4902 366.627 11.4362 364.9 9.54438C363.174 7.6526 359.196 7.64543 356.014 9.52648Z" fill="url(#paint12_radial_0_1)"/>
  <path d="M356.633 9.62419C354.085 11.1548 353.14 13.6474 354.522 15.1887C355.903 16.73 359.085 16.7371 361.629 15.203C364.178 13.6724 365.122 11.1798 363.741 9.63851C362.359 8.09719 359.177 8.09002 356.633 9.62419Z" fill="url(#paint13_radial_0_1)"/>
  <path d="M359.658 18.1485C357.031 18.7528 356.367 17.8946 355.326 19.1391C354.513 20.1082 353.766 22.5579 353.643 24.1815C353.364 27.8792 358.618 26.6704 360.865 25.569C363.111 24.4675 364.497 23.9919 364.423 22.2289C364.348 20.4623 362.259 17.5513 359.654 18.1521L359.658 18.1485Z" fill="url(#paint14_radial_0_1)"/>
  <path d="M363.757 16.3184C362.45 17.8705 365.388 19.984 367.989 20.8244C370.589 21.6648 374.274 19.1364 376.049 16.93C377.819 14.7235 377.046 12.66 373.938 12.449C372.386 12.3453 369.597 12.0413 367.748 12.5205C365.899 12.9962 365.925 13.7436 363.757 16.3184Z" fill="url(#paint15_radial_0_1)"/>
  <path d="M364.946 1.06232C366.1 2.19953 363.862 6.36929 362.865 6.76267C361.869 7.15605 360.168 7.2526 358.472 7.34558C356.776 7.43856 354.871 5.24997 356.003 3.15078C357.135 1.05158 364.116 0.239805 364.95 1.05874L364.946 1.06232Z" fill="url(#paint16_radial_0_1)"/>
  <path d="M350.163 5.45304C351.697 5.2492 355.889 7.57373 355.238 8.26035C354.591 8.94697 352.816 11.1534 352.3 12.3622C351.785 13.5709 346.303 13.6496 345.547 12.3693C344.791 11.0891 347.147 5.85357 350.163 5.45304Z" fill="url(#paint17_radial_0_1)"/>
  <path d="M352.681 16.7331C353.756 17.8166 350.946 22.7267 350.001 24.1035C349.057 25.4803 345.775 24.1393 344.428 21.3463C342.859 18.0884 344.59 16.2575 345.875 15.4636C347.16 14.6696 350.286 14.0116 351.16 14.4551C352.034 14.8985 352.677 16.7295 352.677 16.7295L352.681 16.7331Z" fill="url(#paint18_radial_0_1)"/>
  <path d="M376.061 8.30799C375.768 9.8207 368.023 11.0473 367.253 10.6325C366.484 10.2177 366.537 9.26283 365.142 8.08986C363.748 6.91688 368.285 2.40018 371.218 2.46455C374.151 2.52892 376.647 5.279 376.061 8.30799Z" fill="url(#paint19_radial_0_1)"/>
  <defs>
    <radialGradient id="paint0_radial_0_1" cx="0" cy="0" r="1" gradientUnits="userSpaceOnUse" gradientTransform="translate(20.4992 -0.556431) scale(70.9047 58.0087)">
      <stop stop-color="#82AF28"/>
      <stop offset="1" stop-color="#688D1F"/>
    </radialGradient>
    <radialGradient id="paint1_radial_0_1" cx="0" cy="0" r="1" gradientUnits="userSpaceOnUse" gradientTransform="translate(20.9074 14.3644) rotate(-15.9701) scale(28.8399 24.4769)">
      <stop stop-color="#E9D8AA"/>
      <stop offset="1" stop-color="#CEB588"/>
    </radialGradient>
    <radialGradient id="paint2_radial_0_1" cx="0" cy="0" r="1" gradientUnits="userSpaceOnUse" gradientTransform="translate(17.2674 15.9664) rotate(-15.7157) scale(12.4647 10.4626)">
      <stop stop-color="#FED136"/>
      <stop offset="0.99" stop-color="#E58A12"/>
    </radialGradient>
    <radialGradient id="paint3_radial_0_1" cx="0" cy="0" r="1" gradientUnits="userSpaceOnUse" gradientTransform="translate(19.7341 15.4556) rotate(-15.9956) scale(10.0026 8.49036)">
      <stop stop-color="#FFD936"/>
      <stop offset="0.57" stop-color="#F1AD24"/>
    </radialGradient>
    <radialGradient id="paint4_radial_0_1" cx="0" cy="0" r="1" gradientUnits="userSpaceOnUse" gradientTransform="translate(25.0592 25.7024) rotate(-15.9702) scale(11.2517 9.54954)">
      <stop stop-color="#F5F0E0"/>
      <stop offset="1" stop-color="#E0CC9E"/>
    </radialGradient>
    <radialGradient id="paint5_radial_0_1" cx="0" cy="0" r="1" gradientUnits="userSpaceOnUse" gradientTransform="translate(17.9275 20.7405) rotate(-15.9702) scale(12.4047 10.5281)">
      <stop stop-color="#F5F0E0"/>
      <stop offset="1" stop-color="#E0CC9E"/>
    </radialGradient>
    <radialGradient id="paint6_radial_0_1" cx="0" cy="0" r="1" gradientUnits="userSpaceOnUse" gradientTransform="translate(16.7891 9.41373) rotate(-15.9701) scale(11.1335 9.44922)">
      <stop stop-color="#F5F0E0"/>
      <stop offset="1" stop-color="#E0CC9E"/>
    </radialGradient>
    <radialGradient id="paint7_radial_0_1" cx="0" cy="0" r="1" gradientUnits="userSpaceOnUse" gradientTransform="translate(29.1126 12.8787) rotate(-15.9702) scale(14.206 12.0569)">
      <stop stop-color="#F5F0E0"/>
      <stop offset="1" stop-color="#E0CC9E"/>
    </radialGradient>
    <radialGradient id="paint8_radial_0_1" cx="0" cy="0" r="1" gradientUnits="userSpaceOnUse" gradientTransform="translate(33.9494 26.3924) rotate(-15.9701) scale(15.5314 13.1818)">
      <stop stop-color="#F5F0E0"/>
      <stop offset="1" stop-color="#E0CC9E"/>
    </radialGradient>
    <radialGradient id="paint9_radial_0_1" cx="0" cy="0" r="1" gradientUnits="userSpaceOnUse" gradientTransform="translate(8.44935 8.05085) rotate(-15.9702) scale(19.3032 16.3831)">
      <stop stop-color="#F5F0E0"/>
      <stop offset="1" stop-color="#E0CC9E"/>
    </radialGradient>
    <radialGradient id="paint10_radial_0_1" cx="0" cy="0" r="1" gradientUnits="userSpaceOnUse" gradientTransform="translate(356.454 -12.8412) rotate(180) scale(95.2782 77.9492)">
      <stop stop-color="#82AF28"/>
      <stop offset="1" stop-color="#688D1F"/>
    </radialGradient>
    <radialGradient id="paint11_radial_0_1" cx="0" cy="0" r="1" gradientUnits="userSpaceOnUse" gradientTransform="translate(355.906 7.20836) rotate(-164.03) scale(38.7536 32.8909)">
      <stop stop-color="#E9D8AA"/>
      <stop offset="1" stop-color="#CEB588"/>
    </radialGradient>
    <radialGradient id="paint12_radial_0_1" cx="0" cy="0" r="1" gradientUnits="userSpaceOnUse" gradientTransform="translate(360.797 9.36082) rotate(-164.284) scale(16.7494 14.0591)">
      <stop stop-color="#FED136"/>
      <stop offset="0.99" stop-color="#E58A12"/>
    </radialGradient>
    <radialGradient id="paint13_radial_0_1" cx="0" cy="0" r="1" gradientUnits="userSpaceOnUse" gradientTransform="translate(357.482 8.6749) rotate(-164.004) scale(13.441 11.4089)">
      <stop stop-color="#FFD936"/>
      <stop offset="0.57" stop-color="#F1AD24"/>
    </radialGradient>
    <radialGradient id="paint14_radial_0_1" cx="0" cy="0" r="1" gradientUnits="userSpaceOnUse" gradientTransform="translate(350.327 22.4439) rotate(-164.03) scale(15.1195 12.8322)">
      <stop stop-color="#F5F0E0"/>
      <stop offset="1" stop-color="#E0CC9E"/>
    </radialGradient>
    <radialGradient id="paint15_radial_0_1" cx="0" cy="0" r="1" gradientUnits="userSpaceOnUse" gradientTransform="translate(359.91 15.7768) rotate(-164.03) scale(16.6688 14.1471)">
      <stop stop-color="#F5F0E0"/>
      <stop offset="1" stop-color="#E0CC9E"/>
    </radialGradient>
    <radialGradient id="paint16_radial_0_1" cx="0" cy="0" r="1" gradientUnits="userSpaceOnUse" gradientTransform="translate(361.44 0.555879) rotate(-164.03) scale(14.9607 12.6974)">
      <stop stop-color="#F5F0E0"/>
      <stop offset="1" stop-color="#E0CC9E"/>
    </radialGradient>
    <radialGradient id="paint17_radial_0_1" cx="0" cy="0" r="1" gradientUnits="userSpaceOnUse" gradientTransform="translate(344.88 5.21178) rotate(-164.03) scale(19.0893 16.2014)">
      <stop stop-color="#F5F0E0"/>
      <stop offset="1" stop-color="#E0CC9E"/>
    </radialGradient>
    <radialGradient id="paint18_radial_0_1" cx="0" cy="0" r="1" gradientUnits="userSpaceOnUse" gradientTransform="translate(338.38 23.3716) rotate(-164.03) scale(20.8703 17.713)">
      <stop stop-color="#F5F0E0"/>
      <stop offset="1" stop-color="#E0CC9E"/>
    </radialGradient>
    <radialGradient id="paint19_radial_0_1" cx="0" cy="0" r="1" gradientUnits="userSpaceOnUse" gradientTransform="translate(372.646 -1.27531) rotate(-164.03) scale(25.9387 22.0147)">
      <stop stop-color="#F5F0E0"/>
      <stop offset="1" stop-color="#E0CC9E"/>
    </radialGradient>
  </defs>
</svg>
