<svg width="93" height="92" viewBox="0 0 93 92" fill="none" xmlns="http://www.w3.org/2000/svg">
  <g clip-path="url(#clip0_74_16442)">
    <g opacity="0.2">
      <path fill-rule="evenodd" clip-rule="evenodd" d="M-25.9036 47.6645C-25.3849 51.7323 -22.0467 55.0706 -15.3702 61.7471C-8.69369 68.4236 -5.35544 71.7618 -1.28764 72.2805C-0.279836 72.409 0.740204 72.409 1.74801 72.2805C5.81581 71.7618 9.15406 68.4236 15.8306 61.7471C22.5071 55.0706 25.8453 51.7323 26.364 47.6645C26.4925 46.6567 26.4925 45.6367 26.364 44.6289C25.8453 40.5611 22.5071 37.2228 15.8306 30.5463C9.15406 23.8698 5.81581 20.5316 1.74801 20.0129C0.740204 19.8844 -0.279836 19.8844 -1.28764 20.0129C-5.35544 20.5316 -8.69369 23.8698 -15.3702 30.5463L-15.3702 30.5463C-22.0467 37.2228 -25.3849 40.5611 -25.9036 44.6289C-26.0321 45.6367 -26.0321 46.6567 -25.9036 47.6645ZM6.13044 32.0657C6.64497 31.5457 6.9627 30.8306 6.9627 30.0412C6.9627 28.4515 5.67396 27.1627 4.08422 27.1627C2.49564 27.1627 1.20763 28.4496 1.20574 30.0377C0.948792 30.0071 0.685108 29.9844 0.414511 29.97C-1.21524 29.8831 -2.67366 30.1177 -3.93879 30.5433C-4.32478 29.0145 -5.70917 27.8831 -7.35782 27.8831C-9.30525 27.8831 -10.884 29.4618 -10.884 31.4092C-10.884 32.7199 -10.1689 33.8635 -9.1076 34.4713C-11.0197 37.7745 -13.0212 41.8571 -10.0827 45.154C-8.66129 46.7488 -6.67195 47.4583 -4.40441 47.7654C-4.42754 47.8388 -4.45743 47.927 -4.49323 48.0284C-4.58075 48.049 -4.6688 48.0746 -4.75681 48.1052C-6.26418 48.6302 -11.152 52.6675 -11.0144 56.3124C-10.9485 58.0593 -9.99797 59.0227 -8.83148 59.4836C-8.85015 59.5978 -8.85986 59.715 -8.85986 59.8345C-8.85986 61.0268 -7.8933 61.9934 -6.701 61.9934C-6.47511 61.9934 -6.25734 61.9587 -6.0527 61.8943C-5.90691 63.6295 -5.52159 65.4975 -4.53898 65.5188C-2.31797 65.5672 -1.55592 65.5506 -0.815561 65.5345H-0.815525H-0.815313H-0.815172H-0.815075H-0.815006H-0.81496C-0.452978 65.5266 -0.0960939 65.5188 0.423687 65.5188C2.00685 65.5188 2.00685 63.6961 0.783497 63.1924C1.14331 62.2569 2.00685 61.1291 2.00685 61.1291C2.00685 62.7842 2.43862 65.5188 3.37412 65.5188H7.90773C9.13108 65.5188 8.84324 63.4803 7.90773 63.216L8.48343 58.9703C8.48343 58.9703 9.05103 58.3145 9.27501 57.6575C9.39911 57.1611 9.42281 56.6072 9.36685 56.0199C9.13081 53.5421 7.47724 50.4693 5.96475 48.6078L5.84925 47.8378L5.84971 47.8378L5.96532 48.6084C7.47781 50.4699 9.13137 53.5428 9.36742 56.0206C9.42337 56.6079 9.39968 57.1618 9.27557 57.6582C11.0027 57.6582 11.9545 56.7401 10.8032 53.8617C10.2418 52.4582 8.38826 49.2289 6.59634 47.7363C9.87559 47.2105 11.6623 45.8049 12.0003 44.0026C12.4176 41.7768 11.087 41.0077 10.4777 40.6555L10.4171 40.6204C9.90818 37.5669 8.71517 34.1864 6.13044 32.0657Z" fill="#E9BC19"/>
      <path fill-rule="evenodd" clip-rule="evenodd" d="M22.8662 1.43453C23.3848 5.50233 26.7231 8.84058 33.3996 15.5171C40.0761 22.1936 43.4143 25.5318 47.4821 26.0505C48.4899 26.179 49.51 26.179 50.5178 26.0505C54.5856 25.5318 57.9238 22.1936 64.6003 15.5171C71.2768 8.84058 74.6151 5.50233 75.1338 1.43453C75.2623 0.426728 75.2623 -0.593314 75.1338 -1.60112C74.6151 -5.66892 71.2768 -9.00717 64.6003 -15.6837C57.9238 -22.3602 54.5856 -25.6984 50.5178 -26.2171C49.51 -26.3456 48.4899 -26.3456 47.4821 -26.2171C43.4143 -25.6984 40.0761 -22.3602 33.3996 -15.6837L33.3996 -15.6837C26.7231 -9.00717 23.3848 -5.66892 22.8662 -1.60112C22.7376 -0.593314 22.7376 0.426728 22.8662 1.43453ZM54.9002 -14.1643C55.4147 -14.6843 55.7325 -15.3994 55.7325 -16.1888C55.7325 -17.7785 54.4437 -19.0673 52.854 -19.0673C51.2654 -19.0673 49.9774 -17.7804 49.9755 -16.1923C49.7186 -16.2229 49.4549 -16.2456 49.1843 -16.26C47.5545 -16.3468 46.0961 -16.1123 44.831 -15.6867C44.445 -17.2154 43.0606 -18.3469 41.412 -18.3469C39.4645 -18.3469 37.8858 -16.7682 37.8858 -14.8208C37.8858 -13.5101 38.6009 -12.3665 39.6622 -11.7587C37.7501 -8.45545 35.7486 -4.37292 38.6871 -1.07597C40.1085 0.518785 42.0978 1.22833 44.3654 1.53545C44.3422 1.60886 44.3123 1.69703 44.2765 1.79843C44.189 1.81905 44.101 1.84458 44.013 1.87523C42.5056 2.40019 37.6178 6.43748 37.7554 10.0824C37.8213 11.8293 38.7718 12.7927 39.9383 13.2536C39.9196 13.3678 39.9099 13.485 39.9099 13.6045C39.9099 14.7968 40.8765 15.7634 42.0688 15.7634C42.2947 15.7634 42.5124 15.7287 42.7171 15.6644C42.8629 17.3995 43.2482 19.2675 44.2308 19.2889C46.4518 19.3372 47.2139 19.3206 47.9542 19.3045H47.9543H47.9545H47.9546H47.9547H47.9548H47.9548C48.3168 19.2966 48.6737 19.2889 49.1935 19.2889C50.7766 19.2889 50.7766 17.4662 49.5533 16.9625C49.9131 16.027 50.7766 14.8991 50.7766 14.8991C50.7766 16.5542 51.2084 19.2889 52.1439 19.2889H56.6775C57.9009 19.2889 57.613 17.2503 56.6775 16.986L57.2532 12.7403C57.2532 12.7403 57.8208 12.0845 58.0448 11.4276C58.1689 10.9311 58.1926 10.3772 58.1366 9.78989C57.9006 7.31211 56.247 4.23929 54.7345 2.37777L54.619 1.60782L54.6195 1.60777L54.7351 2.37845C56.2476 4.23997 57.9011 7.31279 58.1372 9.79057C58.1931 10.3779 58.1695 10.9318 58.0453 11.4282C59.7724 11.4282 60.7243 10.5101 59.5729 7.63171C59.0116 6.22825 57.158 2.99894 55.3661 1.50635C58.6454 0.980517 60.4321 -0.425057 60.77 -2.22736C61.1874 -4.45314 59.8567 -5.22227 59.2474 -5.57447L59.1869 -5.60957C58.678 -8.66311 57.4849 -12.0436 54.9002 -14.1643Z" fill="#E9BC19"/>
      <path fill-rule="evenodd" clip-rule="evenodd" d="M67.0964 47.6645C67.6151 51.7323 70.9533 55.0706 77.6298 61.7471C84.3063 68.4236 87.6446 71.7618 91.7124 72.2805C92.7202 72.409 93.7402 72.409 94.748 72.2805C98.8158 71.7618 102.154 68.4236 108.831 61.7471C115.507 55.0706 118.845 51.7323 119.364 47.6645C119.492 46.6567 119.492 45.6367 119.364 44.6289C118.845 40.5611 115.507 37.2228 108.831 30.5463C102.154 23.8698 98.8158 20.5316 94.748 20.0129C93.7402 19.8844 92.7202 19.8844 91.7124 20.0129C87.6446 20.5316 84.3063 23.8698 77.6298 30.5463L77.6298 30.5463C70.9533 37.2228 67.6151 40.5611 67.0964 44.6289C66.9679 45.6367 66.9679 46.6567 67.0964 47.6645ZM99.1304 32.0657C99.645 31.5457 99.9627 30.8306 99.9627 30.0412C99.9627 28.4515 98.674 27.1627 97.0842 27.1627C95.4956 27.1627 94.2076 28.4496 94.2057 30.0377C93.9488 30.0071 93.6851 29.9844 93.4145 29.97C91.7848 29.8831 90.3263 30.1177 89.0612 30.5433C88.6752 29.0145 87.2908 27.8831 85.6422 27.8831C83.6947 27.8831 82.116 29.4618 82.116 31.4092C82.116 32.7199 82.8311 33.8635 83.8924 34.4713C81.9803 37.7745 79.9788 41.8571 82.9173 45.154C84.3387 46.7488 86.328 47.4583 88.5956 47.7654C88.5725 47.8388 88.5426 47.927 88.5068 48.0284C88.4193 48.049 88.3312 48.0746 88.2432 48.1052C86.7358 48.6302 81.848 52.6675 81.9856 56.3124C82.0515 58.0593 83.002 59.0227 84.1685 59.4836C84.1499 59.5978 84.1401 59.715 84.1401 59.8345C84.1401 61.0268 85.1067 61.9934 86.299 61.9934C86.5249 61.9934 86.7427 61.9587 86.9473 61.8943C87.0931 63.6295 87.4784 65.4975 88.461 65.5188C90.682 65.5672 91.4441 65.5506 92.1844 65.5345H92.1845H92.1847H92.1848H92.1849H92.185H92.185C92.547 65.5266 92.9039 65.5188 93.4237 65.5188C95.0068 65.5188 95.0068 63.6961 93.7835 63.1924C94.1433 62.2569 95.0068 61.1291 95.0068 61.1291C95.0068 62.7842 95.4386 65.5188 96.3741 65.5188H100.908C102.131 65.5188 101.843 63.4803 100.908 63.216L101.483 58.9703C101.483 58.9703 102.051 58.3145 102.275 57.6575C102.399 57.1611 102.423 56.6072 102.367 56.0199C102.131 53.5421 100.477 50.4693 98.9648 48.6078L98.8493 47.8378L98.8497 47.8378L98.9653 48.6084C100.478 50.4699 102.131 53.5428 102.367 56.0206C102.423 56.6079 102.4 57.1618 102.276 57.6582C104.003 57.6582 104.955 56.7401 103.803 53.8617C103.242 52.4582 101.388 49.2289 99.5963 47.7363C102.876 47.2105 104.662 45.8049 105 44.0026C105.418 41.7768 104.087 41.0077 103.478 40.6555L103.417 40.6204C102.908 37.5669 101.715 34.1864 99.1304 32.0657Z" fill="#E9BC19"/>
      <path fill-rule="evenodd" clip-rule="evenodd" d="M22.8662 93.351C23.3848 97.4188 26.7231 100.757 33.3996 107.434C40.0761 114.11 43.4143 117.448 47.4821 117.967C48.4899 118.096 49.51 118.096 50.5178 117.967C54.5856 117.448 57.9238 114.11 64.6003 107.434C71.2768 100.757 74.6151 97.4188 75.1338 93.351C75.2623 92.3432 75.2623 91.3232 75.1338 90.3154C74.6151 86.2476 71.2768 82.9093 64.6003 76.2328C57.9238 69.5563 54.5856 66.2181 50.5178 65.6994C49.51 65.5709 48.4899 65.5709 47.4821 65.6994C43.4143 66.2181 40.0761 69.5563 33.3996 76.2328L33.3996 76.2328C26.7231 82.9093 23.3848 86.2476 22.8662 90.3154C22.7376 91.3232 22.7376 92.3432 22.8662 93.351ZM54.9002 77.7522C55.4147 77.2322 55.7325 76.5171 55.7325 75.7277C55.7325 74.138 54.4437 72.8493 52.854 72.8493C51.2654 72.8493 49.9774 74.1361 49.9755 75.7242C49.7186 75.6936 49.4549 75.6709 49.1843 75.6565C47.5545 75.5697 46.0961 75.8042 44.831 76.2298C44.445 74.7011 43.0606 73.5696 41.412 73.5696C39.4645 73.5696 37.8858 75.1483 37.8858 77.0957C37.8858 78.4064 38.6009 79.55 39.6622 80.1578C37.7501 83.4611 35.7486 87.5436 38.6871 90.8405C40.1085 92.4353 42.0978 93.1448 44.3654 93.452C44.3422 93.5254 44.3123 93.6135 44.2765 93.7149C44.189 93.7356 44.101 93.7611 44.013 93.7917C42.5056 94.3167 37.6178 98.354 37.7554 101.999C37.8213 103.746 38.7718 104.709 39.9383 105.17C39.9196 105.284 39.9099 105.402 39.9099 105.521C39.9099 106.713 40.8765 107.68 42.0688 107.68C42.2947 107.68 42.5124 107.645 42.7171 107.581C42.8629 109.316 43.2482 111.184 44.2308 111.205C46.4518 111.254 47.2139 111.237 47.9542 111.221H47.9543H47.9545H47.9546H47.9547H47.9548H47.9548C48.3168 111.213 48.6737 111.205 49.1935 111.205C50.7766 111.205 50.7766 109.383 49.5533 108.879C49.9131 107.943 50.7766 106.816 50.7766 106.816C50.7766 108.471 51.2084 111.205 52.1439 111.205H56.6775C57.9009 111.205 57.613 109.167 56.6775 108.903L57.2532 104.657C57.2532 104.657 57.8208 104.001 58.0448 103.344C58.1689 102.848 58.1926 102.294 58.1366 101.706C57.9006 99.2286 56.247 96.1558 54.7345 94.2943L54.619 93.5243L54.6195 93.5243L54.7351 94.295C56.2476 96.1565 57.9011 99.2293 58.1372 101.707C58.1931 102.294 58.1695 102.848 58.0453 103.345C59.7724 103.345 60.7243 102.427 59.5729 99.5482C59.0116 98.1448 57.158 94.9154 55.3661 93.4229C58.6454 92.897 60.4321 91.4914 60.77 89.6891C61.1874 87.4634 59.8567 86.6942 59.2474 86.342L59.1869 86.3069C58.678 83.2534 57.4849 79.8729 54.9002 77.7522Z" fill="#E9BC19"/>
    </g>
  </g>
  <defs>
    <clipPath id="clip0_74_16442">
      <rect width="93" height="92" fill="white"/>
    </clipPath>
  </defs>
</svg>
