<svg width="45" height="42" viewBox="0 0 45 42" fill="none" xmlns="http://www.w3.org/2000/svg">
  <g filter="url(#filter0_d_662_20024)">
    <path d="M11.2856 6.68166C17.7282 5.6255 32.8312 4.5271 41.7029 8.58274C42.7591 9.53323 44.7446 11.8144 44.2377 13.3353C43.7658 14.751 41.5368 15.991 39.2517 19.6722C42.187 25.0586 43.2871 31.3956 43.2871 33.6135C43.2871 35.3878 36.9972 36.901 33.8522 37.4357C33.8176 37.7961 33.7946 38.1082 33.7817 38.3662C33.7817 38.5774 33.3382 38.9999 31.5638 38.9999C29.3459 38.9999 8.43401 38.3662 5.89923 37.0988C3.36446 35.8314 10.0182 14.2857 14.7709 10.4837C12.7643 9.74446 9.25784 7.94916 11.2856 6.68166Z" fill="#BE8D38"/>
    <path d="M33.8522 37.4357C33.8176 37.7961 33.7946 38.1082 33.7818 38.3662C33.7818 38.5774 33.3382 38.9999 31.5638 38.9999C29.3459 38.9999 8.43401 38.3662 5.89923 37.0988C3.36446 35.8314 10.0182 14.2857 14.7709 10.4837C12.7643 9.74446 9.25784 7.94916 11.2856 6.68166C17.7282 5.6255 32.8312 4.5271 41.7029 8.58274C42.7591 9.53323 44.7446 11.8144 44.2377 13.3353C43.7658 14.751 41.5368 15.991 39.2517 19.6722M33.8522 37.4357C36.9972 36.901 43.2871 35.3878 43.2871 33.6135C43.2871 31.3956 42.187 25.0586 39.2517 19.6722M33.8522 37.4357C33.9112 36.8203 34.004 36.0643 34.1381 35.1977M39.2517 19.6722C38.897 20.2438 38.5408 20.8742 38.1897 21.5733M38.1897 21.5733C37.7655 22.4179 37.3486 23.3627 36.9502 24.4249C35.4233 28.4966 34.5683 32.4168 34.1381 35.1977M38.1897 21.5733C39.2551 23.2632 41.386 27.9102 41.386 32.9798C40.3562 33.5079 37.4649 34.6908 34.1381 35.1977" stroke="#4B371F"/>
    <path d="M36.9503 24.4249C37.3487 23.3626 37.7655 22.4178 38.1898 21.5732C39.2552 23.2631 41.3861 27.9102 41.3861 32.9797C40.3563 33.5078 37.465 34.6907 34.1382 35.1977C34.5684 32.4168 35.4234 28.4965 36.9503 24.4249Z" fill="#976922" stroke="#4B371F"/>
    <path d="M34.1382 35.1981C37.465 34.6911 40.3563 33.5082 41.3861 32.9802C41.5973 32.2717 40.6256 30.8112 35.0491 30.6362C34.6351 32.3395 34.3399 33.894 34.1382 35.1981Z" fill="#8C501A" stroke="#4B371F"/>
    <path d="M41.7026 8.58274C32.8309 4.5271 17.7279 5.6255 11.2853 6.68166C10.3663 7.25609 10.584 7.93893 11.2836 8.58274C11.6021 7.28736 31.5635 6.08045 40.4352 10.139C40.0127 9.83151 40.752 8.58274 41.7026 8.58274Z" fill="#E8B65D" stroke="#4B371F"/>
    <path d="M39.8019 10.1669C33.4649 6.87174 19.2068 7.31532 12.8699 7.94901C10.3352 8.58274 10.335 12.7017 9.06763 17.4544C7.80024 22.2071 3.3645 28.2272 1.78026 29.4946C0.512875 30.5085 2.09711 32.8743 3.04765 33.9304C10.0183 37.4157 27.128 37.4157 28.7122 37.4157C30.2965 37.4157 30.9302 37.4157 31.5639 35.5147C32.1976 33.6136 32.8312 27.2766 35.366 22.5239C37.9008 17.7712 41.3861 14.9196 42.3366 14.2859C43.0971 13.779 40.9636 11.3287 39.8019 10.1669Z" fill="#FEF9E9"/>
    <path d="M5.89916 27.8825C5.58231 28.6218 6.15264 30.2905 10.9687 31.0509M12.8699 7.94901C19.2068 7.31532 33.4649 6.87174 39.8019 10.1669C40.9636 11.3287 43.0971 13.779 42.3366 14.2859C41.3861 14.9196 37.9008 17.7712 35.366 22.5239C32.8312 27.2766 32.1976 33.6136 31.5639 35.5147C30.9302 37.4157 30.2965 37.4157 28.7122 37.4157C27.128 37.4157 10.0183 37.4157 3.04765 33.9304C2.09711 32.8743 0.512875 30.5085 1.78026 29.4946C3.3645 28.2272 7.80024 22.2071 9.06763 17.4544C10.335 12.7017 10.3352 8.58274 12.8699 7.94901Z" stroke="#4B371F"/>
    <path d="M42.3366 14.2857C41.3861 14.9194 37.9008 17.771 35.366 22.5237C32.8312 27.2764 32.1976 33.6134 31.5639 35.5144C31.2009 36.6033 30.8379 37.0685 30.2964 37.2673C29.8924 37.4155 29.3891 37.4155 28.7122 37.4155C27.128 37.4155 10.0183 37.4155 3.04765 33.9302C2.09711 32.874 0.512875 30.5083 1.78026 29.4943C1.99146 30.5505 4.88525 32.8529 14.7709 33.6134C27.1279 34.5639 28.7121 35.1976 29.029 33.9302C29.3458 32.6628 30.4196 19.0384 40.9723 11.4341C41.9631 12.5941 42.875 13.9268 42.3366 14.2857Z" fill="#EAE0B2"/>
    <path d="M29.029 33.9302C28.7121 35.1976 27.1279 34.5639 14.7709 33.6134C4.88525 32.8529 1.99146 30.5505 1.78026 29.4943C0.512875 30.5083 2.09711 32.874 3.04765 33.9302C10.0183 37.4155 27.128 37.4155 28.7122 37.4155C29.3891 37.4155 29.8924 37.4155 30.2964 37.2673M29.029 33.9302C29.3458 32.6628 30.4196 19.0384 40.9723 11.4341C41.9631 12.5941 42.875 13.9268 42.3366 14.2857C41.3861 14.9194 37.9008 17.771 35.366 22.5237C32.8312 27.2764 32.1976 33.6134 31.5639 35.5144C31.2009 36.6033 30.8379 37.0685 30.2964 37.2673M29.029 33.9302C28.8177 34.8875 28.7755 36.8952 30.2964 37.2673" stroke="#4B371F"/>
    <path d="M3.04765 33.93C10.0183 37.4153 27.128 37.4153 28.7122 37.4153C29.3891 37.4153 29.8924 37.4153 30.2964 37.2671C28.7755 36.895 28.8177 34.8873 29.029 33.93C28.7121 35.1974 27.1279 34.5637 14.7709 33.6131C4.88525 32.8527 1.99146 30.5503 1.78026 29.4941C0.512875 30.5081 2.09711 32.8738 3.04765 33.93Z" fill="#C0B87D" stroke="#4B371F" stroke-linejoin="round"/>
    <path d="M22.9258 14.1668C23.9355 13.2451 25.4395 13.3239 25.5619 14.3049L25.7874 16.1119C25.8652 16.7354 26.3103 17.1929 26.9975 17.3557L28.9889 17.8272C30.07 18.0832 29.9295 19.4057 28.7425 20.1452L26.5562 21.5073C25.8018 21.9773 25.2365 22.6502 25.0194 23.3366L24.3904 25.3257C24.0489 26.4056 22.458 27.1442 21.602 26.6202L20.0253 25.655C19.4812 25.3219 18.6867 25.2803 17.8654 25.5418L15.4853 26.2996C14.1931 26.711 13.3504 25.845 14.0084 24.7816L15.2202 22.8231C15.6384 22.1472 15.7126 21.4486 15.4221 20.9238L14.5801 19.403C14.123 18.5773 15.193 17.3035 16.4557 17.1704L18.7813 16.9251C19.5839 16.8404 20.4243 16.4503 21.066 15.8644L22.9258 14.1668Z" fill="#E14747" stroke="#4B371F"/>
    <g filter="url(#filter1_d_662_20024)">
      <path d="M19.3311 17.2548C22.3544 15.0558 23.6209 11.645 22.1601 9.63655L20.1665 6.97454L9.39337 15.2127L11.2119 17.5999C12.6728 19.6083 16.3079 19.4538 19.3311 17.2548Z" fill="#BF8D2F" stroke="#4B371F"/>
      <ellipse cx="14.6121" cy="10.8485" rx="6.9068" ry="4.58833" transform="rotate(-36.0312 14.6121 10.8485)" fill="#F3B63F" stroke="#4B371F"/>
      <path d="M15.3719 11.6472C17.0511 10.4258 17.7546 8.53135 16.9432 7.41584L13.1953 2.22745L7.1751 6.65733L10.9772 11.727C11.7886 12.8425 13.6927 12.8686 15.3719 11.6472Z" fill="#DAA93F" stroke="#4B371F"/>
      <ellipse cx="10.0961" cy="4.23583" rx="3.7634" ry="2.5001" transform="rotate(-36.0312 10.0961 4.23583)" fill="#F8D98F" stroke="#4B371F"/>
      <path d="M8.43368 5.38616C8.32806 4.85808 9.07341 3.54608 10.5943 2.78564" stroke="white" stroke-width="2" stroke-linecap="round"/>
    </g>
  </g>
  <defs>
    <filter id="filter0_d_662_20024" x="0.808594" y="0.737793" width="44.0103" height="40.7622" filterUnits="userSpaceOnUse" color-interpolation-filters="sRGB">
      <feFlood flood-opacity="0" result="BackgroundImageFix"/>
      <feColorMatrix in="SourceAlpha" type="matrix" values="0 0 0 0 0 0 0 0 0 0 0 0 0 0 0 0 0 0 127 0" result="hardAlpha"/>
      <feOffset dy="2"/>
      <feComposite in2="hardAlpha" operator="out"/>
      <feColorMatrix type="matrix" values="0 0 0 0 0 0 0 0 0 0 0 0 0 0 0 0 0 0 0.5 0"/>
      <feBlend mode="normal" in2="BackgroundImageFix" result="effect1_dropShadow_662_20024"/>
      <feBlend mode="normal" in="SourceGraphic" in2="effect1_dropShadow_662_20024" result="shape"/>
    </filter>
    <filter id="filter1_d_662_20024" x="6.21533" y="0.737793" width="19.0518" height="20.7729" filterUnits="userSpaceOnUse" color-interpolation-filters="sRGB">
      <feFlood flood-opacity="0" result="BackgroundImageFix"/>
      <feColorMatrix in="SourceAlpha" type="matrix" values="0 0 0 0 0 0 0 0 0 0 0 0 0 0 0 0 0 0 127 0" result="hardAlpha"/>
      <feOffset dx="2" dy="2"/>
      <feComposite in2="hardAlpha" operator="out"/>
      <feColorMatrix type="matrix" values="0 0 0 0 0.294118 0 0 0 0 0.215686 0 0 0 0 0.121569 0 0 0 0.6 0"/>
      <feBlend mode="normal" in2="BackgroundImageFix" result="effect1_dropShadow_662_20024"/>
      <feBlend mode="normal" in="SourceGraphic" in2="effect1_dropShadow_662_20024" result="shape"/>
    </filter>
  </defs>
</svg>
