<svg width="361" height="340" viewBox="0 0 361 340" fill="none" xmlns="http://www.w3.org/2000/svg">
<mask id="path-1-outside-1_1438_3402" maskUnits="userSpaceOnUse" x="169.651" y="162.711" width="44" height="56" fill="black">
<rect fill="white" x="169.651" y="162.711" width="44" height="56"/>
<path d="M211.579 210.113C208.877 197.545 194.194 175.206 180.901 165.711C178.981 166.075 176.889 166.563 172.119 166.887C185.319 178.687 196.151 201.086 198.901 215.336C202.169 219.17 209.421 214.018 211.467 210.774C211.592 210.575 211.628 210.342 211.579 210.113Z"/>
</mask>
<path d="M211.579 210.113C208.877 197.545 194.194 175.206 180.901 165.711C178.981 166.075 176.889 166.563 172.119 166.887C185.319 178.687 196.151 201.086 198.901 215.336C202.169 219.17 209.421 214.018 211.467 210.774C211.592 210.575 211.628 210.342 211.579 210.113Z" fill="#035D55"/>
<path d="M180.901 165.711L180.528 163.746L181.368 163.587L182.063 164.083L180.901 165.711ZM211.579 210.113L213.534 209.692L213.534 209.692L211.579 210.113ZM211.467 210.774L209.775 209.707L209.775 209.707L211.467 210.774ZM198.901 215.336L197.379 216.633L197.037 216.232L196.937 215.715L198.901 215.336ZM172.119 166.887L170.786 168.378C170.186 167.842 169.966 166.999 170.228 166.238C170.489 165.477 171.181 164.946 171.984 164.892L172.119 166.887ZM182.063 164.083C188.975 169.021 196.125 177.189 201.866 185.635C207.592 194.061 212.104 203.039 213.534 209.692L209.624 210.533C208.352 204.619 204.171 196.143 198.557 187.884C192.958 179.645 186.119 171.896 179.738 167.338L182.063 164.083ZM213.159 211.84C211.91 213.821 209.282 216.153 206.523 217.505C205.127 218.19 203.536 218.704 201.946 218.697C200.288 218.689 198.632 218.103 197.379 216.633L200.423 214.038C200.804 214.486 201.28 214.694 201.965 214.697C202.718 214.701 203.681 214.444 204.762 213.914C206.958 212.837 208.979 210.971 209.775 209.707L213.159 211.84ZM196.937 215.715C195.609 208.833 192.297 199.861 187.662 191.131C183.026 182.398 177.15 174.067 170.786 168.378L173.452 165.396C180.288 171.507 186.428 180.276 191.195 189.255C195.964 198.237 199.442 207.589 200.864 214.957L196.937 215.715ZM171.984 164.892C176.623 164.577 178.61 164.109 180.528 163.746L181.273 167.676C179.353 168.04 177.156 168.55 172.255 168.883L171.984 164.892ZM213.534 209.692C213.687 210.4 213.58 211.172 213.159 211.84L209.775 209.707C209.604 209.978 209.57 210.284 209.624 210.533L213.534 209.692Z" fill="black" mask="url(#path-1-outside-1_1438_3402)"/>
<path d="M199.523 219.337C198.123 202.137 180.409 177.555 171.325 167.139C167.704 172.138 157.717 177.38 149.217 177.88C133.177 178.245 129.971 170.279 126.593 171.63C121.983 173.474 93.844 202.048 91.1336 239.208C90.7068 245.059 94.5148 250.264 100.21 251.674C118.539 256.212 148.586 258.77 169.023 255.587C199.523 250.837 201.273 240.837 199.523 219.337Z" fill="#AFB293" stroke="black" stroke-width="2"/>
<path d="M127.325 177.638C134.242 182.888 153.025 189.788 172.825 175.388" stroke="black" stroke-width="2" stroke-linecap="round"/>
<path d="M158.075 197.388L169.841 169.13C190.841 174.88 207.591 228.88 196.841 243.88C189.211 254.526 163.075 256.388 159.575 256.138C156.775 255.938 157.408 216.888 158.075 197.388Z" fill="#035D55" stroke="black" stroke-width="2"/>
<path d="M143.324 198.138L123.341 167.38C100.341 184.13 87.7437 237.714 92.332 245.154C95.0601 254.206 137.825 258.138 140.325 256.638C142.325 255.438 145.824 218.138 143.324 198.138Z" fill="#035D55" stroke="black" stroke-width="2"/>
<mask id="path-7-outside-2_1438_3402" maskUnits="userSpaceOnUse" x="55.5918" y="162.513" width="71" height="59" fill="black">
<rect fill="white" x="55.5918" y="162.513" width="71" height="59"/>
<path d="M57.7958 214.022C67.8709 190.42 88.3741 175.031 101.7 165.513C110.951 166.263 115.808 167.638 123.807 167.388C110.607 179.188 101.217 190.005 99.2168 215.13C92.5915 216.479 63.6879 222.164 57.8941 214.927C57.6897 214.672 57.6674 214.323 57.7958 214.022Z"/>
</mask>
<path d="M57.7958 214.022C67.8709 190.42 88.3741 175.031 101.7 165.513C110.951 166.263 115.808 167.638 123.807 167.388C110.607 179.188 101.217 190.005 99.2168 215.13C92.5915 216.479 63.6879 222.164 57.8941 214.927C57.6897 214.672 57.6674 214.323 57.7958 214.022Z" fill="#035D55"/>
<path d="M101.7 165.513L101.862 163.519L101.133 163.46L100.538 163.885L101.7 165.513ZM57.7958 214.022L55.9564 213.237L55.9564 213.237L57.7958 214.022ZM57.8941 214.927L59.4554 213.677L59.4554 213.677L57.8941 214.927ZM99.2168 215.13L99.616 217.09L101.091 216.789L101.21 215.289L99.2168 215.13ZM123.807 167.388L125.14 168.879C125.766 168.318 125.976 167.426 125.664 166.645C125.352 165.864 124.584 165.362 123.744 165.389L123.807 167.388ZM100.538 163.885C87.2163 173.4 66.273 189.069 55.9564 213.237L59.6352 214.808C69.4687 191.771 89.5319 176.662 102.863 167.14L100.538 163.885ZM56.3328 216.177C58.3086 218.645 61.9206 219.714 65.6098 220.186C69.4344 220.675 73.9529 220.59 78.3993 220.243C87.3084 219.547 96.2926 217.767 99.616 217.09L98.8176 213.17C95.5157 213.843 86.7355 215.58 78.088 216.255C73.7561 216.593 69.5483 216.657 66.1169 216.218C62.5502 215.762 60.3765 214.828 59.4554 213.677L56.3328 216.177ZM101.21 215.289C102.192 202.963 104.972 194.279 109.042 187.266C113.125 180.228 118.578 174.744 125.14 168.879L122.474 165.897C115.835 171.831 109.993 177.656 105.582 185.258C101.157 192.884 98.242 202.171 97.2231 214.971L101.21 215.289ZM123.744 165.389C119.885 165.509 116.782 165.24 113.462 164.84C110.154 164.441 106.539 163.899 101.862 163.519L101.538 167.506C106.112 167.877 109.551 168.398 112.984 168.811C116.405 169.224 119.729 169.516 123.869 169.387L123.744 165.389ZM55.9564 213.237C55.589 214.098 55.5928 215.253 56.3328 216.177L59.4554 213.677C59.7865 214.091 59.7458 214.549 59.6352 214.808L55.9564 213.237Z" fill="black" mask="url(#path-7-outside-2_1438_3402)"/>
<circle cx="138.151" cy="223.929" r="2.74365" fill="#FBE597" stroke="black" stroke-width="2"/>
<circle cx="136.401" cy="238.679" r="2.74365" fill="#FBE597" stroke="black" stroke-width="2"/>
<rect x="127.627" y="227.605" width="19.3345" height="7.25" rx="2" transform="rotate(146.359 127.627 227.605)" fill="#035D55" stroke="black" stroke-width="2"/>
<rect x="-1.38651" y="0.278527" width="16.9792" height="6.44232" rx="2" transform="matrix(0.832521 0.553994 0.553994 -0.832521 178.934 223.207)" fill="#035D55" stroke="black" stroke-width="2"/>
<path d="M188.967 167.324L186.2 164.262L185.575 163.887C185.575 163.887 177.325 165.576 169.825 165.949C164.95 176.574 158.2 197.95 158.2 197.95L168.799 186.585L168.412 181.762L172.054 182.544L188.967 167.324Z" fill="#FBE597"/>
<path d="M186.2 164.262L186.715 163.404L186.842 163.481L186.942 163.592L186.2 164.262ZM188.967 167.324L189.709 166.654L190.38 167.398L189.636 168.068L188.967 167.324ZM172.054 182.544L172.723 183.288L172.343 183.629L171.844 183.522L172.054 182.544ZM168.412 181.762L167.415 181.842L167.307 180.502L168.622 180.785L168.412 181.762ZM168.799 186.585L169.796 186.505L169.831 186.944L169.53 187.267L168.799 186.585ZM158.2 197.95L158.932 198.632C158.613 198.974 158.1 199.049 157.696 198.814C157.293 198.578 157.106 198.094 157.247 197.649L158.2 197.95ZM169.825 165.949L168.916 165.532L169.169 164.981L169.775 164.951L169.825 165.949ZM185.575 163.887L185.375 162.907L185.756 162.829L186.09 163.029L185.575 163.887ZM186.942 163.592L189.709 166.654L188.225 167.995L185.458 164.932L186.942 163.592ZM189.636 168.068L172.723 183.288L171.385 181.801L188.298 166.581L189.636 168.068ZM171.844 183.522L168.202 182.74L168.622 180.785L172.264 181.567L171.844 183.522ZM169.408 181.682L169.796 186.505L167.802 186.665L167.415 181.842L169.408 181.682ZM169.53 187.267L158.932 198.632L157.469 197.268L168.068 185.903L169.53 187.267ZM158.2 197.95C157.247 197.649 157.247 197.649 157.247 197.648C157.247 197.648 157.247 197.648 157.247 197.648C157.247 197.647 157.247 197.646 157.248 197.645C157.249 197.642 157.25 197.638 157.252 197.633C157.255 197.622 157.26 197.607 157.266 197.586C157.279 197.545 157.299 197.484 157.324 197.404C157.375 197.244 157.45 197.009 157.548 196.705C157.742 196.099 158.025 195.22 158.381 194.133C159.091 191.96 160.088 188.951 161.239 185.609C163.536 178.937 166.456 170.894 168.916 165.532L170.734 166.366C168.319 171.629 165.427 179.587 163.13 186.26C161.984 189.589 160.989 192.588 160.282 194.755C159.928 195.838 159.646 196.712 159.452 197.316C159.355 197.618 159.281 197.852 159.23 198.01C159.205 198.09 159.186 198.15 159.173 198.19C159.167 198.211 159.162 198.226 159.159 198.236C159.157 198.241 159.156 198.245 159.155 198.247C159.155 198.249 159.154 198.25 159.154 198.25C159.154 198.25 159.154 198.251 159.154 198.251C159.154 198.251 159.154 198.251 158.2 197.95ZM169.775 164.951C173.476 164.766 177.375 164.256 180.358 163.79C181.848 163.557 183.104 163.336 183.988 163.173C184.429 163.092 184.777 163.025 185.014 162.979C185.133 162.956 185.224 162.938 185.284 162.925C185.315 162.919 185.338 162.915 185.353 162.912C185.36 162.91 185.366 162.909 185.37 162.908C185.372 162.908 185.373 162.908 185.374 162.907C185.374 162.907 185.374 162.907 185.375 162.907C185.375 162.907 185.375 162.907 185.375 162.907C185.375 162.907 185.375 162.907 185.575 163.887C185.776 164.867 185.776 164.867 185.776 164.867C185.775 164.867 185.775 164.867 185.775 164.867C185.775 164.867 185.774 164.867 185.774 164.867C185.773 164.867 185.771 164.868 185.769 164.868C185.764 164.869 185.758 164.87 185.75 164.872C185.733 164.875 185.709 164.88 185.677 164.887C185.613 164.899 185.519 164.918 185.398 164.942C185.154 164.989 184.799 165.057 184.35 165.14C183.452 165.306 182.178 165.53 180.667 165.766C177.651 166.237 173.675 166.759 169.875 166.948L169.775 164.951ZM186.09 163.029L186.715 163.404L185.686 165.119L185.061 164.744L186.09 163.029Z" fill="black"/>
<path d="M91.7002 166.638L95.2002 163.513L102.638 164.636C112.138 166.011 125.349 166.254 125.349 166.254L143.085 198.254L126.856 186.629L127.436 182.004L121.987 182.754L91.7002 166.638Z" fill="#FBE597" stroke="black" stroke-width="2"/>
</svg>
