<svg width="55" height="50" viewBox="0 0 55 50" fill="none" xmlns="http://www.w3.org/2000/svg">
  <g filter="url(#filter0_d_662_12589)">
    <path d="M48.5389 29.5424C49.6796 20.6523 46.8039 12.9702 42.066 11.572L41.8792 11.505C40.0298 10.8386 38.0024 10.8593 36.1674 11.5632C35.4627 11.947 34.6843 12.1768 33.884 12.2373C33.0836 12.2979 32.2795 12.1879 31.5247 11.9145C30.8005 11.6519 30.1373 11.2444 29.5757 10.717C29.0142 10.1897 28.566 9.55345 28.2586 8.84724C27.2997 7.07035 25.7179 5.70999 23.8171 5.0274L23.6037 4.95086C19.057 3.01936 11.9546 7.12309 7.18544 14.7119C2.10122 22.7596 1.60487 31.7002 6.06649 34.6244C9.32599 36.7864 14.3572 35.0998 18.8079 30.9178L29.373 34.7068C30.1954 40.8099 32.9642 45.2638 36.8548 45.6659C42.0608 46.1787 47.3233 38.9774 48.5389 29.5424Z" fill="url(#paint0_linear_662_12589)"/>
    <path d="M48.5389 29.5424C49.6796 20.6523 46.8039 12.9702 42.066 11.572L41.8792 11.505C40.0298 10.8386 38.0024 10.8593 36.1674 11.5632C35.4627 11.947 34.6843 12.1768 33.884 12.2373C33.0836 12.2979 32.2795 12.1879 31.5247 11.9145C30.8005 11.6519 30.1373 11.2444 29.5757 10.717C29.0142 10.1897 28.566 9.55345 28.2586 8.84724C27.2997 7.07035 25.7179 5.70999 23.8171 5.0274L23.6037 4.95086C19.057 3.01936 11.9546 7.12309 7.18544 14.7119C2.10122 22.7596 1.60487 31.7002 6.06649 34.6244C9.32599 36.7864 14.3572 35.0998 18.8079 30.9178L29.373 34.7068C30.1954 40.8099 32.9642 45.2638 36.8548 45.6659C42.0608 46.1787 47.3233 38.9774 48.5389 29.5424Z" stroke="#4B371F" stroke-width="2" stroke-linejoin="round"/>
  </g>
  <path d="M20.8466 19.298L19.9053 18.9604L19.5677 19.9017L18.6047 22.5868L17.6889 22.2584L18.6519 19.5732L18.9895 18.632L18.0482 18.2944L15.527 17.3902L15.8974 16.3575L18.4186 17.2616L19.3598 17.5992L19.6974 16.6579L20.6604 13.9727L21.5762 14.3012L20.6132 16.9863L20.2757 17.9276L21.217 18.2652L23.722 19.1636L23.36 20.1993L20.8466 19.298ZM34.0933 24.4502L34.0811 24.4462L34.0689 24.4425C33.8888 24.3883 33.7291 24.2814 33.6105 24.1357C33.4918 23.9899 33.4197 23.8121 33.4032 23.6251C33.3867 23.4382 33.4267 23.2507 33.5179 23.0867C33.6091 22.9228 33.7475 22.7899 33.9151 22.7053C34.0828 22.6207 34.2721 22.5882 34.4586 22.6121C34.6451 22.6361 34.8202 22.7154 34.9611 22.8397C35.1021 22.9641 35.2025 23.1278 35.2494 23.3096C35.2964 23.4913 35.2877 23.6829 35.2246 23.8596L35.2203 23.8717L35.2163 23.8839C35.1799 23.9947 35.122 24.0973 35.0459 24.1858C34.9698 24.2742 34.877 24.3469 34.7727 24.3995L35.2233 25.2922L34.7727 24.3995C34.6684 24.4521 34.5548 24.4837 34.4382 24.4924L34.5127 25.4896L34.4382 24.4924C34.3216 24.5011 34.2044 24.4868 34.0933 24.4502ZM39.6201 26.4319L39.5957 26.4232L39.5708 26.4157C39.3907 26.3615 39.2311 26.2546 39.1124 26.1088C38.9938 25.9631 38.9216 25.7852 38.9051 25.5983C38.8887 25.4113 38.9286 25.2238 39.0198 25.0599C39.1111 24.8959 39.2494 24.7631 39.4171 24.6784C39.5847 24.5938 39.774 24.5613 39.9605 24.5853C40.147 24.6092 40.3221 24.6885 40.4631 24.8129C40.6041 24.9373 40.7044 25.1009 40.7514 25.2827C40.7983 25.4645 40.7896 25.6561 40.7265 25.8327L40.7219 25.8457L40.7176 25.8588C40.6464 26.0772 40.4932 26.2595 40.2901 26.3674C40.0949 26.4711 39.8682 26.4983 39.6543 26.4442L39.6201 26.4319Z" fill="#4B371F" stroke="#4B371F" stroke-width="2"/>
  <defs>
    <filter id="filter0_d_662_12589" x="2.021" y="3.4751" width="49.7676" height="46.2168" filterUnits="userSpaceOnUse" color-interpolation-filters="sRGB">
      <feFlood flood-opacity="0" result="BackgroundImageFix"/>
      <feColorMatrix in="SourceAlpha" type="matrix" values="0 0 0 0 0 0 0 0 0 0 0 0 0 0 0 0 0 0 127 0" result="hardAlpha"/>
      <feOffset dx="2" dy="3"/>
      <feComposite in2="hardAlpha" operator="out"/>
      <feColorMatrix type="matrix" values="0 0 0 0 0.294118 0 0 0 0 0.215686 0 0 0 0 0.121569 0 0 0 1 0"/>
      <feBlend mode="normal" in2="BackgroundImageFix" result="effect1_dropShadow_662_12589"/>
      <feBlend mode="normal" in="SourceGraphic" in2="effect1_dropShadow_662_12589" result="shape"/>
    </filter>
    <linearGradient id="paint0_linear_662_12589" x1="32.8331" y1="8.25099" x2="21.3488" y2="40.2741" gradientUnits="userSpaceOnUse">
      <stop stop-color="#FFA4A4"/>
      <stop offset="1" stop-color="#F24747"/>
    </linearGradient>
  </defs>
</svg>
