<svg width="14" height="56" viewBox="0 0 14 56" fill="none" xmlns="http://www.w3.org/2000/svg">
  <g clip-path="url(#clip0_68_5856)">
    <path d="M8.29613 34.7813L9.20655 35.1949L8.29611 34.7813C8.03884 35.3475 8.0596 36.0012 8.35238 36.55L11.7475 42.9139L8.89982 45.4062C8.24029 45.9835 8.03344 46.9229 8.3895 47.7237L11.4661 54.6438L-205.641 54.6714L-204.154 49.8351C-204.007 49.3592 -204.044 48.8459 -204.256 48.3954L-207.827 40.8098L-204.693 36.8918C-204.13 36.1881 -204.108 35.1948 -204.638 34.4661L-207.78 30.1469L-204.412 25.0941C-204.1 24.6252 -203.999 24.0462 -204.136 23.4996L-205.719 17.1715L10.1399 17.1439L8.15493 23.4988C8.01482 23.9473 8.03715 24.4308 8.21791 24.8645L10.4112 30.1265L8.29613 34.7813Z" fill="#FFB050" stroke="#4B371F" stroke-width="2"/>
  </g>
  <defs>
    <clipPath id="clip0_68_5856">
      <rect width="14" height="56" fill="white"/>
    </clipPath>
  </defs>
</svg>
