<svg width="39" height="57" viewBox="0 0 39 57" fill="none" xmlns="http://www.w3.org/2000/svg">
  <g filter="url(#filter0_d_662_13790)">
    <mask id="path-1-outside-1_662_13790" maskUnits="userSpaceOnUse" x="0.42041" y="0" width="36" height="55" fill="black">
      <rect fill="white" x="0.42041" width="36" height="55"/>
      <path fill-rule="evenodd" clip-rule="evenodd" d="M9.79828 5.82417C9.79828 6.87287 10.2204 7.82297 10.904 8.51384C7.47011 11.3312 5.88515 15.8223 5.20903 19.8791L5.12859 19.9257C4.31909 20.3936 2.5513 21.4154 3.10574 24.3725C3.55469 26.7669 5.92839 28.6342 10.2849 29.3328C7.9043 31.3158 5.44193 35.6059 4.69613 37.4704C3.16648 41.2945 4.4311 42.5143 6.7256 42.5143C6.56072 41.8547 6.52924 41.1189 6.60358 40.3386C6.91718 37.0467 9.114 32.9644 11.1234 30.4913L11.277 29.4676L11.2776 29.4677L11.1242 30.4904C9.11477 32.9635 6.91795 37.0459 6.60435 40.3377C6.53001 41.118 6.56149 41.8539 6.72637 42.5134C7.02392 43.3861 7.77802 44.2574 7.77802 44.2574L8.54285 49.898C7.3 50.2491 6.91758 52.9574 8.54285 52.9574H14.5659C15.8088 52.9574 16.3824 49.3244 16.3824 47.1255C16.3824 47.1255 17.5296 48.6238 18.0077 49.8667C16.3824 50.5359 16.3824 52.9574 18.4857 52.9574C19.1766 52.9574 19.6509 52.9677 20.132 52.9782C21.1156 52.9996 22.128 53.0216 25.0788 52.9574C26.3842 52.929 26.8961 50.4475 27.0898 48.1423C27.3616 48.2278 27.651 48.2739 27.951 48.2739C29.5351 48.2739 30.8192 46.9898 30.8192 45.4058C30.8192 45.247 30.8062 45.0912 30.7814 44.9394C32.3312 44.3271 33.594 43.0472 33.6816 40.7264C33.8643 35.8839 27.3707 30.5202 25.3681 29.8228C25.2512 29.7821 25.1343 29.7482 25.018 29.7208C24.9705 29.5861 24.9308 29.469 24.9 29.3715C27.9125 28.9635 30.5554 28.0208 32.4438 25.9021C36.3478 21.5219 33.6885 16.098 31.1482 11.7095C32.5582 10.902 33.5083 9.38263 33.5083 7.64133C33.5083 5.0541 31.4109 2.95673 28.8237 2.95673C26.6333 2.95673 24.794 4.46005 24.2813 6.49121C22.6005 5.92581 20.663 5.61422 18.4979 5.72958C18.1383 5.74873 17.788 5.7789 17.4466 5.81958C17.4441 3.70966 15.733 2 13.6224 2C11.5104 2 9.79828 3.71214 9.79828 5.82417Z"/>
    </mask>
    <path fill-rule="evenodd" clip-rule="evenodd" d="M9.79828 5.82417C9.79828 6.87287 10.2204 7.82297 10.904 8.51384C7.47011 11.3312 5.88515 15.8223 5.20903 19.8791L5.12859 19.9257C4.31909 20.3936 2.5513 21.4154 3.10574 24.3725C3.55469 26.7669 5.92839 28.6342 10.2849 29.3328C7.9043 31.3158 5.44193 35.6059 4.69613 37.4704C3.16648 41.2945 4.4311 42.5143 6.7256 42.5143C6.56072 41.8547 6.52924 41.1189 6.60358 40.3386C6.91718 37.0467 9.114 32.9644 11.1234 30.4913L11.277 29.4676L11.2776 29.4677L11.1242 30.4904C9.11477 32.9635 6.91795 37.0459 6.60435 40.3377C6.53001 41.118 6.56149 41.8539 6.72637 42.5134C7.02392 43.3861 7.77802 44.2574 7.77802 44.2574L8.54285 49.898C7.3 50.2491 6.91758 52.9574 8.54285 52.9574H14.5659C15.8088 52.9574 16.3824 49.3244 16.3824 47.1255C16.3824 47.1255 17.5296 48.6238 18.0077 49.8667C16.3824 50.5359 16.3824 52.9574 18.4857 52.9574C19.1766 52.9574 19.6509 52.9677 20.132 52.9782C21.1156 52.9996 22.128 53.0216 25.0788 52.9574C26.3842 52.929 26.8961 50.4475 27.0898 48.1423C27.3616 48.2278 27.651 48.2739 27.951 48.2739C29.5351 48.2739 30.8192 46.9898 30.8192 45.4058C30.8192 45.247 30.8062 45.0912 30.7814 44.9394C32.3312 44.3271 33.594 43.0472 33.6816 40.7264C33.8643 35.8839 27.3707 30.5202 25.3681 29.8228C25.2512 29.7821 25.1343 29.7482 25.018 29.7208C24.9705 29.5861 24.9308 29.469 24.9 29.3715C27.9125 28.9635 30.5554 28.0208 32.4438 25.9021C36.3478 21.5219 33.6885 16.098 31.1482 11.7095C32.5582 10.902 33.5083 9.38263 33.5083 7.64133C33.5083 5.0541 31.4109 2.95673 28.8237 2.95673C26.6333 2.95673 24.794 4.46005 24.2813 6.49121C22.6005 5.92581 20.663 5.61422 18.4979 5.72958C18.1383 5.74873 17.788 5.7789 17.4466 5.81958C17.4441 3.70966 15.733 2 13.6224 2C11.5104 2 9.79828 3.71214 9.79828 5.82417Z" fill="#E49F63"/>
    <path d="M10.904 8.51384L12.3257 7.10712L13.8697 8.66759L12.1726 10.06L10.904 8.51384ZM5.20903 19.8791L7.18182 20.2079L7.02697 21.137L6.21208 21.6094L5.20903 19.8791ZM5.12859 19.9257L6.13164 21.656L6.12947 21.6573L5.12859 19.9257ZM3.10574 24.3725L1.14 24.741L3.10574 24.3725ZM10.2849 29.3328L10.6015 27.358L14.9443 28.0545L11.5649 30.8695L10.2849 29.3328ZM4.69613 37.4704L2.83917 36.7277V36.7276L4.69613 37.4704ZM6.7256 42.5143L8.66588 42.0292L9.28716 44.5143H6.7256V42.5143ZM6.60358 40.3386L8.59456 40.5282L6.60358 40.3386ZM11.1234 30.4913L13.1013 30.788L13.0202 31.3284L12.6756 31.7525L11.1234 30.4913ZM11.277 29.4676L9.29909 29.1709L9.58503 27.2647L11.5005 27.4801L11.277 29.4676ZM11.2776 29.4677L11.5011 27.4802L13.5633 27.7121L13.2555 29.7644L11.2776 29.4677ZM11.1242 30.4904L13.102 30.7871L13.021 31.3275L12.6764 31.7516L11.1242 30.4904ZM6.60435 40.3377L8.59534 40.5273L6.60435 40.3377ZM6.72637 42.5134L4.83336 43.1587L4.80637 43.0796L4.78609 42.9985L6.72637 42.5134ZM7.77802 44.2574L9.29024 42.9485L9.67988 43.3987L9.75988 43.9887L7.77802 44.2574ZM8.54285 49.898L10.5247 49.6293L10.7581 51.3506L9.08649 51.8227L8.54285 49.898ZM16.3824 47.1255H14.3824V41.2237L17.9704 45.9096L16.3824 47.1255ZM18.0077 49.8667L19.8744 49.1487L20.5757 50.9722L18.7691 51.7161L18.0077 49.8667ZM20.132 52.9782L20.0885 54.9777H20.0885L20.132 52.9782ZM25.0788 52.9574L25.0353 50.9579L25.0788 52.9574ZM27.0898 48.1423L25.0968 47.9749L25.306 45.485L27.6897 46.2344L27.0898 48.1423ZM30.7814 44.9394L28.8076 45.2622L28.5475 43.6716L30.0465 43.0793L30.7814 44.9394ZM33.6816 40.7264L31.683 40.651L33.6816 40.7264ZM25.3681 29.8228L24.7103 31.7115L24.7103 31.7115L25.3681 29.8228ZM25.018 29.7208L24.5593 31.6675L23.4959 31.4169L23.1321 30.3867L25.018 29.7208ZM24.9 29.3715L22.9925 29.9725L22.2791 27.7082L24.6316 27.3896L24.9 29.3715ZM32.4438 25.9021L33.9368 27.2329H33.9368L32.4438 25.9021ZM31.1482 11.7095L29.4173 12.7114L28.4106 10.9724L30.1543 9.97387L31.1482 11.7095ZM24.2813 6.49121L26.2205 6.98068L25.6916 9.07578L23.6436 8.38683L24.2813 6.49121ZM18.4979 5.72958L18.6043 7.72674H18.6043L18.4979 5.72958ZM17.4466 5.81958L17.6832 7.80553L15.4493 8.07171L15.4466 5.82193L17.4466 5.81958ZM9.48235 9.92056C8.44332 8.87049 7.79828 7.4207 7.79828 5.82417H11.7983C11.7983 6.32503 11.9975 6.77546 12.3257 7.10712L9.48235 9.92056ZM3.23625 19.5503C3.94251 15.3127 5.64631 10.2406 9.63543 6.96766L12.1726 10.06C9.29391 12.4219 7.8278 16.332 7.18182 20.2079L3.23625 19.5503ZM4.12554 18.1954L4.20599 18.1488L6.21208 21.6094L6.13164 21.656L4.12554 18.1954ZM1.14 24.741C0.774742 22.793 1.15258 21.244 1.96196 20.0763C2.71563 18.989 3.72324 18.428 4.12771 18.1942L6.12947 21.6573C5.72445 21.8914 5.44341 22.0752 5.24941 22.355C5.11114 22.5545 4.8823 22.9949 5.07149 24.0039L1.14 24.741ZM9.96819 31.3076C5.31715 30.5617 1.82553 28.3972 1.14 24.741L5.07149 24.0039C5.28385 25.1365 6.53963 26.7067 10.6015 27.358L9.96819 31.3076ZM2.83917 36.7276C3.27365 35.6415 4.14485 33.9857 5.19892 32.3587C6.24273 30.7474 7.58331 28.9802 9.0048 27.7961L11.5649 30.8695C10.6059 31.6684 9.52497 33.0378 8.55601 34.5335C7.5973 36.0134 6.86441 37.4349 6.55308 38.2132L2.83917 36.7276ZM6.7256 44.5143C5.35166 44.5143 3.45186 44.1545 2.50668 42.3573C1.65624 40.7403 2.03876 38.7287 2.83917 36.7277L6.55308 38.2132C6.21378 39.0615 6.07364 39.6597 6.03664 40.0572C5.99997 40.4511 6.07292 40.5449 6.04694 40.4954C5.92529 40.2641 5.80504 40.5143 6.7256 40.5143V44.5143ZM8.59456 40.5282C8.53567 41.1464 8.56981 41.6449 8.66588 42.0292L4.78531 42.9993C4.55164 42.0646 4.52281 41.0913 4.61259 40.1489L8.59456 40.5282ZM12.6756 31.7525C10.7978 34.0636 8.85635 37.7803 8.59456 40.5282L4.61259 40.1489C4.978 36.3132 7.43022 31.8651 9.57117 29.2301L12.6756 31.7525ZM13.2548 29.7643L13.1013 30.788L9.14552 30.1946L9.29909 29.1709L13.2548 29.7643ZM11.0541 31.4551L11.0534 31.4551L11.5005 27.4801L11.5011 27.4802L11.0541 31.4551ZM9.14629 30.1937L9.29971 29.171L13.2555 29.7644L13.102 30.7871L9.14629 30.1937ZM4.61336 40.148C4.97877 36.3123 7.43099 31.8642 9.57194 29.2292L12.6764 31.7516C10.7985 34.0628 8.85712 37.7794 8.59534 40.5273L4.61336 40.148ZM4.78609 42.9985C4.55241 42.0637 4.52358 41.0904 4.61336 40.148L8.59534 40.5273C8.53644 41.1455 8.57058 41.644 8.66665 42.0283L4.78609 42.9985ZM7.77802 44.2574C6.26579 45.5663 6.2656 45.566 6.2654 45.5658C6.26533 45.5657 6.26513 45.5655 6.26499 45.5653C6.26471 45.565 6.26442 45.5647 6.26411 45.5643C6.26351 45.5636 6.26285 45.5629 6.26215 45.562C6.26074 45.5604 6.25915 45.5586 6.25737 45.5565C6.25382 45.5523 6.24953 45.5473 6.24453 45.5414C6.23456 45.5297 6.22176 45.5145 6.20645 45.496C6.17589 45.4592 6.13507 45.4093 6.08654 45.3479C5.99013 45.2259 5.85998 45.0547 5.71797 44.849C5.45145 44.463 5.06929 43.8508 4.83336 43.1587L8.61938 41.868C8.681 42.0487 8.82467 42.3085 9.00958 42.5763C9.09329 42.6975 9.17027 42.7987 9.22454 42.8674C9.25136 42.9013 9.27177 42.9262 9.28361 42.9404C9.28951 42.9475 9.29321 42.9519 9.29442 42.9533C9.29502 42.9541 9.295 42.954 9.29432 42.9532C9.29398 42.9528 9.29347 42.9522 9.29279 42.9515C9.29245 42.9511 9.29207 42.9506 9.29165 42.9501C9.29143 42.9499 9.29121 42.9496 9.29098 42.9494C9.29086 42.9492 9.29067 42.949 9.29062 42.9489C9.29043 42.9487 9.29024 42.9485 7.77802 44.2574ZM6.56099 50.1668L5.79615 44.5261L9.75988 43.9887L10.5247 49.6293L6.56099 50.1668ZM8.54285 54.9574C7.49387 54.9574 6.57761 54.4754 6.01937 53.6397C5.52674 52.9023 5.42896 52.0714 5.47169 51.427C5.51575 50.7625 5.7203 50.0757 6.08315 49.4817C6.43942 48.8984 7.05725 48.2394 7.99921 47.9733L9.08649 51.8227C9.24625 51.7776 9.35582 51.7043 9.41716 51.652C9.44753 51.6261 9.46753 51.6043 9.47916 51.5903C9.49082 51.5763 9.49607 51.5678 9.49678 51.5667C9.49714 51.5661 9.488 51.5817 9.4784 51.6127C9.46891 51.6433 9.46423 51.672 9.46292 51.6917C9.45784 51.7683 9.49152 51.6364 9.34546 51.4178C9.26223 51.2932 9.13158 51.1621 8.9534 51.0688C8.77635 50.976 8.62314 50.9574 8.54285 50.9574V54.9574ZM14.5659 54.9574H8.54285V50.9574H14.5659V54.9574ZM18.3824 47.1255C18.3824 48.3577 18.2258 49.9839 17.8794 51.3557C17.7097 52.0275 17.462 52.7726 17.0818 53.3963C16.7487 53.9429 15.9575 54.9574 14.5659 54.9574V50.9574C13.7958 50.9574 13.5424 51.5178 13.6663 51.3144C13.7432 51.1883 13.872 50.8877 14.0011 50.3764C14.2522 49.3819 14.3824 48.0922 14.3824 47.1255H18.3824ZM16.141 50.5847C15.9796 50.1651 15.6671 49.6219 15.3419 49.1247C15.1882 48.8896 15.0473 48.6884 14.9456 48.547C14.895 48.4767 14.8547 48.4221 14.8283 48.3865C14.8151 48.3688 14.8054 48.3559 14.7996 48.3482C14.7967 48.3443 14.7947 48.3418 14.7939 48.3407C14.7934 48.3401 14.7933 48.3399 14.7933 48.34C14.7934 48.34 14.7935 48.3402 14.7937 48.3404C14.7938 48.3405 14.7939 48.3407 14.794 48.3408C14.7941 48.3409 14.7942 48.3411 14.7942 48.3411C14.7943 48.3412 14.7944 48.3414 16.3824 47.1255C17.9704 45.9096 17.9705 45.9098 17.9706 45.91C17.9707 45.91 17.9708 45.9102 17.9709 45.9103C17.9711 45.9106 17.9713 45.9109 17.9715 45.9112C17.972 45.9118 17.9725 45.9124 17.9731 45.9132C17.9743 45.9148 17.9758 45.9167 17.9775 45.919C17.981 45.9236 17.9856 45.9297 17.9912 45.9371C18.0025 45.952 18.0179 45.9725 18.0369 45.9981C18.0751 46.0494 18.1282 46.1215 18.1926 46.2111C18.321 46.3895 18.4968 46.6405 18.6896 46.9354C19.0575 47.498 19.5577 48.3254 19.8744 49.1487L16.141 50.5847ZM18.4857 54.9574C17.5688 54.9574 16.676 54.6867 15.9753 54.0713C15.2781 53.459 14.9256 52.6387 14.8559 51.8358C14.7206 50.2747 15.6269 48.6841 17.2462 48.0173L18.7691 51.7161C18.7632 51.7185 18.8569 51.6733 18.841 51.4902C18.8311 51.3763 18.7713 51.2033 18.6149 51.0659C18.455 50.9254 18.3509 50.9574 18.4857 50.9574V54.9574ZM20.0885 54.9777C19.61 54.9673 19.1537 54.9574 18.4857 54.9574V50.9574C19.1994 50.9574 19.6917 50.9681 20.1755 50.9787L20.0885 54.9777ZM25.1223 54.9569C22.142 55.0218 21.1006 54.9997 20.0885 54.9777L20.1755 50.9787C21.1307 50.9994 22.1141 51.0214 25.0353 50.9579L25.1223 54.9569ZM29.0828 48.3098C28.982 49.5094 28.7896 50.9055 28.3914 52.0572C28.1939 52.6283 27.8997 53.2787 27.4325 53.8217C26.9353 54.3995 26.162 54.9343 25.1223 54.9569L25.0353 50.9579C24.6483 50.9663 24.4284 51.1802 24.4004 51.2128C24.3938 51.2205 24.4182 51.1934 24.4622 51.1084C24.5053 51.0253 24.5564 50.9078 24.611 50.7501C24.8435 50.0777 25.0039 49.0804 25.0968 47.9749L29.0828 48.3098ZM27.951 50.2739C27.4451 50.2739 26.9536 50.1961 26.4899 50.0503L27.6897 46.2344C27.7697 46.2596 27.8568 46.2739 27.951 46.2739V50.2739ZM32.8192 45.4058C32.8192 48.0944 30.6396 50.2739 27.951 50.2739V46.2739C28.4305 46.2739 28.8192 45.8852 28.8192 45.4058H32.8192ZM32.7552 44.6166C32.7974 44.8747 32.8192 45.1384 32.8192 45.4058H28.8192C28.8192 45.3555 28.8151 45.3077 28.8076 45.2622L32.7552 44.6166ZM35.6801 40.8018C35.6226 42.3277 35.1676 43.6341 34.3738 44.6816C33.5895 45.7164 32.5596 46.3873 31.5164 46.7995L30.0465 43.0793C30.553 42.8792 30.9293 42.604 31.1858 42.2656C31.4327 41.9398 31.653 41.4458 31.683 40.651L35.6801 40.8018ZM26.0259 27.9341C26.834 28.2155 27.8195 28.8398 28.7501 29.5492C29.7289 30.2954 30.8127 31.2636 31.8234 32.3739C33.7492 34.4897 35.8027 37.5537 35.6801 40.8018L31.683 40.651C31.7431 39.0566 30.6412 37.0176 28.8653 35.0665C28.0251 34.1434 27.1214 33.3373 26.3251 32.7303C25.4806 32.0865 24.9035 31.7788 24.7103 31.7115L26.0259 27.9341ZM25.4767 27.7741C25.66 27.8173 25.8434 27.8705 26.0259 27.9341L24.7103 31.7115C24.659 31.6936 24.6085 31.6791 24.5593 31.6675L25.4767 27.7741ZM26.8076 28.7705C26.8288 28.8379 26.8603 28.9314 26.9039 29.0549L23.1321 30.3867C23.0806 30.2408 23.0327 30.1002 22.9925 29.9725L26.8076 28.7705ZM33.9368 27.2329C31.5962 29.859 28.4043 30.9151 25.1685 31.3534L24.6316 27.3896C27.4208 27.0118 29.5146 26.1827 30.9507 24.5714L33.9368 27.2329ZM32.8791 10.7075C34.1497 12.9026 35.6074 15.6075 36.1731 18.4137C36.761 21.3294 36.4016 24.4675 33.9368 27.2329L30.9507 24.5714C32.39 22.9566 32.6529 21.1926 32.252 19.2042C31.8291 17.1062 30.687 14.9049 29.4173 12.7114L32.8791 10.7075ZM30.1543 9.97387C30.9676 9.50817 31.5083 8.63666 31.5083 7.64133H35.5083C35.5083 10.1286 34.1488 12.2959 32.142 13.445L30.1543 9.97387ZM31.5083 7.64133C31.5083 6.15866 30.3063 4.95673 28.8237 4.95673V0.956727C32.5155 0.956727 35.5083 3.94953 35.5083 7.64133H31.5083ZM28.8237 4.95673C27.5711 4.95673 26.5144 5.81637 26.2205 6.98068L22.3421 6.00174C23.0736 3.10372 25.6954 0.956727 28.8237 0.956727V4.95673ZM18.3914 3.73241C20.8155 3.60326 23.0052 3.95183 24.919 4.59559L23.6436 8.38683C22.1958 7.8998 20.5105 7.62518 18.6043 7.72674L18.3914 3.73241ZM17.21 3.83362C17.5956 3.78767 17.9894 3.75383 18.3914 3.73241L18.6043 7.72674C18.2872 7.74364 17.9804 7.77013 17.6832 7.80553L17.21 3.83362ZM13.6224 0C16.8367 0 19.4428 2.60379 19.4466 5.81723L15.4466 5.82193C15.4454 4.81553 14.6292 4 13.6224 4V0ZM7.79828 5.82417C7.79828 2.60757 10.4059 0 13.6224 0V4C12.615 4 11.7983 4.81671 11.7983 5.82417H7.79828Z" fill="#4B371F" mask="url(#path-1-outside-1_662_13790)"/>
    <path d="M26.0001 29.9999C21.6001 31.9999 14.5001 31 8.00009 29.9999C6.00009 30.5 4.5 34.5 4.5 34.5C5.5 36.0001 7 37 7 37C6.49991 39.5 5.5 43 6.50009 44.5C12.5001 48 26.0001 47 28.5 45C28.5 45 27.5 40 27.5 38.5C27.5 38.5 31 38 33.5001 35.9999C33.0001 34 30.5001 29.4999 26.0001 29.9999Z" fill="white"/>
    <path d="M28.5 45C28.5 45 27.5 40 27.5 38.5C27.5 38.5 31 38 33.5001 35.9999C33.0001 34 30.5001 29.4999 26.0001 29.9999C21.6001 31.9999 14.5001 31 8.00009 29.9999C6.00009 30.5 4.5 34.5 4.5 34.5C5.5 36.0001 7 37 7 37C6.49991 39.5 5.5 43 6.50009 44.5C12.5001 48 26.0001 47 28.5 45ZM28.5 45C29.1667 45.6667 30.9 46.2 32.5 45" stroke="#4B371F" stroke-width="2" stroke-linecap="round"/>
    <path d="M12.4353 15.3331C11.0632 13 3.57379 12.4168 2.14451 13.5832C-0.71404 15.9164 2.14451 19.9993 6.71819 21.7492C10.0844 23.037 12.5215 20.5335 12.89 17.9591C14.1693 17.2601 16.8057 17.8615 17.964 18.2495C17.9939 20.5627 19.7649 22.9999 23.112 23C30.136 23.0002 32.4441 17.083 30.1361 15.3883C29.0171 13.9105 20.9141 13.4517 19.041 15.3884C18.8822 15.5525 18.7413 15.7293 18.618 15.9164C17.6192 14.9832 14.0801 15.1387 12.4353 15.3331Z" fill="#4B371F" stroke="#4B371F" stroke-width="2" stroke-linecap="round"/>
    <path d="M20 18.4999C20.5 16 21.9999 15.5 23.4999 15.5" stroke="white" stroke-width="2" stroke-linecap="round"/>
    <path d="M3 16.9999C3.5 14.5 4.99991 14 6.49992 14" stroke="white" stroke-width="2" stroke-linecap="round"/>
  </g>
  <defs>
    <filter id="filter0_d_662_13790" x="0" y="0" width="38.4194" height="57" filterUnits="userSpaceOnUse" color-interpolation-filters="sRGB">
      <feFlood flood-opacity="0" result="BackgroundImageFix"/>
      <feColorMatrix in="SourceAlpha" type="matrix" values="0 0 0 0 0 0 0 0 0 0 0 0 0 0 0 0 0 0 127 0" result="hardAlpha"/>
      <feOffset dx="2" dy="2"/>
      <feComposite in2="hardAlpha" operator="out"/>
      <feColorMatrix type="matrix" values="0 0 0 0 0.294118 0 0 0 0 0.215686 0 0 0 0 0.121569 0 0 0 1 0"/>
      <feBlend mode="normal" in2="BackgroundImageFix" result="effect1_dropShadow_662_13790"/>
      <feBlend mode="normal" in="SourceGraphic" in2="effect1_dropShadow_662_13790" result="shape"/>
    </filter>
  </defs>
</svg>
