<svg width="77" height="57" viewBox="0 0 77 57" fill="none" xmlns="http://www.w3.org/2000/svg">
  <g filter="url(#filter0_d_662_15168)">
    <mask id="path-1-outside-1_662_15168" maskUnits="userSpaceOnUse" x="0" y="0.691895" width="73" height="54" fill="black">
      <rect fill="white" y="0.691895" width="73" height="54"/>
      <path fill-rule="evenodd" clip-rule="evenodd" d="M69.9661 7.74731C69.7048 9.33483 68.5199 10.5604 66.9854 11.0498C67.8455 19.7433 64.9617 25.6005 62.2107 27.1825C62.5451 30.3515 61.6928 33.1105 61.0442 34.1088C60.2897 38.815 58.0044 41.2713 57.1363 41.6745L52.9757 42.3313L52.9691 42.3328C52.7218 42.2424 52.142 41.9898 51.7373 41.6827C51.6888 41.6872 51.6461 41.6895 51.6104 41.6893C51.6104 41.6893 43.8147 43.2474 43.4459 43.445L43.4383 43.4628L42.7904 43.4595L42.7904 43.4588C42.7994 41.6585 42.7166 40.0065 42.5757 38.4863C42.4788 37.4408 42.3543 36.4577 42.2132 35.5316C41.867 33.259 41.4207 31.3294 41.0354 29.6636L41.0353 29.6632L41.0353 29.6631L41.0353 29.663C40.902 29.087 40.7761 28.5425 40.6641 28.0263C39.9044 24.5239 38.2443 19.1979 36.1891 15.6895L36.1894 15.6894L36.189 15.6887L36.4769 15.6175L36.4781 15.6172C36.533 15.5652 36.613 15.5439 36.7157 15.5585L45.4041 13.4104C46.2788 13.2401 47.1838 13.1617 48.1015 13.3849C47.461 13.1637 46.8123 13.1186 46.1591 13.2298C46.1594 13.2197 46.1612 13.2087 46.1646 13.1969C46.2118 13.0321 46.5774 12.7006 47.6342 12.2781C48.1218 12.0831 48.7567 11.8688 49.5753 11.6424C51.8865 11.0035 55.0365 12.4885 57.5744 16.8719C58.3821 17.197 60.2369 18.9338 61.5426 23.3004C64.5282 20.8187 64.5169 14.2923 64.1164 11.0964C61.8565 10.4748 60.3649 8.39417 60.7217 6.2261C61.1058 3.89205 63.4866 2.34046 66.0393 2.76053C68.5921 3.1806 70.3502 5.41326 69.9661 7.74731ZM52.5248 41.5286C53.0835 41.4013 53.718 41.1836 53.9169 40.9337C54.0404 40.7785 54.4433 40.1944 54.8694 39.1813C54.4064 40.1485 53.9754 40.7148 53.8333 40.9016L53.817 40.923C53.6339 41.1646 53.0579 41.3865 52.5248 41.5286ZM18.0145 50.5357L13.9584 51.6946C13.0013 51.6946 9.89387 50.4297 7.22692 46.4793C5.99394 45.7067 3.2962 42.8866 2.36905 37.7873C1.44189 32.6879 2.47814 30.061 3.11215 29.385C3.56723 24.3403 5.79843 21.6665 8.16372 21.2723C9.0015 21.1327 9.66755 21.0596 10.1919 21.031H10.192C10.6482 21.0061 10.9972 21.0148 11.2588 21.0426C11.6949 21.0888 11.8882 21.1879 11.9304 21.2723C9.72317 21.8743 8.34974 24.1439 8.29131 28.7548C8.35154 24.1504 9.72459 21.8836 11.9303 21.282L20.6689 19.3625C20.756 19.3021 20.8387 19.2854 20.912 19.3086L21.2001 19.2454L21.2001 19.2449L21.7796 17.2162C21.7796 17.2162 23.5197 16.347 28.1555 15.188C32.7912 14.0291 34.8174 14.0291 34.8174 14.0291C36.8475 16.347 39.1654 21.5622 40.9038 29.6748C42.9998 39.4559 42.932 41.8437 42.3526 45.3205C42.3526 45.3205 39.4551 46.7692 35.6886 47.6384C31.922 48.5076 29.0229 48.5076 29.0229 48.5076L27.5752 47.0689L26.9965 47.3582L26.9974 47.3573L26.9964 47.3578L26.9831 47.3464C26.5762 47.3291 18.8839 49.3864 18.8839 49.3864L18.8776 49.3895C18.6441 49.8495 18.2062 50.3442 18.0148 50.5356L18.0145 50.5357Z"/>
    </mask>
    <path fill-rule="evenodd" clip-rule="evenodd" d="M69.9661 7.74731C69.7048 9.33483 68.5199 10.5604 66.9854 11.0498C67.8455 19.7433 64.9617 25.6005 62.2107 27.1825C62.5451 30.3515 61.6928 33.1105 61.0442 34.1088C60.2897 38.815 58.0044 41.2713 57.1363 41.6745L52.9757 42.3313L52.9691 42.3328C52.7218 42.2424 52.142 41.9898 51.7373 41.6827C51.6888 41.6872 51.6461 41.6895 51.6104 41.6893C51.6104 41.6893 43.8147 43.2474 43.4459 43.445L43.4383 43.4628L42.7904 43.4595L42.7904 43.4588C42.7994 41.6585 42.7166 40.0065 42.5757 38.4863C42.4788 37.4408 42.3543 36.4577 42.2132 35.5316C41.867 33.259 41.4207 31.3294 41.0354 29.6636L41.0353 29.6632L41.0353 29.6631L41.0353 29.663C40.902 29.087 40.7761 28.5425 40.6641 28.0263C39.9044 24.5239 38.2443 19.1979 36.1891 15.6895L36.1894 15.6894L36.189 15.6887L36.4769 15.6175L36.4781 15.6172C36.533 15.5652 36.613 15.5439 36.7157 15.5585L45.4041 13.4104C46.2788 13.2401 47.1838 13.1617 48.1015 13.3849C47.461 13.1637 46.8123 13.1186 46.1591 13.2298C46.1594 13.2197 46.1612 13.2087 46.1646 13.1969C46.2118 13.0321 46.5774 12.7006 47.6342 12.2781C48.1218 12.0831 48.7567 11.8688 49.5753 11.6424C51.8865 11.0035 55.0365 12.4885 57.5744 16.8719C58.3821 17.197 60.2369 18.9338 61.5426 23.3004C64.5282 20.8187 64.5169 14.2923 64.1164 11.0964C61.8565 10.4748 60.3649 8.39417 60.7217 6.2261C61.1058 3.89205 63.4866 2.34046 66.0393 2.76053C68.5921 3.1806 70.3502 5.41326 69.9661 7.74731ZM52.5248 41.5286C53.0835 41.4013 53.718 41.1836 53.9169 40.9337C54.0404 40.7785 54.4433 40.1944 54.8694 39.1813C54.4064 40.1485 53.9754 40.7148 53.8333 40.9016L53.817 40.923C53.6339 41.1646 53.0579 41.3865 52.5248 41.5286ZM18.0145 50.5357L13.9584 51.6946C13.0013 51.6946 9.89387 50.4297 7.22692 46.4793C5.99394 45.7067 3.2962 42.8866 2.36905 37.7873C1.44189 32.6879 2.47814 30.061 3.11215 29.385C3.56723 24.3403 5.79843 21.6665 8.16372 21.2723C9.0015 21.1327 9.66755 21.0596 10.1919 21.031H10.192C10.6482 21.0061 10.9972 21.0148 11.2588 21.0426C11.6949 21.0888 11.8882 21.1879 11.9304 21.2723C9.72317 21.8743 8.34974 24.1439 8.29131 28.7548C8.35154 24.1504 9.72459 21.8836 11.9303 21.282L20.6689 19.3625C20.756 19.3021 20.8387 19.2854 20.912 19.3086L21.2001 19.2454L21.2001 19.2449L21.7796 17.2162C21.7796 17.2162 23.5197 16.347 28.1555 15.188C32.7912 14.0291 34.8174 14.0291 34.8174 14.0291C36.8475 16.347 39.1654 21.5622 40.9038 29.6748C42.9998 39.4559 42.932 41.8437 42.3526 45.3205C42.3526 45.3205 39.4551 46.7692 35.6886 47.6384C31.922 48.5076 29.0229 48.5076 29.0229 48.5076L27.5752 47.0689L26.9965 47.3582L26.9974 47.3573L26.9964 47.3578L26.9831 47.3464C26.5762 47.3291 18.8839 49.3864 18.8839 49.3864L18.8776 49.3895C18.6441 49.8495 18.2062 50.3442 18.0148 50.5356L18.0145 50.5357Z" fill="white"/>
    <path d="M66.9854 11.0498L66.3777 9.14432L64.8358 9.63608L64.9951 11.2467L66.9854 11.0498ZM69.9661 7.74731L71.9395 8.07206V8.07205L69.9661 7.74731ZM62.2107 27.1825L61.2137 25.4488L60.0852 26.0977L60.2218 27.3924L62.2107 27.1825ZM61.0442 34.1088L59.3671 33.0192L59.1365 33.3742L59.0694 33.7922L61.0442 34.1088ZM57.1363 41.6745L57.4481 43.65L57.7248 43.6064L57.9789 43.4884L57.1363 41.6745ZM52.9757 42.3313L52.6638 40.3557L52.5905 40.3673L52.5181 40.3843L52.9757 42.3313ZM52.9691 42.3328L52.2823 44.2112L52.8442 44.4167L53.4267 44.2798L52.9691 42.3328ZM51.7373 41.6827L52.9465 40.0896L52.3264 39.6189L51.5513 39.6913L51.7373 41.6827ZM51.6104 41.6893L51.6204 39.6893L51.4175 39.6883L51.2184 39.7281L51.6104 41.6893ZM43.4459 43.445L42.5012 41.6822L41.883 42.0135L41.6071 42.6582L43.4459 43.445ZM43.4383 43.4628L43.4282 45.4627L44.7551 45.4694L45.277 44.2495L43.4383 43.4628ZM42.7904 43.4595L40.8072 43.7177L41.0328 45.4506L42.7803 45.4595L42.7904 43.4595ZM42.7904 43.4588L40.7904 43.4487L40.7897 43.5834L40.8071 43.717L42.7904 43.4588ZM42.5757 38.4863L40.5842 38.6709V38.6709L42.5757 38.4863ZM42.2132 35.5316L44.1904 35.2304L44.1904 35.2303L42.2132 35.5316ZM41.0354 29.6636L39.083 30.0975L39.0849 30.1059L39.0869 30.1143L41.0354 29.6636ZM41.0353 29.6631L39.0797 30.0822L39.0813 30.0896L39.0829 30.097L41.0353 29.6631ZM41.0353 29.663L42.9909 29.2439L42.9875 29.2281L42.9838 29.2123L41.0353 29.663ZM40.6641 28.0263L42.6187 27.6023L42.6187 27.6023L40.6641 28.0263ZM36.1891 15.6895L35.7099 13.7477L33.1096 14.3894L34.4634 16.7004L36.1891 15.6895ZM36.1894 15.6894L36.6685 17.6312L39.2697 16.9893L37.9148 14.678L36.1894 15.6894ZM36.189 15.6887L35.709 13.7472L33.1093 14.3899L34.4636 16.7002L36.189 15.6887ZM36.4769 15.6175L36.957 17.5591L36.9575 17.5589L36.4769 15.6175ZM36.4781 15.6172L36.9587 17.5586L37.4714 17.4317L37.8546 17.0682L36.4781 15.6172ZM36.7157 15.5585L36.4347 17.5387L36.8189 17.5932L37.1957 17.5L36.7157 15.5585ZM45.4041 13.4104L45.0219 11.4473L44.9727 11.4569L44.9241 11.4689L45.4041 13.4104ZM48.1015 13.3849L47.6287 15.3283L48.7544 11.4945L48.1015 13.3849ZM46.1591 13.2298L44.16 13.1723L44.0899 15.6107L46.4947 15.2014L46.1591 13.2298ZM46.1646 13.1969L48.0857 13.7531L48.0875 13.7469L46.1646 13.1969ZM47.6342 12.2781L46.8917 10.421L46.8917 10.421L47.6342 12.2781ZM49.5753 11.6424L50.1082 13.5701H50.1082L49.5753 11.6424ZM57.5744 16.8719L55.8436 17.8741L56.1888 18.4701L56.8278 18.7273L57.5744 16.8719ZM61.5426 23.3004L59.6264 23.8734L60.4935 26.7733L62.8211 24.8385L61.5426 23.3004ZM64.1164 11.0964L66.1009 10.8477L65.9348 9.52227L64.6468 9.168L64.1164 11.0964ZM60.7217 6.2261L58.7482 5.90136V5.90136L60.7217 6.2261ZM66.0393 2.76053L65.7146 4.73399V4.73399L66.0393 2.76053ZM53.9169 40.9337L55.4817 42.1792L55.4818 42.1792L53.9169 40.9337ZM52.5248 41.5286L52.0095 39.5961L52.9692 43.4786L52.5248 41.5286ZM54.8694 39.1813L56.713 39.9565L53.0654 38.3178L54.8694 39.1813ZM53.8333 40.9016L52.2418 39.6904L52.2409 39.6915L53.8333 40.9016ZM53.817 40.923L52.2247 39.7129L52.2231 39.7149L53.817 40.923ZM13.9584 51.6946V53.6946H14.2386L14.5079 53.6176L13.9584 51.6946ZM18.0145 50.5357L17.6126 48.5765L17.5381 48.5918L17.465 48.6127L18.0145 50.5357ZM7.22692 46.4793L8.88453 45.3603L8.64765 45.0094L8.2889 44.7846L7.22692 46.4793ZM2.36905 37.7873L0.401307 38.1451L2.36905 37.7873ZM3.11215 29.385L4.57099 30.7531L5.04218 30.2507L5.10407 29.5647L3.11215 29.385ZM8.16372 21.2723L7.83492 19.2995L8.16372 21.2723ZM10.1919 21.031V19.031H10.1374L10.083 19.034L10.1919 21.031ZM10.192 21.031V23.031H10.2466L10.301 23.028L10.192 21.031ZM11.2588 21.0426L11.0479 23.0314L11.0479 23.0314L11.2588 21.0426ZM11.9304 21.2723L12.4567 23.2018L14.8102 22.5598L13.7192 20.3779L11.9304 21.2723ZM8.29131 28.7548L6.29147 28.7294L10.2911 28.7809L8.29131 28.7548ZM11.9303 21.282L11.5012 19.3286L11.4523 19.3393L11.404 19.3525L11.9303 21.282ZM20.6689 19.3625L21.098 21.3159L21.4834 21.2313L21.8078 21.0065L20.6689 19.3625ZM20.912 19.3086L20.307 21.2149L20.8177 21.377L21.3411 21.2621L20.912 19.3086ZM21.2001 19.2454L21.6292 21.1988L23.0899 20.8779L23.1951 19.3861L21.2001 19.2454ZM21.2001 19.2449L19.277 18.6956L19.2197 18.8961L19.2051 19.1042L21.2001 19.2449ZM21.7796 17.2162L20.8859 15.427L20.0983 15.8204L19.8565 16.6669L21.7796 17.2162ZM28.1555 15.188L28.6405 17.1283L28.1555 15.188ZM34.8174 14.0291L36.3219 12.7114L35.7244 12.0291H34.8174V14.0291ZM40.9038 29.6748L42.8594 29.2557L40.9038 29.6748ZM42.3526 45.3205L43.247 47.1093L44.158 46.6539L44.3254 45.6492L42.3526 45.3205ZM35.6886 47.6384L36.1383 49.5871L35.6886 47.6384ZM29.0229 48.5076L27.6132 49.9262L28.1982 50.5076H29.0229V48.5076ZM27.5752 47.0689L28.9849 45.6502L27.9658 44.6375L26.6808 45.28L27.5752 47.0689ZM26.9965 47.3582L25.5436 45.9838L27.8909 49.1471L26.9965 47.3582ZM26.9974 47.3573L28.4503 48.7317L26.103 45.5684L26.9974 47.3573ZM26.9964 47.3578L25.6963 48.8776L26.7043 49.7399L27.8908 49.1466L26.9964 47.3578ZM26.9831 47.3464L28.2831 45.8266L27.7581 45.3775L27.068 45.3482L26.9831 47.3464ZM18.8839 49.3864L18.3672 47.4543L18.1761 47.5054L17.9988 47.5929L18.8839 49.3864ZM18.8776 49.3895L17.9925 47.596L17.3955 47.8906L17.0942 48.4842L18.8776 49.3895ZM18.0148 50.5356L18.4167 52.4948L19.0047 52.3742L19.4291 51.9498L18.0148 50.5356ZM67.5931 12.9552C69.7486 12.2678 71.5408 10.4949 71.9395 8.07206L67.9926 7.42256C67.8689 8.17473 67.2913 8.85297 66.3777 9.14432L67.5931 12.9552ZM63.2078 28.9163C65.1664 27.7899 66.8027 25.4221 67.841 22.4408C68.9039 19.3888 69.4311 15.4562 68.9757 10.8528L64.9951 11.2467C65.3998 15.3368 64.9152 18.6796 64.0635 21.1252C63.1872 23.6413 62.006 24.9931 61.2137 25.4488L63.2078 28.9163ZM62.7213 35.1984C63.2295 34.4163 63.6733 33.2143 63.954 31.8678C64.2433 30.4798 64.3913 28.7882 64.1997 26.9727L60.2218 27.3924C60.3646 28.7458 60.2536 30.0182 60.0382 31.0516C59.8141 32.1263 59.5076 32.803 59.3671 33.0192L62.7213 35.1984ZM57.9789 43.4884C58.5156 43.239 59.0209 42.8134 59.4458 42.3733C59.9021 41.9008 60.3789 41.2934 60.8342 40.5567C61.7476 39.0785 62.6001 37.038 63.019 34.4254L59.0694 33.7922C58.7338 35.8858 58.0664 37.4265 57.4315 38.4539C57.1126 38.9699 56.8082 39.3463 56.5683 39.5948C56.297 39.8758 56.191 39.9084 56.2937 39.8606L57.9789 43.4884ZM53.2875 44.3068L57.4481 43.65L56.8244 39.699L52.6638 40.3557L53.2875 44.3068ZM53.4267 44.2798L53.4333 44.2782L52.5181 40.3843L52.5116 40.3859L53.4267 44.2798ZM50.5281 43.2757C51.1625 43.7572 51.9549 44.0915 52.2823 44.2112L53.656 40.4544C53.6047 40.4357 53.4663 40.3797 53.3042 40.2989C53.1351 40.2147 53.0106 40.1383 52.9465 40.0896L50.5281 43.2757ZM51.6003 43.6893C51.7216 43.6899 51.8333 43.6824 51.9233 43.674L51.5513 39.6913C51.55 39.6915 51.5546 39.691 51.5645 39.6905C51.5739 39.69 51.5932 39.6892 51.6204 39.6893L51.6003 43.6893ZM44.3906 45.2079C44.1911 45.3148 44.0255 45.351 44.1516 45.3147C44.194 45.3025 44.2691 45.2825 44.3833 45.2542C44.6083 45.1985 44.9247 45.1255 45.3109 45.0397C46.0798 44.8689 47.0781 44.6579 48.073 44.4513C49.0662 44.2451 50.0488 44.0448 50.7835 43.896C51.1507 43.8217 51.4557 43.7602 51.6688 43.7174C51.7754 43.696 51.8589 43.6792 51.9157 43.6678C51.9441 43.6621 51.9659 43.6578 51.9805 43.6549C51.9878 43.6534 51.9933 43.6523 51.997 43.6516C51.9988 43.6512 52.0002 43.6509 52.0011 43.6508C52.0015 43.6507 52.0019 43.6506 52.0021 43.6506C52.0022 43.6505 52.0023 43.6505 52.0023 43.6505C52.0024 43.6505 52.0024 43.6505 51.6104 41.6893C51.2184 39.7281 51.2184 39.7281 51.2183 39.7281C51.2182 39.7281 51.2181 39.7281 51.218 39.7282C51.2177 39.7282 51.2174 39.7283 51.2169 39.7284C51.2159 39.7286 51.2144 39.7289 51.2125 39.7292C51.2087 39.73 51.203 39.7311 51.1956 39.7326C51.1806 39.7356 51.1585 39.7401 51.1298 39.7458C51.0722 39.7573 50.9879 39.7743 50.8806 39.7958C50.6659 39.839 50.359 39.9008 49.9896 39.9756C49.2512 40.1251 48.2617 40.3268 47.2599 40.5348C46.2598 40.7424 45.24 40.958 44.4435 41.1349C44.047 41.223 43.6938 41.3041 43.4219 41.3715C43.2877 41.4047 43.1574 41.4385 43.0451 41.4708C43.0165 41.479 42.7468 41.5506 42.5012 41.6822L44.3906 45.2079ZM45.277 44.2495L45.2846 44.2318L41.6071 42.6582L41.5996 42.676L45.277 44.2495ZM42.7803 45.4595L43.4282 45.4627L43.4484 41.4628L42.8006 41.4595L42.7803 45.4595ZM40.8071 43.717L40.8072 43.7177L44.7737 43.2012L44.7736 43.2005L40.8071 43.717ZM40.5842 38.6709C40.7195 40.1295 40.7991 41.7165 40.7904 43.4487L44.7903 43.4688C44.7997 41.6006 44.7138 39.8835 44.5672 38.3016L40.5842 38.6709ZM40.236 35.8327C40.3717 36.7235 40.4912 37.6676 40.5842 38.6709L44.5672 38.3016C44.4663 37.2141 44.3369 36.192 44.1904 35.2304L40.236 35.8327ZM39.0869 30.1143C39.4725 31.7814 39.9026 33.6439 40.236 35.8328L44.1904 35.2303C43.8315 32.8742 43.369 30.8774 42.984 29.2129L39.0869 30.1143ZM39.0829 30.0971L39.083 30.0975L42.9878 29.2297L42.9877 29.2293L39.0829 30.0971ZM39.0829 30.097L39.0829 30.0971L42.9877 29.2293L42.9877 29.2293L39.0829 30.097ZM39.0797 30.082L39.0797 30.0822L42.9909 29.2441L42.9909 29.2439L39.0797 30.082ZM38.7096 28.4503C38.825 28.9823 38.9542 29.5406 39.0867 30.1137L42.9838 29.2123C42.8499 28.6333 42.7272 28.1026 42.6187 27.6023L38.7096 28.4503ZM34.4634 16.7004C36.3667 19.9495 37.9707 25.044 38.7096 28.4503L42.6187 27.6023C41.8381 24.0038 40.1219 18.4463 37.9148 14.6786L34.4634 16.7004ZM35.7102 13.7476L35.7099 13.7477L36.6682 17.6312L36.6685 17.6312L35.7102 13.7476ZM34.4636 16.7002L34.464 16.7008L37.9148 14.678L37.9144 14.6773L34.4636 16.7002ZM35.9969 13.676L35.709 13.7472L36.669 17.6303L36.957 17.5591L35.9969 13.676ZM35.9975 13.6758L35.9964 13.6761L36.9575 17.5589L36.9587 17.5586L35.9975 13.6758ZM36.9968 13.5783C36.4839 13.5056 35.7243 13.5756 35.1017 14.1663L37.8546 17.0682C37.3416 17.5549 36.7422 17.5823 36.4347 17.5387L36.9968 13.5783ZM44.9241 11.4689L36.2357 13.617L37.1957 17.5L45.8841 15.352L44.9241 11.4689ZM48.5742 11.4416C47.2549 11.1207 46.0238 11.2522 45.0219 11.4473L45.7864 15.3736C46.5337 15.2281 47.1128 15.2028 47.6287 15.3283L48.5742 11.4416ZM46.4947 15.2014C46.83 15.1443 47.138 15.1681 47.4486 15.2754L48.7544 11.4945C47.784 11.1594 46.7946 11.0929 45.8236 11.2581L46.4947 15.2014ZM44.2435 12.6406C44.2003 12.79 44.1658 12.9693 44.16 13.1723L48.1583 13.2872C48.1531 13.47 48.1221 13.6274 48.0857 13.7531L44.2435 12.6406ZM46.8917 10.421C46.2831 10.6643 45.7846 10.9156 45.3947 11.1812C45.2 11.3139 44.9954 11.4751 44.8108 11.6706C44.6512 11.8398 44.3789 12.1673 44.2418 12.6468L48.0875 13.7469C48.026 13.9618 47.9387 14.1186 47.8781 14.2124C47.8151 14.31 47.7565 14.3773 47.7202 14.4157C47.6505 14.4896 47.6122 14.5106 47.6469 14.487C47.7157 14.4401 47.9285 14.3143 48.3767 14.1351L46.8917 10.421ZM49.0424 9.71475C48.1698 9.95597 47.4626 10.1927 46.8917 10.421L48.3767 14.1351C48.7811 13.9735 49.3435 13.7815 50.1082 13.5701L49.0424 9.71475ZM59.3053 15.8698C56.596 11.1905 52.6792 8.70935 49.0424 9.71475L50.1082 13.5701C51.0938 13.2977 53.477 13.7865 55.8436 17.8741L59.3053 15.8698ZM63.4588 22.7275C62.7534 20.3684 61.8751 18.6363 61.0001 17.4093C60.1676 16.2419 59.2284 15.3817 58.3211 15.0165L56.8278 18.7273C56.7281 18.6872 57.1202 18.8579 57.7434 19.7318C58.3242 20.5462 59.0262 21.8658 59.6264 23.8734L63.4588 22.7275ZM62.1319 11.3451C62.316 12.8139 62.4092 15.0649 62.1178 17.1951C61.8121 19.4297 61.1511 21.0251 60.2641 21.7624L62.8211 24.8385C64.9197 23.094 65.7459 20.1854 66.0808 17.7373C66.43 15.185 66.3173 12.5748 66.1009 10.8477L62.1319 11.3451ZM58.7482 5.90136C58.2009 9.2278 60.492 12.1737 63.586 13.0248L64.6468 9.168C63.2209 8.77578 62.529 7.56054 62.6952 6.55084L58.7482 5.90136ZM66.3641 0.78707C62.8915 0.21564 59.3384 2.31474 58.7482 5.90136L62.6952 6.55084C62.8731 5.46936 64.0816 4.46528 65.7146 4.73399L66.3641 0.78707ZM71.9395 8.07205C72.5297 4.48543 69.8366 1.3585 66.3641 0.78707L65.7146 4.73399C67.3475 5.0027 68.1706 6.34109 67.9926 7.42257L71.9395 8.07205ZM52.3522 39.6881C52.4411 39.5764 52.5231 39.5046 52.5701 39.4668C52.6192 39.4273 52.6548 39.4053 52.6674 39.3978C52.689 39.3848 52.6756 39.395 52.6115 39.4207C52.5522 39.4445 52.4731 39.4722 52.377 39.5009C52.282 39.5293 52.1808 39.5557 52.0803 39.5786L52.9692 43.4786C53.3168 43.3994 53.7217 43.2852 54.1001 43.1334C54.3684 43.0259 55.0264 42.7513 55.4817 42.1792L52.3522 39.6881ZM53.0257 38.4061C52.6604 39.2748 52.3462 39.6956 52.3521 39.6881L55.4818 42.1792C55.7347 41.8614 56.2263 41.114 56.713 39.9565L53.0257 38.4061ZM55.4249 42.1127C55.61 41.8695 56.1289 41.1822 56.6733 40.0448L53.0654 38.3178C52.6839 39.1148 52.3409 39.5601 52.2418 39.6904L55.4249 42.1127ZM55.4094 42.1331L55.4257 42.1117L52.2409 39.6915L52.2247 39.7129L55.4094 42.1331ZM53.04 43.4611C53.3716 43.3727 53.7545 43.2501 54.1121 43.0918C54.3715 42.9769 54.9858 42.692 55.411 42.1311L52.2231 39.7149C52.3053 39.6066 52.3818 39.5348 52.4279 39.4952C52.4757 39.4542 52.5115 39.43 52.5263 39.4204C52.5527 39.4033 52.5467 39.4103 52.4922 39.4344C52.4422 39.4566 52.3728 39.4838 52.2854 39.5133C52.1992 39.5424 52.1053 39.5706 52.0095 39.5961L53.04 43.4611ZM14.5079 53.6176L18.5639 52.4587L17.465 48.6127L13.409 49.7715L14.5079 53.6176ZM5.5693 47.5984C7.04985 49.7914 8.68264 51.2829 10.1338 52.2386C10.8571 52.715 11.5454 53.0649 12.1583 53.3013C12.7291 53.5214 13.3666 53.6946 13.9584 53.6946V49.6946C14.0717 49.6946 13.9619 49.7097 13.5974 49.5691C13.2752 49.4449 12.8405 49.2317 12.3339 48.8981C11.3253 48.2338 10.0709 47.1176 8.88453 45.3603L5.5693 47.5984ZM0.401307 38.1451C1.42128 43.7549 4.41999 47.0806 6.16493 48.1741L8.2889 44.7846C7.56789 44.3328 5.17112 42.0184 4.33679 37.4295L0.401307 38.1451ZM1.65332 28.0168C0.94679 28.7702 0.432415 30.0486 0.180693 31.6089C-0.083679 33.2475 -0.0958414 35.4107 0.401307 38.1451L4.33679 37.4295C3.90678 35.0645 3.94917 33.3645 4.12963 32.2459C4.32275 31.0489 4.6435 30.6758 4.57099 30.7531L1.65332 28.0168ZM7.83492 19.2995C4.11302 19.9198 1.60604 23.8201 1.12024 29.2053L5.10407 29.5647C5.52843 24.8605 7.48384 23.4132 8.49252 23.2451L7.83492 19.2995ZM10.083 19.034C9.46904 19.0675 8.72791 19.1507 7.83492 19.2995L8.49252 23.2451C9.27509 23.1146 9.86605 23.0518 10.3009 23.028L10.083 19.034ZM10.192 19.031H10.1919V23.031H10.192V19.031ZM11.4698 19.0537C11.0741 19.0118 10.6138 19.005 10.0831 19.034L10.301 23.028C10.6827 23.0072 10.9203 23.0179 11.0479 23.0314L11.4698 19.0537ZM13.7192 20.3779C13.3453 19.6301 12.6652 19.3544 12.4531 19.2737C12.1294 19.1506 11.7886 19.0875 11.4697 19.0537L11.0479 23.0314C11.1651 23.0439 11.139 23.0534 11.0316 23.0126C10.9766 22.9917 10.8566 22.9412 10.7124 22.839C10.5804 22.7454 10.3265 22.5366 10.1415 22.1667L13.7192 20.3779ZM10.2912 28.7801C10.3183 26.6351 10.6539 25.2609 11.0838 24.4245C11.4773 23.659 11.9421 23.3421 12.4567 23.2018L11.4041 19.3428C9.7114 19.8045 8.38591 20.9234 7.52626 22.5959C6.70303 24.1976 6.32272 26.2636 6.29147 28.7294L10.2912 28.7801ZM11.404 19.3525C9.71256 19.8138 8.38765 20.9315 7.52789 22.6022C6.70455 24.2022 6.3237 26.2659 6.29148 28.7286L10.2911 28.7809C10.3192 26.6393 10.6549 25.2674 11.0846 24.4325C11.4778 23.6683 11.9423 23.3518 12.4565 23.2115L11.404 19.3525ZM20.2398 17.4091L11.5012 19.3286L12.3593 23.2354L21.098 21.3159L20.2398 17.4091ZM21.517 17.4023C20.6833 17.1378 19.9594 17.4209 19.5299 17.7185L21.8078 21.0065C21.5526 21.1833 20.9941 21.433 20.307 21.2149L21.517 17.4023ZM20.771 17.2919L20.4829 17.3552L21.3411 21.2621L21.6292 21.1988L20.771 17.2919ZM19.2051 19.1042L19.205 19.1046L23.1951 19.3861L23.1951 19.3856L19.2051 19.1042ZM19.8565 16.6669L19.277 18.6956L23.1232 19.7942L23.7027 17.7655L19.8565 16.6669ZM27.6704 13.2478C25.2959 13.8414 23.6389 14.3668 22.5567 14.7531C22.0155 14.9464 21.6175 15.105 21.3451 15.2201C21.2088 15.2777 21.1039 15.3245 21.0282 15.3593C20.9903 15.3767 20.9596 15.3912 20.936 15.4025C20.9242 15.4082 20.9141 15.413 20.9058 15.4171C20.9016 15.4192 20.8979 15.421 20.8946 15.4227C20.8929 15.4235 20.8913 15.4242 20.8899 15.425C20.8892 15.4253 20.8885 15.4257 20.8878 15.426C20.8875 15.4262 20.887 15.4264 20.8868 15.4265C20.8863 15.4267 20.8859 15.427 21.7796 17.2162C22.6733 19.0054 22.6728 19.0056 22.6724 19.0058C22.6722 19.0059 22.6718 19.0061 22.6715 19.0063C22.6709 19.0066 22.6704 19.0068 22.6699 19.0071C22.6689 19.0076 22.6679 19.008 22.6671 19.0084C22.6655 19.0092 22.6643 19.0098 22.6636 19.0102C22.6621 19.0109 22.6624 19.0108 22.6645 19.0098C22.6686 19.0078 22.6799 19.0024 22.6986 18.9938C22.7361 18.9766 22.8034 18.9464 22.9027 18.9044C23.1014 18.8204 23.4283 18.6892 23.9015 18.5203C24.8483 18.1823 26.3793 17.6936 28.6405 17.1283L27.6704 13.2478ZM34.8174 14.0291C34.8174 12.0291 34.8169 12.0291 34.8163 12.0291C34.8161 12.0291 34.8155 12.0291 34.8151 12.0291C34.8143 12.0291 34.8134 12.0291 34.8126 12.0291C34.8108 12.0291 34.809 12.0291 34.807 12.0291C34.8031 12.0291 34.7986 12.0292 34.7937 12.0292C34.7838 12.0293 34.7719 12.0294 34.7581 12.0297C34.7304 12.0302 34.6948 12.0311 34.6511 12.0326C34.5637 12.0357 34.4439 12.0414 34.2907 12.052C33.9842 12.0731 33.5438 12.1137 32.9604 12.1915C31.7938 12.3471 30.0545 12.6517 27.6704 13.2478L28.6405 17.1283C30.8922 16.5654 32.4839 16.2905 33.4893 16.1564C33.9919 16.0894 34.3478 16.0575 34.5661 16.0425C34.6752 16.0349 34.75 16.0316 34.7915 16.0301C34.8122 16.0294 34.8247 16.0291 34.829 16.0291C34.8311 16.029 34.8312 16.029 34.8293 16.0291C34.8283 16.0291 34.8268 16.0291 34.8248 16.0291C34.8239 16.0291 34.8227 16.0291 34.8215 16.0291C34.8209 16.0291 34.8202 16.0291 34.8196 16.0291C34.8192 16.0291 34.8187 16.0291 34.8185 16.0291C34.818 16.0291 34.8174 16.0291 34.8174 14.0291ZM42.8594 29.2557C41.1046 21.0664 38.702 15.4288 36.3219 12.7114L33.3129 15.3468C34.9931 17.2652 37.2263 22.0581 38.9482 30.0938L42.8594 29.2557ZM44.3254 45.6492C44.9666 41.8013 44.9734 39.1212 42.8594 29.2557L38.9482 30.0938C41.0261 39.7907 40.8973 41.886 40.3798 44.9918L44.3254 45.6492ZM36.1383 49.5871C38.1435 49.1244 39.9068 48.5104 41.1661 48.0143C41.7979 47.7654 42.3082 47.5441 42.6649 47.3829C42.8433 47.3022 42.9837 47.2364 43.082 47.1895C43.1311 47.1661 43.1698 47.1473 43.1975 47.1338C43.2113 47.127 43.2224 47.1216 43.2307 47.1175C43.2348 47.1154 43.2382 47.1137 43.241 47.1124C43.2423 47.1117 43.2435 47.1111 43.2445 47.1106C43.245 47.1103 43.2455 47.1101 43.2459 47.1099C43.2461 47.1098 43.2464 47.1097 43.2465 47.1096C43.2468 47.1095 43.247 47.1093 42.3526 45.3205C41.4582 43.5316 41.4585 43.5315 41.4587 43.5314C41.4588 43.5313 41.459 43.5312 41.4591 43.5312C41.4593 43.5311 41.4595 43.531 41.4597 43.5309C41.46 43.5307 41.4601 43.5307 41.4601 43.5307C41.46 43.5307 41.4592 43.5311 41.4578 43.5318C41.4548 43.5333 41.4492 43.5361 41.4409 43.5401C41.4243 43.5482 41.397 43.5615 41.3596 43.5793C41.2847 43.6151 41.1693 43.6692 41.0172 43.738C40.7129 43.8755 40.2635 44.0707 39.7 44.2926C38.569 44.7382 37.0002 45.2831 35.2389 45.6896L36.1383 49.5871ZM29.0229 48.5076C29.0229 50.5076 29.0232 50.5076 29.0236 50.5076C29.0237 50.5076 29.024 50.5076 29.0242 50.5076C29.0247 50.5076 29.0252 50.5076 29.0258 50.5076C29.027 50.5076 29.0283 50.5076 29.0298 50.5076C29.0328 50.5075 29.0364 50.5075 29.0408 50.5075C29.0496 50.5075 29.0612 50.5074 29.0756 50.5073C29.1043 50.507 29.1439 50.5065 29.1941 50.5055C29.2943 50.5035 29.4366 50.4997 29.6169 50.4923C29.9772 50.4775 30.4905 50.4483 31.1243 50.3907C32.3897 50.2757 34.1484 50.0464 36.1383 49.5871L35.2389 45.6896C33.4622 46.0996 31.8881 46.3048 30.7623 46.4071C30.2006 46.4582 29.7536 46.4833 29.4527 46.4957C29.3023 46.5018 29.1887 46.5048 29.1157 46.5062C29.0792 46.507 29.0529 46.5073 29.0373 46.5074C29.0294 46.5075 29.0243 46.5075 29.0219 46.5076C29.0207 46.5076 29.0202 46.5076 29.0203 46.5076C29.0204 46.5076 29.0207 46.5076 29.0211 46.5076C29.0213 46.5076 29.0216 46.5076 29.0219 46.5076C29.022 46.5076 29.0223 46.5076 29.0224 46.5076C29.0227 46.5076 29.0229 46.5076 29.0229 48.5076ZM26.1654 48.4876L27.6132 49.9262L30.4327 47.0889L28.9849 45.6502L26.1654 48.4876ZM27.8909 49.1471L28.4696 48.8578L26.6808 45.28L26.1021 45.5694L27.8909 49.1471ZM25.5445 45.9828L25.5436 45.9838L28.4494 48.7327L28.4503 48.7317L25.5445 45.9828ZM27.8908 49.1466L27.8918 49.1461L26.103 45.5684L26.1019 45.5689L27.8908 49.1466ZM25.683 48.8663L25.6963 48.8776L28.2964 45.838L28.2831 45.8266L25.683 48.8663ZM18.8839 49.3864C19.4006 51.3185 19.4007 51.3185 19.4007 51.3185C19.4008 51.3184 19.4008 51.3184 19.4009 51.3184C19.4011 51.3183 19.4015 51.3182 19.4019 51.3181C19.4028 51.3179 19.4042 51.3175 19.406 51.317C19.4096 51.3161 19.415 51.3146 19.4222 51.3127C19.4366 51.3088 19.4581 51.3031 19.4861 51.2956C19.5422 51.2807 19.6247 51.2587 19.7299 51.2307C19.9402 51.1747 20.2413 51.0946 20.604 50.9986C21.3297 50.8065 22.3005 50.5508 23.2832 50.2958C24.2677 50.0404 25.2566 49.7876 26.0212 49.6006C26.4053 49.5066 26.7206 49.4322 26.9461 49.3828C27.0607 49.3577 27.1359 49.3426 27.1782 49.3351C27.3122 49.311 27.136 49.3547 26.8982 49.3446L27.068 45.3482C26.7793 45.336 26.4954 45.3937 26.4719 45.3979C26.3568 45.4186 26.2251 45.4459 26.0903 45.4754C25.8173 45.5352 25.4649 45.6187 25.0706 45.7152C24.2785 45.909 23.2681 46.1673 22.2786 46.424C21.2874 46.6812 20.3097 46.9387 19.5804 47.1318C19.2155 47.2284 18.9125 47.3089 18.7006 47.3653C18.5947 47.3936 18.5115 47.4158 18.4547 47.4309C18.4263 47.4385 18.4045 47.4443 18.3898 47.4482C18.3824 47.4502 18.3768 47.4517 18.373 47.4527C18.3711 47.4532 18.3697 47.4536 18.3687 47.4539C18.3682 47.454 18.3679 47.4541 18.3676 47.4542C18.3675 47.4542 18.3674 47.4542 18.3673 47.4542C18.3672 47.4543 18.3672 47.4543 18.8839 49.3864ZM19.7627 51.183L19.769 51.1798L17.9988 47.5929L17.9925 47.596L19.7627 51.183ZM19.4291 51.9498C19.6772 51.7017 20.2869 51.0317 20.661 50.2948L17.0942 48.4842C17.0628 48.5461 16.9854 48.6666 16.8631 48.8209C16.7471 48.9673 16.6407 49.0813 16.6006 49.1214L19.4291 51.9498ZM18.4164 52.4949L18.4167 52.4948L17.613 48.5764L17.6126 48.5765L18.4164 52.4949Z" fill="#4B371F" mask="url(#path-1-outside-1_662_15168)"/>
    <path d="M18.0147 50.5354L13.9584 51.6944C13.0013 51.6944 9.89387 50.4295 7.22692 46.4791C5.99394 45.7065 3.2962 42.8864 2.36905 37.7871C1.44189 32.6877 2.47814 30.0608 3.11215 29.3848C3.56723 24.3401 5.79843 21.6663 8.16372 21.2721C9.0015 21.1324 9.66755 21.0594 10.1919 21.0308C11.4086 20.9644 11.8628 21.1371 11.9303 21.2721C8.74322 22.1414 7.29454 26.4874 9.03295 36.3384C10.7714 46.1894 15.9866 49.3765 16.5661 49.6662C17.0296 49.898 18.4976 49.5696 18.8839 49.3765C18.6522 49.84 18.2079 50.3423 18.0147 50.5354Z" fill="#E5C17F"/>
    <path d="M18.0147 50.5354L13.9584 51.6944C13.0013 51.6944 9.89387 50.4295 7.22692 46.4791M18.0147 50.5354C18.2079 50.3423 18.6522 49.84 18.8839 49.3765C18.4976 49.5696 17.0296 49.898 16.5661 49.6662C15.9866 49.3765 10.7714 46.1894 9.03295 36.3384C7.29454 26.4874 8.74322 22.1414 11.9303 21.2721C11.8628 21.1371 11.4086 20.9644 10.1919 21.0308M18.0147 50.5354C15.6968 51.0183 9.90215 48.7391 7.58433 36.9179C5.26652 25.0967 8.55011 21.4976 10.1919 21.0308M7.22692 46.4791C5.85744 44.4506 4.60411 41.714 3.8177 38.0768C3.07668 34.6496 2.8983 31.7554 3.11215 29.3848M7.22692 46.4791C5.99394 45.7065 3.2962 42.8864 2.36905 37.7871C1.44189 32.6877 2.47814 30.0608 3.11215 29.3848M3.11215 29.3848C3.56723 24.3401 5.79843 21.6663 8.16372 21.2721C9.0015 21.1324 9.66755 21.0594 10.1919 21.0308" stroke="#4B371F" stroke-width="0.6" stroke-linecap="round" stroke-linejoin="round"/>
    <path d="M18.8843 49.3765C18.6525 49.84 18.2082 50.3423 18.0151 50.5354C15.6971 51.0183 9.90247 48.7391 7.58465 36.9179C5.26684 25.0967 8.55044 21.4976 10.1923 21.0308C11.4089 20.9644 11.8631 21.1371 11.9306 21.2721C8.74354 22.1414 7.29487 26.4874 9.03328 36.3384C10.7717 46.1894 15.9869 49.3765 16.5664 49.6662C17.03 49.898 18.498 49.5696 18.8843 49.3765Z" fill="#CB8F20"/>
    <path d="M52.9691 42.3324L57.1361 41.6746C58.0042 41.2713 60.2895 38.8151 61.044 34.1089C61.6926 33.1106 62.5449 30.3516 62.2105 27.1826C64.9834 25.588 67.8912 19.65 66.964 10.842L64.0825 10.8418C64.5138 13.9324 64.6097 20.7508 61.5424 23.3005C60.2367 18.9338 58.3819 17.197 57.5742 16.872C55.0363 12.4886 51.8863 11.0036 49.5751 11.6425C48.7565 11.8688 48.1216 12.0832 47.634 12.2781C46.5026 12.7305 46.1634 13.0785 46.1591 13.2293C49.4157 12.675 52.5605 16.0063 55.134 25.6728C57.7074 35.3393 54.3202 40.4268 53.9167 40.9337C53.594 41.3393 52.1243 41.6599 51.6925 41.6475C52.098 41.9702 52.7125 42.2385 52.9691 42.3324Z" fill="#E5C17F"/>
    <path d="M52.9691 42.3324L57.1361 41.6746C58.0042 41.2713 60.2895 38.8151 61.044 34.1089M52.9691 42.3324C52.7125 42.2385 52.098 41.9702 51.6925 41.6475C52.1243 41.6599 53.594 41.3393 53.9167 40.9337C54.3202 40.4269 57.7074 35.3393 55.134 25.6728C52.5605 16.0063 49.4158 12.675 46.1591 13.2293C46.1634 13.0785 46.5026 12.7305 47.634 12.2781M52.9691 42.3324C55.2747 41.7938 59.5698 37.2855 56.6919 25.588C53.8139 13.8906 49.3197 12.0098 47.634 12.2781M61.044 34.1089C61.4315 31.6922 61.4152 28.6822 60.5962 25.0523C59.8244 21.6319 58.7669 18.9319 57.5742 16.872M61.044 34.1089C61.6926 33.1106 62.5449 30.3516 62.2105 27.1826M57.5742 16.872C55.0363 12.4886 51.8863 11.0036 49.5751 11.6425C48.7565 11.8688 48.1216 12.0832 47.634 12.2781M57.5742 16.872C58.3819 17.197 60.2367 18.9338 61.5424 23.3005M62.2105 27.1826C62.2105 27.1826 62.0257 25.0912 61.7879 24.1792C61.7087 23.8752 61.6267 23.5824 61.5424 23.3005M62.2105 27.1826C64.9834 25.588 67.8912 19.65 66.964 10.842L64.0825 10.8418C64.5138 13.9324 64.6097 20.7508 61.5424 23.3005" stroke="#4B371F" stroke-width="0.6" stroke-linecap="round" stroke-linejoin="round"/>
    <path d="M51.6927 41.6474C52.0982 41.9702 52.7127 42.2385 52.9692 42.3323C55.2748 41.7938 59.57 37.2854 56.692 25.588C53.814 13.8906 49.3198 12.0098 47.6341 12.2781C46.5028 12.7304 46.1636 13.0784 46.1592 13.2293C49.4159 12.675 52.5607 16.0062 55.1341 25.6728C57.7075 35.3393 54.3204 40.4268 53.9169 40.9337C53.5941 41.3392 52.1244 41.6599 51.6927 41.6474Z" fill="#CB8F20"/>
    <path d="M22.6508 32.2883C21.7816 28.8115 20.9124 23.3008 21.2021 19.2451L20.9124 19.3088L11.9306 21.2817C8.7435 22.151 7.29483 26.497 9.03324 36.348C10.7716 46.199 15.9869 49.3861 16.5663 49.6758C17.0299 49.9076 18.4979 49.5792 18.8842 49.3861C18.8842 49.3861 27.19 47.1648 26.9968 47.3579L27.5763 47.0682C24.3892 40.6934 23.52 35.7651 22.6508 32.2883Z" fill="#FF7ABF" stroke="#4B371F" stroke-linecap="round" stroke-linejoin="round"/>
    <path d="M22.6503 32.2883C21.7811 28.8115 20.9119 23.3008 21.2016 19.2451L20.9119 19.3088C20.2358 19.0942 18.7626 22.2846 20.3324 31.7032C21.6362 39.526 25.0647 45.7131 26.9963 47.3579L27.5757 47.0682C24.3887 40.6934 23.5195 35.7651 22.6503 32.2883Z" fill="#AC1D67"/>
    <path d="M40.6643 28.026C39.9045 24.5237 38.2444 19.1976 36.1892 15.6892L36.4772 15.618L45.4044 13.4109C48.647 12.7796 52.3079 13.411 55.4768 25.9944C57.9196 35.6947 54.2086 40.4072 53.8173 40.9235C53.5042 41.3365 52.0425 41.692 51.6106 41.6898C51.6106 41.6898 43.1797 43.3748 43.4385 43.4625L42.7906 43.4593C42.8263 36.3323 41.424 31.5284 40.6643 28.026Z" fill="#FF7ABF" stroke="#4B371F" stroke-linecap="round" stroke-linejoin="round"/>
    <path d="M40.6639 28.0258C39.9042 24.5234 38.2441 19.1974 36.1889 15.6889L36.4768 15.6178C36.9881 15.1261 39.7214 17.3347 42.4833 26.475C44.7773 34.0667 44.4419 41.1323 43.4381 43.4622L42.7902 43.459C42.826 36.332 41.4237 31.5281 40.6639 28.0258Z" fill="#AC1D67"/>
    <path d="M22.6486 32.2883C21.7794 28.8114 20.9102 23.3008 21.1999 19.2451L21.7794 17.2164C21.7794 17.2164 23.5195 16.3472 28.1553 15.1882C32.791 14.0293 34.8172 14.0293 34.8172 14.0293C36.8473 16.3472 39.1652 21.5624 40.9036 29.675C42.9996 39.4561 42.9318 41.8439 42.3524 45.3207C42.3524 45.3207 39.4549 46.7694 35.6884 47.6386C31.9218 48.5078 29.0227 48.5078 29.0227 48.5078L27.574 47.0682C24.387 40.6934 23.5178 35.7651 22.6486 32.2883Z" fill="#FF7ABF" stroke="#4B371F" stroke-linecap="round" stroke-linejoin="round"/>
    <path d="M23.5854 20.9075C25.9489 20.1196 30.6759 18.8276 34.4575 18.0713" stroke="white" stroke-width="2" stroke-linecap="round"/>
    <path d="M41.0752 18.0715C43.4387 17.2837 45.3295 16.4643 49.111 15.708" stroke="white" stroke-width="2" stroke-linecap="round"/>
    <path d="M10.8228 25.1618C13.1862 24.374 14.1316 24.0273 17.9132 23.271" stroke="white" stroke-width="2" stroke-linecap="round"/>
    <path d="M64.5676 11.7063C67.3503 12.1642 70.0242 10.4758 70.4598 7.82857C70.8954 5.18137 68.9036 2.72515 66.1209 2.26724C63.3381 1.80933 60.6643 3.4978 60.2287 6.14499C59.7931 8.79218 61.7849 11.2484 64.5676 11.7063Z" fill="#FF2600" stroke="#4B371F"/>
    <ellipse cx="66.0372" cy="5.74961" rx="2.02519" ry="1.50174" transform="rotate(9.34456 66.0372 5.74961)" fill="white"/>
    <path d="M11.5212 30.7471L9.97256 31.2753C9.76607 32.5428 10.2306 35.5006 10.7468 37.085L12.2955 36.5569C12.2955 35.5006 12.71 34.1455 13.5861 34.4442C14.3604 34.7083 15.0487 34.6203 15.3928 34.4442C15.3928 34.7083 14.9283 35.5534 14.1023 37.8773C13.2764 40.2012 14.4465 42.5427 15.1348 43.423L19.2645 42.3667C18.4041 41.2223 17.4913 38.6008 18.4901 36.5569C19.7807 33.9161 19.5226 31.0112 19.0064 29.1626L17.1996 29.6908C15.651 31.5393 15.1347 30.2189 13.5861 30.483C12.3471 30.6943 11.7793 31.6274 11.7793 32.0675L11.5212 30.7471Z" fill="#FFD736" stroke="black" stroke-linejoin="round"/>
    <path d="M26.3149 23.4414L24.25 24.175C23.9747 25.9355 24.5941 30.0434 25.2824 32.2441L27.3473 31.5106C27.3473 30.0434 27.9 28.1614 29.068 28.5763C30.1005 28.9431 31.0182 28.8208 31.4771 28.5763C31.4771 28.9431 30.8576 30.1168 29.7564 33.3445C28.6551 36.5721 30.2152 39.8242 31.133 41.0468L36.6393 39.5797C35.4921 37.9903 34.275 34.3494 35.6068 31.5106C37.3275 27.8428 36.9834 23.8082 36.2951 21.2407L33.8861 21.9743C31.8213 24.5417 31.1329 22.7078 29.068 23.0746C27.4161 23.368 26.6591 24.664 26.6591 25.2753L26.3149 23.4414Z" fill="#FFD736" stroke="black" stroke-linejoin="round"/>
    <path d="M44.0031 22.0327L42.4545 22.5609C42.248 23.8285 42.7126 26.7862 43.2288 28.3707L44.7774 27.8425C44.7774 26.7862 45.1919 25.4311 46.068 25.7299C46.8423 25.994 47.5306 25.9059 47.8748 25.7299C47.8748 25.994 47.4102 26.839 46.5842 29.1629C45.7583 31.4869 46.9284 33.8284 47.6167 34.7086L51.7464 33.6523C50.8861 32.508 49.9732 29.8865 50.9721 27.8425C52.2626 25.2017 52.0045 22.2968 51.4883 20.4482L49.6816 20.9764C48.1329 22.825 47.6167 21.5046 46.068 21.7687C44.8291 21.9799 44.2613 22.913 44.2613 23.3531L44.0031 22.0327Z" fill="#FFD736" stroke="black" stroke-linejoin="round"/>
  </g>
  <defs>
    <filter id="filter0_d_662_15168" x="0" y="0.693848" width="75.021" height="56.0005" filterUnits="userSpaceOnUse" color-interpolation-filters="sRGB">
      <feFlood flood-opacity="0" result="BackgroundImageFix"/>
      <feColorMatrix in="SourceAlpha" type="matrix" values="0 0 0 0 0 0 0 0 0 0 0 0 0 0 0 0 0 0 127 0" result="hardAlpha"/>
      <feOffset dx="3" dy="3"/>
      <feComposite in2="hardAlpha" operator="out"/>
      <feColorMatrix type="matrix" values="0 0 0 0 0.294118 0 0 0 0 0.215686 0 0 0 0 0.121569 0 0 0 1 0"/>
      <feBlend mode="normal" in2="BackgroundImageFix" result="effect1_dropShadow_662_15168"/>
      <feBlend mode="normal" in="SourceGraphic" in2="effect1_dropShadow_662_15168" result="shape"/>
    </filter>
  </defs>
</svg>
