<svg width="52" height="56" viewBox="0 0 52 56" fill="none" xmlns="http://www.w3.org/2000/svg">
  <g clip-path="url(#clip0_68_5853)">
    <path d="M217.568 34.7813L218.479 35.1949L217.568 34.7813C217.311 35.3475 217.332 36.0012 217.624 36.55L221.019 42.9139L218.172 45.4062C217.512 45.9835 217.305 46.9229 217.661 47.7237L220.738 54.6438L3.63084 54.6714L5.11826 49.8351C5.26462 49.3592 5.22822 48.8459 5.01615 48.3954L1.44528 40.8098L4.57884 36.8918C5.1417 36.1881 5.16439 35.1948 4.63427 34.4661L1.49217 30.1469L4.85978 25.0941C5.17229 24.6252 5.27249 24.0462 5.13576 23.4996L3.55288 17.1715L219.412 17.1439L217.427 23.4988C217.287 23.9473 217.309 24.4308 217.49 24.8645L219.683 30.1265L217.568 34.7813Z" fill="#FFB050" stroke="#4B371F" stroke-width="2"/>
    <path d="M15.2722 13.7821C13.5281 10.0432 15.1453 5.59836 18.8842 3.85428L23.0214 1.92444C26.7603 0.180363 31.2052 1.79752 32.9493 5.53645L47.0722 35.8131C48.574 39.0328 47.1815 42.8603 43.9619 44.3621C40.7422 45.864 36.9147 44.4714 35.4129 41.2518L23.3952 15.4884C22.8138 14.2421 23.3529 12.7605 24.5992 12.1791C25.8455 11.5977 27.3271 12.1368 27.9085 13.3831L39.9261 39.1465C40.2653 39.8735 41.1296 40.188 41.8566 39.8488C42.5836 39.5097 42.898 38.6454 42.5589 37.9184L28.436 7.64174C27.8546 6.39542 26.373 5.85637 25.1267 6.43773L20.9895 8.36757C19.7432 8.94893 19.2041 10.4306 19.7855 11.6769L22.1418 16.7284L16.7834 16.7622L15.2722 13.7821Z" fill="#FFC71E" stroke="#4B371F" stroke-width="2" stroke-linecap="round"/>
  </g>
  <defs>
    <clipPath id="clip0_68_5853">
      <rect width="52" height="56" fill="white"/>
    </clipPath>
  </defs>
</svg>
