<svg width="76" height="49" viewBox="0 0 76 49" fill="none" xmlns="http://www.w3.org/2000/svg">
  <path d="M53.4516 46.8254C68.2479 44.521 69.0968 39.6698 68.2479 29.2397C67.7095 22.6251 59.6053 6.68212 54.3958 3.22656C54.0232 2.97927 53.4516 2.21944 53.4516 2.21944C49.8471 3.41498 45.7719 3.5056 42.3292 3.41498C37.7219 3.29376 30.5052 1.13191 28.7441 1.00671C22.3466 0.551908 14.583 23.2968 15.612 43.5508C23.1314 46.5424 41.6146 48.6688 53.4516 46.8254Z" fill="#3258D9"/>
  <path d="M68.2479 29.2397L68.7462 29.1991L68.2479 29.2397ZM53.4516 46.8254L53.5286 47.3194L53.4516 46.8254ZM15.612 43.5508L15.1126 43.5761C15.1226 43.7715 15.2454 43.9431 15.4272 44.0154L15.612 43.5508ZM28.7441 1.00671L28.7087 1.50545L28.7441 1.00671ZM42.3292 3.41498L42.3423 2.91516L42.3423 2.91516L42.3292 3.41498ZM53.4516 2.21944L53.8512 1.91885C53.7221 1.74731 53.498 1.67728 53.2942 1.74486L53.4516 2.21944ZM54.3958 3.22656L54.1193 3.64315L54.1194 3.64322L54.3958 3.22656ZM67.7495 29.2802C68.1763 34.5236 68.1442 38.1583 66.3066 40.7937C64.4786 43.4152 60.7589 45.1813 53.3747 46.3313L53.5286 47.3194C60.9406 46.1651 65.0435 44.3534 67.1268 41.3657C69.2005 38.3918 69.1684 34.3859 68.7462 29.1991L67.7495 29.2802ZM53.3747 46.3313C47.5127 47.2442 39.9782 47.1765 32.9604 46.5035C25.9357 45.8299 19.4907 44.5558 15.7968 43.0862L15.4272 44.0154C19.2527 45.5373 25.809 46.8223 32.865 47.4989C39.9279 48.1762 47.5535 48.2499 53.5286 47.3194L53.3747 46.3313ZM16.1113 43.5254C15.6002 33.4632 17.2743 22.7737 19.8693 14.6653C21.1675 10.6091 22.688 7.22479 24.2629 4.89406C25.0506 3.72821 25.8385 2.84619 26.6012 2.27322C27.363 1.70087 28.0672 1.45985 28.7087 1.50545L28.7796 0.50797C27.8217 0.43987 26.8838 0.810141 26.0005 1.47371C25.1181 2.13666 24.258 3.11521 23.4343 4.3342C21.7863 6.77316 20.2307 10.2556 18.9169 14.3605C16.2881 22.5744 14.5949 33.3843 15.1126 43.5761L16.1113 43.5254ZM28.7087 1.50545C29.1039 1.53355 29.845 1.68197 30.853 1.90678C31.835 2.12579 33.067 2.41617 34.362 2.70069C36.9604 3.27155 39.9591 3.8528 42.316 3.91481L42.3423 2.91516C40.092 2.85595 37.1787 2.29566 34.5766 1.72398C33.2715 1.43724 32.0811 1.1561 31.0707 0.930763C30.0863 0.711227 29.2649 0.542469 28.7796 0.50797L28.7087 1.50545ZM42.316 3.91481C45.7668 4.00564 49.9166 3.91873 53.609 2.69402L53.2942 1.74486C49.7776 2.91124 45.777 3.00556 42.3423 2.91516L42.316 3.91481ZM53.4516 2.21944C53.0521 2.52003 53.0521 2.52007 53.0521 2.5201C53.0521 2.52012 53.0522 2.52016 53.0522 2.52019C53.0522 2.52025 53.0523 2.52033 53.0524 2.52042C53.0525 2.52059 53.0527 2.52081 53.0529 2.52108C53.0533 2.52161 53.0538 2.52233 53.0545 2.52322C53.0558 2.52501 53.0577 2.52751 53.0601 2.53068C53.0649 2.53702 53.0718 2.54606 53.0806 2.55748C53.0982 2.58031 53.1234 2.61275 53.1546 2.65225C53.217 2.73103 53.3044 2.83908 53.4045 2.95582C53.591 3.17316 53.8678 3.47621 54.1193 3.64315L54.6723 2.80997C54.5513 2.72962 54.356 2.52911 54.1635 2.30471C54.0742 2.20058 53.9954 2.10322 53.9389 2.03181C53.9107 1.99621 53.8883 1.96735 53.8732 1.94766C53.8656 1.93782 53.8599 1.9303 53.8561 1.92539C53.8543 1.92294 53.8529 1.92114 53.8521 1.92003C53.8517 1.91948 53.8514 1.9191 53.8512 1.91891C53.8511 1.91881 53.8511 1.91875 53.8511 1.91874C53.8511 1.91874 53.8511 1.91874 53.8511 1.91876C53.8511 1.91877 53.8511 1.91879 53.8511 1.9188C53.8512 1.91882 53.8512 1.91885 53.4516 2.21944ZM54.1194 3.64322C55.344 4.45548 56.7844 6.03895 58.2765 8.11095C59.7604 10.1714 61.2665 12.6738 62.6305 15.2803C63.9943 17.8864 65.2115 20.5879 66.12 23.044C67.0317 25.5088 67.6205 27.6948 67.7495 29.2802L68.7462 29.1991C68.6061 27.4772 67.98 25.1899 67.0579 22.6971C66.1326 20.1956 64.8972 17.4551 63.5165 14.8167C62.136 12.1787 60.6057 9.634 59.088 7.52656C57.5786 5.43066 56.0524 3.72541 54.6722 2.80989L54.1194 3.64322Z" fill="black"/>
  <mask id="path-3-outside-1_662_12718" maskUnits="userSpaceOnUse" x="15.1313" y="2.87524" width="55" height="42" fill="black">
    <rect fill="white" x="15.1313" y="2.87524" width="55" height="42"/>
    <path d="M68.248 25.3593C66.2493 16.5058 57.4503 5.93555 54.297 3.99511C52.5991 5.93501 50.3132 6.46569 44.5735 6.86524C37.2967 7.1684 33.1793 3.13805 31.8936 3.99511C23.6752 9.47393 17.5865 19.9981 17.5865 28.1736C16.3739 31.5694 16.1313 39.0889 16.1313 40.3017C25.0874 42.3439 43.9214 44.4293 53.4518 42.9451C68.248 40.6407 70.5525 35.567 68.248 25.3593Z"/>
  </mask>
  <path d="M68.248 25.3593C66.2493 16.5058 57.4503 5.93555 54.297 3.99511C52.5991 5.93501 50.3132 6.46569 44.5735 6.86524C37.2967 7.1684 33.1793 3.13805 31.8936 3.99511C23.6752 9.47393 17.5865 19.9981 17.5865 28.1736C16.3739 31.5694 16.1313 39.0889 16.1313 40.3017C25.0874 42.3439 43.9214 44.4293 53.4518 42.9451C68.248 40.6407 70.5525 35.567 68.248 25.3593Z" fill="#EF6A2D"/>
  <path d="M54.297 3.99511L54.8211 3.14345C54.4055 2.88769 53.866 2.96927 53.5446 3.33649L54.297 3.99511ZM68.248 25.3593L67.2726 25.5795L68.248 25.3593ZM53.4518 42.9451L53.2979 41.957L53.4518 42.9451ZM31.8936 3.99511L31.3389 3.16306V3.16306L31.8936 3.99511ZM44.5735 6.86524L44.6151 7.86437L44.6291 7.86379L44.643 7.86282L44.5735 6.86524ZM17.5865 28.1736L18.5283 28.5099L18.5865 28.3468V28.1736H17.5865ZM16.1313 40.3017H15.1313V41.0993L15.909 41.2766L16.1313 40.3017ZM53.7729 4.84678C54.4404 5.25751 55.506 6.19837 56.7927 7.58663C58.0611 8.9552 59.4922 10.7015 60.891 12.665C63.703 16.6122 66.3157 21.3412 67.2726 25.5795L69.2235 25.139C68.1816 20.5239 65.3955 15.541 62.5199 11.5046C61.075 9.47634 59.5902 7.66289 58.2595 6.22711C56.9471 4.81103 55.7303 3.70293 54.8211 3.14345L53.7729 4.84678ZM67.2726 25.5795C68.4159 30.6436 68.3146 34.0621 66.4645 36.5135C64.5824 39.0075 60.6684 40.8091 53.2979 41.957L53.6056 43.9332C61.0313 42.7767 65.6678 40.8893 68.0609 37.7183C70.486 34.5049 70.3847 30.2827 69.2235 25.139L67.2726 25.5795ZM32.4483 4.82717C32.3401 4.89935 32.2772 4.86527 32.3994 4.87876C32.526 4.89274 32.7293 4.94459 33.046 5.06213C33.7236 5.31365 34.4617 5.677 35.6069 6.14745C37.7738 7.03765 40.7749 8.02436 44.6151 7.86437L44.5319 5.8661C41.0953 6.00928 38.3992 5.13239 36.3669 4.29747C35.4124 3.90537 34.4253 3.44078 33.7419 3.18713C33.3781 3.05208 32.9919 2.93204 32.6189 2.89084C32.2414 2.84916 31.7686 2.87661 31.3389 3.16306L32.4483 4.82717ZM44.643 7.86282C50.3226 7.46746 53.0423 6.94695 55.0495 4.65373L53.5446 3.33649C52.1559 4.92307 50.3038 5.46393 44.5041 5.86765L44.643 7.86282ZM18.5865 28.1736C18.5865 24.3143 20.0317 19.8141 22.5203 15.5798C25.0043 11.3534 28.4819 7.47139 32.4483 4.82717L31.3389 3.16306C27.087 5.99765 23.411 10.1172 20.7961 14.5664C18.1857 19.0078 16.5865 23.8574 16.5865 28.1736H18.5865ZM53.2979 41.957C48.6564 42.6798 41.6643 42.5392 34.6601 41.9493C27.6726 41.3609 20.7736 40.3346 16.3537 39.3267L15.909 41.2766C20.4451 42.311 27.4412 43.3485 34.4923 43.9423C41.5267 44.5346 48.7167 44.6945 53.6056 43.9332L53.2979 41.957ZM17.1313 40.3017C17.1313 39.7263 17.1905 37.5721 17.4005 35.1424C17.6131 32.6823 17.9704 30.0722 18.5283 28.5099L16.6448 27.8373C15.9901 29.6708 15.6198 32.5183 15.4079 34.9702C15.1934 37.4524 15.1313 39.6642 15.1313 40.3017H17.1313Z" fill="black" mask="url(#path-3-outside-1_662_12718)"/>
  <mask id="mask0_662_12718" style="mask-type:alpha" maskUnits="userSpaceOnUse" x="20" y="3" width="50" height="41">
    <path d="M68.2479 25.3593C66.2491 16.5058 57.4502 5.93555 54.2969 3.99511C52.5989 5.93501 50.3131 6.4657 44.5733 6.86524C37.2965 7.1684 33.1791 3.13805 31.8935 3.99511C23.6751 9.47393 20.48 19.5008 20.48 27.6763C23.5651 27.3786 27.0565 31.8983 22.0498 35.0377C24.2962 38.9079 22.2699 40.6858 21.3462 41.479C30.3023 43.5212 43.9212 44.4293 53.4516 42.9451C68.2479 40.6407 70.5524 35.567 68.2479 25.3593Z" fill="#EF6A2D"/>
  </mask>
  <g mask="url(#mask0_662_12718)">
    <path fill-rule="evenodd" clip-rule="evenodd" d="M50.2964 24.0927C51.4367 24.0927 52.1993 23.2938 52.1993 22.4961C52.1993 21.6984 51.4367 20.8995 50.2964 20.8995C49.156 20.8995 48.3934 21.6984 48.3934 22.4961C48.3934 23.2938 49.156 24.0927 50.2964 24.0927ZM50.2964 24.8455C51.7631 24.8455 52.9521 23.7936 52.9521 22.4961C52.9521 21.1986 51.7631 20.1467 50.2964 20.1467C48.8296 20.1467 47.6406 21.1986 47.6406 22.4961C47.6406 23.7936 48.8296 24.8455 50.2964 24.8455Z" fill="#F8C09F"/>
    <path fill-rule="evenodd" clip-rule="evenodd" d="M43.6054 24.0927C44.7458 24.0927 45.5084 23.2938 45.5084 22.4961C45.5084 21.6984 44.7458 20.8995 43.6054 20.8995C42.4651 20.8995 41.7024 21.6984 41.7024 22.4961C41.7024 23.2938 42.4651 24.0927 43.6054 24.0927ZM43.6054 24.8455C45.0722 24.8455 46.2612 23.7936 46.2612 22.4961C46.2612 21.1986 45.0722 20.1467 43.6054 20.1467C42.1387 20.1467 40.9497 21.1986 40.9497 22.4961C40.9497 23.7936 42.1387 24.8455 43.6054 24.8455Z" fill="#F8C09F"/>
    <path fill-rule="evenodd" clip-rule="evenodd" d="M37.0678 24.0927C38.2082 24.0927 38.9708 23.2938 38.9708 22.4961C38.9708 21.6984 38.2082 20.8995 37.0678 20.8995C35.9275 20.8995 35.1649 21.6984 35.1649 22.4961C35.1649 23.2938 35.9275 24.0927 37.0678 24.0927ZM37.0678 24.8455C38.5346 24.8455 39.7236 23.7936 39.7236 22.4961C39.7236 21.1986 38.5346 20.1467 37.0678 20.1467C35.6011 20.1467 34.4121 21.1986 34.4121 22.4961C34.4121 23.7936 35.6011 24.8455 37.0678 24.8455Z" fill="#F8C09F"/>
    <rect x="51.1387" y="21.9087" width="5.15856" height="1.17469" rx="0.587344" fill="#F8C09F"/>
    <rect x="30.9282" y="21.9087" width="5.15856" height="1.17469" rx="0.587344" fill="#F8C09F"/>
    <rect x="44.2949" y="21.9087" width="5.15856" height="1.17469" rx="0.587344" fill="#F8C09F"/>
    <rect x="37.7573" y="21.9087" width="5.15856" height="1.17469" rx="0.587344" fill="#F8C09F"/>
    <path fill-rule="evenodd" clip-rule="evenodd" d="M63.2177 24.0927C64.3581 24.0927 65.1207 23.2938 65.1207 22.4961C65.1207 21.6984 64.3581 20.8995 63.2177 20.8995C62.0774 20.8995 61.3148 21.6984 61.3148 22.4961C61.3148 23.2938 62.0774 24.0927 63.2177 24.0927ZM63.2177 24.8455C64.6845 24.8455 65.8735 23.7936 65.8735 22.4961C65.8735 21.1986 64.6845 20.1467 63.2177 20.1467C61.751 20.1467 60.562 21.1986 60.562 22.4961C60.562 23.7936 61.751 24.8455 63.2177 24.8455Z" fill="#F8C09F"/>
    <path fill-rule="evenodd" clip-rule="evenodd" d="M70.2656 24.0927C71.4059 24.0927 72.1686 23.2938 72.1686 22.4961C72.1686 21.6984 71.4059 20.8995 70.2656 20.8995C69.1252 20.8995 68.3626 21.6984 68.3626 22.4961C68.3626 23.2938 69.1252 24.0927 70.2656 24.0927ZM70.2656 24.8455C71.7323 24.8455 72.9213 23.7936 72.9213 22.4961C72.9213 21.1986 71.7323 20.1467 70.2656 20.1467C68.7989 20.1467 67.6099 21.1986 67.6099 22.4961C67.6099 23.7936 68.7989 24.8455 70.2656 24.8455Z" fill="#F8C09F"/>
    <rect x="57.5229" y="21.9087" width="5.15856" height="1.17469" rx="0.587344" fill="#F8C09F"/>
    <rect x="64.0605" y="21.9087" width="5.15856" height="1.17469" rx="0.587344" fill="#F8C09F"/>
    <path fill-rule="evenodd" clip-rule="evenodd" d="M55.5242 22.4961C55.5242 23.6364 56.3231 24.399 57.1208 24.399C57.9186 24.399 58.7175 23.6364 58.7175 22.4961C58.7175 21.3557 57.9186 20.5931 57.1208 20.5931C56.3231 20.5931 55.5242 21.3557 55.5242 22.4961ZM54.7715 22.4961C54.7715 23.9628 55.8233 25.1518 57.1208 25.1518C58.4184 25.1518 59.4702 23.9628 59.4702 22.4961C59.4702 21.0293 58.4184 19.8403 57.1208 19.8403C55.8233 19.8403 54.7715 21.0293 54.7715 22.4961Z" fill="#FBDECD"/>
    <path fill-rule="evenodd" clip-rule="evenodd" d="M28.93 22.4961C28.93 23.6364 29.7289 24.399 30.5266 24.399C31.3243 24.399 32.1232 23.6364 32.1232 22.4961C32.1232 21.3557 31.3243 20.5931 30.5266 20.5931C29.7289 20.5931 28.93 21.3557 28.93 22.4961ZM28.1772 22.4961C28.1772 23.9628 29.2291 25.1518 30.5266 25.1518C31.8241 25.1518 32.876 23.9628 32.876 22.4961C32.876 21.0293 31.8241 19.8403 30.5266 19.8403C29.2291 19.8403 28.1772 21.0293 28.1772 22.4961Z" fill="#FBDECD"/>
    <path fill-rule="evenodd" clip-rule="evenodd" d="M63.2177 37.7177C64.3581 37.7177 65.1207 36.9188 65.1207 36.1211C65.1207 35.3234 64.3581 34.5245 63.2177 34.5245C62.0774 34.5245 61.3148 35.3234 61.3148 36.1211C61.3148 36.9188 62.0774 37.7177 63.2177 37.7177ZM63.2177 38.4705C64.6845 38.4705 65.8735 37.4186 65.8735 36.1211C65.8735 34.8236 64.6845 33.7717 63.2177 33.7717C61.751 33.7717 60.562 34.8236 60.562 36.1211C60.562 37.4186 61.751 38.4705 63.2177 38.4705Z" fill="#F8C09F"/>
    <path fill-rule="evenodd" clip-rule="evenodd" d="M70.2661 37.7177C71.4064 37.7177 72.1691 36.9188 72.1691 36.1211C72.1691 35.3234 71.4064 34.5245 70.2661 34.5245C69.1257 34.5245 68.3631 35.3234 68.3631 36.1211C68.3631 36.9188 69.1257 37.7177 70.2661 37.7177ZM70.2661 38.4705C71.7328 38.4705 72.9218 37.4186 72.9218 36.1211C72.9218 34.8236 71.7328 33.7717 70.2661 33.7717C68.7994 33.7717 67.6104 34.8236 67.6104 36.1211C67.6104 37.4186 68.7994 38.4705 70.2661 38.4705Z" fill="#F8C09F"/>
    <rect x="57.5229" y="35.5337" width="5.15856" height="1.17469" rx="0.587344" fill="#F8C09F"/>
    <rect x="64.0605" y="35.5337" width="5.15856" height="1.17469" rx="0.587344" fill="#F8C09F"/>
    <path fill-rule="evenodd" clip-rule="evenodd" d="M55.5237 15.7736C55.5237 16.914 56.3226 17.6766 57.1203 17.6766C57.9181 17.6766 58.717 16.914 58.717 15.7736C58.717 14.6333 57.9181 13.8707 57.1204 13.8707C56.3226 13.8707 55.5237 14.6333 55.5237 15.7736ZM54.771 15.7736C54.771 17.2404 55.8228 18.4294 57.1203 18.4294C58.4179 18.4294 59.4697 17.2404 59.4697 15.7736C59.4697 14.3069 58.4179 13.1179 57.1204 13.1179C55.8228 13.1179 54.771 14.3069 54.771 15.7736Z" fill="#FBDECD"/>
    <path fill-rule="evenodd" clip-rule="evenodd" d="M55.5237 9.08322C55.5237 10.2236 56.3226 10.9862 57.1203 10.9862C57.9181 10.9862 58.717 10.2236 58.717 9.08322C58.717 7.94286 57.9181 7.18023 57.1204 7.18023C56.3226 7.18023 55.5237 7.94286 55.5237 9.08322ZM54.771 9.08322C54.771 10.5499 55.8228 11.7389 57.1203 11.7389C58.4179 11.7389 59.4697 10.5499 59.4697 9.08322C59.4697 7.6165 58.4179 6.42749 57.1204 6.42749C55.8228 6.42749 54.771 7.6165 54.771 9.08322Z" fill="#FBDECD"/>
    <path fill-rule="evenodd" clip-rule="evenodd" d="M55.5237 2.54587C55.5237 3.68622 56.3226 4.44885 57.1203 4.44885C57.9181 4.44885 58.717 3.68622 58.717 2.54587C58.717 1.40551 57.9181 0.642878 57.1204 0.642878C56.3226 0.642878 55.5237 1.40551 55.5237 2.54587ZM54.771 2.54587C54.771 4.01258 55.8228 5.20159 57.1203 5.20159C58.4179 5.20159 59.4697 4.01258 59.4697 2.54587C59.4697 1.07915 58.4179 -0.109863 57.1204 -0.109863C55.8228 -0.109863 54.771 1.07915 54.771 2.54587Z" fill="#FBDECD"/>
    <rect x="57.7075" y="16.6167" width="5.15856" height="1.17469" rx="0.587344" transform="rotate(90 57.7075 16.6167)" fill="#FBDECD"/>
    <rect x="57.7075" y="9.77271" width="5.15856" height="1.17469" rx="0.587344" transform="rotate(90 57.7075 9.77271)" fill="#FBDECD"/>
    <rect x="57.7075" y="3.23486" width="5.15856" height="1.17469" rx="0.587344" transform="rotate(90 57.7075 3.23486)" fill="#FBDECD"/>
    <path fill-rule="evenodd" clip-rule="evenodd" d="M28.93 15.7739C28.93 16.9143 29.7289 17.6769 30.5266 17.6769C31.3243 17.6769 32.1232 16.9143 32.1232 15.7739C32.1232 14.6335 31.3243 13.8709 30.5266 13.8709C29.7289 13.8709 28.93 14.6335 28.93 15.7739ZM28.1772 15.7739C28.1772 17.2406 29.2291 18.4296 30.5266 18.4296C31.8241 18.4296 32.876 17.2406 32.876 15.7739C32.876 14.3072 31.8241 13.1182 30.5266 13.1182C29.2291 13.1182 28.1772 14.3072 28.1772 15.7739Z" fill="#FBDECD"/>
    <path fill-rule="evenodd" clip-rule="evenodd" d="M28.93 9.08322C28.93 10.2236 29.7289 10.9862 30.5266 10.9862C31.3243 10.9862 32.1232 10.2236 32.1232 9.08322C32.1232 7.94286 31.3243 7.18023 30.5266 7.18023C29.7289 7.18023 28.93 7.94286 28.93 9.08322ZM28.1772 9.08322C28.1772 10.5499 29.2291 11.7389 30.5266 11.7389C31.8241 11.7389 32.876 10.5499 32.876 9.08322C32.876 7.6165 31.8241 6.42749 30.5266 6.42749C29.2291 6.42749 28.1772 7.6165 28.1772 9.08322Z" fill="#FBDECD"/>
    <path fill-rule="evenodd" clip-rule="evenodd" d="M28.93 2.54562C28.93 3.68598 29.7289 4.44861 30.5266 4.44861C31.3243 4.44861 32.1232 3.68598 32.1232 2.54562C32.1232 1.40526 31.3243 0.642634 30.5266 0.642634C29.7289 0.642634 28.93 1.40526 28.93 2.54562ZM28.1772 2.54562C28.1772 4.01234 29.2291 5.20135 30.5266 5.20135C31.8241 5.20135 32.876 4.01234 32.876 2.54562C32.876 1.0789 31.8241 -0.110107 30.5266 -0.110108C29.2291 -0.110108 28.1772 1.0789 28.1772 2.54562Z" fill="#FBDECD"/>
    <rect x="31.1143" y="16.6165" width="5.15856" height="1.17469" rx="0.587344" transform="rotate(90 31.1143 16.6165)" fill="#FBDECD"/>
    <rect x="31.1143" y="9.77271" width="5.15856" height="1.17469" rx="0.587344" transform="rotate(90 31.1143 9.77271)" fill="#FBDECD"/>
    <rect x="31.1143" y="3.23486" width="5.15856" height="1.17469" rx="0.587344" transform="rotate(90 31.1143 3.23486)" fill="#FBDECD"/>
    <path fill-rule="evenodd" clip-rule="evenodd" d="M58.7175 29.4549C58.7175 28.3145 57.9186 27.5519 57.1209 27.5519C56.3231 27.5519 55.5242 28.3145 55.5242 29.4549C55.5242 30.5952 56.3231 31.3579 57.1209 31.3579C57.9186 31.3579 58.7175 30.5952 58.7175 29.4549ZM59.4702 29.4549C59.4702 27.9881 58.4184 26.7991 57.1209 26.7991C55.8233 26.7991 54.7715 27.9881 54.7715 29.4549C54.7715 30.9216 55.8233 32.1106 57.1209 32.1106C58.4184 32.1106 59.4702 30.9216 59.4702 29.4549Z" fill="#FBDECD"/>
    <path fill-rule="evenodd" clip-rule="evenodd" d="M58.7175 36.1453C58.7175 35.0049 57.9186 34.2423 57.1209 34.2423C56.3231 34.2423 55.5242 35.0049 55.5242 36.1453C55.5242 37.2857 56.3231 38.0483 57.1209 38.0483C57.9186 38.0483 58.7175 37.2857 58.7175 36.1453ZM59.4702 36.1453C59.4702 34.6786 58.4184 33.4896 57.1209 33.4896C55.8233 33.4896 54.7715 34.6786 54.7715 36.1453C54.7715 37.612 55.8233 38.801 57.1209 38.801C58.4184 38.801 59.4702 37.612 59.4702 36.1453Z" fill="#FBDECD"/>
    <path fill-rule="evenodd" clip-rule="evenodd" d="M58.7175 42.6829C58.7175 41.5425 57.9186 40.7799 57.1209 40.7799C56.3231 40.7799 55.5242 41.5425 55.5242 42.6829C55.5242 43.8233 56.3231 44.5859 57.1209 44.5859C57.9186 44.5859 58.7175 43.8233 58.7175 42.6829ZM59.4702 42.6829C59.4702 41.2162 58.4184 40.0272 57.1209 40.0272C55.8233 40.0272 54.7715 41.2162 54.7715 42.6829C54.7715 44.1496 55.8233 45.3386 57.1209 45.3386C58.4184 45.3386 59.4702 44.1496 59.4702 42.6829Z" fill="#FBDECD"/>
    <rect x="56.5337" y="28.6123" width="5.15856" height="1.17469" rx="0.587344" transform="rotate(-90 56.5337 28.6123)" fill="#FBDECD"/>
    <rect x="56.5337" y="35.4561" width="5.15856" height="1.17469" rx="0.587344" transform="rotate(-90 56.5337 35.4561)" fill="#FBDECD"/>
    <rect x="56.5337" y="41.9937" width="5.15856" height="1.17469" rx="0.587344" transform="rotate(-90 56.5337 41.9937)" fill="#FBDECD"/>
    <path fill-rule="evenodd" clip-rule="evenodd" d="M32.1233 29.4549C32.1233 28.3145 31.3244 27.5519 30.5266 27.5519C29.7289 27.5519 28.93 28.3145 28.93 29.4549C28.93 30.5952 29.7289 31.3579 30.5266 31.3579C31.3244 31.3579 32.1233 30.5952 32.1233 29.4549ZM32.876 29.4549C32.876 27.9881 31.8241 26.7991 30.5266 26.7991C29.2291 26.7991 28.1772 27.9881 28.1772 29.4549C28.1772 30.9216 29.2291 32.1106 30.5266 32.1106C31.8241 32.1106 32.876 30.9216 32.876 29.4549Z" fill="#FBDECD"/>
    <path fill-rule="evenodd" clip-rule="evenodd" d="M32.1233 36.1453C32.1233 35.0049 31.3244 34.2423 30.5266 34.2423C29.7289 34.2423 28.93 35.0049 28.93 36.1453C28.93 37.2857 29.7289 38.0483 30.5266 38.0483C31.3244 38.0483 32.1233 37.2857 32.1233 36.1453ZM32.876 36.1453C32.876 34.6786 31.8241 33.4896 30.5266 33.4896C29.2291 33.4896 28.1772 34.6786 28.1772 36.1453C28.1772 37.612 29.2291 38.801 30.5266 38.801C31.8241 38.801 32.876 37.612 32.876 36.1453Z" fill="#FBDECD"/>
    <path fill-rule="evenodd" clip-rule="evenodd" d="M32.1233 42.6829C32.1233 41.5425 31.3244 40.7799 30.5266 40.7799C29.7289 40.7799 28.93 41.5425 28.93 42.6829C28.93 43.8233 29.7289 44.5859 30.5266 44.5859C31.3244 44.5859 32.1233 43.8233 32.1233 42.6829ZM32.876 42.6829C32.876 41.2162 31.8241 40.0272 30.5266 40.0272C29.2291 40.0272 28.1772 41.2162 28.1772 42.6829C28.1772 44.1496 29.2291 45.3386 30.5266 45.3386C31.8241 45.3386 32.876 44.1496 32.876 42.6829Z" fill="#FBDECD"/>
    <rect x="29.9395" y="28.6123" width="5.15856" height="1.17469" rx="0.587344" transform="rotate(-90 29.9395 28.6123)" fill="#FBDECD"/>
    <rect x="29.9395" y="35.4561" width="5.15856" height="1.17469" rx="0.587344" transform="rotate(-90 29.9395 35.4561)" fill="#FBDECD"/>
    <rect x="29.9395" y="41.9937" width="5.15856" height="1.17469" rx="0.587344" transform="rotate(-90 29.9395 41.9937)" fill="#FBDECD"/>
  </g>
  <path d="M74.0144 24.9343C72.8012 18.8706 65.8457 7.37688 59.337 2.72778C54.8492 3.09198 57.8833 2.84906 54.5 3.21291C60.9036 8.93736 67.6495 20.3913 69.0951 27.1628C71.8846 29.2246 74.2585 25.8439 74.0144 24.9343Z" fill="#3258D9" stroke="black"/>
  <path d="M68.0391 24.7304L67.8693 24.6325L67.8112 24.4452C66.891 21.4765 64.9025 17.6701 62.4676 13.9075C60.0359 10.15 57.1812 6.47012 54.5521 3.75393L53.9203 3.10119L54.8098 2.91662C54.8661 2.90495 54.9224 2.89323 54.9789 2.88148C56.0211 2.66477 57.0984 2.44076 58.1219 2.38075C59.2068 2.31715 60.2841 2.43316 61.2479 2.9692L61.2986 2.99737L61.3415 3.03638C64.2139 5.65054 67.2204 8.44091 69.643 11.2521C72.0535 14.0492 73.9384 16.925 74.5019 19.722C74.5582 19.9531 74.5244 20.2313 74.4746 20.4716C74.4184 20.7425 74.3215 21.0564 74.1907 21.3876C73.9293 22.0492 73.5177 22.8176 72.9741 23.4927C72.4334 24.1643 71.7348 24.7772 70.8908 25.0697C70.0248 25.37 69.054 25.3153 68.0391 24.7304Z" fill="#EF6A2D" stroke="black"/>
  <mask id="mask1_662_12718" style="mask-type:alpha" maskUnits="userSpaceOnUse" x="54" y="2" width="21" height="23">
    <path d="M68.2888 24.2971C71.8666 26.3589 74.2582 20.7421 74.0142 19.8325C72.9457 14.4926 66.7525 8.63706 61.0048 3.40614C59.0643 2.46183 56.983 3.11442 54.9114 3.40609C60.2237 8.89444 66.4091 18.2331 68.2888 24.2971Z" fill="#EF6A2D"/>
  </mask>
  <g mask="url(#mask1_662_12718)">
    <path fill-rule="evenodd" clip-rule="evenodd" d="M72.439 14.6017C73.5793 14.5933 74.3361 13.7889 74.3302 12.9912C74.3244 12.1934 73.5559 11.4002 72.4156 11.4085C71.2752 11.4169 70.5185 12.2214 70.5244 13.0191C70.5302 13.8168 71.2987 14.6101 72.439 14.6017ZM72.4445 15.3544C73.9112 15.3437 75.0925 14.2831 75.0829 12.9856C75.0734 11.6881 73.8767 10.645 72.4101 10.6558C70.9434 10.6666 69.7621 11.7271 69.7716 13.0246C69.7812 14.3221 70.9778 15.3652 72.4445 15.3544Z" fill="#F8C09F"/>
    <rect x="66.7285" y="12.4595" width="5.15856" height="1.17469" rx="0.587344" transform="rotate(-0.420374 66.7285 12.4595)" fill="#F8C09F"/>
    <rect x="73.2661" y="12.4116" width="5.15856" height="1.17469" rx="0.587344" transform="rotate(-0.420374 73.2661 12.4116)" fill="#F8C09F"/>
    <path fill-rule="evenodd" clip-rule="evenodd" d="M67.8786 6.37252C67.8702 5.23219 67.0657 4.47545 66.268 4.4813C65.4703 4.48715 64.677 5.25562 64.6854 6.39595C64.6938 7.53628 65.4982 8.29302 66.2959 8.28717C67.0937 8.28132 67.8869 7.51285 67.8786 6.37252ZM68.6313 6.367C68.6205 4.90032 67.56 3.71906 66.2625 3.72858C64.965 3.7381 63.9219 4.93479 63.9327 6.40147C63.9434 7.86815 65.004 9.04941 66.3015 9.03989C67.599 9.03037 68.6421 7.83368 68.6313 6.367Z" fill="#FBDECD"/>
    <path fill-rule="evenodd" clip-rule="evenodd" d="M67.9274 13.0625C67.919 11.9221 67.1146 11.1654 66.3168 11.1712C65.5191 11.1771 64.7258 11.9456 64.7342 13.0859C64.7426 14.2262 65.5471 14.983 66.3448 14.9771C67.1425 14.9713 67.9358 14.2028 67.9274 13.0625ZM68.6801 13.0569C68.6694 11.5903 67.6088 10.409 66.3113 10.4185C65.0138 10.428 63.9707 11.6247 63.9815 13.0914C63.9923 14.5581 65.0528 15.7394 66.3503 15.7298C67.6478 15.7203 68.6909 14.5236 68.6801 13.0569Z" fill="#FBDECD"/>
    <path fill-rule="evenodd" clip-rule="evenodd" d="M67.9752 19.6001C67.9669 18.4597 67.1624 17.703 66.3647 17.7088C65.567 17.7147 64.7737 18.4832 64.7821 19.6235C64.7904 20.7638 65.5949 21.5206 66.3926 21.5147C67.1903 21.5089 67.9836 20.7404 67.9752 19.6001ZM68.728 19.5945C68.7172 18.1279 67.6567 16.9466 66.3592 16.9561C65.0617 16.9656 64.0186 18.1623 64.0293 19.629C64.0401 21.0957 65.1007 22.277 66.3981 22.2674C67.6956 22.2579 68.7387 21.0612 68.728 19.5945Z" fill="#FBDECD"/>
    <rect x="65.688" y="5.54565" width="5.15856" height="1.17469" rx="0.587344" transform="rotate(-90.4204 65.688 5.54565)" fill="#FBDECD"/>
    <rect x="65.7388" y="12.3896" width="5.15856" height="1.17469" rx="0.587344" transform="rotate(-90.4204 65.7388 12.3896)" fill="#FBDECD"/>
    <rect x="65.7866" y="18.9268" width="5.15856" height="1.17469" rx="0.587344" transform="rotate(-90.4204 65.7866 18.9268)" fill="#FBDECD"/>
  </g>
  <path d="M1 23.903C2.21328 17.8393 14.5026 7.69182 21.0113 3.04272C25.4992 3.40692 28.1678 3.64964 32.0483 3.5282C25.6447 9.25266 19.0832 20.6772 19.8412 28.1663C13.292 29.6621 1.60707 28.7543 1 23.903Z" fill="#3258D9"/>
  <path d="M21.0113 3.04272L21.0518 2.54436L20.8695 2.52957L20.7207 2.63586L21.0113 3.04272ZM1 23.903L0.509718 23.8049L0.493788 23.8845L0.503869 23.9651L1 23.903ZM19.8412 28.1663L19.9525 28.6538L20.3831 28.5554L20.3386 28.116L19.8412 28.1663ZM32.0483 3.5282L32.3816 3.90097C32.5383 3.76088 32.5906 3.53774 32.5126 3.34257C32.4346 3.1474 32.2428 3.02187 32.0327 3.02845L32.0483 3.5282ZM20.7207 2.63586C17.4519 4.97074 12.7327 8.68513 8.67361 12.5817C6.64434 14.5298 4.77102 16.532 3.32507 18.437C1.88763 20.3308 0.835726 22.1756 0.509718 23.8049L1.49028 24.0011C1.77092 22.5986 2.71016 20.9011 4.1216 19.0416C5.52453 17.1932 7.35782 15.231 9.36614 13.3031C13.3823 9.44773 18.0621 5.76381 21.302 3.44959L20.7207 2.63586ZM0.503869 23.9651C0.682711 25.3943 1.67429 26.4737 3.02828 27.2587C4.38339 28.0444 6.1706 28.5795 8.10879 28.9078C11.9865 29.5647 16.6114 29.4169 19.9525 28.6538L19.7298 27.6789C16.5218 28.4116 12.0296 28.5577 8.27581 27.9219C6.39824 27.6038 4.74106 27.0958 3.52985 26.3936C2.31751 25.6907 1.62082 24.8374 1.49613 23.8409L0.503869 23.9651ZM20.3386 28.116C19.9742 24.5157 21.373 19.8927 23.7027 15.4164C26.0255 10.9532 29.2317 6.71677 32.3816 3.90097L31.7151 3.15543C28.4614 6.0641 25.185 10.4022 22.8156 14.9547C20.4531 19.494 18.9501 24.3279 19.3437 28.2167L20.3386 28.116ZM32.0327 3.02845C28.1849 3.14886 25.5445 2.90895 21.0518 2.54436L20.9709 3.54109C25.4539 3.90489 28.1506 4.15042 32.064 4.02796L32.0327 3.02845Z" fill="black"/>
  <path d="M1.35737 18.4231C1.34682 18.4758 1.34485 18.5299 1.35153 18.5833C1.52688 19.9846 2.44258 21.1573 3.71768 22.0916C4.996 23.0283 6.68748 23.7662 8.53956 24.2945C12.2194 25.3443 16.6554 25.6006 20.0203 24.8454C21.0707 24.8287 22.2372 24.3574 23.4094 23.4983C24.6091 22.619 25.8485 21.3097 27.0268 19.5716C29.3841 16.0943 31.5224 10.8631 32.611 3.79159C32.6477 3.55299 32.5087 3.32222 32.2807 3.24312C32.1564 3.20004 32.0317 3.1566 31.9063 3.11296C28.4072 1.89478 24.4617 0.521212 19.7723 2.44862C16.128 3.94651 11.8319 6.50237 8.30409 9.37797C6.53923 10.8165 4.95557 12.344 3.73926 13.8696C2.52774 15.3891 1.6542 16.9396 1.35737 18.4231Z" fill="#EF6A2D" stroke="black" stroke-linejoin="round"/>
  <mask id="mask2_662_12718" style="mask-type:alpha" maskUnits="userSpaceOnUse" x="1" y="1" width="32" height="24">
    <path d="M19.9624 24.3461C13.4132 25.8419 2.45472 23.3727 1.84766 18.5215C2.94636 13.0304 12.7703 5.86741 19.9624 2.91133C25.1061 0.797184 28.502 2.91133 32.1168 3.71576C30.685 11.1942 27.5317 22.6173 19.9624 24.3461Z" fill="#EF6A2D"/>
  </mask>
  <g mask="url(#mask2_662_12718)">
    <path fill-rule="evenodd" clip-rule="evenodd" d="M6.52006 16.3783C7.66038 16.37 8.41713 15.5655 8.41128 14.7678C8.40543 13.9701 7.63696 13.1768 6.49663 13.1851C5.3563 13.1935 4.59955 13.998 4.60541 14.7957C4.61126 15.5934 5.37973 16.3867 6.52006 16.3783ZM6.52558 17.131C7.99226 17.1203 9.17352 16.0597 9.164 14.7622C9.15448 13.4648 7.95779 12.4217 6.49111 12.4324C5.02443 12.4432 3.84317 13.5037 3.85269 14.8012C3.86221 16.0987 5.0589 17.1418 6.52558 17.131Z" fill="#F8C09F"/>
    <path fill-rule="evenodd" clip-rule="evenodd" d="M-0.169884 16.4276C0.970443 16.4193 1.72719 15.6148 1.72134 14.8171C1.71549 14.0194 0.947015 13.2261 -0.193312 13.2345C-1.33364 13.2428 -2.09039 14.0473 -2.08453 14.845C-2.07868 15.6427 -1.31021 16.436 -0.169884 16.4276ZM-0.164361 17.1804C1.30232 17.1696 2.48358 16.1091 2.47406 14.8116C2.46454 13.5141 1.26784 12.471 -0.198835 12.4817C-1.66551 12.4925 -2.84677 13.553 -2.83726 14.8505C-2.82774 16.148 -1.63104 17.1911 -0.164361 17.1804Z" fill="#F8C09F"/>
    <rect x="7.34668" y="14.1882" width="5.15856" height="1.17469" rx="0.587344" transform="rotate(-0.420374 7.34668 14.1882)" fill="#F8C09F"/>
    <rect x="0.50293" y="14.2388" width="5.15856" height="1.17469" rx="0.587344" transform="rotate(-0.420374 0.50293 14.2388)" fill="#F8C09F"/>
    <path fill-rule="evenodd" clip-rule="evenodd" d="M19.4414 16.2838C20.5818 16.2755 21.3385 15.471 21.3327 14.6733C21.3268 13.8756 20.5583 13.0823 19.418 13.0907C18.2777 13.099 17.5209 13.9035 17.5268 14.7012C17.5326 15.4989 18.3011 16.2922 19.4414 16.2838ZM19.447 17.0366C20.9136 17.0258 22.0949 15.9653 22.0854 14.6678C22.0759 13.3703 20.8792 12.3272 19.4125 12.3379C17.9458 12.3487 16.7646 13.4092 16.7741 14.7067C16.7836 16.0042 17.9803 17.0473 19.447 17.0366Z" fill="#F8C09F"/>
    <path fill-rule="evenodd" clip-rule="evenodd" d="M26.4893 16.2318C27.6296 16.2235 28.3864 15.419 28.3805 14.6213C28.3747 13.8236 27.6062 13.0303 26.4659 13.0387C25.3255 13.047 24.5688 13.8515 24.5746 14.6492C24.5805 15.4469 25.349 16.2402 26.4893 16.2318ZM26.4948 16.9846C27.9615 16.9738 29.1428 15.9133 29.1332 14.6158C29.1237 13.3183 27.927 12.2752 26.4603 12.2859C24.9937 12.2967 23.8124 13.3572 23.8219 14.6547C23.8314 15.9522 25.0281 16.9953 26.4948 16.9846Z" fill="#F8C09F"/>
    <path fill-rule="evenodd" clip-rule="evenodd" d="M33.8106 16.1781C34.9509 16.1698 35.7077 15.3653 35.7018 14.5676C35.696 13.7699 34.9275 12.9766 33.7872 12.9849C32.6468 12.9933 31.8901 13.7978 31.8959 14.5955C31.9018 15.3932 32.6703 16.1865 33.8106 16.1781ZM33.8161 16.9309C35.2828 16.9201 36.464 15.8595 36.4545 14.5621C36.445 13.2646 35.2483 12.2215 33.7816 12.2322C32.315 12.243 31.1337 13.3035 31.1432 14.601C31.1527 15.8985 32.3494 16.9416 33.8161 16.9309Z" fill="#F8C09F"/>
    <rect x="13.731" y="14.1416" width="5.15856" height="1.17469" rx="0.587344" transform="rotate(-0.420374 13.731 14.1416)" fill="#F8C09F"/>
    <rect x="20.2686" y="14.0938" width="5.15856" height="1.17469" rx="0.587344" transform="rotate(-0.420374 20.2686 14.0938)" fill="#F8C09F"/>
    <rect x="27.5898" y="14.0398" width="5.15856" height="1.17469" rx="0.587344" transform="rotate(-0.420374 27.5898 14.0398)" fill="#F8C09F"/>
    <path fill-rule="evenodd" clip-rule="evenodd" d="M11.7367 14.7437C11.745 15.884 12.5495 16.6408 13.3472 16.6349C14.1449 16.6291 14.9382 15.8606 14.9298 14.7203C14.9215 13.5799 14.117 12.8232 13.3193 12.829C12.5216 12.8349 11.7283 13.6034 11.7367 14.7437ZM10.9839 14.7492C10.9947 16.2159 12.0553 17.3972 13.3527 17.3876C14.6502 17.3781 15.6933 16.1814 15.6826 14.7147C15.6718 13.2481 14.6113 12.0668 13.3138 12.0763C12.0163 12.0858 10.9732 13.2825 10.9839 14.7492Z" fill="#FBDECD"/>
    <path fill-rule="evenodd" clip-rule="evenodd" d="M11.6873 8.02152C11.6957 9.16185 12.5002 9.9186 13.2979 9.91274C14.0956 9.90689 14.8889 9.13842 14.8805 7.99809C14.8722 6.85777 14.0677 6.10102 13.27 6.10687C12.4723 6.11272 11.679 6.8812 11.6873 8.02152ZM10.9346 8.02705C10.9454 9.49372 12.0059 10.675 13.3034 10.6655C14.6009 10.6559 15.644 9.45925 15.6333 7.99257C15.6225 6.52589 14.5619 5.34463 13.2645 5.35415C11.967 5.36367 10.9239 6.56037 10.9346 8.02705Z" fill="#FBDECD"/>
    <path fill-rule="evenodd" clip-rule="evenodd" d="M11.638 1.33134C11.6464 2.47166 12.4509 3.22841 13.2486 3.22256C14.0463 3.21671 14.8396 2.44824 14.8312 1.30791C14.8228 0.167582 14.0184 -0.589166 13.2207 -0.583314C12.423 -0.577461 11.6297 0.19101 11.638 1.33134ZM10.8853 1.33686C10.8961 2.80354 11.9566 3.9848 13.2541 3.97528C14.5516 3.96576 15.5947 2.76906 15.5839 1.30239C15.5732 -0.164293 14.5126 -1.34555 13.2151 -1.33603C11.9177 -1.32651 10.8746 -0.129819 10.8853 1.33686Z" fill="#FBDECD"/>
    <rect x="13.8774" y="8.84814" width="5.15856" height="1.17469" rx="0.587344" transform="rotate(89.5796 13.8774 8.84814)" fill="#FBDECD"/>
    <rect x="13.8271" y="2.00464" width="5.15856" height="1.17469" rx="0.587344" transform="rotate(89.5796 13.8271 2.00464)" fill="#FBDECD"/>
    <path fill-rule="evenodd" clip-rule="evenodd" d="M14.9806 21.6787C14.9723 20.5383 14.1678 19.7816 13.3701 19.7875C12.5724 19.7933 11.7791 20.5618 11.7874 21.7021C11.7958 22.8424 12.6003 23.5992 13.398 23.5933C14.1957 23.5875 14.989 22.819 14.9806 21.6787ZM15.7333 21.6732C15.7226 20.2065 14.662 19.0252 13.3645 19.0347C12.0671 19.0442 11.024 20.2409 11.0347 21.7076C11.0455 23.1743 12.106 24.3556 13.4035 24.346C14.701 24.3365 15.7441 23.1398 15.7333 21.6732Z" fill="#FBDECD"/>
    <rect x="12.7905" y="20.8521" width="5.15856" height="1.17469" rx="0.587344" transform="rotate(-90.4204 12.7905 20.8521)" fill="#FBDECD"/>
    <rect x="12.8413" y="27.6958" width="5.15856" height="1.17469" rx="0.587344" transform="rotate(-90.4204 12.8413 27.6958)" fill="#FBDECD"/>
  </g>
</svg>
