<svg width="69" height="69" viewBox="0 0 69 69" fill="none" xmlns="http://www.w3.org/2000/svg">
  <mask id="path-1-outside-1_662_13866" maskUnits="userSpaceOnUse" x="1.04199" y="5" width="66" height="64" fill="black">
    <rect fill="white" x="1.04199" y="5" width="66" height="64"/>
    <path fill-rule="evenodd" clip-rule="evenodd" d="M35.2507 7C26.8558 7 19.9759 10.3068 19.3492 14.5047H19.3028V15.1003L19.3027 15.1304L19.3028 15.1604V19.508C19.3028 21.1179 20.2207 22.6185 21.8041 23.8813V28.2642C21.8041 28.4382 21.8148 28.611 21.836 28.7823C20.8182 29.7426 20.1684 30.8192 19.983 31.9629C14.4501 33.0837 10.4391 35.7378 9.96795 38.8963H9.92148V43.8996C9.92148 44.9455 10.3089 45.9453 11.0145 46.8637C6.58182 48.1712 3.49817 50.5353 3.08849 53.2804H3.04211V53.8749L3.04199 53.9059L3.04211 53.9369V58.2837C3.04211 62.774 10.1823 66.414 18.9901 66.414C27.66 66.414 34.7141 62.8871 34.9329 58.494C35.8166 58.2403 36.6482 57.945 37.4172 57.6132C40.3246 59.1815 44.443 60.1601 49.0098 60.1601C57.8177 60.1601 64.9578 56.52 64.9578 52.0297V47.0264H64.9113C64.3357 43.1677 58.4768 40.0619 51.0141 39.5848C51.5397 38.7784 51.8242 37.9159 51.8242 37.0195V32.0933C53.0214 30.9523 53.7001 29.6487 53.7001 28.2642V23.9168L53.7002 23.8862L53.7001 23.8555V23.2609H53.6538C53.449 21.8881 52.5754 20.6106 51.1988 19.5128L51.1988 19.508V14.5047H51.1522C50.5256 10.3068 43.6456 7 35.2507 7Z"/>
  </mask>
  <path fill-rule="evenodd" clip-rule="evenodd" d="M35.2507 7C26.8558 7 19.9759 10.3068 19.3492 14.5047H19.3028V15.1003L19.3027 15.1304L19.3028 15.1604V19.508C19.3028 21.1179 20.2207 22.6185 21.8041 23.8813V28.2642C21.8041 28.4382 21.8148 28.611 21.836 28.7823C20.8182 29.7426 20.1684 30.8192 19.983 31.9629C14.4501 33.0837 10.4391 35.7378 9.96795 38.8963H9.92148V43.8996C9.92148 44.9455 10.3089 45.9453 11.0145 46.8637C6.58182 48.1712 3.49817 50.5353 3.08849 53.2804H3.04211V53.8749L3.04199 53.9059L3.04211 53.9369V58.2837C3.04211 62.774 10.1823 66.414 18.9901 66.414C27.66 66.414 34.7141 62.8871 34.9329 58.494C35.8166 58.2403 36.6482 57.945 37.4172 57.6132C40.3246 59.1815 44.443 60.1601 49.0098 60.1601C57.8177 60.1601 64.9578 56.52 64.9578 52.0297V47.0264H64.9113C64.3357 43.1677 58.4768 40.0619 51.0141 39.5848C51.5397 38.7784 51.8242 37.9159 51.8242 37.0195V32.0933C53.0214 30.9523 53.7001 29.6487 53.7001 28.2642V23.9168L53.7002 23.8862L53.7001 23.8555V23.2609H53.6538C53.449 21.8881 52.5754 20.6106 51.1988 19.5128L51.1988 19.508V14.5047H51.1522C50.5256 10.3068 43.6456 7 35.2507 7Z" fill="white"/>
  <path d="M19.3492 14.5047V16.5047C20.3398 16.5047 21.1811 15.7797 21.3273 14.8L19.3492 14.5047ZM19.3028 14.5047V12.5047C18.1983 12.5047 17.3028 13.4001 17.3028 14.5047H19.3028ZM19.3028 15.1003L21.3028 15.1074V15.1003H19.3028ZM19.3027 15.1304L17.3027 15.1233C17.3027 15.128 17.3027 15.1327 17.3027 15.1375L19.3027 15.1304ZM19.3028 15.1604H21.3028L21.3028 15.1533L19.3028 15.1604ZM21.8041 23.8813H23.8041C23.8041 23.2726 23.5269 22.6971 23.0511 22.3176L21.8041 23.8813ZM21.836 28.7823L23.2085 30.237C23.6714 29.8002 23.8988 29.1692 23.8209 28.5375L21.836 28.7823ZM19.983 31.9629L20.3801 33.9231C21.1958 33.7578 21.824 33.1046 21.9572 32.283L19.983 31.9629ZM9.96795 38.8963V40.8963C10.9586 40.8963 11.7999 40.1711 11.9461 39.1913L9.96795 38.8963ZM9.92148 38.8963V36.8963C8.81691 36.8963 7.92148 37.7917 7.92148 38.8963H9.92148ZM11.0145 46.8637L11.5804 48.782C12.2128 48.5954 12.7126 48.1092 12.9165 47.4822C13.1204 46.8552 13.0022 46.168 12.6005 45.6452L11.0145 46.8637ZM3.08849 53.2804V55.2804C4.07905 55.2804 4.92037 54.5553 5.06658 53.5756L3.08849 53.2804ZM3.04211 53.2804V51.2804C1.93754 51.2804 1.04211 52.1758 1.04211 53.2804H3.04211ZM3.04211 53.8749L5.04211 53.8822V53.8749H3.04211ZM3.04199 53.9059L1.04201 53.8986C1.04199 53.9035 1.04199 53.9083 1.04201 53.9132L3.04199 53.9059ZM3.04211 53.9369H5.04212L5.04209 53.9296L3.04211 53.9369ZM34.9329 58.494L34.3811 56.5716C33.559 56.8076 32.9779 57.5402 32.9354 58.3945L34.9329 58.494ZM37.4172 57.6132L38.3667 55.853C37.8283 55.5625 37.1866 55.5345 36.6249 55.7768L37.4172 57.6132ZM64.9578 47.0264H66.9578C66.9578 45.9218 66.0624 45.0264 64.9578 45.0264V47.0264ZM64.9113 47.0264L62.9332 47.3215C63.0793 48.3012 63.9207 49.0264 64.9113 49.0264V47.0264ZM51.0141 39.5848L49.3385 38.4928C48.9503 39.0885 48.9075 39.8455 49.2262 40.4811C49.5448 41.1167 50.1769 41.5354 50.8865 41.5808L51.0141 39.5848ZM51.8242 32.0933L50.4443 30.6456C50.0483 31.0231 49.8242 31.5463 49.8242 32.0933H51.8242ZM53.7001 23.9168L51.7001 23.9095V23.9168H53.7001ZM53.7002 23.8862L55.7002 23.8934C55.7002 23.8886 55.7002 23.8837 55.7002 23.8789L53.7002 23.8862ZM53.7001 23.8555H51.7001L51.7001 23.8628L53.7001 23.8555ZM53.7001 23.2609H55.7001C55.7001 22.1563 54.8047 21.2609 53.7001 21.2609V23.2609ZM53.6538 23.2609L51.6757 23.556C51.8218 24.5358 52.6632 25.2609 53.6538 25.2609V23.2609ZM51.1988 19.5128L49.1988 19.5112C49.1984 20.1204 49.4756 20.6967 49.9519 21.0765L51.1988 19.5128ZM51.1988 19.508L53.1988 19.5096V19.508H51.1988ZM51.1988 14.5047H53.1988C53.1988 13.4001 52.3034 12.5047 51.1988 12.5047V14.5047ZM51.1522 14.5047L49.1741 14.8C49.3204 15.7797 50.1617 16.5047 51.1522 16.5047V14.5047ZM21.3273 14.8C21.4925 13.6936 22.6116 12.2344 25.2444 10.985C27.7776 9.78278 31.2937 9 35.2507 9V5C30.8128 5 26.6915 5.87061 23.5294 7.37127C20.4668 8.82469 17.8327 11.1179 17.3712 14.2094L21.3273 14.8ZM19.3028 16.5047H19.3492V12.5047H19.3028V16.5047ZM21.3028 15.1003V14.5047H17.3028V15.1003H21.3028ZM21.3027 15.1375L21.3028 15.1074L17.3028 15.0932L17.3027 15.1233L21.3027 15.1375ZM21.3028 15.1533L21.3027 15.1233L17.3027 15.1375L17.3028 15.1675L21.3028 15.1533ZM21.3028 19.508V15.1604H17.3028V19.508H21.3028ZM23.0511 22.3176C21.7477 21.2782 21.3028 20.2965 21.3028 19.508H17.3028C17.3028 21.9393 18.6937 23.9589 20.5571 25.4449L23.0511 22.3176ZM23.8041 28.2642V23.8813H19.8041V28.2642H23.8041ZM23.8209 28.5375C23.8097 28.4469 23.8041 28.3559 23.8041 28.2642H19.8041C19.8041 28.5206 19.8199 28.7752 19.851 29.0272L23.8209 28.5375ZM21.9572 32.283C22.0537 31.6874 22.4149 30.9858 23.2085 30.237L20.4634 27.3276C19.2215 28.4994 18.283 29.951 18.0087 31.6428L21.9572 32.283ZM11.9461 39.1913C12.0683 38.3718 12.7023 37.3444 14.2059 36.3166C15.6842 35.3061 17.8026 34.4452 20.3801 33.9231L19.5859 30.0027C16.6305 30.6014 13.9769 31.628 11.9487 33.0143C9.94583 34.3834 8.33872 36.2622 7.98983 38.6012L11.9461 39.1913ZM9.92148 40.8963H9.96795V36.8963H9.92148V40.8963ZM11.9215 43.8996V38.8963H7.92148V43.8996H11.9215ZM12.6005 45.6452C12.1098 45.0066 11.9215 44.4244 11.9215 43.8996H7.92148C7.92148 45.4666 8.50794 46.884 9.42858 48.0822L12.6005 45.6452ZM5.06658 53.5756C5.17263 52.865 5.65892 51.9986 6.78992 51.0966C7.91248 50.2013 9.53949 49.384 11.5804 48.782L10.4487 44.9454C8.05685 45.6509 5.92568 46.6695 4.29582 47.9693C2.6744 49.2625 1.41403 50.9506 1.1104 52.9852L5.06658 53.5756ZM3.04211 55.2804H3.08849V51.2804H3.04211V55.2804ZM5.04211 53.8749V53.2804H1.04211V53.8749H5.04211ZM5.04198 53.9132L5.04209 53.8822L1.04212 53.8676L1.04201 53.8986L5.04198 53.9132ZM5.04209 53.9296L5.04198 53.8986L1.04201 53.9132L1.04212 53.9442L5.04209 53.9296ZM5.04211 58.2837V53.9369H1.04211V58.2837H5.04211ZM18.9901 64.414C14.8348 64.414 11.172 63.5511 8.62154 62.2509C5.96227 60.8952 5.04211 59.3836 5.04211 58.2837H1.04211C1.04211 61.6741 3.69202 64.2276 6.80479 65.8145C10.0264 67.4569 14.3376 68.414 18.9901 68.414V64.414ZM32.9354 58.3945C32.8806 59.4942 31.8925 60.9904 29.2394 62.311C26.6933 63.5784 23.0791 64.414 18.9901 64.414V68.414C23.5711 68.414 27.8188 67.4863 31.0219 65.8919C34.1181 64.3507 36.7664 61.8868 36.9304 58.5935L32.9354 58.3945ZM36.6249 55.7768C35.9403 56.0722 35.1896 56.3396 34.3811 56.5716L35.4846 60.4164C36.4436 60.1411 37.356 59.8178 38.2095 59.4496L36.6249 55.7768ZM49.0098 58.1601C44.6975 58.1601 40.9213 57.231 38.3667 55.853L36.4677 59.3734C39.7278 61.132 44.1886 62.1601 49.0098 62.1601V58.1601ZM62.9578 52.0297C62.9578 53.1296 62.0377 54.6412 59.3784 55.9969C56.828 57.2971 53.1651 58.1601 49.0098 58.1601V62.1601C53.6624 62.1601 57.9735 61.2029 61.1951 59.5605C64.3079 57.9736 66.9578 55.4201 66.9578 52.0297H62.9578ZM62.9578 47.0264V52.0297H66.9578V47.0264H62.9578ZM64.9113 49.0264H64.9578V45.0264H64.9113V49.0264ZM50.8865 41.5808C54.3972 41.8052 57.4369 42.6451 59.6034 43.8018C61.8409 44.9963 62.7825 46.311 62.9332 47.3215L66.8894 46.7313C66.4646 43.8832 64.1889 41.7155 61.4873 40.2732C58.7148 38.793 55.0937 37.8415 51.1417 37.5889L50.8865 41.5808ZM49.8242 37.0195C49.8242 37.4735 49.6843 37.9623 49.3385 38.4928L52.6897 40.6768C53.395 39.5945 53.8242 38.3582 53.8242 37.0195H49.8242ZM49.8242 32.0933V37.0195H53.8242V32.0933H49.8242ZM51.7001 28.2642C51.7001 28.947 51.3734 29.7601 50.4443 30.6456L53.2041 33.5411C54.6694 32.1445 55.7001 30.3503 55.7001 28.2642H51.7001ZM51.7001 23.9168V28.2642H55.7001V23.9168H51.7001ZM51.7002 23.8789L51.7001 23.9095L55.7001 23.924L55.7002 23.8934L51.7002 23.8789ZM51.7001 23.8628L51.7002 23.8934L55.7002 23.8789L55.7001 23.8483L51.7001 23.8628ZM51.7001 23.2609V23.8555H55.7001V23.2609H51.7001ZM53.6538 25.2609H53.7001V21.2609H53.6538V25.2609ZM49.9519 21.0765C51.0832 21.9787 51.5696 22.8453 51.6757 23.556L55.6319 22.9658C55.3283 20.9309 54.0676 19.2424 52.4458 17.9491L49.9519 21.0765ZM49.1988 19.5064L49.1988 19.5112L53.1988 19.5144L53.1988 19.5096L49.1988 19.5064ZM49.1988 14.5047V19.508H53.1988V14.5047H49.1988ZM51.1522 16.5047H51.1988V12.5047H51.1522V16.5047ZM35.2507 9C39.2077 9 42.7239 9.78278 45.2571 10.985C47.8899 12.2344 49.009 13.6936 49.1741 14.8L53.1303 14.2094C52.6688 11.1179 50.0346 8.82469 46.9721 7.37127C43.8099 5.87061 39.6886 5 35.2507 5V9Z" fill="#4B371F" mask="url(#path-1-outside-1_662_13866)"/>
  <path d="M41.3174 43.8995C41.3174 45.8584 39.7486 47.7607 36.9192 49.2031C34.1171 50.6316 30.2112 51.5299 25.8694 51.5299C21.5276 51.5299 17.6217 50.6316 14.8195 49.2031C11.9902 47.7607 10.4214 45.8584 10.4214 43.8995V39.3962H41.3174V43.8995Z" fill="#CF7200" stroke="#4B371F"/>
  <path d="M41.3174 39.5215C41.3174 41.4803 39.7486 43.3826 36.9192 44.825C34.1171 46.2536 30.2112 47.1518 25.8694 47.1518C21.5276 47.1518 17.6217 46.2536 14.8195 44.825C11.9902 43.3826 10.4214 41.4803 10.4214 39.5215C10.4214 37.5626 11.9902 35.6603 14.8195 34.2179C17.6217 32.7894 21.5276 31.8911 25.8694 31.8911C30.2112 31.8911 34.1171 32.7894 36.9192 34.2179C39.7486 35.6603 41.3174 37.5626 41.3174 39.5215Z" fill="#FFF549" stroke="#4B371F"/>
  <path d="M36.9396 38.8963C36.9396 40.152 35.8779 41.4315 33.832 42.4268C31.8201 43.4055 29.0055 44.025 25.8694 44.025C22.7334 44.025 19.9188 43.4055 17.9069 42.4268C15.861 41.4315 14.7993 40.152 14.7993 38.8963C14.7993 37.6406 15.861 36.3611 17.9069 35.3658C19.9188 34.387 22.7334 33.7676 25.8694 33.7676C29.0055 33.7676 31.8201 34.387 33.832 35.3658C35.8779 36.3611 36.9396 37.6406 36.9396 38.8963Z" fill="#FFCF23" stroke="#AF7026"/>
  <path d="M23.7455 41.782L23.5753 42.1082C22.6774 42.0067 21.8543 41.789 21.1759 41.4734C20.4976 41.1578 19.984 40.7536 19.6788 40.2954C19.3736 39.8371 19.2858 39.3382 19.4229 38.8411C19.56 38.344 19.918 37.8634 20.4664 37.4401C20.9352 37.0781 21.5314 36.7673 22.2166 36.5262C22.2276 36.356 22.2861 36.1854 22.3908 36.02C22.542 35.7811 22.7861 35.5587 23.1064 35.3683C23.4267 35.1779 23.8155 35.0239 24.2463 34.9168C24.677 34.8097 25.1394 34.7522 25.6018 34.7481C26.0641 34.744 26.5155 34.7934 26.925 34.893C27.3344 34.9926 27.6922 35.1401 27.9738 35.3251C28.2555 35.5102 28.4542 35.7286 28.5565 35.9654C28.6273 36.1292 28.6507 36.2991 28.6267 36.4694C28.9845 36.5983 29.3104 36.7499 29.5978 36.9212C29.9989 36.8773 30.4079 36.8738 30.8029 36.9116C31.3363 36.9625 31.8263 37.087 32.2259 37.2731C32.226 37.2732 32.226 37.2732 32.2261 37.2732M23.7455 41.782L29.9127 39.9818C30.4393 39.9734 30.96 39.8792 31.4053 39.7119C31.8505 39.5446 32.1989 39.3121 32.4039 39.0456C32.6089 38.779 32.6606 38.4912 32.5523 38.2205C32.4439 37.9498 32.1806 37.7093 31.7975 37.531L32.2261 37.2732M23.7455 41.782L23.5753 42.1082C24.4731 42.2096 25.4192 42.1917 26.3332 42.056C27.2471 41.9203 28.1019 41.6708 28.8248 41.3287C29.4429 41.0362 29.9491 40.6834 30.313 40.2929M23.7455 41.782L30.313 40.2929M32.2261 37.2732C32.7014 37.4945 33.0282 37.793 33.1626 38.1289C33.2972 38.4648 33.2329 38.8221 32.9785 39.1529C32.7241 39.4837 32.2916 39.7722 31.7391 39.9799C31.3072 40.1422 30.8181 40.249 30.313 40.2929M32.2261 37.2732L30.313 40.2929" fill="#FFF549" stroke="#AF7026"/>
  <path d="M14.0156 39.029C14.9019 37.9006 17.8833 35.4986 22.7185 34.9175" stroke="white" stroke-width="3" stroke-linecap="round" stroke-linejoin="round"/>
  <path d="M64.458 52.0297C64.458 53.9885 62.8892 55.8908 60.0599 57.3332C57.2577 58.7618 53.3518 59.66 49.01 59.66C44.6683 59.66 40.7623 58.7618 37.9602 57.3332C35.1308 55.8908 33.562 53.9885 33.562 52.0297V47.5264H64.458V52.0297Z" fill="#CF7200" stroke="#4B371F"/>
  <path d="M64.458 47.6516C64.458 49.6104 62.8892 51.5128 60.0599 52.9552C57.2577 54.3837 53.3518 55.282 49.01 55.282C44.6683 55.282 40.7623 54.3837 37.9602 52.9552C35.1308 51.5128 33.562 49.6104 33.562 47.6516C33.562 45.6928 35.1308 43.7904 37.9602 42.348C40.7623 40.9195 44.6683 40.0212 49.01 40.0212C53.3518 40.0212 57.2577 40.9195 60.0599 42.348C62.8892 43.7904 64.458 45.6928 64.458 47.6516Z" fill="#FFF549" stroke="#4B371F"/>
  <path d="M60.0802 47.0262C60.0802 48.2819 59.0185 49.5614 56.9726 50.5566C54.9607 51.5354 52.1461 52.1549 49.0101 52.1549C45.874 52.1549 43.0594 51.5354 41.0475 50.5566C39.0016 49.5614 37.9399 48.2819 37.9399 47.0262C37.9399 45.7705 39.0016 44.491 41.0475 43.4957C43.0594 42.5169 45.874 41.8975 49.0101 41.8975C52.1461 41.8975 54.9607 42.5169 56.9726 43.4957C59.0185 44.491 60.0802 45.7705 60.0802 47.0262Z" fill="#FFCF23" stroke="#AF7026"/>
  <path d="M46.8861 49.9121L46.7159 50.2383C45.818 50.1369 44.9949 49.9191 44.3166 49.6035C43.6382 49.2879 43.1246 48.8838 42.8194 48.4255C42.5142 47.9672 42.4264 47.4684 42.5636 46.9713C42.7007 46.4742 43.0586 45.9935 43.607 45.5702C44.0759 45.2083 44.672 44.8974 45.3572 44.6563C45.3683 44.4861 45.4267 44.3155 45.5314 44.1502C45.6826 43.9112 45.9268 43.6889 46.247 43.4984C46.5673 43.308 46.9562 43.154 47.3869 43.0469C47.8176 42.9399 48.28 42.8823 48.7424 42.8782C49.2048 42.8741 49.6561 42.9236 50.0656 43.0232C50.475 43.1228 50.8328 43.2702 51.1145 43.4553C51.3961 43.6404 51.5949 43.8588 51.6971 44.0955C51.7679 44.2593 51.7913 44.4292 51.7673 44.5995C52.1251 44.7284 52.451 44.88 52.7385 45.0513C53.1396 45.0075 53.5485 45.0039 53.9435 45.0417C54.4769 45.0926 54.967 45.2172 55.3665 45.4033C55.3666 45.4033 55.3667 45.4033 55.3668 45.4034M46.8861 49.9121L53.0533 48.1119C53.5799 48.1035 54.1007 48.0094 54.5459 47.8421C54.9911 47.6747 55.3395 47.4423 55.5445 47.1757C55.7495 46.9092 55.8013 46.6213 55.6929 46.3506C55.5845 46.0799 55.3212 45.8394 54.9381 45.6611L55.3668 45.4034M46.8861 49.9121L46.7159 50.2383C47.6138 50.3397 48.5599 50.3218 49.4738 50.1861C50.3877 50.0504 51.2425 49.8009 51.9655 49.4588C52.5836 49.1663 53.0897 48.8136 53.4536 48.423M46.8861 49.9121L53.4536 48.423M55.3668 45.4034C55.842 45.6246 56.1688 45.9231 56.3033 46.259C56.4378 46.5949 56.3735 46.9522 56.1191 47.283C55.8647 47.6138 55.4323 47.9024 54.8797 48.11C54.4479 48.2723 53.9587 48.3791 53.4536 48.423M55.3668 45.4034L53.4536 48.423" fill="#FFF549" stroke="#AF7026"/>
  <path d="M36.189 46.1916C37.0752 45.0632 40.0566 42.6612 44.8918 42.0801" stroke="white" stroke-linecap="round" stroke-linejoin="round"/>
  <path d="M51.3242 37.0197C51.3242 38.9785 49.7554 40.8808 46.9261 42.3232C44.124 43.7518 40.218 44.65 35.8762 44.65C31.5345 44.65 27.6285 43.7518 24.8264 42.3232C21.997 40.8808 20.4282 38.9785 20.4282 37.0197V32.5164H51.3242V37.0197Z" fill="#CF7200" stroke="#4B371F"/>
  <path d="M51.3242 32.6418C51.3242 34.6007 49.7554 36.503 46.9261 37.9454C44.124 39.3739 40.218 40.2722 35.8762 40.2722C31.5345 40.2722 27.6285 39.3739 24.8264 37.9454C21.997 36.503 20.4282 34.6007 20.4282 32.6418C20.4282 30.683 21.997 28.7807 24.8264 27.3383C27.6285 25.9097 31.5345 25.0115 35.8762 25.0115C40.218 25.0115 44.124 25.9097 46.9261 27.3383C49.7554 28.7807 51.3242 30.683 51.3242 32.6418Z" fill="#FFF549" stroke="#4B371F"/>
  <path d="M46.9464 32.0164C46.9464 33.2721 45.8847 34.5516 43.8389 35.5469C41.8269 36.5257 39.0123 37.1451 35.8763 37.1451C32.7402 37.1451 29.9256 36.5257 27.9137 35.5469C25.8678 34.5516 24.8062 33.2721 24.8062 32.0164C24.8062 30.7607 25.8678 29.4812 27.9137 28.4859C29.9256 27.5071 32.7402 26.8877 35.8763 26.8877C39.0123 26.8877 41.8269 27.5071 43.8389 28.4859C45.8847 29.4812 46.9464 30.7607 46.9464 32.0164Z" fill="#FFCF23" stroke="#AF7026"/>
  <path d="M33.7524 34.9021L33.5821 35.2283C32.6842 35.1268 31.8612 34.9091 31.1828 34.5935C30.5044 34.2779 29.9908 33.8738 29.6856 33.4155C29.3804 32.9572 29.2926 32.4584 29.4298 31.9613C29.5669 31.4642 29.9248 30.9835 30.4732 30.5602C30.9421 30.1983 31.5383 29.8874 32.2234 29.6463C32.2345 29.4761 32.2929 29.3055 32.3976 29.1401C32.5488 28.9012 32.793 28.6789 33.1133 28.4884C33.4335 28.298 33.8224 28.144 34.2531 28.0369C34.6838 27.9299 35.1462 27.8723 35.6086 27.8682C36.071 27.8641 36.5224 27.9136 36.9318 28.0132C37.3412 28.1128 37.6991 28.2602 37.9807 28.4453C38.2623 28.6304 38.4611 28.8488 38.5633 29.0855C38.6341 29.2493 38.6575 29.4192 38.6335 29.5895C38.9913 29.7184 39.3172 29.87 39.6047 30.0413C40.0058 29.9975 40.4147 29.9939 40.8097 30.0317C41.3431 30.0826 41.8332 30.2071 42.2327 30.3932C42.2328 30.3933 42.2329 30.3933 42.233 30.3934M33.7524 34.9021L39.9195 33.1019C40.4461 33.0935 40.9669 32.9994 41.4121 32.8321C41.8573 32.6647 42.2057 32.4322 42.4107 32.1657C42.6157 31.8992 42.6675 31.6113 42.5591 31.3406C42.4507 31.0699 42.1874 30.8294 41.8043 30.6511L42.233 30.3934M33.7524 34.9021L33.5821 35.2283C34.48 35.3297 35.4261 35.3118 36.34 35.1761C37.254 35.0404 38.1087 34.7909 38.8317 34.4488C39.4498 34.1563 39.9559 33.8035 40.3198 33.413M33.7524 34.9021L40.3198 33.413M42.233 30.3934C42.7083 30.6146 43.035 30.9131 43.1695 31.249C43.304 31.5849 43.2397 31.9422 42.9853 32.273C42.7309 32.6038 42.2985 32.8923 41.7459 33.1C41.3141 33.2623 40.8249 33.3691 40.3198 33.413M42.233 30.3934L40.3198 33.413" fill="#FFF549" stroke="#AF7026"/>
  <path d="M23.0552 31.1819C23.9414 30.0535 26.9228 27.6514 31.758 27.0704" stroke="white" stroke-linecap="round" stroke-linejoin="round"/>
  <path d="M34.438 58.2838C34.438 60.2426 32.8692 62.145 30.0398 63.5874C27.2377 65.0159 23.3318 65.9142 18.99 65.9142C14.6482 65.9142 10.7423 65.0159 7.94015 63.5874C5.11082 62.145 3.54199 60.2426 3.54199 58.2838V53.7805H34.438V58.2838Z" fill="#CF7200" stroke="#4B371F"/>
  <path d="M34.438 53.906C34.438 55.8648 32.8692 57.7672 30.0398 59.2096C27.2377 60.6381 23.3318 61.5363 18.99 61.5363C14.6482 61.5363 10.7423 60.6381 7.94015 59.2096C5.11082 57.7672 3.54199 55.8648 3.54199 53.906C3.54199 51.9472 5.11082 50.0448 7.94015 48.6024C10.7423 47.1739 14.6482 46.2756 18.99 46.2756C23.3318 46.2756 27.2377 47.1739 30.0398 48.6024C32.8692 50.0448 34.438 51.9472 34.438 53.906Z" fill="#FFF549" stroke="#4B371F"/>
  <path d="M30.0602 53.2806C30.0602 54.5363 28.9985 55.8158 26.9526 56.811C24.9407 57.7898 22.1261 58.4093 18.99 58.4093C15.854 58.4093 13.0394 57.7898 11.0275 56.811C8.98158 55.8158 7.91992 54.5363 7.91992 53.2806C7.91992 52.0249 8.98158 50.7454 11.0275 49.7501C13.0394 48.7713 15.854 48.1519 18.99 48.1519C22.1261 48.1519 24.9407 48.7713 26.9526 49.7501C28.9985 50.7454 30.0602 52.0249 30.0602 53.2806Z" fill="#FFCF23" stroke="#AF7026"/>
  <path d="M16.8661 56.1663L16.6959 56.4924C15.798 56.391 14.9749 56.1732 14.2965 55.8576C13.6182 55.542 13.1046 55.1379 12.7994 54.6797C12.4942 54.2214 12.4064 53.7225 12.5435 53.2254C12.6807 52.7283 13.0386 52.2477 13.587 51.8244C14.0558 51.4624 14.652 51.1515 15.3372 50.9104C15.3482 50.7403 15.4067 50.5697 15.5114 50.4043C15.6626 50.1653 15.9067 49.943 16.227 49.7526C16.5473 49.5622 16.9361 49.4081 17.3669 49.3011C17.7976 49.194 18.26 49.1365 18.7224 49.1324C19.1847 49.1283 19.6361 49.1777 20.0456 49.2773C20.455 49.3769 20.8128 49.5243 21.0944 49.7094C21.3761 49.8945 21.5748 50.1129 21.6771 50.3496C21.7479 50.5134 21.7713 50.6833 21.7473 50.8537C22.1051 50.9826 22.431 51.1342 22.7184 51.3055C23.1196 51.2616 23.5285 51.2581 23.9235 51.2958C24.4569 51.3468 24.9469 51.4713 25.3465 51.6574C25.3466 51.6574 25.3466 51.6575 25.3467 51.6575M16.8661 56.1663L23.0333 54.3661C23.5599 54.3577 24.0806 54.2635 24.5259 54.0962C24.9711 53.9289 25.3195 53.6964 25.5245 53.4299C25.7295 53.1633 25.7813 52.8754 25.6729 52.6048C25.5645 52.3341 25.3012 52.0935 24.9181 51.9153L25.3467 51.6575M16.8661 56.1663L16.6959 56.4924C17.5937 56.5939 18.5398 56.576 19.4538 56.4403C20.3677 56.3046 21.2225 56.0551 21.9454 55.713C22.5635 55.4205 23.0697 55.0677 23.4336 54.6772M16.8661 56.1663L23.4336 54.6772M25.3467 51.6575C25.822 51.8787 26.1488 52.1773 26.2833 52.5131C26.4178 52.8491 26.3535 53.2064 26.0991 53.5372C25.8447 53.868 25.4123 54.1565 24.8597 54.3642C24.4278 54.5265 23.9387 54.6333 23.4336 54.6772M25.3467 51.6575L23.4336 54.6772" fill="#FFF549" stroke="#AF7026"/>
  <path d="M7.13671 53.4133C8.02299 52.2849 11.0043 49.8829 15.8396 49.3018" stroke="white" stroke-width="3" stroke-linecap="round" stroke-linejoin="round"/>
  <path d="M42.5684 51.4042C42.5684 53.363 40.9996 55.2653 38.1702 56.7078C35.3681 58.1363 31.4621 59.0345 27.1204 59.0345C22.7786 59.0345 18.8726 58.1363 16.0705 56.7078C13.2412 55.2653 11.6724 53.363 11.6724 51.4042V46.9009H42.5684V51.4042Z" fill="#CF7200" stroke="#4B371F"/>
  <path d="M42.5684 47.0264C42.5684 48.9852 40.9996 50.8875 38.1702 52.3299C35.3681 53.7585 31.4621 54.6567 27.1204 54.6567C22.7786 54.6567 18.8726 53.7585 16.0705 52.3299C13.2412 50.8875 11.6724 48.9852 11.6724 47.0264C11.6724 45.0675 13.2412 43.1652 16.0705 41.7228C18.8726 40.2942 22.7786 39.396 27.1204 39.396C31.4621 39.396 35.3681 40.2942 38.1702 41.7228C40.9996 43.1652 42.5684 45.0675 42.5684 47.0264Z" fill="#FFF549" stroke="#4B371F"/>
  <path d="M38.1905 46.4009C38.1905 47.6566 37.1289 48.9361 35.083 49.9314C33.0711 50.9102 30.2565 51.5296 27.1204 51.5296C23.9843 51.5296 21.1698 50.9102 19.1578 49.9314C17.112 48.9361 16.0503 47.6566 16.0503 46.4009C16.0503 45.1452 17.112 43.8657 19.1578 42.8704C21.1698 41.8917 23.9843 41.2722 27.1204 41.2722C30.2565 41.2722 33.0711 41.8917 35.083 42.8704C37.1289 43.8657 38.1905 45.1452 38.1905 46.4009Z" fill="#FFCF23" stroke="#AF7026"/>
  <path d="M24.9965 49.2866L24.8263 49.6128C23.9284 49.5114 23.1053 49.2936 22.4269 48.978C21.7485 48.6624 21.2349 48.2583 20.9297 47.8C20.6245 47.3418 20.5368 46.8429 20.6739 46.3458C20.811 45.8487 21.169 45.368 21.7174 44.9447C22.1862 44.5828 22.7824 44.2719 23.4676 44.0308C23.4786 43.8606 23.5371 43.69 23.6417 43.5247C23.793 43.2857 24.0371 43.0634 24.3574 42.8729C24.6777 42.6825 25.0665 42.5285 25.4972 42.4214C25.928 42.3144 26.3904 42.2568 26.8527 42.2527C27.3151 42.2486 27.7665 42.2981 28.1759 42.3977C28.5854 42.4973 28.9432 42.6447 29.2248 42.8298C29.5064 43.0149 29.7052 43.2333 29.8075 43.47C29.8783 43.6338 29.9017 43.8037 29.8777 43.974C30.2355 44.1029 30.5614 44.2545 30.8488 44.4258C31.2499 44.382 31.6589 44.3785 32.0539 44.4162C32.5873 44.4672 33.0773 44.5917 33.4768 44.7778C33.4769 44.7778 33.477 44.7778 33.4771 44.7779M24.9965 49.2866L31.1636 47.4864C31.6902 47.478 32.211 47.3839 32.6562 47.2166C33.1015 47.0493 33.4499 46.8168 33.6549 46.5502C33.8598 46.2837 33.9116 45.9958 33.8032 45.7251C33.6949 45.4545 33.4315 45.2139 33.0485 45.0356L33.4771 44.7779M24.9965 49.2866L24.8263 49.6128C25.7241 49.7142 26.6702 49.6963 27.5842 49.5606C28.4981 49.4249 29.3529 49.1754 30.0758 48.8333C30.6939 48.5408 31.2001 48.1881 31.564 47.7975M24.9965 49.2866L31.564 47.7975M33.4771 44.7779C33.9524 44.9991 34.2791 45.2976 34.4136 45.6335C34.5481 45.9694 34.4839 46.3267 34.2295 46.6575C33.9751 46.9883 33.5426 47.2769 32.9901 47.4845C32.5582 47.6468 32.0691 47.7536 31.564 47.7975M33.4771 44.7779L31.564 47.7975" fill="#FFF549" stroke="#AF7026"/>
  <path d="M15.2671 46.5339C16.1534 45.4055 19.1347 43.0035 23.9699 42.4224" stroke="white" stroke-width="3" stroke-linecap="round" stroke-linejoin="round"/>
  <path d="M53.2002 28.2643C53.2002 30.2231 51.6314 32.1255 48.8021 33.5679C45.9999 34.9964 42.094 35.8946 37.7522 35.8946C33.4104 35.8946 29.5045 34.9964 26.7024 33.5679C23.873 32.1255 22.3042 30.2231 22.3042 28.2643V23.761H53.2002V28.2643Z" fill="#CF7200" stroke="#4B371F"/>
  <path d="M53.2002 23.8862C53.2002 25.845 51.6314 27.7474 48.8021 29.1898C45.9999 30.6183 42.094 31.5166 37.7522 31.5166C33.4104 31.5166 29.5045 30.6183 26.7024 29.1898C23.873 27.7474 22.3042 25.845 22.3042 23.8862C22.3042 21.9274 23.873 20.025 26.7024 18.5826C29.5045 17.1541 33.4104 16.2559 37.7522 16.2559C42.094 16.2559 45.9999 17.1541 48.8021 18.5826C51.6314 20.025 53.2002 21.9274 53.2002 23.8862Z" fill="#FFF549" stroke="#4B371F"/>
  <path d="M48.8224 23.2608C48.8224 24.5165 47.7607 25.796 45.7148 26.7913C43.7029 27.77 40.8883 28.3895 37.7523 28.3895C34.6162 28.3895 31.8016 27.77 29.7897 26.7913C27.7438 25.796 26.6821 24.5165 26.6821 23.2608C26.6821 22.0051 27.7438 20.7256 29.7897 19.7303C31.8016 18.7515 34.6162 18.1321 37.7523 18.1321C40.8883 18.1321 43.7029 18.7515 45.7148 19.7303C47.7607 20.7256 48.8224 22.0051 48.8224 23.2608Z" fill="#FFCF23" stroke="#AF7026"/>
  <path d="M35.6283 26.147L35.4581 26.4732C34.5602 26.3717 33.7371 26.1539 33.0588 25.8383C32.3804 25.5227 31.8668 25.1186 31.5616 24.6604C31.2564 24.2021 31.1686 23.7032 31.3057 23.2061C31.4429 22.709 31.8008 22.2284 32.3492 21.8051C32.818 21.4431 33.4142 21.1322 34.0994 20.8912C34.1104 20.721 34.1689 20.5504 34.2736 20.385C34.4248 20.146 34.669 19.9237 34.9892 19.7333C35.3095 19.5429 35.6983 19.3888 36.1291 19.2818C36.5598 19.1747 37.0222 19.1172 37.4846 19.1131C37.9469 19.109 38.3983 19.1584 38.8078 19.258C39.2172 19.3576 39.575 19.505 39.8567 19.6901C40.1383 19.8752 40.337 20.0936 40.4393 20.3304C40.5101 20.4942 40.5335 20.6641 40.5095 20.8344C40.8673 20.9633 41.1932 21.1149 41.4806 21.2862C41.8818 21.2423 42.2907 21.2388 42.6857 21.2765C43.2191 21.3275 43.7091 21.452 44.1087 21.6381C44.1088 21.6382 44.1089 21.6382 44.1089 21.6382M35.6283 26.147L41.7955 24.3468C42.3221 24.3384 42.8429 24.2442 43.2881 24.0769C43.7333 23.9096 44.0817 23.6771 44.2867 23.4106C44.4917 23.144 44.5435 22.8562 44.4351 22.5855C44.3267 22.3148 44.0634 22.0742 43.6803 21.896L44.1089 21.6382M35.6283 26.147L35.4581 26.4732C36.356 26.5746 37.3021 26.5567 38.216 26.421C39.1299 26.2853 39.9847 26.0358 40.7077 25.6937C41.3258 25.4012 41.8319 25.0484 42.1958 24.6579M35.6283 26.147L42.1958 24.6579M44.1089 21.6382C44.5842 21.8594 44.911 22.158 45.0455 22.4938C45.18 22.8298 45.1157 23.1871 44.8613 23.5179C44.6069 23.8487 44.1745 24.1372 43.6219 24.3449C43.19 24.5072 42.7009 24.614 42.1958 24.6579M44.1089 21.6382L42.1958 24.6579" fill="#FFF549" stroke="#AF7026"/>
  <path d="M24.9311 22.4263C25.8174 21.2979 28.7988 18.8958 33.634 18.3147" stroke="white" stroke-linecap="round" stroke-linejoin="round"/>
  <path d="M50.6987 19.5079C50.6987 21.4668 49.1299 23.3691 46.3006 24.8115C43.4985 26.24 39.5925 27.1383 35.2507 27.1383C30.909 27.1383 27.003 26.24 24.2009 24.8115C21.3716 23.3691 19.8027 21.4668 19.8027 19.5079V15.0046H50.6987V19.5079Z" fill="#CF7200" stroke="#4B371F"/>
  <path d="M50.6987 15.1304C50.6987 17.0892 49.1299 18.9915 46.3006 20.4339C43.4985 21.8625 39.5925 22.7607 35.2507 22.7607C30.909 22.7607 27.003 21.8625 24.2009 20.4339C21.3716 18.9915 19.8027 17.0892 19.8027 15.1304C19.8027 13.1715 21.3716 11.2692 24.2009 9.82678C27.003 8.39825 30.909 7.5 35.2507 7.5C39.5925 7.5 43.4985 8.39825 46.3006 9.82678C49.1299 11.2692 50.6987 13.1715 50.6987 15.1304Z" fill="#FFF549" stroke="#4B371F"/>
  <path d="M46.3209 14.5049C46.3209 15.7606 45.2592 17.0401 43.2134 18.0354C41.2014 19.0142 38.3869 19.6336 35.2508 19.6336C32.1147 19.6336 29.3001 19.0142 27.2882 18.0354C25.2423 17.0401 24.1807 15.7606 24.1807 14.5049C24.1807 13.2492 25.2423 11.9697 27.2882 10.9744C29.3001 9.99567 32.1147 9.37622 35.2508 9.37622C38.3869 9.37622 41.2014 9.99567 43.2134 10.9744C45.2592 11.9697 46.3209 13.2492 46.3209 14.5049Z" fill="#FFCF23" stroke="#AF7026"/>
  <path d="M33.1269 17.3906L32.9566 17.7168C32.0588 17.6154 31.2357 17.3976 30.5573 17.082C29.8789 16.7664 29.3653 16.3623 29.0601 15.904C28.7549 15.4458 28.6671 14.9469 28.8043 14.4498C28.9414 13.9527 29.2994 13.472 29.8477 13.0487C30.3166 12.6868 30.9128 12.3759 31.5979 12.1348C31.609 11.9646 31.6674 11.794 31.7721 11.6287C31.9234 11.3897 32.1675 11.1674 32.4878 10.9769C32.808 10.7865 33.1969 10.6325 33.6276 10.5254C34.0583 10.4184 34.5207 10.3608 34.9831 10.3567C35.4455 10.3526 35.8969 10.4021 36.3063 10.5017C36.7158 10.6013 37.0736 10.7487 37.3552 10.9338C37.6368 11.1189 37.8356 11.3373 37.9379 11.574C38.0086 11.7378 38.032 11.9077 38.008 12.078C38.3659 12.2069 38.6917 12.3585 38.9792 12.5298C39.3803 12.486 39.7892 12.4825 40.1842 12.5202C40.7176 12.5712 41.2077 12.6957 41.6072 12.8818C41.6073 12.8818 41.6074 12.8819 41.6075 12.8819M33.1269 17.3906L39.294 15.5904C39.8206 15.582 40.3414 15.4879 40.7866 15.3206C41.2318 15.1533 41.5802 14.9208 41.7852 14.6542C41.9902 14.3877 42.042 14.0998 41.9336 13.8291C41.8252 13.5585 41.5619 13.3179 41.1788 13.1397L41.6075 12.8819M33.1269 17.3906L32.9566 17.7168C33.8545 17.8182 34.8006 17.8004 35.7145 17.6646C36.6285 17.5289 37.4832 17.2794 38.2062 16.9373C38.8243 16.6449 39.3304 16.2921 39.6943 15.9016M33.1269 17.3906L39.6943 15.9016M41.6075 12.8819C42.0828 13.1031 42.4095 13.4016 42.544 13.7375C42.6785 14.0734 42.6142 14.4307 42.3598 14.7615C42.1054 15.0923 41.673 15.3809 41.1204 15.5885C40.6886 15.7508 40.1994 15.8576 39.6943 15.9016M41.6075 12.8819L39.6943 15.9016" fill="#FFF549" stroke="#AF7026"/>
  <path d="M23.3974 14.6379C24.2837 13.5095 27.2651 11.1075 32.1003 10.5264" stroke="white" stroke-width="3" stroke-linecap="round" stroke-linejoin="round"/>
  <path d="M61.9834 0.872053C61.9253 0.652741 61.7269 0.5 61.5 0.5C61.2731 0.5 61.0747 0.652741 61.0166 0.872053L59.7306 5.73056L54.8721 7.01665C54.6527 7.0747 54.5 7.27313 54.5 7.5C54.5 7.72687 54.6527 7.9253 54.8721 7.98335L59.7306 9.26944L61.0166 14.1279C61.0747 14.3473 61.2731 14.5 61.5 14.5C61.7269 14.5 61.9253 14.3473 61.9834 14.1279L63.2694 9.26944L68.1279 7.98335C68.3473 7.9253 68.5 7.72687 68.5 7.5C68.5 7.27313 68.3473 7.0747 68.1279 7.01665L63.2694 5.73056L61.9834 0.872053Z" fill="#FFF5A9" stroke="#4B371F" stroke-linejoin="round"/>
  <path d="M7.98335 30.8721C7.9253 30.6527 7.72687 30.5 7.5 30.5C7.27313 30.5 7.0747 30.6527 7.01665 30.8721L5.73056 35.7306L0.872053 37.0166C0.652741 37.0747 0.5 37.2731 0.5 37.5C0.5 37.7269 0.652741 37.9253 0.872053 37.9834L5.73056 39.2694L7.01665 44.1279C7.0747 44.3473 7.27313 44.5 7.5 44.5C7.72687 44.5 7.9253 44.3473 7.98335 44.1279L9.26944 39.2694L14.1279 37.9834C14.3473 37.9253 14.5 37.7269 14.5 37.5C14.5 37.2731 14.3473 37.0747 14.1279 37.0166L9.26944 35.7306L7.98335 30.8721Z" fill="#FFF5A9" stroke="#4B371F" stroke-linejoin="round"/>
</svg>
