<svg width="70" height="71" viewBox="0 0 70 71" fill="none" xmlns="http://www.w3.org/2000/svg">
  <mask id="path-1-outside-1_662_11904" maskUnits="userSpaceOnUse" x="-2.44949" y="-2.647" width="75.2271" height="76.6413" fill="black">
    <rect fill="white" x="-2.44949" y="-2.647" width="75.2271" height="76.6413"/>
    <path fill-rule="evenodd" clip-rule="evenodd" d="M21.5859 9.27767C20.1886 10.019 20.0429 11.7099 20.9959 12.883C10.1091 17.1463 4.35395 30.8043 8.04081 44.5639C11.9529 59.1641 25.0145 68.3498 37.2146 65.0807L45.1815 62.946L46.6301 62.5579L46.6177 62.5115C59.1247 58.2852 66.1313 44.0791 62.3611 30.0088C58.9569 17.3042 47.8882 8.89671 36.2422 9.2936L36.301 9.05872C36.6939 7.48921 35.7332 6.02252 34.1174 6.10479C32.9487 6.16429 31.3892 6.3377 29.3748 6.73605C28.4644 6.9161 27.6286 7.13927 26.8677 7.38649C24.6411 7.8618 22.8801 8.59114 21.5859 9.27767Z"/>
  </mask>
  <path fill-rule="evenodd" clip-rule="evenodd" d="M21.5859 9.27767C20.1886 10.019 20.0429 11.7099 20.9959 12.883C10.1091 17.1463 4.35395 30.8043 8.04081 44.5639C11.9529 59.1641 25.0145 68.3498 37.2146 65.0807L45.1815 62.946L46.6301 62.5579L46.6177 62.5115C59.1247 58.2852 66.1313 44.0791 62.3611 30.0088C58.9569 17.3042 47.8882 8.89671 36.2422 9.2936L36.301 9.05872C36.6939 7.48921 35.7332 6.02252 34.1174 6.10479C32.9487 6.16429 31.3892 6.3377 29.3748 6.73605C28.4644 6.9161 27.6286 7.13927 26.8677 7.38649C24.6411 7.8618 22.8801 8.59114 21.5859 9.27767Z" fill="#FFE01B"/>
  <path d="M20.9959 12.883L21.7252 14.7453C22.3196 14.5125 22.7672 14.0099 22.9299 13.3926C23.0925 12.7752 22.9507 12.1173 22.5482 11.6218L20.9959 12.883ZM21.5859 9.27767L22.5232 11.0445L22.5232 11.0445L21.5859 9.27767ZM37.2146 65.0807L37.7322 67.0126L37.2146 65.0807ZM45.1815 62.946L44.6639 61.0142L44.6639 61.0142L45.1815 62.946ZM46.6301 62.5579L47.1478 64.4897C47.6601 64.3524 48.0969 64.0172 48.3622 63.5579C48.6274 63.0985 48.6993 62.5526 48.562 62.0402L46.6301 62.5579ZM46.6177 62.5115L45.9774 60.6168C44.9781 60.9545 44.4128 62.0102 44.6858 63.0292L46.6177 62.5115ZM36.2422 9.2936L34.3021 8.80791C34.1496 9.41706 34.2921 10.0625 34.6868 10.5508C35.0815 11.0392 35.6827 11.3138 36.3103 11.2924L36.2422 9.2936ZM36.301 9.05872L34.3609 8.57303L34.3609 8.57303L36.301 9.05872ZM34.1174 6.10479L34.0157 4.10738L34.0157 4.10738L34.1174 6.10479ZM29.3748 6.73605L28.9868 4.77405L29.3748 6.73605ZM26.8677 7.38649L27.2852 9.34242C27.3529 9.32797 27.4198 9.31001 27.4856 9.28863L26.8677 7.38649ZM22.5482 11.6218C22.3956 11.434 22.3803 11.267 22.3905 11.1936C22.3952 11.1598 22.4046 11.1415 22.4128 11.1298C22.4194 11.1203 22.4448 11.0861 22.5232 11.0445L20.6487 7.51088C17.9132 8.96202 17.8655 12.2016 19.4436 14.1441L22.5482 11.6218ZM9.97267 44.0463C6.47562 30.9951 12.0304 18.5418 21.7252 14.7453L20.2666 11.0207C8.18776 15.7508 2.23227 30.6135 6.10896 45.0815L9.97267 44.0463ZM36.6969 63.1489C25.8741 66.0489 13.6898 57.9189 9.97267 44.0463L6.10896 45.0815C10.216 60.4092 24.1548 70.6507 37.7322 67.0126L36.6969 63.1489ZM44.6639 61.0142L36.6969 63.1489L37.7322 67.0126L45.6992 64.8779L44.6639 61.0142ZM46.1125 60.626L44.6639 61.0142L45.6991 64.8779L47.1478 64.4897L46.1125 60.626ZM44.6858 63.0292L44.6983 63.0755L48.562 62.0402L48.5496 61.9939L44.6858 63.0292ZM60.4293 30.5264C63.9634 43.7159 57.3551 56.7721 45.9774 60.6168L47.258 64.4063C60.8943 59.7984 68.2991 44.4423 64.293 29.4912L60.4293 30.5264ZM36.3103 11.2924C46.9362 10.9303 57.2418 18.6307 60.4293 30.5264L64.293 29.4912C60.672 15.9776 48.8402 6.8631 36.1741 7.29476L36.3103 11.2924ZM34.3609 8.57303L34.3021 8.80791L38.1823 9.7793L38.2411 9.54442L34.3609 8.57303ZM34.2191 8.1022C34.2646 8.09988 34.2929 8.10369 34.3067 8.1064C34.3139 8.10782 34.3186 8.1092 34.3212 8.11005C34.3237 8.11089 34.3248 8.11144 34.3249 8.11147C34.325 8.11151 34.3246 8.11134 34.3241 8.11098C34.3235 8.11064 34.3233 8.11043 34.3235 8.11056C34.3236 8.11064 34.327 8.11356 34.3327 8.12157C34.3539 8.15128 34.4297 8.29805 34.3609 8.57303L38.2411 9.54442C38.5652 8.24988 38.3572 6.87854 37.5923 5.8031C36.8024 4.6926 35.5047 4.03156 34.0157 4.10738L34.2191 8.1022ZM29.7628 8.69806C31.6934 8.31628 33.1568 8.15629 34.2191 8.1022L34.0157 4.10738C32.7406 4.1723 31.0851 4.35912 28.9868 4.77405L29.7628 8.69806ZM27.4856 9.28863C28.1736 9.06512 28.9326 8.86224 29.7628 8.69806L28.9868 4.77405C27.9962 4.96995 27.0837 5.21342 26.2497 5.48435L27.4856 9.28863ZM22.5232 11.0445C23.6713 10.4354 25.2583 9.77512 27.2852 9.34242L26.4501 5.43056C24.024 5.94848 22.0889 6.74685 20.6487 7.51088L22.5232 11.0445Z" fill="#4B371F" mask="url(#path-1-outside-1_662_11904)"/>
  <path d="M8.04076 44.5638C11.9529 59.164 25.0144 68.3497 37.2145 65.0807L46.6301 62.5578L32.4631 9.68597L23.0476 12.2089C10.8474 15.4779 4.12866 29.9637 8.04076 44.5638Z" fill="#9C6923" stroke="#4B371F" stroke-linecap="round" stroke-linejoin="round"/>
  <ellipse cx="38.098" cy="36.5098" rx="25.119" ry="27.3685" transform="rotate(-15 38.098 36.5098)" fill="#E5C17F" stroke="#4B371F" stroke-linecap="round" stroke-linejoin="round"/>
  <path d="M43.3701 56.186C53.4719 53.4792 59.2275 42.4562 56.3255 31.6257C53.4235 20.7953 42.9275 14.1269 32.8257 16.8337C22.7239 19.5404 16.9683 30.5634 19.8703 41.3939C22.7723 52.2244 33.2683 58.8928 43.3701 56.186Z" fill="#FFE7E7" stroke="#4B371F" stroke-linecap="round" stroke-linejoin="round"/>
  <path d="M40.7161 17.0611C44.9953 17.896 48.9241 20.3002 51.8189 23.8552L38.0979 36.5098L40.7161 17.0611Z" fill="#BB7AFF" stroke="#4B371F" stroke-width="0.6" stroke-linecap="round" stroke-linejoin="round"/>
  <path d="M56.4883 39.1692C56.0755 43.7538 54.1668 47.975 51.0946 51.0982L38.0979 36.5098L56.4883 39.1692Z" fill="#BB7AFF" stroke="#4B371F" stroke-width="0.6" stroke-linecap="round" stroke-linejoin="round"/>
  <path d="M38.0378 56.2653C33.715 56.0687 29.534 54.2574 26.2226 51.1467L38.0979 36.5098L38.0378 56.2653Z" fill="#BB7AFF" stroke="#4B371F" stroke-width="0.6" stroke-linecap="round" stroke-linejoin="round"/>
  <path d="M19.7255 33.6596C20.1803 29.0813 22.128 24.8818 25.2298 21.7921L38.0979 36.5098L19.7255 33.6596Z" fill="#BB7AFF" stroke="#4B371F" stroke-width="0.6" stroke-linecap="round" stroke-linejoin="round"/>
  <ellipse cx="38.0978" cy="36.51" rx="4.87384" ry="5.62366" transform="rotate(-15 38.0978 36.51)" fill="#B69F10" stroke="#4B371F" stroke-width="0.6" stroke-linecap="round" stroke-linejoin="round"/>
  <ellipse cx="39.6574" cy="36.1843" rx="4.87384" ry="5.62366" transform="rotate(-15 39.6574 36.1843)" fill="#FFE331" stroke="#4B371F" stroke-width="0.6" stroke-linecap="round" stroke-linejoin="round"/>
  <path d="M27.0574 18.9306C29.0256 20.6604 32.1268 19.6934 32.7631 17.1516L34.6131 9.76164C34.8414 8.84944 34.683 7.93732 34.197 7.25402C33.7047 6.56196 32.8972 6.13713 31.919 6.18693C30.7237 6.24779 29.1402 6.42455 27.1049 6.82705C24.6667 7.3092 22.7482 8.09488 21.3515 8.83576C20.4153 9.3324 19.9296 10.1977 19.8904 11.1126C19.8516 12.0169 20.2474 12.9458 21.0122 13.6179L27.0574 18.9306Z" fill="#B69F10" stroke="#4B371F" stroke-linecap="round" stroke-linejoin="round"/>
  <path d="M29.2302 18.3486C31.1985 20.0783 34.2996 19.1114 34.9359 16.5695L36.7859 9.17961C37.0143 8.26741 36.8558 7.35529 36.3698 6.67199C35.8776 5.97993 35.0701 5.5551 34.0918 5.6049C32.8966 5.66576 31.3131 5.84252 29.2777 6.24502C26.8395 6.72717 24.921 7.51285 23.5244 8.25373C22.5882 8.75037 22.1025 9.61567 22.0632 10.5306C22.0244 11.4348 22.4203 12.3638 23.1851 13.0359L29.2302 18.3486Z" fill="#FFE01B" stroke="#4B371F" stroke-linecap="round" stroke-linejoin="round"/>
  <path d="M25.6213 10.3702C27.121 9.8703 30.8701 8.79558 33.8694 8.49561" stroke="white" stroke-width="2" stroke-linecap="round"/>
</svg>
