<svg width="66" height="59" viewBox="0 0 66 59" fill="none" xmlns="http://www.w3.org/2000/svg">
  <mask id="path-1-outside-1_662_11671" maskUnits="userSpaceOnUse" x="0" y="0" width="67" height="59" fill="black">
    <rect fill="white" width="67" height="59"/>
    <path fill-rule="evenodd" clip-rule="evenodd" d="M2 8.15564C2 11.5553 4.75597 14.3113 8.15564 14.3113C9.08465 14.3113 9.9656 14.1055 10.7554 13.737L28.2665 22.7501C27.9689 26.362 29.5407 28.9395 30.5716 29.9714C31.0896 33.4967 33.3733 34.8307 34.6821 35.226C35.5228 36.3442 36.3699 37.1698 37.1745 37.7587C37.6712 38.4634 38.2109 39.1642 38.7839 39.8517C39.537 40.7555 40.4844 41.4563 41.4121 42.0644C41.7721 42.3004 42.1207 42.5176 42.4567 42.727L42.4576 42.7276L42.4582 42.7279L42.4585 42.7281C43.0168 43.076 43.5403 43.4022 44.0242 43.757C44.7843 44.3145 45.3221 44.8603 45.5822 45.4909C45.8319 46.0965 45.8595 46.8664 45.4115 47.9543C44.403 50.4036 44.2783 52.5418 45.0036 54.0729C45.7534 55.656 47.3329 56.4335 49.3295 56.2799C50.3066 56.2048 51.1128 55.9565 51.7436 55.5097C52.3813 55.058 52.7956 54.4345 53.0367 53.6912C53.5047 52.248 53.3338 50.3009 52.9145 48.0642C52.5141 45.9288 52.8624 44.7652 53.4167 43.9776C53.7048 43.5681 54.0691 43.2305 54.4841 42.8994C54.665 42.755 54.8498 42.6163 55.0418 42.4721L55.0421 42.4719L55.1299 42.406C55.3504 42.2401 55.5789 42.0667 55.8005 41.882C56.0023 41.7139 56.2637 41.5258 56.5671 41.3075L56.5673 41.3074L56.5673 41.3074C57.3713 40.7291 58.4698 39.9389 59.5325 38.7466C61.0345 37.0615 62.5426 34.5276 63.541 30.3913C65.1235 23.8352 62.249 19.2675 60.414 17.6364C59.2097 13.3828 55.6151 12.1714 53.7184 12.0787C50.0956 8.58799 46.0097 9.03936 44.1829 9.81151C41.6165 9.33283 39.5159 9.46231 37.811 10.0273C36.0631 10.6065 34.7638 11.6327 33.8232 12.8669C33.5419 13.2359 33.293 13.6231 33.0736 14.022C32.3187 14.5783 31.7684 15.2511 31.4236 15.811L14.2595 7.3533C13.8663 4.33273 11.2834 2 8.15564 2C4.75597 2 2 4.75597 2 8.15564ZM8.15594 13.192C8.59695 13.192 9.02473 13.1353 9.43238 13.0288C9.02464 13.1354 8.59676 13.1921 8.15564 13.1921C5.37409 13.1921 3.11921 10.9372 3.11921 8.15564C3.11921 6.14537 4.29699 4.41023 6.00014 3.60252C4.29715 4.4103 3.11951 6.1454 3.11951 8.15555C3.11951 10.9371 5.3744 13.192 8.15594 13.192Z"/>
  </mask>
  <path d="M10.7554 13.737L11.6707 11.9587L10.7986 11.5098L9.90972 11.9246L10.7554 13.737ZM28.2665 22.7501L30.2598 22.9144L30.3695 21.5831L29.1818 20.9718L28.2665 22.7501ZM30.5716 29.9714L32.5503 29.6806L32.4541 29.0259L31.9864 28.5578L30.5716 29.9714ZM34.6821 35.226L36.2808 34.0241L35.8872 33.5007L35.2603 33.3114L34.6821 35.226ZM37.1745 37.7587L38.8093 36.6066L38.6204 36.3384L38.3557 36.1447L37.1745 37.7587ZM38.7839 39.8517L37.2474 41.1321L37.2474 41.1321L38.7839 39.8517ZM41.4121 42.0644L42.5085 40.3917L42.5085 40.3917L41.4121 42.0644ZM42.4567 42.727L43.5147 41.0298L43.5145 41.0296L42.4567 42.727ZM42.4576 42.7276L41.3996 44.4248L41.4064 44.4291L41.4133 44.4333L42.4576 42.7276ZM42.4582 42.7279L43.5064 41.0246L43.5025 41.0222L42.4582 42.7279ZM42.4585 42.7281L43.5162 41.0306L43.5067 41.0248L42.4585 42.7281ZM44.0242 43.757L42.8415 45.3698L42.8415 45.3699L44.0242 43.757ZM45.5822 45.4909L43.7332 46.2534V46.2534L45.5822 45.4909ZM45.4115 47.9543L43.5622 47.1928V47.1928L45.4115 47.9543ZM45.0036 54.0729L46.811 53.2167L46.811 53.2167L45.0036 54.0729ZM49.3295 56.2799L49.1762 54.2858H49.1761L49.3295 56.2799ZM51.7436 55.5097L50.5875 53.8777L50.5875 53.8777L51.7436 55.5097ZM53.0367 53.6912L54.9391 54.3082L54.9391 54.3082L53.0367 53.6912ZM52.9145 48.0642L50.9487 48.4328V48.4328L52.9145 48.0642ZM53.4167 43.9776L55.0523 45.1286L55.0523 45.1286L53.4167 43.9776ZM54.4841 42.8994L55.7316 44.4627L55.7316 44.4627L54.4841 42.8994ZM55.0418 42.4721L56.2427 44.0715L56.252 44.0644L55.0418 42.4721ZM55.0421 42.4719L53.8409 40.8728L53.8319 40.8796L55.0421 42.4719ZM55.1299 42.406L56.331 44.0051L56.3318 44.0045L55.1299 42.406ZM55.8005 41.882L57.0809 43.4184L57.0809 43.4184L55.8005 41.882ZM56.5671 41.3075L55.4202 39.6691L55.4097 39.6764L55.3993 39.6839L56.5671 41.3075ZM56.5673 41.3074L55.4579 39.6433L55.439 39.6559L55.4203 39.669L56.5673 41.3074ZM56.5673 41.3074L57.6767 42.9715L57.7063 42.9518L57.7352 42.931L56.5673 41.3074ZM59.5325 38.7466L58.0395 37.4159H58.0395L59.5325 38.7466ZM63.541 30.3913L65.4852 30.8606V30.8606L63.541 30.3913ZM60.414 17.6364L58.4896 18.1813L58.6487 18.7432L59.0853 19.1313L60.414 17.6364ZM53.7184 12.0787L52.3307 13.5189L52.8712 14.0397L53.6208 14.0763L53.7184 12.0787ZM44.1829 9.81151L43.8162 11.7776L44.4075 11.8879L44.9616 11.6537L44.1829 9.81151ZM37.811 10.0273L37.1819 8.12879V8.12879L37.811 10.0273ZM33.8232 12.8669L35.4139 14.0792V14.0792L33.8232 12.8669ZM33.0736 14.022L34.26 15.6321L34.6141 15.3712L34.826 14.9858L33.0736 14.022ZM31.4236 15.811L30.5396 17.605L32.1722 18.4095L33.1266 16.8598L31.4236 15.811ZM14.2595 7.3533L12.2762 7.61146L12.4145 8.6738L13.3755 9.14732L14.2595 7.3533ZM9.43238 13.0288L9.93795 14.9639L8.92694 11.0938L9.43238 13.0288ZM6.00014 3.60252L6.85726 5.40954L5.14314 1.79544L6.00014 3.60252ZM8.15564 12.3113C5.86054 12.3113 4 10.4507 4 8.15564H0C0 12.6599 3.6514 16.3113 8.15564 16.3113V12.3113ZM9.90972 11.9246C9.37927 12.1721 8.78648 12.3113 8.15564 12.3113V16.3113C9.38283 16.3113 10.5519 16.0389 11.601 15.5494L9.90972 11.9246ZM29.1818 20.9718L11.6707 11.9587L9.84009 15.5153L27.3513 24.5284L29.1818 20.9718ZM31.9864 28.5578C31.3165 27.8873 30.0163 25.8686 30.2598 22.9144L26.2733 22.5858C25.9214 26.8554 27.7649 29.9918 29.1567 31.3849L31.9864 28.5578ZM35.2603 33.3114C34.5079 33.0841 32.93 32.2641 32.5503 29.6806L28.5928 30.2621C29.2493 34.7294 32.2387 36.5772 34.1039 37.1405L35.2603 33.3114ZM38.3557 36.1447C37.7292 35.6863 37.0188 35.0058 36.2808 34.0241L33.0835 36.4278C34.0269 37.6827 35.0106 38.6534 35.9934 39.3727L38.3557 36.1447ZM40.3203 38.5714C39.7795 37.9224 39.2729 37.2643 38.8093 36.6066L35.5397 38.9108C36.0695 39.6625 36.6423 40.406 37.2474 41.1321L40.3203 38.5714ZM42.5085 40.3917C41.631 39.8165 40.8818 39.2451 40.3203 38.5714L37.2474 41.1321C38.1923 42.266 39.3378 43.0961 40.3156 43.737L42.5085 40.3917ZM43.5145 41.0296C43.1761 40.8188 42.8465 40.6133 42.5085 40.3917L40.3156 43.737C40.6978 43.9876 41.0654 44.2165 41.399 44.4244L43.5145 41.0296ZM43.5156 41.0303L43.5147 41.0298L41.3987 44.4242L41.3996 44.4248L43.5156 41.0303ZM43.5025 41.0222L43.5019 41.0219L41.4133 44.4333L41.4139 44.4336L43.5025 41.0222ZM43.5067 41.0248L43.5064 41.0246L41.41 44.4312L41.4103 44.4314L43.5067 41.0248ZM45.2069 42.1442C44.6513 41.7367 44.0614 41.3704 43.5162 41.0307L41.4008 44.4255C41.9722 44.7816 42.4294 45.0677 42.8415 45.3698L45.2069 42.1442ZM47.4311 44.7283C46.9597 43.5854 46.0624 42.7716 45.2069 42.1442L42.8415 45.3699C43.5062 45.8573 43.6845 46.1352 43.7332 46.2534L47.4311 44.7283ZM47.2609 48.7158C47.8584 47.2647 47.9284 45.9342 47.4311 44.7283L43.7332 46.2534C43.7479 46.289 43.7654 46.3426 43.7605 46.4533C43.755 46.5778 43.7186 46.8129 43.5622 47.1928L47.2609 48.7158ZM46.811 53.2167C46.4281 52.4082 46.3565 50.9121 47.2609 48.7158L43.5622 47.1928C42.4494 49.8952 42.1285 52.6753 43.1961 54.9291L46.811 53.2167ZM49.1761 54.2858C47.8113 54.3908 47.1294 53.8888 46.811 53.2167L43.1961 54.929C44.3775 57.4231 46.8546 58.4762 49.4829 58.274L49.1761 54.2858ZM50.5875 53.8777C50.3362 54.0557 49.9114 54.2293 49.1762 54.2858L49.4829 58.274C50.7019 58.1803 51.8894 57.8574 52.8996 57.1418L50.5875 53.8777ZM51.1342 53.0742C51.0046 53.4738 50.8208 53.7125 50.5875 53.8777L52.8996 57.1418C53.9418 56.4035 54.5865 55.3953 54.9391 54.3082L51.1342 53.0742ZM50.9487 48.4328C51.369 50.6744 51.4296 52.1634 51.1342 53.0742L54.9391 54.3082C55.5799 52.3325 55.2986 49.9273 54.8802 47.6956L50.9487 48.4328ZM51.7811 42.8266C50.8331 44.1736 50.4791 45.9282 50.9487 48.4328L54.8802 47.6956C54.549 45.9293 54.8917 45.3568 55.0523 45.1286L51.7811 42.8266ZM53.2366 41.3361C52.7581 41.718 52.2269 42.193 51.7811 42.8266L55.0523 45.1286C55.1828 44.9431 55.3801 44.7431 55.7316 44.4627L53.2366 41.3361ZM53.8409 40.8728C53.6531 41.0138 53.4445 41.1703 53.2366 41.3361L55.7316 44.4627C55.8856 44.3398 56.0466 44.2187 56.2427 44.0715L53.8409 40.8728ZM53.8319 40.8796L53.8316 40.8798L56.252 44.0644L56.2523 44.0642L53.8319 40.8796ZM53.9287 40.8068L53.8409 40.8728L56.2433 44.071L56.331 44.0051L53.9287 40.8068ZM54.5202 40.3455C54.3405 40.4952 54.1473 40.6425 53.928 40.8074L56.3318 44.0045C56.5536 43.8378 56.8173 43.6381 57.0809 43.4184L54.5202 40.3455ZM55.3993 39.6839C55.1162 39.8876 54.7887 40.1218 54.5201 40.3456L57.0809 43.4184C57.2159 43.3059 57.4113 43.164 57.735 42.9311L55.3993 39.6839ZM55.4203 39.669L55.4202 39.6691L57.7141 42.946L57.7142 42.9459L55.4203 39.669ZM55.4579 39.6433L55.4579 39.6433L57.6767 42.9715L57.6767 42.9715L55.4579 39.6433ZM58.0395 37.4159C57.1365 38.4289 56.1984 39.1091 55.3994 39.6838L57.7352 42.931C58.5442 42.3491 59.8031 41.4488 61.0255 40.0774L58.0395 37.4159ZM61.5969 29.922C60.6667 33.7755 59.2985 36.0033 58.0395 37.4159L61.0255 40.0774C62.7705 38.1196 64.4185 35.2798 65.4852 30.8606L61.5969 29.922ZM59.0853 19.1313C60.4392 20.3348 62.9848 24.1721 61.5969 29.922L65.4852 30.8606C67.2623 23.4984 64.0587 18.2003 61.7427 16.1416L59.0853 19.1313ZM53.6208 14.0763C54.9731 14.1424 57.5946 15.02 58.4896 18.1813L62.3384 17.0916C60.8248 11.7456 56.2571 10.2003 53.816 10.0811L53.6208 14.0763ZM44.9616 11.6537C46.2065 11.1275 49.3971 10.6923 52.3307 13.5189L55.1061 10.6385C50.7941 6.4837 45.8129 6.95122 43.4042 7.96931L44.9616 11.6537ZM38.4401 11.9258C39.7571 11.4893 41.505 11.3465 43.8162 11.7776L44.5496 7.84542C41.728 7.31914 39.2747 7.43528 37.1819 8.12879L38.4401 11.9258ZM35.4139 14.0792C36.1303 13.1392 37.1046 12.3683 38.4401 11.9258L37.1819 8.12879C35.0216 8.84463 33.3973 10.1262 32.2325 11.6546L35.4139 14.0792ZM34.826 14.9858C35.001 14.6678 35.1965 14.3644 35.4139 14.0792L32.2325 11.6546C31.8873 12.1075 31.585 12.5784 31.3211 13.0582L34.826 14.9858ZM33.1266 16.8598C33.3583 16.4836 33.7423 16.0136 34.26 15.6321L31.8871 12.412C30.895 13.143 30.1786 14.0187 29.7207 14.7622L33.1266 16.8598ZM13.3755 9.14732L30.5396 17.605L32.3076 14.017L15.1435 5.55927L13.3755 9.14732ZM8.15564 4C10.2656 4 12.011 5.57429 12.2762 7.61146L16.2427 7.09514C15.7215 3.09117 12.3012 0 8.15564 0V4ZM4 8.15564C4 5.86054 5.86054 4 8.15564 4V0C3.6514 0 0 3.6514 0 8.15564H4ZM8.92694 11.0938C8.68292 11.1575 8.42496 11.192 8.15594 11.192V15.192C8.76894 15.192 9.36654 15.1131 9.93782 14.9639L8.92694 11.0938ZM8.15564 15.1921C8.76883 15.1921 9.36657 15.1132 9.93795 14.9639L8.9268 11.0938C8.68271 11.1576 8.42469 11.1921 8.15564 11.1921V15.1921ZM1.11921 8.15564C1.11921 12.0418 4.26952 15.1921 8.15564 15.1921V11.1921C6.47866 11.1921 5.11921 9.83261 5.11921 8.15564H1.11921ZM5.14314 1.79544C2.76832 2.92169 1.11921 5.34405 1.11921 8.15564H5.11921C5.11921 6.9467 5.82566 5.89878 6.85714 5.4096L5.14314 1.79544ZM5.11951 8.15555C5.11951 6.94665 5.8259 5.89875 6.85726 5.40954L5.14302 1.79549C2.76839 2.92184 1.11951 5.34414 1.11951 8.15555H5.11951ZM8.15594 11.192C6.47897 11.192 5.11951 9.83252 5.11951 8.15555H1.11951C1.11951 12.0417 4.26983 15.192 8.15594 15.192V11.192Z" fill="#4B371F" mask="url(#path-1-outside-1_662_11671)"/>
  <path d="M3.11928 8.15606C3.11928 10.9376 5.37416 13.1925 8.15571 13.1925C10.9373 13.1925 13.1921 10.9376 13.1921 8.15606C13.1921 5.37452 10.9373 3.11963 8.15571 3.11963C5.37416 3.11963 3.11928 5.37452 3.11928 8.15606Z" fill="#DB792F"/>
  <path fill-rule="evenodd" clip-rule="evenodd" d="M1.99976 8.15564C1.99976 11.5553 4.75573 14.3113 8.1554 14.3113C11.5551 14.3113 14.311 11.5553 14.311 8.15564C14.311 4.75597 11.5551 2 8.1554 2C4.75573 2 1.99976 4.75597 1.99976 8.15564ZM8.1554 13.1921C5.37385 13.1921 3.11896 10.9372 3.11896 8.15564C3.11896 5.37409 5.37385 3.11921 8.1554 3.11921C10.9369 3.11921 13.1918 5.37409 13.1918 8.15564C13.1918 10.9372 10.9369 13.1921 8.1554 13.1921Z" fill="#934820"/>
  <path d="M5.16614 5.29712C4.31756 7.11798 5.33285 9.38783 7.43385 10.367C9.53485 11.3461 11.926 10.6637 12.7745 8.84287C13.6231 7.022 12.6078 4.75215 10.5068 3.77302C8.40583 2.79389 6.01472 3.47625 5.16614 5.29712Z" fill="#ED9C43"/>
  <path d="M62.9969 30.2601C64.5638 23.7687 61.5979 19.3478 59.9191 17.9488C58.8 13.696 55.1624 12.6326 53.4835 12.6325C49.902 9.05102 45.8356 9.64801 44.25 10.3942C33.9533 8.37962 31.9388 16.4566 32.2186 20.7469C31.0994 25.2237 33.2445 28.5813 34.457 29.7005C34.457 32.4985 36.4156 36.136 39.2136 39.4936C42.0116 42.8512 47.8875 43.4108 45.9289 48.1674C43.9702 52.9241 45.6491 56.0019 49.2865 55.7221C52.9239 55.4423 53.2037 52.6443 52.3643 48.1674C51.5249 43.6906 53.7633 42.8512 55.4421 41.4522C57.1209 40.0532 61.0383 38.3744 62.9969 30.2601Z" fill="#F8D61F"/>
  <path fill-rule="evenodd" clip-rule="evenodd" d="M44.1827 9.81164C41.6163 9.33296 39.5157 9.46243 37.8108 10.0274C36.0629 10.6066 34.7636 11.6328 33.823 12.867C31.9815 15.2832 31.5267 18.474 31.6547 20.696C30.5722 25.1691 32.5705 28.5868 33.9016 29.9412C33.9537 31.3985 34.471 33.0086 35.2854 34.6375C36.1484 36.3634 37.3639 38.1481 38.7836 39.8519C39.5368 40.7557 40.4842 41.4564 41.4119 42.0645C41.7725 42.3009 42.1217 42.5185 42.4583 42.7282C43.0165 43.0761 43.5401 43.4023 44.024 43.7572C44.7841 44.3146 45.3219 44.8604 45.582 45.491C45.8317 46.0966 45.8593 46.8665 45.4113 47.9544C44.4028 50.4038 44.2781 52.5419 45.0033 54.073C45.7532 55.6561 47.3327 56.4336 49.3293 56.2801C50.3064 56.2049 51.1126 55.9566 51.7434 55.5099C52.3811 55.0581 52.7954 54.4346 53.0364 53.6913C53.5045 52.2481 53.3336 50.301 52.9142 48.0643C52.5139 45.9289 52.8622 44.7653 53.4164 43.9777C53.7046 43.5682 54.0689 43.2307 54.4839 42.8995C54.6649 42.7551 54.8498 42.6162 55.0419 42.472C55.071 42.4502 55.1002 42.4282 55.1297 42.4061C55.3502 42.2403 55.5787 42.0668 55.8003 41.8821C56.0021 41.714 56.2636 41.5258 56.567 41.3076C57.371 40.7292 58.4696 39.939 59.5323 38.7467C61.0343 37.0616 62.5424 34.5277 63.5408 30.3915C65.1233 23.8354 62.2487 19.2676 60.4138 17.6366C59.2095 13.383 55.6149 12.1715 53.7182 12.0788C50.0954 8.58812 46.0095 9.03949 44.1827 9.81164ZM44.4883 10.9006C45.903 10.2348 49.7042 9.64469 53.0877 13.0282L53.2516 13.1921L53.4834 13.1921C55 13.1922 58.3442 14.1631 59.3778 18.0913L59.4233 18.2643L59.5608 18.3788C61.0945 19.6569 63.9643 23.8672 62.4528 30.1288C61.4926 34.1068 60.0628 36.4695 58.6968 38.002C57.7206 39.0973 56.811 39.7498 56.0306 40.3097C55.6884 40.5552 55.3711 40.7829 55.0838 41.0223C54.8857 41.1874 54.677 41.3462 54.4571 41.5115C54.4286 41.5329 54.4 41.5544 54.3712 41.5761C54.1801 41.7195 53.9808 41.8692 53.7858 42.0247C53.3351 42.3843 52.8775 42.7988 52.5012 43.3336C51.7263 44.4347 51.3752 45.9292 51.8142 48.2706C52.2342 50.5107 52.3432 52.2011 51.9718 53.346C51.7932 53.8968 51.508 54.3051 51.0964 54.5966C50.6779 54.893 50.0851 55.0994 49.2435 55.1642C47.6027 55.2904 46.524 54.6689 46.0148 53.5939C45.481 52.4669 45.4962 50.6878 46.4462 48.3805C46.9776 47.0901 47.0052 46.0063 46.6166 45.0643C46.2384 44.1472 45.4996 43.4514 44.6858 42.8546C44.1737 42.4791 43.5812 42.1093 42.993 41.7421C42.6642 41.5369 42.3368 41.3326 42.0254 41.1285C41.1257 40.5387 40.2893 39.9104 39.6434 39.1354C38.2652 37.4815 37.1023 35.7686 36.2865 34.137C35.4672 32.4984 35.0165 30.9788 35.0165 29.7005V29.4555L34.8365 29.2893C33.7398 28.2771 31.7022 25.1193 32.7614 20.8826L32.7826 20.7978L32.7769 20.7105C32.6422 18.6453 33.0673 15.7049 34.7131 13.5454C35.5283 12.4759 36.6457 11.5925 38.1628 11.0898C39.6843 10.5856 41.6402 10.4538 44.1425 10.9434L44.3224 10.9786L44.4883 10.9006Z" fill="#F19800"/>
  <path d="M49.8461 47.8878C48.5421 45.4972 50.2192 42.4783 50.6855 41.4524C47.5518 40.7808 46.7683 41.3591 46.7683 41.7322C47.0481 42.2918 49.3536 45.2354 48.4471 47.0484C47.3279 49.2868 46.2087 51.805 48.4471 52.6444C50.281 53.3322 51.525 50.9656 49.8461 47.8878Z" fill="#F19800"/>
  <path d="M59.919 21.5878C58.7996 19.6292 57.494 19.7225 56.8411 19.6292C57.5127 15.3763 52.9238 14.5928 51.5248 14.5928C50.4056 11.459 45.8355 11.9813 43.6904 12.6342C41.452 10.8435 37.9078 12.4477 36.4155 13.4736C33.7294 13.4736 32.1252 15.5255 31.6589 16.5514L12.3526 7.03816C9.55447 6.75838 7.31605 10.6739 9.83437 12.6342L28.8609 22.4273C28.4132 26.2326 30.1666 28.8627 31.0993 29.7021C31.547 33.2836 33.8973 34.4587 35.0165 34.7385C37.4788 38.0962 39.8664 38.6558 40.8924 38.376C42.0116 40.0548 46.2086 40.8942 46.7682 40.0548C46.9146 39.8352 47.1147 39.7393 47.3277 39.7161C47.7661 39.6684 48.2587 39.9292 48.447 40.0548C50.4989 40.9874 55.4422 40.7263 58.7998 34.4587C62.9968 26.6243 60.9764 23.4379 59.919 21.5878Z" fill="#DB792F"/>
  <path fill-rule="evenodd" clip-rule="evenodd" d="M8.59927 8.74562C7.91527 10.1134 7.97241 11.8938 9.49059 13.0755L9.5318 13.1076L28.2662 22.7503C27.9685 26.3622 29.5403 28.9398 30.5712 29.9716C31.0893 33.497 33.3729 34.8309 34.6818 35.2262C36.9455 38.2374 39.2558 39.1265 40.6573 38.9851C41.0003 39.3748 41.4568 39.6973 41.9384 39.9569C42.5459 40.2844 43.2379 40.5357 43.9044 40.7023C44.5684 40.8684 45.2327 40.9566 45.7863 40.9418C46.0621 40.9344 46.3327 40.901 46.5702 40.8256C46.7991 40.753 47.0638 40.6199 47.2338 40.3649C47.2608 40.3244 47.2842 40.3068 47.3008 40.2973C47.3189 40.2869 47.3459 40.2768 47.3882 40.2722C47.4855 40.2616 47.6245 40.2847 47.786 40.3448C47.9417 40.4026 48.0735 40.4781 48.1366 40.5201L48.1742 40.5452L48.2154 40.564C50.5718 41.635 55.8156 41.2139 59.293 34.7227C61.4224 30.7479 62.0087 27.8892 61.8885 25.7475C61.7732 23.6933 61.0077 22.3601 60.4778 21.4373C60.4529 21.3939 60.4285 21.3515 60.4048 21.3099C59.7922 20.2381 59.0981 19.6807 58.4242 19.3939C58.0786 19.2468 57.7367 19.1756 57.4576 19.1358C57.5123 18.2216 57.3339 17.4411 56.9844 16.7848C56.5663 15.9998 55.9264 15.435 55.2429 15.0334C54.0879 14.3548 52.7471 14.1051 51.9055 14.0471C51.1638 12.4539 49.5947 11.8155 48.0567 11.6374C46.5359 11.4613 44.922 11.712 43.8009 12.0195C42.5332 11.148 40.9939 11.148 39.6498 11.4515C38.2967 11.7572 37.0433 12.3894 36.2412 12.9163C33.7493 12.9906 32.1411 14.6457 31.4233 15.8112L12.509 6.49116L12.4082 6.48109C10.7245 6.31274 9.2713 7.40178 8.59927 8.74562ZM36.7748 13.9057C37.4811 13.4279 38.6531 12.8241 39.8964 12.5433C40.8613 12.3253 41.8065 12.3139 42.6117 12.6433C38.6454 15.3118 32.6599 22.445 34.3096 33.8709C33.2809 33.3392 31.9695 32.1453 31.6549 29.6353C30.7908 22.0624 34.7037 16.0017 36.7748 13.9057ZM30.4169 27.8813C29.7403 26.6665 29.1429 24.8188 29.4166 22.4924L29.462 22.107L10.139 12.1614C9.17585 11.3834 9.10177 10.2431 9.60028 9.24621C10.1026 8.24176 11.1219 7.52531 12.2013 7.58722L31.9294 17.3083L32.1683 16.7827C32.4937 16.0669 33.4447 14.7982 34.9737 14.272C32.9198 16.8918 30.2949 21.8279 30.4169 27.8813ZM35.5447 34.5114C33.4372 22.3901 40.2543 15.2351 43.9113 13.1519C44.9372 12.8474 46.5033 12.5842 47.9279 12.7492C49.1753 12.8936 50.2074 13.3461 50.7631 14.2795C48.1552 15.3214 44.7748 17.5918 42.3872 21.306C39.8801 25.2063 38.4924 30.6615 40.1912 37.8698C39.2197 37.7891 37.4589 37.0772 35.5447 34.5114ZM41.4089 38.1372C39.5807 30.9431 40.936 25.6334 43.3287 21.9112C45.7157 18.1978 49.1608 16.0253 51.6166 15.1533C52.2865 15.17 53.6013 15.367 54.6759 15.9984C55.2306 16.3243 55.6993 16.7528 55.9965 17.3109C56.2553 17.7968 56.4018 18.4139 56.33 19.2082C54.0623 19.9971 51.0471 21.8641 48.8854 25.0671C46.6544 28.3727 45.359 33.0626 46.6786 39.3665C46.5448 39.4543 46.4214 39.5717 46.3164 39.7237C46.3055 39.7302 46.2801 39.7435 46.2317 39.7589C46.1281 39.7917 45.9703 39.8173 45.7564 39.823C45.3307 39.8344 44.7709 39.7653 44.1758 39.6166C43.5831 39.4684 42.9811 39.2476 42.4694 38.9717C41.9897 38.7131 41.626 38.4259 41.4089 38.1372ZM47.784 39.1847C46.5056 33.1325 47.7571 28.7394 49.8131 25.6932C51.8896 22.6165 54.814 20.874 56.8925 20.1998C56.95 20.2064 57.0067 20.2123 57.063 20.218C57.3575 20.2483 57.6425 20.2776 57.9859 20.4237C58.4079 20.6033 58.9263 20.9785 59.4331 21.8653C59.4549 21.9034 59.4769 21.9419 59.4992 21.9808C60.0181 22.8856 60.6707 24.0236 60.771 25.8103C60.8761 27.6829 60.3741 30.3347 58.3065 34.1942C55.0907 40.197 50.4892 40.3377 48.7147 39.5612C48.5873 39.4807 48.3972 39.3779 48.1761 39.2957C48.062 39.2533 47.9288 39.2122 47.784 39.1847Z" fill="#934820"/>
  <path d="M59.919 21.5878C58.7996 19.6292 57.494 19.7225 56.8411 19.6292C57.5127 15.3763 52.9238 14.5928 51.5248 14.5928C50.4056 11.459 45.8355 11.9813 43.6904 12.6342C41.452 10.8435 37.9078 12.4477 36.4155 13.4736C33.7294 13.4736 32.1252 15.5255 31.6589 16.5514L12.3526 7.03816C9.55447 6.75838 7.31605 10.6739 9.83437 12.6342L28.8609 22.4273C28.4132 26.2326 30.1666 28.8627 31.0993 29.7021C31.547 33.2836 33.8973 34.4587 35.0165 34.7385C37.4788 38.0962 39.8664 38.6558 40.8924 38.376C42.0116 40.0548 46.2086 40.8942 46.7682 40.0548C46.9146 39.8352 47.1147 39.7393 47.3277 39.7161C47.7661 39.6684 48.2587 39.9292 48.447 40.0548C50.4989 40.9874 55.4422 40.7263 58.7998 34.4587C62.9968 26.6243 60.9764 23.4379 59.919 21.5878Z" fill="#DB792F"/>
  <path fill-rule="evenodd" clip-rule="evenodd" d="M8.59927 8.74562C7.91527 10.1134 7.97241 11.8938 9.49059 13.0755L9.5318 13.1076L28.2662 22.7503C27.9685 26.3622 29.5403 28.9398 30.5712 29.9716C31.0893 33.497 33.3729 34.8309 34.6818 35.2262C36.9455 38.2374 39.2558 39.1265 40.6573 38.9851C41.0003 39.3748 41.4568 39.6973 41.9384 39.9569C42.5459 40.2844 43.2379 40.5357 43.9044 40.7023C44.5684 40.8684 45.2327 40.9566 45.7863 40.9418C46.0621 40.9344 46.3327 40.901 46.5702 40.8256C46.7991 40.753 47.0638 40.6199 47.2338 40.3649C47.2608 40.3244 47.2842 40.3068 47.3008 40.2973C47.3189 40.2869 47.3459 40.2768 47.3882 40.2722C47.4855 40.2616 47.6245 40.2847 47.786 40.3448C47.9417 40.4026 48.0735 40.4781 48.1366 40.5201L48.1742 40.5452L48.2154 40.564C50.5718 41.635 55.8156 41.2139 59.293 34.7227C61.4224 30.7479 62.0087 27.8892 61.8885 25.7475C61.7732 23.6933 61.0077 22.3601 60.4778 21.4373C60.4529 21.3939 60.4285 21.3515 60.4048 21.3099C59.7922 20.2381 59.0981 19.6807 58.4242 19.3939C58.0786 19.2468 57.7367 19.1756 57.4576 19.1358C57.5123 18.2216 57.3339 17.4411 56.9844 16.7848C56.5663 15.9998 55.9264 15.435 55.2429 15.0334C54.0879 14.3548 52.7471 14.1051 51.9055 14.0471C51.1638 12.4539 49.5947 11.8155 48.0567 11.6374C46.5359 11.4613 44.922 11.712 43.8009 12.0195C42.5332 11.148 40.9939 11.148 39.6498 11.4515C38.2967 11.7572 37.0433 12.3894 36.2412 12.9163C33.7493 12.9906 32.1411 14.6457 31.4233 15.8112L12.509 6.49116L12.4082 6.48109C10.7245 6.31274 9.2713 7.40178 8.59927 8.74562ZM30.7297 16.7172L12.2013 7.58722C11.1219 7.52531 10.1026 8.24176 9.60028 9.24621C9.10177 10.2431 9.17585 11.3834 10.139 12.1614L28.5024 21.6131C28.7114 20.8954 29.0117 20.0013 29.3811 19.1312C29.7442 18.2757 30.1976 17.3856 30.7297 16.7172ZM29.4125 22.5279C29.5958 21.8034 29.947 20.6622 30.4113 19.5686C30.8944 18.4306 31.4579 17.4476 32.0174 16.9809L32.1155 16.899L32.1683 16.7827C32.4937 16.0669 33.4447 14.7982 34.9737 14.272C32.9198 16.8918 30.2949 21.8279 30.4169 27.8813C29.7438 26.6727 29.149 24.8376 29.4125 22.5279ZM31.6549 29.6353C30.7908 22.0624 34.7037 16.0017 36.7748 13.9057C37.4811 13.4279 38.6531 12.8241 39.8964 12.5433C40.8613 12.3253 41.8065 12.3139 42.6117 12.6433C38.6454 15.3118 32.6599 22.445 34.3096 33.8709C33.2809 33.3392 31.9695 32.1453 31.6549 29.6353ZM35.5447 34.5114C33.4372 22.3901 40.2543 15.2351 43.9113 13.1519C44.9372 12.8474 46.5033 12.5842 47.9279 12.7492C49.1753 12.8936 50.2074 13.3461 50.7631 14.2795C48.1552 15.3214 44.7748 17.5918 42.3872 21.306C39.8801 25.2063 38.4924 30.6615 40.1912 37.8698C39.2197 37.7891 37.4589 37.0772 35.5447 34.5114ZM41.4089 38.1372C39.5807 30.9431 40.936 25.6334 43.3287 21.9112C45.7157 18.1978 49.1608 16.0253 51.6166 15.1533C52.2865 15.17 53.6013 15.367 54.6759 15.9984C55.2306 16.3243 55.6993 16.7528 55.9965 17.3109C56.2553 17.7968 56.4018 18.4139 56.33 19.2082C54.0623 19.9971 51.0471 21.8641 48.8854 25.0671C46.6544 28.3727 45.359 33.0626 46.6786 39.3665C46.5448 39.4543 46.4214 39.5717 46.3164 39.7237C46.3055 39.7302 46.2801 39.7435 46.2317 39.7589C46.1281 39.7917 45.9703 39.8173 45.7564 39.823C45.3307 39.8344 44.7709 39.7653 44.1758 39.6166C43.5831 39.4684 42.9811 39.2476 42.4694 38.9717C41.9897 38.7131 41.626 38.4259 41.4089 38.1372ZM47.784 39.1847C46.5056 33.1325 47.7571 28.7394 49.8131 25.6932C51.8896 22.6165 54.814 20.874 56.8925 20.1998C56.95 20.2064 57.0067 20.2123 57.063 20.218C57.3575 20.2483 57.6425 20.2776 57.9859 20.4237C58.4079 20.6033 58.9263 20.9785 59.4331 21.8653C59.4549 21.9034 59.4769 21.9419 59.4992 21.9808C60.0181 22.8856 60.6707 24.0236 60.771 25.8103C60.8761 27.6829 60.3741 30.3347 58.3065 34.1942C55.0907 40.197 50.4892 40.3377 48.7147 39.5612C48.5873 39.4807 48.3972 39.3779 48.1761 39.2957C48.062 39.2533 47.9288 39.2122 47.784 39.1847Z" fill="#934820"/>
  <path d="M32.8064 17.8684C30.5125 22.3054 34.1056 28.7214 40.8318 32.1988C47.5581 35.6763 54.8704 34.8983 57.1643 30.4613C59.4583 26.0242 55.8652 19.6082 49.1389 16.1308C42.4127 12.6534 35.1004 13.4313 32.8064 17.8684Z" fill="#ED9C43"/>
  <path d="M30.5396 16.5515L12.3521 7.61039C11.309 7.50609 10.504 8.25211 9.83391 8.99522L29.4202 18.7883C29.6441 18.1154 30.2597 17.0168 30.5396 16.5515Z" fill="#ED9C43"/>
  <path d="M53.658 30.4987C51.9187 34.1205 51.7272 37.6417 53.2303 38.3635C54.7333 39.0853 57.3617 36.7344 59.101 33.1126C60.8403 29.4907 61.0318 25.9696 59.5287 25.2478C58.0257 24.526 55.3973 26.8769 53.658 30.4987Z" fill="#CE6B28"/>
  <path fill-rule="evenodd" clip-rule="evenodd" d="M52.787 35.549C52.8596 34.2157 53.3167 32.5021 54.1625 30.741C55.0082 28.9798 56.0598 27.5517 57.055 26.6615C57.5537 26.2155 58.0167 25.9238 58.4123 25.7806C58.8055 25.6384 59.0872 25.6565 59.2865 25.7522C59.4858 25.8479 59.6761 26.0565 59.8109 26.4522C59.9465 26.8505 60.0083 27.3942 59.972 28.0623C59.8995 29.3956 59.4423 31.1091 58.5966 32.8703C57.7508 34.6315 56.6993 36.0596 55.704 36.9498C55.2053 37.3958 54.7423 37.6875 54.3467 37.8307C53.9535 37.9729 53.6718 37.9548 53.4725 37.859C53.2732 37.7633 53.0829 37.5548 52.9482 37.1591C52.8125 36.7608 52.7507 36.217 52.787 35.549ZM53.2303 38.3635C51.7272 37.6417 51.9187 34.1205 53.658 30.4987C55.3973 26.8769 58.0257 24.526 59.5287 25.2478C61.0318 25.9696 60.8403 29.4907 59.101 33.1126C57.3617 36.7344 54.7333 39.0853 53.2303 38.3635Z" fill="#934820"/>
  <path fill-rule="evenodd" clip-rule="evenodd" d="M33.8216 13.8202C33.5504 13.6719 33.2104 13.7715 33.0621 14.0427C31.8568 16.2469 31.5461 18.811 31.6547 20.6959C30.5722 25.169 32.5705 28.5867 33.9016 29.9411C33.987 32.3302 35.3247 35.1574 37.2452 37.859C37.4243 38.1109 37.7737 38.1699 38.0256 37.9908C38.2775 37.8117 38.3365 37.4624 38.1574 37.2105C36.2103 34.4715 35.0165 31.7825 35.0165 29.7004V29.4554L34.8364 29.2893C33.7398 28.277 31.7022 25.1192 32.7614 20.8825L32.7826 20.7977L32.7769 20.7104C32.6633 18.9681 32.9481 16.5841 34.0441 14.5796C34.1924 14.3085 34.0927 13.9685 33.8216 13.8202Z" fill="#934820"/>
  <path fill-rule="evenodd" clip-rule="evenodd" d="M35.054 13.8202C34.7829 13.6719 34.4428 13.7715 34.2946 14.0427C33.0893 16.2469 32.7785 18.811 32.8871 20.6959C31.8044 25.1699 33.8037 28.5881 35.1348 29.9419C35.1846 31.1427 35.5951 32.6519 36.2453 34.0383C36.9375 35.5142 37.9469 36.9483 39.1968 37.7295C39.4589 37.8933 39.8041 37.8136 39.9679 37.5515C40.1317 37.2894 40.0521 36.9442 39.79 36.7804C38.8015 36.1626 37.9089 34.9496 37.2586 33.5631C36.6107 32.1816 36.2489 30.7251 36.2489 29.7004V29.4554L36.0689 29.2893C34.9722 28.277 32.9346 25.1192 33.9938 20.8825L34.015 20.7977L34.0093 20.7104C33.8957 18.9681 34.1805 16.5841 35.2765 14.5796C35.4248 14.3085 35.3252 13.9685 35.054 13.8202ZM55.872 37.1765C55.6741 36.939 55.3213 36.907 55.0838 37.1048C52.5984 39.1761 49.543 38.8308 48.3555 38.4067C48.0644 38.3028 47.7442 38.4545 47.6402 38.7455C47.5363 39.0366 47.688 39.3568 47.979 39.4607C49.403 39.9693 52.9136 40.3702 55.8003 37.9646C56.0378 37.7668 56.0698 37.4139 55.872 37.1765ZM41.0802 37.1165C40.8492 37.3218 40.8284 37.6755 41.0338 37.9065C41.4575 38.3832 42.2264 39.0112 43.2016 39.4039C44.1865 39.8004 45.412 39.967 46.6963 39.4533C46.9832 39.3385 47.1228 39.0129 47.008 38.7259C46.8932 38.4389 46.5676 38.2994 46.2806 38.4141C45.3265 38.7958 44.4068 38.6826 43.6196 38.3657C42.8228 38.0448 42.1927 37.5257 41.8703 37.1629C41.6649 36.9319 41.3112 36.9111 41.0802 37.1165Z" fill="#FCCD0F"/>
  <path d="M52.3642 33.8972C52.8119 30.7634 54.6027 28.1146 55.4421 27.182C56.8411 25.5032 54.3228 24.384 52.0844 28.3012C49.846 32.2184 51.8046 37.8144 52.3642 33.8972Z" fill="#FCCD0F"/>
  <path d="M46.2296 31.6278C46.8027 27.6029 49.0952 24.2008 50.1697 23.0029C51.9607 20.8467 48.737 19.4092 45.8714 24.4404C43.0059 29.4716 45.5132 36.659 46.2296 31.6278Z" fill="#FCCD0F"/>
  <path d="M39.5143 27.7108C40.0874 23.6859 42.3798 20.2838 43.4544 19.0859C45.2454 16.9297 42.0216 15.4922 39.1561 20.5234C36.2905 25.5546 38.7979 32.7421 39.5143 27.7108Z" fill="#FCCD0F"/>
  <path d="M43.5081 21.7617C42.8458 22.8056 43.088 24.1958 43.8709 24.6925C44.6538 25.1892 45.4514 24.5416 46.1137 23.4977C46.776 22.4538 47.0521 21.409 46.2692 20.9123C45.4863 20.4156 44.1704 20.7178 43.5081 21.7617Z" fill="white"/>
  <path d="M49.7388 25.7295C49.1147 26.7131 49.3429 28.0231 50.0806 28.4912C50.8183 28.9592 51.57 28.3489 52.194 27.3653C52.8181 26.3817 53.0783 25.3972 52.3406 24.9291C51.6029 24.4611 50.3628 24.7458 49.7388 25.7295Z" fill="white"/>
  <path d="M38.0524 19.0579C37.4616 19.9891 37.6776 21.2292 38.376 21.6723C39.0744 22.1154 39.7859 21.5377 40.3767 20.6065C40.9674 19.6753 41.2138 18.7434 40.5154 18.3003C39.817 17.8572 38.6432 18.1268 38.0524 19.0579Z" fill="white"/>
  <path d="M46.4906 49.3533C46.2505 50.1785 46.6814 51.0599 47.3003 51.2399C47.9192 51.42 48.3264 50.8331 48.5664 50.0079C48.8065 49.1827 48.7886 48.4317 48.1697 48.2516C47.5508 48.0716 46.7307 48.5281 46.4906 49.3533Z" fill="white"/>
  <path d="M34.6327 17.714C34.2956 18.2452 34.4189 18.9528 34.8173 19.2055C35.2157 19.4583 35.6217 19.1287 35.9587 18.5975C36.2958 18.0662 36.4363 17.5345 36.0379 17.2817C35.6395 17.0289 34.9697 17.1827 34.6327 17.714Z" fill="white"/>
  <path d="M8.16515 4.28812C7.3222 4.1975 6.54062 4.76823 6.47265 5.40044C6.40468 6.03266 7.04503 6.32673 7.88798 6.41736C8.73094 6.50798 9.45729 6.36084 9.52526 5.72862C9.59322 5.09641 9.00811 4.37875 8.16515 4.28812Z" fill="#F9BD62"/>
  <path d="M47.3277 40.3331C49.9581 42.1368 53.7631 40.6129 54.6025 40.0533C53.0356 42.5155 48.82 42.385 47.6075 41.7321C44.4737 43.299 40.8923 40.5196 39.4932 38.9341H40.6125C43.4105 42.0119 47.0479 41.1725 47.3277 40.3331Z" fill="white"/>
  <path d="M48.7265 55.1624C52.5319 55.3862 52.4574 51.8981 52.0843 50.126C51.245 53.2038 50.6853 53.4836 48.7267 53.7634C47.1598 53.9872 47.8871 55.1624 48.7265 55.1624Z" fill="white"/>
</svg>
