<svg width="115" height="30" viewBox="0 0 115 30" fill="none" xmlns="http://www.w3.org/2000/svg">
  <path d="M2.10108 11.1556C0.829206 11.2783 0.283311 12.8334 1.19945 13.7242L6.99747 19.3614C7.17052 19.5296 7.19867 19.7975 7.06438 19.9981L2.53863 26.7571C1.8344 27.8089 2.66912 29.2063 3.92904 29.0848L112.626 18.6004C113.898 18.4777 114.444 16.9226 113.528 16.0319L107.73 10.3947C107.556 10.2264 107.528 9.95855 107.663 9.75799L112.188 2.99893C112.893 1.94718 112.058 0.549767 110.798 0.671291L2.10108 11.1556Z" fill="#BEC4FF" stroke="#4B371F"/>
  <mask id="path-2-outside-1_0_1" maskUnits="userSpaceOnUse" x="16.0002" y="3.88127" width="86.1023" height="23.8027" fill="black">
    <rect fill="white" x="16.0002" y="3.88127" width="86.1023" height="23.8027"/>
    <path d="M23.4846 24.0597C22.8719 24.1241 22.2737 24.1025 21.69 23.995C21.1145 23.8771 20.6343 23.6836 20.2494 23.4144C19.8635 23.1358 19.6496 22.797 19.6076 22.3979C19.5676 22.0173 19.6519 21.7034 19.8606 21.4563C20.0692 21.2091 20.3499 21.067 20.7026 21.0299C20.9347 21.0055 21.1377 21.017 21.3116 21.0645C21.4938 21.1016 21.6929 21.1652 21.9088 21.2551C22.0651 21.3137 22.1967 21.3609 22.3037 21.3966C22.419 21.422 22.537 21.4284 22.6577 21.4157C22.964 21.3835 23.1044 21.2467 23.0791 21.0054C23.0693 20.9126 22.9961 20.8405 22.8593 20.7892C22.7215 20.7286 22.4931 20.654 22.1742 20.5656C21.6041 20.4096 21.1366 20.2476 20.7717 20.0795C20.2094 19.8195 19.8067 19.5146 19.5634 19.1648C19.3295 18.814 19.1832 18.3601 19.1247 17.8032C19.0681 17.2648 19.1867 16.7409 19.4803 16.2314C19.7731 15.7126 20.2013 15.2781 20.7651 14.928C21.329 14.5778 21.9636 14.3656 22.669 14.2915C23.3559 14.2193 23.9937 14.2602 24.5823 14.4141C25.1793 14.5579 25.6597 14.7983 26.0236 15.1354C26.3958 15.4623 26.6054 15.8485 26.6522 16.2941C26.7058 16.8046 26.5932 17.2059 26.3142 17.498C26.0435 17.7798 25.7225 17.9403 25.3512 17.9793C25.0449 18.0115 24.8109 18.0173 24.6492 17.9968C24.4968 17.9753 24.3429 17.9398 24.1876 17.8904C24.062 17.8567 23.9565 17.835 23.871 17.8252C23.7845 17.8061 23.667 17.8044 23.5185 17.82C23.3979 17.8327 23.2862 17.8866 23.1836 17.9819C23.0893 18.0669 23.0495 18.179 23.0641 18.3182C23.0748 18.4203 23.1444 18.5022 23.2729 18.5637C23.4004 18.616 23.546 18.6617 23.7096 18.7008C23.8733 18.7399 23.9891 18.77 24.057 18.791C24.9534 19.0159 25.6273 19.3111 26.0786 19.6766C26.529 20.0328 26.7878 20.5311 26.8551 21.1716C26.9381 21.9606 26.6827 22.6115 26.0891 23.1244C25.5037 23.627 24.6356 23.9388 23.4846 24.0597ZM33.6996 22.9861C32.8559 23.0841 32.0496 22.9577 31.2807 22.6068C30.5211 22.255 29.8841 21.7307 29.3698 21.034C28.8638 20.327 28.5537 19.5196 28.4396 18.6119C28.3386 17.7404 28.4579 16.9114 28.7976 16.1249C29.1372 15.3384 29.6508 14.6885 30.3382 14.1752C31.0247 13.6526 31.8042 13.3454 32.6767 13.2537C33.5297 13.1547 34.3411 13.2852 35.111 13.6454C35.8901 14.0046 36.5332 14.5423 37.0402 15.2586C37.5471 15.9748 37.8489 16.7924 37.9455 17.7114C38.0362 18.5746 37.9062 19.3907 37.5553 20.1596C37.2044 20.9285 36.6847 21.5649 35.9963 22.069C35.3172 22.5721 34.5516 22.8778 33.6996 22.9861ZM33.456 20.2666C33.883 20.2218 34.2289 20.0306 34.4937 19.693C34.7678 19.3545 34.8744 18.9398 34.8134 18.4488C34.7607 17.9476 34.5698 17.5594 34.2406 17.2843C33.9113 17.0092 33.5332 16.8941 33.1063 16.939C32.6793 16.9839 32.3334 17.1751 32.0685 17.5126C31.8037 17.8501 31.6976 18.2695 31.7503 18.7707C31.802 19.2627 31.9925 19.6462 32.3217 19.9213C32.6509 20.1964 33.029 20.3115 33.456 20.2666ZM44.411 21.8462C43.4735 21.9447 42.6599 21.8379 41.9701 21.5256C41.2794 21.204 40.7915 20.6688 40.5063 19.9198C40.3896 19.613 40.2934 19.2336 40.2177 18.7817C40.1421 18.3298 40.0672 17.7511 39.993 17.0457C39.8477 15.6626 39.8806 14.5471 40.0918 13.699C40.3112 12.8407 40.8712 12.3643 41.7715 12.2696C42.3285 12.2111 42.7852 12.3602 43.1418 12.7168C43.5077 13.0726 43.7208 13.5382 43.7813 14.1137C43.8457 14.7263 43.8634 15.386 43.8345 16.0929C43.8056 16.7998 43.7505 17.6596 43.6692 18.6723C44.2252 18.4262 44.8466 18.267 45.5335 18.1949C46.2482 18.1197 46.856 18.1872 47.3567 18.3974C47.8667 18.6066 48.1524 19.0035 48.2139 19.5883C48.2734 20.1545 48.1316 20.5917 47.7886 20.8999C47.4456 21.2082 47.013 21.4226 46.4907 21.5431C45.9675 21.6544 45.2743 21.7555 44.411 21.8462ZM53.9897 20.8394C52.7923 20.9653 51.9047 20.9131 51.3268 20.6829C50.7489 20.4527 50.3479 20.0303 50.1237 19.4157C49.8996 18.8011 49.7173 17.8255 49.5768 16.4889C49.4344 15.1337 49.4028 14.1187 49.482 13.4441C49.5696 12.7592 49.8659 12.2307 50.3711 11.8585C50.8846 11.476 51.7355 11.2224 52.9236 11.0975C53.6383 11.0224 54.3845 11.1129 55.1622 11.369C55.9389 11.6158 56.6221 12.0883 57.2116 12.7865C57.8012 13.4847 58.1574 14.4186 58.2803 15.5882C58.3984 16.7113 58.2351 17.6576 57.7904 18.4269C57.3447 19.187 56.7718 19.7634 56.0717 20.1561C55.3706 20.5394 54.6766 20.7672 53.9897 20.8394ZM52.8689 18.4797C53.1699 18.4856 53.3853 18.4817 53.5152 18.468C54.1743 18.3988 54.6663 18.1687 54.9912 17.778C55.3161 17.3872 55.4459 16.8809 55.3806 16.259C55.322 15.702 55.1003 15.2889 54.7154 15.0197C54.3295 14.7412 53.8163 14.6356 53.1758 14.7029C52.9345 14.7283 52.7044 14.7712 52.4855 14.8317L52.8689 18.4797ZM71.181 19.0466C70.3373 19.1447 69.531 19.0183 68.7621 18.6674C68.0025 18.3155 67.3656 17.7912 66.8513 17.0945C66.3453 16.3875 66.0352 15.5802 65.921 14.6725C65.82 13.8009 65.9393 12.9719 66.279 12.1854C66.6186 11.399 67.1322 10.7491 67.8196 10.2357C68.5061 9.7131 69.2856 9.40594 70.1581 9.31423C71.0111 9.2152 71.8225 9.34576 72.5924 9.70593C73.3715 10.0651 74.0146 10.6028 74.5216 11.3191C75.0286 12.0354 75.3303 12.853 75.4269 13.7719C75.5177 14.6352 75.3876 15.4512 75.0367 16.2201C74.6858 16.989 74.1662 17.6255 73.4778 18.1295C72.7986 18.6326 72.033 18.9383 71.181 19.0466ZM70.9374 16.3272C71.3644 16.2823 71.7103 16.0911 71.9752 15.7536C72.2493 15.4151 72.3558 15.0003 72.2949 14.5093C72.2422 14.0081 72.0512 13.6199 71.722 13.3448C71.3928 13.0697 71.0147 12.9546 70.5877 12.9995C70.1607 13.0444 69.8148 13.2356 69.55 13.5731C69.2851 13.9107 69.179 14.3301 69.2317 14.8313C69.2834 15.3232 69.4739 15.7068 69.8031 15.9819C70.1324 16.257 70.5105 16.3721 70.9374 16.3272ZM82.8007 17.8113C81.7611 17.9205 80.8457 17.7821 80.0543 17.3961C79.262 17.0007 78.6345 16.4332 78.172 15.6935C77.7178 14.9435 77.4419 14.1044 77.3444 13.1762C77.2097 11.8953 77.2441 10.7937 77.4475 9.87134C77.6508 8.94903 78.1842 8.44251 79.0474 8.35178C79.725 8.28056 80.2333 8.42891 80.5723 8.79682C80.9113 9.16474 81.1115 9.64109 81.1729 10.2259C81.2139 10.6157 81.2246 11.0744 81.205 11.6021C81.1834 12.1111 81.1906 12.5373 81.2267 12.8808C81.2746 13.3356 81.3944 13.7172 81.5864 14.0255C81.7783 14.3338 82.0646 14.4679 82.4451 14.4279C82.835 14.3869 83.0871 14.1962 83.2015 13.8557C83.3251 13.5142 83.363 13.1161 83.3152 12.6613C83.2791 12.3178 83.1976 11.8994 83.0707 11.406C82.9418 10.894 82.8569 10.443 82.8159 10.0532C82.7544 9.46841 82.8512 8.96084 83.1063 8.53048C83.3614 8.10013 83.8277 7.84934 84.5053 7.77813C85.3686 7.68739 85.9955 8.07197 86.3862 8.93184C86.7769 9.79171 87.0396 10.8621 87.1742 12.1431C87.2718 13.0713 87.1717 13.9499 86.8741 14.7789C86.5848 15.5976 86.0937 16.2827 85.4009 16.8341C84.7071 17.3763 83.8404 17.702 82.8007 17.8113ZM98.4182 8.41332C98.4825 9.02595 98.2741 9.49832 97.7929 9.83044C97.3199 10.1523 96.5155 10.4011 95.3796 10.5768C95.4636 11.0184 95.5427 11.592 95.6168 12.2974C95.7202 13.2813 95.7474 14.0762 95.6985 14.6819C95.6579 15.2775 95.5227 15.7327 95.2931 16.0478C95.0624 16.3536 94.715 16.5309 94.2509 16.5796C93.7961 16.6275 93.4324 16.5155 93.1599 16.2439C92.8873 15.9722 92.6739 15.5488 92.5196 14.9738C92.3653 14.3988 92.2374 13.6286 92.136 12.6633C92.0677 12.0135 92.0211 11.4366 91.9963 10.9324C91.222 10.9762 90.5918 10.9627 90.1057 10.8918C89.6279 10.8106 89.2645 10.6564 89.0154 10.4292C88.7662 10.202 88.6193 9.87492 88.5744 9.44794C88.5197 8.92814 88.6532 8.50119 88.9747 8.16708C89.2962 7.83298 89.8033 7.56852 90.4961 7.37371C91.1888 7.17889 92.1061 7.02149 93.2478 6.90149C94.3988 6.78051 95.338 6.7428 96.0654 6.78835C96.7928 6.83389 97.3531 6.98616 97.7464 7.24514C98.1396 7.50412 98.3635 7.89352 98.4182 8.41332Z"/>
  </mask>
  <path d="M23.4846 24.0597C22.8719 24.1241 22.2737 24.1025 21.69 23.995C21.1145 23.8771 20.6343 23.6836 20.2494 23.4144C19.8635 23.1358 19.6496 22.797 19.6076 22.3979C19.5676 22.0173 19.6519 21.7034 19.8606 21.4563C20.0692 21.2091 20.3499 21.067 20.7026 21.0299C20.9347 21.0055 21.1377 21.017 21.3116 21.0645C21.4938 21.1016 21.6929 21.1652 21.9088 21.2551C22.0651 21.3137 22.1967 21.3609 22.3037 21.3966C22.419 21.422 22.537 21.4284 22.6577 21.4157C22.964 21.3835 23.1044 21.2467 23.0791 21.0054C23.0693 20.9126 22.9961 20.8405 22.8593 20.7892C22.7215 20.7286 22.4931 20.654 22.1742 20.5656C21.6041 20.4096 21.1366 20.2476 20.7717 20.0795C20.2094 19.8195 19.8067 19.5146 19.5634 19.1648C19.3295 18.814 19.1832 18.3601 19.1247 17.8032C19.0681 17.2648 19.1867 16.7409 19.4803 16.2314C19.7731 15.7126 20.2013 15.2781 20.7651 14.928C21.329 14.5778 21.9636 14.3656 22.669 14.2915C23.3559 14.2193 23.9937 14.2602 24.5823 14.4141C25.1793 14.5579 25.6597 14.7983 26.0236 15.1354C26.3958 15.4623 26.6054 15.8485 26.6522 16.2941C26.7058 16.8046 26.5932 17.2059 26.3142 17.498C26.0435 17.7798 25.7225 17.9403 25.3512 17.9793C25.0449 18.0115 24.8109 18.0173 24.6492 17.9968C24.4968 17.9753 24.3429 17.9398 24.1876 17.8904C24.062 17.8567 23.9565 17.835 23.871 17.8252C23.7845 17.8061 23.667 17.8044 23.5185 17.82C23.3979 17.8327 23.2862 17.8866 23.1836 17.9819C23.0893 18.0669 23.0495 18.179 23.0641 18.3182C23.0748 18.4203 23.1444 18.5022 23.2729 18.5637C23.4004 18.616 23.546 18.6617 23.7096 18.7008C23.8733 18.7399 23.9891 18.77 24.057 18.791C24.9534 19.0159 25.6273 19.3111 26.0786 19.6766C26.529 20.0328 26.7878 20.5311 26.8551 21.1716C26.9381 21.9606 26.6827 22.6115 26.0891 23.1244C25.5037 23.627 24.6356 23.9388 23.4846 24.0597ZM33.6996 22.9861C32.8559 23.0841 32.0496 22.9577 31.2807 22.6068C30.5211 22.255 29.8841 21.7307 29.3698 21.034C28.8638 20.327 28.5537 19.5196 28.4396 18.6119C28.3386 17.7404 28.4579 16.9114 28.7976 16.1249C29.1372 15.3384 29.6508 14.6885 30.3382 14.1752C31.0247 13.6526 31.8042 13.3454 32.6767 13.2537C33.5297 13.1547 34.3411 13.2852 35.111 13.6454C35.8901 14.0046 36.5332 14.5423 37.0402 15.2586C37.5471 15.9748 37.8489 16.7924 37.9455 17.7114C38.0362 18.5746 37.9062 19.3907 37.5553 20.1596C37.2044 20.9285 36.6847 21.5649 35.9963 22.069C35.3172 22.5721 34.5516 22.8778 33.6996 22.9861ZM33.456 20.2666C33.883 20.2218 34.2289 20.0306 34.4937 19.693C34.7678 19.3545 34.8744 18.9398 34.8134 18.4488C34.7607 17.9476 34.5698 17.5594 34.2406 17.2843C33.9113 17.0092 33.5332 16.8941 33.1063 16.939C32.6793 16.9839 32.3334 17.1751 32.0685 17.5126C31.8037 17.8501 31.6976 18.2695 31.7503 18.7707C31.802 19.2627 31.9925 19.6462 32.3217 19.9213C32.6509 20.1964 33.029 20.3115 33.456 20.2666ZM44.411 21.8462C43.4735 21.9447 42.6599 21.8379 41.9701 21.5256C41.2794 21.204 40.7915 20.6688 40.5063 19.9198C40.3896 19.613 40.2934 19.2336 40.2177 18.7817C40.1421 18.3298 40.0672 17.7511 39.993 17.0457C39.8477 15.6626 39.8806 14.5471 40.0918 13.699C40.3112 12.8407 40.8712 12.3643 41.7715 12.2696C42.3285 12.2111 42.7852 12.3602 43.1418 12.7168C43.5077 13.0726 43.7208 13.5382 43.7813 14.1137C43.8457 14.7263 43.8634 15.386 43.8345 16.0929C43.8056 16.7998 43.7505 17.6596 43.6692 18.6723C44.2252 18.4262 44.8466 18.267 45.5335 18.1949C46.2482 18.1197 46.856 18.1872 47.3567 18.3974C47.8667 18.6066 48.1524 19.0035 48.2139 19.5883C48.2734 20.1545 48.1316 20.5917 47.7886 20.8999C47.4456 21.2082 47.013 21.4226 46.4907 21.5431C45.9675 21.6544 45.2743 21.7555 44.411 21.8462ZM53.9897 20.8394C52.7923 20.9653 51.9047 20.9131 51.3268 20.6829C50.7489 20.4527 50.3479 20.0303 50.1237 19.4157C49.8996 18.8011 49.7173 17.8255 49.5768 16.4889C49.4344 15.1337 49.4028 14.1187 49.482 13.4441C49.5696 12.7592 49.8659 12.2307 50.3711 11.8585C50.8846 11.476 51.7355 11.2224 52.9236 11.0975C53.6383 11.0224 54.3845 11.1129 55.1622 11.369C55.9389 11.6158 56.6221 12.0883 57.2116 12.7865C57.8012 13.4847 58.1574 14.4186 58.2803 15.5882C58.3984 16.7113 58.2351 17.6576 57.7904 18.4269C57.3447 19.187 56.7718 19.7634 56.0717 20.1561C55.3706 20.5394 54.6766 20.7672 53.9897 20.8394ZM52.8689 18.4797C53.1699 18.4856 53.3853 18.4817 53.5152 18.468C54.1743 18.3988 54.6663 18.1687 54.9912 17.778C55.3161 17.3872 55.4459 16.8809 55.3806 16.259C55.322 15.702 55.1003 15.2889 54.7154 15.0197C54.3295 14.7412 53.8163 14.6356 53.1758 14.7029C52.9345 14.7283 52.7044 14.7712 52.4855 14.8317L52.8689 18.4797ZM71.181 19.0466C70.3373 19.1447 69.531 19.0183 68.7621 18.6674C68.0025 18.3155 67.3656 17.7912 66.8513 17.0945C66.3453 16.3875 66.0352 15.5802 65.921 14.6725C65.82 13.8009 65.9393 12.9719 66.279 12.1854C66.6186 11.399 67.1322 10.7491 67.8196 10.2357C68.5061 9.7131 69.2856 9.40594 70.1581 9.31423C71.0111 9.2152 71.8225 9.34576 72.5924 9.70593C73.3715 10.0651 74.0146 10.6028 74.5216 11.3191C75.0286 12.0354 75.3303 12.853 75.4269 13.7719C75.5177 14.6352 75.3876 15.4512 75.0367 16.2201C74.6858 16.989 74.1662 17.6255 73.4778 18.1295C72.7986 18.6326 72.033 18.9383 71.181 19.0466ZM70.9374 16.3272C71.3644 16.2823 71.7103 16.0911 71.9752 15.7536C72.2493 15.4151 72.3558 15.0003 72.2949 14.5093C72.2422 14.0081 72.0512 13.6199 71.722 13.3448C71.3928 13.0697 71.0147 12.9546 70.5877 12.9995C70.1607 13.0444 69.8148 13.2356 69.55 13.5731C69.2851 13.9107 69.179 14.3301 69.2317 14.8313C69.2834 15.3232 69.4739 15.7068 69.8031 15.9819C70.1324 16.257 70.5105 16.3721 70.9374 16.3272ZM82.8007 17.8113C81.7611 17.9205 80.8457 17.7821 80.0543 17.3961C79.262 17.0007 78.6345 16.4332 78.172 15.6935C77.7178 14.9435 77.4419 14.1044 77.3444 13.1762C77.2097 11.8953 77.2441 10.7937 77.4475 9.87134C77.6508 8.94903 78.1842 8.44251 79.0474 8.35178C79.725 8.28056 80.2333 8.42891 80.5723 8.79682C80.9113 9.16474 81.1115 9.64109 81.1729 10.2259C81.2139 10.6157 81.2246 11.0744 81.205 11.6021C81.1834 12.1111 81.1906 12.5373 81.2267 12.8808C81.2746 13.3356 81.3944 13.7172 81.5864 14.0255C81.7783 14.3338 82.0646 14.4679 82.4451 14.4279C82.835 14.3869 83.0871 14.1962 83.2015 13.8557C83.3251 13.5142 83.363 13.1161 83.3152 12.6613C83.2791 12.3178 83.1976 11.8994 83.0707 11.406C82.9418 10.894 82.8569 10.443 82.8159 10.0532C82.7544 9.46841 82.8512 8.96084 83.1063 8.53048C83.3614 8.10013 83.8277 7.84934 84.5053 7.77813C85.3686 7.68739 85.9955 8.07197 86.3862 8.93184C86.7769 9.79171 87.0396 10.8621 87.1742 12.1431C87.2718 13.0713 87.1717 13.9499 86.8741 14.7789C86.5848 15.5976 86.0937 16.2827 85.4009 16.8341C84.7071 17.3763 83.8404 17.702 82.8007 17.8113ZM98.4182 8.41332C98.4825 9.02595 98.2741 9.49832 97.7929 9.83044C97.3199 10.1523 96.5155 10.4011 95.3796 10.5768C95.4636 11.0184 95.5427 11.592 95.6168 12.2974C95.7202 13.2813 95.7474 14.0762 95.6985 14.6819C95.6579 15.2775 95.5227 15.7327 95.2931 16.0478C95.0624 16.3536 94.715 16.5309 94.2509 16.5796C93.7961 16.6275 93.4324 16.5155 93.1599 16.2439C92.8873 15.9722 92.6739 15.5488 92.5196 14.9738C92.3653 14.3988 92.2374 13.6286 92.136 12.6633C92.0677 12.0135 92.0211 11.4366 91.9963 10.9324C91.222 10.9762 90.5918 10.9627 90.1057 10.8918C89.6279 10.8106 89.2645 10.6564 89.0154 10.4292C88.7662 10.202 88.6193 9.87492 88.5744 9.44794C88.5197 8.92814 88.6532 8.50119 88.9747 8.16708C89.2962 7.83298 89.8033 7.56852 90.4961 7.37371C91.1888 7.17889 92.1061 7.02149 93.2478 6.90149C94.3988 6.78051 95.338 6.7428 96.0654 6.78835C96.7928 6.83389 97.3531 6.98616 97.7464 7.24514C98.1396 7.50412 98.3635 7.89352 98.4182 8.41332Z" fill="#F7F9EA"/>
  <path d="M21.69 23.995L21.2888 25.9543L21.3081 25.9583L21.3275 25.9618L21.69 23.995ZM20.2494 23.4144L19.0789 25.0361L19.0909 25.0447L19.103 25.0532L20.2494 23.4144ZM19.8606 21.4563L18.3323 20.1662L18.3323 20.1662L19.8606 21.4563ZM21.3116 21.0645L20.7855 22.994L20.8482 23.0111L20.912 23.0241L21.3116 21.0645ZM21.9088 21.2551L21.1398 23.1014L21.1728 23.1151L21.2062 23.1276L21.9088 21.2551ZM22.3037 21.3966L21.671 23.2938L21.7706 23.327L21.8731 23.3496L22.3037 21.3966ZM22.8593 20.7892L22.0539 22.6199L22.1048 22.6422L22.1567 22.6617L22.8593 20.7892ZM22.1742 20.5656L22.7087 18.6383L22.7018 18.6364L22.1742 20.5656ZM20.7717 20.0795L19.9323 21.8948L19.9348 21.896L20.7717 20.0795ZM19.5634 19.1648L17.8995 20.2745L17.9103 20.2906L17.9213 20.3065L19.5634 19.1648ZM19.4803 16.2314L21.2131 17.2302L21.2177 17.2222L21.2222 17.2142L19.4803 16.2314ZM20.7651 14.928L19.7099 13.229L19.7099 13.229L20.7651 14.928ZM24.5823 14.4141L24.0762 16.349L24.0952 16.354L24.1142 16.3586L24.5823 14.4141ZM26.0236 15.1354L24.6644 16.6026L24.6839 16.6206L24.7039 16.6382L26.0236 15.1354ZM26.3142 17.498L27.7566 18.8834L27.7605 18.8794L26.3142 17.498ZM24.6492 17.9968L24.3696 19.9771L24.3834 19.9791L24.3971 19.9808L24.6492 17.9968ZM24.1876 17.8904L24.7933 15.9844L24.7502 15.9707L24.7065 15.9589L24.1876 17.8904ZM23.871 17.8252L23.4403 19.7783L23.5411 19.8005L23.6436 19.8122L23.871 17.8252ZM23.1836 17.9819L24.5226 19.4675L24.5335 19.4577L24.5443 19.4477L23.1836 17.9819ZM23.2729 18.5637L22.4085 20.3673L22.4606 20.3922L22.514 20.4141L23.2729 18.5637ZM23.7096 18.7008L24.1745 16.7556L24.1745 16.7556L23.7096 18.7008ZM24.057 18.791L23.4656 20.7016L23.5176 20.7177L23.5704 20.7309L24.057 18.791ZM26.0786 19.6766L24.82 21.2309L24.8289 21.2381L24.8379 21.2452L26.0786 19.6766ZM26.0891 23.1244L27.392 24.6417L27.3966 24.6378L26.0891 23.1244ZM23.2755 22.0707C22.8462 22.1158 22.4407 22.0996 22.0524 22.0281L21.3275 25.9618C22.1068 26.1054 22.8977 26.1324 23.6936 26.0488L23.2755 22.0707ZM22.0911 22.0356C21.7184 21.9593 21.5082 21.8542 21.3957 21.7755L19.103 25.0532C19.7604 25.513 20.5106 25.795 21.2888 25.9543L22.0911 22.0356ZM21.4199 21.7926C21.3962 21.7755 21.4381 21.8003 21.4907 21.8836C21.5479 21.9742 21.5856 22.0836 21.5967 22.1888L17.6186 22.6069C17.7311 23.6776 18.3254 24.4922 19.0789 25.0361L21.4199 21.7926ZM21.5967 22.1888C21.5979 22.2002 21.6041 22.2778 21.5724 22.3959C21.5387 22.5212 21.4749 22.6445 21.3889 22.7464L18.3323 20.1662C17.7084 20.9053 17.5329 21.792 17.6186 22.6069L21.5967 22.1888ZM21.3889 22.7464C21.3251 22.8219 21.2368 22.8951 21.131 22.9486C21.0284 23.0006 20.9467 23.0153 20.9117 23.019L20.4936 19.0409C19.6815 19.1262 18.9075 19.4848 18.3323 20.1662L21.3889 22.7464ZM20.9117 23.019C20.936 23.0164 20.936 23.0182 20.9157 23.0171C20.895 23.0159 20.8493 23.0114 20.7855 22.994L21.8377 19.1349C21.3655 19.0062 20.9031 18.9978 20.4936 19.0409L20.9117 23.019ZM20.912 23.0241C20.9403 23.0299 21.0141 23.049 21.1398 23.1014L22.6777 19.4088C22.3716 19.2813 22.0473 19.1733 21.7112 19.1048L20.912 23.0241ZM21.2062 23.1276C21.3758 23.1913 21.5324 23.2476 21.671 23.2938L22.9365 19.4993C22.8611 19.4742 22.7543 19.4362 22.6113 19.3825L21.2062 23.1276ZM21.8731 23.3496C22.2041 23.4226 22.5383 23.4392 22.8667 23.4047L22.4486 19.4266C22.5357 19.4175 22.6339 19.4213 22.7344 19.4435L21.8731 23.3496ZM22.8667 23.4047C23.2271 23.3668 23.858 23.2379 24.3879 22.722C25.0007 22.1253 25.1281 21.3666 25.0681 20.7963L21.09 21.2144C21.0555 20.8855 21.1252 20.3158 21.5976 19.856C21.9871 19.4767 22.3945 19.4323 22.4486 19.4266L22.8667 23.4047ZM25.0681 20.7963C24.9398 19.5756 23.9684 19.0692 23.5618 18.9166L22.1567 22.6617C22.0655 22.6275 21.8427 22.5322 21.6143 22.3075C21.3559 22.0534 21.1386 21.6768 21.09 21.2144L25.0681 20.7963ZM23.6646 18.9585C23.3853 18.8356 23.0375 18.7295 22.7087 18.6383L21.6396 22.4928C21.7802 22.5318 21.8868 22.5639 21.9641 22.5891C22.0478 22.6164 22.0701 22.627 22.0539 22.6199L23.6646 18.9585ZM22.7018 18.6364C22.1932 18.4973 21.839 18.3692 21.6085 18.263L19.9348 21.896C20.4341 22.126 21.0149 22.3219 21.6465 22.4947L22.7018 18.6364ZM21.6111 18.2642C21.432 18.1814 21.3199 18.1103 21.2551 18.0613C21.1914 18.013 21.187 17.9964 21.2055 18.023L17.9213 20.3065C18.4393 21.0515 19.1847 21.5492 19.9323 21.8948L21.6111 18.2642ZM21.2273 18.0551C21.2223 18.0475 21.1491 17.9305 21.1137 17.5941L17.1357 18.0122C17.2174 18.7897 17.4367 19.5804 17.8995 20.2745L21.2273 18.0551ZM21.1137 17.5941C21.1051 17.512 21.1109 17.4075 21.2131 17.2302L17.7476 15.2326C17.2624 16.0743 17.0311 17.0176 17.1357 18.0122L21.1137 17.5941ZM21.2222 17.2142C21.3316 17.0203 21.5087 16.8205 21.8204 16.6269L19.7099 13.229C18.8939 13.7358 18.2145 14.4049 17.7385 15.2486L21.2222 17.2142ZM21.8204 16.6269C22.1102 16.4469 22.4519 16.3253 22.8781 16.2805L22.46 12.3024C21.4753 12.4059 20.5477 12.7086 19.7099 13.229L21.8204 16.6269ZM22.8781 16.2805C23.3573 16.2301 23.75 16.2637 24.0762 16.349L25.0885 12.4792C24.2373 12.2566 23.3545 12.2084 22.46 12.3024L22.8781 16.2805ZM24.1142 16.3586C24.4564 16.441 24.6049 16.5474 24.6644 16.6026L27.3829 13.6683C26.7146 13.0492 25.9022 12.6747 25.0505 12.4697L24.1142 16.3586ZM24.7039 16.6382C24.7351 16.6656 24.7231 16.663 24.702 16.6239C24.6919 16.6054 24.6825 16.5837 24.6753 16.5601C24.668 16.5366 24.6646 16.5168 24.6631 16.5031L28.6412 16.085C28.5361 15.085 28.0501 14.2533 27.3434 13.6327L24.7039 16.6382ZM24.6631 16.5031C24.6695 16.5632 24.6565 16.5295 24.6824 16.4373C24.7116 16.3332 24.7738 16.2151 24.8679 16.1166L27.7605 18.8794C28.5504 18.0524 28.7383 17.0089 28.6412 16.085L24.6631 16.5031ZM24.8717 16.1126C24.8807 16.1033 24.9149 16.0714 24.9763 16.0407C25.0389 16.0094 25.0991 15.9948 25.1422 15.9903L25.5603 19.9683C26.4243 19.8775 27.1755 19.4884 27.7566 18.8834L24.8717 16.1126ZM25.1422 15.9903C25.0265 16.0024 24.9465 16.0072 24.8962 16.0084C24.8406 16.0098 24.8493 16.0061 24.9013 16.0127L24.3971 19.9808C24.7923 20.031 25.2106 20.0051 25.5603 19.9683L25.1422 15.9903ZM24.9288 16.0164C24.8932 16.0114 24.8484 16.0019 24.7933 15.9844L23.5818 19.7965C23.8374 19.8777 24.1003 19.9391 24.3696 19.9771L24.9288 16.0164ZM24.7065 15.9589C24.5283 15.9111 24.3184 15.8633 24.0984 15.8381L23.6436 19.8122C23.6283 19.8105 23.6179 19.8088 23.613 19.808C23.6081 19.8072 23.6071 19.8069 23.6104 19.8076C23.6176 19.8091 23.6365 19.8133 23.6687 19.822L24.7065 15.9589ZM24.3017 15.8721C23.9099 15.7857 23.5462 15.8061 23.3095 15.8309L23.7276 19.809C23.7427 19.8074 23.7274 19.8099 23.6886 19.8094C23.6533 19.8088 23.5636 19.8055 23.4403 19.7783L24.3017 15.8721ZM23.3095 15.8309C22.6943 15.8956 22.1919 16.1736 21.8229 16.5161L24.5443 19.4477C24.3805 19.5997 24.1014 19.7697 23.7276 19.809L23.3095 15.8309ZM21.8446 16.4962C21.221 17.0583 21.0015 17.8276 21.0751 18.5273L25.0532 18.1092C25.0716 18.2845 25.0638 18.5284 24.9676 18.7993C24.8688 19.0773 24.7052 19.3029 24.5226 19.4675L21.8446 16.4962ZM21.0751 18.5273C21.1849 19.5724 21.9228 20.1345 22.4085 20.3673L24.1373 16.7602C24.2476 16.813 24.4521 16.9302 24.6479 17.1605C24.8614 17.4115 25.0144 17.7401 25.0532 18.1092L21.0751 18.5273ZM22.514 20.4141C22.755 20.513 23.0019 20.588 23.2448 20.6461L24.1745 16.7556C24.0901 16.7354 24.0458 16.719 24.0319 16.7133L22.514 20.4141ZM23.2448 20.6461C23.3186 20.6637 23.3751 20.6778 23.4166 20.6885C23.4618 20.7003 23.4741 20.7042 23.4656 20.7016L24.6483 16.8805C24.5116 16.8381 24.3391 16.7949 24.1745 16.7556L23.2448 20.6461ZM23.5704 20.7309C24.333 20.9222 24.6895 21.1252 24.82 21.2309L27.3373 18.1223C26.565 17.4969 25.5738 17.1095 24.5436 16.8511L23.5704 20.7309ZM24.8379 21.2452C24.8449 21.2508 24.8448 21.2517 24.8415 21.2476C24.84 21.2459 24.8386 21.244 24.8374 21.2421C24.8361 21.2403 24.8356 21.2392 24.8357 21.2394C24.8357 21.2395 24.8368 21.2416 24.8386 21.246C24.8403 21.2505 24.843 21.2578 24.846 21.2685C24.8522 21.29 24.8604 21.3262 24.8661 21.3806L28.8442 20.9625C28.7281 19.858 28.2451 18.8401 27.3193 18.1079L24.8379 21.2452ZM24.8661 21.3806C24.8727 21.4431 24.8703 21.4812 24.8681 21.4996C24.867 21.509 24.8657 21.5147 24.8651 21.5174C24.8644 21.52 24.864 21.5211 24.864 21.5211C24.8639 21.5211 24.8637 21.5218 24.8629 21.5233C24.862 21.5249 24.8597 21.5288 24.8551 21.5351C24.8462 21.5473 24.825 21.5734 24.7816 21.6109L27.3966 24.6378C28.4923 23.6912 28.9946 22.3938 28.8442 20.9625L24.8661 21.3806ZM24.7862 21.607C24.6279 21.7429 24.2127 21.9722 23.2755 22.0707L23.6936 26.0488C25.0584 25.9053 26.3796 25.511 27.392 24.6417L24.7862 21.607ZM33.6996 22.9861L33.9305 24.9727L33.9412 24.9715L33.9518 24.9701L33.6996 22.9861ZM31.2807 22.6068L30.4401 24.4216L30.4504 24.4263L31.2807 22.6068ZM29.3698 21.034L27.7435 22.198L27.752 22.2099L27.7607 22.2218L29.3698 21.034ZM28.4396 18.6119L26.4529 18.8421L26.454 18.8519L26.4552 18.8615L28.4396 18.6119ZM28.7976 16.1249L30.6336 16.9178L30.6336 16.9178L28.7976 16.1249ZM30.3382 14.1752L31.5348 15.7777L31.5423 15.7721L31.5497 15.7665L30.3382 14.1752ZM32.6767 13.2537L32.8857 15.2427L32.8966 15.2416L32.9073 15.2403L32.6767 13.2537ZM35.111 13.6454L34.2634 15.457L34.2736 15.4617L35.111 13.6454ZM37.0402 15.2586L35.4077 16.414L35.4077 16.414L37.0402 15.2586ZM37.5553 20.1596L39.3748 20.9899L37.5553 20.1596ZM35.9963 22.069L34.8148 20.4553L34.8058 20.4619L35.9963 22.069ZM34.4937 19.693L32.9394 18.4344L32.9298 18.4463L32.9203 18.4585L34.4937 19.693ZM34.8134 18.4488L32.8244 18.6579L32.8264 18.6766L32.8287 18.6953L34.8134 18.4488ZM34.2406 17.2843L32.9582 18.819L32.9582 18.819L34.2406 17.2843ZM32.0685 17.5126L33.642 18.7472L33.642 18.7472L32.0685 17.5126ZM33.4687 20.9995C32.9854 21.0556 32.5463 20.986 32.111 20.7874L30.4504 24.4263C31.5529 24.9295 32.7263 25.1127 33.9305 24.9727L33.4687 20.9995ZM32.1213 20.7921C31.6772 20.5864 31.3009 20.2824 30.9789 19.8462L27.7607 22.2218C28.4674 23.179 29.365 23.9236 30.4401 24.4216L32.1213 20.7921ZM30.9962 19.8699C30.6939 19.4475 30.4989 18.9581 30.4239 18.3623L26.4552 18.8615C26.6086 20.0812 27.0338 21.2065 27.7435 22.198L30.9962 19.8699ZM30.4263 18.3817C30.3646 17.8497 30.4365 17.3743 30.6336 16.9178L26.9615 15.332C26.4793 16.4484 26.3125 17.6311 26.4529 18.8421L30.4263 18.3817ZM30.6336 16.9178C30.8344 16.453 31.1272 16.0821 31.5348 15.7777L29.1415 12.5727C28.1743 13.295 27.44 14.2238 26.9615 15.332L30.6336 16.9178ZM31.5497 15.7665C31.9396 15.4697 32.371 15.2968 32.8857 15.2427L32.4676 11.2646C31.2373 11.394 30.1097 11.8355 29.1267 12.5839L31.5497 15.7665ZM32.9073 15.2403C33.3957 15.1836 33.8334 15.2558 34.2635 15.4569L35.9585 11.8338C34.8488 11.3147 33.6637 11.1257 32.446 11.267L32.9073 15.2403ZM34.2736 15.4617C34.7269 15.6706 35.0984 15.9771 35.4077 16.414L38.6726 14.1031C37.9679 13.1075 37.0533 12.3385 35.9483 11.8291L34.2736 15.4617ZM35.4077 16.414C35.7061 16.8356 35.8937 17.3236 35.9565 17.9204L39.9345 17.5023C39.8041 16.2613 39.3882 15.114 38.6726 14.1031L35.4077 16.414ZM35.9565 17.9204C36.0109 18.4383 35.9342 18.8945 35.7358 19.3292L39.3748 20.9899C39.8781 19.8868 40.0616 18.7109 39.9345 17.5023L35.9565 17.9204ZM35.7358 19.3292C35.5284 19.7836 35.2298 20.1514 34.8148 20.4553L37.1778 23.6827C38.1397 22.9784 38.8804 22.0733 39.3748 20.9899L35.7358 19.3292ZM34.8058 20.4619C34.4066 20.7576 33.9653 20.9362 33.4474 21.0021L33.9518 24.9701C35.138 24.8193 36.2277 24.3865 37.1868 23.6761L34.8058 20.4619ZM33.6651 22.2557C34.6297 22.1543 35.4681 21.6912 36.0672 20.9276L32.9203 18.4585C32.939 18.4346 32.9872 18.3839 33.0681 18.3392C33.149 18.2945 33.2174 18.2807 33.2469 18.2776L33.6651 22.2557ZM36.048 20.9517C36.7119 20.1318 36.9162 19.1524 36.7982 18.2023L32.8287 18.6953C32.833 18.7301 32.8241 18.7006 32.8422 18.6304C32.8616 18.5547 32.8989 18.4844 32.9394 18.4344L36.048 20.9517ZM36.8025 18.2397C36.7056 17.3184 36.32 16.4156 35.523 15.7496L32.9582 18.819C32.9351 18.7997 32.9107 18.7752 32.8878 18.7461C32.865 18.717 32.848 18.6887 32.8361 18.6646C32.812 18.6155 32.8187 18.6036 32.8244 18.6579L36.8025 18.2397ZM35.523 15.7496C34.7782 15.1272 33.8619 14.8485 32.8972 14.9499L33.3153 18.928C33.2857 18.9311 33.216 18.9319 33.1276 18.905C33.0391 18.878 32.9814 18.8385 32.9582 18.819L35.523 15.7496ZM32.8972 14.9499C31.9325 15.0513 31.0942 15.5144 30.4951 16.278L33.642 18.7472C33.6233 18.771 33.5751 18.8217 33.4941 18.8664C33.4132 18.9112 33.3449 18.9249 33.3153 18.928L32.8972 14.9499ZM30.4951 16.278C29.8539 17.0952 29.6644 18.0585 29.7613 18.9798L33.7393 18.5617C33.7336 18.5074 33.7427 18.5177 33.7293 18.5707C33.7227 18.5968 33.7119 18.6279 33.6956 18.6612C33.6793 18.6944 33.6606 18.7235 33.642 18.7472L30.4951 16.278ZM29.7613 18.9798C29.8583 19.9034 30.2499 20.7965 31.0393 21.4561L33.6041 18.3866C33.6252 18.4042 33.6485 18.4274 33.6709 18.4558C33.6933 18.4842 33.7106 18.5125 33.7232 18.5378C33.7489 18.5896 33.7441 18.607 33.7393 18.5617L29.7613 18.9798ZM31.0393 21.4561C31.7841 22.0784 32.7004 22.3571 33.6651 22.2557L33.2469 18.2776C33.2765 18.2745 33.3462 18.2737 33.4347 18.3007C33.5231 18.3276 33.5808 18.3671 33.6041 18.3866L31.0393 21.4561ZM41.9701 21.5256L41.1261 23.3387L41.1356 23.3432L41.1453 23.3475L41.9701 21.5256ZM40.5063 19.9198L38.637 20.6309L38.6372 20.6315L40.5063 19.9198ZM40.2177 18.7817L42.1903 18.4515L40.2177 18.7817ZM40.0918 13.699L38.1541 13.2035L38.151 13.2158L40.0918 13.699ZM43.1418 12.7168L41.7274 14.1308L41.7374 14.1409L41.7476 14.1508L43.1418 12.7168ZM43.8345 16.0929L45.8328 16.1747L43.8345 16.0929ZM43.6692 18.6723L41.6756 18.5124L41.4069 21.8611L44.4788 20.5012L43.6692 18.6723ZM47.3567 18.3974L46.5827 20.2416L46.5902 20.2447L46.5977 20.2478L47.3567 18.3974ZM47.7886 20.8999L46.4519 19.4123L46.4519 19.4123L47.7886 20.8999ZM46.4907 21.5431L46.9069 23.4994L46.9238 23.4958L46.9407 23.4919L46.4907 21.5431ZM44.202 19.8571C43.5321 19.9276 43.0907 19.8374 42.795 19.7036L41.1453 23.3475C42.2291 23.8383 43.415 23.9619 44.6201 23.8352L44.202 19.8571ZM42.8142 19.7124C42.6219 19.6229 42.4859 19.4984 42.3754 19.2081L38.6372 20.6315C39.097 21.8391 39.9369 22.7851 41.1261 23.3387L42.8142 19.7124ZM42.3756 19.2087C42.3201 19.0628 42.252 18.8202 42.1903 18.4515L38.2452 19.1119C38.3348 19.647 38.4591 20.1632 38.637 20.6309L42.3756 19.2087ZM42.1903 18.4515C42.124 18.0553 42.054 17.5209 41.9821 16.8366L38.004 17.2548C38.0804 17.9814 38.1602 18.6044 38.2452 19.1119L42.1903 18.4515ZM41.9821 16.8366C41.8484 15.5649 41.9009 14.7107 42.0325 14.1823L38.151 13.2158C37.8602 14.3835 37.8469 15.7604 38.004 17.2548L41.9821 16.8366ZM42.0294 14.1945C42.0448 14.1342 42.0561 14.1204 42.0473 14.1354C42.0429 14.1429 42.0345 14.1559 42.0211 14.1721C42.0076 14.1883 41.9913 14.2051 41.9725 14.2211C41.9537 14.2371 41.9354 14.2497 41.9194 14.2592C41.9036 14.2686 41.8925 14.2733 41.8885 14.2748C41.881 14.2778 41.9067 14.2664 41.9806 14.2587L41.5625 10.2806C40.8049 10.3602 40.0319 10.6202 39.3802 11.1748C38.7253 11.7321 38.3449 12.4575 38.1541 13.2036L42.0294 14.1945ZM41.9806 14.2587C42.0253 14.254 41.9908 14.2648 41.9113 14.2388C41.8731 14.2264 41.8348 14.2086 41.7995 14.1867C41.7645 14.1649 41.7407 14.1441 41.7274 14.1308L44.5562 11.3029C43.7223 10.4686 42.6444 10.1669 41.5625 10.2806L41.9806 14.2587ZM41.7476 14.1508C41.7525 14.1555 41.7536 14.1568 41.7576 14.1654C41.763 14.1772 41.7818 14.223 41.7923 14.3227L45.7704 13.9046C45.6679 12.9299 45.2821 12.0083 44.536 11.2829L41.7476 14.1508ZM41.7923 14.3227C41.8451 14.8258 41.8617 15.3874 41.8362 16.0111L45.8328 16.1747C45.8652 15.3847 45.8463 14.6268 45.7704 13.9046L41.7923 14.3227ZM41.8362 16.0111C41.8086 16.6835 41.7556 17.5155 41.6756 18.5124L45.6628 18.8323C45.7453 17.8037 45.8025 16.9162 45.8328 16.1747L41.8362 16.0111ZM44.4788 20.5012C44.8203 20.35 45.2353 20.2372 45.7426 20.1839L45.3245 16.2058C44.458 16.2969 43.6301 16.5024 42.8596 16.8435L44.4788 20.5012ZM45.7426 20.1839C46.2271 20.133 46.4765 20.197 46.5827 20.2416L48.1307 16.5532C47.2354 16.1775 46.2694 16.1065 45.3245 16.2058L45.7426 20.1839ZM46.5977 20.2478C46.5517 20.2289 46.4328 20.1629 46.3302 20.0204C46.2323 19.8843 46.2231 19.7812 46.2248 19.7974L50.2029 19.3793C50.1431 18.8107 49.9604 18.2167 49.5767 17.6836C49.1884 17.1441 48.6717 16.7751 48.1156 16.547L46.5977 20.2478ZM46.2248 19.7974C46.2321 19.8668 46.2162 19.8272 46.2497 19.7241C46.2666 19.672 46.2931 19.6133 46.3315 19.5543C46.3698 19.4953 46.4123 19.4479 46.4519 19.4123L49.1254 22.3876C50.058 21.5496 50.3118 20.4153 50.2029 19.3793L46.2248 19.7974ZM46.4519 19.4123C46.3989 19.4599 46.2871 19.5375 46.0408 19.5944L46.9407 23.4919C47.7389 23.3076 48.4924 22.9564 49.1254 22.3876L46.4519 19.4123ZM46.0746 19.5869C45.6485 19.6776 45.0327 19.7698 44.202 19.8571L44.6201 23.8352C45.5159 23.7411 46.2866 23.6313 46.9069 23.4994L46.0746 19.5869ZM51.3268 20.6829L52.0669 18.8249L51.3268 20.6829ZM50.1237 19.4157L52.0027 18.7305L50.1237 19.4157ZM49.482 13.4441L47.4982 13.1905L47.4969 13.2006L47.4957 13.2108L49.482 13.4441ZM50.3711 11.8585L51.5574 13.4687L51.5658 13.4625L50.3711 11.8585ZM55.1622 11.369L54.5366 13.2686L54.5465 13.2719L54.5565 13.2751L55.1622 11.369ZM57.2116 12.7865L58.7397 11.4962L58.7397 11.4962L57.2116 12.7865ZM57.7904 18.4269L59.5157 19.4386L59.5219 19.4278L57.7904 18.4269ZM56.0717 20.1561L57.0313 21.9108L57.0407 21.9057L57.05 21.9004L56.0717 20.1561ZM52.8689 18.4797L50.8799 18.6887L51.0644 20.4446L52.8297 20.4793L52.8689 18.4797ZM54.9912 17.778L53.4534 16.4993L53.4534 16.4993L54.9912 17.778ZM54.7154 15.0197L53.5449 16.6414L53.5569 16.6501L53.569 16.6586L54.7154 15.0197ZM52.4855 14.8317L51.9523 12.9041L50.3194 13.3558L50.4965 15.0408L52.4855 14.8317ZM53.7807 18.8504C52.6574 18.9684 52.1755 18.8682 52.0669 18.8249L50.5867 22.5409C51.6339 22.9581 52.9272 22.9621 54.1988 22.8285L53.7807 18.8504ZM52.0669 18.8249C52.0554 18.8203 52.0477 18.8166 52.043 18.8142C52.0383 18.8117 52.0361 18.8103 52.0359 18.8101C52.0357 18.81 52.0366 18.8106 52.0383 18.8121C52.0401 18.8135 52.0417 18.815 52.043 18.8165C52.0463 18.8199 52.0442 18.8186 52.0378 18.8081C52.0312 18.797 52.0181 18.7729 52.0027 18.7305L48.2448 20.101C48.6527 21.2195 49.4492 22.0879 50.5867 22.5409L52.0669 18.8249ZM52.0027 18.7305C51.8669 18.3582 51.7032 17.5869 51.5658 16.2798L47.5877 16.6979C47.7313 18.0642 47.9323 19.244 48.2448 20.101L52.0027 18.7305ZM51.5658 16.2798C51.4267 14.9558 51.4161 14.1226 51.4684 13.6774L47.4957 13.2108C47.3895 14.1149 47.442 15.3115 47.5877 16.6979L51.5658 16.2798ZM51.4659 13.6977C51.4816 13.5747 51.5081 13.5235 51.5144 13.5122C51.5186 13.5048 51.5253 13.4923 51.5574 13.4687L49.1849 10.2483C48.193 10.979 47.6473 12.0236 47.4982 13.1905L51.4659 13.6977ZM51.5658 13.4625C51.6357 13.4104 52.0403 13.2014 53.1326 13.0865L52.7145 9.10846C51.4306 9.2434 50.1336 9.54168 49.1765 10.2544L51.5658 13.4625ZM53.1326 13.0865C53.5293 13.0449 53.9903 13.0887 54.5366 13.2686L55.7878 9.46935C54.7787 9.13704 53.7473 8.99991 52.7145 9.10846L53.1326 13.0865ZM54.5565 13.2751C54.9315 13.3942 55.3069 13.6308 55.6835 14.0768L58.7397 11.4962C57.9373 10.5459 56.9464 9.83741 55.7679 9.46292L54.5565 13.2751ZM55.6835 14.0768C55.9496 14.3919 56.1983 14.9125 56.2913 15.7972L60.2694 15.3791C60.1165 13.9247 59.6528 12.5775 58.7397 11.4962L55.6835 14.0768ZM56.2913 15.7972C56.3772 16.6145 56.2408 17.1112 56.0588 17.4261L59.5219 19.4278C60.2293 18.204 60.4196 16.8081 60.2694 15.3791L56.2913 15.7972ZM56.0651 17.4153C55.7809 17.9 55.4542 18.2093 55.0934 18.4117L57.05 21.9004C58.0895 21.3175 58.9085 20.4741 59.5157 19.4385L56.0651 17.4153ZM55.1121 18.4013C54.6072 18.6774 54.1663 18.8098 53.7807 18.8504L54.1988 22.8285C55.1869 22.7246 56.134 22.4015 57.0313 21.9108L55.1121 18.4013ZM52.8297 20.4793C53.135 20.4853 53.4595 20.4849 53.7243 20.4571L53.3062 16.479C53.3235 16.4772 53.302 16.48 53.2202 16.4815C53.1452 16.4829 53.0426 16.4827 52.9082 16.48L52.8297 20.4793ZM53.7243 20.4571C54.7385 20.3505 55.7786 19.9591 56.529 19.0567L53.4534 16.4993C53.4701 16.4792 53.4886 16.4618 53.5061 16.4485C53.5233 16.4355 53.5335 16.4309 53.5315 16.4318C53.5255 16.4346 53.4616 16.4627 53.3062 16.479L53.7243 20.4571ZM56.529 19.0567C57.2753 18.1592 57.4775 17.0765 57.3696 16.0499L53.3915 16.468C53.4041 16.5878 53.3904 16.6259 53.3949 16.6086C53.3972 16.5996 53.4028 16.5818 53.4144 16.559C53.426 16.5361 53.4398 16.5156 53.4534 16.4993L56.529 19.0567ZM57.3696 16.0499C57.2633 15.0383 56.8131 14.0463 55.8617 13.3808L53.569 16.6586C53.5412 16.6391 53.5096 16.6121 53.4788 16.5775C53.448 16.5429 53.4246 16.508 53.4082 16.4773C53.375 16.4155 53.3842 16.3984 53.3915 16.468L57.3696 16.0499ZM55.8859 13.398C54.9784 12.743 53.9219 12.6135 52.9668 12.7138L53.3849 16.6919C53.5457 16.675 53.6226 16.6874 53.6379 16.6906C53.6443 16.6919 53.6356 16.6906 53.6163 16.6824C53.5965 16.6739 53.5714 16.6606 53.5449 16.6414L55.8859 13.398ZM52.9668 12.7138C52.6233 12.7499 52.2843 12.8123 51.9523 12.9041L53.0187 16.7594C53.1245 16.7301 53.2457 16.7066 53.3849 16.6919L52.9668 12.7138ZM50.4965 15.0408L50.8799 18.6887L54.858 18.2706L54.4746 14.6227L50.4965 15.0408ZM71.181 19.0466L71.4119 21.0333L71.4226 21.032L71.4333 21.0307L71.181 19.0466ZM68.7621 18.6674L67.9215 20.4822L67.9318 20.4869L68.7621 18.6674ZM66.8513 17.0945L65.2249 18.2585L65.2335 18.2705L65.2422 18.2823L66.8513 17.0945ZM65.921 14.6725L63.9343 14.9027L63.9354 14.9124L63.9366 14.9221L65.921 14.6725ZM66.279 12.1854L68.1151 12.9784L68.1151 12.9784L66.279 12.1854ZM67.8196 10.2357L69.0163 11.8382L69.0237 11.8327L69.0311 11.827L67.8196 10.2357ZM70.1581 9.31423L70.3672 11.3033L70.378 11.3021L70.3888 11.3009L70.1581 9.31423ZM72.5924 9.70593L71.7449 11.5175L71.7551 11.5222L72.5924 9.70593ZM74.5216 11.3191L72.8891 12.4746L72.8891 12.4746L74.5216 11.3191ZM75.0367 16.2201L76.8562 17.0504L75.0367 16.2201ZM73.4778 18.1295L72.2962 16.5158L72.2873 16.5224L73.4778 18.1295ZM71.9752 15.7536L70.4209 14.4949L70.4112 14.5069L70.4017 14.519L71.9752 15.7536ZM72.2949 14.5093L70.3058 14.7184L70.3078 14.7372L70.3101 14.7559L72.2949 14.5093ZM71.722 13.3448L70.4396 14.8796L70.4396 14.8796L71.722 13.3448ZM69.55 13.5731L71.1234 14.8077L71.1234 14.8077L69.55 13.5731ZM70.9501 17.06C70.4669 17.1162 70.0277 17.0465 69.5925 16.8479L67.9318 20.4869C69.0343 20.99 70.2078 21.1732 71.4119 21.0333L70.9501 17.06ZM69.6028 16.8526C69.1586 16.6469 68.7823 16.3429 68.4603 15.9067L65.2422 18.2823C65.9488 19.2395 66.8464 19.9842 67.9215 20.4822L69.6028 16.8526ZM68.4776 15.9305C68.1753 15.5081 67.9803 15.0186 67.9054 14.4229L63.9366 14.9221C64.09 16.1418 64.5152 17.267 65.2249 18.2585L68.4776 15.9305ZM67.9077 14.4423C67.8461 13.9103 67.9179 13.4349 68.1151 12.9784L64.4429 11.3925C63.9607 12.509 63.794 13.6916 63.9343 14.9027L67.9077 14.4423ZM68.1151 12.9784C68.3158 12.5135 68.6087 12.1426 69.0163 11.8382L66.623 8.63321C65.6557 9.35551 64.9214 10.2844 64.4429 11.3925L68.1151 12.9784ZM69.0311 11.827C69.421 11.5302 69.8524 11.3574 70.3672 11.3033L69.9491 7.32519C68.7188 7.4545 67.5912 7.89601 66.6081 8.64441L69.0311 11.827ZM70.3888 11.3009C70.8771 11.2442 71.3149 11.3163 71.7449 11.5175L73.4399 7.89437C72.3302 7.37522 71.1451 7.1862 69.9275 7.32758L70.3888 11.3009ZM71.7551 11.5222C72.2083 11.7312 72.5799 12.0376 72.8891 12.4746L76.154 10.1636C75.4493 9.16806 74.5348 8.39908 73.4297 7.88964L71.7551 11.5222ZM72.8891 12.4746C73.1875 12.8962 73.3752 13.3841 73.4379 13.981L77.416 13.5629C77.2855 12.3218 76.8696 11.1746 76.154 10.1636L72.8891 12.4746ZM73.4379 13.981C73.4923 14.4989 73.4156 14.9551 73.2172 15.3898L76.8562 17.0504C77.3596 15.9474 77.543 14.7714 77.416 13.5629L73.4379 13.981ZM73.2172 15.3898C73.0099 15.8442 72.7112 16.212 72.2962 16.5158L74.6593 19.7432C75.6211 19.039 76.3618 18.1338 76.8562 17.0504L73.2172 15.3898ZM72.2873 16.5224C71.8881 16.8181 71.4467 16.9968 70.9288 17.0626L71.4333 21.0307C72.6194 20.8799 73.7092 20.4471 74.6682 19.7366L72.2873 16.5224ZM71.1465 18.3162C72.1112 18.2148 72.9495 17.7517 73.5486 16.9882L70.4017 14.519C70.4204 14.4952 70.4686 14.4445 70.5496 14.3997C70.6305 14.355 70.6988 14.3413 70.7284 14.3381L71.1465 18.3162ZM73.5295 17.0122C74.1934 16.1923 74.3976 15.2129 74.2796 14.2628L70.3101 14.7559C70.3144 14.7907 70.3056 14.7611 70.3236 14.6909C70.343 14.6152 70.3804 14.5449 70.4209 14.4949L73.5295 17.0122ZM74.2839 14.3003C74.1871 13.379 73.8015 12.4761 73.0044 11.8101L70.4396 14.8796C70.4165 14.8603 70.3921 14.8358 70.3693 14.8066C70.3464 14.7775 70.3294 14.7493 70.3175 14.7251C70.2934 14.6761 70.3001 14.6641 70.3058 14.7184L74.2839 14.3003ZM73.0044 11.8101C72.2596 11.1878 71.3433 10.9091 70.3786 11.0105L70.7967 14.9886C70.7671 14.9917 70.6975 14.9924 70.609 14.9655C70.5205 14.9386 70.4628 14.899 70.4396 14.8796L73.0044 11.8101ZM70.3786 11.0105C69.4139 11.1119 68.5756 11.575 67.9765 12.3386L71.1234 14.8077C71.1047 14.8316 71.0565 14.8822 70.9756 14.927C70.8947 14.9717 70.8263 14.9855 70.7967 14.9886L70.3786 11.0105ZM67.9765 12.3386C67.3353 13.1557 67.1459 14.119 67.2427 15.0403L71.2208 14.6222C71.2151 14.5679 71.2241 14.5783 71.2107 14.6312C71.2041 14.6573 71.1933 14.6885 71.1771 14.7217C71.1608 14.755 71.142 14.784 71.1234 14.8077L67.9765 12.3386ZM67.2427 15.0403C67.3398 15.9639 67.7313 16.857 68.5207 17.5166L71.0855 14.4471C71.1066 14.4648 71.1299 14.4879 71.1523 14.5163C71.1747 14.5447 71.1921 14.573 71.2046 14.5983C71.2304 14.6501 71.2255 14.6676 71.2208 14.6222L67.2427 15.0403ZM68.5207 17.5166C69.2655 18.1389 70.1818 18.4176 71.1465 18.3162L70.7284 14.3381C70.758 14.335 70.8277 14.3343 70.9161 14.3612C71.0046 14.3882 71.0623 14.4277 71.0855 14.4471L68.5207 17.5166ZM80.0543 17.3961L79.1614 19.1857L79.1694 19.1897L79.1774 19.1936L80.0543 17.3961ZM78.172 15.6935L76.4613 16.7296L76.4687 16.7418L76.4762 16.7538L78.172 15.6935ZM77.4475 9.87134L79.4006 10.302L77.4475 9.87134ZM80.5723 8.79682L79.1014 10.152L79.1014 10.152L80.5723 8.79682ZM81.205 11.6021L83.2032 11.6867L83.2036 11.6764L81.205 11.6021ZM81.5864 14.0255L83.2842 12.9684L83.2842 12.9684L81.5864 14.0255ZM83.2015 13.8557L81.321 13.1747L81.313 13.1967L81.3056 13.2189L83.2015 13.8557ZM83.0707 11.406L81.1312 11.8942L81.1338 11.9043L83.0707 11.406ZM83.1063 8.53048L84.8268 9.55025L84.8268 9.55025L83.1063 8.53048ZM86.3862 8.93184L88.2071 8.10452L88.2071 8.10452L86.3862 8.93184ZM86.8741 14.7789L84.9917 14.103L84.9884 14.1125L86.8741 14.7789ZM85.4009 16.8341L86.6323 18.41L86.6394 18.4045L86.6464 18.399L85.4009 16.8341ZM82.5917 15.8222C81.8543 15.8997 81.3271 15.7917 80.9312 15.5986L79.1774 19.1936C80.3642 19.7726 81.668 19.9413 83.0098 19.8003L82.5917 15.8222ZM80.9472 15.6065C80.4794 15.373 80.1319 15.0556 79.8678 14.6332L76.4762 16.7538C77.1372 17.8108 78.0446 18.6284 79.1614 19.1857L80.9472 15.6065ZM79.8827 14.6574C79.5908 14.1753 79.4022 13.6219 79.3334 12.9672L75.3553 13.3853C75.4816 14.587 75.8448 15.7117 76.4613 16.7296L79.8827 14.6574ZM79.3334 12.9672C79.2136 11.8278 79.2569 10.9536 79.4006 10.302L75.4944 9.44068C75.2313 10.6337 75.2058 11.9628 75.3553 13.3853L79.3334 12.9672ZM79.4006 10.302C79.4205 10.2117 79.439 10.175 79.4395 10.1741C79.4395 10.174 79.4384 10.1762 79.4359 10.1803C79.4334 10.1843 79.4296 10.1901 79.4243 10.1973C79.4135 10.2119 79.398 10.2303 79.3773 10.2499C79.3327 10.2922 79.285 10.321 79.2483 10.3367C79.2148 10.351 79.2116 10.3455 79.2565 10.3408L78.8383 6.36273C78.0504 6.44555 77.2637 6.74073 76.6227 7.34955C75.9945 7.94613 75.6577 8.69992 75.4944 9.44068L79.4006 10.302ZM79.2565 10.3408C79.4076 10.3249 79.4322 10.3458 79.3765 10.3295C79.3461 10.3207 79.2996 10.3028 79.2456 10.27C79.191 10.2367 79.1418 10.1959 79.1014 10.152L82.0431 7.44163C81.1325 6.45326 79.8994 6.25121 78.8383 6.36273L79.2565 10.3408ZM79.1014 10.152C79.1088 10.16 79.1196 10.1732 79.1329 10.205C79.1475 10.2398 79.1709 10.3109 79.1839 10.4349L83.162 10.0168C83.0637 9.08178 82.7224 8.17885 82.0431 7.44163L79.1014 10.152ZM79.1839 10.4349C79.2123 10.7048 79.2236 11.0645 79.2063 11.5277L83.2036 11.6764C83.2256 11.0843 83.2156 10.5266 83.162 10.0168L79.1839 10.4349ZM79.2068 11.5174C79.1828 12.083 79.1878 12.6148 79.2377 13.0898L83.2158 12.6717C83.1935 12.4599 83.184 12.1392 83.2032 11.6867L79.2068 11.5174ZM79.2377 13.0898C79.3092 13.7698 79.5006 14.4595 79.8885 15.0825L83.2842 12.9684C83.2882 12.9749 83.2399 12.9014 83.2158 12.6717L79.2377 13.0898ZM79.8885 15.0825C80.1576 15.5147 80.5534 15.9139 81.0963 16.1683C81.6325 16.4196 82.1781 16.467 82.6542 16.4169L82.2361 12.4389C82.3316 12.4288 82.5438 12.4292 82.7937 12.5463C83.0503 12.6666 83.2071 12.8445 83.2842 12.9684L79.8885 15.0825ZM82.6542 16.4169C83.1249 16.3675 83.6545 16.2113 84.1333 15.8491C84.6226 15.4789 84.9301 14.9905 85.0974 14.4925L81.3056 13.2189C81.3585 13.0614 81.4827 12.8386 81.7199 12.6591C81.9466 12.4877 82.1553 12.4474 82.2361 12.4389L82.6542 16.4169ZM85.082 14.5367C85.3319 13.8466 85.3758 13.1322 85.3043 12.4522L81.3262 12.8703C81.3503 13.1 81.3184 13.1819 81.321 13.1747L85.082 14.5367ZM85.3043 12.4522C85.2544 11.9772 85.1487 11.456 85.0076 10.9077L81.1338 11.9043C81.2466 12.3428 81.3039 12.6585 81.3262 12.8703L85.3043 12.4522ZM85.0102 10.9177C84.897 10.4682 84.8333 10.114 84.8049 9.84413L80.8268 10.2622C80.8804 10.7721 80.9866 11.3197 81.1312 11.8942L85.0102 10.9177ZM84.8049 9.84413C84.7919 9.72011 84.7999 9.64566 84.807 9.60863C84.8134 9.57479 84.8212 9.55963 84.8268 9.55025L81.3858 7.51072C80.8747 8.37305 80.7286 9.32722 80.8268 10.2622L84.8049 9.84413ZM84.8268 9.55025C84.7964 9.60159 84.7567 9.65174 84.7103 9.69562C84.6643 9.73898 84.6225 9.76611 84.5946 9.78108C84.5435 9.80857 84.5632 9.78306 84.7144 9.76717L84.2963 5.78908C83.2352 5.90061 82.0711 6.35462 81.3858 7.51072L84.8268 9.55025ZM84.7144 9.76717C84.7592 9.76246 84.7572 9.76844 84.7216 9.76142C84.6824 9.75369 84.6297 9.73549 84.5773 9.70334C84.553 9.68845 84.534 9.67373 84.5204 9.66165C84.5137 9.65576 84.5088 9.65089 84.5055 9.64743C84.5022 9.64399 84.5006 9.64209 84.5007 9.64214C84.5013 9.6429 84.5271 9.67493 84.5654 9.75916L88.2071 8.10452C87.8933 7.41391 87.4072 6.74661 86.6687 6.29367C85.9151 5.83143 85.0842 5.70627 84.2963 5.78908L84.7144 9.76717ZM84.5654 9.75916C84.8414 10.3666 85.0654 11.2127 85.1852 12.3521L89.1633 11.934C89.0137 10.5115 88.7125 9.21678 88.2071 8.10452L84.5654 9.75916ZM85.1852 12.3521C85.2532 12.9994 85.1817 13.574 84.9917 14.103L88.7564 15.4547C89.1618 14.3258 89.2904 13.1432 89.1633 11.934L85.1852 12.3521ZM84.9884 14.1125C84.8266 14.5703 84.5609 14.9465 84.1553 15.2693L86.6464 18.399C87.6265 17.6189 88.3429 16.6249 88.7598 15.4453L84.9884 14.1125ZM84.1694 15.2582C83.8223 15.5295 83.3291 15.7447 82.5917 15.8222L83.0098 19.8003C84.3516 19.6593 85.5918 19.2231 86.6323 18.41L84.1694 15.2582ZM97.7929 9.83044L98.9181 11.4839L98.9288 11.4765L97.7929 9.83044ZM95.3796 10.5768L95.0739 8.60029L93.0282 8.91671L93.4148 10.9503L95.3796 10.5768ZM95.6985 14.6819L93.705 14.5209L93.704 14.5333L93.7031 14.5458L95.6985 14.6819ZM95.2931 16.0478L96.8898 17.2521L96.8996 17.2391L96.9093 17.2259L95.2931 16.0478ZM93.1599 16.2439L94.5718 14.8273L93.1599 16.2439ZM92.5196 14.9738L90.5879 15.4921L90.5879 15.4921L92.5196 14.9738ZM91.9963 10.9324L93.9939 10.834L93.8947 8.82168L91.8832 8.93559L91.9963 10.9324ZM90.1057 10.8918L89.7707 12.8635L89.7938 12.8675L89.817 12.8708L90.1057 10.8918ZM89.0154 10.4292L87.6676 11.9069L89.0154 10.4292ZM88.9747 8.16708L87.5336 6.7803L87.5336 6.7803L88.9747 8.16708ZM90.4961 7.37371L89.9547 5.44839L89.9547 5.44839L90.4961 7.37371ZM97.7464 7.24514L98.8464 5.57486L98.8464 5.57486L97.7464 7.24514ZM96.4291 8.62238C96.4319 8.64891 96.4188 8.55917 96.4803 8.41969C96.5444 8.27439 96.6345 8.19985 96.6569 8.18438L98.9288 11.4765C99.4325 11.1289 99.8674 10.6521 100.14 10.0345C100.41 9.4226 100.469 8.79036 100.407 8.20426L96.4291 8.62238ZM96.6676 8.17702C96.6676 8.177 96.6595 8.18249 96.6412 8.19249C96.623 8.20246 96.5964 8.2159 96.5602 8.23208C96.4867 8.26493 96.3833 8.30462 96.2439 8.34772C95.9617 8.43499 95.5775 8.52239 95.0739 8.60029L95.6854 12.5533C96.8769 12.369 98.0573 12.0697 98.9181 11.4839L96.6676 8.17702ZM93.4148 10.9503C93.4843 11.3158 93.5565 11.8286 93.6278 12.5065L97.6058 12.0884C97.5288 11.3553 97.4429 10.7211 97.3445 10.2033L93.4148 10.9503ZM93.6278 12.5065C93.7252 13.4336 93.7398 14.0905 93.705 14.5209L97.692 14.843C97.7551 14.0618 97.7152 13.1291 97.6058 12.0884L93.6278 12.5065ZM93.7031 14.5458C93.6904 14.7324 93.666 14.8448 93.6493 14.9009C93.633 14.956 93.6316 14.9317 93.6768 14.8697L96.9093 17.2259C97.4494 16.4849 97.6402 15.6049 97.6939 14.8181L93.7031 14.5458ZM93.6963 14.8435C93.7669 14.7499 93.8592 14.6752 93.9504 14.6287C94.0337 14.5862 94.0766 14.587 94.0419 14.5906L94.46 18.5687C95.3457 18.4756 96.2542 18.0949 96.8898 17.2521L93.6963 14.8435ZM94.0419 14.5906C94.0297 14.5919 94.1028 14.5823 94.2253 14.62C94.3578 14.6608 94.4805 14.7364 94.5718 14.8273L91.748 17.6604C92.529 18.4389 93.5316 18.6663 94.46 18.5687L94.0419 14.5906ZM94.5718 14.8273C94.6174 14.8728 94.6132 14.8856 94.5813 14.8223C94.5493 14.7589 94.5016 14.6429 94.4513 14.4555L90.5879 15.4921C90.7878 16.237 91.1256 17.04 91.748 17.6604L94.5718 14.8273ZM94.4513 14.4555C94.3357 14.0249 94.2214 13.3714 94.125 12.4542L90.1469 12.8723C90.2535 13.8858 90.3949 14.7727 90.5879 15.4921L94.4513 14.4555ZM94.125 12.4542C94.0595 11.8312 94.0164 11.2923 93.9939 10.834L89.9987 11.0308C90.0258 11.5808 90.0758 12.1958 90.1469 12.8723L94.125 12.4542ZM91.8832 8.93559C91.1756 8.97566 90.6941 8.95646 90.3944 8.91274L89.817 12.8708C90.4894 12.9689 91.2683 12.9768 92.1094 12.9292L91.8832 8.93559ZM90.4407 8.92004C90.3826 8.91018 90.3389 8.89992 90.3077 8.89118C90.2764 8.88244 90.2601 8.8759 90.2559 8.87411C90.2474 8.87052 90.2949 8.88929 90.3631 8.95152L87.6676 11.9069C88.2983 12.4822 89.072 12.7448 89.7707 12.8635L90.4407 8.92004ZM90.3631 8.95152C90.4534 9.03386 90.5111 9.12377 90.5425 9.19368C90.5712 9.25751 90.5679 9.28168 90.5634 9.23889L86.5853 9.657C86.667 10.4338 86.9661 11.2671 87.6676 11.9069L90.3631 8.95152ZM90.5634 9.23889C90.5599 9.20503 90.5696 9.24757 90.5424 9.33448C90.5132 9.42808 90.4621 9.5058 90.4158 9.55386L87.5336 6.7803C86.7479 7.59669 86.4778 8.63427 86.5853 9.657L90.5634 9.23889ZM90.4158 9.55386C90.3962 9.57428 90.4162 9.54614 90.5209 9.49152C90.6257 9.43687 90.7915 9.36822 91.0375 9.29903L89.9547 5.44839C89.0923 5.69088 88.202 6.08569 87.5336 6.7803L90.4158 9.55386ZM91.0375 9.29903C91.5771 9.1473 92.3698 9.00479 93.4569 8.89053L93.0387 4.91244C91.8424 5.03818 90.8006 5.21049 89.9547 5.44839L91.0375 9.29903ZM93.4569 8.89053C94.5533 8.77529 95.3694 8.74869 95.9404 8.78444L96.1904 4.79226C95.3066 4.73691 94.2443 4.78574 93.0387 4.91244L93.4569 8.89053ZM95.9404 8.78444C96.2016 8.80079 96.3853 8.8337 96.5067 8.86671C96.6283 8.89974 96.6623 8.92594 96.6463 8.91543L98.8464 5.57486C98.0447 5.04681 97.0915 4.84868 96.1904 4.79226L95.9404 8.78444ZM96.6463 8.91543C96.5949 8.88161 96.5268 8.81773 96.4755 8.72846C96.4274 8.64481 96.4262 8.59506 96.4291 8.62238L100.407 8.20426C100.298 7.1631 99.799 6.20222 98.8464 5.57486L96.6463 8.91543Z" fill="#4B371F" mask="url(#path-2-outside-1_0_1)"/>
</svg>
