<svg width="360" height="340" viewBox="0 0 360 340" fill="none" xmlns="http://www.w3.org/2000/svg">
<path fill-rule="evenodd" clip-rule="evenodd" d="M197.566 214.774C197.579 214.837 197.591 214.9 197.603 214.964C200.529 232.008 199.103 247.99 168.603 252.74C150.066 255.627 118.135 255.925 97.0634 253.197C87.1897 251.919 80.6959 243.214 81.7215 233.311C85.2892 198.864 101.827 168.937 105.894 165.783C107.13 164.825 112.729 166.645 119.987 169.004C129.623 172.135 142.181 176.216 151.331 176.008C159.83 175.508 167.514 172.324 171.135 167.325C177.935 175.123 187.534 188.25 193.318 201.614C192.858 201.108 192.358 200.596 191.815 200.081C181.815 190.581 165.486 191.081 158.815 200.079C155.109 205.078 153.832 211.667 154.815 214.579C156.346 219.115 158.169 220.441 159.815 220.212C160.55 220.765 161.404 221.081 162.314 221.081C162.679 221.081 163.034 221.03 163.376 220.934C163.676 222.9 164.599 224.862 166.315 226.579C173.315 233.579 189.315 226.722 193.815 221.579C195.257 219.931 196.869 217.604 197.566 214.774Z" fill="white"/>
<path d="M197.603 214.964L198.589 214.795L198.587 214.785L198.585 214.776L197.603 214.964ZM197.566 214.774L198.548 214.582L196.595 214.534L197.566 214.774ZM168.603 252.74L168.449 251.752L168.603 252.74ZM97.0634 253.197L96.935 254.189L97.0634 253.197ZM81.7215 233.311L80.7268 233.208L81.7215 233.311ZM105.894 165.783L106.507 166.573V166.573L105.894 165.783ZM119.987 169.004L120.296 168.053L119.987 169.004ZM151.331 176.008L151.353 177.008L151.371 177.007L151.389 177.006L151.331 176.008ZM171.135 167.325L171.889 166.668L171.063 165.72L170.325 166.738L171.135 167.325ZM193.318 201.614L192.578 202.286L194.236 201.217L193.318 201.614ZM191.815 200.081L192.504 199.356L191.815 200.081ZM158.815 200.079L159.619 200.675L158.815 200.079ZM154.815 214.579L153.868 214.899V214.899L154.815 214.579ZM159.815 220.212L160.416 219.413L160.086 219.165L159.677 219.221L159.815 220.212ZM163.376 220.934L164.365 220.783L164.195 219.665L163.106 219.971L163.376 220.934ZM166.315 226.579L165.608 227.286L165.608 227.286L166.315 226.579ZM193.815 221.579L194.568 222.237L193.815 221.579ZM198.585 214.776C198.573 214.711 198.56 214.646 198.548 214.582L196.585 214.965C196.597 215.028 196.609 215.09 196.621 215.152L198.585 214.776ZM168.757 253.728C184.152 251.331 192.49 246.054 196.508 238.955C200.495 231.909 200.056 223.344 198.589 214.795L196.618 215.133C198.076 223.627 198.386 231.575 194.767 237.969C191.179 244.31 183.555 249.399 168.449 251.752L168.757 253.728ZM96.935 254.189C118.093 256.927 150.12 256.631 168.757 253.728L168.449 251.752C150.013 254.623 118.177 254.922 97.1917 252.205L96.935 254.189ZM80.7268 233.208C79.6486 243.619 86.492 252.837 96.935 254.189L97.1917 252.205C87.8874 251.001 81.7431 242.81 82.7162 233.414L80.7268 233.208ZM105.281 164.993C104.649 165.483 103.874 166.4 103.02 167.596C102.148 168.817 101.136 170.409 100.036 172.322C97.8346 176.15 95.2564 181.301 92.6977 187.427C87.5816 199.674 82.5232 215.864 80.7268 233.208L82.7162 233.414C84.4875 216.311 89.4817 200.314 94.5431 188.198C97.0731 182.141 99.6149 177.066 101.77 173.319C102.848 171.445 103.823 169.912 104.648 168.759C105.49 167.579 106.122 166.871 106.507 166.573L105.281 164.993ZM120.296 168.053C116.679 166.877 113.43 165.821 110.93 165.181C109.683 164.862 108.579 164.634 107.686 164.554C107.239 164.514 106.811 164.508 106.427 164.558C106.053 164.607 105.633 164.72 105.281 164.993L106.507 166.573C106.464 166.606 106.489 166.567 106.686 166.541C106.873 166.517 107.142 166.514 107.507 166.546C108.239 166.612 109.22 166.808 110.434 167.118C112.858 167.739 116.037 168.771 119.678 169.955L120.296 168.053ZM151.308 175.008C146.87 175.109 141.547 174.168 136.086 172.789C130.636 171.412 125.119 169.62 120.296 168.053L119.678 169.955C124.491 171.519 130.071 173.333 135.597 174.728C141.111 176.12 146.642 177.115 151.353 177.008L151.308 175.008ZM170.325 166.738C166.953 171.394 159.623 174.518 151.272 175.01L151.389 177.006C160.036 176.497 168.075 173.255 171.945 167.911L170.325 166.738ZM194.236 201.217C188.398 187.727 178.73 174.513 171.889 166.668L170.382 167.982C177.141 175.733 186.671 188.773 192.4 202.011L194.236 201.217ZM194.058 200.942C193.581 200.416 193.064 199.887 192.504 199.356L191.126 200.806C191.652 201.305 192.135 201.799 192.578 202.286L194.058 200.942ZM192.504 199.356C187.301 194.413 180.463 192.078 174.057 192.143C167.662 192.208 161.579 194.672 158.012 199.483L159.619 200.675C162.722 196.488 168.139 194.203 174.077 194.143C180.003 194.083 186.329 196.248 191.126 200.806L192.504 199.356ZM158.012 199.483C156.071 202.101 154.774 205.122 154.087 207.869C153.41 210.575 153.286 213.174 153.868 214.899L155.763 214.259C155.362 213.071 155.385 210.92 156.027 208.354C156.659 205.829 157.853 203.055 159.619 200.675L158.012 199.483ZM153.868 214.899C154.656 217.233 155.555 218.859 156.558 219.882C157.593 220.938 158.763 221.368 159.953 221.202L159.677 219.221C159.22 219.285 158.657 219.166 157.986 218.482C157.284 217.766 156.506 216.461 155.763 214.259L153.868 214.899ZM159.214 221.011C160.102 221.679 161.163 222.081 162.314 222.081V220.081C161.645 220.081 160.998 219.85 160.416 219.413L159.214 221.011ZM162.314 222.081C162.772 222.081 163.219 222.017 163.647 221.897L163.106 219.971C162.85 220.043 162.585 220.081 162.314 220.081V222.081ZM162.388 221.085C162.72 223.264 163.742 225.42 165.608 227.286L167.022 225.872C165.455 224.304 164.632 222.537 164.365 220.783L162.388 221.085ZM165.608 227.286C169.51 231.187 175.748 231.101 181.266 229.597C186.823 228.082 192.148 225.003 194.568 222.237L193.063 220.92C190.983 223.297 186.057 226.218 180.74 227.667C175.383 229.128 170.121 228.97 167.022 225.872L165.608 227.286ZM194.568 222.237C196.064 220.527 197.787 218.059 198.537 215.013L196.595 214.534C195.951 217.149 194.45 219.335 193.063 220.92L194.568 222.237Z" fill="black"/>
<path d="M117.727 248.543C130.318 249.306 146.779 250.389 156.776 246.889C157.468 242.104 156.147 225.774 154.331 209.284C152.858 195.915 152.193 185.709 150.328 176.008C144.08 172.968 114.019 170.618 103.394 168.533C95.0865 179.477 85.1649 207.714 81.8591 229.973C79.2753 247.369 101.819 247.579 117.727 248.543Z" fill="#8F3D2C" stroke="black" stroke-width="2"/>
<path d="M143.831 184.843C146.831 207.093 147.778 220.886 148.581 242.843C134.261 242.692 113.147 246.38 84.8936 233.783" stroke="#CDA188" stroke-width="2" stroke-linecap="round" stroke-dasharray="4 4"/>
<path fill-rule="evenodd" clip-rule="evenodd" d="M161.78 221.044C162.578 231.59 162.924 240.424 163.011 245.178C163.02 245.701 163.429 246.126 163.952 246.149C175.621 246.678 186.815 243.399 193.026 237.349C196.545 233.727 200.821 229.094 197.426 215.294C196.67 217.89 195.168 220.033 193.815 221.578C189.315 226.721 173.315 233.578 166.315 226.578C164.599 224.862 163.676 222.9 163.376 220.934C163.034 221.03 162.679 221.081 162.314 221.081C162.134 221.081 161.955 221.068 161.78 221.044ZM159.613 199.094C166.709 191.061 182.178 190.94 191.8 200.066C191.601 199.636 191.4 199.204 191.199 198.769C186.373 188.348 180.99 176.726 170.83 168.258C167.824 170.031 165.46 170.628 163.268 171.182C160.719 171.826 158.402 172.411 155.58 174.718C157.258 182.376 158.579 190.78 159.613 199.094Z" fill="#8F3D2C"/>
<path d="M163.011 245.178L162.011 245.196L162.011 245.196L163.011 245.178ZM161.78 221.044L161.917 220.054L160.689 219.884L160.783 221.12L161.78 221.044ZM163.952 246.149L163.906 247.148H163.906L163.952 246.149ZM193.026 237.349L193.723 238.066L193.733 238.056L193.743 238.046L193.026 237.349ZM197.426 215.294L198.397 215.055L197.508 211.441L196.466 215.014L197.426 215.294ZM193.815 221.578L194.568 222.237H194.568L193.815 221.578ZM166.315 226.578L167.022 225.871L166.315 226.578ZM163.376 220.934L164.365 220.783L164.195 219.665L163.106 219.971L163.376 220.934ZM159.613 199.094L158.621 199.217L158.895 201.418L160.363 199.756L159.613 199.094ZM191.8 200.066L191.112 200.792L192.707 199.645L191.8 200.066ZM191.199 198.769L190.292 199.19L190.292 199.19L191.199 198.769ZM170.83 168.258L171.47 167.49L170.929 167.038L170.322 167.397L170.83 168.258ZM163.268 171.182L163.513 172.152L163.268 171.182ZM155.58 174.718L154.947 173.943L154.472 174.332L154.603 174.932L155.58 174.718ZM164.011 245.159C163.924 240.385 163.577 231.532 162.777 220.969L160.783 221.12C161.58 231.647 161.925 240.462 162.011 245.196L164.011 245.159ZM163.997 245.15C163.996 245.15 163.997 245.15 163.998 245.151C163.999 245.151 164.001 245.151 164.002 245.152C164.005 245.153 164.007 245.155 164.008 245.156C164.009 245.157 164.01 245.158 164.01 245.159C164.011 245.161 164.011 245.162 164.011 245.159L162.011 245.196C162.03 246.24 162.85 247.101 163.906 247.148L163.997 245.15ZM192.328 236.633C186.384 242.423 175.503 245.672 163.997 245.15L163.906 247.148C175.738 247.684 187.246 244.376 193.723 238.066L192.328 236.633ZM196.455 215.533C198.124 222.318 197.877 226.725 196.868 229.829C195.86 232.929 194.058 234.851 192.308 236.653L193.743 238.046C195.512 236.225 197.608 234.02 198.77 230.447C199.93 226.879 200.123 222.07 198.397 215.055L196.455 215.533ZM196.466 215.014C195.765 217.418 194.363 219.434 193.063 220.92L194.568 222.237C195.973 220.631 197.574 218.362 198.386 215.574L196.466 215.014ZM193.063 220.92C190.983 223.297 186.057 226.218 180.74 227.667C175.383 229.127 170.121 228.97 167.022 225.871L165.608 227.286C169.51 231.187 175.748 231.101 181.266 229.597C186.823 228.082 192.148 225.003 194.568 222.237L193.063 220.92ZM167.022 225.871C165.455 224.304 164.632 222.537 164.365 220.783L162.388 221.085C162.72 223.263 163.742 225.42 165.608 227.286L167.022 225.871ZM163.106 219.971C162.85 220.043 162.585 220.081 162.314 220.081V222.081C162.772 222.081 163.219 222.017 163.647 221.897L163.106 219.971ZM162.314 220.081C162.18 220.081 162.047 220.072 161.917 220.054L161.643 222.035C161.864 222.065 162.088 222.081 162.314 222.081V220.081ZM160.363 199.756C163.673 196.009 169.004 194.043 174.741 194.145C180.468 194.248 186.496 196.414 191.112 200.792L192.488 199.341C187.482 194.592 180.964 192.256 174.777 192.146C168.601 192.035 162.65 194.146 158.864 198.432L160.363 199.756ZM190.292 199.19C190.493 199.624 190.693 200.057 190.893 200.487L192.707 199.645C192.508 199.216 192.308 198.784 192.107 198.349L190.292 199.19ZM170.19 169.026C180.151 177.329 185.452 188.74 190.292 199.19L192.107 198.349C187.293 187.956 181.829 176.124 171.47 167.49L170.19 169.026ZM163.513 172.152C165.722 171.594 168.203 170.969 171.338 169.119L170.322 167.397C167.446 169.093 165.198 169.663 163.023 170.213L163.513 172.152ZM156.213 175.492C158.855 173.333 160.989 172.789 163.513 172.152L163.023 170.213C160.449 170.863 157.949 171.49 154.947 173.943L156.213 175.492ZM160.606 198.97C159.569 190.637 158.243 182.201 156.557 174.504L154.603 174.932C156.272 182.551 157.589 190.923 158.621 199.217L160.606 198.97Z" fill="black"/>
<path d="M164.081 182.343L165.184 189.719M195.441 226.538C193.533 231.753 180.186 237.503 172.103 239.42L171.342 230.889" stroke="#CDA188" stroke-width="2" stroke-linecap="round" stroke-dasharray="4 4"/>
<path d="M183.672 171.224C202.574 177.158 224.731 183.301 227.797 187.724C221.172 189.036 212.547 191.349 212.047 205.849C211.92 209.537 212.661 212.149 213.816 214.003C215.741 214.134 220.687 213.958 221.029 214.726C221.302 215.341 222.395 217.601 222.907 218.655C219.833 219.509 210.579 217.354 205.441 216.071C202.594 215.36 200.315 214.756 197.786 213.772C198.02 211.199 198.067 208.861 196.663 206.053C194.907 202.364 193.463 201.743 192.347 199.971C186.606 187.132 179.436 177.191 176.059 173.626C175.934 171.376 175.918 170.375 175.922 169.474C178.019 169.736 181.336 170.49 183.672 171.224Z" fill="#8F3D2C"/>
<path d="M222.907 218.655C219.833 219.509 210.579 217.354 205.441 216.071C202.594 215.36 200.315 214.756 197.786 213.772C198.02 211.199 198.067 208.861 196.663 206.053C194.907 202.364 193.463 201.743 192.347 199.971C186.606 187.132 179.436 177.191 176.059 173.626C175.934 171.376 175.918 170.375 175.922 169.474C178.019 169.736 181.336 170.49 183.672 171.224C202.574 177.158 224.731 183.301 227.797 187.724C221.172 189.036 212.547 191.349 212.047 205.849C211.92 209.537 212.661 212.149 213.816 214.003M222.907 218.655C222.395 217.601 221.302 215.341 221.029 214.726C220.687 213.958 215.74 214.134 213.816 214.003M222.907 218.655C221.587 218.535 216.546 218.389 213.816 214.003" stroke="black" stroke-width="2"/>
<path d="M155.185 172.855C150.859 164.969 112.376 151.843 99.8433 154.593C92.0478 156.093 86.7739 168.971 93.9616 185.159C95.2109 179.034 105.507 172.718 111.98 172.718C118.453 172.718 139.478 176.802 149.182 178.843L155.185 172.855Z" fill="white" stroke="black" stroke-width="2" stroke-linecap="round" stroke-linejoin="round"/>
<path d="M154.457 172.218C156.484 164.332 174.54 152.468 180.412 155.218C184.065 156.718 187.031 168.068 184.109 184.468C182.583 180.093 178.214 172.718 175.181 172.718C172.148 172.718 162.296 176.801 157.749 178.843L154.457 172.218Z" fill="white" stroke="black" stroke-width="2" stroke-linecap="round" stroke-linejoin="round"/>
<path d="M152.831 174.843C151.055 171.587 115.257 155.268 102.407 158.353C94.1176 160.343 94.3023 165.128 94.1357 173.954C94.4163 175.644 94.6785 177.766 95.203 181.593C96.8805 179.676 101.337 177.627 103.163 176.266C104.84 175.016 108.13 173.728 115.629 173.853C124.798 174.005 140.727 178.394 147.009 181.103L150.463 180.096L152.831 174.843Z" fill="#8F3D2C"/>
<path d="M155.353 174.844C156.187 171.588 172.919 156.853 179.037 158.353C183.04 159.334 183.264 169.748 182.673 177.338C182.541 179.028 183.157 180.88 182.976 182.155C182.189 180.238 179.292 177.839 178.434 176.478C177.646 175.228 176.349 173.728 172.826 173.853C168.52 174.006 161.039 178.395 158.088 181.103L156.466 180.096L155.353 174.844Z" fill="#8F3D2C"/>
<path d="M153.722 175.343C151.749 171.343 115.435 156.843 102.41 158.343C93.8873 159.324 93.4089 169.738 94.669 177.328C94.9496 179.018 94.9214 180.068 95.3048 181.343C96.9824 179.426 100.229 177.785 102.212 176.843C104.581 175.718 108.133 173.718 115.633 173.843C124.801 173.995 136.19 176.759 142.473 179.468" stroke="black" stroke-width="2" stroke-linecap="round" stroke-linejoin="round"/>
<path d="M154.935 175.343C155.862 171.343 172.918 156.843 179.036 158.343C183.039 159.324 183.123 173.968 183.123 173.968C183.123 173.968 182.892 180.693 182.712 181.968C181.924 180.051 178.605 175.843 178.605 175.843C178.605 175.843 176.322 173.186 172.825 173.843C168.83 174.593 167.845 175.343 164.066 176.843" stroke="black" stroke-width="2" stroke-linecap="round" stroke-linejoin="round"/>
<path d="M94.7129 173.844C101.587 170.719 120.567 170.469 145.137 180.594" stroke="black" stroke-width="2" stroke-linecap="round"/>
<path d="M182.652 176.093C178.853 174.468 172.856 170.718 160.782 178.718" stroke="black" stroke-width="2" stroke-linecap="round"/>
<path d="M161.458 170.835C161.655 170.43 161.947 169.741 162.1 168.969C162.355 167.683 162.275 165.859 160.53 164.663L160.53 164.663C158.835 163.499 157.164 163.929 156.052 164.549C155.501 164.856 155.055 165.222 154.749 165.506C154.708 165.544 154.669 165.581 154.633 165.617C154.313 165.585 153.995 165.575 153.683 165.583C153.147 165.565 152.561 165.635 152.137 165.7C151.912 165.735 151.717 165.771 151.579 165.798C151.509 165.812 151.453 165.823 151.413 165.832L151.366 165.842L151.362 165.843C151.054 165.904 150.747 165.984 150.443 166.085C150.399 166.059 150.353 166.031 150.303 166.002C149.942 165.793 149.426 165.535 148.82 165.358C147.599 165.001 145.874 164.952 144.479 166.464C143.045 168.018 143.373 169.814 143.906 171.012C144.225 171.728 144.649 172.321 144.945 172.688C144.919 172.802 144.868 172.927 144.781 173.084C144.692 173.243 144.614 173.361 144.516 173.507C144.439 173.623 144.351 173.756 144.236 173.941C143.77 174.695 143.321 175.679 143.49 177.18C143.656 178.661 144.355 179.986 145.607 180.861C146.848 181.728 148.52 182.078 150.51 181.854L151.594 181.733C151.687 181.795 151.794 181.86 151.917 181.924C152.362 182.155 153.002 182.363 153.804 182.309C153.818 182.308 153.836 182.308 153.857 182.307C153.905 182.304 153.971 182.3 154.056 182.293C154.224 182.279 154.467 182.254 154.794 182.206C155.64 182.107 156.258 181.759 156.668 181.421C156.788 181.321 156.891 181.222 156.977 181.131L158.056 181.01C160.046 180.786 161.599 180.073 162.615 178.952C163.642 177.821 164.029 176.376 163.863 174.895C163.701 173.396 163.049 172.535 162.428 171.903C162.274 171.746 162.158 171.635 162.057 171.539C161.931 171.419 161.828 171.322 161.707 171.186C161.586 171.052 161.509 170.941 161.458 170.835ZM153.687 166.583L153.685 166.559L153.686 166.531L153.687 166.583Z" fill="#CDA188" stroke="black" stroke-width="2"/>
<rect x="131.456" y="172.91" width="5.4502" height="32.5574" rx="2.7251" fill="white" stroke="black" stroke-width="2"/>
<path d="M170.593 171.658C169.288 172.054 168.463 173.456 168.749 174.789L172.164 190.7C172.422 191.903 173.506 192.659 174.708 192.473C176.173 192.247 177.202 190.733 176.887 189.266L173.472 173.354C173.186 172.021 171.897 171.262 170.593 171.658Z" fill="white" stroke="black" stroke-width="2"/>
<circle cx="134.181" cy="194.218" r="5.33398" fill="#CDA188" stroke="black" stroke-width="2"/>
<path d="M178.414 193.314L179.724 193.592L179.654 192.188C179.653 192.156 179.651 192.126 179.65 192.096C179.62 191.499 179.602 191.136 179.473 190.663C179.203 189.166 178.456 188.073 177.414 187.463C176.371 186.852 175.113 186.771 173.914 187.135C172.832 187.464 171.813 188.014 171.17 188.981C170.51 189.975 170.395 191.183 170.68 192.51L170.866 193.377L171.731 193.225C173.401 192.932 173.874 192.932 175.703 192.991L175.718 192.992L175.733 192.992C176.973 192.992 177.486 193.107 178.087 193.242C178.192 193.266 178.3 193.29 178.414 193.314Z" fill="#CDA188" stroke="black" stroke-width="2"/>
<path d="M116.428 180.33C135.928 183.829 160.209 188.977 163.809 192.977C164.909 193.466 168.323 193.261 170.152 193.107C170.552 193.051 170.947 193.014 171.336 192.995C171.336 192.995 170.864 193.047 170.152 193.107C162.457 194.18 152.978 202.005 152.113 211.019L153.941 212.844C154.261 214.894 155.087 218.953 157.103 219.289C159.75 220.153 161.653 220.602 163.277 220.003C163.49 222.664 163.77 223.798 164.354 224.911C162.905 225.754 161.225 226.397 159.428 226.977C157.771 228.158 151.809 225.699 151.809 225.699C148.048 227.05 143.928 226.425 135.928 224.33C127.928 222.234 103.994 206.83 100.928 195.329C98.3947 185.829 106.955 178.63 116.428 180.33Z" fill="#8F3D2C"/>
<path d="M116.428 180.33L116.251 181.314L116.428 180.33ZM100.928 195.329L99.9616 195.587L100.928 195.329ZM146.309 205.977L145.343 205.72L146.309 205.977ZM171.336 192.995L171.445 193.989C171.982 193.93 172.375 193.455 172.333 192.917C172.29 192.378 171.828 191.971 171.288 191.996L171.336 192.995ZM145.5 215.329L146.492 215.204L145.5 215.329ZM152.538 216.329L153.507 216.081L152.538 216.329ZM164.354 224.911L164.857 225.775L165.685 225.294L165.24 224.446L164.354 224.911ZM163.277 220.003L164.274 219.923L164.169 218.608L162.931 219.065L163.277 220.003ZM157.103 219.289L157.413 218.339L157.342 218.315L157.268 218.303L157.103 219.289ZM153.941 212.844L154.929 212.69L154.879 212.367L154.648 212.137L153.941 212.844ZM152.113 211.019L151.118 210.923L152.113 211.019ZM116.251 181.314C125.993 183.062 136.913 185.22 145.84 187.436C150.306 188.545 154.251 189.664 157.294 190.748C158.816 191.29 160.093 191.817 161.088 192.321C162.104 192.836 162.742 193.287 163.066 193.646L164.553 192.309C163.976 191.668 163.069 191.083 161.992 190.537C160.894 189.981 159.531 189.422 157.965 188.864C154.833 187.748 150.814 186.611 146.322 185.495C137.333 183.263 126.363 181.097 116.604 179.345L116.251 181.314ZM136.181 223.362C134.308 222.872 131.402 221.567 128.005 219.66C124.627 217.763 120.827 215.306 117.18 212.558C113.529 209.807 110.052 206.78 107.307 203.747C104.545 200.695 102.6 197.718 101.894 195.072L99.9616 195.587C100.789 198.69 102.985 201.952 105.824 205.089C108.679 208.243 112.26 211.355 115.976 214.155C119.695 216.957 123.57 219.463 127.026 221.404C130.462 223.333 133.548 224.74 135.674 225.297L136.181 223.362ZM101.894 195.072C100.727 190.693 102.109 186.896 104.854 184.364C107.618 181.814 111.806 180.516 116.251 181.314L116.604 179.345C111.577 178.443 106.748 179.895 103.498 182.894C100.227 185.912 98.596 190.465 99.9616 195.587L101.894 195.072ZM163.956 191.988C161.519 191.627 157.722 191.9 154.099 193.847C150.438 195.813 147.013 199.458 145.343 205.72L147.276 206.235C148.806 200.497 151.881 197.308 155.045 195.608C158.246 193.889 161.6 193.661 163.663 193.967L163.956 191.988ZM151.471 224.758C148.045 225.988 144.224 225.469 136.181 223.362L135.674 225.297C143.632 227.381 148.052 228.111 152.147 226.64L151.471 224.758ZM158.848 226.163C158.747 226.235 158.388 226.342 157.62 226.279C156.917 226.222 156.085 226.043 155.263 225.817C154.447 225.592 153.677 225.331 153.108 225.124C152.824 225.022 152.592 224.933 152.433 224.871C152.353 224.839 152.291 224.815 152.25 224.798C152.229 224.79 152.214 224.784 152.204 224.78C152.199 224.778 152.195 224.776 152.193 224.775C152.192 224.775 152.191 224.774 152.191 224.774C152.191 224.774 152.191 224.774 152.191 224.774C152.191 224.774 152.191 224.774 152.191 224.774C152.191 224.774 152.191 224.774 151.809 225.699C151.428 226.623 151.428 226.623 151.428 226.623C151.428 226.623 151.429 226.623 151.429 226.623C151.429 226.624 151.429 226.624 151.43 226.624C151.431 226.624 151.432 226.625 151.434 226.626C151.438 226.627 151.443 226.629 151.449 226.632C151.462 226.637 151.48 226.644 151.504 226.654C151.55 226.673 151.618 226.7 151.705 226.733C151.878 226.801 152.125 226.895 152.426 227.005C153.026 227.222 153.849 227.502 154.732 227.745C155.607 227.986 156.576 228.201 157.457 228.273C158.273 228.339 159.28 228.31 160.008 227.792L158.848 226.163ZM163.403 193.891C163.835 194.083 164.391 194.172 164.914 194.221C165.464 194.273 166.088 194.288 166.715 194.283C167.972 194.273 169.311 194.181 170.235 194.104L170.068 192.111C169.164 192.187 167.882 192.274 166.7 192.283C166.107 192.288 165.557 192.273 165.1 192.23C164.616 192.185 164.334 192.116 164.216 192.064L163.403 193.891ZM170.235 194.104C170.597 194.073 170.898 194.045 171.109 194.024C171.215 194.014 171.298 194.005 171.355 193.999C171.384 193.996 171.406 193.994 171.421 193.992C171.429 193.991 171.435 193.991 171.439 193.99C171.441 193.99 171.442 193.99 171.443 193.99C171.444 193.989 171.444 193.989 171.445 193.989C171.445 193.989 171.445 193.989 171.445 193.989C171.445 193.989 171.445 193.989 171.445 193.989C171.445 193.989 171.445 193.989 171.445 193.989C171.445 193.989 171.445 193.989 171.336 192.995C171.226 192.001 171.226 192.001 171.226 192.001C171.226 192.001 171.226 192.001 171.226 192.001C171.226 192.001 171.226 192.001 171.226 192.001C171.226 192.001 171.226 192.001 171.226 192.001C171.226 192.001 171.226 192.001 171.225 192.001C171.225 192.002 171.224 192.002 171.222 192.002C171.219 192.002 171.214 192.003 171.207 192.003C171.194 192.005 171.173 192.007 171.147 192.01C171.093 192.015 171.014 192.024 170.912 192.034C170.71 192.054 170.419 192.081 170.068 192.111L170.235 194.104ZM145.343 205.72C144.342 209.475 144.161 212.711 144.508 215.454L146.492 215.204C146.181 212.745 146.333 209.77 147.276 206.235L145.343 205.72ZM144.508 215.454C145.302 221.744 148.856 225.348 151.364 226.594L152.254 224.803C150.353 223.858 147.203 220.837 146.492 215.204L144.508 215.454ZM151.569 216.577C152.519 220.282 154.796 224.073 158.751 227.713L160.105 226.242C156.379 222.812 154.343 219.344 153.507 216.081L151.569 216.577ZM163.852 224.046C162.494 224.836 160.894 225.453 159.121 226.026L159.735 227.929C161.557 227.341 163.316 226.672 164.857 225.775L163.852 224.046ZM165.24 224.446C164.751 223.514 164.484 222.544 164.274 219.923L162.28 220.083C162.497 222.785 162.79 224.081 163.469 225.375L165.24 224.446ZM157.268 218.303C157.092 218.274 156.862 218.152 156.586 217.806C156.31 217.459 156.051 216.962 155.821 216.354C155.36 215.142 155.086 213.699 154.929 212.69L152.953 212.998C153.115 214.039 153.414 215.65 153.951 217.064C154.219 217.77 154.565 218.479 155.021 219.051C155.478 219.625 156.106 220.137 156.939 220.276L157.268 218.303ZM171.288 191.996C170.867 192.017 170.442 192.057 170.014 192.117L170.29 194.098C170.662 194.046 171.026 194.011 171.383 193.994L171.288 191.996ZM170.014 192.117C165.921 192.688 161.444 195.029 157.888 198.355C154.33 201.683 151.58 206.103 151.118 210.923L153.109 211.114C153.511 206.921 155.933 202.922 159.254 199.816C162.577 196.708 166.688 194.6 170.29 194.098L170.014 192.117ZM151.118 210.923C150.943 212.745 151.074 214.643 151.569 216.577L153.507 216.081C153.069 214.372 152.956 212.707 153.109 211.114L151.118 210.923ZM154.648 212.137L152.82 210.311L151.407 211.726L153.234 213.552L154.648 212.137ZM162.931 219.065C161.682 219.526 160.113 219.22 157.413 218.339L156.793 220.24C159.387 221.086 161.625 221.679 163.623 220.941L162.931 219.065Z" fill="black"/>
<path fill-rule="evenodd" clip-rule="evenodd" d="M138.062 190.873C126.794 188.354 113.7 185.4 105.93 183.513C106.277 183.126 107.855 182.276 108.62 182.037C116.464 183.903 128.315 186.644 138.498 188.921L139.715 189.193C144.958 190.365 149.781 191.443 153.472 192.283C155.459 192.735 155.054 192.537 156.277 192.829C155.504 193.068 154.805 193.452 153.455 194.114C149.769 193.275 144.522 192.317 139.278 191.145L138.062 190.873ZM132.275 194.435C121.94 192.124 110.249 189.536 102.38 187.66C102.793 186.82 103.377 186.026 103.537 185.85C111.37 187.708 122.69 190.243 132.712 192.483C133.119 192.574 133.525 192.665 133.928 192.755C139.171 193.927 143.995 195.006 147.685 195.845C148.748 196.087 149.717 196.309 150.577 196.508C150.392 196.672 149.345 197.712 148.962 198.189C148.422 198.064 147.847 197.933 147.242 197.795C143.555 196.957 138.735 195.879 133.49 194.707C133.088 194.617 132.683 194.526 132.275 194.435Z" fill="#CDA188"/>
</svg>
