<svg width="390" height="102" viewBox="0 0 390 102" fill="none" opacity="0.1" xmlns="http://www.w3.org/2000/svg">
  <path fill-rule="evenodd" clip-rule="evenodd" d="M-41.9036 27.748C-41.3849 31.8158 -38.0467 35.1541 -31.3702 41.8306C-24.6937 48.5071 -21.3554 51.8453 -17.2876 52.364C-16.2798 52.4925 -15.2598 52.4925 -14.252 52.364C-10.1842 51.8453 -6.84594 48.5071 -0.169445 41.8306C6.50706 35.1541 9.84531 31.8158 10.364 27.748C10.4925 26.7402 10.4925 25.7202 10.364 24.7124C9.84531 20.6446 6.50706 17.3063 -0.169445 10.6298C-6.84594 3.95331 -10.1842 0.615061 -14.252 0.0963781C-15.2598 -0.032126 -16.2798 -0.032126 -17.2876 0.0963781C-21.3554 0.61506 -24.6937 3.95331 -31.3702 10.6298L-31.3702 10.6298C-38.0467 17.3063 -41.3849 20.6446 -41.9036 24.7124C-42.0321 25.7202 -42.0321 26.7402 -41.9036 27.748ZM-9.86956 12.1492C-9.35503 11.6292 -9.0373 10.914 -9.0373 10.1247C-9.0373 8.53496 -10.326 7.24623 -11.9158 7.24623C-13.5044 7.24623 -14.7924 8.53308 -14.7943 10.1212C-15.0512 10.0906 -15.3149 10.0679 -15.5855 10.0535C-17.2152 9.96664 -18.6737 10.2012 -19.9388 10.6268C-20.3248 9.09803 -21.7092 7.96658 -23.3578 7.96658C-25.3053 7.96658 -26.884 9.54528 -26.884 11.4927C-26.884 12.8034 -26.1689 13.947 -25.1076 14.5548C-27.0197 17.858 -29.0212 21.9406 -26.0827 25.2375C-24.6613 26.8323 -22.672 27.5418 -20.4044 27.8489C-20.4275 27.9223 -20.4574 28.0105 -20.4932 28.1119C-20.5807 28.1325 -20.6688 28.1581 -20.7568 28.1887C-22.2642 28.7137 -27.152 32.751 -27.0144 36.3959C-26.9485 38.1428 -25.998 39.1062 -24.8315 39.5671C-24.8501 39.6813 -24.8599 39.7985 -24.8599 39.918C-24.8599 41.1103 -23.8933 42.0769 -22.701 42.0769C-22.4751 42.0769 -22.2573 42.0422 -22.0527 41.9778C-21.9069 43.713 -21.5216 45.5809 -20.539 45.6023C-18.318 45.6506 -17.5559 45.6341 -16.8156 45.618H-16.8155H-16.8153H-16.8152H-16.8151H-16.815H-16.815C-16.453 45.6101 -16.0961 45.6023 -15.5763 45.6023C-13.9932 45.6023 -13.9932 43.7796 -15.2165 43.2759C-14.8567 42.3404 -13.9932 41.2126 -13.9932 41.2126C-13.9932 42.8677 -13.5614 45.6023 -12.6259 45.6023H-8.09227C-6.86892 45.6023 -7.15676 43.5638 -8.09227 43.2995L-7.51657 39.0538C-7.51657 39.0538 -6.94897 38.398 -6.72499 37.741C-6.60089 37.2446 -6.57719 36.6907 -6.63315 36.1034C-6.86919 33.6256 -8.52276 30.5528 -10.0352 28.6912L-10.1507 27.9213L-10.1503 27.9212L-10.0347 28.6919C-8.52219 30.5534 -6.86863 33.6263 -6.63258 36.104C-6.57663 36.6914 -6.60032 37.2453 -6.72443 37.7417C-4.99734 37.7417 -4.04545 36.8236 -5.19683 33.9452C-5.75821 32.5417 -7.61174 29.3124 -9.40366 27.8198C-6.12441 27.294 -4.33767 25.8884 -3.99974 24.0861C-3.5824 21.8603 -4.91303 21.0912 -5.52235 20.739L-5.5829 20.7039C-6.09182 17.6504 -7.28483 14.2699 -9.86956 12.1492Z" fill="#E9BC19"/>
  <path fill-rule="evenodd" clip-rule="evenodd" d="M6.86615 76.518C7.38484 80.5858 10.7231 83.9241 17.3996 90.6006C24.0761 97.2771 27.4143 100.615 31.4821 101.134C32.4899 101.263 33.51 101.263 34.5178 101.134C38.5856 100.615 41.9238 97.2771 48.6003 90.6006C55.2768 83.9241 58.6151 80.5858 59.1338 76.518C59.2623 75.5102 59.2623 74.4902 59.1338 73.4824C58.6151 69.4146 55.2768 66.0763 48.6003 59.3998C41.9238 52.7233 38.5856 49.3851 34.5178 48.8664C33.51 48.7379 32.4899 48.7379 31.4821 48.8664C27.4143 49.3851 24.0761 52.7233 17.3996 59.3998L17.3996 59.3998C10.7231 66.0763 7.38484 69.4146 6.86615 73.4824C6.73765 74.4902 6.73765 75.5102 6.86615 76.518ZM38.9002 60.9192C39.4147 60.3992 39.7325 59.6841 39.7325 58.8947C39.7325 57.305 38.4437 56.0162 36.854 56.0162C35.2654 56.0162 33.9774 57.3031 33.9755 58.8912C33.7186 58.8606 33.4549 58.8379 33.1843 58.8235C31.5545 58.7367 30.0961 58.9712 28.831 59.3968C28.445 57.868 27.0606 56.7366 25.412 56.7366C23.4645 56.7366 21.8858 58.3153 21.8858 60.2627C21.8858 61.5734 22.6009 62.717 23.6622 63.3248C21.7501 66.628 19.7486 70.7106 22.6871 74.0075C24.1085 75.6023 26.0978 76.3118 28.3654 76.619C28.3422 76.6924 28.3123 76.7805 28.2765 76.8819C28.189 76.9025 28.101 76.9281 28.013 76.9587C26.5056 77.4837 21.6178 81.521 21.7554 85.1659C21.8213 86.9128 22.7718 87.8762 23.9383 88.3371C23.9196 88.4513 23.9099 88.5685 23.9099 88.688C23.9099 89.8803 24.8765 90.8469 26.0688 90.8469C26.2947 90.8469 26.5124 90.8122 26.7171 90.7478C26.8629 92.483 27.2482 94.351 28.2308 94.3723C30.4518 94.4207 31.2139 94.4041 31.9542 94.388H31.9543H31.9545H31.9546H31.9547H31.9548H31.9548C32.3168 94.3801 32.6737 94.3723 33.1935 94.3723C34.7766 94.3723 34.7766 92.5497 33.5533 92.046C33.9131 91.1104 34.7766 89.9826 34.7766 89.9826C34.7766 91.6377 35.2084 94.3723 36.1439 94.3723H40.6775C41.9009 94.3723 41.613 92.3338 40.6775 92.0695L41.2532 87.8238C41.2532 87.8238 41.8208 87.168 42.0448 86.511C42.1689 86.0146 42.1926 85.4607 42.1366 84.8734C41.9006 82.3956 40.247 79.3228 38.7345 77.4613L38.619 76.6913L38.6195 76.6913L38.7351 77.4619C40.2476 79.3235 41.9011 82.3963 42.1372 84.8741C42.1931 85.4614 42.1695 86.0153 42.0453 86.5117C43.7724 86.5117 44.7243 85.5936 43.5729 82.7152C43.0116 81.3117 41.158 78.0824 39.3661 76.5898C42.6454 76.064 44.4321 74.6584 44.77 72.8561C45.1874 70.6304 43.8567 69.8612 43.2474 69.509L43.1869 69.4739C42.678 66.4204 41.4849 63.0399 38.9002 60.9192Z" fill="#E9BC19"/>
  <path fill-rule="evenodd" clip-rule="evenodd" d="M98.0964 74.518C98.6151 78.5858 101.953 81.9241 108.63 88.6006C115.306 95.2771 118.645 98.6153 122.712 99.134C123.72 99.2625 124.74 99.2625 125.748 99.134C129.816 98.6153 133.154 95.2771 139.831 88.6006C146.507 81.9241 149.845 78.5858 150.364 74.518C150.492 73.5102 150.492 72.4902 150.364 71.4824C149.845 67.4146 146.507 64.0763 139.831 57.3998C133.154 50.7233 129.816 47.3851 125.748 46.8664C124.74 46.7379 123.72 46.7379 122.712 46.8664C118.645 47.3851 115.306 50.7233 108.63 57.3998L108.63 57.3998C101.953 64.0763 98.6151 67.4146 98.0964 71.4824C97.9679 72.4902 97.9679 73.5102 98.0964 74.518ZM130.13 58.9192C130.645 58.3992 130.963 57.6841 130.963 56.8947C130.963 55.305 129.674 54.0162 128.084 54.0162C126.496 54.0162 125.208 55.3031 125.206 56.8912C124.949 56.8606 124.685 56.8379 124.415 56.8235C122.785 56.7367 121.326 56.9712 120.061 57.3968C119.675 55.868 118.291 54.7366 116.642 54.7366C114.695 54.7366 113.116 56.3153 113.116 58.2627C113.116 59.5734 113.831 60.717 114.892 61.3248C112.98 64.628 110.979 68.7106 113.917 72.0075C115.339 73.6023 117.328 74.3118 119.596 74.619C119.572 74.6924 119.543 74.7805 119.507 74.8819C119.419 74.9025 119.331 74.9281 119.243 74.9587C117.736 75.4837 112.848 79.521 112.986 83.1659C113.052 84.9128 114.002 85.8762 115.169 86.3371C115.15 86.4513 115.14 86.5685 115.14 86.688C115.14 87.8803 116.107 88.8469 117.299 88.8469C117.525 88.8469 117.743 88.8122 117.947 88.7478C118.093 90.483 118.478 92.351 119.461 92.3723C121.682 92.4207 122.444 92.4041 123.184 92.388H123.184H123.185H123.185H123.185H123.185H123.185C123.547 92.3801 123.904 92.3723 124.424 92.3723C126.007 92.3723 126.007 90.5497 124.783 90.046C125.143 89.1104 126.007 87.9826 126.007 87.9826C126.007 89.6377 126.439 92.3723 127.374 92.3723H131.908C133.131 92.3723 132.843 90.3338 131.908 90.0695L132.483 85.8238C132.483 85.8238 133.051 85.168 133.275 84.511C133.399 84.0146 133.423 83.4607 133.367 82.8734C133.131 80.3956 131.477 77.3228 129.965 75.4613L129.849 74.6913L129.85 74.6913L129.965 75.4619C131.478 77.3235 133.131 80.3963 133.367 82.8741C133.423 83.4614 133.4 84.0153 133.276 84.5117C135.003 84.5117 135.955 83.5936 134.803 80.7152C134.242 79.3117 132.388 76.0824 130.596 74.5898C133.876 74.064 135.662 72.6584 136 70.8561C136.418 68.6304 135.087 67.8612 134.478 67.509L134.417 67.4739C133.908 64.4204 132.715 61.0399 130.13 58.9192Z" fill="#E9BC19"/>
  <path fill-rule="evenodd" clip-rule="evenodd" d="M193.327 76.518C193.845 80.5858 197.184 83.9241 203.86 90.6006C210.537 97.2771 213.875 100.615 217.943 101.134C218.95 101.263 219.97 101.263 220.978 101.134C225.046 100.615 228.384 97.2771 235.061 90.6006C241.737 83.9241 245.076 80.5858 245.594 76.518C245.723 75.5102 245.723 74.4902 245.594 73.4824C245.076 69.4146 241.737 66.0763 235.061 59.3998C228.384 52.7233 225.046 49.3851 220.978 48.8664C219.97 48.7379 218.95 48.7379 217.943 48.8664C213.875 49.3851 210.537 52.7233 203.86 59.3998L203.86 59.3998C197.184 66.0763 193.845 69.4146 193.327 73.4824C193.198 74.4902 193.198 75.5102 193.327 76.518ZM225.361 60.9192C225.875 60.3992 226.193 59.6841 226.193 58.8947C226.193 57.305 224.904 56.0162 223.314 56.0162C221.726 56.0162 220.438 57.3031 220.436 58.8912C220.179 58.8606 219.915 58.8379 219.645 58.8235C218.015 58.7367 216.557 58.9712 215.291 59.3968C214.905 57.868 213.521 56.7366 211.872 56.7366C209.925 56.7366 208.346 58.3153 208.346 60.2627C208.346 61.5734 209.061 62.717 210.123 63.3248C208.211 66.628 206.209 70.7106 209.148 74.0075C210.569 75.6023 212.558 76.3118 214.826 76.619C214.803 76.6924 214.773 76.7805 214.737 76.8819C214.649 76.9025 214.561 76.9281 214.473 76.9587C212.966 77.4837 208.078 81.521 208.216 85.1659C208.282 86.9128 209.232 87.8762 210.399 88.3371C210.38 88.4513 210.37 88.5685 210.37 88.688C210.37 89.8803 211.337 90.8469 212.529 90.8469C212.755 90.8469 212.973 90.8122 213.178 90.7478C213.323 92.483 213.709 94.351 214.691 94.3723C216.912 94.4207 217.674 94.4041 218.415 94.388H218.415H218.415H218.415H218.415H218.415H218.415C218.777 94.3801 219.134 94.3723 219.654 94.3723C221.237 94.3723 221.237 92.5497 220.014 92.046C220.374 91.1104 221.237 89.9826 221.237 89.9826C221.237 91.6377 221.669 94.3723 222.604 94.3723H227.138C228.361 94.3723 228.073 92.3338 227.138 92.0695L227.714 87.8238C227.714 87.8238 228.281 87.168 228.505 86.511C228.629 86.0146 228.653 85.4607 228.597 84.8734C228.361 82.3956 226.707 79.3228 225.195 77.4613L225.079 76.6913L225.08 76.6913L225.196 77.4619C226.708 79.3235 228.362 82.3963 228.598 84.8741C228.654 85.4614 228.63 86.0153 228.506 86.5117C230.233 86.5117 231.185 85.5936 230.033 82.7152C229.472 81.3117 227.618 78.0824 225.827 76.5898C229.106 76.064 230.893 74.6584 231.23 72.8561C231.648 70.6304 230.317 69.8612 229.708 69.509L229.647 69.4739C229.138 66.4204 227.945 63.0399 225.361 60.9192Z" fill="#E9BC19"/>
  <path fill-rule="evenodd" clip-rule="evenodd" d="M286.096 76.518C286.615 80.5858 289.953 83.9241 296.63 90.6006C303.306 97.2771 306.645 100.615 310.712 101.134C311.72 101.263 312.74 101.263 313.748 101.134C317.816 100.615 321.154 97.2771 327.831 90.6006C334.507 83.9241 337.845 80.5858 338.364 76.518C338.492 75.5102 338.492 74.4902 338.364 73.4824C337.845 69.4146 334.507 66.0763 327.831 59.3998C321.154 52.7233 317.816 49.3851 313.748 48.8664C312.74 48.7379 311.72 48.7379 310.712 48.8664C306.645 49.3851 303.306 52.7233 296.63 59.3998L296.63 59.3998C289.953 66.0763 286.615 69.4146 286.096 73.4824C285.968 74.4902 285.968 75.5102 286.096 76.518ZM318.13 60.9192C318.645 60.3992 318.963 59.6841 318.963 58.8947C318.963 57.305 317.674 56.0162 316.084 56.0162C314.496 56.0162 313.208 57.3031 313.206 58.8912C312.949 58.8606 312.685 58.8379 312.415 58.8235C310.785 58.7367 309.326 58.9712 308.061 59.3968C307.675 57.868 306.291 56.7366 304.642 56.7366C302.695 56.7366 301.116 58.3153 301.116 60.2627C301.116 61.5734 301.831 62.717 302.892 63.3248C300.98 66.628 298.979 70.7106 301.917 74.0075C303.339 75.6023 305.328 76.3118 307.596 76.619C307.572 76.6924 307.543 76.7805 307.507 76.8819C307.419 76.9025 307.331 76.9281 307.243 76.9587C305.736 77.4837 300.848 81.521 300.986 85.1659C301.052 86.9128 302.002 87.8762 303.169 88.3371C303.15 88.4513 303.14 88.5685 303.14 88.688C303.14 89.8803 304.107 90.8469 305.299 90.8469C305.525 90.8469 305.743 90.8122 305.947 90.7478C306.093 92.483 306.478 94.351 307.461 94.3723C309.682 94.4207 310.444 94.4041 311.184 94.388H311.184H311.185H311.185H311.185H311.185H311.185C311.547 94.3801 311.904 94.3723 312.424 94.3723C314.007 94.3723 314.007 92.5497 312.783 92.046C313.143 91.1104 314.007 89.9826 314.007 89.9826C314.007 91.6377 314.439 94.3723 315.374 94.3723H319.908C321.131 94.3723 320.843 92.3338 319.908 92.0695L320.483 87.8238C320.483 87.8238 321.051 87.168 321.275 86.511C321.399 86.0146 321.423 85.4607 321.367 84.8734C321.131 82.3956 319.477 79.3228 317.965 77.4613L317.849 76.6913L317.85 76.6913L317.965 77.4619C319.478 79.3235 321.131 82.3963 321.367 84.8741C321.423 85.4614 321.4 86.0153 321.276 86.5117C323.003 86.5117 323.955 85.5936 322.803 82.7152C322.242 81.3117 320.388 78.0824 318.596 76.5898C321.876 76.064 323.662 74.6584 324 72.8561C324.418 70.6304 323.087 69.8612 322.478 69.509L322.417 69.4739C321.908 66.4204 320.715 63.0399 318.13 60.9192Z" fill="#E9BC19"/>
  <path fill-rule="evenodd" clip-rule="evenodd" d="M380.096 76.518C380.615 80.5858 383.953 83.9241 390.63 90.6006C397.306 97.2771 400.645 100.615 404.712 101.134C405.72 101.263 406.74 101.263 407.748 101.134C411.816 100.615 415.154 97.2771 421.831 90.6006C428.507 83.9241 431.845 80.5858 432.364 76.518C432.492 75.5102 432.492 74.4902 432.364 73.4824C431.845 69.4146 428.507 66.0763 421.831 59.3998C415.154 52.7233 411.816 49.3851 407.748 48.8664C406.74 48.7379 405.72 48.7379 404.712 48.8664C400.645 49.3851 397.306 52.7233 390.63 59.3998L390.63 59.3998C383.953 66.0763 380.615 69.4146 380.096 73.4824C379.968 74.4902 379.968 75.5102 380.096 76.518ZM412.13 60.9192C412.645 60.3992 412.963 59.6841 412.963 58.8947C412.963 57.305 411.674 56.0162 410.084 56.0162C408.496 56.0162 407.208 57.3031 407.206 58.8912C406.949 58.8606 406.685 58.8379 406.415 58.8235C404.785 58.7367 403.326 58.9712 402.061 59.3968C401.675 57.868 400.291 56.7366 398.642 56.7366C396.695 56.7366 395.116 58.3153 395.116 60.2627C395.116 61.5734 395.831 62.717 396.892 63.3248C394.98 66.628 392.979 70.7106 395.917 74.0075C397.339 75.6023 399.328 76.3118 401.596 76.619C401.572 76.6924 401.543 76.7805 401.507 76.8819C401.419 76.9025 401.331 76.9281 401.243 76.9587C399.736 77.4837 394.848 81.521 394.986 85.1659C395.052 86.9128 396.002 87.8762 397.169 88.3371C397.15 88.4513 397.14 88.5685 397.14 88.688C397.14 89.8803 398.107 90.8469 399.299 90.8469C399.525 90.8469 399.743 90.8122 399.947 90.7478C400.093 92.483 400.478 94.351 401.461 94.3723C403.682 94.4207 404.444 94.4041 405.184 94.388H405.184H405.185H405.185H405.185H405.185H405.185C405.547 94.3801 405.904 94.3723 406.424 94.3723C408.007 94.3723 408.007 92.5497 406.783 92.046C407.143 91.1104 408.007 89.9826 408.007 89.9826C408.007 91.6377 408.439 94.3723 409.374 94.3723H413.908C415.131 94.3723 414.843 92.3338 413.908 92.0695L414.483 87.8238C414.483 87.8238 415.051 87.168 415.275 86.511C415.399 86.0146 415.423 85.4607 415.367 84.8734C415.131 82.3956 413.477 79.3228 411.965 77.4613L411.849 76.6913L411.85 76.6913L411.965 77.4619C413.478 79.3235 415.131 82.3963 415.367 84.8741C415.423 85.4614 415.4 86.0153 415.276 86.5117C417.003 86.5117 417.955 85.5936 416.803 82.7152C416.242 81.3117 414.388 78.0824 412.596 76.5898C415.876 76.064 417.662 74.6584 418 72.8561C418.418 70.6304 417.087 69.8612 416.478 69.509L416.417 69.4739C415.908 66.4204 414.715 63.0399 412.13 60.9192Z" fill="#E9BC19"/>
  <path fill-rule="evenodd" clip-rule="evenodd" d="M51.0964 27.748C51.6151 31.8158 54.9533 35.1541 61.6298 41.8306C68.3063 48.5071 71.6446 51.8453 75.7124 52.364C76.7202 52.4925 77.7402 52.4925 78.748 52.364C82.8158 51.8453 86.1541 48.5071 92.8306 41.8306C99.5071 35.1541 102.845 31.8158 103.364 27.748C103.492 26.7402 103.492 25.7202 103.364 24.7124C102.845 20.6446 99.5071 17.3063 92.8306 10.6298C86.1541 3.95331 82.8158 0.615061 78.748 0.0963781C77.7402 -0.032126 76.7202 -0.032126 75.7124 0.0963781C71.6446 0.61506 68.3063 3.95331 61.6298 10.6298L61.6298 10.6298C54.9533 17.3063 51.6151 20.6446 51.0964 24.7124C50.9679 25.7202 50.9679 26.7402 51.0964 27.748ZM83.1304 12.1492C83.645 11.6292 83.9627 10.914 83.9627 10.1247C83.9627 8.53496 82.674 7.24623 81.0842 7.24623C79.4956 7.24623 78.2076 8.53308 78.2057 10.1212C77.9488 10.0906 77.6851 10.0679 77.4145 10.0535C75.7848 9.96664 74.3263 10.2012 73.0612 10.6268C72.6752 9.09803 71.2908 7.96658 69.6422 7.96658C67.6947 7.96658 66.116 9.54528 66.116 11.4927C66.116 12.8034 66.8311 13.947 67.8924 14.5548C65.9803 17.858 63.9788 21.9406 66.9173 25.2375C68.3387 26.8323 70.328 27.5418 72.5956 27.8489C72.5725 27.9223 72.5426 28.0105 72.5068 28.1119C72.4193 28.1325 72.3312 28.1581 72.2432 28.1887C70.7358 28.7137 65.848 32.751 65.9856 36.3959C66.0515 38.1428 67.002 39.1062 68.1685 39.5671C68.1499 39.6813 68.1401 39.7985 68.1401 39.918C68.1401 41.1103 69.1067 42.0769 70.299 42.0769C70.5249 42.0769 70.7427 42.0422 70.9473 41.9778C71.0931 43.713 71.4784 45.5809 72.461 45.6023C74.682 45.6506 75.4441 45.6341 76.1844 45.618H76.1845H76.1847H76.1848H76.1849H76.185H76.185C76.547 45.6101 76.9039 45.6023 77.4237 45.6023C79.0068 45.6023 79.0068 43.7796 77.7835 43.2759C78.1433 42.3404 79.0068 41.2126 79.0068 41.2126C79.0068 42.8677 79.4386 45.6023 80.3741 45.6023H84.9077C86.1311 45.6023 85.8432 43.5638 84.9077 43.2995L85.4834 39.0538C85.4834 39.0538 86.051 38.398 86.275 37.741C86.3991 37.2446 86.4228 36.6907 86.3669 36.1034C86.1308 33.6256 84.4772 30.5528 82.9648 28.6912L82.8493 27.9213L82.8497 27.9212L82.9653 28.6919C84.4778 30.5534 86.1314 33.6263 86.3674 36.104C86.4234 36.6914 86.3997 37.2453 86.2756 37.7417C88.0027 37.7417 88.9545 36.8236 87.8032 33.9452C87.2418 32.5417 85.3883 29.3124 83.5963 27.8198C86.8756 27.294 88.6623 25.8884 89.0003 24.0861C89.4176 21.8603 88.087 21.0912 87.4777 20.739L87.4171 20.7039C86.9082 17.6504 85.7152 14.2699 83.1304 12.1492Z" fill="#E9BC19"/>
  <path fill-rule="evenodd" clip-rule="evenodd" d="M144.096 27.748C144.615 31.8158 147.953 35.1541 154.63 41.8306C161.306 48.5071 164.645 51.8453 168.712 52.364C169.72 52.4925 170.74 52.4925 171.748 52.364C175.816 51.8453 179.154 48.5071 185.831 41.8306C192.507 35.1541 195.845 31.8158 196.364 27.748C196.492 26.7402 196.492 25.7202 196.364 24.7124C195.845 20.6446 192.507 17.3063 185.831 10.6298C179.154 3.95331 175.816 0.615061 171.748 0.0963781C170.74 -0.032126 169.72 -0.032126 168.712 0.0963781C164.645 0.61506 161.306 3.95331 154.63 10.6298L154.63 10.6298C147.953 17.3063 144.615 20.6446 144.096 24.7124C143.968 25.7202 143.968 26.7402 144.096 27.748ZM176.13 12.1492C176.645 11.6292 176.963 10.914 176.963 10.1247C176.963 8.53496 175.674 7.24623 174.084 7.24623C172.496 7.24623 171.208 8.53308 171.206 10.1212C170.949 10.0906 170.685 10.0679 170.415 10.0535C168.785 9.96664 167.326 10.2012 166.061 10.6268C165.675 9.09803 164.291 7.96658 162.642 7.96658C160.695 7.96658 159.116 9.54528 159.116 11.4927C159.116 12.8034 159.831 13.947 160.892 14.5548C158.98 17.858 156.979 21.9406 159.917 25.2375C161.339 26.8323 163.328 27.5418 165.596 27.8489C165.572 27.9223 165.543 28.0105 165.507 28.1119C165.419 28.1325 165.331 28.1581 165.243 28.1887C163.736 28.7137 158.848 32.751 158.986 36.3959C159.052 38.1428 160.002 39.1062 161.169 39.5671C161.15 39.6813 161.14 39.7985 161.14 39.918C161.14 41.1103 162.107 42.0769 163.299 42.0769C163.525 42.0769 163.743 42.0422 163.947 41.9778C164.093 43.713 164.478 45.5809 165.461 45.6023C167.682 45.6506 168.444 45.6341 169.184 45.618H169.184H169.185H169.185H169.185H169.185H169.185C169.547 45.6101 169.904 45.6023 170.424 45.6023C172.007 45.6023 172.007 43.7796 170.783 43.2759C171.143 42.3404 172.007 41.2126 172.007 41.2126C172.007 42.8677 172.439 45.6023 173.374 45.6023H177.908C179.131 45.6023 178.843 43.5638 177.908 43.2995L178.483 39.0538C178.483 39.0538 179.051 38.398 179.275 37.741C179.399 37.2446 179.423 36.6907 179.367 36.1034C179.131 33.6256 177.477 30.5528 175.965 28.6912L175.849 27.9213L175.85 27.9212L175.965 28.6919C177.478 30.5534 179.131 33.6263 179.367 36.104C179.423 36.6914 179.4 37.2453 179.276 37.7417C181.003 37.7417 181.955 36.8236 180.803 33.9452C180.242 32.5417 178.388 29.3124 176.596 27.8198C179.876 27.294 181.662 25.8884 182 24.0861C182.418 21.8603 181.087 21.0912 180.478 20.739L180.417 20.7039C179.908 17.6504 178.715 14.2699 176.13 12.1492Z" fill="#E9BC19"/>
  <path fill-rule="evenodd" clip-rule="evenodd" d="M237.096 27.748C237.615 31.8158 240.953 35.1541 247.63 41.8306C254.306 48.5071 257.645 51.8453 261.712 52.364C262.72 52.4925 263.74 52.4925 264.748 52.364C268.816 51.8453 272.154 48.5071 278.831 41.8306C285.507 35.1541 288.845 31.8158 289.364 27.748C289.492 26.7402 289.492 25.7202 289.364 24.7124C288.845 20.6446 285.507 17.3063 278.831 10.6298C272.154 3.95331 268.816 0.615061 264.748 0.0963781C263.74 -0.032126 262.72 -0.032126 261.712 0.0963781C257.645 0.61506 254.306 3.95331 247.63 10.6298L247.63 10.6298C240.953 17.3063 237.615 20.6446 237.096 24.7124C236.968 25.7202 236.968 26.7402 237.096 27.748ZM269.13 12.1492C269.645 11.6292 269.963 10.914 269.963 10.1247C269.963 8.53496 268.674 7.24623 267.084 7.24623C265.496 7.24623 264.208 8.53308 264.206 10.1212C263.949 10.0906 263.685 10.0679 263.415 10.0535C261.785 9.96664 260.326 10.2012 259.061 10.6268C258.675 9.09803 257.291 7.96658 255.642 7.96658C253.695 7.96658 252.116 9.54528 252.116 11.4927C252.116 12.8034 252.831 13.947 253.892 14.5548C251.98 17.858 249.979 21.9406 252.917 25.2375C254.339 26.8323 256.328 27.5418 258.596 27.8489C258.572 27.9223 258.543 28.0105 258.507 28.1119C258.419 28.1325 258.331 28.1581 258.243 28.1887C256.736 28.7137 251.848 32.751 251.986 36.3959C252.052 38.1428 253.002 39.1062 254.169 39.5671C254.15 39.6813 254.14 39.7985 254.14 39.918C254.14 41.1103 255.107 42.0769 256.299 42.0769C256.525 42.0769 256.743 42.0422 256.947 41.9778C257.093 43.713 257.478 45.5809 258.461 45.6023C260.682 45.6506 261.444 45.6341 262.184 45.618H262.184H262.185H262.185H262.185H262.185H262.185C262.547 45.6101 262.904 45.6023 263.424 45.6023C265.007 45.6023 265.007 43.7796 263.783 43.2759C264.143 42.3404 265.007 41.2126 265.007 41.2126C265.007 42.8677 265.439 45.6023 266.374 45.6023H270.908C272.131 45.6023 271.843 43.5638 270.908 43.2995L271.483 39.0538C271.483 39.0538 272.051 38.398 272.275 37.741C272.399 37.2446 272.423 36.6907 272.367 36.1034C272.131 33.6256 270.477 30.5528 268.965 28.6912L268.849 27.9213L268.85 27.9212L268.965 28.6919C270.478 30.5534 272.131 33.6263 272.367 36.104C272.423 36.6914 272.4 37.2453 272.276 37.7417C274.003 37.7417 274.955 36.8236 273.803 33.9452C273.242 32.5417 271.388 29.3124 269.596 27.8198C272.876 27.294 274.662 25.8884 275 24.0861C275.418 21.8603 274.087 21.0912 273.478 20.739L273.417 20.7039C272.908 17.6504 271.715 14.2699 269.13 12.1492Z" fill="#E9BC19"/>
  <path fill-rule="evenodd" clip-rule="evenodd" d="M330.096 27.748C330.615 31.8158 333.953 35.1541 340.63 41.8306C347.306 48.5071 350.645 51.8453 354.712 52.364C355.72 52.4925 356.74 52.4925 357.748 52.364C361.816 51.8453 365.154 48.5071 371.831 41.8306C378.507 35.1541 381.845 31.8158 382.364 27.748C382.492 26.7402 382.492 25.7202 382.364 24.7124C381.845 20.6446 378.507 17.3063 371.831 10.6298C365.154 3.95331 361.816 0.615061 357.748 0.0963781C356.74 -0.032126 355.72 -0.032126 354.712 0.0963781C350.645 0.61506 347.306 3.95331 340.63 10.6298L340.63 10.6298C333.953 17.3063 330.615 20.6446 330.096 24.7124C329.968 25.7202 329.968 26.7402 330.096 27.748ZM362.13 12.1492C362.645 11.6292 362.963 10.914 362.963 10.1247C362.963 8.53496 361.674 7.24623 360.084 7.24623C358.496 7.24623 357.208 8.53308 357.206 10.1212C356.949 10.0906 356.685 10.0679 356.415 10.0535C354.785 9.96664 353.326 10.2012 352.061 10.6268C351.675 9.09803 350.291 7.96658 348.642 7.96658C346.695 7.96658 345.116 9.54528 345.116 11.4927C345.116 12.8034 345.831 13.947 346.892 14.5548C344.98 17.858 342.979 21.9406 345.917 25.2375C347.339 26.8323 349.328 27.5418 351.596 27.8489C351.572 27.9223 351.543 28.0105 351.507 28.1119C351.419 28.1325 351.331 28.1581 351.243 28.1887C349.736 28.7137 344.848 32.751 344.986 36.3959C345.052 38.1428 346.002 39.1062 347.169 39.5671C347.15 39.6813 347.14 39.7985 347.14 39.918C347.14 41.1103 348.107 42.0769 349.299 42.0769C349.525 42.0769 349.743 42.0422 349.947 41.9778C350.093 43.713 350.478 45.5809 351.461 45.6023C353.682 45.6506 354.444 45.6341 355.184 45.618H355.184H355.185H355.185H355.185H355.185H355.185C355.547 45.6101 355.904 45.6023 356.424 45.6023C358.007 45.6023 358.007 43.7796 356.783 43.2759C357.143 42.3404 358.007 41.2126 358.007 41.2126C358.007 42.8677 358.439 45.6023 359.374 45.6023H363.908C365.131 45.6023 364.843 43.5638 363.908 43.2995L364.483 39.0538C364.483 39.0538 365.051 38.398 365.275 37.741C365.399 37.2446 365.423 36.6907 365.367 36.1034C365.131 33.6256 363.477 30.5528 361.965 28.6912L361.849 27.9213L361.85 27.9212L361.965 28.6919C363.478 30.5534 365.131 33.6263 365.367 36.104C365.423 36.6914 365.4 37.2453 365.276 37.7417C367.003 37.7417 367.955 36.8236 366.803 33.9452C366.242 32.5417 364.388 29.3124 362.596 27.8198C365.876 27.294 367.662 25.8884 368 24.0861C368.418 21.8603 367.087 21.0912 366.478 20.739L366.417 20.7039C365.908 17.6504 364.715 14.2699 362.13 12.1492Z" fill="#E9BC19"/>
</svg>
