<svg width="177" height="121" viewBox="0 0 177 121" fill="none" xmlns="http://www.w3.org/2000/svg">
  <g filter="url(#filter0_d_662_10623)">
    <path d="M95.7083 105.825C16.276 115.389 5.11434 97.4616 2.31427 83.6349C2.01027 83.0082 1.96102 82.4316 2.02397 82.054C2.76878 82.494 3.52962 82.934 4.35435 83.3631C5.32689 83.8691 6.38828 84.36 7.61699 84.8179C8.82775 85.2691 10.201 85.6882 11.8118 86.0582C13.0566 86.3441 14.4434 86.6007 16.0066 86.82C17.2813 86.9989 18.6733 87.1529 20.2015 87.278C21.363 87.373 22.6031 87.4513 23.9302 87.511C25.904 87.5996 28.0701 87.6471 30.4555 87.6471C31.1344 88.6654 32.4466 89.5291 34.1842 90.2497C35.2763 90.7026 36.5365 91.0989 37.913 91.4414C39.3583 91.8011 40.9319 92.1014 42.5738 92.3457C43.9364 92.5483 45.3461 92.7124 46.7687 92.8397C48.3217 92.9787 49.8902 93.0739 51.4296 93.1276C53.1996 93.1894 54.9311 93.1964 56.5566 93.1524C59.7985 93.0645 62.6186 92.7734 64.4802 92.308C65.1943 93.2006 66.5077 93.8853 68.2169 94.403C69.7947 94.8808 71.7098 95.2164 73.8019 95.4418C75.4289 95.6171 77.1631 95.7258 78.929 95.7829C80.6309 95.838 82.3624 95.8452 84.056 95.8182C85.6629 95.7925 87.2357 95.7359 88.7169 95.66C91.4977 95.5175 93.9553 95.3068 95.7083 95.1045C96.1166 95.2876 96.9522 95.5313 98.0602 95.7829C99.3276 96.0707 100.951 96.3689 102.7 96.5984C104.059 96.7769 105.494 96.9139 106.894 96.9723C108.389 97.0347 109.845 97.0076 111.131 96.846C113.029 96.6073 114.556 96.0752 115.284 95.1045C116.74 95.3693 118.432 95.609 120.34 95.8182C121.795 95.9778 123.375 96.1196 125.072 96.2414C126.817 96.3666 128.684 96.4706 130.665 96.5508C132.582 96.6284 134.604 96.6837 136.724 96.7144C138.521 96.7405 140.387 96.7488 142.317 96.7381C144.127 96.728 145.993 96.7012 147.91 96.6565C151.184 96.5801 154.609 96.4516 158.164 96.265C160.145 96.161 162.166 96.0391 164.224 95.8981C167.404 95.6802 170.671 95.4169 174.012 95.1045C173.903 95.8653 173.262 96.3727 172.219 96.7212C159.174 108.47 148.77 116.666 95.7083 105.825Z" fill="#850011"/>
    <path d="M2.02397 82.054C4.35442 96.0367 13.2101 115.758 95.7083 105.825M2.02397 82.054C1.8686 82.9862 2.39677 85.1302 5.75262 86.2488M2.02397 82.054C2.76878 82.494 3.52962 82.934 4.35435 83.3631M95.7083 105.825C151.173 117.156 160.029 107.689 174.012 95.1045M95.7083 105.825C94.6822 102.733 94.7738 99.6264 95.1332 97.435M174.012 95.1045C170.671 95.4169 167.404 95.6802 164.224 95.8981M174.012 95.1045C173.774 96.7686 170.99 97.2202 167.02 97.4488M95.7083 95.1045C95.5143 95.6353 95.2962 96.441 95.1332 97.435M95.7083 95.1045C93.9553 95.3068 91.4977 95.5175 88.7169 95.66M95.7083 95.1045C96.1166 95.2876 96.9522 95.5313 98.0602 95.7829M64.4802 92.308C65.0376 89.6668 65.692 85.2234 70.5394 84.8505M64.4802 92.308C62.6186 92.7734 59.7985 93.0645 56.5566 93.1524M64.4802 92.308C65.1943 93.2006 66.5077 93.8853 68.2169 94.403M30.4555 87.6471C31.2324 85.863 34.5571 81.5879 37.913 81.5879M30.4555 87.6471C28.0701 87.6471 25.904 87.5996 23.9302 87.511M30.4555 87.6471C31.1344 88.6654 32.4467 89.5291 34.1842 90.2497M115.284 95.1045C115.284 93.1676 115.657 91.2826 113.42 89.0454M115.284 95.1045C114.556 96.0752 113.029 96.6073 111.131 96.846M115.284 95.1045C116.74 95.3693 118.432 95.609 120.34 95.8182M5.75262 86.2488C4.97581 85.5679 3.6086 84.0375 4.35435 83.3631M5.75262 86.2488C6.74498 86.5796 7.99817 86.9886 9.48135 87.408M95.1332 97.435C94.0552 97.5948 93.0039 97.7309 91.9795 97.8452M95.7083 97.435C96.8078 97.8931 98.3936 98.4134 100.275 98.8333M4.35435 83.3631C5.32689 83.8691 6.38828 84.36 7.61699 84.8179M7.61699 84.8179C7.77235 85.4462 8.36274 86.8439 9.48135 87.408M7.61699 84.8179C8.82776 85.2691 10.201 85.6882 11.8118 86.0582M9.48135 87.408C10.5982 87.7239 11.8455 88.0456 13.2101 88.3442M11.8118 86.0582C11.8118 86.5865 12.0915 87.7833 13.2101 88.3442M11.8118 86.0582C13.0566 86.3441 14.4434 86.6007 16.0066 86.82M13.2101 88.3442C14.3844 88.6012 15.6456 88.8411 16.9852 89.0454M16.0066 86.82C15.8822 87.4064 15.9036 88.6725 16.9852 89.0454M16.0066 86.82C17.2813 86.9989 18.6733 87.1529 20.2015 87.278M16.9852 89.0454C18.2431 89.2372 19.5702 89.3977 20.9595 89.5115M20.2015 87.278C20.0853 87.7118 20.0744 88.7657 20.9595 89.5115M20.2015 87.278C21.363 87.373 22.6031 87.4513 23.9302 87.511M20.9595 89.5115C22.3553 89.6258 23.814 89.693 25.3285 89.6976M23.9302 87.511C23.6195 88.1465 23.4641 89.4736 25.3285 89.6976M25.3285 89.6976C26.8296 89.7021 28.3855 89.6451 29.9894 89.5115C30.9018 90.6673 33.0005 92.147 36.5146 93.3183M34.1842 90.2497C34.4949 91.1301 35.396 92.9764 36.5146 93.3183M34.1842 90.2497C35.2763 90.7026 36.5365 91.0989 37.913 91.4414M36.5146 93.3183C37.7381 93.7262 39.1332 94.0966 40.7095 94.403M37.913 91.4414C38.0683 92.0394 38.8451 93.4688 40.7095 94.403M37.913 91.4414C39.3583 91.8011 40.9319 92.1014 42.5738 92.3457M40.7095 94.403C42.2438 94.7012 43.9498 94.9387 45.8365 95.0909M42.5738 92.3457C42.5738 92.9455 43.2264 94.3343 45.8365 95.0909M42.5738 92.3457C43.9364 92.5483 45.3461 92.7124 46.7687 92.8397M45.8365 95.0909C47.2826 95.2076 48.8349 95.2742 50.4974 95.2795M46.7687 92.8397C47.2347 93.6635 48.633 95.3047 50.4974 95.2795M46.7687 92.8397C48.3217 92.9787 49.8902 93.0739 51.4296 93.1276M50.4974 95.2795C51.8247 95.2838 53.2223 95.2491 54.6922 95.1697M51.4296 93.1276C51.4296 93.5193 52.0821 94.4761 54.6922 95.1697M51.4296 93.1276C53.1996 93.1894 54.9311 93.1964 56.5566 93.1524M54.6922 95.1697C56.1719 95.0898 57.7248 94.9647 59.3531 94.7885M56.5566 93.1524C57.0227 93.597 58.2345 94.5466 59.3531 94.7885M59.3531 94.7885C60.8431 94.6273 62.3962 94.4234 64.014 94.1724C65.1508 94.9871 67.3311 96.0155 70.5394 96.846M68.2169 94.403C68.3697 94.8656 69.0479 96.0019 70.5394 96.846M68.2169 94.403C69.7947 94.8808 71.7098 95.2164 73.8019 95.4418M70.5394 96.846C72.1624 97.2661 74.0484 97.6356 76.1955 97.9011M73.8019 95.4418C73.844 95.9508 74.3816 97.1553 76.1955 97.9011M73.8019 95.4418C75.4289 95.6171 77.1631 95.7258 78.929 95.7829M76.1955 97.9011C77.8787 98.1093 79.7224 98.2536 81.7255 98.3083M78.929 95.7829C79.2397 96.4497 80.234 97.8883 81.7255 98.3083M78.929 95.7829C80.6309 95.838 82.3624 95.8452 84.056 95.8182M81.7255 98.3083C83.3321 98.3522 85.0413 98.3385 86.8525 98.254M84.056 95.8182C84.2113 96.437 84.9881 97.7906 86.8525 98.254M84.056 95.8182C85.6629 95.7925 87.2357 95.7359 88.7169 95.66M86.8525 98.254C88.4793 98.1781 90.1884 98.045 91.9795 97.8452M88.7169 95.66C89.3383 96.3697 90.8609 97.8004 91.9795 97.8452M98.0602 95.7829C98.3007 96.7001 99.0802 98.5942 100.275 98.8333M98.0602 95.7829C99.3276 96.0707 100.951 96.3689 102.7 96.5984M100.275 98.8333C101.583 99.1254 103.034 99.3689 104.564 99.5091M102.7 96.5984C102.544 97.5267 102.7 99.4085 104.564 99.5091M102.7 96.5984C104.059 96.7769 105.494 96.9139 106.894 96.9723M104.564 99.5091C106.295 99.6678 108.126 99.6942 109.965 99.5091M106.894 96.9723C107.077 97.7325 107.947 99.304 109.965 99.5091M106.894 96.9723C108.389 97.0347 109.845 97.0076 111.131 96.846M109.965 99.5091C111.28 99.3768 112.598 99.1363 113.886 98.7587M111.131 96.846C111.583 97.4587 112.767 98.699 113.886 98.7587M113.886 98.7587C114.677 98.5268 115.456 98.2431 116.216 97.9011C118.183 98.0344 120.572 98.1964 123.208 98.3547M120.34 95.8182C120.363 96.5042 120.97 97.9719 123.208 98.3547M120.34 95.8182C121.795 95.9778 123.375 96.1196 125.072 96.2414M123.208 98.3547C124.978 98.4611 126.86 98.5658 128.801 98.6591M125.072 96.2414C125.227 96.764 126.191 97.9791 128.801 98.6591M125.072 96.2414C126.817 96.3666 128.684 96.4706 130.665 96.5508M128.801 98.6591C130.628 98.747 132.507 98.8248 134.394 98.8843M130.665 96.5508C130.976 97.1204 132.157 98.3844 134.394 98.8843M130.665 96.5508C132.582 96.6284 134.604 96.6837 136.724 96.7144M134.394 98.8843C136.741 98.9583 139.1 99.0041 141.385 99.0059M136.724 96.7144C137.035 97.3105 138.402 98.6032 141.385 99.0059M136.724 96.7144C138.521 96.7405 140.387 96.7488 142.317 96.7381M141.385 99.0059C143.319 99.0074 145.201 98.9774 146.978 98.9063M142.317 96.7381C142.967 97.5101 144.809 99.0245 146.978 98.9063M142.317 96.7381C144.127 96.728 145.993 96.7012 147.91 96.6565M146.978 98.9063C148.459 98.8471 149.867 98.7595 151.173 98.6378M147.91 96.6565C148.221 97.4071 149.309 98.8543 151.173 98.6378M147.91 96.6565C151.184 96.5801 154.609 96.4516 158.164 96.265M151.173 98.6378C151.993 98.5614 152.772 98.4717 153.504 98.3672C156.511 97.9376 159.562 97.772 162.359 97.6541M158.164 96.265C158.786 96.7595 160.495 97.7297 162.359 97.6541M158.164 96.265C160.145 96.161 162.166 96.0391 164.224 95.8981M162.359 97.6541C164.023 97.5839 165.598 97.5307 167.02 97.4488M164.224 95.8981C164.38 96.2642 165.159 97.0869 167.02 97.4488" stroke="#4B371F" stroke-linecap="round" stroke-linejoin="round"/>
    <path d="M5.75262 86.2485C2.39677 85.1299 1.8686 82.9859 2.02397 82.0537C2.76878 82.4937 3.52962 82.9337 4.35435 83.3628C5.32689 83.8689 6.38828 84.3597 7.61699 84.8176C8.82775 85.2688 10.201 85.6879 11.8118 86.0579C13.0566 86.3438 14.4434 86.6004 16.0066 86.8197C17.2813 86.9986 18.6733 87.1527 20.2015 87.2777C21.363 87.3728 22.6031 87.4511 23.9302 87.5107C25.904 87.5994 28.0701 87.6468 30.4555 87.6468C31.1344 88.6651 32.4466 89.5289 34.1842 90.2494C35.2763 90.7023 36.5365 91.0986 37.913 91.4412C39.3583 91.8008 40.9319 92.1011 42.5738 92.3454C43.9364 92.5481 45.3461 92.7121 46.7687 92.8395C48.3217 92.9784 49.8902 93.0736 51.4296 93.1273C53.1996 93.1891 54.9311 93.1962 56.5566 93.1521C59.7985 93.0642 62.6186 92.7731 64.4802 92.3077C65.1943 93.2003 66.5077 93.885 68.2169 94.4027C69.7947 94.8806 71.7098 95.2161 73.8019 95.4415C75.4289 95.6168 77.1631 95.7255 78.929 95.7826C80.6309 95.8377 82.3624 95.845 84.056 95.8179C85.6629 95.7922 87.2357 95.7356 88.7169 95.6597C91.4977 95.5172 93.9553 95.3065 95.7083 95.1043C96.1166 95.2873 96.9522 95.531 98.0602 95.7826C99.3276 96.0704 100.951 96.3686 102.7 96.5982C104.059 96.7766 105.494 96.9136 106.894 96.9721C108.389 97.0344 109.845 97.0073 111.131 96.8457C113.029 96.607 114.556 96.075 115.284 95.1043C116.74 95.3691 118.432 95.6087 120.34 95.8179C121.795 95.9775 123.375 96.1194 125.072 96.2411C126.817 96.3664 128.684 96.4703 130.665 96.5505C132.582 96.6281 134.604 96.6834 136.724 96.7142C138.521 96.7402 140.387 96.7485 142.317 96.7378C144.127 96.7278 145.993 96.701 147.91 96.6562C151.184 96.5799 154.609 96.4513 158.164 96.2647C160.145 96.1608 162.166 96.0388 164.224 95.8979C167.404 95.68 170.671 95.4167 174.012 95.1043C173.774 96.7683 170.99 97.2199 167.02 97.4485C165.598 97.5304 164.023 97.5836 162.359 97.6538C159.562 97.7717 156.511 97.9373 153.504 98.3669C152.772 98.4714 151.993 98.5612 151.173 98.6375C151.119 98.6438 151.066 98.6486 151.014 98.6522C149.753 98.7663 148.399 98.8493 146.978 98.906C146.934 98.9085 146.89 98.9102 146.846 98.9113C145.108 98.9786 143.271 99.007 141.385 99.0056C139.1 99.0038 136.741 98.958 134.394 98.884C132.507 98.8245 130.628 98.7467 128.801 98.6589C126.86 98.5655 124.978 98.4608 123.208 98.3544C120.572 98.1961 118.183 98.0342 116.217 97.9008L116.216 97.9008C115.456 98.2429 114.677 98.5265 113.886 98.7584C112.598 99.136 111.28 99.3765 109.965 99.5088C108.126 99.6939 106.295 99.6675 104.564 99.5088C104.489 99.5048 104.417 99.4979 104.347 99.4882C102.897 99.3454 101.521 99.1113 100.275 98.833C100.255 98.8291 100.235 98.8247 100.216 98.8198C99.0546 98.5316 98.2967 96.6847 98.0602 95.7826C96.9522 95.531 96.1166 95.2873 95.7083 95.1043C95.5143 95.635 95.2962 96.4407 95.1332 97.4347C94.0552 97.5945 93.0039 97.7306 91.9795 97.8449C90.1884 98.0447 88.4793 98.1778 86.8525 98.2537C85.0413 98.3383 83.3321 98.352 81.7255 98.308C79.7224 98.2533 77.8787 98.109 76.1955 97.9008C74.0484 97.6353 72.1624 97.2658 70.5394 96.8457C67.3311 96.0152 65.1508 94.9868 64.014 94.1721C62.3962 94.4231 60.8431 94.627 59.3531 94.7882C57.7248 94.9644 56.1719 95.0896 54.6922 95.1695C53.2223 95.2488 51.8247 95.2836 50.4974 95.2793C50.4604 95.2798 50.4236 95.2796 50.3871 95.2788C48.7662 95.2709 47.2506 95.2047 45.8365 95.0906C43.9498 94.9384 42.2438 94.7009 40.7095 94.4027C39.1332 94.0963 37.7381 93.7259 36.5146 93.3181C36.4913 93.3109 36.468 93.3031 36.4448 93.2947C32.9726 92.1271 30.8958 90.6593 29.9894 89.5112C28.3855 89.6448 26.8296 89.7018 25.3285 89.6973C23.814 89.6927 22.3553 89.6255 20.9595 89.5112C19.5702 89.3974 18.2431 89.2369 16.9852 89.0451C15.6456 88.8408 14.3844 88.6009 13.2101 88.3439C11.8455 88.0453 10.5982 87.7236 9.48135 87.4078C7.99817 86.9884 6.74498 86.5793 5.75262 86.2485Z" fill="#CE6B24"/>
    <path d="M95.7083 95.1043C95.5143 95.635 95.2962 96.4407 95.1332 97.4347C94.0552 97.5945 93.0039 97.7306 91.9795 97.8449M95.7083 95.1043C93.9553 95.3065 91.4977 95.5172 88.7169 95.6597M95.7083 95.1043C96.1166 95.2873 96.9522 95.531 98.0602 95.7826M5.75262 86.2485C2.39677 85.1299 1.8686 82.9859 2.02397 82.0537C2.76878 82.4937 3.52962 82.9337 4.35435 83.3628M5.75262 86.2485C4.97581 85.5676 3.6086 84.0373 4.35435 83.3628M5.75262 86.2485C6.74498 86.5793 7.99817 86.9884 9.48135 87.4078M95.7083 97.4347C96.8078 97.8929 98.3936 98.4131 100.275 98.833M4.35435 83.3628C5.32689 83.8689 6.38828 84.3597 7.61699 84.8176M7.61699 84.8176C7.77235 85.4459 8.36274 86.8437 9.48135 87.4078M7.61699 84.8176C8.82776 85.2688 10.201 85.6879 11.8118 86.0579M9.48135 87.4078C10.5982 87.7236 11.8455 88.0453 13.2101 88.3439M11.8118 86.0579C11.8118 86.5862 12.0915 87.783 13.2101 88.3439M11.8118 86.0579C13.0566 86.3438 14.4434 86.6004 16.0066 86.8197M13.2101 88.3439C14.3844 88.6009 15.6456 88.8408 16.9852 89.0451M16.0066 86.8197C15.8822 87.4062 15.9036 88.6722 16.9852 89.0451M16.0066 86.8197C17.2813 86.9986 18.6733 87.1527 20.2015 87.2777M16.9852 89.0451C18.2431 89.2369 19.5702 89.3974 20.9595 89.5112M20.2015 87.2777C20.0853 87.7115 20.0744 88.7654 20.9595 89.5112M20.2015 87.2777C21.363 87.3728 22.6031 87.4511 23.9302 87.5107M20.9595 89.5112C22.3553 89.6255 23.814 89.6927 25.3285 89.6973M23.9302 87.5107C25.904 87.5994 28.0701 87.6468 30.4555 87.6468C31.1344 88.6651 32.4467 89.5289 34.1842 90.2494M23.9302 87.5107C23.6195 88.1462 23.4641 89.4733 25.3285 89.6973M25.3285 89.6973C26.8296 89.7018 28.3855 89.6448 29.9894 89.5112C30.9018 90.667 33.0005 92.1467 36.5146 93.3181M34.1842 90.2494C34.4949 91.1298 35.396 92.9761 36.5146 93.3181M34.1842 90.2494C35.2763 90.7023 36.5365 91.0986 37.913 91.4412M36.5146 93.3181C37.7381 93.7259 39.1332 94.0963 40.7095 94.4027M37.913 91.4412C38.0683 92.0391 38.8451 93.4686 40.7095 94.4027M37.913 91.4412C39.3583 91.8008 40.9319 92.1011 42.5738 92.3454M40.7095 94.4027C42.2438 94.7009 43.9498 94.9384 45.8365 95.0906M42.5738 92.3454C42.5738 92.9452 43.2264 94.334 45.8365 95.0906M42.5738 92.3454C43.9364 92.5481 45.3461 92.7121 46.7687 92.8395M45.8365 95.0906C47.2826 95.2073 48.8349 95.2739 50.4974 95.2793M46.7687 92.8395C47.2347 93.6632 48.633 95.3045 50.4974 95.2793M46.7687 92.8395C48.3217 92.9784 49.8902 93.0736 51.4296 93.1273M50.4974 95.2793C51.8247 95.2836 53.2223 95.2488 54.6922 95.1695M51.4296 93.1273C51.4296 93.519 52.0821 94.4759 54.6922 95.1695M51.4296 93.1273C53.1996 93.1891 54.9311 93.1962 56.5566 93.1521M54.6922 95.1695C56.1719 95.0896 57.7248 94.9644 59.3531 94.7882M56.5566 93.1521C59.7985 93.0642 62.6186 92.7731 64.4802 92.3077C65.1943 93.2003 66.5077 93.885 68.2169 94.4027M56.5566 93.1521C57.0227 93.5967 58.2345 94.5463 59.3531 94.7882M59.3531 94.7882C60.8431 94.627 62.3962 94.4231 64.014 94.1721C65.1508 94.9868 67.3311 96.0152 70.5394 96.8457M68.2169 94.4027C68.3697 94.8653 69.0479 96.0016 70.5394 96.8457M68.2169 94.4027C69.7947 94.8806 71.7098 95.2161 73.8019 95.4415M70.5394 96.8457C72.1624 97.2658 74.0484 97.6353 76.1955 97.9008M73.8019 95.4415C73.844 95.9506 74.3816 97.1551 76.1955 97.9008M73.8019 95.4415C75.4289 95.6168 77.1631 95.7255 78.929 95.7826M76.1955 97.9008C77.8787 98.109 79.7224 98.2533 81.7255 98.308M78.929 95.7826C79.2397 96.4495 80.234 97.8881 81.7255 98.308M78.929 95.7826C80.6309 95.8377 82.3624 95.845 84.056 95.8179M81.7255 98.308C83.3321 98.352 85.0413 98.3383 86.8525 98.2537M84.056 95.8179C84.2113 96.4367 84.9881 97.7903 86.8525 98.2537M84.056 95.8179C85.6629 95.7922 87.2357 95.7356 88.7169 95.6597M86.8525 98.2537C88.4793 98.1778 90.1884 98.0447 91.9795 97.8449M88.7169 95.6597C89.3383 96.3695 90.8609 97.8002 91.9795 97.8449M98.0602 95.7826C98.3007 96.6998 99.0802 98.5939 100.275 98.833M98.0602 95.7826C99.3276 96.0704 100.951 96.3686 102.7 96.5982M100.275 98.833C101.583 99.1251 103.034 99.3686 104.564 99.5088M102.7 96.5982C102.544 97.5264 102.7 99.4082 104.564 99.5088M102.7 96.5982C104.059 96.7766 105.494 96.9136 106.894 96.9721M104.564 99.5088C106.295 99.6675 108.126 99.6939 109.965 99.5088M106.894 96.9721C107.077 97.7322 107.947 99.3037 109.965 99.5088M106.894 96.9721C108.389 97.0344 109.845 97.0073 111.131 96.8457M109.965 99.5088C111.28 99.3765 112.598 99.136 113.886 98.7584M111.131 96.8457C113.029 96.607 114.556 96.075 115.284 95.1043C116.74 95.3691 118.432 95.6087 120.34 95.8179M111.131 96.8457C111.583 97.4584 112.767 98.6987 113.886 98.7584M113.886 98.7584C114.677 98.5265 115.456 98.2429 116.216 97.9008C118.183 98.0342 120.572 98.1961 123.208 98.3544M120.34 95.8179C120.363 96.5039 120.97 97.9716 123.208 98.3544M120.34 95.8179C121.795 95.9775 123.375 96.1194 125.072 96.2411M123.208 98.3544C124.978 98.4608 126.86 98.5655 128.801 98.6589M125.072 96.2411C125.227 96.7637 126.191 97.9789 128.801 98.6589M125.072 96.2411C126.817 96.3664 128.684 96.4703 130.665 96.5505M128.801 98.6589C130.628 98.7467 132.507 98.8245 134.394 98.884M130.665 96.5505C130.976 97.1201 132.157 98.3842 134.394 98.884M130.665 96.5505C132.582 96.6281 134.604 96.6834 136.724 96.7142M134.394 98.884C136.741 98.958 139.1 99.0038 141.385 99.0056M136.724 96.7142C137.035 97.3102 138.402 98.603 141.385 99.0056M136.724 96.7142C138.521 96.7402 140.387 96.7485 142.317 96.7378M141.385 99.0056C143.319 99.0071 145.201 98.9771 146.978 98.906M142.317 96.7378C142.967 97.5098 144.809 99.0242 146.978 98.906M142.317 96.7378C144.127 96.7278 145.993 96.701 147.91 96.6562M146.978 98.906C148.459 98.8469 149.867 98.7592 151.173 98.6375M147.91 96.6562C148.221 97.4069 149.309 98.854 151.173 98.6375M147.91 96.6562C151.184 96.5799 154.609 96.4513 158.164 96.2647M151.173 98.6375C151.993 98.5612 152.772 98.4714 153.504 98.3669C156.511 97.9373 159.562 97.7717 162.359 97.6538M158.164 96.2647C158.786 96.7592 160.495 97.7294 162.359 97.6538M158.164 96.2647C160.145 96.1608 162.166 96.0388 164.224 95.8979M162.359 97.6538C164.023 97.5836 165.598 97.5304 167.02 97.4485M164.224 95.8979C167.404 95.68 170.671 95.4167 174.012 95.1043C173.774 96.7683 170.99 97.2199 167.02 97.4485M164.224 95.8979C164.38 96.264 165.159 97.0866 167.02 97.4485" stroke="#4B371F" stroke-linecap="round" stroke-linejoin="round"/>
    <g filter="url(#filter1_ii_662_10623)">
      <path d="M102.7 69.0034C174.012 53.3019 179.581 86.0582 174.012 95.1046C170.671 95.417 167.404 95.6803 164.224 95.8982C162.166 96.0392 160.145 96.1611 158.164 96.2651C154.609 96.4516 151.184 96.5802 147.91 96.6566C145.992 96.7013 144.127 96.7281 142.317 96.7381C140.387 96.7489 138.521 96.7405 136.724 96.7145C134.604 96.6838 132.582 96.6285 130.665 96.5509C128.684 96.4707 126.817 96.3667 125.072 96.2415C123.375 96.1197 121.795 95.9778 120.34 95.8182C118.432 95.609 116.74 95.3694 115.284 95.1046C114.556 96.0753 113.029 96.6074 111.13 96.846C109.845 97.0076 108.389 97.0347 106.894 96.9724C105.493 96.914 104.059 96.777 102.7 96.5985C100.951 96.3689 99.3275 96.0708 98.0601 95.783C96.9522 95.5314 96.1166 95.2877 95.7082 95.1046C93.9552 95.3069 91.4977 95.5175 88.7168 95.66C87.2357 95.7359 85.6629 95.7925 84.0559 95.8182C82.3623 95.8453 80.6309 95.838 78.9289 95.783C77.163 95.7258 75.4289 95.6172 73.8019 95.4419C71.7097 95.2165 69.7947 94.8809 68.2169 94.403C66.5077 93.8853 65.1942 93.2006 64.4801 92.3081C62.6186 92.7734 59.7985 93.0646 56.5565 93.1525C54.9311 93.1965 53.1995 93.1895 51.4295 93.1277C49.8901 93.0739 48.3217 92.9788 46.7686 92.8398C45.346 92.7125 43.9364 92.5484 42.5738 92.3457C40.9318 92.1015 39.3583 91.8011 37.913 91.4415C36.5365 91.099 35.2763 90.7027 34.1842 90.2498C32.4466 89.5292 31.1344 88.6654 30.4555 87.6471C28.07 87.6471 25.904 87.5997 23.9301 87.511C22.6031 87.4514 21.3629 87.3731 20.2014 87.2781C18.6732 87.153 17.2812 86.9989 16.0066 86.8201C14.4433 86.6008 13.0566 86.3442 11.8118 86.0583C10.201 85.6883 8.82772 85.2691 7.61695 84.818C6.38824 84.3601 5.32685 83.8692 4.35431 83.3632C3.52958 82.9341 2.76874 82.4941 2.02393 82.0541C4.35431 57.0307 42.5738 51.9035 102.7 69.0034Z" fill="#AA061C"/>
    </g>
    <path d="M64.4801 92.3081C65.0375 89.6669 65.692 85.2235 70.5393 84.8506M64.4801 92.3081C62.6186 92.7734 59.7985 93.0646 56.5565 93.1525C54.9311 93.1965 53.1995 93.1895 51.4295 93.1277C49.8901 93.0739 48.3217 92.9788 46.7686 92.8398C45.346 92.7125 43.9364 92.5484 42.5738 92.3457C40.9318 92.1015 39.3583 91.8011 37.913 91.4415C36.5365 91.099 35.2763 90.7027 34.1842 90.2498C32.4466 89.5292 31.1344 88.6654 30.4555 87.6471M64.4801 92.3081C65.1942 93.2006 66.5077 93.8853 68.2169 94.403C69.7947 94.8809 71.7097 95.2165 73.8019 95.4419C75.4289 95.6172 77.163 95.7258 78.9289 95.783C80.6309 95.838 82.3623 95.8453 84.0559 95.8182C85.6629 95.7925 87.2357 95.7359 88.7168 95.66C91.4977 95.5175 93.9552 95.3069 95.7082 95.1046C96.1166 95.2877 96.9522 95.5314 98.0601 95.783C99.3275 96.0708 100.951 96.3689 102.7 96.5985C104.059 96.777 105.493 96.914 106.894 96.9724C108.389 97.0347 109.845 97.0076 111.13 96.846C113.029 96.6074 114.556 96.0753 115.284 95.1046M30.4555 87.6471C31.2323 85.8631 34.5571 81.588 37.913 81.588M30.4555 87.6471C28.07 87.6471 25.904 87.5997 23.9301 87.511C22.6031 87.4514 21.3629 87.3731 20.2014 87.2781C18.6732 87.153 17.2812 86.9989 16.0066 86.8201C14.4433 86.6008 13.0566 86.3442 11.8118 86.0582C10.201 85.6883 8.82772 85.2691 7.61695 84.818C6.38824 84.3601 5.32686 83.8692 4.35431 83.3632C3.52958 82.9341 2.76874 82.4941 2.02393 82.0541C4.35431 57.0307 42.5738 51.9035 102.7 69.0034C174.012 53.3019 179.581 86.0582 174.012 95.1046C170.671 95.417 167.404 95.6803 164.224 95.8982C162.166 96.0392 160.145 96.1611 158.164 96.2651C154.609 96.4516 151.184 96.5802 147.91 96.6566C145.992 96.7013 144.127 96.7281 142.317 96.7381C140.387 96.7489 138.521 96.7405 136.724 96.7145C134.604 96.6838 132.582 96.6285 130.665 96.5509C128.684 96.4707 126.817 96.3667 125.072 96.2415C123.375 96.1197 121.795 95.9778 120.34 95.8182C118.432 95.609 116.74 95.3694 115.284 95.1046M115.284 95.1046C115.284 93.1677 115.657 91.2827 113.42 89.0454" stroke="#4B371F" stroke-linecap="round" stroke-linejoin="round"/>
    <ellipse cx="63.6863" cy="94.254" rx="3.20955" ry="3.72873" transform="rotate(-11.0918 63.6863 94.254)" fill="#AC1F31" stroke="#4B371F" stroke-linecap="round" stroke-linejoin="round"/>
    <ellipse cx="116.504" cy="97.5086" rx="3.20955" ry="3.72873" transform="rotate(24.953 116.504 97.5086)" fill="#AC1F31" stroke="#4B371F" stroke-linecap="round" stroke-linejoin="round"/>
    <ellipse cx="151.813" cy="97.4305" rx="3.20955" ry="3.72873" transform="rotate(21.8937 151.813 97.4305)" fill="#AC1F31" stroke="#4B371F" stroke-linecap="round" stroke-linejoin="round"/>
    <ellipse cx="31.3344" cy="89.0451" rx="3.20955" ry="3.72873" transform="rotate(-7.17788 31.3344 89.0451)" fill="#AC1F31" stroke="#4B371F" stroke-linecap="round" stroke-linejoin="round"/>
    <path d="M15 70.9997C18.1666 67.1663 31.3999 62.6 49 65" stroke="white" stroke-opacity="0.25" stroke-width="7" stroke-linecap="round" stroke-linejoin="round"/>
  </g>
  <mask id="path-12-outside-1_662_10623" maskUnits="userSpaceOnUse" x="45.6846" y="0" width="96" height="84" fill="black">
    <rect fill="white" x="45.6846" width="96" height="84"/>
    <path fill-rule="evenodd" clip-rule="evenodd" d="M88.7247 19.7071C86.6223 17.6195 84.9162 13.9435 88.3932 9.51819C86.7265 8.51819 84.3931 5.81819 88.3932 3.01819C92.3933 0.218192 93.7267 3.85153 93.8933 6.01819C96.3933 5.85144 101.793 5.91797 103.393 7.51807C103.893 5.85144 105.693 3.21819 108.893 6.01819C112.093 8.81819 109.56 11.1848 107.893 12.0181C108.601 14.7312 108.174 19.114 104.59 21.444C105.257 21.8087 105.806 22.1691 106.185 22.5C105.77 23.3584 105.276 24.4293 104.739 25.6302C108.96 24.9876 113.614 23.6857 118.685 21.5L118.966 21.7412C119.055 21.6572 119.127 21.5766 119.185 21.5C136.385 31.5 139.685 45.3333 139.185 51C126.385 56.6 120.518 73 119.185 80.5C92.3846 83.7 69.3512 78.1667 61.1846 75C60.3846 59.8 51.8512 48 47.6846 44C52.8846 26 68.5179 18.1667 75.6846 16.5C75.8722 16.8336 76.1397 17.2105 76.4922 17.6154L76.6846 17.5C78.6289 19.9678 82.6132 23.0395 88.5111 24.7731C88.2118 22.9868 87.9255 21.3421 87.6846 20C87.9802 19.909 88.3311 19.8094 88.7247 19.7071ZM58.7575 42.016C61.3951 37.5368 66.8048 32.2355 75.5792 29.4503C71.892 27.9813 69.3803 26.2924 67.8852 24.8705C63.3473 28.4197 58.9429 33.3459 57.1846 39.5C57.6265 40.2181 58.1608 41.0743 58.7575 42.016ZM122.787 29.6127C120.525 30.6019 116.913 31.5645 111.719 32.2092C122.427 37.1142 127.032 44.7433 128.6 50.18C129.952 48.8893 130.933 47.7539 131.185 47C130.501 43.0642 127.991 35.5949 122.787 29.6127Z"/>
  </mask>
  <path fill-rule="evenodd" clip-rule="evenodd" d="M88.7247 19.7071C86.6223 17.6195 84.9162 13.9435 88.3932 9.51819C86.7265 8.51819 84.3931 5.81819 88.3932 3.01819C92.3933 0.218192 93.7267 3.85153 93.8933 6.01819C96.3933 5.85144 101.793 5.91797 103.393 7.51807C103.893 5.85144 105.693 3.21819 108.893 6.01819C112.093 8.81819 109.56 11.1848 107.893 12.0181C108.601 14.7312 108.174 19.114 104.59 21.444C105.257 21.8087 105.806 22.1691 106.185 22.5C105.77 23.3584 105.276 24.4293 104.739 25.6302C108.96 24.9876 113.614 23.6857 118.685 21.5L118.966 21.7412C119.055 21.6572 119.127 21.5766 119.185 21.5C136.385 31.5 139.685 45.3333 139.185 51C126.385 56.6 120.518 73 119.185 80.5C92.3846 83.7 69.3512 78.1667 61.1846 75C60.3846 59.8 51.8512 48 47.6846 44C52.8846 26 68.5179 18.1667 75.6846 16.5C75.8722 16.8336 76.1397 17.2105 76.4922 17.6154L76.6846 17.5C78.6289 19.9678 82.6132 23.0395 88.5111 24.7731C88.2118 22.9868 87.9255 21.3421 87.6846 20C87.9802 19.909 88.3311 19.8094 88.7247 19.7071ZM58.7575 42.016C61.3951 37.5368 66.8048 32.2355 75.5792 29.4503C71.892 27.9813 69.3803 26.2924 67.8852 24.8705C63.3473 28.4197 58.9429 33.3459 57.1846 39.5C57.6265 40.2181 58.1608 41.0743 58.7575 42.016ZM122.787 29.6127C120.525 30.6019 116.913 31.5645 111.719 32.2092C122.427 37.1142 127.032 44.7433 128.6 50.18C129.952 48.8893 130.933 47.7539 131.185 47C130.501 43.0642 127.991 35.5949 122.787 29.6127Z" fill="#FFF95C"/>
  <path d="M88.3932 9.51819L89.9659 10.7538C90.3205 10.3024 90.4641 9.72037 90.3601 9.15579C90.2561 8.59121 89.9145 8.09855 89.4222 7.8032L88.3932 9.51819ZM88.7247 19.7071L89.2275 21.6429C89.923 21.4623 90.4681 20.9225 90.6555 20.2288C90.8429 19.5351 90.6438 18.7942 90.1339 18.2879L88.7247 19.7071ZM88.3932 3.01819L87.2463 1.37972V1.37972L88.3932 3.01819ZM93.8933 6.01819L91.8992 6.17158C91.9833 7.26498 92.9322 8.08674 94.0264 8.01376L93.8933 6.01819ZM103.393 7.51807L101.979 8.93223C102.477 9.43002 103.2 9.62947 103.882 9.45739C104.565 9.28531 105.107 8.76704 105.309 8.09278L103.393 7.51807ZM108.893 6.01819L110.21 4.51304V4.51304L108.893 6.01819ZM107.893 12.0181L106.999 10.2292C106.154 10.6518 105.72 11.6085 105.958 12.5229L107.893 12.0181ZM104.59 21.444L103.5 19.7671C102.91 20.1508 102.565 20.8163 102.591 21.5197C102.618 22.223 103.013 22.8606 103.63 23.1984L104.59 21.444ZM106.185 22.5L107.986 23.3695C108.377 22.5592 108.179 21.5874 107.502 20.9949L106.185 22.5ZM104.739 25.6302L102.913 24.8134C102.614 25.4814 102.704 26.2592 103.147 26.8415C103.59 27.4238 104.316 27.7175 105.04 27.6074L104.739 25.6302ZM118.685 21.5L119.986 19.9815C119.406 19.4845 118.594 19.3611 117.893 19.6634L118.685 21.5ZM118.966 21.7412L117.664 23.2597C118.442 23.9263 119.598 23.8976 120.341 23.193L118.966 21.7412ZM119.185 21.5L120.19 19.771C119.313 19.2612 118.193 19.4885 117.585 20.2999L119.185 21.5ZM139.185 51L139.986 52.8323C140.656 52.5393 141.113 51.9041 141.177 51.1758L139.185 51ZM119.185 80.5L119.422 82.4859C120.296 82.3815 121 81.7172 121.154 80.8501L119.185 80.5ZM61.1846 75L59.1873 75.1051C59.2287 75.8913 59.7275 76.5801 60.4615 76.8647L61.1846 75ZM47.6846 44L45.7631 43.4449C45.5569 44.1588 45.7635 44.9282 46.2995 45.4428L47.6846 44ZM75.6846 16.5L77.4277 15.5195C76.992 14.7448 76.0973 14.3507 75.2315 14.552L75.6846 16.5ZM76.4922 17.6154L74.9839 18.9287C75.6205 19.6599 76.6899 19.8292 77.5212 19.3304L76.4922 17.6154ZM76.6846 17.5L78.2556 16.2623C77.6325 15.4715 76.5188 15.2671 75.6556 15.785L76.6846 17.5ZM88.5111 24.7731L87.947 26.6919C88.608 26.8862 89.3225 26.7266 89.838 26.2695C90.3535 25.8124 90.5974 25.1221 90.4836 24.4426L88.5111 24.7731ZM87.6846 20L87.0964 18.0884C86.1298 18.3858 85.5374 19.358 85.716 20.3533L87.6846 20ZM75.5792 29.4503L76.1843 31.3566C76.9897 31.1009 77.5476 30.3666 77.5779 29.5221C77.6082 28.6776 77.1045 27.9051 76.3194 27.5923L75.5792 29.4503ZM58.7575 42.016L57.0682 43.0866C57.4411 43.6751 58.0935 44.0271 58.7902 44.0158C59.4869 44.0044 60.1274 43.6313 60.4809 43.0308L58.7575 42.016ZM67.8852 24.8705L69.2635 23.4213C68.545 22.7379 67.4342 22.6842 66.6531 23.2951L67.8852 24.8705ZM57.1846 39.5L55.2615 38.9506C55.1073 39.4903 55.187 40.0701 55.4813 40.5482L57.1846 39.5ZM111.719 32.2092L111.472 30.2244C110.585 30.3345 109.878 31.0205 109.742 31.9043C109.606 32.7881 110.073 33.6551 110.886 34.0275L111.719 32.2092ZM122.787 29.6127L124.296 28.3001C123.723 27.6406 122.787 27.43 121.986 27.7801L122.787 29.6127ZM128.6 50.18L126.678 50.7342C126.872 51.4063 127.403 51.9283 128.078 52.1108C128.753 52.2933 129.475 52.1097 129.981 51.6267L128.6 50.18ZM131.185 47L133.082 47.6325C133.187 47.3187 133.212 46.9839 133.155 46.658L131.185 47ZM86.8206 8.28255C84.7949 10.8607 84.142 13.4261 84.4879 15.7801C84.8239 18.0663 86.0614 19.8811 87.3155 21.1263L90.1339 18.2879C89.2856 17.4455 88.6188 16.3785 88.4454 15.1985C88.282 14.0862 88.5145 12.601 89.9659 10.7538L86.8206 8.28255ZM87.2463 1.37972C86.0602 2.21001 85.1777 3.14662 84.668 4.20961C84.1405 5.30948 84.0727 6.4222 84.3296 7.43488C84.8075 9.31945 86.3231 10.6085 87.3643 11.2332L89.4222 7.8032C88.7967 7.42788 88.3122 6.86694 88.2068 6.4515C88.172 6.31418 88.1667 6.1644 88.2747 5.93927C88.4003 5.67727 88.7262 5.22638 89.5401 4.65667L87.2463 1.37972ZM95.8874 5.86481C95.7918 4.6211 95.3571 2.56332 93.9739 1.22063C93.2037 0.473045 92.1487 -0.0341775 90.8609 0.00178397C89.6428 0.0357988 88.4325 0.549389 87.2463 1.37972L89.5401 4.65667C90.354 4.087 90.8104 4.00475 90.9725 4.00023C91.0649 3.99765 91.1037 4.00917 91.1878 4.09076C91.3166 4.21581 91.4886 4.47508 91.6388 4.90342C91.7839 5.31717 91.8688 5.77633 91.8992 6.17158L95.8874 5.86481ZM104.808 6.1039C104.057 5.35304 103.039 4.93033 102.155 4.6679C101.225 4.39188 100.19 4.22165 99.1899 4.11652C97.1881 3.90607 95.0953 3.93358 93.7602 4.02263L94.0264 8.01376C95.1914 7.93606 97.0485 7.91345 98.7717 8.0946C99.6342 8.18527 100.406 8.32127 101.016 8.50254C101.673 8.6974 101.93 8.88305 101.979 8.93223L104.808 6.1039ZM110.21 4.51304C109.235 3.65988 108.21 3.08085 107.133 2.87312C106.014 2.65734 104.992 2.87327 104.145 3.35274C102.585 4.2361 101.794 5.89005 101.478 6.94336L105.309 8.09278C105.385 7.83942 105.514 7.54446 105.682 7.28939C105.854 7.02907 106.013 6.89212 106.116 6.83355C106.182 6.79638 106.241 6.77483 106.375 6.80074C106.552 6.83469 106.951 6.97651 107.576 7.52335L110.21 4.51304ZM108.788 13.8069C109.821 13.2905 111.354 12.2064 112.061 10.5337C112.441 9.63313 112.571 8.57219 112.239 7.45102C111.915 6.36069 111.206 5.38399 110.21 4.51304L107.576 7.52334C108.181 8.05239 108.354 8.42152 108.404 8.58846C108.444 8.72457 108.437 8.83235 108.376 8.97755C108.3 9.15651 108.136 9.38975 107.859 9.64165C107.586 9.8889 107.271 10.0934 106.999 10.2292L108.788 13.8069ZM105.68 23.1208C110.256 20.1461 110.66 14.6992 109.829 11.5132L105.958 12.5229C106.542 14.7631 106.092 18.0818 103.5 19.7671L105.68 23.1208ZM103.63 23.1984C104.237 23.5308 104.645 23.8106 104.868 24.0051L107.502 20.9949C106.968 20.5276 106.276 20.0867 105.55 19.6895L103.63 23.1984ZM104.383 21.6305C103.958 22.512 103.455 23.6015 102.913 24.8134L106.564 26.4469C107.097 25.257 107.582 24.2049 107.986 23.3695L104.383 21.6305ZM117.893 19.6634C112.966 21.787 108.477 23.0381 104.438 23.653L105.04 27.6074C109.444 26.937 114.262 25.5844 119.476 23.3366L117.893 19.6634ZM120.268 20.2227L119.986 19.9815L117.383 23.0185L117.664 23.2597L120.268 20.2227ZM120.341 23.193C120.496 23.0463 120.648 22.8823 120.785 22.7001L117.585 20.2999C117.596 20.2846 117.603 20.2766 117.604 20.2758C117.605 20.2749 117.601 20.2795 117.59 20.2893L120.341 23.193ZM118.179 23.229C134.751 32.8637 137.62 45.9776 137.192 50.8242L141.177 51.1758C141.749 44.6891 138.018 30.1363 120.19 19.771L118.179 23.229ZM138.383 49.1677C131.434 52.2079 126.49 58.1153 123.142 64.0556C119.788 70.0079 117.918 76.1999 117.215 80.1499L121.154 80.8501C121.785 77.3001 123.515 71.5421 126.627 66.0194C129.746 60.4847 134.135 55.3921 139.986 52.8323L138.383 49.1677ZM118.947 78.5141C92.4988 81.6721 69.7946 76.1935 61.9076 73.1353L60.4615 76.8647C68.9079 80.1399 92.2703 85.7278 119.422 82.4859L118.947 78.5141ZM63.1818 74.8949C62.3485 59.0628 53.5017 46.812 49.0696 42.5572L46.2995 45.4428C50.2008 49.188 58.4206 60.5372 59.1873 75.1051L63.1818 74.8949ZM49.606 44.5551C54.5423 27.468 69.4251 20.0091 76.1376 18.448L75.2315 14.552C67.6107 16.3243 51.2269 24.532 45.7631 43.4449L49.606 44.5551ZM73.9414 17.4805C74.2082 17.9548 74.5603 18.4422 74.9839 18.9287L78.0006 16.3021C77.7191 15.9788 77.5362 15.7124 77.4277 15.5195L73.9414 17.4805ZM75.6556 15.785L75.4632 15.9004L77.5212 19.3304L77.7136 19.215L75.6556 15.785ZM89.0751 22.8543C83.5333 21.2253 79.9171 18.3712 78.2556 16.2623L75.1136 18.7377C77.3406 21.5644 81.6931 24.8536 87.947 26.6919L89.0751 22.8543ZM90.4836 24.4426C90.1831 22.649 89.8954 20.9966 89.6531 19.6467L85.716 20.3533C85.9555 21.6875 86.2405 23.3246 86.5386 25.1035L90.4836 24.4426ZM88.2727 21.9116C88.5369 21.8303 88.8591 21.7386 89.2275 21.6429L88.2219 17.7714C87.8031 17.8802 87.4235 17.9878 87.0964 18.0884L88.2727 21.9116ZM74.9741 27.544C65.719 30.4818 59.916 36.107 57.0341 41.0012L60.4809 43.0308C62.8741 38.9666 67.8906 33.9892 76.1843 31.3566L74.9741 27.544ZM66.5069 26.3198C68.2221 27.951 70.965 29.7649 74.8389 31.3083L76.3194 27.5923C72.819 26.1977 70.5385 24.6339 69.2635 23.4213L66.5069 26.3198ZM66.6531 23.2951C61.9401 26.9812 57.181 32.2325 55.2615 38.9506L59.1076 40.0494C60.7048 34.4594 64.7546 29.8582 69.1174 26.4459L66.6531 23.2951ZM55.4813 40.5482C55.9281 41.2743 56.4671 42.1381 57.0682 43.0866L60.4469 40.9455C59.8545 40.0106 59.3248 39.1618 58.8879 38.4518L55.4813 40.5482ZM111.965 34.1939C117.262 33.5365 121.083 32.5406 123.588 31.4452L121.986 27.7801C119.966 28.6631 116.564 29.5925 111.472 30.2244L111.965 34.1939ZM130.521 49.6259C128.803 43.6658 123.823 35.5539 112.551 30.3909L110.886 34.0275C121.031 38.6745 125.261 45.8209 126.678 50.7342L130.521 49.6259ZM129.981 51.6267C130.687 50.9525 131.332 50.2858 131.847 49.6628C132.325 49.084 132.834 48.3761 133.082 47.6325L129.287 46.3675C129.295 46.3452 129.277 46.4043 129.179 46.5574C129.087 46.702 128.951 46.8876 128.763 47.1147C128.387 47.5705 127.864 48.1169 127.219 48.7334L129.981 51.6267ZM133.155 46.658C132.425 42.4499 129.792 34.6176 124.296 28.3001L121.278 30.9253C126.19 36.5722 128.578 43.6785 129.214 47.342L133.155 46.658Z" fill="#4B371F" mask="url(#path-12-outside-1_662_10623)"/>
  <g filter="url(#filter2_i_662_10623)">
    <path d="M88.3932 9.51819C83.9932 15.1182 87.8932 19.5182 90.3932 21.0182C91.8933 21.9182 95.8933 23.0181 98.3933 23.0181C107.628 23.0181 108.893 15.8514 107.893 12.0181C109.56 11.1848 112.093 8.81819 108.893 6.01819C105.693 3.21819 103.893 5.85144 103.393 7.51807C101.793 5.91797 96.3933 5.85144 93.8933 6.01819C93.7267 3.85153 92.3933 0.218192 88.3932 3.01819C84.3931 5.81819 86.7265 8.51819 88.3932 9.51819Z" fill="#ECB828"/>
  </g>
  <path d="M88.3932 9.51819C83.9932 15.1182 87.8932 19.5182 90.3932 21.0182C91.8933 21.9182 95.8933 23.0181 98.3933 23.0181C107.628 23.0181 108.893 15.8514 107.893 12.0181C109.56 11.1848 112.093 8.81819 108.893 6.01819C105.693 3.21819 103.893 5.85144 103.393 7.51807C101.793 5.91797 96.3933 5.85144 93.8933 6.01819C93.7267 3.85153 92.3933 0.218192 88.3932 3.01819C84.3931 5.81819 86.7265 8.51819 88.3932 9.51819Z" stroke="#4B371F" stroke-linecap="round" stroke-linejoin="round"/>
  <path d="M118.685 21.5C95.4846 31.5 81.0179 23 76.6846 17.5L66.6846 23.5C68.8512 26.6667 77.9846 33 97.1846 33C116.385 33 124.685 29.6667 125.685 27.5L118.685 21.5Z" fill="#9C6923" stroke="#4B371F" stroke-linecap="round" stroke-linejoin="round"/>
  <g filter="url(#filter3_i_662_10623)">
    <path d="M96.1846 28C70.9846 24.8 59.3512 38.3335 57.1846 45.5002C59.6846 66.0002 86.6846 68.0002 104.185 68.0002C118.185 68.0002 126.685 58.0002 129.185 53.0002C128.351 46.0002 121.385 31.2 96.1846 28Z" fill="#E3354A"/>
  </g>
  <path d="M96.1846 28C70.9846 24.8 59.3512 38.3335 57.1846 45.5002C59.6846 66.0002 86.6846 68.0002 104.185 68.0002C118.185 68.0002 126.685 58.0002 129.185 53.0002C128.351 46.0002 121.385 31.2 96.1846 28Z" stroke="#4B371F" stroke-linecap="round" stroke-linejoin="round"/>
  <path d="M60.6853 75.0263C60.6956 75.2228 60.8203 75.395 61.0038 75.4662C69.2404 78.66 92.356 84.207 119.244 80.9965C119.462 80.9704 119.638 80.8043 119.677 80.5875C120.335 76.8875 122.117 70.9668 125.32 65.283C128.525 59.5962 133.122 54.198 139.385 51.4581C139.552 51.3848 139.667 51.226 139.683 51.0439C140.201 45.1723 136.793 31.1591 119.436 21.0677C119.217 20.9403 118.937 20.9971 118.785 21.2C118.639 21.3935 118.305 21.6822 117.691 22.013C117.085 22.3387 116.24 22.6882 115.111 23.0203C114.917 23.0776 114.776 23.2469 114.755 23.4487C114.734 23.6505 114.838 23.8449 115.017 23.9408C120.135 26.6827 123.82 31.0999 126.347 35.535C128.833 39.8983 130.18 44.2461 130.668 46.9517C130.578 47.1622 130.413 47.434 130.162 47.7647C129.87 48.1493 129.484 48.586 129.02 49.0621C128.093 50.0142 126.882 51.0988 125.563 52.2043C123.282 54.1161 120.7 56.0704 118.755 57.4767C118.746 57.3064 118.73 57.1332 118.709 56.9592C118.635 56.3598 118.491 55.7125 118.317 55.0794C117.967 53.8136 117.483 52.565 117.141 51.7969C117.066 51.6264 116.901 51.5123 116.715 51.5009C116.529 51.4895 116.352 51.5828 116.256 51.7428C116.021 52.1346 115.49 52.593 114.697 53.0823C113.92 53.5616 112.951 54.0348 111.913 54.4776C109.947 55.3165 107.775 56.028 106.29 56.451C105.711 55.9798 105.062 55.1935 104.38 54.1749C103.631 53.0568 102.869 51.7009 102.143 50.2733C100.724 47.485 99.4581 44.4559 98.7057 42.4651C99.136 40.6587 100.503 37.0021 102.073 33.1512C103.679 29.2112 105.474 25.1215 106.635 22.7174C106.733 22.5148 106.683 22.2718 106.514 22.1237C105.788 21.4887 104.531 20.7891 103.086 20.1547C101.628 19.515 99.9349 18.9222 98.3058 18.5149C96.6112 18.0913 94.4509 18.1856 92.4795 18.4546C90.4961 18.7252 88.6445 19.1815 87.5375 19.5221C87.2959 19.5965 87.1478 19.8395 87.1924 20.0883C87.7751 23.3347 88.6241 28.3539 89.2772 32.8592C89.6039 35.1124 89.8808 37.2323 90.0511 38.9357C90.1363 39.7877 90.1943 40.5305 90.2188 41.1311C90.2437 41.7424 90.2322 42.1727 90.1914 42.4178C90.155 42.636 90.0315 42.9594 89.8004 43.3885C89.5739 43.8092 89.262 44.299 88.8802 44.8421C88.1168 45.9281 87.0941 47.1987 85.9676 48.512C83.7848 51.0565 81.2367 53.7328 79.4942 55.4829C79.1527 55.426 78.6876 55.2256 78.1146 54.8657C77.447 54.4462 76.7046 53.8569 75.9546 53.1891C74.4559 51.8546 72.9723 50.2478 72.0663 49.177C71.8953 48.9749 71.5964 48.9412 71.3846 49.1C70.4653 49.7894 69.757 51.1144 69.2455 52.3888C68.8868 53.2826 68.6055 54.2026 68.409 54.9692C67.0556 53.4262 65.1824 50.8238 63.2985 48.0445C61.1743 44.9108 59.0651 41.5954 57.7267 39.4267C59.324 34.0509 62.9939 29.6179 66.9873 26.2445C71.0314 22.8282 75.3696 20.5307 78.1124 19.4661C78.2778 19.4019 78.3968 19.2549 78.4251 19.0797C78.4534 18.9046 78.3867 18.7275 78.2499 18.6145C77.1583 17.7127 76.4715 16.8791 76.1204 16.2549C76.0114 16.0612 75.7877 15.9627 75.5713 16.013C68.2911 17.7061 52.4701 25.633 47.2042 43.8612C47.1527 44.0397 47.2043 44.232 47.3383 44.3607C51.4386 48.297 59.8936 59.9843 60.6853 75.0263Z" fill="#FFF95C" stroke="#4B371F" stroke-linecap="round" stroke-linejoin="round"/>
  <path d="M98.1846 18.9998C94.9846 18.1998 89.8512 19.3331 87.6846 19.9998C88.4118 24.0517 89.5536 30.8628 90.2136 35.9998C92.6319 35.8331 97.9402 35.8998 99.8266 37.4998C101.679 32.5604 104.552 25.8818 106.185 22.4998C104.851 21.3331 101.385 19.7998 98.1846 18.9998Z" fill="#FFDB34"/>
  <path d="M139.185 51C126.385 56.6 120.518 73 119.185 80.5C114.73 81.0319 110.38 81.3225 106.185 81.4228C107.385 72.161 113.685 57.9485 116.685 52C117.351 53.5 118.585 56.9 118.185 58.5C122.185 55.6667 130.385 49.4 131.185 47C130.23 41.5 125.707 29.1 115.253 23.5C117.559 22.8213 118.769 22.0541 119.185 21.5C136.385 31.5 139.685 45.3333 139.185 51Z" fill="#D38971"/>
  <path d="M118.185 58.5C118.585 56.9 117.351 53.5 116.685 52C113.685 57.9485 107.385 72.161 106.185 81.4228C108.635 81.3642 111.138 81.2407 113.685 81.0421C118.485 69.4757 118.685 61.1947 118.185 58.5Z" fill="#E2AD39"/>
  <path d="M119.185 21.5C136.385 31.5 139.685 45.3333 139.185 51C136.785 48.6 132.851 47.3333 131.185 47C130.23 41.5 125.707 29.1 115.253 23.5C117.559 22.8213 118.769 22.0541 119.185 21.5Z" fill="#BA6C3C"/>
  <path d="M115.253 23.5C117.559 22.8213 118.769 22.0541 119.185 21.5C125.685 25 132.351 39.9819 132.685 46.5C132.685 46.5 131.683 47.0996 131.185 47C130.23 41.5 125.707 29.1 115.253 23.5Z" fill="#FFFF66"/>
  <path d="M61.1846 75C60.3846 59.8 51.8512 48 47.6846 44C52.8846 26 68.5179 18.1667 75.6846 16.5C76.074 17.1923 76.8072 18.0712 77.9315 19C72.3492 21.1667 60.3846 28.3 57.1846 39.5C59.8512 43.8333 65.8846 53.2 68.6846 56C69.0179 54.3333 70.0846 50.7 71.6846 49.5C73.5179 51.6667 77.6846 56 79.6846 56C80.2689 62 81.087 75.2 79.6846 80C74.8512 79.1667 64.3846 77 61.1846 75Z" fill="#D8A73B"/>
  <path d="M61.1846 75C60.3846 59.8 51.8512 48 47.6846 44L57.1846 39.5C64.7846 49.9 68.0179 69.2662 68.6846 77.6493C65.5004 76.8223 62.6157 75.8945 61.1846 75Z" fill="#BA7E41"/>
  <path d="M47.6846 44C52.8846 26 68.5179 18.1667 75.6846 16.5C76.074 17.1923 76.8072 18.0712 77.9315 19C72.3492 21.1667 60.3846 28.3 57.1846 39.5L47.6846 44Z" fill="#F9C95D"/>
  <path d="M96.8401 8.26386C97.6158 9.40606 96.2013 10.5109 94.3738 11.752C92.5463 12.9932 90.9977 13.9007 90.222 12.7585C89.4463 11.6162 90.1417 9.50523 91.9692 8.26408C93.7968 7.02294 96.0644 7.12165 96.8401 8.26386Z" fill="white"/>
  <path d="M85.6846 37C85.6047 38.9166 81.6491 37.9568 78.5826 37.829C75.5161 37.7011 73.0371 37.4319 73.117 35.5153C73.1969 33.5987 75.7202 31.8187 78.7867 31.9466C81.8532 32.0744 85.7645 35.0834 85.6846 37Z" fill="white"/>
  <path d="M71.1167 72.308C70.796 67.9523 69.4178 62.1392 68.6846 59.4998C67.9218 56.4998 73.1846 53.4998 75.1846 57.9998C76.5272 61.0207 77.0249 68.0085 77.1502 72.6404C77.1837 73.8758 76.0749 74.8149 74.8558 74.6117L72.8558 74.2783C71.8914 74.1176 71.1885 73.2831 71.1167 72.308Z" fill="white"/>
  <defs>
    <filter id="filter0_d_662_10623" x="0.499512" y="58.5" width="175.62" height="61.8945" filterUnits="userSpaceOnUse" color-interpolation-filters="sRGB">
      <feFlood flood-opacity="0" result="BackgroundImageFix"/>
      <feColorMatrix in="SourceAlpha" type="matrix" values="0 0 0 0 0 0 0 0 0 0 0 0 0 0 0 0 0 0 127 0" result="hardAlpha"/>
      <feOffset dx="-1" dy="9"/>
      <feComposite in2="hardAlpha" operator="out"/>
      <feColorMatrix type="matrix" values="0 0 0 0 0 0 0 0 0 0 0 0 0 0 0 0 0 0 0.25 0"/>
      <feBlend mode="normal" in2="BackgroundImageFix" result="effect1_dropShadow_662_10623"/>
      <feBlend mode="normal" in="SourceGraphic" in2="effect1_dropShadow_662_10623" result="shape"/>
    </filter>
    <filter id="filter1_ii_662_10623" x="1.52393" y="58.5" width="174.596" height="39.0034" filterUnits="userSpaceOnUse" color-interpolation-filters="sRGB">
      <feFlood flood-opacity="0" result="BackgroundImageFix"/>
      <feBlend mode="normal" in="SourceGraphic" in2="BackgroundImageFix" result="shape"/>
      <feColorMatrix in="SourceAlpha" type="matrix" values="0 0 0 0 0 0 0 0 0 0 0 0 0 0 0 0 0 0 127 0" result="hardAlpha"/>
      <feOffset dx="8" dy="-7"/>
      <feComposite in2="hardAlpha" operator="arithmetic" k2="-1" k3="1"/>
      <feColorMatrix type="matrix" values="0 0 0 0 0 0 0 0 0 0 0 0 0 0 0 0 0 0 0.25 0"/>
      <feBlend mode="normal" in2="shape" result="effect1_innerShadow_662_10623"/>
      <feColorMatrix in="SourceAlpha" type="matrix" values="0 0 0 0 0 0 0 0 0 0 0 0 0 0 0 0 0 0 127 0" result="hardAlpha"/>
      <feOffset dy="7"/>
      <feComposite in2="hardAlpha" operator="arithmetic" k2="-1" k3="1"/>
      <feColorMatrix type="matrix" values="0 0 0 0 1 0 0 0 0 0.17959 0 0 0 0 0.17959 0 0 0 0.25 0"/>
      <feBlend mode="normal" in2="effect1_innerShadow_662_10623" result="effect2_innerShadow_662_10623"/>
    </filter>
    <filter id="filter2_i_662_10623" x="85.6846" y="1.5" width="25.2446" height="22.0181" filterUnits="userSpaceOnUse" color-interpolation-filters="sRGB">
      <feFlood flood-opacity="0" result="BackgroundImageFix"/>
      <feBlend mode="normal" in="SourceGraphic" in2="BackgroundImageFix" result="shape"/>
      <feColorMatrix in="SourceAlpha" type="matrix" values="0 0 0 0 0 0 0 0 0 0 0 0 0 0 0 0 0 0 127 0" result="hardAlpha"/>
      <feOffset dy="-7"/>
      <feComposite in2="hardAlpha" operator="arithmetic" k2="-1" k3="1"/>
      <feColorMatrix type="matrix" values="0 0 0 0 0 0 0 0 0 0 0 0 0 0 0 0 0 0 0.25 0"/>
      <feBlend mode="normal" in2="shape" result="effect1_innerShadow_662_10623"/>
    </filter>
    <filter id="filter3_i_662_10623" x="56.6846" y="27.0186" width="73" height="41.4814" filterUnits="userSpaceOnUse" color-interpolation-filters="sRGB">
      <feFlood flood-opacity="0" result="BackgroundImageFix"/>
      <feBlend mode="normal" in="SourceGraphic" in2="BackgroundImageFix" result="shape"/>
      <feColorMatrix in="SourceAlpha" type="matrix" values="0 0 0 0 0 0 0 0 0 0 0 0 0 0 0 0 0 0 127 0" result="hardAlpha"/>
      <feOffset dx="3" dy="-19"/>
      <feComposite in2="hardAlpha" operator="arithmetic" k2="-1" k3="1"/>
      <feColorMatrix type="matrix" values="0 0 0 0 0 0 0 0 0 0 0 0 0 0 0 0 0 0 0.25 0"/>
      <feBlend mode="normal" in2="shape" result="effect1_innerShadow_662_10623"/>
    </filter>
  </defs>
</svg>
