<svg width="360" height="340" viewBox="0 0 360 340" fill="none" xmlns="http://www.w3.org/2000/svg">
<ellipse cx="143.132" cy="320.855" rx="112.798" ry="10.129" fill="black" fill-opacity="0.5"/>
<path d="M213.49 320.238C218.08 319.3 220.802 314.49 219.817 309.666C218.832 304.842 214.441 301.484 209.852 302.421C205.262 303.359 202.54 308.169 203.525 312.993C204.51 317.817 208.901 321.175 213.49 320.238Z" fill="#A85150" stroke="black" stroke-width="2"/>
<path d="M210.086 320.37C214.676 319.433 217.398 314.623 216.413 309.799C215.427 304.974 211.037 301.617 206.447 302.554C201.858 303.492 199.136 308.302 200.121 313.126C201.106 317.95 205.496 321.308 210.086 320.37Z" fill="#F29998" stroke="black" stroke-width="2"/>
<path d="M207.497 307.696C209.52 307.282 211.36 308.763 211.765 310.748C212.171 312.733 211.059 314.816 209.036 315.229C207.012 315.643 205.173 314.162 204.767 312.177C204.362 310.192 205.474 308.109 207.497 307.696Z" fill="black" stroke="black" stroke-width="2"/>
<path d="M87.8917 320.238C92.4814 319.3 95.2035 314.49 94.2182 309.666C93.2329 304.842 88.8427 301.484 84.253 302.421C79.6634 303.359 76.9413 308.169 77.9266 312.993C78.9119 317.817 83.3021 321.175 87.8917 320.238Z" fill="#A85150" stroke="black" stroke-width="2"/>
<path d="M84.4865 320.37C89.0761 319.433 91.7982 314.623 90.8129 309.799C89.8276 304.974 85.4374 301.617 80.8478 302.554C76.2581 303.492 73.536 308.302 74.5213 313.126C75.5066 317.95 79.8968 321.308 84.4865 320.37Z" fill="#F29998" stroke="black" stroke-width="2"/>
<path d="M81.8974 307.696C83.9207 307.282 85.7603 308.763 86.1657 310.748C86.5711 312.733 85.4593 314.816 83.4361 315.229C81.4128 315.643 79.5732 314.162 79.1678 312.177C78.7624 310.192 79.8742 308.109 81.8974 307.696Z" fill="black" stroke="black" stroke-width="2"/>
<path fill-rule="evenodd" clip-rule="evenodd" d="M99.3133 286.148C96.3245 286.194 93.4806 286.241 90.8136 286.288C85.1713 286.799 71.2354 287.379 61.3357 283.631C56.5665 281.826 54.2319 280.425 51.7464 278.934C50.2425 278.031 48.6834 277.096 46.4962 276.017C32.2332 271.867 29.7352 275.096 28.1803 280.233C26.2367 286.654 43.8443 300.237 71.0547 301.344C92.823 302.23 178.384 301.713 218.443 301.344C228.485 301.344 250.383 299.794 257.639 293.595C266.709 285.845 267.666 276.419 255.681 273.983C248.45 272.514 240.517 276.812 233.797 280.454C229.377 282.849 225.482 284.96 222.654 284.96C220.73 284.96 209.821 285.027 194.613 285.145C193.759 286.84 192.187 287.997 189.758 287.997H158.258C156.82 287.997 155.553 287.066 154.452 285.493C151.107 285.525 147.739 285.559 144.374 285.593C142.96 287.046 140.772 287.997 137.758 287.997C134.145 287.997 131.664 288.051 129.148 288.105C124.004 288.217 118.709 288.333 103.277 287.997C101.76 287.964 100.448 287.297 99.3133 286.148Z" fill="#A85150"/>
<path d="M90.8136 286.288L90.7958 285.288C90.7716 285.289 90.7475 285.29 90.7234 285.292L90.8136 286.288ZM99.3133 286.148L100.025 285.446C99.8332 285.251 99.5706 285.144 99.2979 285.148L99.3133 286.148ZM61.3357 283.631L60.9816 284.567L61.3357 283.631ZM51.7464 278.934L52.2609 278.076L51.7464 278.934ZM46.4962 276.017L46.9384 275.12C46.8861 275.095 46.8316 275.073 46.7755 275.057L46.4962 276.017ZM28.1803 280.233L27.2232 279.943L28.1803 280.233ZM71.0547 301.344L71.0953 300.345L71.0547 301.344ZM218.443 301.344V300.344L218.434 300.344L218.443 301.344ZM257.639 293.595L258.289 294.355L257.639 293.595ZM255.681 273.983L255.88 273.003V273.003L255.681 273.983ZM233.797 280.454L233.32 279.575V279.575L233.797 280.454ZM194.613 285.145L194.605 284.145C194.23 284.148 193.889 284.36 193.72 284.695L194.613 285.145ZM154.452 285.493L155.271 284.92C155.082 284.649 154.772 284.49 154.442 284.493L154.452 285.493ZM144.374 285.593L144.364 284.593C144.098 284.596 143.843 284.705 143.658 284.896L144.374 285.593ZM129.148 288.105L129.126 287.106L129.148 288.105ZM103.277 287.997L103.299 286.997L103.277 287.997ZM90.8313 287.288C93.4974 287.241 96.3406 287.194 99.3287 287.148L99.2979 285.148C96.3085 285.194 93.4637 285.241 90.7958 285.288L90.8313 287.288ZM60.9816 284.567C71.1138 288.403 85.2534 287.796 90.9037 287.284L90.7234 285.292C85.0892 285.802 71.3569 286.356 61.6897 282.696L60.9816 284.567ZM51.2319 279.791C53.7407 281.296 56.1329 282.731 60.9816 284.567L61.6897 282.696C57 280.921 54.7231 279.553 52.2609 278.076L51.2319 279.791ZM46.0539 276.914C48.2014 277.973 49.7304 278.89 51.2319 279.791L52.2609 278.076C50.7546 277.172 49.1653 276.218 46.9384 275.12L46.0539 276.914ZM29.1374 280.523C29.8959 278.017 30.7824 276.345 32.9095 275.584C35.1855 274.77 39.0992 274.907 46.2168 276.977L46.7755 275.057C39.6302 272.978 35.1635 272.654 32.2359 273.701C29.1596 274.802 28.0196 277.312 27.2232 279.943L29.1374 280.523ZM71.0953 300.345C57.6411 299.798 46.5949 296.166 39.1823 291.914C35.4711 289.785 32.7087 287.523 31.0057 285.45C29.261 283.327 28.8021 281.631 29.1374 280.523L27.2232 279.943C26.5868 282.046 27.6 284.456 29.4604 286.72C31.3625 289.034 34.3382 291.441 38.1872 293.649C45.8951 298.07 57.2579 301.784 71.014 302.343L71.0953 300.345ZM218.434 300.344C178.359 300.713 92.8317 301.229 71.0953 300.345L71.014 302.343C92.8142 303.23 178.409 302.713 218.452 302.344L218.434 300.344ZM256.99 292.834C255.327 294.255 252.749 295.465 249.565 296.467C246.401 297.464 242.724 298.229 238.935 298.806C231.358 299.959 223.425 300.344 218.443 300.344V302.344C223.503 302.344 231.54 301.954 239.236 300.783C243.085 300.197 246.87 299.413 250.166 298.375C253.443 297.343 256.323 296.034 258.289 294.355L256.99 292.834ZM255.482 274.963C258.362 275.549 260.36 276.534 261.639 277.719C262.898 278.885 263.503 280.283 263.556 281.831C263.666 285.007 261.438 289.034 256.99 292.834L258.289 294.355C262.911 290.406 265.696 285.846 265.555 281.762C265.483 279.68 264.647 277.78 262.998 276.252C261.369 274.742 258.992 273.636 255.88 273.003L255.482 274.963ZM234.273 281.333C237.646 279.506 241.243 277.559 244.887 276.243C248.531 274.926 252.121 274.28 255.482 274.963L255.88 273.003C252.01 272.217 248.018 272.985 244.208 274.361C240.398 275.738 236.668 277.761 233.32 279.575L234.273 281.333ZM222.654 285.96C224.285 285.96 226.124 285.36 228.031 284.52C229.956 283.673 232.074 282.525 234.273 281.333L233.32 279.575C231.1 280.778 229.06 281.883 227.226 282.69C225.374 283.505 223.851 283.96 222.654 283.96V285.96ZM194.621 286.145C209.831 286.027 220.735 285.96 222.654 285.96V283.96C220.725 283.96 209.811 284.027 194.605 284.145L194.621 286.145ZM193.72 284.695C193.032 286.061 191.801 286.997 189.758 286.997V288.997C192.574 288.997 194.486 287.619 195.506 285.594L193.72 284.695ZM189.758 286.997H158.258V288.997H189.758V286.997ZM158.258 286.997C157.3 286.997 156.295 286.383 155.271 284.92L153.633 286.066C154.811 287.75 156.34 288.997 158.258 288.997V286.997ZM144.384 286.593C147.749 286.559 151.117 286.525 154.462 286.493L154.442 284.493C151.097 284.525 147.729 284.559 144.364 284.593L144.384 286.593ZM143.658 284.896C142.466 286.12 140.556 286.997 137.758 286.997V288.997C140.989 288.997 143.455 287.972 145.091 286.291L143.658 284.896ZM137.758 286.997C134.133 286.997 131.644 287.051 129.126 287.106L129.17 289.105C131.685 289.05 134.156 288.997 137.758 288.997V286.997ZM129.126 287.106C123.996 287.217 118.716 287.332 103.299 286.997L103.255 288.997C118.702 289.333 124.011 289.217 129.17 289.105L129.126 287.106ZM103.299 286.997C102.094 286.971 101.017 286.451 100.025 285.446L98.6017 286.851C99.8785 288.144 101.426 288.957 103.255 288.997L103.299 286.997Z" fill="black"/>
<path fill-rule="evenodd" clip-rule="evenodd" d="M96.012 280.361C94.2153 280.39 92.4799 280.42 90.8136 280.449C85.1714 280.96 71.3766 281.144 61.3357 277.792C51.2948 274.441 49.3783 273.739 49.6751 273.807C44.0384 271.707 31.794 270.885 30.2392 276.021C28.2956 282.442 43.8443 294.398 71.0547 295.505C92.823 296.391 178.384 295.874 218.443 295.505C228.485 295.505 250.418 293.996 257.639 287.756C266.737 279.894 264.881 274.635 255.048 272.257C247.653 270.469 239.682 273.561 232.997 276.154C228.935 277.73 225.348 279.121 222.654 279.121C220.755 279.121 210.106 279.186 195.209 279.301C195.991 283.539 194.527 287.997 189.758 287.997H158.258C155.485 287.997 153.349 284.539 151.811 279.68C149.982 279.698 148.148 279.716 146.313 279.735C146.708 283.908 144.009 287.997 137.758 287.997C134.145 287.997 131.664 288.051 129.148 288.106C124.004 288.218 118.709 288.333 103.277 287.997C99.9817 287.926 97.6532 284.865 96.012 280.361Z" fill="#F29998"/>
<path d="M90.8136 280.449L90.7959 279.45C90.7717 279.45 90.7475 279.451 90.7235 279.453L90.8136 280.449ZM96.012 280.361L96.9515 280.019C96.8056 279.619 96.4219 279.355 95.9958 279.362L96.012 280.361ZM61.3357 277.792L61.0191 278.741L61.3357 277.792ZM49.6751 273.807L49.4517 274.782C49.9652 274.9 50.4819 274.599 50.6331 274.094C50.7842 273.59 50.518 273.054 50.0243 272.87L49.6751 273.807ZM30.2392 276.021L29.282 275.732L30.2392 276.021ZM218.443 295.505V294.505L218.434 294.505L218.443 295.505ZM257.639 287.756L256.985 286.999L257.639 287.756ZM255.048 272.257L255.283 271.285V271.285L255.048 272.257ZM232.997 276.154L232.636 275.222L232.997 276.154ZM195.209 279.301L195.202 278.301C194.906 278.303 194.627 278.436 194.438 278.664C194.25 278.892 194.172 279.192 194.226 279.482L195.209 279.301ZM151.811 279.68L152.765 279.378C152.632 278.959 152.241 278.676 151.801 278.68L151.811 279.68ZM146.313 279.735L146.303 278.735C146.023 278.738 145.757 278.858 145.57 279.065C145.383 279.273 145.291 279.55 145.318 279.829L146.313 279.735ZM129.148 288.106L129.17 289.106L129.148 288.106ZM103.277 287.997L103.255 288.997L103.277 287.997ZM90.8314 281.449C92.4971 281.42 94.232 281.39 96.0282 281.361L95.9958 279.362C94.1987 279.391 92.4628 279.42 90.7959 279.45L90.8314 281.449ZM61.0191 278.741C71.2562 282.158 85.2151 281.96 90.9038 281.445L90.7235 279.453C85.1276 279.96 71.497 280.13 61.6523 276.844L61.0191 278.741ZM49.8986 272.833C49.8825 272.829 49.8322 272.817 49.7716 272.81C49.7548 272.808 49.6599 272.796 49.541 272.809C49.4947 272.814 49.325 272.833 49.1407 272.941C49.0375 273.002 48.8971 273.11 48.7894 273.289C48.6748 273.48 48.6342 273.691 48.6502 273.886C48.6774 274.217 48.858 274.422 48.8972 274.466C48.9615 274.539 49.0222 274.586 49.0494 274.607C49.1077 274.65 49.1585 274.678 49.1759 274.688C49.2188 274.711 49.2575 274.728 49.2757 274.737C49.3522 274.77 49.4703 274.815 49.6142 274.868C49.9193 274.981 50.4529 275.17 51.3025 275.463C53.0045 276.05 55.9977 277.065 61.0191 278.741L61.6523 276.844C56.6329 275.169 53.6473 274.156 51.9551 273.572C51.1075 273.28 50.5901 273.096 50.3055 272.992C50.2348 272.966 50.181 272.945 50.1415 272.93C50.1218 272.922 50.1069 272.916 50.0961 272.912C50.0848 272.907 50.081 272.906 50.0825 272.906C50.0834 272.907 50.0878 272.909 50.0947 272.912C50.1007 272.915 50.115 272.922 50.1339 272.932C50.1459 272.939 50.1928 272.964 50.2484 273.006C50.2743 273.025 50.334 273.072 50.3976 273.144C50.4361 273.187 50.6164 273.392 50.6435 273.722C50.6595 273.916 50.619 274.127 50.5045 274.318C50.3969 274.497 50.2567 274.605 50.1538 274.666C49.9701 274.773 49.8013 274.792 49.7562 274.797C49.6397 274.81 49.5484 274.798 49.5363 274.796C49.506 274.793 49.4832 274.788 49.4739 274.787C49.4628 274.784 49.4549 274.783 49.4517 274.782L49.8986 272.833ZM31.1963 276.311C31.4665 275.418 32.2243 274.683 33.5274 274.135C34.8308 273.586 36.5525 273.284 38.4704 273.199C42.3087 273.031 46.6441 273.745 49.3259 274.744L50.0243 272.87C47.0695 271.769 42.4643 271.022 38.3826 271.201C36.3404 271.291 34.3572 271.615 32.7513 272.291C31.1451 272.968 29.7893 274.056 29.282 275.732L31.1963 276.311ZM71.0954 294.506C57.6206 293.958 47.0888 290.724 40.2013 286.883C36.7524 284.959 34.2584 282.906 32.7554 281C31.2313 279.067 30.849 277.458 31.1963 276.311L29.282 275.732C28.6575 277.795 29.4899 280.089 31.1849 282.238C32.901 284.414 35.6304 286.623 39.2271 288.629C46.4307 292.647 57.2785 295.946 71.0141 296.504L71.0954 294.506ZM218.434 294.505C178.359 294.874 92.8318 295.39 71.0954 294.506L71.0141 296.504C92.8143 297.391 178.409 296.874 218.452 296.505L218.434 294.505ZM256.985 286.999C255.333 288.427 252.761 289.642 249.58 290.646C246.417 291.644 242.74 292.408 238.949 292.982C231.368 294.13 223.426 294.505 218.443 294.505V296.505C223.502 296.505 231.547 296.126 239.249 294.959C243.099 294.376 246.887 293.593 250.182 292.553C253.458 291.519 256.335 290.205 258.293 288.513L256.985 286.999ZM254.813 273.229C257.209 273.809 259.043 274.547 260.323 275.407C261.594 276.261 262.257 277.189 262.465 278.16C262.674 279.136 262.464 280.348 261.591 281.849C260.716 283.353 259.215 285.073 256.985 286.999L258.293 288.513C260.613 286.508 262.291 284.622 263.32 282.855C264.35 281.084 264.767 279.359 264.42 277.741C264.072 276.116 262.996 274.793 261.438 273.746C259.888 272.705 257.803 271.895 255.283 271.285L254.813 273.229ZM233.359 277.086C240.119 274.464 247.779 271.529 254.813 273.229L255.283 271.285C247.528 269.41 239.245 272.658 232.636 275.222L233.359 277.086ZM222.654 280.121C224.154 280.121 225.84 279.737 227.611 279.183C229.391 278.626 231.336 277.871 233.359 277.086L232.636 275.222C230.596 276.013 228.717 276.741 227.014 277.274C225.303 277.809 223.848 278.121 222.654 278.121V280.121ZM195.217 280.301C210.115 280.186 220.76 280.121 222.654 280.121V278.121C220.75 278.121 210.096 278.187 195.202 278.301L195.217 280.301ZM194.226 279.482C194.59 281.457 194.409 283.386 193.68 284.773C192.986 286.093 191.766 286.997 189.758 286.997V288.997C192.519 288.997 194.415 287.672 195.45 285.704C196.45 283.802 196.61 281.384 196.193 279.12L194.226 279.482ZM189.758 286.997H158.258V288.997H189.758V286.997ZM158.258 286.997C157.334 286.997 156.368 286.428 155.38 285.072C154.398 283.725 153.519 281.762 152.765 279.378L150.858 279.982C151.641 282.456 152.599 284.652 153.763 286.25C154.921 287.837 156.409 288.997 158.258 288.997V286.997ZM146.323 280.735C148.158 280.716 149.992 280.698 151.821 280.68L151.801 278.68C149.972 278.698 148.138 278.716 146.303 278.735L146.323 280.735ZM145.318 279.829C145.492 281.675 144.98 283.45 143.788 284.757C142.606 286.055 140.658 286.997 137.758 286.997V288.997C141.109 288.997 143.636 287.894 145.267 286.104C146.889 284.324 147.529 281.968 147.309 279.641L145.318 279.829ZM137.758 286.997C134.133 286.997 131.644 287.051 129.126 287.106L129.17 289.106C131.685 289.051 134.156 288.997 137.758 288.997V286.997ZM129.126 287.106C123.996 287.218 118.716 287.333 103.299 286.997L103.255 288.997C118.702 289.333 124.011 289.218 129.17 289.106L129.126 287.106ZM103.299 286.997C101.994 286.969 100.833 286.36 99.7686 285.174C98.689 283.97 97.7504 282.211 96.9515 280.019L95.0724 280.704C95.9147 283.015 96.961 285.039 98.2797 286.509C99.6141 287.997 101.265 288.954 103.255 288.997L103.299 286.997Z" fill="black"/>
<mask id="mask0_2070_68044" style="mask-type:alpha" maskUnits="userSpaceOnUse" x="31" y="271" width="233" height="24">
<path opacity="0.7" fill-rule="evenodd" clip-rule="evenodd" d="M95.3863 281.418C93.7622 281.447 92.1895 281.475 90.6741 281.502C85.0318 282.013 71.237 282.197 61.1961 278.845C51.1553 275.494 49.3764 273.739 49.6732 273.807C44.0365 271.707 33.0291 270.983 31.4742 276.12C29.5306 282.541 44.8088 293.342 71.1798 294.418C92.948 295.307 178.462 294.907 218.521 294.538C228.563 294.538 250.416 293.996 257.637 287.756C266.735 279.894 264.879 274.635 255.046 272.257C247.651 270.469 239.68 273.561 232.995 276.154C228.933 277.73 225.346 279.121 222.652 279.121C220.757 279.121 210.128 279.303 195.254 279.572C195.925 283.727 194.423 287.997 189.756 287.997H158.256C155.617 287.997 153.554 284.864 152.035 280.371C150.931 280.392 149.825 280.413 148.718 280.433C148.23 280.442 147.742 280.451 147.254 280.461C147.8 284.454 145.478 288.264 139.05 288.618L138.913 288.625L138.913 288.625C127.08 289.276 125.646 289.355 102.753 288.857C99.5156 288.787 97.1356 285.815 95.3863 281.418Z" fill="#4D76E2"/>
</mask>
<g mask="url(#mask0_2070_68044)">
</g>
<path opacity="0.7" fill-rule="evenodd" clip-rule="evenodd" d="M95.8221 282.453L88.8985 281.634C84.6132 281.89 77.7287 281.916 70.913 280.992L83.8779 287.096L31.6123 278.921C31.8523 279.602 32.2332 280.305 32.7503 281.017L111.296 294.93C112.591 294.934 113.902 294.938 115.227 294.941L92.655 285.536L98.1024 286.294C97.2499 285.263 96.4934 283.96 95.8221 282.453ZM118.637 289.152L159.911 294.897C169.655 294.863 179.278 294.816 188.282 294.762L187.182 293.263L142.535 287.98C141.543 288.322 140.385 288.545 139.051 288.618L138.913 288.626L138.913 288.626C130.696 289.078 127.494 289.254 118.637 289.152Z" fill="white"/>
</svg>
