<svg width="138" height="70" viewBox="0 0 138 70" fill="none" xmlns="http://www.w3.org/2000/svg">
<ellipse cx="46.4785" cy="18.1733" rx="12.6406" ry="6.89486" transform="rotate(9.38454 46.4785 18.1733)" fill="#FED2AB"/>
<ellipse cx="97.2136" cy="16.4722" rx="11" ry="6" transform="rotate(-18.3812 97.2136 16.4722)" fill="#FED2AB"/>
<path d="M35.7055 29.7275C35.7055 29.7275 33.4556 32.1108 33.3229 34.0252C33.1708 36.2184 35.7671 36.9281 35.7055 39.1257C35.6473 41.1998 32.3921 42.2947 33.3226 43.8745C34.2532 45.4543 35.7055 47.9519 35.7055 47.9519" stroke="black" stroke-width="2" stroke-linecap="round"/>
<path d="M109.228 26.3829C109.228 26.3829 111.833 28.3712 112.274 30.239C112.778 32.3788 110.331 33.4988 110.747 35.6575C111.139 37.695 114.529 38.2495 113.866 39.9588C113.202 41.6682 112.173 44.3677 112.173 44.3677" stroke="black" stroke-width="2" stroke-linecap="round"/>
<path d="M41.9047 29.7275C41.9047 29.7275 39.6548 32.1108 39.5221 34.0252C39.37 36.2184 41.9663 36.9281 41.9047 39.1257C41.8465 41.1998 38.5913 42.2947 39.5218 43.8745C40.4524 45.4543 41.9047 47.9519 41.9047 47.9519" stroke="black" stroke-width="2" stroke-linecap="round"/>
<path d="M103.11 27.3846C103.11 27.3846 105.716 29.3729 106.156 31.2407C106.66 33.3805 104.213 34.5005 104.629 36.6592C105.022 38.6967 108.411 39.2512 107.748 40.9606C107.085 42.6699 106.055 45.3694 106.055 45.3694" stroke="black" stroke-width="2" stroke-linecap="round"/>
<path d="M48.1037 30.0137C48.1037 30.0137 45.8538 32.3969 45.7211 34.3113C45.569 36.5045 48.1653 37.2142 48.1037 39.4119C48.0455 41.4859 44.7902 42.5809 45.7208 44.1606C46.6514 45.7404 48.1037 48.2381 48.1037 48.2381" stroke="black" stroke-width="2" stroke-linecap="round"/>
<path d="M97.0389 28.6688C97.0389 28.6688 99.6444 30.6571 100.085 32.5249C100.589 34.6647 98.1417 35.7846 98.5576 37.9434C98.9502 39.9808 102.34 40.5353 101.677 42.2447C101.014 43.9541 99.9839 46.6536 99.9839 46.6536" stroke="black" stroke-width="2" stroke-linecap="round"/>
<path d="M28.4883 28.0598L56.9883 30.5598" stroke="black" stroke-width="2" stroke-linecap="round" stroke-linejoin="round"/>
<path d="M112.324 24.1711L91.0274 29.5079" stroke="black" stroke-width="2" stroke-linecap="round" stroke-linejoin="round"/>
<ellipse cx="77.8828" cy="49.3096" rx="24" ry="15" fill="#FED2AB"/>
<path d="M87.1749 38.3097C83.9749 37.9097 78.1753 38.0319 74.6753 38.8096C70.1753 39.8095 78.1753 47.8096 82.6753 46.8096C87.1753 45.8096 91.1749 38.8097 87.1749 38.3097Z" fill="black"/>
<ellipse cx="81.6753" cy="40.3096" rx="3" ry="1" fill="#D9D9D9"/>
<path d="M74.377 59.1903C77.6395 50.8073 88.2688 50.1921 93.3204 57.6521" stroke="black" stroke-width="2" stroke-linecap="round"/>
<path d="M81.7383 44.1846C82.8216 45.4533 84.3824 51.0356 82.9824 52.4685" stroke="black" stroke-width="2" stroke-linecap="round"/>
</svg>
