<svg xmlns="http://www.w3.org/2000/svg" width="143" height="76" viewBox="0 0 143 76" fill="none">
  <path d="M15.5534 49.9532C7.93903 45.231 12.3808 40.1154 15.5534 38.1478C48.9884 34.2127 118.64 28.7035 129.769 38.1478C143.68 49.9532 102.68 62.4964 70.4648 62.4964C38.25 62.4964 25.0714 55.8559 15.5534 49.9532Z" fill="#700707" stroke="#5F1111"/>
  <g filter="url(#filter0_i_706_2420)">
    <ellipse cx="71.2128" cy="48.5107" rx="70.2128" ry="25.9574" fill="#713220"/>
  </g>
  <path d="M71.2128 74.9681C90.6449 74.9681 108.259 72.0571 121.034 67.3343C127.419 64.9737 132.622 62.1508 136.237 58.9909C139.851 55.832 141.926 52.2918 141.926 48.5107C141.926 44.7295 139.851 41.1894 136.237 38.0304C132.622 34.8705 127.419 32.0477 121.034 29.687C108.259 24.9643 90.6449 22.0532 71.2128 22.0532C51.7806 22.0532 34.1661 24.9643 21.3915 29.687C15.0061 32.0477 9.80377 34.8705 6.18862 38.0304C2.5745 41.1894 0.5 44.7295 0.5 48.5107C0.5 52.2918 2.5745 55.832 6.18862 58.9909C9.80377 62.1508 15.0061 64.9737 21.3915 67.3343C34.1661 72.0571 51.7806 74.9681 71.2128 74.9681Z" stroke="#622713"/>
  <g filter="url(#filter1_i_706_2420)">
    <ellipse cx="71.2123" cy="45.9575" rx="68.5106" ry="23.4043" fill="#B76F39"/>
  </g>
  <path d="M71.2123 70.3617C90.2106 70.3617 107.453 67.7326 119.98 63.4531C126.239 61.315 131.375 58.7466 134.967 55.8454C138.551 52.9512 140.723 49.6161 140.723 45.9575C140.723 42.2988 138.551 38.9637 134.967 36.0695C131.375 33.1684 126.239 30.5999 119.98 28.4619C107.453 24.1823 90.2106 21.5532 71.2123 21.5532C52.2139 21.5532 34.972 24.1823 22.4447 28.4619C16.186 30.5999 11.0493 33.1684 7.45724 36.0695C3.87386 38.9637 1.70166 42.2988 1.70166 45.9575C1.70166 49.6161 3.87386 52.9512 7.45724 55.8454C11.0493 58.7466 16.186 61.315 22.4447 63.4531C34.972 67.7326 52.2139 70.3617 71.2123 70.3617Z" stroke="#622713" stroke-width="2"/>
  <path d="M72.0635 61C87.7671 61 102.025 58.9436 112.39 55.5922C117.568 53.9184 121.83 51.9038 124.819 49.619C127.793 47.3456 129.659 44.6797 129.659 41.7022C129.659 38.7247 127.793 36.0587 124.819 33.7853C121.83 31.5005 117.568 29.486 112.39 27.8121C102.025 24.4608 87.7671 22.4043 72.0635 22.4043C56.36 22.4043 42.1024 24.4608 31.7367 27.8121C26.5594 29.486 22.2971 31.5005 19.3081 33.7853C16.3339 36.0587 14.4678 38.7247 14.4678 41.7022C14.4678 44.6797 16.3339 47.3456 19.3081 49.619C22.2971 51.9038 26.5594 53.9184 31.7367 55.5922C42.1024 58.9436 56.36 61 72.0635 61Z" fill="#541313" stroke="#622713" stroke-width="2"/>
  <g filter="url(#filter2_i_706_2420)">
    <path d="M15.5804 39.9937C14.7662 37.5893 13.5896 33.151 13.7878 28.0062C13.9145 24.7186 15.7468 21.7666 18.5401 20.0284C50.4125 0.194104 126.738 13.9362 128.475 21.6093C130.726 31.553 128.785 39.2996 127.563 41.9091C124.387 47.1283 104.855 58.2977 72.5682 58.2977C37.2496 58.2977 23.4865 49.3471 17.6908 43.4225C16.7381 42.4486 16.0175 41.2841 15.5804 39.9937Z" fill="#A71D1D"/>
  </g>
  <path d="M127.99 42.1691L128.005 42.1458L128.016 42.1211C129.287 39.407 131.237 31.5466 128.963 21.4989C128.815 20.8477 128.302 20.2539 127.612 19.7151C126.908 19.1649 125.945 18.6149 124.77 18.071C122.416 16.982 119.136 15.8845 115.173 14.8521C107.243 12.7862 96.5141 10.9649 84.8493 10.0053C73.1842 9.04562 60.5666 8.94639 48.8605 10.3323C37.1623 11.7172 26.333 14.5899 18.2759 19.6039C15.3521 21.4234 13.4217 24.5218 13.2882 27.9869C13.0868 33.2141 14.2813 37.7164 15.1069 40.154C15.5683 41.5167 16.3292 42.7456 17.3334 43.7722C23.2531 49.8235 37.165 58.7977 72.5682 58.7977C88.7685 58.7977 101.782 55.9956 111.156 52.5296C115.842 50.7968 119.623 48.8962 122.44 47.0928C125.242 45.2993 127.136 43.5726 127.99 42.1691Z" stroke="#641414"/>
  <path d="M71.2125 45.6806C86.6938 45.6806 100.754 43.3352 110.98 39.5101C116.09 37.599 120.294 35.2993 123.239 32.6949C126.183 30.0916 127.957 27.0982 127.957 23.8296C127.957 20.561 126.183 17.5675 123.239 14.9643C120.294 12.3599 116.09 10.0602 110.98 8.14903C100.754 4.32398 86.6938 1.97852 71.2125 1.97852C55.7311 1.97852 41.6708 4.32398 31.4447 8.14903C26.3353 10.0602 22.131 12.3599 19.186 14.9643C16.2423 17.5675 14.4678 20.561 14.4678 23.8296C14.4678 27.0982 16.2423 30.0916 19.186 32.6949C22.131 35.2993 26.3353 37.599 31.4447 39.5101C41.6708 43.3352 55.7311 45.6806 71.2125 45.6806Z" fill="#FF6F6F" stroke="#872323" stroke-width="2"/>
  <path fill-rule="evenodd" clip-rule="evenodd" d="M125.106 29.3266C126.28 27.6294 126.905 25.8489 126.905 24.0134C126.905 12.3961 101.868 2.97852 70.9832 2.97852C40.0985 2.97852 15.0615 12.3961 15.0615 24.0134C15.0615 25.849 15.6866 27.6296 16.861 29.3269C23.1192 20.2821 44.9784 13.6053 70.9834 13.6053C96.9881 13.6053 118.847 20.282 125.106 29.3266Z" fill="#FFB6B6"/>
  <path d="M84.3537 7.73145C84.3537 9.9414 78.47 9.73219 71.2122 9.73219C63.9544 9.73219 58.0708 9.9414 58.0708 7.73145C58.0708 5.5215 63.9544 3.72998 71.2122 3.72998C78.47 3.72998 84.3537 5.5215 84.3537 7.73145Z" fill="white"/>
  <defs>
    <filter id="filter0_i_706_2420" x="0" y="21.5532" width="142.426" height="53.915" filterUnits="userSpaceOnUse" color-interpolation-filters="sRGB">
      <feFlood flood-opacity="0" result="BackgroundImageFix"/>
      <feBlend mode="normal" in="SourceGraphic" in2="BackgroundImageFix" result="shape"/>
      <feColorMatrix in="SourceAlpha" type="matrix" values="0 0 0 0 0 0 0 0 0 0 0 0 0 0 0 0 0 0 127 0" result="hardAlpha"/>
      <feOffset dx="-2" dy="-6"/>
      <feComposite in2="hardAlpha" operator="arithmetic" k2="-1" k3="1"/>
      <feColorMatrix type="matrix" values="0 0 0 0 0 0 0 0 0 0 0 0 0 0 0 0 0 0 0.25 0"/>
      <feBlend mode="normal" in2="shape" result="effect1_innerShadow_706_2420"/>
    </filter>
    <filter id="filter1_i_706_2420" x="0.70166" y="20.5532" width="141.021" height="50.8086" filterUnits="userSpaceOnUse" color-interpolation-filters="sRGB">
      <feFlood flood-opacity="0" result="BackgroundImageFix"/>
      <feBlend mode="normal" in="SourceGraphic" in2="BackgroundImageFix" result="shape"/>
      <feColorMatrix in="SourceAlpha" type="matrix" values="0 0 0 0 0 0 0 0 0 0 0 0 0 0 0 0 0 0 127 0" result="hardAlpha"/>
      <feOffset dx="-3" dy="10"/>
      <feComposite in2="hardAlpha" operator="arithmetic" k2="-1" k3="1"/>
      <feColorMatrix type="matrix" values="0 0 0 0 0 0 0 0 0 0 0 0 0 0 0 0 0 0 0.25 0"/>
      <feBlend mode="normal" in2="shape" result="effect1_innerShadow_706_2420"/>
    </filter>
    <filter id="filter2_i_706_2420" x="12.7656" y="8.78711" width="117.745" height="50.5107" filterUnits="userSpaceOnUse" color-interpolation-filters="sRGB">
      <feFlood flood-opacity="0" result="BackgroundImageFix"/>
      <feBlend mode="normal" in="SourceGraphic" in2="BackgroundImageFix" result="shape"/>
      <feColorMatrix in="SourceAlpha" type="matrix" values="0 0 0 0 0 0 0 0 0 0 0 0 0 0 0 0 0 0 127 0" result="hardAlpha"/>
      <feOffset dx="5" dy="-8"/>
      <feComposite in2="hardAlpha" operator="arithmetic" k2="-1" k3="1"/>
      <feColorMatrix type="matrix" values="0 0 0 0 0 0 0 0 0 0 0 0 0 0 0 0 0 0 0.25 0"/>
      <feBlend mode="normal" in2="shape" result="effect1_innerShadow_706_2420"/>
    </filter>
  </defs>
</svg>