<svg xmlns="http://www.w3.org/2000/svg" width="31" height="30" viewBox="0 0 31 30" fill="none">
  <circle cx="15.4043" cy="15" r="14" fill="#FFF549" stroke="#4B371F" stroke-width="2"/>
  <circle cx="15.4046" cy="14.9998" r="9.1087" fill="#FFCF23" stroke="#AF7026"/>
  <path d="M16.8563 9.94234C17.3747 9.80352 17.9232 9.82636 18.4283 10.0078C18.9335 10.1892 19.3712 10.5207 19.6829 10.9578C19.9945 11.3948 20.1652 11.9167 20.1721 12.4534C20.1775 12.8756 20.0814 13.2912 19.894 13.6659C20.2346 14.2275 20.4561 14.8545 20.5434 15.5078C20.645 16.2688 20.5614 17.0431 20.2997 17.7649C20.038 18.4868 19.606 19.1347 19.0402 19.6538C18.4745 20.1728 17.7918 20.5476 17.0502 20.7464C16.3086 20.9451 15.5299 20.9618 14.7805 20.7952C14.031 20.6285 13.3328 20.2834 12.7453 19.7891C12.1578 19.2949 11.6982 18.6661 11.4057 17.9562C11.1546 17.3468 11.033 16.693 11.0471 16.0364C10.8266 15.8908 10.6286 15.7124 10.4603 15.5069C10.2195 15.2129 10.0452 14.8703 9.94934 14.5026C9.85344 14.1349 9.83822 13.7508 9.90472 13.3766C9.97122 13.0025 10.1179 12.6472 10.3346 12.335C10.5513 12.0229 10.833 11.7614 11.1603 11.5683C11.4876 11.3753 11.8528 11.2553 12.2309 11.2167C12.6089 11.1781 12.9908 11.2217 13.3504 11.3446C13.6018 11.4305 13.8381 11.5536 14.0516 11.7095C14.3982 11.5717 14.7597 11.4748 15.1288 11.4208C15.2641 11.1146 15.4571 10.8361 15.6983 10.6008C16.0214 10.2857 16.4201 10.059 16.856 9.94241C16.8561 9.94238 16.8562 9.94236 16.8563 9.94234ZM16.8563 9.94234L16.9854 10.4254M16.8563 9.94234L16.9854 10.4254M16.9854 10.4254C17.4055 10.3128 17.85 10.3313 18.2593 10.4784C18.6686 10.6254 19.0233 10.8939 19.2758 11.248C19.5283 11.6022 19.6666 12.025 19.6722 12.4599C19.6778 12.8948 19.5504 13.321 19.3071 13.6815C19.7027 14.2435 19.9568 14.8927 20.0478 15.574C20.1387 16.2552 20.0639 16.9484 19.8297 17.5945C19.5954 18.2407 19.2086 18.8207 18.7022 19.2853C18.1958 19.75 17.5846 20.0855 16.9208 20.2634C16.2569 20.4413 15.5599 20.4563 14.889 20.3071C14.2181 20.1579 13.5931 19.849 13.0672 19.4065C12.5412 18.9641 12.1299 18.4012 11.868 17.7657C11.6062 17.1303 11.5016 16.441 11.5632 15.7564C11.2865 15.6215 11.0422 15.4283 10.8471 15.1901C10.6521 14.9519 10.5109 14.6743 10.4332 14.3764C10.3555 14.0785 10.3431 13.7673 10.397 13.4641C10.4509 13.161 10.5697 12.8731 10.7453 12.6202C10.9209 12.3673 11.1491 12.1554 11.4143 11.999C11.6795 11.8426 11.9754 11.7454 12.2817 11.7141C12.588 11.6828 12.8974 11.7182 13.1887 11.8177C13.4801 11.9173 13.7465 12.0786 13.9696 12.2908C14.4472 12.0623 14.9629 11.9241 15.4908 11.8832L16.9854 10.4254Z" fill="#FFF549" stroke="#AF7026"/>
  <path d="M8.62207 12.7383C8.81048 11.9846 9.75251 10.1383 12.0134 8.78174" stroke="white" stroke-width="2" stroke-linecap="round" stroke-linejoin="round"/>
</svg>