<svg xmlns="http://www.w3.org/2000/svg" width="23" height="23" viewBox="0 0 23 23" fill="none">
  <circle cx="11.7147" cy="11.5746" r="10.4638" fill="#FFF549" stroke="#4B371F" stroke-width="1.2"/>
  <circle cx="11.7133" cy="11.5731" r="7.57761" fill="#FFCF23" stroke="#AF7026" stroke-width="1.2"/>
  <path d="M9.72593 15.3235L9.33969 15.7826C8.81816 15.3439 8.41026 14.7858 8.15063 14.1556C7.93981 13.644 7.83182 13.0972 7.83136 12.5463C7.66067 12.4235 7.50625 12.2787 7.37233 12.1152C7.15149 11.8455 6.99161 11.5312 6.90364 11.1939C6.81568 10.8566 6.80171 10.5043 6.86271 10.1611C6.92371 9.81795 7.05822 9.49201 7.25702 9.2057C7.45583 8.91938 7.71421 8.67946 8.01446 8.50239C8.3147 8.32532 8.64969 8.2153 8.99645 8.17988C9.34322 8.14445 9.69354 8.18445 10.0234 8.29715C10.2234 8.3655 10.4131 8.4596 10.5877 8.57667C10.8386 8.48334 11.0977 8.4139 11.3616 8.36928C11.4826 8.12266 11.6453 7.89759 11.8434 7.70439C12.1397 7.41533 12.5054 7.20734 12.9054 7.10039L9.72593 15.3235ZM9.72593 15.3235L9.33969 15.7826C9.86121 16.2214 10.4809 16.5277 11.1462 16.6756C11.8115 16.8235 12.5026 16.8087 13.1609 16.6323C13.8192 16.4559 14.4252 16.1232 14.9273 15.6625C15.4295 15.2017 15.813 14.6266 16.0453 13.9859C16.2776 13.3452 16.3518 12.6578 16.2616 11.9823C16.1883 11.4338 16.0085 10.9063 15.7334 10.429C15.8781 10.1084 15.9517 9.75862 15.9471 9.40371C15.9408 8.91136 15.7842 8.43268 15.4984 8.03176C15.2125 7.63085 14.811 7.32681 14.3476 7.16036C13.8843 6.99395 13.3812 6.973 12.9057 7.1003L9.72593 15.3235Z" fill="#FFF549" stroke="#AF7026" stroke-width="1.2"/>
  <path d="M5.94336 9.64899C6.1037 9.00761 6.90543 7.43622 8.82958 6.28174" stroke="white" stroke-width="1.2" stroke-linecap="round" stroke-linejoin="round"/>
</svg>