<svg xmlns="http://www.w3.org/2000/svg" width="45" height="35" viewBox="0 0 45 35" fill="none">
  <path fill-rule="evenodd" clip-rule="evenodd" d="M41.5716 20.8282C43.3006 19.2429 43.3006 16.5169 41.5716 14.9316L29.5832 3.93949C27.1676 1.72472 23.3583 3.20859 22.9212 6.29487C22.651 6.35321 22.3808 6.44103 22.1142 6.56056L6.01959 13.7751C2.86782 15.1879 2.86782 19.6624 6.01959 21.0752L22.1142 28.2898C22.3673 28.4032 22.6235 28.4881 22.8799 28.5463V28.8721C22.8799 32.3527 27.0177 34.1726 29.5832 31.8203L41.5716 20.8282Z" fill="#FFB050"/>
  <path d="M41.5716 14.9316L40.22 16.4058L40.22 16.4058L41.5716 14.9316ZM41.5716 20.8282L42.9233 22.3023V22.3023L41.5716 20.8282ZM29.5832 3.93949L30.9348 2.46535V2.46535L29.5832 3.93949ZM22.9212 6.29487L23.3432 8.24983L24.7059 7.95564L24.9014 6.57534L22.9212 6.29487ZM22.1142 6.56056L21.2961 4.73553L21.2961 4.73553L22.1142 6.56056ZM6.01959 13.7751L5.2015 11.9501L6.01959 13.7751ZM6.01959 21.0752L6.83768 19.2502H6.83768L6.01959 21.0752ZM22.1142 28.2898L22.9323 26.4647L22.9323 26.4647L22.1142 28.2898ZM22.8799 28.5463H24.8799V26.9495L23.3227 26.5959L22.8799 28.5463ZM29.5832 31.8203L30.9348 33.2945L29.5832 31.8203ZM40.22 16.4058C41.0845 17.1984 41.0845 18.5614 40.22 19.3541L42.9233 22.3023C45.5167 19.9244 45.5168 15.8354 42.9233 13.4575L40.22 16.4058ZM28.2315 5.41363L40.22 16.4058L42.9233 13.4575L30.9348 2.46535L28.2315 5.41363ZM24.9014 6.57534C25.1188 5.04061 27.0335 4.31522 28.2315 5.41363L30.9348 2.46535C27.3017 -0.865769 21.5978 1.37658 20.9409 6.0144L24.9014 6.57534ZM22.4991 4.33991C22.0925 4.42771 21.6896 4.55914 21.2961 4.73553L22.9323 8.38559C23.0721 8.32293 23.2095 8.27871 23.3432 8.24983L22.4991 4.33991ZM21.2961 4.73553L5.2015 11.9501L6.83767 15.6001L22.9323 8.38559L21.2961 4.73553ZM5.2015 11.9501C0.473839 14.0693 0.473854 20.781 5.20151 22.9003L6.83768 19.2502C5.26179 18.5438 5.26179 16.3065 6.83767 15.6001L5.2015 11.9501ZM5.20151 22.9003L21.2961 30.1148L22.9323 26.4647L6.83768 19.2502L5.20151 22.9003ZM21.2961 30.1148C21.6695 30.2822 22.0514 30.4091 22.4371 30.4967L23.3227 26.5959C23.1955 26.5671 23.065 26.5242 22.9323 26.4647L21.2961 30.1148ZM24.8799 28.8721V28.5463H20.8799V28.8721H24.8799ZM28.2315 30.3462C26.9488 31.5223 24.8799 30.6124 24.8799 28.8721H20.8799C20.8799 34.093 27.0865 36.8229 30.9348 33.2945L28.2315 30.3462ZM40.22 19.3541L28.2315 30.3462L30.9348 33.2945L42.9233 22.3023L40.22 19.3541Z" fill="#4B371F"/>
  <path fill-rule="evenodd" clip-rule="evenodd" d="M38.9159 20.8282C40.6449 19.2429 40.6449 16.5169 38.9159 14.9316L26.9274 3.93949C24.5119 1.72472 20.7025 3.20859 20.2654 6.29487C19.9952 6.35321 19.7251 6.44103 19.4584 6.56056L3.36383 13.7751C0.212054 15.1879 0.212059 19.6624 3.36383 21.0752L19.4584 28.2898C19.7115 28.4032 19.9677 28.4881 20.2241 28.5463V28.8721C20.2241 32.3527 24.3619 34.1726 26.9274 31.8203L38.9159 20.8282Z" fill="#FFCF23"/>
  <path d="M38.9159 14.9316L38.2401 15.6687L38.9159 14.9316ZM38.9159 20.8282L39.5917 21.5653L38.9159 20.8282ZM26.9274 3.93949L27.6032 3.20242L27.6032 3.20242L26.9274 3.93949ZM20.2654 6.29487L20.4764 7.27235L21.1578 7.12526L21.2555 6.43511L20.2654 6.29487ZM19.4584 6.56056L19.0494 5.64804L19.0494 5.64804L19.4584 6.56056ZM3.36383 13.7751L2.95479 12.8626H2.95479L3.36383 13.7751ZM3.36383 21.0752L3.77288 20.1627L3.36383 21.0752ZM19.4584 28.2898L19.8675 27.3772L19.8675 27.3772L19.4584 28.2898ZM20.2241 28.5463H21.2241V27.7479L20.4455 27.5711L20.2241 28.5463ZM26.9274 31.8203L27.6032 32.5574H27.6032L26.9274 31.8203ZM38.2401 15.6687C39.5368 16.8577 39.5368 18.9022 38.2401 20.0911L39.5917 21.5653C41.7529 19.5837 41.7529 16.1762 39.5917 14.1946L38.2401 15.6687ZM26.2516 4.67656L38.2401 15.6687L39.5917 14.1946L27.6032 3.20242L26.2516 4.67656ZM21.2555 6.43511C21.5828 4.1246 24.4448 3.01997 26.2516 4.67656L27.6032 3.20242C24.5789 0.429477 19.8223 2.29259 19.2753 6.15464L21.2555 6.43511ZM20.0544 5.31739C19.716 5.39046 19.3795 5.50009 19.0494 5.64804L19.8675 7.47307C20.0707 7.38198 20.2745 7.31596 20.4764 7.27235L20.0544 5.31739ZM19.0494 5.64804L2.95479 12.8626L3.77287 14.6876L19.8675 7.47307L19.0494 5.64804ZM2.95479 12.8626C-0.984935 14.6286 -0.984924 20.2217 2.95479 21.9877L3.77288 20.1627C1.40904 19.1031 1.40904 15.7472 3.77287 14.6876L2.95479 12.8626ZM2.95479 21.9877L19.0494 29.2023L19.8675 27.3772L3.77288 20.1627L2.95479 21.9877ZM19.0494 29.2023C19.3626 29.3427 19.6817 29.4486 20.0027 29.5215L20.4455 27.5711C20.2537 27.5276 20.0604 27.4637 19.8675 27.3772L19.0494 29.2023ZM21.2241 28.8721V28.5463H19.2241V28.8721H21.2241ZM26.2516 31.0833C24.3275 32.8475 21.2241 31.4825 21.2241 28.8721H19.2241C19.2241 33.2229 24.3963 35.4978 27.6032 32.5574L26.2516 31.0833ZM38.2401 20.0911L26.2516 31.0833L27.6032 32.5574L39.5917 21.5653L38.2401 20.0911Z" fill="#AF7026"/>
  <circle cx="26.7739" cy="16.9673" r="4.5" fill="#FF79A4" stroke="#4B371F"/>
</svg>