<svg xmlns="http://www.w3.org/2000/svg" width="32" height="34" viewBox="0 0 32 34" fill="none">
  <g filter="url(#filter0_i_706_1411)">
    <path d="M23.3873 30.008C17.6539 33.0142 6.46737 33.3432 3.16721 25.8292C-0.132945 18.3142 3.48031 7.57078 15.0877 6.976C26.6952 6.38017 27.0062 16.7041 27.0062 16.7041C27.1315 16.8268 27.251 16.9514 27.3647 17.0788C27.9895 17.7689 28.4593 18.5267 28.7756 19.3253C30.2 22.9263 28.4711 27.3414 23.3873 30.0082V30.008Z" fill="#FFD527"/>
  </g>
  <path d="M28.1083 16.4102C28.8098 17.1856 29.3439 18.0445 29.7053 18.9571L29.7055 18.9575C31.3712 23.1686 29.2471 28.0635 23.8518 30.8937L22.3873 31.6619V31.5635C19.472 32.7242 15.7434 33.2853 12.2431 32.8563C8.11666 32.3504 4.09526 30.429 2.25163 26.2314L2.25161 26.2313C0.483887 22.2059 0.563316 17.3218 2.65168 13.3428C4.76294 9.32019 8.89151 6.29222 15.0365 5.97732L28.1083 16.4102ZM28.1083 16.4102C28.0648 16.3615 28.0207 16.3133 27.976 16.2657C27.9725 16.2297 27.9685 16.1916 27.964 16.1515C27.9295 15.8405 27.8668 15.4043 27.7529 14.8858C27.5261 13.8532 27.0912 12.4696 26.2535 11.0959C25.4119 9.71605 24.1613 8.34345 22.3166 7.36186C20.4714 6.37998 18.0903 5.82057 15.0366 5.97732L28.1083 16.4102Z" stroke="#4B371F" stroke-width="2"/>
  <g opacity="0.6">
    <path d="M7.9559 10.6349C9.88169 9.52253 12.1629 8.89177 14.7365 8.75996C15.1373 8.73943 15.535 8.73118 15.9171 8.73592C20.136 8.79015 23.1643 10.3771 24.9169 13.4533C25.4265 14.3482 25.7517 15.2394 25.9599 15.9991C25.836 15.1764 25.5188 13.772 24.7138 12.3583C23.0653 9.46461 20.2167 7.97178 16.2481 7.92071C15.8886 7.91615 15.5146 7.92387 15.1375 7.94317C12.7168 8.06708 10.5709 8.66046 8.75935 9.7068C7.53486 10.4143 6.48097 11.3156 5.61328 12.3957C6.31161 11.7214 7.094 11.1326 7.95625 10.6345L7.9559 10.6349Z" fill="white"/>
  </g>
  <path d="M8.68781 26.8273C10.5404 26.773 12.0153 25.8124 11.9821 24.6818C11.949 23.5513 10.4203 22.6788 8.56773 22.7332C6.71517 22.7875 5.24026 23.748 5.27342 24.8786C5.30658 26.0092 6.83525 26.8816 8.68781 26.8273Z" fill="#FF765F"/>
  <path d="M29.1186 19.7607C28.8671 20.2607 28.417 20.7617 27.8201 21.1594C26.5673 21.9915 25.1398 22.0468 24.6315 21.2821C24.124 20.5176 24.7272 19.2227 25.9799 18.3907C26.6033 17.976 27.2695 17.7543 27.8441 17.731C28.4085 18.3545 28.8331 19.0392 29.1188 19.7607H29.1186Z" fill="#FF765F"/>
  <path d="M19.6615 19.6069C19.6615 19.6069 18.9257 20.6812 16.374 20.5304C16.374 20.5304 17.9707 23.7309 19.3176 23.4194C20.6644 23.1079 19.8848 21.4743 19.6615 19.6069Z" fill="#591428"/>
  <path d="M19.9812 22.9314C19.9812 22.9314 19.6496 20.4786 16.9565 21.1401C16.9565 21.1401 17.7765 22.6196 18.5961 23.0062C19.4157 23.3928 19.909 23.1519 19.9812 22.9314Z" fill="#FF765F"/>
  <path d="M19.1346 23.7745C17.6635 23.7745 16.2405 21.0121 16.0747 20.6799C16.0215 20.5732 16.0291 20.4461 16.0949 20.3466C16.1607 20.2471 16.2746 20.1915 16.3934 20.1971C18.6872 20.3335 19.3819 19.4233 19.3885 19.414C19.4672 19.2992 19.6072 19.2471 19.7423 19.2804C19.8775 19.3136 19.9765 19.4293 19.993 19.5674C20.046 20.0109 20.1309 20.4389 20.213 20.8531C20.4651 22.1234 20.7257 23.4369 19.3924 23.7452C19.3064 23.7651 19.2202 23.7745 19.1344 23.7745H19.1346ZM16.9429 20.8786C17.53 21.8879 18.5456 23.2533 19.2422 23.0941C19.8838 22.9456 19.8383 22.3974 19.5579 20.9832C19.5124 20.7545 19.4637 20.5086 19.4198 20.254C18.9719 20.5425 18.1948 20.8631 16.9431 20.8787L16.9429 20.8786Z" fill="#591428"/>
  <path d="M12.6893 23.3073C13.9817 23.064 14.8011 21.6537 14.5194 20.1572C14.2377 18.6608 12.9617 17.6449 11.6692 17.8881C10.3768 18.1314 9.55745 19.5417 9.83912 21.0382C10.1208 22.5346 11.3969 23.5505 12.6893 23.3073Z" fill="#591428"/>
  <path d="M11.7062 21.4449C12.2329 21.3457 12.5668 20.771 12.452 20.1612C12.3372 19.5514 11.8172 19.1374 11.2905 19.2365C10.7639 19.3357 10.43 19.9104 10.5448 20.5202C10.6595 21.13 11.1795 21.544 11.7062 21.4449Z" fill="white"/>
  <g opacity="0.35">
    <path d="M13.7517 21.6096C13.8076 21.2041 13.569 20.8362 13.2188 20.788C12.8687 20.7397 12.5395 21.0293 12.4836 21.4347C12.4276 21.8402 12.6662 22.2081 13.0164 22.2564C13.3666 22.3046 13.6958 22.0151 13.7517 21.6096Z" fill="white"/>
  </g>
  <path d="M23.0575 20.5884C24.2581 20.3624 25.0192 19.0523 24.7576 17.6621C24.4959 16.272 23.3105 15.3282 22.1099 15.5542C20.9093 15.7802 20.1482 17.0903 20.4098 18.4805C20.6715 19.8706 21.8569 20.8144 23.0575 20.5884Z" fill="#591428"/>
  <path d="M22.144 18.8588C22.6333 18.7667 22.9434 18.2328 22.8368 17.6663C22.7302 17.0999 22.2471 16.7153 21.7579 16.8074C21.2687 16.8995 20.9585 17.4333 21.0651 17.9998C21.1718 18.5663 21.6548 18.9509 22.144 18.8588Z" fill="white"/>
  <g opacity="0.35">
    <path d="M24.0446 19.0121C24.0965 18.6354 23.8749 18.2937 23.5496 18.2489C23.2243 18.204 22.9184 18.473 22.8665 18.8497C22.8146 19.2264 23.0362 19.5681 23.3615 19.6129C23.6868 19.6578 23.9926 19.3888 24.0446 19.0121Z" fill="white"/>
  </g>
  <path d="M17.5695 1.22698L17.5769 1.22411C17.8182 1.13128 18.0776 1.06481 18.3496 1.02935L17.5695 1.22698ZM17.5695 1.22698L17.562 1.22998M17.5695 1.22698L17.562 1.22998M17.562 1.22998C15.7729 1.95134 14.8096 3.66568 14.6308 5.34147L14.6111 5.35831L14.6011 5.80553C14.5683 7.28248 14.8102 8.67369 15.1747 10.0344L15.1797 10.0528M17.562 1.22998L15.1797 10.0528M15.1797 10.0528L15.1853 10.071M15.1797 10.0528L15.1853 10.071M15.1853 10.071C15.4309 10.8654 16.1985 11.0464 16.6606 10.983C16.9125 10.9485 17.1983 10.8391 17.4313 10.6104C17.6822 10.3642 17.8334 10.0125 17.8078 9.62052C17.739 8.45293 17.7854 7.27007 18.035 6.19992C18.084 6.00357 18.1544 5.7548 18.2516 5.51582C18.2647 5.48362 18.2778 5.4527 18.2909 5.42304M15.1853 10.071L18.2909 5.42304M20.2053 1.32045C20.7424 1.59135 21.2628 2.08826 21.393 2.81859C21.5259 3.56413 21.1918 4.20908 20.7439 4.63264C20.2975 5.05468 19.6875 5.32139 19.0352 5.40646L20.2053 1.32045ZM20.2053 1.32045C19.6606 1.04574 19.0031 0.944148 18.3497 1.02935L20.2053 1.32045ZM18.2909 5.42304C18.5344 5.44425 18.7845 5.43917 19.0352 5.40647L18.2909 5.42304Z" fill="#682942" stroke="#4B371F" stroke-width="2"/>
  <path d="M6.55111 8.6352L6.55107 8.6352C5.79888 6.98031 5.77924 4.77151 7.31869 3.33722L7.32515 3.3312L7.33171 3.3253C7.52403 3.15236 7.74412 3.0011 7.98739 2.87668L7.98743 2.87666C8.57326 2.57708 9.22854 2.46475 9.83325 2.54042C10.4282 2.61487 11.0719 2.88939 11.4788 3.47106L10.6595 4.04433L11.4788 3.47106C11.9058 4.08129 11.9095 4.79834 11.6578 5.39233C11.4133 5.96963 10.9355 6.43706 10.3518 6.73551L6.55111 8.6352ZM6.55111 8.6352C7.16949 10.0031 8.00188 11.203 8.9344 12.337L8.94541 12.3504L8.95688 12.3634C9.44872 12.9209 10.1661 12.9013 10.6197 12.6654C10.8547 12.5431 11.1031 12.3253 11.2355 11.994C11.379 11.6345 11.3429 11.2444 11.1606 10.9165C10.5773 9.85137 10.0955 8.73648 9.85303 7.66333C9.81182 7.46714 9.76787 7.21847 9.75195 6.9713C9.95602 6.91341 10.1574 6.83495 10.3517 6.73558L6.55111 8.6352Z" fill="#682942" stroke="#4B371F" stroke-width="2"/>
  <defs>
    <filter id="filter0_i_706_1411" x="0" y="4.95117" width="31.2646" height="29.0488" filterUnits="userSpaceOnUse" color-interpolation-filters="sRGB">
      <feFlood flood-opacity="0" result="BackgroundImageFix"/>
      <feBlend mode="normal" in="SourceGraphic" in2="BackgroundImageFix" result="shape"/>
      <feColorMatrix in="SourceAlpha" type="matrix" values="0 0 0 0 0 0 0 0 0 0 0 0 0 0 0 0 0 0 127 0" result="hardAlpha"/>
      <feOffset dx="3" dy="-7"/>
      <feComposite in2="hardAlpha" operator="arithmetic" k2="-1" k3="1"/>
      <feColorMatrix type="matrix" values="0 0 0 0 0.968627 0 0 0 0 0.65098 0 0 0 0 0.137255 0 0 0 1 0"/>
      <feBlend mode="normal" in2="shape" result="effect1_innerShadow_706_1411"/>
    </filter>
  </defs>
</svg>