<svg width="269" height="145" viewBox="0 0 269 145" fill="none" xmlns="http://www.w3.org/2000/svg">
<path d="M230.503 1.97852H27.057C20.9702 1.97852 14.8434 3.54229 11.7747 8.79892C6.94992 17.0638 1 34.9018 1 72.6168C1 115.222 8.59295 132.462 13.5793 139.189C15.915 142.341 19.8544 143.255 23.777 143.255H237.761C246.122 143.255 254.051 139.523 257.365 131.848C261.981 121.156 267.383 102.303 267.383 72.6168C267.383 48.4208 263.794 31.4211 259.968 20.1719C255.79 7.89012 243.476 1.97852 230.503 1.97852Z" fill="#532B0F" stroke="#622713" stroke-width="2"/>
<path d="M94.7268 7.36435L95.0982 6.08546L93.7665 6.08545C85.3765 6.08541 76.4175 6.0857 67.3119 6.08599C53.4985 6.08644 39.3477 6.0869 26.3343 6.08622C20.0021 6.08589 14.1346 9.8165 12.1846 15.9602C4.99274 38.6193 -1.37058 81.27 12.3272 128.296C14.2423 134.871 20.3992 139.149 27.1827 139.149H92.2027H93.5686L93.156 137.847C92.2997 135.145 91.13 128.501 90.0706 119.256C89.0151 110.045 88.0776 98.3312 87.6656 85.5382C86.8407 59.927 88.1256 30.0946 94.7268 7.36435Z" fill="url(#paint0_linear_706_1024)" stroke="#D7C69D" stroke-width="2"/>
<path d="M173.67 7.40539L173.224 6.08546L174.617 6.08545C182.975 6.08541 191.854 6.0857 200.864 6.086C210.622 6.08632 220.534 6.08664 230.104 6.08655C243.196 6.08643 255.323 13.8643 258.338 26.7995C263.585 49.3134 266.548 83.3109 257.292 120.685C254.509 131.919 244.045 139.149 232.582 139.149H175.784H174.42L174.83 137.849C175.244 136.535 175.719 134.015 176.206 130.48C176.689 126.969 177.177 122.517 177.63 117.381C178.535 107.109 179.298 94.1214 179.611 80.4765C179.924 66.8303 179.787 52.54 178.893 39.6583C177.999 26.7577 176.35 15.3416 173.67 7.40539Z" fill="url(#paint1_linear_706_1024)" stroke="#D7C69D" stroke-width="2"/>
<path d="M97.4569 138.354L97.6232 139.149H98.4358H169.422H170.192L170.389 138.405C171.702 133.433 172.882 124.265 173.787 112.992C174.695 101.694 175.332 88.2119 175.542 74.5706C175.752 60.9305 175.535 47.1181 174.731 35.1627C173.93 23.2369 172.54 13.064 170.367 6.7599L170.135 6.0858L169.422 6.08576C160.558 6.08525 145.921 6.08547 131.581 6.08569C118.901 6.08589 106.452 6.08608 98.4358 6.08576L97.6416 6.08572L97.4618 6.8593C92.6287 27.6473 85.8806 82.9646 97.4569 138.354Z" fill="url(#paint2_linear_706_1024)" stroke="#D7C69D" stroke-width="2"/>
<defs>
<linearGradient id="paint0_linear_706_1024" x1="47.8681" y1="7.08545" x2="47.8681" y2="138.149" gradientUnits="userSpaceOnUse">
<stop stop-color="#FEF2CF"/>
<stop offset="0.475" stop-color="white"/>
<stop offset="1" stop-color="#FEF2CC"/>
</linearGradient>
<linearGradient id="paint1_linear_706_1024" x1="219.887" y1="7.08545" x2="219.887" y2="138.149" gradientUnits="userSpaceOnUse">
<stop stop-color="#FEF3D2"/>
<stop offset="0.5" stop-color="white"/>
<stop offset="1" stop-color="#FEF3D3"/>
</linearGradient>
<linearGradient id="paint2_linear_706_1024" x1="133.341" y1="7.08545" x2="133.341" y2="138.149" gradientUnits="userSpaceOnUse">
<stop stop-color="#FEF3D0"/>
<stop offset="0.495" stop-color="white"/>
<stop offset="1" stop-color="#FEF2CF"/>
</linearGradient>
</defs>
</svg>
