<svg width="258" height="132" viewBox="0 0 258 132" fill="none" xmlns="http://www.w3.org/2000/svg">
<mask id="mask0_706_1201" style="mask-type:alpha" maskUnits="userSpaceOnUse" x="0" y="0" width="258" height="132">
<path fill-rule="evenodd" clip-rule="evenodd" d="M93.435 0.0852692C88.6266 20.7666 81.895 75.9333 93.435 131.149H164.421C169.572 111.645 172.924 24.756 164.421 0.0852692C155.557 0.0847616 140.921 0.0849843 126.581 0.085206C113.9 0.0854005 101.452 0.0855914 93.435 0.0852692ZM251.32 113.444C260.531 76.2512 257.581 42.4166 252.363 20.026C249.474 7.63279 237.828 0.0859451 225.103 0.0860637C215.533 0.0861528 205.621 0.0858282 195.863 0.0855085C186.853 0.0852134 177.974 0.0849225 169.616 0.0849658C180.505 32.3308 174.322 119.922 170.783 131.149H227.581C238.641 131.149 248.661 124.179 251.32 113.444ZM8.28629 121.016C-5.34551 74.2163 0.992492 31.7714 8.13677 9.26224C9.93814 3.58673 15.3787 0.0854473 21.3333 0.0857575C34.3467 0.0864353 48.4977 0.0859773 62.3112 0.0855302C71.4168 0.0852355 80.3757 0.0849455 88.7655 0.0849887C75.4736 45.8533 83.6443 119.922 87.2018 131.149H22.1817C15.8101 131.149 10.0682 127.133 8.28629 121.016Z" fill="url(#paint0_linear_706_1201)"/>
</mask>
<g mask="url(#mask0_706_1201)">
<rect x="-4.00098" y="-23.2026" width="271.489" height="63.8298" fill="url(#paint1_linear_706_1201)"/>
<rect width="271.489" height="63.8298" transform="matrix(1 0 0 -1 -4.00098 156.372)" fill="url(#paint2_linear_706_1201)"/>
</g>
<defs>
<linearGradient id="paint0_linear_706_1201" x1="128.34" y1="0.0849609" x2="128.34" y2="131.149" gradientUnits="userSpaceOnUse">
<stop stop-color="#FEF3D0"/>
<stop offset="0.495" stop-color="white"/>
<stop offset="1" stop-color="#FEF2CF"/>
</linearGradient>
<linearGradient id="paint1_linear_706_1201" x1="150.893" y1="28.7123" x2="150.893" y2="-19.7984" gradientUnits="userSpaceOnUse">
<stop stop-color="#D9D9D9" stop-opacity="0"/>
<stop offset="1" stop-color="#3A0D14"/>
</linearGradient>
<linearGradient id="paint2_linear_706_1201" x1="154.894" y1="51.9149" x2="154.894" y2="3.40426" gradientUnits="userSpaceOnUse">
<stop stop-color="#D9D9D9" stop-opacity="0"/>
<stop offset="1" stop-color="#3A0D14"/>
</linearGradient>
</defs>
</svg>
